  0
SECTION
  2
HEADER
  9
$ANGBASE
  50
0.0
  9
$ANGDIR
  70
1
  9
$MEASUREMENT
  70
0
  0
ENDSEC
  0
SECTION
  2
TABLES
  0
TABLE
  2
LTYPE
  70
4
  0
LTYPE
  5
40F
  2
CONTINUOUS
  70
0
  3
Solid line
  72
65
  73
0
  40
0.0
  0
LTYPE
  5
410
  2
DASHDOT
 70
0
  3
Dash Dot ____ _ ____ _
 72
65
 73
4
 40
2.0
 49
1.25
 49
-0.25
 49
0.25
 49
-0.25
  0
LTYPE
  5
411
  2
DASHED
 70
0
  3
Dashed __ __ __ __ __
 72
65
 73
2
 40
0.75
 49
0.5
 49
-0.25
  0
LTYPE
  5
43B
  2
DOTTED
 70
0
  3
Dotted .  .  .  .
 72
65
 73
2
 40
0.2
 49
0.0
 49
-0.2
  0
ENDTAB
  0
TABLE
  2
STYLE
  70
4
  0
STYLE
  2
KICAD
  70
0
  40
0
  41
1
  42
1
  50
0
  71
0
  3
isocp.shx
  0
STYLE
  2
KICADB
  70
0
  40
0
  41
1
  42
1
  50
0
  71
0
  3
isocp.shx
  0
STYLE
  2
KICADI
  70
0
  40
0
  41
1
  42
1
  50
15
  71
0
  3
isocp.shx
  0
STYLE
  2
KICADBI
  70
0
  40
0
  41
1
  42
1
  50
15
  71
0
  3
isocp.shx
  0
ENDTAB
  0
TABLE
  2
LAYER
  70
1
  0
LAYER
  2
BLACK
  70
0
  62
7
  6
CONTINUOUS
  0
ENDTAB
  0
ENDSEC
  0
SECTION
  2
ENTITIES
0
LINE
8
BLACK
6
CONTINUOUS
10
0.649958
20
0.681218
11
0.652165
21
0.678451
0
LINE
8
BLACK
6
CONTINUOUS
10
0.652165
20
0.678451
11
0.652279
21
0.677953
0
LINE
8
BLACK
6
CONTINUOUS
10
0.652279
20
0.677953
11
0.69
21
0.677953
0
LINE
8
BLACK
6
CONTINUOUS
10
0.69
20
0.677953
11
0.69101
21
0.677775
0
LINE
8
BLACK
6
CONTINUOUS
10
0.69101
20
0.677775
11
0.692557
21
0.676476
0
LINE
8
BLACK
6
CONTINUOUS
10
0.692557
20
0.676476
11
0.692908
21
0.674487
0
LINE
8
BLACK
6
CONTINUOUS
10
0.692908
20
0.674487
11
0.691898
21
0.672738
0
LINE
8
BLACK
6
CONTINUOUS
10
0.691898
20
0.672738
11
0.69
21
0.672047
0
LINE
8
BLACK
6
CONTINUOUS
10
0.69
20
0.672047
11
0.652953
21
0.672047
0
LINE
8
BLACK
6
CONTINUOUS
10
0.652953
20
0.672047
11
0.652953
21
0.617953
0
LINE
8
BLACK
6
CONTINUOUS
10
0.652953
20
0.617953
11
0.69
21
0.617953
0
LINE
8
BLACK
6
CONTINUOUS
10
0.69
20
0.617953
11
0.69101
21
0.617775
0
LINE
8
BLACK
6
CONTINUOUS
10
0.69101
20
0.617775
11
0.692557
21
0.616476
0
LINE
8
BLACK
6
CONTINUOUS
10
0.692557
20
0.616476
11
0.692908
21
0.614487
0
LINE
8
BLACK
6
CONTINUOUS
10
0.692908
20
0.614487
11
0.691898
21
0.612738
0
LINE
8
BLACK
6
CONTINUOUS
10
0.691898
20
0.612738
11
0.69
21
0.612047
0
LINE
8
BLACK
6
CONTINUOUS
10
0.69
20
0.612047
11
0.65
21
0.612047
0
LINE
8
BLACK
6
CONTINUOUS
10
0.65
20
0.612047
11
0.649616
21
0.612115
0
LINE
8
BLACK
6
CONTINUOUS
10
0.649616
20
0.612115
11
0.649487
21
0.612092
0
LINE
8
BLACK
6
CONTINUOUS
10
0.649487
20
0.612092
11
0.649374
21
0.612158
0
LINE
8
BLACK
6
CONTINUOUS
10
0.649374
20
0.612158
11
0.64899
21
0.612225
0
LINE
8
BLACK
6
CONTINUOUS
10
0.64899
20
0.612225
11
0.648402
21
0.612718
0
LINE
8
BLACK
6
CONTINUOUS
10
0.648402
20
0.612718
11
0.647738
21
0.613102
0
LINE
8
BLACK
6
CONTINUOUS
10
0.647738
20
0.613102
11
0.647647
21
0.613352
0
LINE
8
BLACK
6
CONTINUOUS
10
0.647647
20
0.613352
11
0.647443
21
0.613524
0
LINE
8
BLACK
6
CONTINUOUS
10
0.647443
20
0.613524
11
0.64731
21
0.614279
0
LINE
8
BLACK
6
CONTINUOUS
10
0.64731
20
0.614279
11
0.647047
21
0.615
0
LINE
8
BLACK
6
CONTINUOUS
10
0.647047
20
0.615
11
0.647047
21
0.66738
0
LINE
8
BLACK
6
CONTINUOUS
10
0.647047
20
0.66738
11
0.64677
21
0.667247
0
LINE
8
BLACK
6
CONTINUOUS
10
0.64677
20
0.667247
11
0.64323
21
0.667247
0
LINE
8
BLACK
6
CONTINUOUS
10
0.64323
20
0.667247
11
0.640042
21
0.668782
0
LINE
8
BLACK
6
CONTINUOUS
10
0.640042
20
0.668782
11
0.637835
21
0.671549
0
LINE
8
BLACK
6
CONTINUOUS
10
0.637835
20
0.671549
11
0.637047
21
0.675
0
LINE
8
BLACK
6
CONTINUOUS
10
0.637047
20
0.675
11
0.637835
21
0.678451
0
LINE
8
BLACK
6
CONTINUOUS
10
0.637835
20
0.678451
11
0.640042
21
0.681218
0
LINE
8
BLACK
6
CONTINUOUS
10
0.640042
20
0.681218
11
0.64323
21
0.682753
0
LINE
8
BLACK
6
CONTINUOUS
10
0.64323
20
0.682753
11
0.64677
21
0.682753
0
LINE
8
BLACK
6
CONTINUOUS
10
0.64677
20
0.682753
11
0.649958
21
0.681218
0
LINE
8
BLACK
6
CONTINUOUS
10
0.643433
20
0.673433
11
0.645
21
0.672784
0
LINE
8
BLACK
6
CONTINUOUS
10
0.645
20
0.672784
11
0.646567
21
0.673433
0
LINE
8
BLACK
6
CONTINUOUS
10
0.646567
20
0.673433
11
0.647047
21
0.674593
0
LINE
8
BLACK
6
CONTINUOUS
10
0.647047
20
0.674593
11
0.647047
21
0.675
0
LINE
8
BLACK
6
CONTINUOUS
10
0.647047
20
0.675
11
0.647098
21
0.675286
0
LINE
8
BLACK
6
CONTINUOUS
10
0.647098
20
0.675286
11
0.646567
21
0.676567
0
LINE
8
BLACK
6
CONTINUOUS
10
0.646567
20
0.676567
11
0.645
21
0.677216
0
LINE
8
BLACK
6
CONTINUOUS
10
0.645
20
0.677216
11
0.643433
21
0.676567
0
LINE
8
BLACK
6
CONTINUOUS
10
0.643433
20
0.676567
11
0.642784
21
0.675
0
LINE
8
BLACK
6
CONTINUOUS
10
0.642784
20
0.675
11
0.643433
21
0.673433
0
LINE
8
BLACK
6
CONTINUOUS
10
0.770384
20
0.677885
11
0.770513
21
0.677908
0
LINE
8
BLACK
6
CONTINUOUS
10
0.770513
20
0.677908
11
0.770626
21
0.677842
0
LINE
8
BLACK
6
CONTINUOUS
10
0.770626
20
0.677842
11
0.77101
21
0.677775
0
LINE
8
BLACK
6
CONTINUOUS
10
0.77101
20
0.677775
11
0.771598
21
0.677282
0
LINE
8
BLACK
6
CONTINUOUS
10
0.771598
20
0.677282
11
0.772262
21
0.676898
0
LINE
8
BLACK
6
CONTINUOUS
10
0.772262
20
0.676898
11
0.772353
21
0.676648
0
LINE
8
BLACK
6
CONTINUOUS
10
0.772353
20
0.676648
11
0.772557
21
0.676476
0
LINE
8
BLACK
6
CONTINUOUS
10
0.772557
20
0.676476
11
0.77269
21
0.675721
0
LINE
8
BLACK
6
CONTINUOUS
10
0.77269
20
0.675721
11
0.772953
21
0.675
0
LINE
8
BLACK
6
CONTINUOUS
10
0.772953
20
0.675
11
0.772953
21
0.615
0
LINE
8
BLACK
6
CONTINUOUS
10
0.772953
20
0.615
11
0.772885
21
0.614616
0
LINE
8
BLACK
6
CONTINUOUS
10
0.772885
20
0.614616
11
0.772908
21
0.614487
0
LINE
8
BLACK
6
CONTINUOUS
10
0.772908
20
0.614487
11
0.772842
21
0.614374
0
LINE
8
BLACK
6
CONTINUOUS
10
0.772842
20
0.614374
11
0.772775
21
0.61399
0
LINE
8
BLACK
6
CONTINUOUS
10
0.772775
20
0.61399
11
0.772282
21
0.613402
0
LINE
8
BLACK
6
CONTINUOUS
10
0.772282
20
0.613402
11
0.771898
21
0.612738
0
LINE
8
BLACK
6
CONTINUOUS
10
0.771898
20
0.612738
11
0.771648
21
0.612647
0
LINE
8
BLACK
6
CONTINUOUS
10
0.771648
20
0.612647
11
0.771476
21
0.612443
0
LINE
8
BLACK
6
CONTINUOUS
10
0.771476
20
0.612443
11
0.770721
21
0.61231
0
LINE
8
BLACK
6
CONTINUOUS
10
0.770721
20
0.61231
11
0.77
21
0.612047
0
LINE
8
BLACK
6
CONTINUOUS
10
0.77
20
0.612047
11
0.73
21
0.612047
0
LINE
8
BLACK
6
CONTINUOUS
10
0.73
20
0.612047
11
0.72899
21
0.612225
0
LINE
8
BLACK
6
CONTINUOUS
10
0.72899
20
0.612225
11
0.727443
21
0.613524
0
LINE
8
BLACK
6
CONTINUOUS
10
0.727443
20
0.613524
11
0.727092
21
0.615513
0
LINE
8
BLACK
6
CONTINUOUS
10
0.727092
20
0.615513
11
0.728102
21
0.617262
0
LINE
8
BLACK
6
CONTINUOUS
10
0.728102
20
0.617262
11
0.73
21
0.617953
0
LINE
8
BLACK
6
CONTINUOUS
10
0.73
20
0.617953
11
0.767047
21
0.617953
0
LINE
8
BLACK
6
CONTINUOUS
10
0.767047
20
0.617953
11
0.767047
21
0.672047
0
LINE
8
BLACK
6
CONTINUOUS
10
0.767047
20
0.672047
11
0.744396
21
0.672047
0
LINE
8
BLACK
6
CONTINUOUS
10
0.744396
20
0.672047
11
0.744463
21
0.672003
0
LINE
8
BLACK
6
CONTINUOUS
10
0.744463
20
0.672003
11
0.746221
21
0.669365
0
LINE
8
BLACK
6
CONTINUOUS
10
0.746221
20
0.669365
11
0.7477
21
0.667886
0
LINE
8
BLACK
6
CONTINUOUS
10
0.7477
20
0.667886
11
0.749264
21
0.667104
0
LINE
8
BLACK
6
CONTINUOUS
10
0.749264
20
0.667104
11
0.750342
21
0.665861
0
LINE
8
BLACK
6
CONTINUOUS
10
0.750342
20
0.665861
11
0.750225
21
0.66422
0
LINE
8
BLACK
6
CONTINUOUS
10
0.750225
20
0.66422
11
0.748982
21
0.663142
0
LINE
8
BLACK
6
CONTINUOUS
10
0.748982
20
0.663142
11
0.747341
21
0.663258
0
LINE
8
BLACK
6
CONTINUOUS
10
0.747341
20
0.663258
11
0.745465
21
0.664197
0
LINE
8
BLACK
6
CONTINUOUS
10
0.745465
20
0.664197
11
0.745233
21
0.664464
0
LINE
8
BLACK
6
CONTINUOUS
10
0.745233
20
0.664464
11
0.744906
21
0.664599
0
LINE
8
BLACK
6
CONTINUOUS
10
0.744906
20
0.664599
11
0.744824
21
0.664681
0
LINE
8
BLACK
6
CONTINUOUS
10
0.744824
20
0.664681
11
0.744824
21
0.65326
0
LINE
8
BLACK
6
CONTINUOUS
10
0.744824
20
0.65326
11
0.748302
21
0.65326
0
LINE
8
BLACK
6
CONTINUOUS
10
0.748302
20
0.65326
11
0.749823
21
0.65263
0
LINE
8
BLACK
6
CONTINUOUS
10
0.749823
20
0.65263
11
0.750452
21
0.65111
0
LINE
8
BLACK
6
CONTINUOUS
10
0.750452
20
0.65111
11
0.749823
21
0.64959
0
LINE
8
BLACK
6
CONTINUOUS
10
0.749823
20
0.64959
11
0.748302
21
0.64896
0
LINE
8
BLACK
6
CONTINUOUS
10
0.748302
20
0.64896
11
0.742674
21
0.64896
0
LINE
8
BLACK
6
CONTINUOUS
10
0.742674
20
0.64896
11
0.737045
21
0.64896
0
LINE
8
BLACK
6
CONTINUOUS
10
0.737045
20
0.64896
11
0.735525
21
0.64959
0
LINE
8
BLACK
6
CONTINUOUS
10
0.735525
20
0.64959
11
0.734895
21
0.65111
0
LINE
8
BLACK
6
CONTINUOUS
10
0.734895
20
0.65111
11
0.735525
21
0.65263
0
LINE
8
BLACK
6
CONTINUOUS
10
0.735525
20
0.65263
11
0.737045
21
0.65326
0
LINE
8
BLACK
6
CONTINUOUS
10
0.737045
20
0.65326
11
0.740524
21
0.65326
0
LINE
8
BLACK
6
CONTINUOUS
10
0.740524
20
0.65326
11
0.740524
21
0.67081
0
LINE
8
BLACK
6
CONTINUOUS
10
0.740524
20
0.67081
11
0.740608
21
0.671015
0
LINE
8
BLACK
6
CONTINUOUS
10
0.740608
20
0.671015
11
0.740566
21
0.671232
0
LINE
8
BLACK
6
CONTINUOUS
10
0.740566
20
0.671232
11
0.740914
21
0.671752
0
LINE
8
BLACK
6
CONTINUOUS
10
0.740914
20
0.671752
11
0.741036
21
0.672047
0
LINE
8
BLACK
6
CONTINUOUS
10
0.741036
20
0.672047
11
0.73
21
0.672047
0
LINE
8
BLACK
6
CONTINUOUS
10
0.73
20
0.672047
11
0.72899
21
0.672225
0
LINE
8
BLACK
6
CONTINUOUS
10
0.72899
20
0.672225
11
0.727443
21
0.673524
0
LINE
8
BLACK
6
CONTINUOUS
10
0.727443
20
0.673524
11
0.727092
21
0.675513
0
LINE
8
BLACK
6
CONTINUOUS
10
0.727092
20
0.675513
11
0.728102
21
0.677262
0
LINE
8
BLACK
6
CONTINUOUS
10
0.728102
20
0.677262
11
0.73
21
0.677953
0
LINE
8
BLACK
6
CONTINUOUS
10
0.73
20
0.677953
11
0.77
21
0.677953
0
LINE
8
BLACK
6
CONTINUOUS
10
0.77
20
0.677953
11
0.770384
21
0.677885
0
LINE
8
BLACK
6
CONTINUOUS
10
0.703427
20
0.645268
11
0.703926
21
0.645233
0
LINE
8
BLACK
6
CONTINUOUS
10
0.703926
20
0.645233
11
0.705802
21
0.644295
0
LINE
8
BLACK
6
CONTINUOUS
10
0.705802
20
0.644295
11
0.706034
21
0.644028
0
LINE
8
BLACK
6
CONTINUOUS
10
0.706034
20
0.644028
11
0.706361
21
0.643892
0
LINE
8
BLACK
6
CONTINUOUS
10
0.706361
20
0.643892
11
0.707299
21
0.642954
0
LINE
8
BLACK
6
CONTINUOUS
10
0.707299
20
0.642954
11
0.707929
21
0.641434
0
LINE
8
BLACK
6
CONTINUOUS
10
0.707929
20
0.641434
11
0.707299
21
0.639914
0
LINE
8
BLACK
6
CONTINUOUS
10
0.707299
20
0.639914
11
0.705779
21
0.639284
0
LINE
8
BLACK
6
CONTINUOUS
10
0.705779
20
0.639284
11
0.704258
21
0.639914
0
LINE
8
BLACK
6
CONTINUOUS
10
0.704258
20
0.639914
11
0.703567
21
0.640605
0
LINE
8
BLACK
6
CONTINUOUS
10
0.703567
20
0.640605
11
0.702457
21
0.64116
0
LINE
8
BLACK
6
CONTINUOUS
10
0.702457
20
0.64116
11
0.698781
21
0.64116
0
LINE
8
BLACK
6
CONTINUOUS
10
0.698781
20
0.64116
11
0.697671
21
0.640605
0
LINE
8
BLACK
6
CONTINUOUS
10
0.697671
20
0.640605
11
0.697226
21
0.64016
0
LINE
8
BLACK
6
CONTINUOUS
10
0.697226
20
0.64016
11
0.696671
21
0.63905
0
LINE
8
BLACK
6
CONTINUOUS
10
0.696671
20
0.63905
11
0.696671
21
0.63803
0
LINE
8
BLACK
6
CONTINUOUS
10
0.696671
20
0.63803
11
0.697339
21
0.636028
0
LINE
8
BLACK
6
CONTINUOUS
10
0.697339
20
0.636028
11
0.708237
21
0.62513
0
LINE
8
BLACK
6
CONTINUOUS
10
0.708237
20
0.62513
11
0.708867
21
0.62361
0
LINE
8
BLACK
6
CONTINUOUS
10
0.708867
20
0.62361
11
0.708237
21
0.62209
0
LINE
8
BLACK
6
CONTINUOUS
10
0.708237
20
0.62209
11
0.706717
21
0.62146
0
LINE
8
BLACK
6
CONTINUOUS
10
0.706717
20
0.62146
11
0.694521
21
0.62146
0
LINE
8
BLACK
6
CONTINUOUS
10
0.694521
20
0.62146
11
0.693001
21
0.62209
0
LINE
8
BLACK
6
CONTINUOUS
10
0.693001
20
0.62209
11
0.692371
21
0.62361
0
LINE
8
BLACK
6
CONTINUOUS
10
0.692371
20
0.62361
11
0.693001
21
0.62513
0
LINE
8
BLACK
6
CONTINUOUS
10
0.693001
20
0.62513
11
0.694521
21
0.62576
0
LINE
8
BLACK
6
CONTINUOUS
10
0.694521
20
0.62576
11
0.701526
21
0.62576
0
LINE
8
BLACK
6
CONTINUOUS
10
0.701526
20
0.62576
11
0.693939
21
0.633347
0
LINE
8
BLACK
6
CONTINUOUS
10
0.693939
20
0.633347
11
0.693748
21
0.633809
0
LINE
8
BLACK
6
CONTINUOUS
10
0.693748
20
0.633809
11
0.69342
21
0.634187
0
LINE
8
BLACK
6
CONTINUOUS
10
0.69342
20
0.634187
11
0.692482
21
0.637002
0
LINE
8
BLACK
6
CONTINUOUS
10
0.692482
20
0.637002
11
0.692507
21
0.637354
0
LINE
8
BLACK
6
CONTINUOUS
10
0.692507
20
0.637354
11
0.692371
21
0.637681
0
LINE
8
BLACK
6
CONTINUOUS
10
0.692371
20
0.637681
11
0.692371
21
0.639558
0
LINE
8
BLACK
6
CONTINUOUS
10
0.692371
20
0.639558
11
0.692563
21
0.64002
0
LINE
8
BLACK
6
CONTINUOUS
10
0.692563
20
0.64002
11
0.692598
21
0.640519
0
LINE
8
BLACK
6
CONTINUOUS
10
0.692598
20
0.640519
11
0.693536
21
0.642395
0
LINE
8
BLACK
6
CONTINUOUS
10
0.693536
20
0.642395
11
0.693804
21
0.642627
0
LINE
8
BLACK
6
CONTINUOUS
10
0.693804
20
0.642627
11
0.693939
21
0.642954
0
LINE
8
BLACK
6
CONTINUOUS
10
0.693939
20
0.642954
11
0.694877
21
0.643892
0
LINE
8
BLACK
6
CONTINUOUS
10
0.694877
20
0.643892
11
0.695204
21
0.644028
0
LINE
8
BLACK
6
CONTINUOUS
10
0.695204
20
0.644028
11
0.695436
21
0.644295
0
LINE
8
BLACK
6
CONTINUOUS
10
0.695436
20
0.644295
11
0.697312
21
0.645233
0
LINE
8
BLACK
6
CONTINUOUS
10
0.697312
20
0.645233
11
0.697811
21
0.645268
0
LINE
8
BLACK
6
CONTINUOUS
10
0.697811
20
0.645268
11
0.698274
21
0.64546
0
LINE
8
BLACK
6
CONTINUOUS
10
0.698274
20
0.64546
11
0.702964
21
0.64546
0
LINE
8
BLACK
6
CONTINUOUS
10
0.702964
20
0.64546
11
0.703427
21
0.645268
0
LINE
8
BLACK
6
CONTINUOUS
10
0.719239
20
0.645325
11
0.719592
21
0.64535
0
LINE
8
BLACK
6
CONTINUOUS
10
0.719592
20
0.64535
11
0.722406
21
0.644412
0
LINE
8
BLACK
6
CONTINUOUS
10
0.722406
20
0.644412
11
0.722784
21
0.644084
0
LINE
8
BLACK
6
CONTINUOUS
10
0.722784
20
0.644084
11
0.723246
21
0.643892
0
LINE
8
BLACK
6
CONTINUOUS
10
0.723246
20
0.643892
11
0.725123
21
0.642016
0
LINE
8
BLACK
6
CONTINUOUS
10
0.725123
20
0.642016
11
0.725258
21
0.641689
0
LINE
8
BLACK
6
CONTINUOUS
10
0.725258
20
0.641689
11
0.725525
21
0.641457
0
LINE
8
BLACK
6
CONTINUOUS
10
0.725525
20
0.641457
11
0.726463
21
0.639581
0
LINE
8
BLACK
6
CONTINUOUS
10
0.726463
20
0.639581
11
0.726481
21
0.639337
0
LINE
8
BLACK
6
CONTINUOUS
10
0.726481
20
0.639337
11
0.726626
21
0.639141
0
LINE
8
BLACK
6
CONTINUOUS
10
0.726626
20
0.639141
11
0.727564
21
0.635389
0
LINE
8
BLACK
6
CONTINUOUS
10
0.727564
20
0.635389
11
0.727524
21
0.635119
0
LINE
8
BLACK
6
CONTINUOUS
10
0.727524
20
0.635119
11
0.727629
21
0.634867
0
LINE
8
BLACK
6
CONTINUOUS
10
0.727629
20
0.634867
11
0.727629
21
0.632053
0
LINE
8
BLACK
6
CONTINUOUS
10
0.727629
20
0.632053
11
0.727524
21
0.631801
0
LINE
8
BLACK
6
CONTINUOUS
10
0.727524
20
0.631801
11
0.727564
21
0.631531
0
LINE
8
BLACK
6
CONTINUOUS
10
0.727564
20
0.631531
11
0.726626
21
0.627779
0
LINE
8
BLACK
6
CONTINUOUS
10
0.726626
20
0.627779
11
0.726481
21
0.627583
0
LINE
8
BLACK
6
CONTINUOUS
10
0.726481
20
0.627583
11
0.726463
21
0.627339
0
LINE
8
BLACK
6
CONTINUOUS
10
0.726463
20
0.627339
11
0.725525
21
0.625463
0
LINE
8
BLACK
6
CONTINUOUS
10
0.725525
20
0.625463
11
0.725258
21
0.625231
0
LINE
8
BLACK
6
CONTINUOUS
10
0.725258
20
0.625231
11
0.725123
21
0.624904
0
LINE
8
BLACK
6
CONTINUOUS
10
0.725123
20
0.624904
11
0.723246
21
0.623028
0
LINE
8
BLACK
6
CONTINUOUS
10
0.723246
20
0.623028
11
0.722784
21
0.622836
0
LINE
8
BLACK
6
CONTINUOUS
10
0.722784
20
0.622836
11
0.722406
21
0.622508
0
LINE
8
BLACK
6
CONTINUOUS
10
0.722406
20
0.622508
11
0.719592
21
0.62157
0
LINE
8
BLACK
6
CONTINUOUS
10
0.719592
20
0.62157
11
0.719239
21
0.621595
0
LINE
8
BLACK
6
CONTINUOUS
10
0.719239
20
0.621595
11
0.718912
21
0.62146
0
LINE
8
BLACK
6
CONTINUOUS
10
0.718912
20
0.62146
11
0.717036
21
0.62146
0
LINE
8
BLACK
6
CONTINUOUS
10
0.717036
20
0.62146
11
0.716709
21
0.621595
0
LINE
8
BLACK
6
CONTINUOUS
10
0.716709
20
0.621595
11
0.716356
21
0.62157
0
LINE
8
BLACK
6
CONTINUOUS
10
0.716356
20
0.62157
11
0.713541
21
0.622508
0
LINE
8
BLACK
6
CONTINUOUS
10
0.713541
20
0.622508
11
0.713163
21
0.622836
0
LINE
8
BLACK
6
CONTINUOUS
10
0.713163
20
0.622836
11
0.712701
21
0.623028
0
LINE
8
BLACK
6
CONTINUOUS
10
0.712701
20
0.623028
11
0.711763
21
0.623966
0
LINE
8
BLACK
6
CONTINUOUS
10
0.711763
20
0.623966
11
0.711133
21
0.625486
0
LINE
8
BLACK
6
CONTINUOUS
10
0.711133
20
0.625486
11
0.711763
21
0.627006
0
LINE
8
BLACK
6
CONTINUOUS
10
0.711763
20
0.627006
11
0.713283
21
0.627636
0
LINE
8
BLACK
6
CONTINUOUS
10
0.713283
20
0.627636
11
0.714804
21
0.627006
0
LINE
8
BLACK
6
CONTINUOUS
10
0.714804
20
0.627006
11
0.715383
21
0.626427
0
LINE
8
BLACK
6
CONTINUOUS
10
0.715383
20
0.626427
11
0.717385
21
0.62576
0
LINE
8
BLACK
6
CONTINUOUS
10
0.717385
20
0.62576
11
0.718563
21
0.62576
0
LINE
8
BLACK
6
CONTINUOUS
10
0.718563
20
0.62576
11
0.720565
21
0.626427
0
LINE
8
BLACK
6
CONTINUOUS
10
0.720565
20
0.626427
11
0.721835
21
0.627698
0
LINE
8
BLACK
6
CONTINUOUS
10
0.721835
20
0.627698
11
0.722512
21
0.629051
0
LINE
8
BLACK
6
CONTINUOUS
10
0.722512
20
0.629051
11
0.723329
21
0.632318
0
LINE
8
BLACK
6
CONTINUOUS
10
0.723329
20
0.632318
11
0.723329
21
0.634602
0
LINE
8
BLACK
6
CONTINUOUS
10
0.723329
20
0.634602
11
0.722512
21
0.637869
0
LINE
8
BLACK
6
CONTINUOUS
10
0.722512
20
0.637869
11
0.721835
21
0.639222
0
LINE
8
BLACK
6
CONTINUOUS
10
0.721835
20
0.639222
11
0.720565
21
0.640493
0
LINE
8
BLACK
6
CONTINUOUS
10
0.720565
20
0.640493
11
0.718563
21
0.64116
0
LINE
8
BLACK
6
CONTINUOUS
10
0.718563
20
0.64116
11
0.717385
21
0.64116
0
LINE
8
BLACK
6
CONTINUOUS
10
0.717385
20
0.64116
11
0.715383
21
0.640493
0
LINE
8
BLACK
6
CONTINUOUS
10
0.715383
20
0.640493
11
0.714804
21
0.639914
0
LINE
8
BLACK
6
CONTINUOUS
10
0.714804
20
0.639914
11
0.713283
21
0.639284
0
LINE
8
BLACK
6
CONTINUOUS
10
0.713283
20
0.639284
11
0.711763
21
0.639914
0
LINE
8
BLACK
6
CONTINUOUS
10
0.711763
20
0.639914
11
0.711133
21
0.641434
0
LINE
8
BLACK
6
CONTINUOUS
10
0.711133
20
0.641434
11
0.711763
21
0.642954
0
LINE
8
BLACK
6
CONTINUOUS
10
0.711763
20
0.642954
11
0.712701
21
0.643892
0
LINE
8
BLACK
6
CONTINUOUS
10
0.712701
20
0.643892
11
0.713163
21
0.644084
0
LINE
8
BLACK
6
CONTINUOUS
10
0.713163
20
0.644084
11
0.713541
21
0.644412
0
LINE
8
BLACK
6
CONTINUOUS
10
0.713541
20
0.644412
11
0.716356
21
0.64535
0
LINE
8
BLACK
6
CONTINUOUS
10
0.716356
20
0.64535
11
0.716709
21
0.645325
0
LINE
8
BLACK
6
CONTINUOUS
10
0.716709
20
0.645325
11
0.717036
21
0.64546
0
LINE
8
BLACK
6
CONTINUOUS
10
0.717036
20
0.64546
11
0.718912
21
0.64546
0
LINE
8
BLACK
6
CONTINUOUS
10
0.718912
20
0.64546
11
0.719239
21
0.645325
0
LINE
8
BLACK
6
CONTINUOUS
10
0.688727
20
0.666202
11
0.689226
21
0.666166
0
LINE
8
BLACK
6
CONTINUOUS
10
0.689226
20
0.666166
11
0.689817
21
0.665871
0
LINE
8
BLACK
6
CONTINUOUS
10
0.689817
20
0.665871
11
0.691079
21
0.666393
0
LINE
8
BLACK
6
CONTINUOUS
10
0.691079
20
0.666393
11
0.692599
21
0.665764
0
LINE
8
BLACK
6
CONTINUOUS
10
0.692599
20
0.665764
11
0.693229
21
0.664243
0
LINE
8
BLACK
6
CONTINUOUS
10
0.693229
20
0.664243
11
0.693229
21
0.65111
0
LINE
8
BLACK
6
CONTINUOUS
10
0.693229
20
0.65111
11
0.692599
21
0.64959
0
LINE
8
BLACK
6
CONTINUOUS
10
0.692599
20
0.64959
11
0.691079
21
0.64896
0
LINE
8
BLACK
6
CONTINUOUS
10
0.691079
20
0.64896
11
0.689558
21
0.64959
0
LINE
8
BLACK
6
CONTINUOUS
10
0.689558
20
0.64959
11
0.688929
21
0.65111
0
LINE
8
BLACK
6
CONTINUOUS
10
0.688929
20
0.65111
11
0.688929
21
0.661477
0
LINE
8
BLACK
6
CONTINUOUS
10
0.688929
20
0.661477
11
0.688867
21
0.661538
0
LINE
8
BLACK
6
CONTINUOUS
10
0.688867
20
0.661538
11
0.687757
21
0.662093
0
LINE
8
BLACK
6
CONTINUOUS
10
0.687757
20
0.662093
11
0.685958
21
0.662093
0
LINE
8
BLACK
6
CONTINUOUS
10
0.685958
20
0.662093
11
0.685176
21
0.661703
0
LINE
8
BLACK
6
CONTINUOUS
10
0.685176
20
0.661703
11
0.684786
21
0.660921
0
LINE
8
BLACK
6
CONTINUOUS
10
0.684786
20
0.660921
11
0.684786
21
0.65111
0
LINE
8
BLACK
6
CONTINUOUS
10
0.684786
20
0.65111
11
0.684156
21
0.64959
0
LINE
8
BLACK
6
CONTINUOUS
10
0.684156
20
0.64959
11
0.682636
21
0.64896
0
LINE
8
BLACK
6
CONTINUOUS
10
0.682636
20
0.64896
11
0.681115
21
0.64959
0
LINE
8
BLACK
6
CONTINUOUS
10
0.681115
20
0.64959
11
0.680486
21
0.65111
0
LINE
8
BLACK
6
CONTINUOUS
10
0.680486
20
0.65111
11
0.680486
21
0.661429
0
LINE
8
BLACK
6
CONTINUOUS
10
0.680486
20
0.661429
11
0.680677
21
0.661891
0
LINE
8
BLACK
6
CONTINUOUS
10
0.680677
20
0.661891
11
0.680713
21
0.662391
0
LINE
8
BLACK
6
CONTINUOUS
10
0.680713
20
0.662391
11
0.681651
21
0.664267
0
LINE
8
BLACK
6
CONTINUOUS
10
0.681651
20
0.664267
11
0.682166
21
0.664713
0
LINE
8
BLACK
6
CONTINUOUS
10
0.682166
20
0.664713
11
0.682612
21
0.665228
0
LINE
8
BLACK
6
CONTINUOUS
10
0.682612
20
0.665228
11
0.684489
21
0.666166
0
LINE
8
BLACK
6
CONTINUOUS
10
0.684489
20
0.666166
11
0.684988
21
0.666202
0
LINE
8
BLACK
6
CONTINUOUS
10
0.684988
20
0.666202
11
0.68545
21
0.666393
0
LINE
8
BLACK
6
CONTINUOUS
10
0.68545
20
0.666393
11
0.688264
21
0.666393
0
LINE
8
BLACK
6
CONTINUOUS
10
0.688264
20
0.666393
11
0.688727
21
0.666202
0
LINE
8
BLACK
6
CONTINUOUS
10
0.70655
20
0.672768
11
0.70705
21
0.672733
0
LINE
8
BLACK
6
CONTINUOUS
10
0.70705
20
0.672733
11
0.708926
21
0.671795
0
LINE
8
BLACK
6
CONTINUOUS
10
0.708926
20
0.671795
11
0.709158
21
0.671528
0
LINE
8
BLACK
6
CONTINUOUS
10
0.709158
20
0.671528
11
0.709484
21
0.671392
0
LINE
8
BLACK
6
CONTINUOUS
10
0.709484
20
0.671392
11
0.710423
21
0.670454
0
LINE
8
BLACK
6
CONTINUOUS
10
0.710423
20
0.670454
11
0.710558
21
0.670127
0
LINE
8
BLACK
6
CONTINUOUS
10
0.710558
20
0.670127
11
0.710825
21
0.669895
0
LINE
8
BLACK
6
CONTINUOUS
10
0.710825
20
0.669895
11
0.711763
21
0.668019
0
LINE
8
BLACK
6
CONTINUOUS
10
0.711763
20
0.668019
11
0.711781
21
0.667775
0
LINE
8
BLACK
6
CONTINUOUS
10
0.711781
20
0.667775
11
0.711926
21
0.667579
0
LINE
8
BLACK
6
CONTINUOUS
10
0.711926
20
0.667579
11
0.712864
21
0.663827
0
LINE
8
BLACK
6
CONTINUOUS
10
0.712864
20
0.663827
11
0.712824
21
0.663557
0
LINE
8
BLACK
6
CONTINUOUS
10
0.712824
20
0.663557
11
0.712929
21
0.663305
0
LINE
8
BLACK
6
CONTINUOUS
10
0.712929
20
0.663305
11
0.712929
21
0.658615
0
LINE
8
BLACK
6
CONTINUOUS
10
0.712929
20
0.658615
11
0.712824
21
0.658363
0
LINE
8
BLACK
6
CONTINUOUS
10
0.712824
20
0.658363
11
0.712864
21
0.658093
0
LINE
8
BLACK
6
CONTINUOUS
10
0.712864
20
0.658093
11
0.711926
21
0.654341
0
LINE
8
BLACK
6
CONTINUOUS
10
0.711926
20
0.654341
11
0.711781
21
0.654145
0
LINE
8
BLACK
6
CONTINUOUS
10
0.711781
20
0.654145
11
0.711763
21
0.653901
0
LINE
8
BLACK
6
CONTINUOUS
10
0.711763
20
0.653901
11
0.710825
21
0.652025
0
LINE
8
BLACK
6
CONTINUOUS
10
0.710825
20
0.652025
11
0.710558
21
0.651793
0
LINE
8
BLACK
6
CONTINUOUS
10
0.710558
20
0.651793
11
0.710423
21
0.651466
0
LINE
8
BLACK
6
CONTINUOUS
10
0.710423
20
0.651466
11
0.709484
21
0.650528
0
LINE
8
BLACK
6
CONTINUOUS
10
0.709484
20
0.650528
11
0.709158
21
0.650392
0
LINE
8
BLACK
6
CONTINUOUS
10
0.709158
20
0.650392
11
0.708926
21
0.650125
0
LINE
8
BLACK
6
CONTINUOUS
10
0.708926
20
0.650125
11
0.70705
21
0.649187
0
LINE
8
BLACK
6
CONTINUOUS
10
0.70705
20
0.649187
11
0.70655
21
0.649151
0
LINE
8
BLACK
6
CONTINUOUS
10
0.70655
20
0.649151
11
0.706088
21
0.64896
0
LINE
8
BLACK
6
CONTINUOUS
10
0.706088
20
0.64896
11
0.704212
21
0.64896
0
LINE
8
BLACK
6
CONTINUOUS
10
0.704212
20
0.64896
11
0.70375
21
0.649151
0
LINE
8
BLACK
6
CONTINUOUS
10
0.70375
20
0.649151
11
0.70325
21
0.649187
0
LINE
8
BLACK
6
CONTINUOUS
10
0.70325
20
0.649187
11
0.701374
21
0.650125
0
LINE
8
BLACK
6
CONTINUOUS
10
0.701374
20
0.650125
11
0.701142
21
0.650392
0
LINE
8
BLACK
6
CONTINUOUS
10
0.701142
20
0.650392
11
0.700815
21
0.650528
0
LINE
8
BLACK
6
CONTINUOUS
10
0.700815
20
0.650528
11
0.699877
21
0.651466
0
LINE
8
BLACK
6
CONTINUOUS
10
0.699877
20
0.651466
11
0.699742
21
0.651793
0
LINE
8
BLACK
6
CONTINUOUS
10
0.699742
20
0.651793
11
0.699475
21
0.652025
0
LINE
8
BLACK
6
CONTINUOUS
10
0.699475
20
0.652025
11
0.698536
21
0.653901
0
LINE
8
BLACK
6
CONTINUOUS
10
0.698536
20
0.653901
11
0.698519
21
0.654145
0
LINE
8
BLACK
6
CONTINUOUS
10
0.698519
20
0.654145
11
0.698374
21
0.654341
0
LINE
8
BLACK
6
CONTINUOUS
10
0.698374
20
0.654341
11
0.697436
21
0.658093
0
LINE
8
BLACK
6
CONTINUOUS
10
0.697436
20
0.658093
11
0.697476
21
0.658363
0
LINE
8
BLACK
6
CONTINUOUS
10
0.697476
20
0.658363
11
0.697371
21
0.658615
0
LINE
8
BLACK
6
CONTINUOUS
10
0.697371
20
0.658615
11
0.697371
21
0.663305
0
LINE
8
BLACK
6
CONTINUOUS
10
0.697371
20
0.663305
11
0.697476
21
0.663557
0
LINE
8
BLACK
6
CONTINUOUS
10
0.697476
20
0.663557
11
0.697436
21
0.663827
0
LINE
8
BLACK
6
CONTINUOUS
10
0.697436
20
0.663827
11
0.698374
21
0.667579
0
LINE
8
BLACK
6
CONTINUOUS
10
0.698374
20
0.667579
11
0.698519
21
0.667775
0
LINE
8
BLACK
6
CONTINUOUS
10
0.698519
20
0.667775
11
0.698536
21
0.668019
0
LINE
8
BLACK
6
CONTINUOUS
10
0.698536
20
0.668019
11
0.699475
21
0.669895
0
LINE
8
BLACK
6
CONTINUOUS
10
0.699475
20
0.669895
11
0.699742
21
0.670127
0
LINE
8
BLACK
6
CONTINUOUS
10
0.699742
20
0.670127
11
0.699877
21
0.670454
0
LINE
8
BLACK
6
CONTINUOUS
10
0.699877
20
0.670454
11
0.700815
21
0.671392
0
LINE
8
BLACK
6
CONTINUOUS
10
0.700815
20
0.671392
11
0.701142
21
0.671528
0
LINE
8
BLACK
6
CONTINUOUS
10
0.701142
20
0.671528
11
0.701374
21
0.671795
0
LINE
8
BLACK
6
CONTINUOUS
10
0.701374
20
0.671795
11
0.70325
21
0.672733
0
LINE
8
BLACK
6
CONTINUOUS
10
0.70325
20
0.672733
11
0.70375
21
0.672768
0
LINE
8
BLACK
6
CONTINUOUS
10
0.70375
20
0.672768
11
0.704212
21
0.67296
0
LINE
8
BLACK
6
CONTINUOUS
10
0.704212
20
0.67296
11
0.706088
21
0.67296
0
LINE
8
BLACK
6
CONTINUOUS
10
0.706088
20
0.67296
11
0.70655
21
0.672768
0
LINE
8
BLACK
6
CONTINUOUS
10
0.703609
20
0.668105
11
0.703165
21
0.66766
0
LINE
8
BLACK
6
CONTINUOUS
10
0.703165
20
0.66766
11
0.702488
21
0.666307
0
LINE
8
BLACK
6
CONTINUOUS
10
0.702488
20
0.666307
11
0.701671
21
0.66304
0
LINE
8
BLACK
6
CONTINUOUS
10
0.701671
20
0.66304
11
0.701671
21
0.658879
0
LINE
8
BLACK
6
CONTINUOUS
10
0.701671
20
0.658879
11
0.702488
21
0.655613
0
LINE
8
BLACK
6
CONTINUOUS
10
0.702488
20
0.655613
11
0.703165
21
0.65426
0
LINE
8
BLACK
6
CONTINUOUS
10
0.703165
20
0.65426
11
0.703609
21
0.653815
0
LINE
8
BLACK
6
CONTINUOUS
10
0.703609
20
0.653815
11
0.704719
21
0.65326
0
LINE
8
BLACK
6
CONTINUOUS
10
0.704719
20
0.65326
11
0.705581
21
0.65326
0
LINE
8
BLACK
6
CONTINUOUS
10
0.705581
20
0.65326
11
0.706691
21
0.653815
0
LINE
8
BLACK
6
CONTINUOUS
10
0.706691
20
0.653815
11
0.707135
21
0.65426
0
LINE
8
BLACK
6
CONTINUOUS
10
0.707135
20
0.65426
11
0.707812
21
0.655613
0
LINE
8
BLACK
6
CONTINUOUS
10
0.707812
20
0.655613
11
0.708629
21
0.658879
0
LINE
8
BLACK
6
CONTINUOUS
10
0.708629
20
0.658879
11
0.708629
21
0.66304
0
LINE
8
BLACK
6
CONTINUOUS
10
0.708629
20
0.66304
11
0.707812
21
0.666307
0
LINE
8
BLACK
6
CONTINUOUS
10
0.707812
20
0.666307
11
0.707135
21
0.66766
0
LINE
8
BLACK
6
CONTINUOUS
10
0.707135
20
0.66766
11
0.706691
21
0.668105
0
LINE
8
BLACK
6
CONTINUOUS
10
0.706691
20
0.668105
11
0.705581
21
0.66866
0
LINE
8
BLACK
6
CONTINUOUS
10
0.705581
20
0.66866
11
0.704719
21
0.66866
0
LINE
8
BLACK
6
CONTINUOUS
10
0.704719
20
0.66866
11
0.703609
21
0.668105
0
LINE
8
BLACK
6
CONTINUOUS
10
0.725312
20
0.672768
11
0.725811
21
0.672733
0
LINE
8
BLACK
6
CONTINUOUS
10
0.725811
20
0.672733
11
0.727688
21
0.671795
0
LINE
8
BLACK
6
CONTINUOUS
10
0.727688
20
0.671795
11
0.727919
21
0.671528
0
LINE
8
BLACK
6
CONTINUOUS
10
0.727919
20
0.671528
11
0.728246
21
0.671392
0
LINE
8
BLACK
6
CONTINUOUS
10
0.728246
20
0.671392
11
0.729184
21
0.670454
0
LINE
8
BLACK
6
CONTINUOUS
10
0.729184
20
0.670454
11
0.72932
21
0.670127
0
LINE
8
BLACK
6
CONTINUOUS
10
0.72932
20
0.670127
11
0.729587
21
0.669895
0
LINE
8
BLACK
6
CONTINUOUS
10
0.729587
20
0.669895
11
0.730525
21
0.668019
0
LINE
8
BLACK
6
CONTINUOUS
10
0.730525
20
0.668019
11
0.730543
21
0.667775
0
LINE
8
BLACK
6
CONTINUOUS
10
0.730543
20
0.667775
11
0.730688
21
0.667579
0
LINE
8
BLACK
6
CONTINUOUS
10
0.730688
20
0.667579
11
0.731626
21
0.663827
0
LINE
8
BLACK
6
CONTINUOUS
10
0.731626
20
0.663827
11
0.731586
21
0.663557
0
LINE
8
BLACK
6
CONTINUOUS
10
0.731586
20
0.663557
11
0.73169
21
0.663305
0
LINE
8
BLACK
6
CONTINUOUS
10
0.73169
20
0.663305
11
0.73169
21
0.658615
0
LINE
8
BLACK
6
CONTINUOUS
10
0.73169
20
0.658615
11
0.731586
21
0.658363
0
LINE
8
BLACK
6
CONTINUOUS
10
0.731586
20
0.658363
11
0.731626
21
0.658093
0
LINE
8
BLACK
6
CONTINUOUS
10
0.731626
20
0.658093
11
0.730688
21
0.654341
0
LINE
8
BLACK
6
CONTINUOUS
10
0.730688
20
0.654341
11
0.730543
21
0.654145
0
LINE
8
BLACK
6
CONTINUOUS
10
0.730543
20
0.654145
11
0.730525
21
0.653901
0
LINE
8
BLACK
6
CONTINUOUS
10
0.730525
20
0.653901
11
0.729587
21
0.652025
0
LINE
8
BLACK
6
CONTINUOUS
10
0.729587
20
0.652025
11
0.72932
21
0.651793
0
LINE
8
BLACK
6
CONTINUOUS
10
0.72932
20
0.651793
11
0.729184
21
0.651466
0
LINE
8
BLACK
6
CONTINUOUS
10
0.729184
20
0.651466
11
0.728246
21
0.650528
0
LINE
8
BLACK
6
CONTINUOUS
10
0.728246
20
0.650528
11
0.727919
21
0.650392
0
LINE
8
BLACK
6
CONTINUOUS
10
0.727919
20
0.650392
11
0.727688
21
0.650125
0
LINE
8
BLACK
6
CONTINUOUS
10
0.727688
20
0.650125
11
0.725811
21
0.649187
0
LINE
8
BLACK
6
CONTINUOUS
10
0.725811
20
0.649187
11
0.725312
21
0.649151
0
LINE
8
BLACK
6
CONTINUOUS
10
0.725312
20
0.649151
11
0.72485
21
0.64896
0
LINE
8
BLACK
6
CONTINUOUS
10
0.72485
20
0.64896
11
0.722974
21
0.64896
0
LINE
8
BLACK
6
CONTINUOUS
10
0.722974
20
0.64896
11
0.722511
21
0.649151
0
LINE
8
BLACK
6
CONTINUOUS
10
0.722511
20
0.649151
11
0.722012
21
0.649187
0
LINE
8
BLACK
6
CONTINUOUS
10
0.722012
20
0.649187
11
0.720136
21
0.650125
0
LINE
8
BLACK
6
CONTINUOUS
10
0.720136
20
0.650125
11
0.719904
21
0.650392
0
LINE
8
BLACK
6
CONTINUOUS
10
0.719904
20
0.650392
11
0.719577
21
0.650528
0
LINE
8
BLACK
6
CONTINUOUS
10
0.719577
20
0.650528
11
0.718639
21
0.651466
0
LINE
8
BLACK
6
CONTINUOUS
10
0.718639
20
0.651466
11
0.718504
21
0.651793
0
LINE
8
BLACK
6
CONTINUOUS
10
0.718504
20
0.651793
11
0.718236
21
0.652025
0
LINE
8
BLACK
6
CONTINUOUS
10
0.718236
20
0.652025
11
0.717298
21
0.653901
0
LINE
8
BLACK
6
CONTINUOUS
10
0.717298
20
0.653901
11
0.717281
21
0.654145
0
LINE
8
BLACK
6
CONTINUOUS
10
0.717281
20
0.654145
11
0.717136
21
0.654341
0
LINE
8
BLACK
6
CONTINUOUS
10
0.717136
20
0.654341
11
0.716197
21
0.658093
0
LINE
8
BLACK
6
CONTINUOUS
10
0.716197
20
0.658093
11
0.716238
21
0.658363
0
LINE
8
BLACK
6
CONTINUOUS
10
0.716238
20
0.658363
11
0.716133
21
0.658615
0
LINE
8
BLACK
6
CONTINUOUS
10
0.716133
20
0.658615
11
0.716133
21
0.663305
0
LINE
8
BLACK
6
CONTINUOUS
10
0.716133
20
0.663305
11
0.716238
21
0.663557
0
LINE
8
BLACK
6
CONTINUOUS
10
0.716238
20
0.663557
11
0.716197
21
0.663827
0
LINE
8
BLACK
6
CONTINUOUS
10
0.716197
20
0.663827
11
0.717136
21
0.667579
0
LINE
8
BLACK
6
CONTINUOUS
10
0.717136
20
0.667579
11
0.717281
21
0.667775
0
LINE
8
BLACK
6
CONTINUOUS
10
0.717281
20
0.667775
11
0.717298
21
0.668019
0
LINE
8
BLACK
6
CONTINUOUS
10
0.717298
20
0.668019
11
0.718236
21
0.669895
0
LINE
8
BLACK
6
CONTINUOUS
10
0.718236
20
0.669895
11
0.718504
21
0.670127
0
LINE
8
BLACK
6
CONTINUOUS
10
0.718504
20
0.670127
11
0.718639
21
0.670454
0
LINE
8
BLACK
6
CONTINUOUS
10
0.718639
20
0.670454
11
0.719577
21
0.671392
0
LINE
8
BLACK
6
CONTINUOUS
10
0.719577
20
0.671392
11
0.719904
21
0.671528
0
LINE
8
BLACK
6
CONTINUOUS
10
0.719904
20
0.671528
11
0.720136
21
0.671795
0
LINE
8
BLACK
6
CONTINUOUS
10
0.720136
20
0.671795
11
0.722012
21
0.672733
0
LINE
8
BLACK
6
CONTINUOUS
10
0.722012
20
0.672733
11
0.722511
21
0.672768
0
LINE
8
BLACK
6
CONTINUOUS
10
0.722511
20
0.672768
11
0.722974
21
0.67296
0
LINE
8
BLACK
6
CONTINUOUS
10
0.722974
20
0.67296
11
0.72485
21
0.67296
0
LINE
8
BLACK
6
CONTINUOUS
10
0.72485
20
0.67296
11
0.725312
21
0.672768
0
LINE
8
BLACK
6
CONTINUOUS
10
0.722371
20
0.668105
11
0.721926
21
0.66766
0
LINE
8
BLACK
6
CONTINUOUS
10
0.721926
20
0.66766
11
0.72125
21
0.666307
0
LINE
8
BLACK
6
CONTINUOUS
10
0.72125
20
0.666307
11
0.720433
21
0.66304
0
LINE
8
BLACK
6
CONTINUOUS
10
0.720433
20
0.66304
11
0.720433
21
0.658879
0
LINE
8
BLACK
6
CONTINUOUS
10
0.720433
20
0.658879
11
0.72125
21
0.655613
0
LINE
8
BLACK
6
CONTINUOUS
10
0.72125
20
0.655613
11
0.721926
21
0.65426
0
LINE
8
BLACK
6
CONTINUOUS
10
0.721926
20
0.65426
11
0.722371
21
0.653815
0
LINE
8
BLACK
6
CONTINUOUS
10
0.722371
20
0.653815
11
0.723481
21
0.65326
0
LINE
8
BLACK
6
CONTINUOUS
10
0.723481
20
0.65326
11
0.724342
21
0.65326
0
LINE
8
BLACK
6
CONTINUOUS
10
0.724342
20
0.65326
11
0.725453
21
0.653815
0
LINE
8
BLACK
6
CONTINUOUS
10
0.725453
20
0.653815
11
0.725897
21
0.65426
0
LINE
8
BLACK
6
CONTINUOUS
10
0.725897
20
0.65426
11
0.726574
21
0.655613
0
LINE
8
BLACK
6
CONTINUOUS
10
0.726574
20
0.655613
11
0.72739
21
0.658879
0
LINE
8
BLACK
6
CONTINUOUS
10
0.72739
20
0.658879
11
0.72739
21
0.66304
0
LINE
8
BLACK
6
CONTINUOUS
10
0.72739
20
0.66304
11
0.726574
21
0.666307
0
LINE
8
BLACK
6
CONTINUOUS
10
0.726574
20
0.666307
11
0.725897
21
0.66766
0
LINE
8
BLACK
6
CONTINUOUS
10
0.725897
20
0.66766
11
0.725453
21
0.668105
0
LINE
8
BLACK
6
CONTINUOUS
10
0.725453
20
0.668105
11
0.724342
21
0.66866
0
LINE
8
BLACK
6
CONTINUOUS
10
0.724342
20
0.66866
11
0.723481
21
0.66866
0
LINE
8
BLACK
6
CONTINUOUS
10
0.723481
20
0.66866
11
0.722371
21
0.668105
0
LINE
8
BLACK
6
CONTINUOUS
10
0.12632
20
0.898513
11
0.127659
21
0.898245
0
LINE
8
BLACK
6
CONTINUOUS
10
0.127659
20
0.898245
11
0.127808
21
0.898114
0
LINE
8
BLACK
6
CONTINUOUS
10
0.127808
20
0.898114
11
0.128
21
0.898063
0
LINE
8
BLACK
6
CONTINUOUS
10
0.128
20
0.898063
11
0.128966
21
0.897097
0
LINE
8
BLACK
6
CONTINUOUS
10
0.128966
20
0.897097
11
0.129992
21
0.896195
0
LINE
8
BLACK
6
CONTINUOUS
10
0.129992
20
0.896195
11
0.135377
21
0.888118
0
LINE
8
BLACK
6
CONTINUOUS
10
0.135377
20
0.888118
11
0.139983
21
0.883512
0
LINE
8
BLACK
6
CONTINUOUS
10
0.139983
20
0.883512
11
0.144826
21
0.881091
0
LINE
8
BLACK
6
CONTINUOUS
10
0.144826
20
0.881091
11
0.14715
21
0.87903
0
LINE
8
BLACK
6
CONTINUOUS
10
0.14715
20
0.87903
11
0.148132
21
0.876084
0
LINE
8
BLACK
6
CONTINUOUS
10
0.148132
20
0.876084
11
0.147509
21
0.873041
0
LINE
8
BLACK
6
CONTINUOUS
10
0.147509
20
0.873041
11
0.145449
21
0.870717
0
LINE
8
BLACK
6
CONTINUOUS
10
0.145449
20
0.870717
11
0.142502
21
0.869735
0
LINE
8
BLACK
6
CONTINUOUS
10
0.142502
20
0.869735
11
0.13946
21
0.870357
0
LINE
8
BLACK
6
CONTINUOUS
10
0.13946
20
0.870357
11
0.133745
21
0.873215
0
LINE
8
BLACK
6
CONTINUOUS
10
0.133745
20
0.873215
11
0.133022
21
0.873855
0
LINE
8
BLACK
6
CONTINUOUS
10
0.133022
20
0.873855
11
0.132186
21
0.874339
0
LINE
8
BLACK
6
CONTINUOUS
10
0.132186
20
0.874339
11
0.131
21
0.875524
0
LINE
8
BLACK
6
CONTINUOUS
10
0.131
20
0.875524
11
0.131
21
0.838867
0
LINE
8
BLACK
6
CONTINUOUS
10
0.131
20
0.838867
11
0.142143
21
0.838867
0
LINE
8
BLACK
6
CONTINUOUS
10
0.142143
20
0.838867
11
0.145143
21
0.838063
0
LINE
8
BLACK
6
CONTINUOUS
10
0.145143
20
0.838063
11
0.147339
21
0.835867
0
LINE
8
BLACK
6
CONTINUOUS
10
0.147339
20
0.835867
11
0.148143
21
0.832867
0
LINE
8
BLACK
6
CONTINUOUS
10
0.148143
20
0.832867
11
0.147339
21
0.829867
0
LINE
8
BLACK
6
CONTINUOUS
10
0.147339
20
0.829867
11
0.145143
21
0.827671
0
LINE
8
BLACK
6
CONTINUOUS
10
0.145143
20
0.827671
11
0.142143
21
0.826867
0
LINE
8
BLACK
6
CONTINUOUS
10
0.142143
20
0.826867
11
0.125
21
0.826867
0
LINE
8
BLACK
6
CONTINUOUS
10
0.125
20
0.826867
11
0.107857
21
0.826867
0
LINE
8
BLACK
6
CONTINUOUS
10
0.107857
20
0.826867
11
0.104857
21
0.827671
0
LINE
8
BLACK
6
CONTINUOUS
10
0.104857
20
0.827671
11
0.102661
21
0.829867
0
LINE
8
BLACK
6
CONTINUOUS
10
0.102661
20
0.829867
11
0.101857
21
0.832867
0
LINE
8
BLACK
6
CONTINUOUS
10
0.101857
20
0.832867
11
0.102661
21
0.835867
0
LINE
8
BLACK
6
CONTINUOUS
10
0.102661
20
0.835867
11
0.104857
21
0.838063
0
LINE
8
BLACK
6
CONTINUOUS
10
0.104857
20
0.838063
11
0.107857
21
0.838867
0
LINE
8
BLACK
6
CONTINUOUS
10
0.107857
20
0.838867
11
0.119
21
0.838867
0
LINE
8
BLACK
6
CONTINUOUS
10
0.119
20
0.838867
11
0.119
21
0.892867
0
LINE
8
BLACK
6
CONTINUOUS
10
0.119
20
0.892867
11
0.119354
21
0.894186
0
LINE
8
BLACK
6
CONTINUOUS
10
0.119354
20
0.894186
11
0.119621
21
0.895526
0
LINE
8
BLACK
6
CONTINUOUS
10
0.119621
20
0.895526
11
0.119752
21
0.895675
0
LINE
8
BLACK
6
CONTINUOUS
10
0.119752
20
0.895675
11
0.119804
21
0.895867
0
LINE
8
BLACK
6
CONTINUOUS
10
0.119804
20
0.895867
11
0.12077
21
0.896833
0
LINE
8
BLACK
6
CONTINUOUS
10
0.12077
20
0.896833
11
0.121672
21
0.897859
0
LINE
8
BLACK
6
CONTINUOUS
10
0.121672
20
0.897859
11
0.12186
21
0.897923
0
LINE
8
BLACK
6
CONTINUOUS
10
0.12186
20
0.897923
11
0.122
21
0.898063
0
LINE
8
BLACK
6
CONTINUOUS
10
0.122
20
0.898063
11
0.12332
21
0.898417
0
LINE
8
BLACK
6
CONTINUOUS
10
0.12332
20
0.898417
11
0.124614
21
0.898854
0
LINE
8
BLACK
6
CONTINUOUS
10
0.124614
20
0.898854
11
0.124808
21
0.898815
0
LINE
8
BLACK
6
CONTINUOUS
10
0.124808
20
0.898815
11
0.125
21
0.898867
0
LINE
8
BLACK
6
CONTINUOUS
10
0.125
20
0.898867
11
0.12632
21
0.898513
0
LINE
8
BLACK
6
CONTINUOUS
10
0.202286
20
0.898063
11
0.204482
21
0.895867
0
LINE
8
BLACK
6
CONTINUOUS
10
0.204482
20
0.895867
11
0.205286
21
0.892867
0
LINE
8
BLACK
6
CONTINUOUS
10
0.205286
20
0.892867
11
0.205286
21
0.832867
0
LINE
8
BLACK
6
CONTINUOUS
10
0.205286
20
0.832867
11
0.204482
21
0.829867
0
LINE
8
BLACK
6
CONTINUOUS
10
0.204482
20
0.829867
11
0.202286
21
0.827671
0
LINE
8
BLACK
6
CONTINUOUS
10
0.202286
20
0.827671
11
0.199286
21
0.826867
0
LINE
8
BLACK
6
CONTINUOUS
10
0.199286
20
0.826867
11
0.185
21
0.826867
0
LINE
8
BLACK
6
CONTINUOUS
10
0.185
20
0.826867
11
0.184067
21
0.827117
0
LINE
8
BLACK
6
CONTINUOUS
10
0.184067
20
0.827117
11
0.183103
21
0.827175
0
LINE
8
BLACK
6
CONTINUOUS
10
0.183103
20
0.827175
11
0.174531
21
0.830032
0
LINE
8
BLACK
6
CONTINUOUS
10
0.174531
20
0.830032
11
0.17338
21
0.830792
0
LINE
8
BLACK
6
CONTINUOUS
10
0.17338
20
0.830792
11
0.172186
21
0.831481
0
LINE
8
BLACK
6
CONTINUOUS
10
0.172186
20
0.831481
11
0.166472
21
0.837196
0
LINE
8
BLACK
6
CONTINUOUS
10
0.166472
20
0.837196
11
0.165989
21
0.838032
0
LINE
8
BLACK
6
CONTINUOUS
10
0.165989
20
0.838032
11
0.165348
21
0.838755
0
LINE
8
BLACK
6
CONTINUOUS
10
0.165348
20
0.838755
11
0.162491
21
0.844469
0
LINE
8
BLACK
6
CONTINUOUS
10
0.162491
20
0.844469
11
0.162358
21
0.845118
0
LINE
8
BLACK
6
CONTINUOUS
10
0.162358
20
0.845118
11
0.162036
21
0.845697
0
LINE
8
BLACK
6
CONTINUOUS
10
0.162036
20
0.845697
11
0.159179
21
0.857126
0
LINE
8
BLACK
6
CONTINUOUS
10
0.159179
20
0.857126
11
0.159192
21
0.857866
0
LINE
8
BLACK
6
CONTINUOUS
10
0.159192
20
0.857866
11
0.159
21
0.858581
0
LINE
8
BLACK
6
CONTINUOUS
10
0.159
20
0.858581
11
0.159
21
0.867153
0
LINE
8
BLACK
6
CONTINUOUS
10
0.159
20
0.867153
11
0.159192
21
0.867868
0
LINE
8
BLACK
6
CONTINUOUS
10
0.159192
20
0.867868
11
0.159179
21
0.868608
0
LINE
8
BLACK
6
CONTINUOUS
10
0.159179
20
0.868608
11
0.162036
21
0.880036
0
LINE
8
BLACK
6
CONTINUOUS
10
0.162036
20
0.880036
11
0.162358
21
0.880616
0
LINE
8
BLACK
6
CONTINUOUS
10
0.162358
20
0.880616
11
0.162491
21
0.881264
0
LINE
8
BLACK
6
CONTINUOUS
10
0.162491
20
0.881264
11
0.165348
21
0.886979
0
LINE
8
BLACK
6
CONTINUOUS
10
0.165348
20
0.886979
11
0.165989
21
0.887701
0
LINE
8
BLACK
6
CONTINUOUS
10
0.165989
20
0.887701
11
0.166472
21
0.888538
0
LINE
8
BLACK
6
CONTINUOUS
10
0.166472
20
0.888538
11
0.172186
21
0.894252
0
LINE
8
BLACK
6
CONTINUOUS
10
0.172186
20
0.894252
11
0.17338
21
0.894942
0
LINE
8
BLACK
6
CONTINUOUS
10
0.17338
20
0.894942
11
0.174531
21
0.895702
0
LINE
8
BLACK
6
CONTINUOUS
10
0.174531
20
0.895702
11
0.183103
21
0.898559
0
LINE
8
BLACK
6
CONTINUOUS
10
0.183103
20
0.898559
11
0.184067
21
0.898617
0
LINE
8
BLACK
6
CONTINUOUS
10
0.184067
20
0.898617
11
0.185
21
0.898867
0
LINE
8
BLACK
6
CONTINUOUS
10
0.185
20
0.898867
11
0.199286
21
0.898867
0
LINE
8
BLACK
6
CONTINUOUS
10
0.199286
20
0.898867
11
0.202286
21
0.898063
0
LINE
8
BLACK
6
CONTINUOUS
10
0.17967
20
0.884766
11
0.175645
21
0.880741
0
LINE
8
BLACK
6
CONTINUOUS
10
0.175645
20
0.880741
11
0.173518
21
0.876487
0
LINE
8
BLACK
6
CONTINUOUS
10
0.173518
20
0.876487
11
0.171
21
0.866414
0
LINE
8
BLACK
6
CONTINUOUS
10
0.171
20
0.866414
11
0.171
21
0.85932
0
LINE
8
BLACK
6
CONTINUOUS
10
0.171
20
0.85932
11
0.173518
21
0.849247
0
LINE
8
BLACK
6
CONTINUOUS
10
0.173518
20
0.849247
11
0.175645
21
0.844992
0
LINE
8
BLACK
6
CONTINUOUS
10
0.175645
20
0.844992
11
0.17967
21
0.840968
0
LINE
8
BLACK
6
CONTINUOUS
10
0.17967
20
0.840968
11
0.185974
21
0.838867
0
LINE
8
BLACK
6
CONTINUOUS
10
0.185974
20
0.838867
11
0.193286
21
0.838867
0
LINE
8
BLACK
6
CONTINUOUS
10
0.193286
20
0.838867
11
0.193286
21
0.886867
0
LINE
8
BLACK
6
CONTINUOUS
10
0.193286
20
0.886867
11
0.185974
21
0.886867
0
LINE
8
BLACK
6
CONTINUOUS
10
0.185974
20
0.886867
11
0.17967
21
0.884766
0
LINE
8
BLACK
6
CONTINUOUS
10
0.182862
20
1.0032
11
0.183553
21
1.0013
0
LINE
8
BLACK
6
CONTINUOUS
10
0.183553
20
1.0013
11
0.183553
21
0.9187
0
LINE
8
BLACK
6
CONTINUOUS
10
0.183553
20
0.9187
11
0.183375
21
0.91769
0
LINE
8
BLACK
6
CONTINUOUS
10
0.183375
20
0.91769
11
0.182076
21
0.916143
0
LINE
8
BLACK
6
CONTINUOUS
10
0.182076
20
0.916143
11
0.180087
21
0.915792
0
LINE
8
BLACK
6
CONTINUOUS
10
0.180087
20
0.915792
11
0.178338
21
0.916802
0
LINE
8
BLACK
6
CONTINUOUS
10
0.178338
20
0.916802
11
0.177647
21
0.9187
0
LINE
8
BLACK
6
CONTINUOUS
10
0.177647
20
0.9187
11
0.177647
21
0.954614
0
LINE
8
BLACK
6
CONTINUOUS
10
0.177647
20
0.954614
11
0.143339
21
0.918564
0
LINE
8
BLACK
6
CONTINUOUS
10
0.143339
20
0.918564
11
0.142749
21
0.918129
0
LINE
8
BLACK
6
CONTINUOUS
10
0.142749
20
0.918129
11
0.142676
21
0.918043
0
LINE
8
BLACK
6
CONTINUOUS
10
0.142676
20
0.918043
11
0.142618
21
0.918033
0
LINE
8
BLACK
6
CONTINUOUS
10
0.142618
20
0.918033
11
0.142514
21
0.917956
0
LINE
8
BLACK
6
CONTINUOUS
10
0.142514
20
0.917956
11
0.141596
21
0.917852
0
LINE
8
BLACK
6
CONTINUOUS
10
0.141596
20
0.917852
11
0.140687
21
0.917692
0
LINE
8
BLACK
6
CONTINUOUS
10
0.140687
20
0.917692
11
0.140603
21
0.917741
0
LINE
8
BLACK
6
CONTINUOUS
10
0.140603
20
0.917741
11
0.140507
21
0.91773
0
LINE
8
BLACK
6
CONTINUOUS
10
0.140507
20
0.91773
11
0.139737
21
0.91824
0
LINE
8
BLACK
6
CONTINUOUS
10
0.139737
20
0.91824
11
0.138938
21
0.918702
0
LINE
8
BLACK
6
CONTINUOUS
10
0.138938
20
0.918702
11
0.138905
21
0.918793
0
LINE
8
BLACK
6
CONTINUOUS
10
0.138905
20
0.918793
11
0.138824
21
0.918847
0
LINE
8
BLACK
6
CONTINUOUS
10
0.138824
20
0.918847
11
0.138563
21
0.919733
0
LINE
8
BLACK
6
CONTINUOUS
10
0.138563
20
0.919733
11
0.138247
21
0.9206
0
LINE
8
BLACK
6
CONTINUOUS
10
0.138247
20
0.9206
11
0.138247
21
0.9994
0
LINE
8
BLACK
6
CONTINUOUS
10
0.138247
20
0.9994
11
0.138359
21
1.00003
0
LINE
8
BLACK
6
CONTINUOUS
10
0.138359
20
1.00003
11
0.138348
21
1.00016
0
LINE
8
BLACK
6
CONTINUOUS
10
0.138348
20
1.00016
11
0.138393
21
1.00023
0
LINE
8
BLACK
6
CONTINUOUS
10
0.138393
20
1.00023
11
0.138425
21
1.00041
0
LINE
8
BLACK
6
CONTINUOUS
10
0.138425
20
1.00041
11
0.138997
21
1.00109
0
LINE
8
BLACK
6
CONTINUOUS
10
0.138997
20
1.00109
11
0.139506
21
1.00182
0
LINE
8
BLACK
6
CONTINUOUS
10
0.139506
20
1.00182
11
0.139637
21
1.00185
0
LINE
8
BLACK
6
CONTINUOUS
10
0.139637
20
1.00185
11
0.139724
21
1.00196
0
LINE
8
BLACK
6
CONTINUOUS
10
0.139724
20
1.00196
11
0.140599
21
1.00211
0
LINE
8
BLACK
6
CONTINUOUS
10
0.140599
20
1.00211
11
0.141457
21
1.00234
0
LINE
8
BLACK
6
CONTINUOUS
10
0.141457
20
1.00234
11
0.14158
21
1.00228
0
LINE
8
BLACK
6
CONTINUOUS
10
0.14158
20
1.00228
11
0.141713
21
1.00231
0
LINE
8
BLACK
6
CONTINUOUS
10
0.141713
20
1.00231
11
0.142483
21
1.00186
0
LINE
8
BLACK
6
CONTINUOUS
10
0.142483
20
1.00186
11
0.143288
21
1.00149
0
LINE
8
BLACK
6
CONTINUOUS
10
0.143288
20
1.00149
11
0.177647
21
0.967129
0
LINE
8
BLACK
6
CONTINUOUS
10
0.177647
20
0.967129
11
0.177647
21
1.0013
0
LINE
8
BLACK
6
CONTINUOUS
10
0.177647
20
1.0013
11
0.177825
21
1.00231
0
LINE
8
BLACK
6
CONTINUOUS
10
0.177825
20
1.00231
11
0.179124
21
1.00386
0
LINE
8
BLACK
6
CONTINUOUS
10
0.179124
20
1.00386
11
0.181113
21
1.00421
0
LINE
8
BLACK
6
CONTINUOUS
10
0.181113
20
1.00421
11
0.182862
21
1.0032
0
LINE
8
BLACK
6
CONTINUOUS
10
0.144153
20
0.927986
11
0.1755
21
0.960924
0
LINE
8
BLACK
6
CONTINUOUS
10
0.1755
20
0.960924
11
0.144153
21
0.992271
0
LINE
8
BLACK
6
CONTINUOUS
10
0.144153
20
0.992271
11
0.144153
21
0.927986
0
LINE
8
BLACK
6
CONTINUOUS
10
0.279958
20
0.993718
11
0.282165
21
0.990951
0
LINE
8
BLACK
6
CONTINUOUS
10
0.282165
20
0.990951
11
0.282279
21
0.990453
0
LINE
8
BLACK
6
CONTINUOUS
10
0.282279
20
0.990453
11
0.32
21
0.990453
0
LINE
8
BLACK
6
CONTINUOUS
10
0.32
20
0.990453
11
0.32101
21
0.990275
0
LINE
8
BLACK
6
CONTINUOUS
10
0.32101
20
0.990275
11
0.322557
21
0.988976
0
LINE
8
BLACK
6
CONTINUOUS
10
0.322557
20
0.988976
11
0.322908
21
0.986987
0
LINE
8
BLACK
6
CONTINUOUS
10
0.322908
20
0.986987
11
0.321898
21
0.985238
0
LINE
8
BLACK
6
CONTINUOUS
10
0.321898
20
0.985238
11
0.32
21
0.984547
0
LINE
8
BLACK
6
CONTINUOUS
10
0.32
20
0.984547
11
0.282953
21
0.984547
0
LINE
8
BLACK
6
CONTINUOUS
10
0.282953
20
0.984547
11
0.282953
21
0.930453
0
LINE
8
BLACK
6
CONTINUOUS
10
0.282953
20
0.930453
11
0.32
21
0.930453
0
LINE
8
BLACK
6
CONTINUOUS
10
0.32
20
0.930453
11
0.32101
21
0.930275
0
LINE
8
BLACK
6
CONTINUOUS
10
0.32101
20
0.930275
11
0.322557
21
0.928976
0
LINE
8
BLACK
6
CONTINUOUS
10
0.322557
20
0.928976
11
0.322908
21
0.926987
0
LINE
8
BLACK
6
CONTINUOUS
10
0.322908
20
0.926987
11
0.321898
21
0.925238
0
LINE
8
BLACK
6
CONTINUOUS
10
0.321898
20
0.925238
11
0.32
21
0.924547
0
LINE
8
BLACK
6
CONTINUOUS
10
0.32
20
0.924547
11
0.28
21
0.924547
0
LINE
8
BLACK
6
CONTINUOUS
10
0.28
20
0.924547
11
0.279616
21
0.924615
0
LINE
8
BLACK
6
CONTINUOUS
10
0.279616
20
0.924615
11
0.279487
21
0.924592
0
LINE
8
BLACK
6
CONTINUOUS
10
0.279487
20
0.924592
11
0.279374
21
0.924658
0
LINE
8
BLACK
6
CONTINUOUS
10
0.279374
20
0.924658
11
0.27899
21
0.924725
0
LINE
8
BLACK
6
CONTINUOUS
10
0.27899
20
0.924725
11
0.278402
21
0.925218
0
LINE
8
BLACK
6
CONTINUOUS
10
0.278402
20
0.925218
11
0.277738
21
0.925602
0
LINE
8
BLACK
6
CONTINUOUS
10
0.277738
20
0.925602
11
0.277647
21
0.925852
0
LINE
8
BLACK
6
CONTINUOUS
10
0.277647
20
0.925852
11
0.277443
21
0.926024
0
LINE
8
BLACK
6
CONTINUOUS
10
0.277443
20
0.926024
11
0.27731
21
0.926779
0
LINE
8
BLACK
6
CONTINUOUS
10
0.27731
20
0.926779
11
0.277047
21
0.9275
0
LINE
8
BLACK
6
CONTINUOUS
10
0.277047
20
0.9275
11
0.277047
21
0.97988
0
LINE
8
BLACK
6
CONTINUOUS
10
0.277047
20
0.97988
11
0.27677
21
0.979747
0
LINE
8
BLACK
6
CONTINUOUS
10
0.27677
20
0.979747
11
0.27323
21
0.979747
0
LINE
8
BLACK
6
CONTINUOUS
10
0.27323
20
0.979747
11
0.270042
21
0.981282
0
LINE
8
BLACK
6
CONTINUOUS
10
0.270042
20
0.981282
11
0.267835
21
0.984049
0
LINE
8
BLACK
6
CONTINUOUS
10
0.267835
20
0.984049
11
0.267047
21
0.9875
0
LINE
8
BLACK
6
CONTINUOUS
10
0.267047
20
0.9875
11
0.267835
21
0.990951
0
LINE
8
BLACK
6
CONTINUOUS
10
0.267835
20
0.990951
11
0.270042
21
0.993718
0
LINE
8
BLACK
6
CONTINUOUS
10
0.270042
20
0.993718
11
0.27323
21
0.995253
0
LINE
8
BLACK
6
CONTINUOUS
10
0.27323
20
0.995253
11
0.27677
21
0.995253
0
LINE
8
BLACK
6
CONTINUOUS
10
0.27677
20
0.995253
11
0.279958
21
0.993718
0
LINE
8
BLACK
6
CONTINUOUS
10
0.273433
20
0.985933
11
0.275
21
0.985284
0
LINE
8
BLACK
6
CONTINUOUS
10
0.275
20
0.985284
11
0.276567
21
0.985933
0
LINE
8
BLACK
6
CONTINUOUS
10
0.276567
20
0.985933
11
0.277047
21
0.987093
0
LINE
8
BLACK
6
CONTINUOUS
10
0.277047
20
0.987093
11
0.277047
21
0.9875
0
LINE
8
BLACK
6
CONTINUOUS
10
0.277047
20
0.9875
11
0.277098
21
0.987786
0
LINE
8
BLACK
6
CONTINUOUS
10
0.277098
20
0.987786
11
0.276567
21
0.989067
0
LINE
8
BLACK
6
CONTINUOUS
10
0.276567
20
0.989067
11
0.275
21
0.989716
0
LINE
8
BLACK
6
CONTINUOUS
10
0.275
20
0.989716
11
0.273433
21
0.989067
0
LINE
8
BLACK
6
CONTINUOUS
10
0.273433
20
0.989067
11
0.272784
21
0.9875
0
LINE
8
BLACK
6
CONTINUOUS
10
0.272784
20
0.9875
11
0.273433
21
0.985933
0
LINE
8
BLACK
6
CONTINUOUS
10
0.400384
20
0.990385
11
0.400513
21
0.990408
0
LINE
8
BLACK
6
CONTINUOUS
10
0.400513
20
0.990408
11
0.400626
21
0.990342
0
LINE
8
BLACK
6
CONTINUOUS
10
0.400626
20
0.990342
11
0.40101
21
0.990275
0
LINE
8
BLACK
6
CONTINUOUS
10
0.40101
20
0.990275
11
0.401598
21
0.989782
0
LINE
8
BLACK
6
CONTINUOUS
10
0.401598
20
0.989782
11
0.402262
21
0.989398
0
LINE
8
BLACK
6
CONTINUOUS
10
0.402262
20
0.989398
11
0.402353
21
0.989148
0
LINE
8
BLACK
6
CONTINUOUS
10
0.402353
20
0.989148
11
0.402557
21
0.988976
0
LINE
8
BLACK
6
CONTINUOUS
10
0.402557
20
0.988976
11
0.40269
21
0.988221
0
LINE
8
BLACK
6
CONTINUOUS
10
0.40269
20
0.988221
11
0.402953
21
0.9875
0
LINE
8
BLACK
6
CONTINUOUS
10
0.402953
20
0.9875
11
0.402953
21
0.9275
0
LINE
8
BLACK
6
CONTINUOUS
10
0.402953
20
0.9275
11
0.402885
21
0.927116
0
LINE
8
BLACK
6
CONTINUOUS
10
0.402885
20
0.927116
11
0.402908
21
0.926987
0
LINE
8
BLACK
6
CONTINUOUS
10
0.402908
20
0.926987
11
0.402842
21
0.926874
0
LINE
8
BLACK
6
CONTINUOUS
10
0.402842
20
0.926874
11
0.402775
21
0.92649
0
LINE
8
BLACK
6
CONTINUOUS
10
0.402775
20
0.92649
11
0.402282
21
0.925902
0
LINE
8
BLACK
6
CONTINUOUS
10
0.402282
20
0.925902
11
0.401898
21
0.925238
0
LINE
8
BLACK
6
CONTINUOUS
10
0.401898
20
0.925238
11
0.401648
21
0.925147
0
LINE
8
BLACK
6
CONTINUOUS
10
0.401648
20
0.925147
11
0.401476
21
0.924943
0
LINE
8
BLACK
6
CONTINUOUS
10
0.401476
20
0.924943
11
0.400721
21
0.92481
0
LINE
8
BLACK
6
CONTINUOUS
10
0.400721
20
0.92481
11
0.4
21
0.924547
0
LINE
8
BLACK
6
CONTINUOUS
10
0.4
20
0.924547
11
0.36
21
0.924547
0
LINE
8
BLACK
6
CONTINUOUS
10
0.36
20
0.924547
11
0.35899
21
0.924725
0
LINE
8
BLACK
6
CONTINUOUS
10
0.35899
20
0.924725
11
0.357443
21
0.926024
0
LINE
8
BLACK
6
CONTINUOUS
10
0.357443
20
0.926024
11
0.357092
21
0.928013
0
LINE
8
BLACK
6
CONTINUOUS
10
0.357092
20
0.928013
11
0.358102
21
0.929762
0
LINE
8
BLACK
6
CONTINUOUS
10
0.358102
20
0.929762
11
0.36
21
0.930453
0
LINE
8
BLACK
6
CONTINUOUS
10
0.36
20
0.930453
11
0.397047
21
0.930453
0
LINE
8
BLACK
6
CONTINUOUS
10
0.397047
20
0.930453
11
0.397047
21
0.984547
0
LINE
8
BLACK
6
CONTINUOUS
10
0.397047
20
0.984547
11
0.365015
21
0.984547
0
LINE
8
BLACK
6
CONTINUOUS
10
0.365015
20
0.984547
11
0.365082
21
0.984503
0
LINE
8
BLACK
6
CONTINUOUS
10
0.365082
20
0.984503
11
0.36684
21
0.981865
0
LINE
8
BLACK
6
CONTINUOUS
10
0.36684
20
0.981865
11
0.368319
21
0.980386
0
LINE
8
BLACK
6
CONTINUOUS
10
0.368319
20
0.980386
11
0.369883
21
0.979604
0
LINE
8
BLACK
6
CONTINUOUS
10
0.369883
20
0.979604
11
0.370961
21
0.978361
0
LINE
8
BLACK
6
CONTINUOUS
10
0.370961
20
0.978361
11
0.370844
21
0.97672
0
LINE
8
BLACK
6
CONTINUOUS
10
0.370844
20
0.97672
11
0.369601
21
0.975642
0
LINE
8
BLACK
6
CONTINUOUS
10
0.369601
20
0.975642
11
0.36796
21
0.975758
0
LINE
8
BLACK
6
CONTINUOUS
10
0.36796
20
0.975758
11
0.366084
21
0.976697
0
LINE
8
BLACK
6
CONTINUOUS
10
0.366084
20
0.976697
11
0.365852
21
0.976964
0
LINE
8
BLACK
6
CONTINUOUS
10
0.365852
20
0.976964
11
0.365525
21
0.977099
0
LINE
8
BLACK
6
CONTINUOUS
10
0.365525
20
0.977099
11
0.365443
21
0.977181
0
LINE
8
BLACK
6
CONTINUOUS
10
0.365443
20
0.977181
11
0.365443
21
0.96576
0
LINE
8
BLACK
6
CONTINUOUS
10
0.365443
20
0.96576
11
0.368921
21
0.96576
0
LINE
8
BLACK
6
CONTINUOUS
10
0.368921
20
0.96576
11
0.370442
21
0.96513
0
LINE
8
BLACK
6
CONTINUOUS
10
0.370442
20
0.96513
11
0.371071
21
0.96361
0
LINE
8
BLACK
6
CONTINUOUS
10
0.371071
20
0.96361
11
0.370442
21
0.96209
0
LINE
8
BLACK
6
CONTINUOUS
10
0.370442
20
0.96209
11
0.368921
21
0.96146
0
LINE
8
BLACK
6
CONTINUOUS
10
0.368921
20
0.96146
11
0.363293
21
0.96146
0
LINE
8
BLACK
6
CONTINUOUS
10
0.363293
20
0.96146
11
0.357664
21
0.96146
0
LINE
8
BLACK
6
CONTINUOUS
10
0.357664
20
0.96146
11
0.356144
21
0.96209
0
LINE
8
BLACK
6
CONTINUOUS
10
0.356144
20
0.96209
11
0.355514
21
0.96361
0
LINE
8
BLACK
6
CONTINUOUS
10
0.355514
20
0.96361
11
0.356144
21
0.96513
0
LINE
8
BLACK
6
CONTINUOUS
10
0.356144
20
0.96513
11
0.357664
21
0.96576
0
LINE
8
BLACK
6
CONTINUOUS
10
0.357664
20
0.96576
11
0.361143
21
0.96576
0
LINE
8
BLACK
6
CONTINUOUS
10
0.361143
20
0.96576
11
0.361143
21
0.98331
0
LINE
8
BLACK
6
CONTINUOUS
10
0.361143
20
0.98331
11
0.361227
21
0.983515
0
LINE
8
BLACK
6
CONTINUOUS
10
0.361227
20
0.983515
11
0.361185
21
0.983732
0
LINE
8
BLACK
6
CONTINUOUS
10
0.361185
20
0.983732
11
0.361533
21
0.984252
0
LINE
8
BLACK
6
CONTINUOUS
10
0.361533
20
0.984252
11
0.361655
21
0.984547
0
LINE
8
BLACK
6
CONTINUOUS
10
0.361655
20
0.984547
11
0.36
21
0.984547
0
LINE
8
BLACK
6
CONTINUOUS
10
0.36
20
0.984547
11
0.35899
21
0.984725
0
LINE
8
BLACK
6
CONTINUOUS
10
0.35899
20
0.984725
11
0.357443
21
0.986024
0
LINE
8
BLACK
6
CONTINUOUS
10
0.357443
20
0.986024
11
0.357092
21
0.988013
0
LINE
8
BLACK
6
CONTINUOUS
10
0.357092
20
0.988013
11
0.358102
21
0.989762
0
LINE
8
BLACK
6
CONTINUOUS
10
0.358102
20
0.989762
11
0.36
21
0.990453
0
LINE
8
BLACK
6
CONTINUOUS
10
0.36
20
0.990453
11
0.4
21
0.990453
0
LINE
8
BLACK
6
CONTINUOUS
10
0.4
20
0.990453
11
0.400384
21
0.990385
0
LINE
8
BLACK
6
CONTINUOUS
10
0.330354
20
0.957875
11
0.330572
21
0.957918
0
LINE
8
BLACK
6
CONTINUOUS
10
0.330572
20
0.957918
11
0.331092
21
0.95757
0
LINE
8
BLACK
6
CONTINUOUS
10
0.331092
20
0.95757
11
0.33167
21
0.95733
0
LINE
8
BLACK
6
CONTINUOUS
10
0.33167
20
0.95733
11
0.331755
21
0.957126
0
LINE
8
BLACK
6
CONTINUOUS
10
0.331755
20
0.957126
11
0.331939
21
0.957003
0
LINE
8
BLACK
6
CONTINUOUS
10
0.331939
20
0.957003
11
0.333697
21
0.954365
0
LINE
8
BLACK
6
CONTINUOUS
10
0.333697
20
0.954365
11
0.335176
21
0.952886
0
LINE
8
BLACK
6
CONTINUOUS
10
0.335176
20
0.952886
11
0.33674
21
0.952104
0
LINE
8
BLACK
6
CONTINUOUS
10
0.33674
20
0.952104
11
0.337818
21
0.950861
0
LINE
8
BLACK
6
CONTINUOUS
10
0.337818
20
0.950861
11
0.337702
21
0.94922
0
LINE
8
BLACK
6
CONTINUOUS
10
0.337702
20
0.94922
11
0.336458
21
0.948142
0
LINE
8
BLACK
6
CONTINUOUS
10
0.336458
20
0.948142
11
0.334817
21
0.948258
0
LINE
8
BLACK
6
CONTINUOUS
10
0.334817
20
0.948258
11
0.332941
21
0.949197
0
LINE
8
BLACK
6
CONTINUOUS
10
0.332941
20
0.949197
11
0.332709
21
0.949464
0
LINE
8
BLACK
6
CONTINUOUS
10
0.332709
20
0.949464
11
0.332382
21
0.949599
0
LINE
8
BLACK
6
CONTINUOUS
10
0.332382
20
0.949599
11
0.3323
21
0.949681
0
LINE
8
BLACK
6
CONTINUOUS
10
0.3323
20
0.949681
11
0.3323
21
0.93826
0
LINE
8
BLACK
6
CONTINUOUS
10
0.3323
20
0.93826
11
0.335779
21
0.93826
0
LINE
8
BLACK
6
CONTINUOUS
10
0.335779
20
0.93826
11
0.337299
21
0.93763
0
LINE
8
BLACK
6
CONTINUOUS
10
0.337299
20
0.93763
11
0.337929
21
0.93611
0
LINE
8
BLACK
6
CONTINUOUS
10
0.337929
20
0.93611
11
0.337299
21
0.93459
0
LINE
8
BLACK
6
CONTINUOUS
10
0.337299
20
0.93459
11
0.335779
21
0.93396
0
LINE
8
BLACK
6
CONTINUOUS
10
0.335779
20
0.93396
11
0.33015
21
0.93396
0
LINE
8
BLACK
6
CONTINUOUS
10
0.33015
20
0.93396
11
0.324521
21
0.93396
0
LINE
8
BLACK
6
CONTINUOUS
10
0.324521
20
0.93396
11
0.323001
21
0.93459
0
LINE
8
BLACK
6
CONTINUOUS
10
0.323001
20
0.93459
11
0.322371
21
0.93611
0
LINE
8
BLACK
6
CONTINUOUS
10
0.322371
20
0.93611
11
0.323001
21
0.93763
0
LINE
8
BLACK
6
CONTINUOUS
10
0.323001
20
0.93763
11
0.324521
21
0.93826
0
LINE
8
BLACK
6
CONTINUOUS
10
0.324521
20
0.93826
11
0.328
21
0.93826
0
LINE
8
BLACK
6
CONTINUOUS
10
0.328
20
0.93826
11
0.328
21
0.95581
0
LINE
8
BLACK
6
CONTINUOUS
10
0.328
20
0.95581
11
0.328085
21
0.956015
0
LINE
8
BLACK
6
CONTINUOUS
10
0.328085
20
0.956015
11
0.328042
21
0.956232
0
LINE
8
BLACK
6
CONTINUOUS
10
0.328042
20
0.956232
11
0.32839
21
0.956752
0
LINE
8
BLACK
6
CONTINUOUS
10
0.32839
20
0.956752
11
0.32863
21
0.95733
0
LINE
8
BLACK
6
CONTINUOUS
10
0.32863
20
0.95733
11
0.328834
21
0.957415
0
LINE
8
BLACK
6
CONTINUOUS
10
0.328834
20
0.957415
11
0.328957
21
0.957599
0
LINE
8
BLACK
6
CONTINUOUS
10
0.328957
20
0.957599
11
0.329571
21
0.95772
0
LINE
8
BLACK
6
CONTINUOUS
10
0.329571
20
0.95772
11
0.33015
21
0.95796
0
LINE
8
BLACK
6
CONTINUOUS
10
0.33015
20
0.95796
11
0.330354
21
0.957875
0
LINE
8
BLACK
6
CONTINUOUS
10
0.349239
20
0.957825
11
0.349592
21
0.95785
0
LINE
8
BLACK
6
CONTINUOUS
10
0.349592
20
0.95785
11
0.352406
21
0.956912
0
LINE
8
BLACK
6
CONTINUOUS
10
0.352406
20
0.956912
11
0.352784
21
0.956584
0
LINE
8
BLACK
6
CONTINUOUS
10
0.352784
20
0.956584
11
0.353246
21
0.956392
0
LINE
8
BLACK
6
CONTINUOUS
10
0.353246
20
0.956392
11
0.355123
21
0.954516
0
LINE
8
BLACK
6
CONTINUOUS
10
0.355123
20
0.954516
11
0.355258
21
0.954189
0
LINE
8
BLACK
6
CONTINUOUS
10
0.355258
20
0.954189
11
0.355525
21
0.953957
0
LINE
8
BLACK
6
CONTINUOUS
10
0.355525
20
0.953957
11
0.356463
21
0.952081
0
LINE
8
BLACK
6
CONTINUOUS
10
0.356463
20
0.952081
11
0.356481
21
0.951837
0
LINE
8
BLACK
6
CONTINUOUS
10
0.356481
20
0.951837
11
0.356626
21
0.951641
0
LINE
8
BLACK
6
CONTINUOUS
10
0.356626
20
0.951641
11
0.357564
21
0.947889
0
LINE
8
BLACK
6
CONTINUOUS
10
0.357564
20
0.947889
11
0.357524
21
0.947619
0
LINE
8
BLACK
6
CONTINUOUS
10
0.357524
20
0.947619
11
0.357629
21
0.947367
0
LINE
8
BLACK
6
CONTINUOUS
10
0.357629
20
0.947367
11
0.357629
21
0.944553
0
LINE
8
BLACK
6
CONTINUOUS
10
0.357629
20
0.944553
11
0.357524
21
0.944301
0
LINE
8
BLACK
6
CONTINUOUS
10
0.357524
20
0.944301
11
0.357564
21
0.944031
0
LINE
8
BLACK
6
CONTINUOUS
10
0.357564
20
0.944031
11
0.356626
21
0.940279
0
LINE
8
BLACK
6
CONTINUOUS
10
0.356626
20
0.940279
11
0.356481
21
0.940083
0
LINE
8
BLACK
6
CONTINUOUS
10
0.356481
20
0.940083
11
0.356463
21
0.939839
0
LINE
8
BLACK
6
CONTINUOUS
10
0.356463
20
0.939839
11
0.355525
21
0.937963
0
LINE
8
BLACK
6
CONTINUOUS
10
0.355525
20
0.937963
11
0.355258
21
0.937731
0
LINE
8
BLACK
6
CONTINUOUS
10
0.355258
20
0.937731
11
0.355123
21
0.937404
0
LINE
8
BLACK
6
CONTINUOUS
10
0.355123
20
0.937404
11
0.353246
21
0.935528
0
LINE
8
BLACK
6
CONTINUOUS
10
0.353246
20
0.935528
11
0.352784
21
0.935336
0
LINE
8
BLACK
6
CONTINUOUS
10
0.352784
20
0.935336
11
0.352406
21
0.935008
0
LINE
8
BLACK
6
CONTINUOUS
10
0.352406
20
0.935008
11
0.349592
21
0.93407
0
LINE
8
BLACK
6
CONTINUOUS
10
0.349592
20
0.93407
11
0.349239
21
0.934095
0
LINE
8
BLACK
6
CONTINUOUS
10
0.349239
20
0.934095
11
0.348912
21
0.93396
0
LINE
8
BLACK
6
CONTINUOUS
10
0.348912
20
0.93396
11
0.347036
21
0.93396
0
LINE
8
BLACK
6
CONTINUOUS
10
0.347036
20
0.93396
11
0.346709
21
0.934095
0
LINE
8
BLACK
6
CONTINUOUS
10
0.346709
20
0.934095
11
0.346356
21
0.93407
0
LINE
8
BLACK
6
CONTINUOUS
10
0.346356
20
0.93407
11
0.343541
21
0.935008
0
LINE
8
BLACK
6
CONTINUOUS
10
0.343541
20
0.935008
11
0.343163
21
0.935336
0
LINE
8
BLACK
6
CONTINUOUS
10
0.343163
20
0.935336
11
0.342701
21
0.935528
0
LINE
8
BLACK
6
CONTINUOUS
10
0.342701
20
0.935528
11
0.341763
21
0.936466
0
LINE
8
BLACK
6
CONTINUOUS
10
0.341763
20
0.936466
11
0.341133
21
0.937986
0
LINE
8
BLACK
6
CONTINUOUS
10
0.341133
20
0.937986
11
0.341763
21
0.939506
0
LINE
8
BLACK
6
CONTINUOUS
10
0.341763
20
0.939506
11
0.343283
21
0.940136
0
LINE
8
BLACK
6
CONTINUOUS
10
0.343283
20
0.940136
11
0.344804
21
0.939506
0
LINE
8
BLACK
6
CONTINUOUS
10
0.344804
20
0.939506
11
0.345383
21
0.938927
0
LINE
8
BLACK
6
CONTINUOUS
10
0.345383
20
0.938927
11
0.347385
21
0.93826
0
LINE
8
BLACK
6
CONTINUOUS
10
0.347385
20
0.93826
11
0.348563
21
0.93826
0
LINE
8
BLACK
6
CONTINUOUS
10
0.348563
20
0.93826
11
0.350565
21
0.938927
0
LINE
8
BLACK
6
CONTINUOUS
10
0.350565
20
0.938927
11
0.351835
21
0.940198
0
LINE
8
BLACK
6
CONTINUOUS
10
0.351835
20
0.940198
11
0.352512
21
0.941551
0
LINE
8
BLACK
6
CONTINUOUS
10
0.352512
20
0.941551
11
0.353329
21
0.944818
0
LINE
8
BLACK
6
CONTINUOUS
10
0.353329
20
0.944818
11
0.353329
21
0.947102
0
LINE
8
BLACK
6
CONTINUOUS
10
0.353329
20
0.947102
11
0.352512
21
0.950369
0
LINE
8
BLACK
6
CONTINUOUS
10
0.352512
20
0.950369
11
0.351835
21
0.951722
0
LINE
8
BLACK
6
CONTINUOUS
10
0.351835
20
0.951722
11
0.350565
21
0.952993
0
LINE
8
BLACK
6
CONTINUOUS
10
0.350565
20
0.952993
11
0.348563
21
0.95366
0
LINE
8
BLACK
6
CONTINUOUS
10
0.348563
20
0.95366
11
0.347385
21
0.95366
0
LINE
8
BLACK
6
CONTINUOUS
10
0.347385
20
0.95366
11
0.345383
21
0.952993
0
LINE
8
BLACK
6
CONTINUOUS
10
0.345383
20
0.952993
11
0.344804
21
0.952414
0
LINE
8
BLACK
6
CONTINUOUS
10
0.344804
20
0.952414
11
0.343283
21
0.951784
0
LINE
8
BLACK
6
CONTINUOUS
10
0.343283
20
0.951784
11
0.341763
21
0.952414
0
LINE
8
BLACK
6
CONTINUOUS
10
0.341763
20
0.952414
11
0.341133
21
0.953934
0
LINE
8
BLACK
6
CONTINUOUS
10
0.341133
20
0.953934
11
0.341763
21
0.955454
0
LINE
8
BLACK
6
CONTINUOUS
10
0.341763
20
0.955454
11
0.342701
21
0.956392
0
LINE
8
BLACK
6
CONTINUOUS
10
0.342701
20
0.956392
11
0.343163
21
0.956584
0
LINE
8
BLACK
6
CONTINUOUS
10
0.343163
20
0.956584
11
0.343541
21
0.956912
0
LINE
8
BLACK
6
CONTINUOUS
10
0.343541
20
0.956912
11
0.346356
21
0.95785
0
LINE
8
BLACK
6
CONTINUOUS
10
0.346356
20
0.95785
11
0.346709
21
0.957825
0
LINE
8
BLACK
6
CONTINUOUS
10
0.346709
20
0.957825
11
0.347036
21
0.95796
0
LINE
8
BLACK
6
CONTINUOUS
10
0.347036
20
0.95796
11
0.348912
21
0.95796
0
LINE
8
BLACK
6
CONTINUOUS
10
0.348912
20
0.95796
11
0.349239
21
0.957825
0
LINE
8
BLACK
6
CONTINUOUS
10
0.33198
20
0.978264
11
0.332609
21
0.976743
0
LINE
8
BLACK
6
CONTINUOUS
10
0.332609
20
0.976743
11
0.332609
21
0.966424
0
LINE
8
BLACK
6
CONTINUOUS
10
0.332609
20
0.966424
11
0.332418
21
0.965962
0
LINE
8
BLACK
6
CONTINUOUS
10
0.332418
20
0.965962
11
0.332383
21
0.965463
0
LINE
8
BLACK
6
CONTINUOUS
10
0.332383
20
0.965463
11
0.331444
21
0.963587
0
LINE
8
BLACK
6
CONTINUOUS
10
0.331444
20
0.963587
11
0.33093
21
0.96314
0
LINE
8
BLACK
6
CONTINUOUS
10
0.33093
20
0.96314
11
0.330483
21
0.962625
0
LINE
8
BLACK
6
CONTINUOUS
10
0.330483
20
0.962625
11
0.328607
21
0.961687
0
LINE
8
BLACK
6
CONTINUOUS
10
0.328607
20
0.961687
11
0.328108
21
0.961651
0
LINE
8
BLACK
6
CONTINUOUS
10
0.328108
20
0.961651
11
0.327645
21
0.96146
0
LINE
8
BLACK
6
CONTINUOUS
10
0.327645
20
0.96146
11
0.324831
21
0.96146
0
LINE
8
BLACK
6
CONTINUOUS
10
0.324831
20
0.96146
11
0.324369
21
0.961651
0
LINE
8
BLACK
6
CONTINUOUS
10
0.324369
20
0.961651
11
0.323869
21
0.961687
0
LINE
8
BLACK
6
CONTINUOUS
10
0.323869
20
0.961687
11
0.323278
21
0.961983
0
LINE
8
BLACK
6
CONTINUOUS
10
0.323278
20
0.961983
11
0.322017
21
0.96146
0
LINE
8
BLACK
6
CONTINUOUS
10
0.322017
20
0.96146
11
0.320496
21
0.96209
0
LINE
8
BLACK
6
CONTINUOUS
10
0.320496
20
0.96209
11
0.319867
21
0.96361
0
LINE
8
BLACK
6
CONTINUOUS
10
0.319867
20
0.96361
11
0.319867
21
0.976743
0
LINE
8
BLACK
6
CONTINUOUS
10
0.319867
20
0.976743
11
0.320496
21
0.978264
0
LINE
8
BLACK
6
CONTINUOUS
10
0.320496
20
0.978264
11
0.322017
21
0.978893
0
LINE
8
BLACK
6
CONTINUOUS
10
0.322017
20
0.978893
11
0.323537
21
0.978264
0
LINE
8
BLACK
6
CONTINUOUS
10
0.323537
20
0.978264
11
0.324167
21
0.976743
0
LINE
8
BLACK
6
CONTINUOUS
10
0.324167
20
0.976743
11
0.324167
21
0.966377
0
LINE
8
BLACK
6
CONTINUOUS
10
0.324167
20
0.966377
11
0.324228
21
0.966315
0
LINE
8
BLACK
6
CONTINUOUS
10
0.324228
20
0.966315
11
0.325339
21
0.96576
0
LINE
8
BLACK
6
CONTINUOUS
10
0.325339
20
0.96576
11
0.327138
21
0.96576
0
LINE
8
BLACK
6
CONTINUOUS
10
0.327138
20
0.96576
11
0.327919
21
0.966151
0
LINE
8
BLACK
6
CONTINUOUS
10
0.327919
20
0.966151
11
0.328309
21
0.966932
0
LINE
8
BLACK
6
CONTINUOUS
10
0.328309
20
0.966932
11
0.328309
21
0.976743
0
LINE
8
BLACK
6
CONTINUOUS
10
0.328309
20
0.976743
11
0.328939
21
0.978264
0
LINE
8
BLACK
6
CONTINUOUS
10
0.328939
20
0.978264
11
0.330459
21
0.978893
0
LINE
8
BLACK
6
CONTINUOUS
10
0.330459
20
0.978893
11
0.33198
21
0.978264
0
LINE
8
BLACK
6
CONTINUOUS
10
0.345931
20
0.985268
11
0.346431
21
0.985233
0
LINE
8
BLACK
6
CONTINUOUS
10
0.346431
20
0.985233
11
0.348307
21
0.984295
0
LINE
8
BLACK
6
CONTINUOUS
10
0.348307
20
0.984295
11
0.348539
21
0.984028
0
LINE
8
BLACK
6
CONTINUOUS
10
0.348539
20
0.984028
11
0.348865
21
0.983892
0
LINE
8
BLACK
6
CONTINUOUS
10
0.348865
20
0.983892
11
0.349804
21
0.982954
0
LINE
8
BLACK
6
CONTINUOUS
10
0.349804
20
0.982954
11
0.349939
21
0.982627
0
LINE
8
BLACK
6
CONTINUOUS
10
0.349939
20
0.982627
11
0.350206
21
0.982395
0
LINE
8
BLACK
6
CONTINUOUS
10
0.350206
20
0.982395
11
0.351144
21
0.980519
0
LINE
8
BLACK
6
CONTINUOUS
10
0.351144
20
0.980519
11
0.351162
21
0.980275
0
LINE
8
BLACK
6
CONTINUOUS
10
0.351162
20
0.980275
11
0.351307
21
0.980079
0
LINE
8
BLACK
6
CONTINUOUS
10
0.351307
20
0.980079
11
0.352245
21
0.976327
0
LINE
8
BLACK
6
CONTINUOUS
10
0.352245
20
0.976327
11
0.352205
21
0.976057
0
LINE
8
BLACK
6
CONTINUOUS
10
0.352205
20
0.976057
11
0.352309
21
0.975805
0
LINE
8
BLACK
6
CONTINUOUS
10
0.352309
20
0.975805
11
0.352309
21
0.971115
0
LINE
8
BLACK
6
CONTINUOUS
10
0.352309
20
0.971115
11
0.352205
21
0.970863
0
LINE
8
BLACK
6
CONTINUOUS
10
0.352205
20
0.970863
11
0.352245
21
0.970593
0
LINE
8
BLACK
6
CONTINUOUS
10
0.352245
20
0.970593
11
0.351307
21
0.966841
0
LINE
8
BLACK
6
CONTINUOUS
10
0.351307
20
0.966841
11
0.351162
21
0.966645
0
LINE
8
BLACK
6
CONTINUOUS
10
0.351162
20
0.966645
11
0.351144
21
0.966401
0
LINE
8
BLACK
6
CONTINUOUS
10
0.351144
20
0.966401
11
0.350206
21
0.964525
0
LINE
8
BLACK
6
CONTINUOUS
10
0.350206
20
0.964525
11
0.349939
21
0.964293
0
LINE
8
BLACK
6
CONTINUOUS
10
0.349939
20
0.964293
11
0.349804
21
0.963966
0
LINE
8
BLACK
6
CONTINUOUS
10
0.349804
20
0.963966
11
0.348865
21
0.963028
0
LINE
8
BLACK
6
CONTINUOUS
10
0.348865
20
0.963028
11
0.348539
21
0.962892
0
LINE
8
BLACK
6
CONTINUOUS
10
0.348539
20
0.962892
11
0.348307
21
0.962625
0
LINE
8
BLACK
6
CONTINUOUS
10
0.348307
20
0.962625
11
0.346431
21
0.961687
0
LINE
8
BLACK
6
CONTINUOUS
10
0.346431
20
0.961687
11
0.345931
21
0.961651
0
LINE
8
BLACK
6
CONTINUOUS
10
0.345931
20
0.961651
11
0.345469
21
0.96146
0
LINE
8
BLACK
6
CONTINUOUS
10
0.345469
20
0.96146
11
0.343593
21
0.96146
0
LINE
8
BLACK
6
CONTINUOUS
10
0.343593
20
0.96146
11
0.34313
21
0.961651
0
LINE
8
BLACK
6
CONTINUOUS
10
0.34313
20
0.961651
11
0.342631
21
0.961687
0
LINE
8
BLACK
6
CONTINUOUS
10
0.342631
20
0.961687
11
0.340755
21
0.962625
0
LINE
8
BLACK
6
CONTINUOUS
10
0.340755
20
0.962625
11
0.340523
21
0.962892
0
LINE
8
BLACK
6
CONTINUOUS
10
0.340523
20
0.962892
11
0.340196
21
0.963028
0
LINE
8
BLACK
6
CONTINUOUS
10
0.340196
20
0.963028
11
0.339258
21
0.963966
0
LINE
8
BLACK
6
CONTINUOUS
10
0.339258
20
0.963966
11
0.339123
21
0.964293
0
LINE
8
BLACK
6
CONTINUOUS
10
0.339123
20
0.964293
11
0.338856
21
0.964525
0
LINE
8
BLACK
6
CONTINUOUS
10
0.338856
20
0.964525
11
0.337917
21
0.966401
0
LINE
8
BLACK
6
CONTINUOUS
10
0.337917
20
0.966401
11
0.3379
21
0.966645
0
LINE
8
BLACK
6
CONTINUOUS
10
0.3379
20
0.966645
11
0.337755
21
0.966841
0
LINE
8
BLACK
6
CONTINUOUS
10
0.337755
20
0.966841
11
0.336817
21
0.970593
0
LINE
8
BLACK
6
CONTINUOUS
10
0.336817
20
0.970593
11
0.336857
21
0.970863
0
LINE
8
BLACK
6
CONTINUOUS
10
0.336857
20
0.970863
11
0.336752
21
0.971115
0
LINE
8
BLACK
6
CONTINUOUS
10
0.336752
20
0.971115
11
0.336752
21
0.975805
0
LINE
8
BLACK
6
CONTINUOUS
10
0.336752
20
0.975805
11
0.336857
21
0.976057
0
LINE
8
BLACK
6
CONTINUOUS
10
0.336857
20
0.976057
11
0.336817
21
0.976327
0
LINE
8
BLACK
6
CONTINUOUS
10
0.336817
20
0.976327
11
0.337755
21
0.980079
0
LINE
8
BLACK
6
CONTINUOUS
10
0.337755
20
0.980079
11
0.3379
21
0.980275
0
LINE
8
BLACK
6
CONTINUOUS
10
0.3379
20
0.980275
11
0.337917
21
0.980519
0
LINE
8
BLACK
6
CONTINUOUS
10
0.337917
20
0.980519
11
0.338856
21
0.982395
0
LINE
8
BLACK
6
CONTINUOUS
10
0.338856
20
0.982395
11
0.339123
21
0.982627
0
LINE
8
BLACK
6
CONTINUOUS
10
0.339123
20
0.982627
11
0.339258
21
0.982954
0
LINE
8
BLACK
6
CONTINUOUS
10
0.339258
20
0.982954
11
0.340196
21
0.983892
0
LINE
8
BLACK
6
CONTINUOUS
10
0.340196
20
0.983892
11
0.340523
21
0.984028
0
LINE
8
BLACK
6
CONTINUOUS
10
0.340523
20
0.984028
11
0.340755
21
0.984295
0
LINE
8
BLACK
6
CONTINUOUS
10
0.340755
20
0.984295
11
0.342631
21
0.985233
0
LINE
8
BLACK
6
CONTINUOUS
10
0.342631
20
0.985233
11
0.34313
21
0.985268
0
LINE
8
BLACK
6
CONTINUOUS
10
0.34313
20
0.985268
11
0.343593
21
0.98546
0
LINE
8
BLACK
6
CONTINUOUS
10
0.343593
20
0.98546
11
0.345469
21
0.98546
0
LINE
8
BLACK
6
CONTINUOUS
10
0.345469
20
0.98546
11
0.345931
21
0.985268
0
LINE
8
BLACK
6
CONTINUOUS
10
0.34299
20
0.980605
11
0.342546
21
0.98016
0
LINE
8
BLACK
6
CONTINUOUS
10
0.342546
20
0.98016
11
0.341869
21
0.978807
0
LINE
8
BLACK
6
CONTINUOUS
10
0.341869
20
0.978807
11
0.341052
21
0.97554
0
LINE
8
BLACK
6
CONTINUOUS
10
0.341052
20
0.97554
11
0.341052
21
0.971379
0
LINE
8
BLACK
6
CONTINUOUS
10
0.341052
20
0.971379
11
0.341869
21
0.968113
0
LINE
8
BLACK
6
CONTINUOUS
10
0.341869
20
0.968113
11
0.342545
21
0.96676
0
LINE
8
BLACK
6
CONTINUOUS
10
0.342545
20
0.96676
11
0.34299
21
0.966315
0
LINE
8
BLACK
6
CONTINUOUS
10
0.34299
20
0.966315
11
0.3441
21
0.96576
0
LINE
8
BLACK
6
CONTINUOUS
10
0.3441
20
0.96576
11
0.344961
21
0.96576
0
LINE
8
BLACK
6
CONTINUOUS
10
0.344961
20
0.96576
11
0.346072
21
0.966315
0
LINE
8
BLACK
6
CONTINUOUS
10
0.346072
20
0.966315
11
0.346516
21
0.96676
0
LINE
8
BLACK
6
CONTINUOUS
10
0.346516
20
0.96676
11
0.347193
21
0.968113
0
LINE
8
BLACK
6
CONTINUOUS
10
0.347193
20
0.968113
11
0.348009
21
0.971379
0
LINE
8
BLACK
6
CONTINUOUS
10
0.348009
20
0.971379
11
0.348009
21
0.97554
0
LINE
8
BLACK
6
CONTINUOUS
10
0.348009
20
0.97554
11
0.347193
21
0.978807
0
LINE
8
BLACK
6
CONTINUOUS
10
0.347193
20
0.978807
11
0.346516
21
0.98016
0
LINE
8
BLACK
6
CONTINUOUS
10
0.346516
20
0.98016
11
0.346072
21
0.980605
0
LINE
8
BLACK
6
CONTINUOUS
10
0.346072
20
0.980605
11
0.344961
21
0.98116
0
LINE
8
BLACK
6
CONTINUOUS
10
0.344961
20
0.98116
11
0.3441
21
0.98116
0
LINE
8
BLACK
6
CONTINUOUS
10
0.3441
20
0.98116
11
0.34299
21
0.980605
0
LINE
8
BLACK
6
CONTINUOUS
10
0.414958
20
1.05372
11
0.417165
21
1.05095
0
LINE
8
BLACK
6
CONTINUOUS
10
0.417165
20
1.05095
11
0.417279
21
1.05045
0
LINE
8
BLACK
6
CONTINUOUS
10
0.417279
20
1.05045
11
0.455
21
1.05045
0
LINE
8
BLACK
6
CONTINUOUS
10
0.455
20
1.05045
11
0.45601
21
1.05027
0
LINE
8
BLACK
6
CONTINUOUS
10
0.45601
20
1.05027
11
0.457557
21
1.04898
0
LINE
8
BLACK
6
CONTINUOUS
10
0.457557
20
1.04898
11
0.457908
21
1.04699
0
LINE
8
BLACK
6
CONTINUOUS
10
0.457908
20
1.04699
11
0.456898
21
1.04524
0
LINE
8
BLACK
6
CONTINUOUS
10
0.456898
20
1.04524
11
0.455
21
1.04455
0
LINE
8
BLACK
6
CONTINUOUS
10
0.455
20
1.04455
11
0.417953
21
1.04455
0
LINE
8
BLACK
6
CONTINUOUS
10
0.417953
20
1.04455
11
0.417953
21
0.990453
0
LINE
8
BLACK
6
CONTINUOUS
10
0.417953
20
0.990453
11
0.455
21
0.990453
0
LINE
8
BLACK
6
CONTINUOUS
10
0.455
20
0.990453
11
0.45601
21
0.990275
0
LINE
8
BLACK
6
CONTINUOUS
10
0.45601
20
0.990275
11
0.457557
21
0.988976
0
LINE
8
BLACK
6
CONTINUOUS
10
0.457557
20
0.988976
11
0.457908
21
0.986987
0
LINE
8
BLACK
6
CONTINUOUS
10
0.457908
20
0.986987
11
0.456898
21
0.985238
0
LINE
8
BLACK
6
CONTINUOUS
10
0.456898
20
0.985238
11
0.455
21
0.984547
0
LINE
8
BLACK
6
CONTINUOUS
10
0.455
20
0.984547
11
0.415
21
0.984547
0
LINE
8
BLACK
6
CONTINUOUS
10
0.415
20
0.984547
11
0.414616
21
0.984615
0
LINE
8
BLACK
6
CONTINUOUS
10
0.414616
20
0.984615
11
0.414487
21
0.984592
0
LINE
8
BLACK
6
CONTINUOUS
10
0.414487
20
0.984592
11
0.414374
21
0.984658
0
LINE
8
BLACK
6
CONTINUOUS
10
0.414374
20
0.984658
11
0.41399
21
0.984725
0
LINE
8
BLACK
6
CONTINUOUS
10
0.41399
20
0.984725
11
0.413402
21
0.985218
0
LINE
8
BLACK
6
CONTINUOUS
10
0.413402
20
0.985218
11
0.412738
21
0.985602
0
LINE
8
BLACK
6
CONTINUOUS
10
0.412738
20
0.985602
11
0.412647
21
0.985852
0
LINE
8
BLACK
6
CONTINUOUS
10
0.412647
20
0.985852
11
0.412443
21
0.986024
0
LINE
8
BLACK
6
CONTINUOUS
10
0.412443
20
0.986024
11
0.41231
21
0.986779
0
LINE
8
BLACK
6
CONTINUOUS
10
0.41231
20
0.986779
11
0.412047
21
0.9875
0
LINE
8
BLACK
6
CONTINUOUS
10
0.412047
20
0.9875
11
0.412047
21
1.03988
0
LINE
8
BLACK
6
CONTINUOUS
10
0.412047
20
1.03988
11
0.41177
21
1.03975
0
LINE
8
BLACK
6
CONTINUOUS
10
0.41177
20
1.03975
11
0.40823
21
1.03975
0
LINE
8
BLACK
6
CONTINUOUS
10
0.40823
20
1.03975
11
0.405042
21
1.04128
0
LINE
8
BLACK
6
CONTINUOUS
10
0.405042
20
1.04128
11
0.402835
21
1.04405
0
LINE
8
BLACK
6
CONTINUOUS
10
0.402835
20
1.04405
11
0.402047
21
1.0475
0
LINE
8
BLACK
6
CONTINUOUS
10
0.402047
20
1.0475
11
0.402835
21
1.05095
0
LINE
8
BLACK
6
CONTINUOUS
10
0.402835
20
1.05095
11
0.405042
21
1.05372
0
LINE
8
BLACK
6
CONTINUOUS
10
0.405042
20
1.05372
11
0.40823
21
1.05525
0
LINE
8
BLACK
6
CONTINUOUS
10
0.40823
20
1.05525
11
0.41177
21
1.05525
0
LINE
8
BLACK
6
CONTINUOUS
10
0.41177
20
1.05525
11
0.414958
21
1.05372
0
LINE
8
BLACK
6
CONTINUOUS
10
0.408433
20
1.04593
11
0.41
21
1.04528
0
LINE
8
BLACK
6
CONTINUOUS
10
0.41
20
1.04528
11
0.411567
21
1.04593
0
LINE
8
BLACK
6
CONTINUOUS
10
0.411567
20
1.04593
11
0.412047
21
1.04709
0
LINE
8
BLACK
6
CONTINUOUS
10
0.412047
20
1.04709
11
0.412047
21
1.0475
0
LINE
8
BLACK
6
CONTINUOUS
10
0.412047
20
1.0475
11
0.412098
21
1.04779
0
LINE
8
BLACK
6
CONTINUOUS
10
0.412098
20
1.04779
11
0.411567
21
1.04907
0
LINE
8
BLACK
6
CONTINUOUS
10
0.411567
20
1.04907
11
0.41
21
1.04972
0
LINE
8
BLACK
6
CONTINUOUS
10
0.41
20
1.04972
11
0.408433
21
1.04907
0
LINE
8
BLACK
6
CONTINUOUS
10
0.408433
20
1.04907
11
0.407784
21
1.0475
0
LINE
8
BLACK
6
CONTINUOUS
10
0.407784
20
1.0475
11
0.408433
21
1.04593
0
LINE
8
BLACK
6
CONTINUOUS
10
0.535384
20
1.05039
11
0.535513
21
1.05041
0
LINE
8
BLACK
6
CONTINUOUS
10
0.535513
20
1.05041
11
0.535626
21
1.05034
0
LINE
8
BLACK
6
CONTINUOUS
10
0.535626
20
1.05034
11
0.53601
21
1.05027
0
LINE
8
BLACK
6
CONTINUOUS
10
0.53601
20
1.05027
11
0.536598
21
1.04978
0
LINE
8
BLACK
6
CONTINUOUS
10
0.536598
20
1.04978
11
0.537262
21
1.0494
0
LINE
8
BLACK
6
CONTINUOUS
10
0.537262
20
1.0494
11
0.537353
21
1.04915
0
LINE
8
BLACK
6
CONTINUOUS
10
0.537353
20
1.04915
11
0.537557
21
1.04898
0
LINE
8
BLACK
6
CONTINUOUS
10
0.537557
20
1.04898
11
0.53769
21
1.04822
0
LINE
8
BLACK
6
CONTINUOUS
10
0.53769
20
1.04822
11
0.537953
21
1.0475
0
LINE
8
BLACK
6
CONTINUOUS
10
0.537953
20
1.0475
11
0.537953
21
0.9875
0
LINE
8
BLACK
6
CONTINUOUS
10
0.537953
20
0.9875
11
0.537885
21
0.987116
0
LINE
8
BLACK
6
CONTINUOUS
10
0.537885
20
0.987116
11
0.537908
21
0.986987
0
LINE
8
BLACK
6
CONTINUOUS
10
0.537908
20
0.986987
11
0.537842
21
0.986874
0
LINE
8
BLACK
6
CONTINUOUS
10
0.537842
20
0.986874
11
0.537775
21
0.98649
0
LINE
8
BLACK
6
CONTINUOUS
10
0.537775
20
0.98649
11
0.537282
21
0.985902
0
LINE
8
BLACK
6
CONTINUOUS
10
0.537282
20
0.985902
11
0.536898
21
0.985238
0
LINE
8
BLACK
6
CONTINUOUS
10
0.536898
20
0.985238
11
0.536648
21
0.985147
0
LINE
8
BLACK
6
CONTINUOUS
10
0.536648
20
0.985147
11
0.536476
21
0.984943
0
LINE
8
BLACK
6
CONTINUOUS
10
0.536476
20
0.984943
11
0.535721
21
0.98481
0
LINE
8
BLACK
6
CONTINUOUS
10
0.535721
20
0.98481
11
0.535
21
0.984547
0
LINE
8
BLACK
6
CONTINUOUS
10
0.535
20
0.984547
11
0.495
21
0.984547
0
LINE
8
BLACK
6
CONTINUOUS
10
0.495
20
0.984547
11
0.49399
21
0.984725
0
LINE
8
BLACK
6
CONTINUOUS
10
0.49399
20
0.984725
11
0.492443
21
0.986024
0
LINE
8
BLACK
6
CONTINUOUS
10
0.492443
20
0.986024
11
0.492092
21
0.988013
0
LINE
8
BLACK
6
CONTINUOUS
10
0.492092
20
0.988013
11
0.493102
21
0.989762
0
LINE
8
BLACK
6
CONTINUOUS
10
0.493102
20
0.989762
11
0.495
21
0.990453
0
LINE
8
BLACK
6
CONTINUOUS
10
0.495
20
0.990453
11
0.532047
21
0.990453
0
LINE
8
BLACK
6
CONTINUOUS
10
0.532047
20
0.990453
11
0.532047
21
1.04455
0
LINE
8
BLACK
6
CONTINUOUS
10
0.532047
20
1.04455
11
0.499077
21
1.04455
0
LINE
8
BLACK
6
CONTINUOUS
10
0.499077
20
1.04455
11
0.499144
21
1.0445
0
LINE
8
BLACK
6
CONTINUOUS
10
0.499144
20
1.0445
11
0.500902
21
1.04187
0
LINE
8
BLACK
6
CONTINUOUS
10
0.500902
20
1.04187
11
0.502381
21
1.04039
0
LINE
8
BLACK
6
CONTINUOUS
10
0.502381
20
1.04039
11
0.503945
21
1.0396
0
LINE
8
BLACK
6
CONTINUOUS
10
0.503945
20
1.0396
11
0.505023
21
1.03836
0
LINE
8
BLACK
6
CONTINUOUS
10
0.505023
20
1.03836
11
0.504906
21
1.03672
0
LINE
8
BLACK
6
CONTINUOUS
10
0.504906
20
1.03672
11
0.503663
21
1.03564
0
LINE
8
BLACK
6
CONTINUOUS
10
0.503663
20
1.03564
11
0.502022
21
1.03576
0
LINE
8
BLACK
6
CONTINUOUS
10
0.502022
20
1.03576
11
0.500146
21
1.0367
0
LINE
8
BLACK
6
CONTINUOUS
10
0.500146
20
1.0367
11
0.499914
21
1.03696
0
LINE
8
BLACK
6
CONTINUOUS
10
0.499914
20
1.03696
11
0.499587
21
1.0371
0
LINE
8
BLACK
6
CONTINUOUS
10
0.499587
20
1.0371
11
0.499505
21
1.03718
0
LINE
8
BLACK
6
CONTINUOUS
10
0.499505
20
1.03718
11
0.499505
21
1.02576
0
LINE
8
BLACK
6
CONTINUOUS
10
0.499505
20
1.02576
11
0.502983
21
1.02576
0
LINE
8
BLACK
6
CONTINUOUS
10
0.502983
20
1.02576
11
0.504504
21
1.02513
0
LINE
8
BLACK
6
CONTINUOUS
10
0.504504
20
1.02513
11
0.505133
21
1.02361
0
LINE
8
BLACK
6
CONTINUOUS
10
0.505133
20
1.02361
11
0.504504
21
1.02209
0
LINE
8
BLACK
6
CONTINUOUS
10
0.504504
20
1.02209
11
0.502983
21
1.02146
0
LINE
8
BLACK
6
CONTINUOUS
10
0.502983
20
1.02146
11
0.497355
21
1.02146
0
LINE
8
BLACK
6
CONTINUOUS
10
0.497355
20
1.02146
11
0.491726
21
1.02146
0
LINE
8
BLACK
6
CONTINUOUS
10
0.491726
20
1.02146
11
0.490206
21
1.02209
0
LINE
8
BLACK
6
CONTINUOUS
10
0.490206
20
1.02209
11
0.489576
21
1.02361
0
LINE
8
BLACK
6
CONTINUOUS
10
0.489576
20
1.02361
11
0.490206
21
1.02513
0
LINE
8
BLACK
6
CONTINUOUS
10
0.490206
20
1.02513
11
0.491726
21
1.02576
0
LINE
8
BLACK
6
CONTINUOUS
10
0.491726
20
1.02576
11
0.495205
21
1.02576
0
LINE
8
BLACK
6
CONTINUOUS
10
0.495205
20
1.02576
11
0.495205
21
1.04331
0
LINE
8
BLACK
6
CONTINUOUS
10
0.495205
20
1.04331
11
0.495289
21
1.04351
0
LINE
8
BLACK
6
CONTINUOUS
10
0.495289
20
1.04351
11
0.495246
21
1.04373
0
LINE
8
BLACK
6
CONTINUOUS
10
0.495246
20
1.04373
11
0.495595
21
1.04425
0
LINE
8
BLACK
6
CONTINUOUS
10
0.495595
20
1.04425
11
0.495717
21
1.04455
0
LINE
8
BLACK
6
CONTINUOUS
10
0.495717
20
1.04455
11
0.495
21
1.04455
0
LINE
8
BLACK
6
CONTINUOUS
10
0.495
20
1.04455
11
0.49399
21
1.04473
0
LINE
8
BLACK
6
CONTINUOUS
10
0.49399
20
1.04473
11
0.492443
21
1.04602
0
LINE
8
BLACK
6
CONTINUOUS
10
0.492443
20
1.04602
11
0.492092
21
1.04801
0
LINE
8
BLACK
6
CONTINUOUS
10
0.492092
20
1.04801
11
0.493102
21
1.04976
0
LINE
8
BLACK
6
CONTINUOUS
10
0.493102
20
1.04976
11
0.495
21
1.05045
0
LINE
8
BLACK
6
CONTINUOUS
10
0.495
20
1.05045
11
0.535
21
1.05045
0
LINE
8
BLACK
6
CONTINUOUS
10
0.535
20
1.05045
11
0.535384
21
1.05039
0
LINE
8
BLACK
6
CONTINUOUS
10
0.468427
20
1.01777
11
0.468926
21
1.01773
0
LINE
8
BLACK
6
CONTINUOUS
10
0.468926
20
1.01773
11
0.470802
21
1.01679
0
LINE
8
BLACK
6
CONTINUOUS
10
0.470802
20
1.01679
11
0.471034
21
1.01653
0
LINE
8
BLACK
6
CONTINUOUS
10
0.471034
20
1.01653
11
0.471361
21
1.01639
0
LINE
8
BLACK
6
CONTINUOUS
10
0.471361
20
1.01639
11
0.472299
21
1.01545
0
LINE
8
BLACK
6
CONTINUOUS
10
0.472299
20
1.01545
11
0.472929
21
1.01393
0
LINE
8
BLACK
6
CONTINUOUS
10
0.472929
20
1.01393
11
0.472299
21
1.01241
0
LINE
8
BLACK
6
CONTINUOUS
10
0.472299
20
1.01241
11
0.470779
21
1.01178
0
LINE
8
BLACK
6
CONTINUOUS
10
0.470779
20
1.01178
11
0.469258
21
1.01241
0
LINE
8
BLACK
6
CONTINUOUS
10
0.469258
20
1.01241
11
0.468567
21
1.0131
0
LINE
8
BLACK
6
CONTINUOUS
10
0.468567
20
1.0131
11
0.467457
21
1.01366
0
LINE
8
BLACK
6
CONTINUOUS
10
0.467457
20
1.01366
11
0.463781
21
1.01366
0
LINE
8
BLACK
6
CONTINUOUS
10
0.463781
20
1.01366
11
0.462671
21
1.0131
0
LINE
8
BLACK
6
CONTINUOUS
10
0.462671
20
1.0131
11
0.462226
21
1.01266
0
LINE
8
BLACK
6
CONTINUOUS
10
0.462226
20
1.01266
11
0.461671
21
1.01155
0
LINE
8
BLACK
6
CONTINUOUS
10
0.461671
20
1.01155
11
0.461671
21
1.01053
0
LINE
8
BLACK
6
CONTINUOUS
10
0.461671
20
1.01053
11
0.462339
21
1.00853
0
LINE
8
BLACK
6
CONTINUOUS
10
0.462339
20
1.00853
11
0.473237
21
0.99763
0
LINE
8
BLACK
6
CONTINUOUS
10
0.473237
20
0.99763
11
0.473867
21
0.99611
0
LINE
8
BLACK
6
CONTINUOUS
10
0.473867
20
0.99611
11
0.473237
21
0.99459
0
LINE
8
BLACK
6
CONTINUOUS
10
0.473237
20
0.99459
11
0.471717
21
0.99396
0
LINE
8
BLACK
6
CONTINUOUS
10
0.471717
20
0.99396
11
0.459521
21
0.99396
0
LINE
8
BLACK
6
CONTINUOUS
10
0.459521
20
0.99396
11
0.458001
21
0.99459
0
LINE
8
BLACK
6
CONTINUOUS
10
0.458001
20
0.99459
11
0.457371
21
0.99611
0
LINE
8
BLACK
6
CONTINUOUS
10
0.457371
20
0.99611
11
0.458001
21
0.99763
0
LINE
8
BLACK
6
CONTINUOUS
10
0.458001
20
0.99763
11
0.459521
21
0.99826
0
LINE
8
BLACK
6
CONTINUOUS
10
0.459521
20
0.99826
11
0.466526
21
0.99826
0
LINE
8
BLACK
6
CONTINUOUS
10
0.466526
20
0.99826
11
0.458939
21
1.00585
0
LINE
8
BLACK
6
CONTINUOUS
10
0.458939
20
1.00585
11
0.458748
21
1.00631
0
LINE
8
BLACK
6
CONTINUOUS
10
0.458748
20
1.00631
11
0.45842
21
1.00669
0
LINE
8
BLACK
6
CONTINUOUS
10
0.45842
20
1.00669
11
0.457482
21
1.0095
0
LINE
8
BLACK
6
CONTINUOUS
10
0.457482
20
1.0095
11
0.457507
21
1.00985
0
LINE
8
BLACK
6
CONTINUOUS
10
0.457507
20
1.00985
11
0.457371
21
1.01018
0
LINE
8
BLACK
6
CONTINUOUS
10
0.457371
20
1.01018
11
0.457371
21
1.01206
0
LINE
8
BLACK
6
CONTINUOUS
10
0.457371
20
1.01206
11
0.457563
21
1.01252
0
LINE
8
BLACK
6
CONTINUOUS
10
0.457563
20
1.01252
11
0.457598
21
1.01302
0
LINE
8
BLACK
6
CONTINUOUS
10
0.457598
20
1.01302
11
0.458536
21
1.0149
0
LINE
8
BLACK
6
CONTINUOUS
10
0.458536
20
1.0149
11
0.458804
21
1.01513
0
LINE
8
BLACK
6
CONTINUOUS
10
0.458804
20
1.01513
11
0.458939
21
1.01545
0
LINE
8
BLACK
6
CONTINUOUS
10
0.458939
20
1.01545
11
0.459877
21
1.01639
0
LINE
8
BLACK
6
CONTINUOUS
10
0.459877
20
1.01639
11
0.460204
21
1.01653
0
LINE
8
BLACK
6
CONTINUOUS
10
0.460204
20
1.01653
11
0.460436
21
1.01679
0
LINE
8
BLACK
6
CONTINUOUS
10
0.460436
20
1.01679
11
0.462312
21
1.01773
0
LINE
8
BLACK
6
CONTINUOUS
10
0.462312
20
1.01773
11
0.462811
21
1.01777
0
LINE
8
BLACK
6
CONTINUOUS
10
0.462811
20
1.01777
11
0.463274
21
1.01796
0
LINE
8
BLACK
6
CONTINUOUS
10
0.463274
20
1.01796
11
0.467964
21
1.01796
0
LINE
8
BLACK
6
CONTINUOUS
10
0.467964
20
1.01796
11
0.468427
21
1.01777
0
LINE
8
BLACK
6
CONTINUOUS
10
0.491061
20
1.01733
11
0.49169
21
1.01581
0
LINE
8
BLACK
6
CONTINUOUS
10
0.49169
20
1.01581
11
0.49169
21
0.99611
0
LINE
8
BLACK
6
CONTINUOUS
10
0.49169
20
0.99611
11
0.491061
21
0.99459
0
LINE
8
BLACK
6
CONTINUOUS
10
0.491061
20
0.99459
11
0.48954
21
0.99396
0
LINE
8
BLACK
6
CONTINUOUS
10
0.48954
20
0.99396
11
0.48802
21
0.99459
0
LINE
8
BLACK
6
CONTINUOUS
10
0.48802
20
0.99459
11
0.48739
21
0.99611
0
LINE
8
BLACK
6
CONTINUOUS
10
0.48739
20
0.99611
11
0.48739
21
1.00334
0
LINE
8
BLACK
6
CONTINUOUS
10
0.48739
20
1.00334
11
0.485969
21
1.00334
0
LINE
8
BLACK
6
CONTINUOUS
10
0.485969
20
1.00334
11
0.480045
21
0.994877
0
LINE
8
BLACK
6
CONTINUOUS
10
0.480045
20
0.994877
11
0.478657
21
0.993993
0
LINE
8
BLACK
6
CONTINUOUS
10
0.478657
20
0.993993
11
0.47705
21
0.994349
0
LINE
8
BLACK
6
CONTINUOUS
10
0.47705
20
0.994349
11
0.476166
21
0.995736
0
LINE
8
BLACK
6
CONTINUOUS
10
0.476166
20
0.995736
11
0.476522
21
0.997343
0
LINE
8
BLACK
6
CONTINUOUS
10
0.476522
20
0.997343
11
0.48093
21
1.00364
0
LINE
8
BLACK
6
CONTINUOUS
10
0.48093
20
1.00364
11
0.479198
21
1.00451
0
LINE
8
BLACK
6
CONTINUOUS
10
0.479198
20
1.00451
11
0.478966
21
1.00477
0
LINE
8
BLACK
6
CONTINUOUS
10
0.478966
20
1.00477
11
0.478639
21
1.00491
0
LINE
8
BLACK
6
CONTINUOUS
10
0.478639
20
1.00491
11
0.477701
21
1.00585
0
LINE
8
BLACK
6
CONTINUOUS
10
0.477701
20
1.00585
11
0.477566
21
1.00617
0
LINE
8
BLACK
6
CONTINUOUS
10
0.477566
20
1.00617
11
0.477298
21
1.00641
0
LINE
8
BLACK
6
CONTINUOUS
10
0.477298
20
1.00641
11
0.47636
21
1.00828
0
LINE
8
BLACK
6
CONTINUOUS
10
0.47636
20
1.00828
11
0.476325
21
1.00878
0
LINE
8
BLACK
6
CONTINUOUS
10
0.476325
20
1.00878
11
0.476133
21
1.00924
0
LINE
8
BLACK
6
CONTINUOUS
10
0.476133
20
1.00924
11
0.476133
21
1.01206
0
LINE
8
BLACK
6
CONTINUOUS
10
0.476133
20
1.01206
11
0.476325
21
1.01252
0
LINE
8
BLACK
6
CONTINUOUS
10
0.476325
20
1.01252
11
0.47636
21
1.01302
0
LINE
8
BLACK
6
CONTINUOUS
10
0.47636
20
1.01302
11
0.477298
21
1.0149
0
LINE
8
BLACK
6
CONTINUOUS
10
0.477298
20
1.0149
11
0.477566
21
1.01513
0
LINE
8
BLACK
6
CONTINUOUS
10
0.477566
20
1.01513
11
0.477701
21
1.01545
0
LINE
8
BLACK
6
CONTINUOUS
10
0.477701
20
1.01545
11
0.478639
21
1.01639
0
LINE
8
BLACK
6
CONTINUOUS
10
0.478639
20
1.01639
11
0.478966
21
1.01653
0
LINE
8
BLACK
6
CONTINUOUS
10
0.478966
20
1.01653
11
0.479198
21
1.01679
0
LINE
8
BLACK
6
CONTINUOUS
10
0.479198
20
1.01679
11
0.481074
21
1.01773
0
LINE
8
BLACK
6
CONTINUOUS
10
0.481074
20
1.01773
11
0.481573
21
1.01777
0
LINE
8
BLACK
6
CONTINUOUS
10
0.481573
20
1.01777
11
0.482036
21
1.01796
0
LINE
8
BLACK
6
CONTINUOUS
10
0.482036
20
1.01796
11
0.48954
21
1.01796
0
LINE
8
BLACK
6
CONTINUOUS
10
0.48954
20
1.01796
11
0.491061
21
1.01733
0
LINE
8
BLACK
6
CONTINUOUS
10
0.481433
20
1.0131
11
0.480988
21
1.01266
0
LINE
8
BLACK
6
CONTINUOUS
10
0.480988
20
1.01266
11
0.480433
21
1.01155
0
LINE
8
BLACK
6
CONTINUOUS
10
0.480433
20
1.01155
11
0.480433
21
1.00975
0
LINE
8
BLACK
6
CONTINUOUS
10
0.480433
20
1.00975
11
0.480988
21
1.00864
0
LINE
8
BLACK
6
CONTINUOUS
10
0.480988
20
1.00864
11
0.481433
21
1.0082
0
LINE
8
BLACK
6
CONTINUOUS
10
0.481433
20
1.0082
11
0.482543
21
1.00764
0
LINE
8
BLACK
6
CONTINUOUS
10
0.482543
20
1.00764
11
0.48739
21
1.00764
0
LINE
8
BLACK
6
CONTINUOUS
10
0.48739
20
1.00764
11
0.48739
21
1.01366
0
LINE
8
BLACK
6
CONTINUOUS
10
0.48739
20
1.01366
11
0.482543
21
1.01366
0
LINE
8
BLACK
6
CONTINUOUS
10
0.482543
20
1.01366
11
0.481433
21
1.0131
0
LINE
8
BLACK
6
CONTINUOUS
10
0.232438
20
1.03317
11
0.233009
21
1.03179
0
LINE
8
BLACK
6
CONTINUOUS
10
0.233009
20
1.03179
11
0.233009
21
1.01209
0
LINE
8
BLACK
6
CONTINUOUS
10
0.233009
20
1.01209
11
0.232438
21
1.01071
0
LINE
8
BLACK
6
CONTINUOUS
10
0.232438
20
1.01071
11
0.231059
21
1.01014
0
LINE
8
BLACK
6
CONTINUOUS
10
0.231059
20
1.01014
11
0.229681
21
1.01071
0
LINE
8
BLACK
6
CONTINUOUS
10
0.229681
20
1.01071
11
0.229109
21
1.01209
0
LINE
8
BLACK
6
CONTINUOUS
10
0.229109
20
1.01209
11
0.229109
21
1.01972
0
LINE
8
BLACK
6
CONTINUOUS
10
0.229109
20
1.01972
11
0.228456
21
1.02038
0
LINE
8
BLACK
6
CONTINUOUS
10
0.228456
20
1.02038
11
0.221362
21
1.01092
0
LINE
8
BLACK
6
CONTINUOUS
10
0.221362
20
1.01092
11
0.220078
21
1.01016
0
LINE
8
BLACK
6
CONTINUOUS
10
0.220078
20
1.01016
11
0.218632
21
1.01053
0
LINE
8
BLACK
6
CONTINUOUS
10
0.218632
20
1.01053
11
0.217872
21
1.01181
0
LINE
8
BLACK
6
CONTINUOUS
10
0.217872
20
1.01181
11
0.218242
21
1.01326
0
LINE
8
BLACK
6
CONTINUOUS
10
0.218242
20
1.01326
11
0.22567
21
1.02316
0
LINE
8
BLACK
6
CONTINUOUS
10
0.22567
20
1.02316
11
0.218424
21
1.03041
0
LINE
8
BLACK
6
CONTINUOUS
10
0.218424
20
1.03041
11
0.217852
21
1.03179
0
LINE
8
BLACK
6
CONTINUOUS
10
0.217852
20
1.03179
11
0.218424
21
1.03317
0
LINE
8
BLACK
6
CONTINUOUS
10
0.218424
20
1.03317
11
0.219802
21
1.03374
0
LINE
8
BLACK
6
CONTINUOUS
10
0.219802
20
1.03374
11
0.221181
21
1.03317
0
LINE
8
BLACK
6
CONTINUOUS
10
0.221181
20
1.03317
11
0.229109
21
1.02524
0
LINE
8
BLACK
6
CONTINUOUS
10
0.229109
20
1.02524
11
0.229109
21
1.03179
0
LINE
8
BLACK
6
CONTINUOUS
10
0.229109
20
1.03179
11
0.229681
21
1.03317
0
LINE
8
BLACK
6
CONTINUOUS
10
0.229681
20
1.03317
11
0.231059
21
1.03374
0
LINE
8
BLACK
6
CONTINUOUS
10
0.231059
20
1.03374
11
0.232438
21
1.03317
0
LINE
8
BLACK
6
CONTINUOUS
10
0.0848267
20
1.03354
11
0.084972
21
1.03353
0
LINE
8
BLACK
6
CONTINUOUS
10
0.084972
20
1.03353
11
0.085377
21
1.03307
0
LINE
8
BLACK
6
CONTINUOUS
10
0.085377
20
1.03307
11
0.0858441
21
1.03266
0
LINE
8
BLACK
6
CONTINUOUS
10
0.0858441
20
1.03266
11
0.0858544
21
1.03252
0
LINE
8
BLACK
6
CONTINUOUS
10
0.0858544
20
1.03252
11
0.0859499
21
1.03241
0
LINE
8
BLACK
6
CONTINUOUS
10
0.0859499
20
1.03241
11
0.0925165
21
1.01271
0
LINE
8
BLACK
6
CONTINUOUS
10
0.0925165
20
1.01271
11
0.0924107
21
1.01122
0
LINE
8
BLACK
6
CONTINUOUS
10
0.0924107
20
1.01122
11
0.0912833
21
1.01024
0
LINE
8
BLACK
6
CONTINUOUS
10
0.0912833
20
1.01024
11
0.0897946
21
1.01035
0
LINE
8
BLACK
6
CONTINUOUS
10
0.0897946
20
1.01035
11
0.0888167
21
1.01147
0
LINE
8
BLACK
6
CONTINUOUS
10
0.0888167
20
1.01147
11
0.087385
21
1.01577
0
LINE
8
BLACK
6
CONTINUOUS
10
0.087385
20
1.01577
11
0.080815
21
1.01577
0
LINE
8
BLACK
6
CONTINUOUS
10
0.080815
20
1.01577
11
0.0793832
21
1.01147
0
LINE
8
BLACK
6
CONTINUOUS
10
0.0793832
20
1.01147
11
0.0784054
21
1.01035
0
LINE
8
BLACK
6
CONTINUOUS
10
0.0784054
20
1.01035
11
0.0769167
21
1.01024
0
LINE
8
BLACK
6
CONTINUOUS
10
0.0769167
20
1.01024
11
0.0757892
21
1.01122
0
LINE
8
BLACK
6
CONTINUOUS
10
0.0757892
20
1.01122
11
0.0756834
21
1.01271
0
LINE
8
BLACK
6
CONTINUOUS
10
0.0756834
20
1.01271
11
0.08225
21
1.03241
0
LINE
8
BLACK
6
CONTINUOUS
10
0.08225
20
1.03241
11
0.0823455
21
1.03252
0
LINE
8
BLACK
6
CONTINUOUS
10
0.0823455
20
1.03252
11
0.0823558
21
1.03266
0
LINE
8
BLACK
6
CONTINUOUS
10
0.0823558
20
1.03266
11
0.0828229
21
1.03307
0
LINE
8
BLACK
6
CONTINUOUS
10
0.0828229
20
1.03307
11
0.0832279
21
1.03353
0
LINE
8
BLACK
6
CONTINUOUS
10
0.0832279
20
1.03353
11
0.0833732
21
1.03354
0
LINE
8
BLACK
6
CONTINUOUS
10
0.0833732
20
1.03354
11
0.0834833
21
1.03364
0
LINE
8
BLACK
6
CONTINUOUS
10
0.0834833
20
1.03364
11
0.0840998
21
1.0336
0
LINE
8
BLACK
6
CONTINUOUS
10
0.0840998
20
1.0336
11
0.0847166
21
1.03364
0
LINE
8
BLACK
6
CONTINUOUS
10
0.0847166
20
1.03364
11
0.0848267
21
1.03354
0
LINE
8
BLACK
6
CONTINUOUS
10
0.082115
20
1.01967
11
0.086085
21
1.01967
0
LINE
8
BLACK
6
CONTINUOUS
10
0.086085
20
1.01967
11
0.0840999
21
1.02562
0
LINE
8
BLACK
6
CONTINUOUS
10
0.0840999
20
1.02562
11
0.082115
21
1.01967
0
LINE
8
BLACK
6
CONTINUOUS
10
0.466042
20
1.04483
11
0.466671
21
1.04331
0
LINE
8
BLACK
6
CONTINUOUS
10
0.466671
20
1.04331
11
0.466671
21
1.02361
0
LINE
8
BLACK
6
CONTINUOUS
10
0.466671
20
1.02361
11
0.466042
21
1.02209
0
LINE
8
BLACK
6
CONTINUOUS
10
0.466042
20
1.02209
11
0.464521
21
1.02146
0
LINE
8
BLACK
6
CONTINUOUS
10
0.464521
20
1.02146
11
0.463001
21
1.02209
0
LINE
8
BLACK
6
CONTINUOUS
10
0.463001
20
1.02209
11
0.462371
21
1.02361
0
LINE
8
BLACK
6
CONTINUOUS
10
0.462371
20
1.02361
11
0.462371
21
1.02717
0
LINE
8
BLACK
6
CONTINUOUS
10
0.462371
20
1.02717
11
0.458737
21
1.02232
0
LINE
8
BLACK
6
CONTINUOUS
10
0.458737
20
1.02232
11
0.457321
21
1.02148
0
LINE
8
BLACK
6
CONTINUOUS
10
0.457321
20
1.02148
11
0.455727
21
1.02189
0
LINE
8
BLACK
6
CONTINUOUS
10
0.455727
20
1.02189
11
0.454888
21
1.02331
0
LINE
8
BLACK
6
CONTINUOUS
10
0.454888
20
1.02331
11
0.455297
21
1.0249
0
LINE
8
BLACK
6
CONTINUOUS
10
0.455297
20
1.0249
11
0.459806
21
1.03091
0
LINE
8
BLACK
6
CONTINUOUS
10
0.459806
20
1.03091
11
0.455496
21
1.03522
0
LINE
8
BLACK
6
CONTINUOUS
10
0.455496
20
1.03522
11
0.454867
21
1.03674
0
LINE
8
BLACK
6
CONTINUOUS
10
0.454867
20
1.03674
11
0.455496
21
1.03826
0
LINE
8
BLACK
6
CONTINUOUS
10
0.455496
20
1.03826
11
0.457017
21
1.03889
0
LINE
8
BLACK
6
CONTINUOUS
10
0.457017
20
1.03889
11
0.458537
21
1.03826
0
LINE
8
BLACK
6
CONTINUOUS
10
0.458537
20
1.03826
11
0.462371
21
1.03443
0
LINE
8
BLACK
6
CONTINUOUS
10
0.462371
20
1.03443
11
0.462371
21
1.04331
0
LINE
8
BLACK
6
CONTINUOUS
10
0.462371
20
1.04331
11
0.463001
21
1.04483
0
LINE
8
BLACK
6
CONTINUOUS
10
0.463001
20
1.04483
11
0.464521
21
1.04546
0
LINE
8
BLACK
6
CONTINUOUS
10
0.464521
20
1.04546
11
0.466042
21
1.04483
0
LINE
8
BLACK
6
CONTINUOUS
10
0.479993
20
1.04527
11
0.480492
21
1.04523
0
LINE
8
BLACK
6
CONTINUOUS
10
0.480492
20
1.04523
11
0.482369
21
1.04429
0
LINE
8
BLACK
6
CONTINUOUS
10
0.482369
20
1.04429
11
0.4826
21
1.04403
0
LINE
8
BLACK
6
CONTINUOUS
10
0.4826
20
1.04403
11
0.482927
21
1.04389
0
LINE
8
BLACK
6
CONTINUOUS
10
0.482927
20
1.04389
11
0.483865
21
1.04295
0
LINE
8
BLACK
6
CONTINUOUS
10
0.483865
20
1.04295
11
0.484001
21
1.04263
0
LINE
8
BLACK
6
CONTINUOUS
10
0.484001
20
1.04263
11
0.484268
21
1.0424
0
LINE
8
BLACK
6
CONTINUOUS
10
0.484268
20
1.0424
11
0.485206
21
1.04052
0
LINE
8
BLACK
6
CONTINUOUS
10
0.485206
20
1.04052
11
0.485224
21
1.04028
0
LINE
8
BLACK
6
CONTINUOUS
10
0.485224
20
1.04028
11
0.485369
21
1.04008
0
LINE
8
BLACK
6
CONTINUOUS
10
0.485369
20
1.04008
11
0.486307
21
1.03633
0
LINE
8
BLACK
6
CONTINUOUS
10
0.486307
20
1.03633
11
0.486267
21
1.03606
0
LINE
8
BLACK
6
CONTINUOUS
10
0.486267
20
1.03606
11
0.486371
21
1.03581
0
LINE
8
BLACK
6
CONTINUOUS
10
0.486371
20
1.03581
11
0.486371
21
1.03111
0
LINE
8
BLACK
6
CONTINUOUS
10
0.486371
20
1.03111
11
0.486267
21
1.03086
0
LINE
8
BLACK
6
CONTINUOUS
10
0.486267
20
1.03086
11
0.486307
21
1.03059
0
LINE
8
BLACK
6
CONTINUOUS
10
0.486307
20
1.03059
11
0.485369
21
1.02684
0
LINE
8
BLACK
6
CONTINUOUS
10
0.485369
20
1.02684
11
0.485224
21
1.02664
0
LINE
8
BLACK
6
CONTINUOUS
10
0.485224
20
1.02664
11
0.485206
21
1.0264
0
LINE
8
BLACK
6
CONTINUOUS
10
0.485206
20
1.0264
11
0.484268
21
1.02452
0
LINE
8
BLACK
6
CONTINUOUS
10
0.484268
20
1.02452
11
0.484001
21
1.02429
0
LINE
8
BLACK
6
CONTINUOUS
10
0.484001
20
1.02429
11
0.483865
21
1.02397
0
LINE
8
BLACK
6
CONTINUOUS
10
0.483865
20
1.02397
11
0.482927
21
1.02303
0
LINE
8
BLACK
6
CONTINUOUS
10
0.482927
20
1.02303
11
0.4826
21
1.02289
0
LINE
8
BLACK
6
CONTINUOUS
10
0.4826
20
1.02289
11
0.482369
21
1.02263
0
LINE
8
BLACK
6
CONTINUOUS
10
0.482369
20
1.02263
11
0.480492
21
1.02169
0
LINE
8
BLACK
6
CONTINUOUS
10
0.480492
20
1.02169
11
0.479993
21
1.02165
0
LINE
8
BLACK
6
CONTINUOUS
10
0.479993
20
1.02165
11
0.479531
21
1.02146
0
LINE
8
BLACK
6
CONTINUOUS
10
0.479531
20
1.02146
11
0.477655
21
1.02146
0
LINE
8
BLACK
6
CONTINUOUS
10
0.477655
20
1.02146
11
0.477192
21
1.02165
0
LINE
8
BLACK
6
CONTINUOUS
10
0.477192
20
1.02165
11
0.476693
21
1.02169
0
LINE
8
BLACK
6
CONTINUOUS
10
0.476693
20
1.02169
11
0.474817
21
1.02263
0
LINE
8
BLACK
6
CONTINUOUS
10
0.474817
20
1.02263
11
0.474585
21
1.02289
0
LINE
8
BLACK
6
CONTINUOUS
10
0.474585
20
1.02289
11
0.474258
21
1.02303
0
LINE
8
BLACK
6
CONTINUOUS
10
0.474258
20
1.02303
11
0.47332
21
1.02397
0
LINE
8
BLACK
6
CONTINUOUS
10
0.47332
20
1.02397
11
0.473185
21
1.02429
0
LINE
8
BLACK
6
CONTINUOUS
10
0.473185
20
1.02429
11
0.472917
21
1.02452
0
LINE
8
BLACK
6
CONTINUOUS
10
0.472917
20
1.02452
11
0.471979
21
1.0264
0
LINE
8
BLACK
6
CONTINUOUS
10
0.471979
20
1.0264
11
0.471962
21
1.02664
0
LINE
8
BLACK
6
CONTINUOUS
10
0.471962
20
1.02664
11
0.471817
21
1.02684
0
LINE
8
BLACK
6
CONTINUOUS
10
0.471817
20
1.02684
11
0.470878
21
1.03059
0
LINE
8
BLACK
6
CONTINUOUS
10
0.470878
20
1.03059
11
0.470919
21
1.03086
0
LINE
8
BLACK
6
CONTINUOUS
10
0.470919
20
1.03086
11
0.470814
21
1.03111
0
LINE
8
BLACK
6
CONTINUOUS
10
0.470814
20
1.03111
11
0.470814
21
1.03581
0
LINE
8
BLACK
6
CONTINUOUS
10
0.470814
20
1.03581
11
0.470919
21
1.03606
0
LINE
8
BLACK
6
CONTINUOUS
10
0.470919
20
1.03606
11
0.470878
21
1.03633
0
LINE
8
BLACK
6
CONTINUOUS
10
0.470878
20
1.03633
11
0.471817
21
1.04008
0
LINE
8
BLACK
6
CONTINUOUS
10
0.471817
20
1.04008
11
0.471962
21
1.04028
0
LINE
8
BLACK
6
CONTINUOUS
10
0.471962
20
1.04028
11
0.471979
21
1.04052
0
LINE
8
BLACK
6
CONTINUOUS
10
0.471979
20
1.04052
11
0.472917
21
1.0424
0
LINE
8
BLACK
6
CONTINUOUS
10
0.472917
20
1.0424
11
0.473185
21
1.04263
0
LINE
8
BLACK
6
CONTINUOUS
10
0.473185
20
1.04263
11
0.47332
21
1.04295
0
LINE
8
BLACK
6
CONTINUOUS
10
0.47332
20
1.04295
11
0.474258
21
1.04389
0
LINE
8
BLACK
6
CONTINUOUS
10
0.474258
20
1.04389
11
0.474585
21
1.04403
0
LINE
8
BLACK
6
CONTINUOUS
10
0.474585
20
1.04403
11
0.474817
21
1.04429
0
LINE
8
BLACK
6
CONTINUOUS
10
0.474817
20
1.04429
11
0.476693
21
1.04523
0
LINE
8
BLACK
6
CONTINUOUS
10
0.476693
20
1.04523
11
0.477192
21
1.04527
0
LINE
8
BLACK
6
CONTINUOUS
10
0.477192
20
1.04527
11
0.477655
21
1.04546
0
LINE
8
BLACK
6
CONTINUOUS
10
0.477655
20
1.04546
11
0.479531
21
1.04546
0
LINE
8
BLACK
6
CONTINUOUS
10
0.479531
20
1.04546
11
0.479993
21
1.04527
0
LINE
8
BLACK
6
CONTINUOUS
10
0.477052
20
1.0406
11
0.476607
21
1.04016
0
LINE
8
BLACK
6
CONTINUOUS
10
0.476607
20
1.04016
11
0.475931
21
1.03881
0
LINE
8
BLACK
6
CONTINUOUS
10
0.475931
20
1.03881
11
0.475114
21
1.03554
0
LINE
8
BLACK
6
CONTINUOUS
10
0.475114
20
1.03554
11
0.475114
21
1.03138
0
LINE
8
BLACK
6
CONTINUOUS
10
0.475114
20
1.03138
11
0.475931
21
1.02811
0
LINE
8
BLACK
6
CONTINUOUS
10
0.475931
20
1.02811
11
0.476607
21
1.02676
0
LINE
8
BLACK
6
CONTINUOUS
10
0.476607
20
1.02676
11
0.477052
21
1.02632
0
LINE
8
BLACK
6
CONTINUOUS
10
0.477052
20
1.02632
11
0.478162
21
1.02576
0
LINE
8
BLACK
6
CONTINUOUS
10
0.478162
20
1.02576
11
0.479023
21
1.02576
0
LINE
8
BLACK
6
CONTINUOUS
10
0.479023
20
1.02576
11
0.480134
21
1.02632
0
LINE
8
BLACK
6
CONTINUOUS
10
0.480134
20
1.02632
11
0.480578
21
1.02676
0
LINE
8
BLACK
6
CONTINUOUS
10
0.480578
20
1.02676
11
0.481255
21
1.02811
0
LINE
8
BLACK
6
CONTINUOUS
10
0.481255
20
1.02811
11
0.482071
21
1.03138
0
LINE
8
BLACK
6
CONTINUOUS
10
0.482071
20
1.03138
11
0.482071
21
1.03554
0
LINE
8
BLACK
6
CONTINUOUS
10
0.482071
20
1.03554
11
0.481255
21
1.03881
0
LINE
8
BLACK
6
CONTINUOUS
10
0.481255
20
1.03881
11
0.480578
21
1.04016
0
LINE
8
BLACK
6
CONTINUOUS
10
0.480578
20
1.04016
11
0.480134
21
1.0406
0
LINE
8
BLACK
6
CONTINUOUS
10
0.480134
20
1.0406
11
0.479023
21
1.04116
0
LINE
8
BLACK
6
CONTINUOUS
10
0.479023
20
1.04116
11
0.478162
21
1.04116
0
LINE
8
BLACK
6
CONTINUOUS
10
0.478162
20
1.04116
11
0.477052
21
1.0406
0
LINE
8
BLACK
6
CONTINUOUS
10
0.414958
20
1.14622
11
0.417165
21
1.14345
0
LINE
8
BLACK
6
CONTINUOUS
10
0.417165
20
1.14345
11
0.417279
21
1.14295
0
LINE
8
BLACK
6
CONTINUOUS
10
0.417279
20
1.14295
11
0.455
21
1.14295
0
LINE
8
BLACK
6
CONTINUOUS
10
0.455
20
1.14295
11
0.45601
21
1.14277
0
LINE
8
BLACK
6
CONTINUOUS
10
0.45601
20
1.14277
11
0.457557
21
1.14148
0
LINE
8
BLACK
6
CONTINUOUS
10
0.457557
20
1.14148
11
0.457908
21
1.13949
0
LINE
8
BLACK
6
CONTINUOUS
10
0.457908
20
1.13949
11
0.456898
21
1.13774
0
LINE
8
BLACK
6
CONTINUOUS
10
0.456898
20
1.13774
11
0.455
21
1.13705
0
LINE
8
BLACK
6
CONTINUOUS
10
0.455
20
1.13705
11
0.417953
21
1.13705
0
LINE
8
BLACK
6
CONTINUOUS
10
0.417953
20
1.13705
11
0.417953
21
1.08295
0
LINE
8
BLACK
6
CONTINUOUS
10
0.417953
20
1.08295
11
0.455
21
1.08295
0
LINE
8
BLACK
6
CONTINUOUS
10
0.455
20
1.08295
11
0.45601
21
1.08277
0
LINE
8
BLACK
6
CONTINUOUS
10
0.45601
20
1.08277
11
0.457557
21
1.08148
0
LINE
8
BLACK
6
CONTINUOUS
10
0.457557
20
1.08148
11
0.457908
21
1.07949
0
LINE
8
BLACK
6
CONTINUOUS
10
0.457908
20
1.07949
11
0.456898
21
1.07774
0
LINE
8
BLACK
6
CONTINUOUS
10
0.456898
20
1.07774
11
0.455
21
1.07705
0
LINE
8
BLACK
6
CONTINUOUS
10
0.455
20
1.07705
11
0.415
21
1.07705
0
LINE
8
BLACK
6
CONTINUOUS
10
0.415
20
1.07705
11
0.414616
21
1.07711
0
LINE
8
BLACK
6
CONTINUOUS
10
0.414616
20
1.07711
11
0.414487
21
1.07709
0
LINE
8
BLACK
6
CONTINUOUS
10
0.414487
20
1.07709
11
0.414374
21
1.07716
0
LINE
8
BLACK
6
CONTINUOUS
10
0.414374
20
1.07716
11
0.41399
21
1.07723
0
LINE
8
BLACK
6
CONTINUOUS
10
0.41399
20
1.07723
11
0.413402
21
1.07772
0
LINE
8
BLACK
6
CONTINUOUS
10
0.413402
20
1.07772
11
0.412738
21
1.0781
0
LINE
8
BLACK
6
CONTINUOUS
10
0.412738
20
1.0781
11
0.412647
21
1.07835
0
LINE
8
BLACK
6
CONTINUOUS
10
0.412647
20
1.07835
11
0.412443
21
1.07852
0
LINE
8
BLACK
6
CONTINUOUS
10
0.412443
20
1.07852
11
0.41231
21
1.07928
0
LINE
8
BLACK
6
CONTINUOUS
10
0.41231
20
1.07928
11
0.412047
21
1.08
0
LINE
8
BLACK
6
CONTINUOUS
10
0.412047
20
1.08
11
0.412047
21
1.13238
0
LINE
8
BLACK
6
CONTINUOUS
10
0.412047
20
1.13238
11
0.41177
21
1.13225
0
LINE
8
BLACK
6
CONTINUOUS
10
0.41177
20
1.13225
11
0.40823
21
1.13225
0
LINE
8
BLACK
6
CONTINUOUS
10
0.40823
20
1.13225
11
0.405042
21
1.13378
0
LINE
8
BLACK
6
CONTINUOUS
10
0.405042
20
1.13378
11
0.402835
21
1.13655
0
LINE
8
BLACK
6
CONTINUOUS
10
0.402835
20
1.13655
11
0.402047
21
1.14
0
LINE
8
BLACK
6
CONTINUOUS
10
0.402047
20
1.14
11
0.402835
21
1.14345
0
LINE
8
BLACK
6
CONTINUOUS
10
0.402835
20
1.14345
11
0.405042
21
1.14622
0
LINE
8
BLACK
6
CONTINUOUS
10
0.405042
20
1.14622
11
0.40823
21
1.14775
0
LINE
8
BLACK
6
CONTINUOUS
10
0.40823
20
1.14775
11
0.41177
21
1.14775
0
LINE
8
BLACK
6
CONTINUOUS
10
0.41177
20
1.14775
11
0.414958
21
1.14622
0
LINE
8
BLACK
6
CONTINUOUS
10
0.408433
20
1.13843
11
0.41
21
1.13778
0
LINE
8
BLACK
6
CONTINUOUS
10
0.41
20
1.13778
11
0.411567
21
1.13843
0
LINE
8
BLACK
6
CONTINUOUS
10
0.411567
20
1.13843
11
0.412047
21
1.13959
0
LINE
8
BLACK
6
CONTINUOUS
10
0.412047
20
1.13959
11
0.412047
21
1.14
0
LINE
8
BLACK
6
CONTINUOUS
10
0.412047
20
1.14
11
0.412098
21
1.14029
0
LINE
8
BLACK
6
CONTINUOUS
10
0.412098
20
1.14029
11
0.411567
21
1.14157
0
LINE
8
BLACK
6
CONTINUOUS
10
0.411567
20
1.14157
11
0.41
21
1.14222
0
LINE
8
BLACK
6
CONTINUOUS
10
0.41
20
1.14222
11
0.408433
21
1.14157
0
LINE
8
BLACK
6
CONTINUOUS
10
0.408433
20
1.14157
11
0.407784
21
1.14
0
LINE
8
BLACK
6
CONTINUOUS
10
0.407784
20
1.14
11
0.408433
21
1.13843
0
LINE
8
BLACK
6
CONTINUOUS
10
0.535384
20
1.14289
11
0.535513
21
1.14291
0
LINE
8
BLACK
6
CONTINUOUS
10
0.535513
20
1.14291
11
0.535626
21
1.14284
0
LINE
8
BLACK
6
CONTINUOUS
10
0.535626
20
1.14284
11
0.53601
21
1.14277
0
LINE
8
BLACK
6
CONTINUOUS
10
0.53601
20
1.14277
11
0.536598
21
1.14228
0
LINE
8
BLACK
6
CONTINUOUS
10
0.536598
20
1.14228
11
0.537262
21
1.1419
0
LINE
8
BLACK
6
CONTINUOUS
10
0.537262
20
1.1419
11
0.537353
21
1.14165
0
LINE
8
BLACK
6
CONTINUOUS
10
0.537353
20
1.14165
11
0.537557
21
1.14148
0
LINE
8
BLACK
6
CONTINUOUS
10
0.537557
20
1.14148
11
0.53769
21
1.14072
0
LINE
8
BLACK
6
CONTINUOUS
10
0.53769
20
1.14072
11
0.537953
21
1.14
0
LINE
8
BLACK
6
CONTINUOUS
10
0.537953
20
1.14
11
0.537953
21
1.08
0
LINE
8
BLACK
6
CONTINUOUS
10
0.537953
20
1.08
11
0.537885
21
1.07962
0
LINE
8
BLACK
6
CONTINUOUS
10
0.537885
20
1.07962
11
0.537908
21
1.07949
0
LINE
8
BLACK
6
CONTINUOUS
10
0.537908
20
1.07949
11
0.537842
21
1.07937
0
LINE
8
BLACK
6
CONTINUOUS
10
0.537842
20
1.07937
11
0.537775
21
1.07899
0
LINE
8
BLACK
6
CONTINUOUS
10
0.537775
20
1.07899
11
0.537282
21
1.0784
0
LINE
8
BLACK
6
CONTINUOUS
10
0.537282
20
1.0784
11
0.536898
21
1.07774
0
LINE
8
BLACK
6
CONTINUOUS
10
0.536898
20
1.07774
11
0.536648
21
1.07765
0
LINE
8
BLACK
6
CONTINUOUS
10
0.536648
20
1.07765
11
0.536476
21
1.07744
0
LINE
8
BLACK
6
CONTINUOUS
10
0.536476
20
1.07744
11
0.535721
21
1.07731
0
LINE
8
BLACK
6
CONTINUOUS
10
0.535721
20
1.07731
11
0.535
21
1.07705
0
LINE
8
BLACK
6
CONTINUOUS
10
0.535
20
1.07705
11
0.495
21
1.07705
0
LINE
8
BLACK
6
CONTINUOUS
10
0.495
20
1.07705
11
0.49399
21
1.07723
0
LINE
8
BLACK
6
CONTINUOUS
10
0.49399
20
1.07723
11
0.492443
21
1.07852
0
LINE
8
BLACK
6
CONTINUOUS
10
0.492443
20
1.07852
11
0.492092
21
1.08051
0
LINE
8
BLACK
6
CONTINUOUS
10
0.492092
20
1.08051
11
0.493102
21
1.08226
0
LINE
8
BLACK
6
CONTINUOUS
10
0.493102
20
1.08226
11
0.495
21
1.08295
0
LINE
8
BLACK
6
CONTINUOUS
10
0.495
20
1.08295
11
0.532047
21
1.08295
0
LINE
8
BLACK
6
CONTINUOUS
10
0.532047
20
1.08295
11
0.532047
21
1.13705
0
LINE
8
BLACK
6
CONTINUOUS
10
0.532047
20
1.13705
11
0.499077
21
1.13705
0
LINE
8
BLACK
6
CONTINUOUS
10
0.499077
20
1.13705
11
0.499144
21
1.137
0
LINE
8
BLACK
6
CONTINUOUS
10
0.499144
20
1.137
11
0.500902
21
1.13437
0
LINE
8
BLACK
6
CONTINUOUS
10
0.500902
20
1.13437
11
0.502381
21
1.13289
0
LINE
8
BLACK
6
CONTINUOUS
10
0.502381
20
1.13289
11
0.503945
21
1.1321
0
LINE
8
BLACK
6
CONTINUOUS
10
0.503945
20
1.1321
11
0.505023
21
1.13086
0
LINE
8
BLACK
6
CONTINUOUS
10
0.505023
20
1.13086
11
0.504906
21
1.12922
0
LINE
8
BLACK
6
CONTINUOUS
10
0.504906
20
1.12922
11
0.503663
21
1.12814
0
LINE
8
BLACK
6
CONTINUOUS
10
0.503663
20
1.12814
11
0.502022
21
1.12826
0
LINE
8
BLACK
6
CONTINUOUS
10
0.502022
20
1.12826
11
0.500146
21
1.1292
0
LINE
8
BLACK
6
CONTINUOUS
10
0.500146
20
1.1292
11
0.499914
21
1.12946
0
LINE
8
BLACK
6
CONTINUOUS
10
0.499914
20
1.12946
11
0.499587
21
1.1296
0
LINE
8
BLACK
6
CONTINUOUS
10
0.499587
20
1.1296
11
0.499505
21
1.12968
0
LINE
8
BLACK
6
CONTINUOUS
10
0.499505
20
1.12968
11
0.499505
21
1.11826
0
LINE
8
BLACK
6
CONTINUOUS
10
0.499505
20
1.11826
11
0.502983
21
1.11826
0
LINE
8
BLACK
6
CONTINUOUS
10
0.502983
20
1.11826
11
0.504504
21
1.11763
0
LINE
8
BLACK
6
CONTINUOUS
10
0.504504
20
1.11763
11
0.505133
21
1.11611
0
LINE
8
BLACK
6
CONTINUOUS
10
0.505133
20
1.11611
11
0.504504
21
1.11459
0
LINE
8
BLACK
6
CONTINUOUS
10
0.504504
20
1.11459
11
0.502983
21
1.11396
0
LINE
8
BLACK
6
CONTINUOUS
10
0.502983
20
1.11396
11
0.497355
21
1.11396
0
LINE
8
BLACK
6
CONTINUOUS
10
0.497355
20
1.11396
11
0.491726
21
1.11396
0
LINE
8
BLACK
6
CONTINUOUS
10
0.491726
20
1.11396
11
0.490206
21
1.11459
0
LINE
8
BLACK
6
CONTINUOUS
10
0.490206
20
1.11459
11
0.489576
21
1.11611
0
LINE
8
BLACK
6
CONTINUOUS
10
0.489576
20
1.11611
11
0.490206
21
1.11763
0
LINE
8
BLACK
6
CONTINUOUS
10
0.490206
20
1.11763
11
0.491726
21
1.11826
0
LINE
8
BLACK
6
CONTINUOUS
10
0.491726
20
1.11826
11
0.495205
21
1.11826
0
LINE
8
BLACK
6
CONTINUOUS
10
0.495205
20
1.11826
11
0.495205
21
1.13581
0
LINE
8
BLACK
6
CONTINUOUS
10
0.495205
20
1.13581
11
0.495289
21
1.13601
0
LINE
8
BLACK
6
CONTINUOUS
10
0.495289
20
1.13601
11
0.495246
21
1.13623
0
LINE
8
BLACK
6
CONTINUOUS
10
0.495246
20
1.13623
11
0.495595
21
1.13675
0
LINE
8
BLACK
6
CONTINUOUS
10
0.495595
20
1.13675
11
0.495717
21
1.13705
0
LINE
8
BLACK
6
CONTINUOUS
10
0.495717
20
1.13705
11
0.495
21
1.13705
0
LINE
8
BLACK
6
CONTINUOUS
10
0.495
20
1.13705
11
0.49399
21
1.13723
0
LINE
8
BLACK
6
CONTINUOUS
10
0.49399
20
1.13723
11
0.492443
21
1.13852
0
LINE
8
BLACK
6
CONTINUOUS
10
0.492443
20
1.13852
11
0.492092
21
1.14051
0
LINE
8
BLACK
6
CONTINUOUS
10
0.492092
20
1.14051
11
0.493102
21
1.14226
0
LINE
8
BLACK
6
CONTINUOUS
10
0.493102
20
1.14226
11
0.495
21
1.14295
0
LINE
8
BLACK
6
CONTINUOUS
10
0.495
20
1.14295
11
0.535
21
1.14295
0
LINE
8
BLACK
6
CONTINUOUS
10
0.535
20
1.14295
11
0.535384
21
1.14289
0
LINE
8
BLACK
6
CONTINUOUS
10
0.465354
20
1.11038
11
0.465572
21
1.11042
0
LINE
8
BLACK
6
CONTINUOUS
10
0.465572
20
1.11042
11
0.466092
21
1.11007
0
LINE
8
BLACK
6
CONTINUOUS
10
0.466092
20
1.11007
11
0.46667
21
1.10983
0
LINE
8
BLACK
6
CONTINUOUS
10
0.46667
20
1.10983
11
0.466755
21
1.10963
0
LINE
8
BLACK
6
CONTINUOUS
10
0.466755
20
1.10963
11
0.466939
21
1.1095
0
LINE
8
BLACK
6
CONTINUOUS
10
0.466939
20
1.1095
11
0.468697
21
1.10687
0
LINE
8
BLACK
6
CONTINUOUS
10
0.468697
20
1.10687
11
0.470176
21
1.10539
0
LINE
8
BLACK
6
CONTINUOUS
10
0.470176
20
1.10539
11
0.47174
21
1.1046
0
LINE
8
BLACK
6
CONTINUOUS
10
0.47174
20
1.1046
11
0.472818
21
1.10336
0
LINE
8
BLACK
6
CONTINUOUS
10
0.472818
20
1.10336
11
0.472702
21
1.10172
0
LINE
8
BLACK
6
CONTINUOUS
10
0.472702
20
1.10172
11
0.471458
21
1.10064
0
LINE
8
BLACK
6
CONTINUOUS
10
0.471458
20
1.10064
11
0.469817
21
1.10076
0
LINE
8
BLACK
6
CONTINUOUS
10
0.469817
20
1.10076
11
0.467941
21
1.1017
0
LINE
8
BLACK
6
CONTINUOUS
10
0.467941
20
1.1017
11
0.467709
21
1.10196
0
LINE
8
BLACK
6
CONTINUOUS
10
0.467709
20
1.10196
11
0.467382
21
1.1021
0
LINE
8
BLACK
6
CONTINUOUS
10
0.467382
20
1.1021
11
0.4673
21
1.10218
0
LINE
8
BLACK
6
CONTINUOUS
10
0.4673
20
1.10218
11
0.4673
21
1.09076
0
LINE
8
BLACK
6
CONTINUOUS
10
0.4673
20
1.09076
11
0.470779
21
1.09076
0
LINE
8
BLACK
6
CONTINUOUS
10
0.470779
20
1.09076
11
0.472299
21
1.09013
0
LINE
8
BLACK
6
CONTINUOUS
10
0.472299
20
1.09013
11
0.472929
21
1.08861
0
LINE
8
BLACK
6
CONTINUOUS
10
0.472929
20
1.08861
11
0.472299
21
1.08709
0
LINE
8
BLACK
6
CONTINUOUS
10
0.472299
20
1.08709
11
0.470779
21
1.08646
0
LINE
8
BLACK
6
CONTINUOUS
10
0.470779
20
1.08646
11
0.46515
21
1.08646
0
LINE
8
BLACK
6
CONTINUOUS
10
0.46515
20
1.08646
11
0.459521
21
1.08646
0
LINE
8
BLACK
6
CONTINUOUS
10
0.459521
20
1.08646
11
0.458001
21
1.08709
0
LINE
8
BLACK
6
CONTINUOUS
10
0.458001
20
1.08709
11
0.457371
21
1.08861
0
LINE
8
BLACK
6
CONTINUOUS
10
0.457371
20
1.08861
11
0.458001
21
1.09013
0
LINE
8
BLACK
6
CONTINUOUS
10
0.458001
20
1.09013
11
0.459521
21
1.09076
0
LINE
8
BLACK
6
CONTINUOUS
10
0.459521
20
1.09076
11
0.463
21
1.09076
0
LINE
8
BLACK
6
CONTINUOUS
10
0.463
20
1.09076
11
0.463
21
1.10831
0
LINE
8
BLACK
6
CONTINUOUS
10
0.463
20
1.10831
11
0.463085
21
1.10851
0
LINE
8
BLACK
6
CONTINUOUS
10
0.463085
20
1.10851
11
0.463042
21
1.10873
0
LINE
8
BLACK
6
CONTINUOUS
10
0.463042
20
1.10873
11
0.46339
21
1.10925
0
LINE
8
BLACK
6
CONTINUOUS
10
0.46339
20
1.10925
11
0.46363
21
1.10983
0
LINE
8
BLACK
6
CONTINUOUS
10
0.46363
20
1.10983
11
0.463834
21
1.10991
0
LINE
8
BLACK
6
CONTINUOUS
10
0.463834
20
1.10991
11
0.463957
21
1.1101
0
LINE
8
BLACK
6
CONTINUOUS
10
0.463957
20
1.1101
11
0.464571
21
1.11022
0
LINE
8
BLACK
6
CONTINUOUS
10
0.464571
20
1.11022
11
0.46515
21
1.11046
0
LINE
8
BLACK
6
CONTINUOUS
10
0.46515
20
1.11046
11
0.465354
21
1.11038
0
LINE
8
BLACK
6
CONTINUOUS
10
0.491061
20
1.10983
11
0.49169
21
1.10831
0
LINE
8
BLACK
6
CONTINUOUS
10
0.49169
20
1.10831
11
0.49169
21
1.08861
0
LINE
8
BLACK
6
CONTINUOUS
10
0.49169
20
1.08861
11
0.491061
21
1.08709
0
LINE
8
BLACK
6
CONTINUOUS
10
0.491061
20
1.08709
11
0.48954
21
1.08646
0
LINE
8
BLACK
6
CONTINUOUS
10
0.48954
20
1.08646
11
0.48802
21
1.08709
0
LINE
8
BLACK
6
CONTINUOUS
10
0.48802
20
1.08709
11
0.48739
21
1.08861
0
LINE
8
BLACK
6
CONTINUOUS
10
0.48739
20
1.08861
11
0.48739
21
1.09584
0
LINE
8
BLACK
6
CONTINUOUS
10
0.48739
20
1.09584
11
0.485969
21
1.09584
0
LINE
8
BLACK
6
CONTINUOUS
10
0.485969
20
1.09584
11
0.480045
21
1.08738
0
LINE
8
BLACK
6
CONTINUOUS
10
0.480045
20
1.08738
11
0.478657
21
1.08649
0
LINE
8
BLACK
6
CONTINUOUS
10
0.478657
20
1.08649
11
0.47705
21
1.08685
0
LINE
8
BLACK
6
CONTINUOUS
10
0.47705
20
1.08685
11
0.476166
21
1.08824
0
LINE
8
BLACK
6
CONTINUOUS
10
0.476166
20
1.08824
11
0.476522
21
1.08984
0
LINE
8
BLACK
6
CONTINUOUS
10
0.476522
20
1.08984
11
0.48093
21
1.09614
0
LINE
8
BLACK
6
CONTINUOUS
10
0.48093
20
1.09614
11
0.479198
21
1.09701
0
LINE
8
BLACK
6
CONTINUOUS
10
0.479198
20
1.09701
11
0.478966
21
1.09727
0
LINE
8
BLACK
6
CONTINUOUS
10
0.478966
20
1.09727
11
0.478639
21
1.09741
0
LINE
8
BLACK
6
CONTINUOUS
10
0.478639
20
1.09741
11
0.477701
21
1.09835
0
LINE
8
BLACK
6
CONTINUOUS
10
0.477701
20
1.09835
11
0.477566
21
1.09867
0
LINE
8
BLACK
6
CONTINUOUS
10
0.477566
20
1.09867
11
0.477298
21
1.09891
0
LINE
8
BLACK
6
CONTINUOUS
10
0.477298
20
1.09891
11
0.47636
21
1.10078
0
LINE
8
BLACK
6
CONTINUOUS
10
0.47636
20
1.10078
11
0.476325
21
1.10128
0
LINE
8
BLACK
6
CONTINUOUS
10
0.476325
20
1.10128
11
0.476133
21
1.10174
0
LINE
8
BLACK
6
CONTINUOUS
10
0.476133
20
1.10174
11
0.476133
21
1.10456
0
LINE
8
BLACK
6
CONTINUOUS
10
0.476133
20
1.10456
11
0.476325
21
1.10502
0
LINE
8
BLACK
6
CONTINUOUS
10
0.476325
20
1.10502
11
0.47636
21
1.10552
0
LINE
8
BLACK
6
CONTINUOUS
10
0.47636
20
1.10552
11
0.477298
21
1.1074
0
LINE
8
BLACK
6
CONTINUOUS
10
0.477298
20
1.1074
11
0.477566
21
1.10763
0
LINE
8
BLACK
6
CONTINUOUS
10
0.477566
20
1.10763
11
0.477701
21
1.10795
0
LINE
8
BLACK
6
CONTINUOUS
10
0.477701
20
1.10795
11
0.478639
21
1.10889
0
LINE
8
BLACK
6
CONTINUOUS
10
0.478639
20
1.10889
11
0.478966
21
1.10903
0
LINE
8
BLACK
6
CONTINUOUS
10
0.478966
20
1.10903
11
0.479198
21
1.10929
0
LINE
8
BLACK
6
CONTINUOUS
10
0.479198
20
1.10929
11
0.481074
21
1.11023
0
LINE
8
BLACK
6
CONTINUOUS
10
0.481074
20
1.11023
11
0.481573
21
1.11027
0
LINE
8
BLACK
6
CONTINUOUS
10
0.481573
20
1.11027
11
0.482036
21
1.11046
0
LINE
8
BLACK
6
CONTINUOUS
10
0.482036
20
1.11046
11
0.48954
21
1.11046
0
LINE
8
BLACK
6
CONTINUOUS
10
0.48954
20
1.11046
11
0.491061
21
1.10983
0
LINE
8
BLACK
6
CONTINUOUS
10
0.481433
20
1.1056
11
0.480988
21
1.10516
0
LINE
8
BLACK
6
CONTINUOUS
10
0.480988
20
1.10516
11
0.480433
21
1.10405
0
LINE
8
BLACK
6
CONTINUOUS
10
0.480433
20
1.10405
11
0.480433
21
1.10225
0
LINE
8
BLACK
6
CONTINUOUS
10
0.480433
20
1.10225
11
0.480988
21
1.10114
0
LINE
8
BLACK
6
CONTINUOUS
10
0.480988
20
1.10114
11
0.481433
21
1.1007
0
LINE
8
BLACK
6
CONTINUOUS
10
0.481433
20
1.1007
11
0.482543
21
1.10014
0
LINE
8
BLACK
6
CONTINUOUS
10
0.482543
20
1.10014
11
0.48739
21
1.10014
0
LINE
8
BLACK
6
CONTINUOUS
10
0.48739
20
1.10014
11
0.48739
21
1.10616
0
LINE
8
BLACK
6
CONTINUOUS
10
0.48739
20
1.10616
11
0.482543
21
1.10616
0
LINE
8
BLACK
6
CONTINUOUS
10
0.482543
20
1.10616
11
0.481433
21
1.1056
0
LINE
8
BLACK
6
CONTINUOUS
10
0.466042
20
1.13733
11
0.466671
21
1.13581
0
LINE
8
BLACK
6
CONTINUOUS
10
0.466671
20
1.13581
11
0.466671
21
1.11611
0
LINE
8
BLACK
6
CONTINUOUS
10
0.466671
20
1.11611
11
0.466042
21
1.11459
0
LINE
8
BLACK
6
CONTINUOUS
10
0.466042
20
1.11459
11
0.464521
21
1.11396
0
LINE
8
BLACK
6
CONTINUOUS
10
0.464521
20
1.11396
11
0.463001
21
1.11459
0
LINE
8
BLACK
6
CONTINUOUS
10
0.463001
20
1.11459
11
0.462371
21
1.11611
0
LINE
8
BLACK
6
CONTINUOUS
10
0.462371
20
1.11611
11
0.462371
21
1.11967
0
LINE
8
BLACK
6
CONTINUOUS
10
0.462371
20
1.11967
11
0.458737
21
1.11482
0
LINE
8
BLACK
6
CONTINUOUS
10
0.458737
20
1.11482
11
0.457321
21
1.11398
0
LINE
8
BLACK
6
CONTINUOUS
10
0.457321
20
1.11398
11
0.455727
21
1.11439
0
LINE
8
BLACK
6
CONTINUOUS
10
0.455727
20
1.11439
11
0.454888
21
1.11581
0
LINE
8
BLACK
6
CONTINUOUS
10
0.454888
20
1.11581
11
0.455297
21
1.1174
0
LINE
8
BLACK
6
CONTINUOUS
10
0.455297
20
1.1174
11
0.459806
21
1.12341
0
LINE
8
BLACK
6
CONTINUOUS
10
0.459806
20
1.12341
11
0.455496
21
1.12772
0
LINE
8
BLACK
6
CONTINUOUS
10
0.455496
20
1.12772
11
0.454867
21
1.12924
0
LINE
8
BLACK
6
CONTINUOUS
10
0.454867
20
1.12924
11
0.455496
21
1.13076
0
LINE
8
BLACK
6
CONTINUOUS
10
0.455496
20
1.13076
11
0.457017
21
1.13139
0
LINE
8
BLACK
6
CONTINUOUS
10
0.457017
20
1.13139
11
0.458537
21
1.13076
0
LINE
8
BLACK
6
CONTINUOUS
10
0.458537
20
1.13076
11
0.462371
21
1.12693
0
LINE
8
BLACK
6
CONTINUOUS
10
0.462371
20
1.12693
11
0.462371
21
1.13581
0
LINE
8
BLACK
6
CONTINUOUS
10
0.462371
20
1.13581
11
0.463001
21
1.13733
0
LINE
8
BLACK
6
CONTINUOUS
10
0.463001
20
1.13733
11
0.464521
21
1.13796
0
LINE
8
BLACK
6
CONTINUOUS
10
0.464521
20
1.13796
11
0.466042
21
1.13733
0
LINE
8
BLACK
6
CONTINUOUS
10
0.479993
20
1.13777
11
0.480492
21
1.13773
0
LINE
8
BLACK
6
CONTINUOUS
10
0.480492
20
1.13773
11
0.482369
21
1.13679
0
LINE
8
BLACK
6
CONTINUOUS
10
0.482369
20
1.13679
11
0.4826
21
1.13653
0
LINE
8
BLACK
6
CONTINUOUS
10
0.4826
20
1.13653
11
0.482927
21
1.13639
0
LINE
8
BLACK
6
CONTINUOUS
10
0.482927
20
1.13639
11
0.483865
21
1.13545
0
LINE
8
BLACK
6
CONTINUOUS
10
0.483865
20
1.13545
11
0.484001
21
1.13513
0
LINE
8
BLACK
6
CONTINUOUS
10
0.484001
20
1.13513
11
0.484268
21
1.1349
0
LINE
8
BLACK
6
CONTINUOUS
10
0.484268
20
1.1349
11
0.485206
21
1.13302
0
LINE
8
BLACK
6
CONTINUOUS
10
0.485206
20
1.13302
11
0.485224
21
1.13278
0
LINE
8
BLACK
6
CONTINUOUS
10
0.485224
20
1.13278
11
0.485369
21
1.13258
0
LINE
8
BLACK
6
CONTINUOUS
10
0.485369
20
1.13258
11
0.486307
21
1.12883
0
LINE
8
BLACK
6
CONTINUOUS
10
0.486307
20
1.12883
11
0.486267
21
1.12856
0
LINE
8
BLACK
6
CONTINUOUS
10
0.486267
20
1.12856
11
0.486371
21
1.12831
0
LINE
8
BLACK
6
CONTINUOUS
10
0.486371
20
1.12831
11
0.486371
21
1.12361
0
LINE
8
BLACK
6
CONTINUOUS
10
0.486371
20
1.12361
11
0.486267
21
1.12336
0
LINE
8
BLACK
6
CONTINUOUS
10
0.486267
20
1.12336
11
0.486307
21
1.12309
0
LINE
8
BLACK
6
CONTINUOUS
10
0.486307
20
1.12309
11
0.485369
21
1.11934
0
LINE
8
BLACK
6
CONTINUOUS
10
0.485369
20
1.11934
11
0.485224
21
1.11914
0
LINE
8
BLACK
6
CONTINUOUS
10
0.485224
20
1.11914
11
0.485206
21
1.1189
0
LINE
8
BLACK
6
CONTINUOUS
10
0.485206
20
1.1189
11
0.484268
21
1.11702
0
LINE
8
BLACK
6
CONTINUOUS
10
0.484268
20
1.11702
11
0.484001
21
1.11679
0
LINE
8
BLACK
6
CONTINUOUS
10
0.484001
20
1.11679
11
0.483865
21
1.11647
0
LINE
8
BLACK
6
CONTINUOUS
10
0.483865
20
1.11647
11
0.482927
21
1.11553
0
LINE
8
BLACK
6
CONTINUOUS
10
0.482927
20
1.11553
11
0.4826
21
1.11539
0
LINE
8
BLACK
6
CONTINUOUS
10
0.4826
20
1.11539
11
0.482369
21
1.11513
0
LINE
8
BLACK
6
CONTINUOUS
10
0.482369
20
1.11513
11
0.480492
21
1.11419
0
LINE
8
BLACK
6
CONTINUOUS
10
0.480492
20
1.11419
11
0.479993
21
1.11415
0
LINE
8
BLACK
6
CONTINUOUS
10
0.479993
20
1.11415
11
0.479531
21
1.11396
0
LINE
8
BLACK
6
CONTINUOUS
10
0.479531
20
1.11396
11
0.477655
21
1.11396
0
LINE
8
BLACK
6
CONTINUOUS
10
0.477655
20
1.11396
11
0.477192
21
1.11415
0
LINE
8
BLACK
6
CONTINUOUS
10
0.477192
20
1.11415
11
0.476693
21
1.11419
0
LINE
8
BLACK
6
CONTINUOUS
10
0.476693
20
1.11419
11
0.474817
21
1.11513
0
LINE
8
BLACK
6
CONTINUOUS
10
0.474817
20
1.11513
11
0.474585
21
1.11539
0
LINE
8
BLACK
6
CONTINUOUS
10
0.474585
20
1.11539
11
0.474258
21
1.11553
0
LINE
8
BLACK
6
CONTINUOUS
10
0.474258
20
1.11553
11
0.47332
21
1.11647
0
LINE
8
BLACK
6
CONTINUOUS
10
0.47332
20
1.11647
11
0.473185
21
1.11679
0
LINE
8
BLACK
6
CONTINUOUS
10
0.473185
20
1.11679
11
0.472917
21
1.11702
0
LINE
8
BLACK
6
CONTINUOUS
10
0.472917
20
1.11702
11
0.471979
21
1.1189
0
LINE
8
BLACK
6
CONTINUOUS
10
0.471979
20
1.1189
11
0.471962
21
1.11914
0
LINE
8
BLACK
6
CONTINUOUS
10
0.471962
20
1.11914
11
0.471817
21
1.11934
0
LINE
8
BLACK
6
CONTINUOUS
10
0.471817
20
1.11934
11
0.470878
21
1.12309
0
LINE
8
BLACK
6
CONTINUOUS
10
0.470878
20
1.12309
11
0.470919
21
1.12336
0
LINE
8
BLACK
6
CONTINUOUS
10
0.470919
20
1.12336
11
0.470814
21
1.12361
0
LINE
8
BLACK
6
CONTINUOUS
10
0.470814
20
1.12361
11
0.470814
21
1.12831
0
LINE
8
BLACK
6
CONTINUOUS
10
0.470814
20
1.12831
11
0.470919
21
1.12856
0
LINE
8
BLACK
6
CONTINUOUS
10
0.470919
20
1.12856
11
0.470878
21
1.12883
0
LINE
8
BLACK
6
CONTINUOUS
10
0.470878
20
1.12883
11
0.471817
21
1.13258
0
LINE
8
BLACK
6
CONTINUOUS
10
0.471817
20
1.13258
11
0.471962
21
1.13278
0
LINE
8
BLACK
6
CONTINUOUS
10
0.471962
20
1.13278
11
0.471979
21
1.13302
0
LINE
8
BLACK
6
CONTINUOUS
10
0.471979
20
1.13302
11
0.472917
21
1.1349
0
LINE
8
BLACK
6
CONTINUOUS
10
0.472917
20
1.1349
11
0.473185
21
1.13513
0
LINE
8
BLACK
6
CONTINUOUS
10
0.473185
20
1.13513
11
0.47332
21
1.13545
0
LINE
8
BLACK
6
CONTINUOUS
10
0.47332
20
1.13545
11
0.474258
21
1.13639
0
LINE
8
BLACK
6
CONTINUOUS
10
0.474258
20
1.13639
11
0.474585
21
1.13653
0
LINE
8
BLACK
6
CONTINUOUS
10
0.474585
20
1.13653
11
0.474817
21
1.13679
0
LINE
8
BLACK
6
CONTINUOUS
10
0.474817
20
1.13679
11
0.476693
21
1.13773
0
LINE
8
BLACK
6
CONTINUOUS
10
0.476693
20
1.13773
11
0.477192
21
1.13777
0
LINE
8
BLACK
6
CONTINUOUS
10
0.477192
20
1.13777
11
0.477655
21
1.13796
0
LINE
8
BLACK
6
CONTINUOUS
10
0.477655
20
1.13796
11
0.479531
21
1.13796
0
LINE
8
BLACK
6
CONTINUOUS
10
0.479531
20
1.13796
11
0.479993
21
1.13777
0
LINE
8
BLACK
6
CONTINUOUS
10
0.477052
20
1.1331
11
0.476607
21
1.13266
0
LINE
8
BLACK
6
CONTINUOUS
10
0.476607
20
1.13266
11
0.475931
21
1.13131
0
LINE
8
BLACK
6
CONTINUOUS
10
0.475931
20
1.13131
11
0.475114
21
1.12804
0
LINE
8
BLACK
6
CONTINUOUS
10
0.475114
20
1.12804
11
0.475114
21
1.12388
0
LINE
8
BLACK
6
CONTINUOUS
10
0.475114
20
1.12388
11
0.475931
21
1.12061
0
LINE
8
BLACK
6
CONTINUOUS
10
0.475931
20
1.12061
11
0.476607
21
1.11926
0
LINE
8
BLACK
6
CONTINUOUS
10
0.476607
20
1.11926
11
0.477052
21
1.11882
0
LINE
8
BLACK
6
CONTINUOUS
10
0.477052
20
1.11882
11
0.478162
21
1.11826
0
LINE
8
BLACK
6
CONTINUOUS
10
0.478162
20
1.11826
11
0.479023
21
1.11826
0
LINE
8
BLACK
6
CONTINUOUS
10
0.479023
20
1.11826
11
0.480134
21
1.11882
0
LINE
8
BLACK
6
CONTINUOUS
10
0.480134
20
1.11882
11
0.480578
21
1.11926
0
LINE
8
BLACK
6
CONTINUOUS
10
0.480578
20
1.11926
11
0.481255
21
1.12061
0
LINE
8
BLACK
6
CONTINUOUS
10
0.481255
20
1.12061
11
0.482071
21
1.12388
0
LINE
8
BLACK
6
CONTINUOUS
10
0.482071
20
1.12388
11
0.482071
21
1.12804
0
LINE
8
BLACK
6
CONTINUOUS
10
0.482071
20
1.12804
11
0.481255
21
1.13131
0
LINE
8
BLACK
6
CONTINUOUS
10
0.481255
20
1.13131
11
0.480578
21
1.13266
0
LINE
8
BLACK
6
CONTINUOUS
10
0.480578
20
1.13266
11
0.480134
21
1.1331
0
LINE
8
BLACK
6
CONTINUOUS
10
0.480134
20
1.1331
11
0.479023
21
1.13366
0
LINE
8
BLACK
6
CONTINUOUS
10
0.479023
20
1.13366
11
0.478162
21
1.13366
0
LINE
8
BLACK
6
CONTINUOUS
10
0.478162
20
1.13366
11
0.477052
21
1.1331
0
CIRCLE
8
BLACK
10
0.1125
20
1.0675
40
0.00688976
0
CIRCLE
8
BLACK
10
0.1125
20
1.1675
40
0.00688976
0
CIRCLE
8
BLACK
10
0.2125
20
1.0675
40
0.00688976
0
CIRCLE
8
BLACK
10
0.2125
20
1.1675
40
0.00688976
0
CIRCLE
8
BLACK
10
0.3125
20
1.0675
40
0.00688976
0
CIRCLE
8
BLACK
10
0.3125
20
1.1675
40
0.00688976
0
CIRCLE
8
BLACK
10
0.48
20
0.8475
40
0.00688976
0
CIRCLE
8
BLACK
10
0.58
20
0.8475
40
0.00688976
0
CIRCLE
8
BLACK
10
0.48
20
0.7475
40
0.00688976
0
CIRCLE
8
BLACK
10
0.58
20
0.7475
40
0.00688976
0
CIRCLE
8
BLACK
10
0.48
20
0.6475
40
0.00688976
0
CIRCLE
8
BLACK
10
0.58
20
0.6475
40
0.00688976
0
CIRCLE
8
BLACK
10
0.48
20
0.5475
40
0.00688976
0
CIRCLE
8
BLACK
10
0.58
20
0.5475
40
0.00688976
0
CIRCLE
8
BLACK
10
0.48
20
0.4475
40
0.00688976
0
CIRCLE
8
BLACK
10
0.58
20
0.4475
40
0.00688976
0
CIRCLE
8
BLACK
10
0.28
20
0.8475
40
0.00688976
0
CIRCLE
8
BLACK
10
0.38
20
0.8475
40
0.00688976
0
CIRCLE
8
BLACK
10
0.28
20
0.7475
40
0.00688976
0
CIRCLE
8
BLACK
10
0.38
20
0.7475
40
0.00688976
0
CIRCLE
8
BLACK
10
0.28
20
0.6475
40
0.00688976
0
CIRCLE
8
BLACK
10
0.38
20
0.6475
40
0.00688976
0
CIRCLE
8
BLACK
10
0.28
20
0.5475
40
0.00688976
0
CIRCLE
8
BLACK
10
0.38
20
0.5475
40
0.00688976
0
CIRCLE
8
BLACK
10
0.28
20
0.4475
40
0.00688976
0
CIRCLE
8
BLACK
10
0.38
20
0.4475
40
0.00688976
0
CIRCLE
8
BLACK
10
0.08
20
0.8475
40
0.00688976
0
CIRCLE
8
BLACK
10
0.18
20
0.8475
40
0.00688976
0
CIRCLE
8
BLACK
10
0.08
20
0.7475
40
0.00688976
0
CIRCLE
8
BLACK
10
0.18
20
0.7475
40
0.00688976
0
CIRCLE
8
BLACK
10
0.08
20
0.6475
40
0.00688976
0
CIRCLE
8
BLACK
10
0.18
20
0.6475
40
0.00688976
0
CIRCLE
8
BLACK
10
0.08
20
0.5475
40
0.00688976
0
CIRCLE
8
BLACK
10
0.18
20
0.5475
40
0.00688976
0
CIRCLE
8
BLACK
10
0.08
20
0.4475
40
0.00688976
0
CIRCLE
8
BLACK
10
0.18
20
0.4475
40
0.00688976
0
CIRCLE
8
BLACK
10
0.6075
20
1.1075
40
0.00688976
0
CIRCLE
8
BLACK
10
0.7075
20
1.1075
40
0.00688976
0
CIRCLE
8
BLACK
10
0.6075
20
1.0075
40
0.00688976
0
CIRCLE
8
BLACK
10
0.7075
20
1.0075
40
0.00688976
0
CIRCLE
8
BLACK
10
0.2
20
1.4
40
0.00688976
0
CIRCLE
8
BLACK
10
0.6
20
1.4
40
0.00688976
0
CIRCLE
8
BLACK
10
0.6
20
0.2
40
0.00688976
0
CIRCLE
8
BLACK
10
0.2
20
0.2
40
0.00688976
  0
ENDSEC
  0
EOF
