  0
SECTION
  2
HEADER
  9
$ANGBASE
  50
0.0
  9
$ANGDIR
  70
1
  9
$MEASUREMENT
  70
0
  0
ENDSEC
  0
SECTION
  2
TABLES
  0
TABLE
  2
LTYPE
  70
4
  0
LTYPE
  5
40F
  2
CONTINUOUS
  70
0
  3
Solid line
  72
65
  73
0
  40
0.0
  0
LTYPE
  5
410
  2
DASHDOT
 70
0
  3
Dash Dot ____ _ ____ _
 72
65
 73
4
 40
2.0
 49
1.25
 49
-0.25
 49
0.25
 49
-0.25
  0
LTYPE
  5
411
  2
DASHED
 70
0
  3
Dashed __ __ __ __ __
 72
65
 73
2
 40
0.75
 49
0.5
 49
-0.25
  0
LTYPE
  5
43B
  2
DOTTED
 70
0
  3
Dotted .  .  .  .
 72
65
 73
2
 40
0.2
 49
0.0
 49
-0.2
  0
ENDTAB
  0
TABLE
  2
STYLE
  70
4
  0
STYLE
  2
KICAD
  70
0
  40
0
  41
1
  42
1
  50
0
  71
0
  3
isocp.shx
  0
STYLE
  2
KICADB
  70
0
  40
0
  41
1
  42
1
  50
0
  71
0
  3
isocp.shx
  0
STYLE
  2
KICADI
  70
0
  40
0
  41
1
  42
1
  50
15
  71
0
  3
isocp.shx
  0
STYLE
  2
KICADBI
  70
0
  40
0
  41
1
  42
1
  50
15
  71
0
  3
isocp.shx
  0
ENDTAB
  0
TABLE
  2
LAYER
  70
1
  0
LAYER
  2
BLACK
  70
0
  62
7
  6
CONTINUOUS
  0
ENDTAB
  0
ENDSEC
  0
SECTION
  2
ENTITIES
0
LINE
8
BLACK
6
CONTINUOUS
10
0.426016
20
0.104285
11
0.428177
21
0.102123
0
LINE
8
BLACK
6
CONTINUOUS
10
0.428177
20
0.102123
11
0.428969
21
0.0991704
0
LINE
8
BLACK
6
CONTINUOUS
10
0.428969
20
0.0991704
11
0.428177
21
0.0962176
0
LINE
8
BLACK
6
CONTINUOUS
10
0.428177
20
0.0962176
11
0.426016
21
0.0940561
0
LINE
8
BLACK
6
CONTINUOUS
10
0.426016
20
0.0940561
11
0.423063
21
0.0932649
0
LINE
8
BLACK
6
CONTINUOUS
10
0.423063
20
0.0932649
11
0.398502
21
0.0932649
0
LINE
8
BLACK
6
CONTINUOUS
10
0.398502
20
0.0932649
11
0.410937
21
0.0874615
0
LINE
8
BLACK
6
CONTINUOUS
10
0.410937
20
0.0874615
11
0.411336
21
0.0871265
0
LINE
8
BLACK
6
CONTINUOUS
10
0.411336
20
0.0871265
11
0.411826
21
0.0869485
0
LINE
8
BLACK
6
CONTINUOUS
10
0.411826
20
0.0869485
11
0.412489
21
0.0861589
0
LINE
8
BLACK
6
CONTINUOUS
10
0.412489
20
0.0861589
11
0.413279
21
0.0854959
0
LINE
8
BLACK
6
CONTINUOUS
10
0.413279
20
0.0854959
11
0.413457
21
0.0850063
0
LINE
8
BLACK
6
CONTINUOUS
10
0.413457
20
0.0850063
11
0.413791
21
0.0846074
0
LINE
8
BLACK
6
CONTINUOUS
10
0.413791
20
0.0846074
11
0.413971
21
0.0835921
0
LINE
8
BLACK
6
CONTINUOUS
10
0.413971
20
0.0835921
11
0.414323
21
0.082623
0
LINE
8
BLACK
6
CONTINUOUS
10
0.414323
20
0.082623
11
0.414233
21
0.0821099
0
LINE
8
BLACK
6
CONTINUOUS
10
0.414233
20
0.0821099
11
0.414323
21
0.0815971
0
LINE
8
BLACK
6
CONTINUOUS
10
0.414323
20
0.0815971
11
0.413971
21
0.0806282
0
LINE
8
BLACK
6
CONTINUOUS
10
0.413971
20
0.0806282
11
0.413791
21
0.0796127
0
LINE
8
BLACK
6
CONTINUOUS
10
0.413791
20
0.0796127
11
0.413456
21
0.0792137
0
LINE
8
BLACK
6
CONTINUOUS
10
0.413456
20
0.0792137
11
0.413279
21
0.0787242
0
LINE
8
BLACK
6
CONTINUOUS
10
0.413279
20
0.0787242
11
0.412489
21
0.0780613
0
LINE
8
BLACK
6
CONTINUOUS
10
0.412489
20
0.0780613
11
0.411826
21
0.0772715
0
LINE
8
BLACK
6
CONTINUOUS
10
0.411826
20
0.0772715
11
0.411336
21
0.0770935
0
LINE
8
BLACK
6
CONTINUOUS
10
0.411336
20
0.0770935
11
0.410937
21
0.0767586
0
LINE
8
BLACK
6
CONTINUOUS
10
0.410937
20
0.0767586
11
0.398501
21
0.0709552
0
LINE
8
BLACK
6
CONTINUOUS
10
0.398501
20
0.0709552
11
0.423063
21
0.0709552
0
LINE
8
BLACK
6
CONTINUOUS
10
0.423063
20
0.0709552
11
0.426016
21
0.070164
0
LINE
8
BLACK
6
CONTINUOUS
10
0.426016
20
0.070164
11
0.428177
21
0.0680024
0
LINE
8
BLACK
6
CONTINUOUS
10
0.428177
20
0.0680024
11
0.428969
21
0.0650496
0
LINE
8
BLACK
6
CONTINUOUS
10
0.428969
20
0.0650496
11
0.428177
21
0.0620969
0
LINE
8
BLACK
6
CONTINUOUS
10
0.428177
20
0.0620969
11
0.426016
21
0.0599353
0
LINE
8
BLACK
6
CONTINUOUS
10
0.426016
20
0.0599353
11
0.423063
21
0.0591441
0
LINE
8
BLACK
6
CONTINUOUS
10
0.423063
20
0.0591441
11
0.371882
21
0.0591441
0
LINE
8
BLACK
6
CONTINUOUS
10
0.371882
20
0.0591441
11
0.371628
21
0.0592122
0
LINE
8
BLACK
6
CONTINUOUS
10
0.371628
20
0.0592122
11
0.371369
21
0.0591665
0
LINE
8
BLACK
6
CONTINUOUS
10
0.371369
20
0.0591665
11
0.370166
21
0.0596039
0
LINE
8
BLACK
6
CONTINUOUS
10
0.370166
20
0.0596039
11
0.368929
21
0.0599353
0
LINE
8
BLACK
6
CONTINUOUS
10
0.368929
20
0.0599353
11
0.368743
21
0.0601213
0
LINE
8
BLACK
6
CONTINUOUS
10
0.368743
20
0.0601213
11
0.368496
21
0.0602111
0
LINE
8
BLACK
6
CONTINUOUS
10
0.368496
20
0.0602111
11
0.367673
21
0.0611915
0
LINE
8
BLACK
6
CONTINUOUS
10
0.367673
20
0.0611915
11
0.366768
21
0.0620969
0
LINE
8
BLACK
6
CONTINUOUS
10
0.366768
20
0.0620969
11
0.3667
21
0.0623509
0
LINE
8
BLACK
6
CONTINUOUS
10
0.3667
20
0.0623509
11
0.366531
21
0.0625523
0
LINE
8
BLACK
6
CONTINUOUS
10
0.366531
20
0.0625523
11
0.366308
21
0.0638129
0
LINE
8
BLACK
6
CONTINUOUS
10
0.366308
20
0.0638129
11
0.365977
21
0.0650496
0
LINE
8
BLACK
6
CONTINUOUS
10
0.365977
20
0.0650496
11
0.366045
21
0.0653036
0
LINE
8
BLACK
6
CONTINUOUS
10
0.366045
20
0.0653036
11
0.365999
21
0.0655626
0
LINE
8
BLACK
6
CONTINUOUS
10
0.365999
20
0.0655626
11
0.366436
21
0.0667656
0
LINE
8
BLACK
6
CONTINUOUS
10
0.366436
20
0.0667656
11
0.366768
21
0.0680024
0
LINE
8
BLACK
6
CONTINUOUS
10
0.366768
20
0.0680024
11
0.366954
21
0.0681883
0
LINE
8
BLACK
6
CONTINUOUS
10
0.366954
20
0.0681883
11
0.367044
21
0.0684355
0
LINE
8
BLACK
6
CONTINUOUS
10
0.367044
20
0.0684355
11
0.368024
21
0.0692585
0
LINE
8
BLACK
6
CONTINUOUS
10
0.368024
20
0.0692585
11
0.368929
21
0.070164
0
LINE
8
BLACK
6
CONTINUOUS
10
0.368929
20
0.070164
11
0.369183
21
0.070232
0
LINE
8
BLACK
6
CONTINUOUS
10
0.369183
20
0.070232
11
0.369385
21
0.0704011
0
LINE
8
BLACK
6
CONTINUOUS
10
0.369385
20
0.0704011
11
0.394475
21
0.08211
0
LINE
8
BLACK
6
CONTINUOUS
10
0.394475
20
0.08211
11
0.369385
21
0.0938189
0
LINE
8
BLACK
6
CONTINUOUS
10
0.369385
20
0.0938189
11
0.369183
21
0.093988
0
LINE
8
BLACK
6
CONTINUOUS
10
0.369183
20
0.093988
11
0.368929
21
0.0940561
0
LINE
8
BLACK
6
CONTINUOUS
10
0.368929
20
0.0940561
11
0.368024
21
0.0949613
0
LINE
8
BLACK
6
CONTINUOUS
10
0.368024
20
0.0949613
11
0.367044
21
0.0957846
0
LINE
8
BLACK
6
CONTINUOUS
10
0.367044
20
0.0957846
11
0.366954
21
0.0960317
0
LINE
8
BLACK
6
CONTINUOUS
10
0.366954
20
0.0960317
11
0.366768
21
0.0962176
0
LINE
8
BLACK
6
CONTINUOUS
10
0.366768
20
0.0962176
11
0.366436
21
0.0974544
0
LINE
8
BLACK
6
CONTINUOUS
10
0.366436
20
0.0974544
11
0.365999
21
0.0986574
0
LINE
8
BLACK
6
CONTINUOUS
10
0.365999
20
0.0986574
11
0.366045
21
0.0989164
0
LINE
8
BLACK
6
CONTINUOUS
10
0.366045
20
0.0989164
11
0.365977
21
0.0991704
0
LINE
8
BLACK
6
CONTINUOUS
10
0.365977
20
0.0991704
11
0.366308
21
0.100407
0
LINE
8
BLACK
6
CONTINUOUS
10
0.366308
20
0.100407
11
0.366531
21
0.101668
0
LINE
8
BLACK
6
CONTINUOUS
10
0.366531
20
0.101668
11
0.3667
21
0.101869
0
LINE
8
BLACK
6
CONTINUOUS
10
0.3667
20
0.101869
11
0.366768
21
0.102123
0
LINE
8
BLACK
6
CONTINUOUS
10
0.366768
20
0.102123
11
0.367673
21
0.103028
0
LINE
8
BLACK
6
CONTINUOUS
10
0.367673
20
0.103028
11
0.368496
21
0.104009
0
LINE
8
BLACK
6
CONTINUOUS
10
0.368496
20
0.104009
11
0.368743
21
0.104099
0
LINE
8
BLACK
6
CONTINUOUS
10
0.368743
20
0.104099
11
0.368929
21
0.104285
0
LINE
8
BLACK
6
CONTINUOUS
10
0.368929
20
0.104285
11
0.370166
21
0.104616
0
LINE
8
BLACK
6
CONTINUOUS
10
0.370166
20
0.104616
11
0.371369
21
0.105054
0
LINE
8
BLACK
6
CONTINUOUS
10
0.371369
20
0.105054
11
0.371628
21
0.105008
0
LINE
8
BLACK
6
CONTINUOUS
10
0.371628
20
0.105008
11
0.371882
21
0.105076
0
LINE
8
BLACK
6
CONTINUOUS
10
0.371882
20
0.105076
11
0.423063
21
0.105076
0
LINE
8
BLACK
6
CONTINUOUS
10
0.423063
20
0.105076
11
0.426016
21
0.104285
0
LINE
8
BLACK
6
CONTINUOUS
10
0.426981
20
0.196202
11
0.428666
21
0.193651
0
LINE
8
BLACK
6
CONTINUOUS
10
0.428666
20
0.193651
11
0.428849
21
0.1906
0
LINE
8
BLACK
6
CONTINUOUS
10
0.428849
20
0.1906
11
0.427482
21
0.187866
0
LINE
8
BLACK
6
CONTINUOUS
10
0.427482
20
0.187866
11
0.424931
21
0.186181
0
LINE
8
BLACK
6
CONTINUOUS
10
0.424931
20
0.186181
11
0.414346
21
0.182653
0
LINE
8
BLACK
6
CONTINUOUS
10
0.414346
20
0.182653
11
0.414346
21
0.166794
0
LINE
8
BLACK
6
CONTINUOUS
10
0.414346
20
0.166794
11
0.424931
21
0.163266
0
LINE
8
BLACK
6
CONTINUOUS
10
0.424931
20
0.163266
11
0.427482
21
0.161581
0
LINE
8
BLACK
6
CONTINUOUS
10
0.427482
20
0.161581
11
0.428849
21
0.158847
0
LINE
8
BLACK
6
CONTINUOUS
10
0.428849
20
0.158847
11
0.428666
21
0.155796
0
LINE
8
BLACK
6
CONTINUOUS
10
0.428666
20
0.155796
11
0.426981
21
0.153245
0
LINE
8
BLACK
6
CONTINUOUS
10
0.426981
20
0.153245
11
0.426194
21
0.152851
0
LINE
8
BLACK
6
CONTINUOUS
10
0.426194
20
0.152851
11
0.428177
21
0.150867
0
LINE
8
BLACK
6
CONTINUOUS
10
0.428177
20
0.150867
11
0.428969
21
0.147914
0
LINE
8
BLACK
6
CONTINUOUS
10
0.428969
20
0.147914
11
0.428969
21
0.123542
0
LINE
8
BLACK
6
CONTINUOUS
10
0.428969
20
0.123542
11
0.428177
21
0.12059
0
LINE
8
BLACK
6
CONTINUOUS
10
0.428177
20
0.12059
11
0.426016
21
0.118428
0
LINE
8
BLACK
6
CONTINUOUS
10
0.426016
20
0.118428
11
0.423063
21
0.117637
0
LINE
8
BLACK
6
CONTINUOUS
10
0.423063
20
0.117637
11
0.371882
21
0.117637
0
LINE
8
BLACK
6
CONTINUOUS
10
0.371882
20
0.117637
11
0.368929
21
0.118428
0
LINE
8
BLACK
6
CONTINUOUS
10
0.368929
20
0.118428
11
0.366768
21
0.12059
0
LINE
8
BLACK
6
CONTINUOUS
10
0.366768
20
0.12059
11
0.365977
21
0.123542
0
LINE
8
BLACK
6
CONTINUOUS
10
0.365977
20
0.123542
11
0.366768
21
0.126495
0
LINE
8
BLACK
6
CONTINUOUS
10
0.366768
20
0.126495
11
0.368929
21
0.128657
0
LINE
8
BLACK
6
CONTINUOUS
10
0.368929
20
0.128657
11
0.371882
21
0.129448
0
LINE
8
BLACK
6
CONTINUOUS
10
0.371882
20
0.129448
11
0.417158
21
0.129448
0
LINE
8
BLACK
6
CONTINUOUS
10
0.417158
20
0.129448
11
0.417158
21
0.147914
0
LINE
8
BLACK
6
CONTINUOUS
10
0.417158
20
0.147914
11
0.417949
21
0.150867
0
LINE
8
BLACK
6
CONTINUOUS
10
0.417949
20
0.150867
11
0.419656
21
0.152574
0
LINE
8
BLACK
6
CONTINUOUS
10
0.419656
20
0.152574
11
0.370015
21
0.169121
0
LINE
8
BLACK
6
CONTINUOUS
10
0.370015
20
0.169121
11
0.369025
21
0.169774
0
LINE
8
BLACK
6
CONTINUOUS
10
0.369025
20
0.169774
11
0.367964
21
0.170305
0
LINE
8
BLACK
6
CONTINUOUS
10
0.367964
20
0.170305
11
0.367765
21
0.170606
0
LINE
8
BLACK
6
CONTINUOUS
10
0.367765
20
0.170606
11
0.367464
21
0.170805
0
LINE
8
BLACK
6
CONTINUOUS
10
0.367464
20
0.170805
11
0.366933
21
0.171866
0
LINE
8
BLACK
6
CONTINUOUS
10
0.366933
20
0.171866
11
0.36628
21
0.172856
0
LINE
8
BLACK
6
CONTINUOUS
10
0.36628
20
0.172856
11
0.366258
21
0.173216
0
LINE
8
BLACK
6
CONTINUOUS
10
0.366258
20
0.173216
11
0.366096
21
0.173539
0
LINE
8
BLACK
6
CONTINUOUS
10
0.366096
20
0.173539
11
0.366167
21
0.174724
0
LINE
8
BLACK
6
CONTINUOUS
10
0.366167
20
0.174724
11
0.366096
21
0.175907
0
LINE
8
BLACK
6
CONTINUOUS
10
0.366096
20
0.175907
11
0.366258
21
0.17623
0
LINE
8
BLACK
6
CONTINUOUS
10
0.366258
20
0.17623
11
0.36628
21
0.176591
0
LINE
8
BLACK
6
CONTINUOUS
10
0.36628
20
0.176591
11
0.366933
21
0.177581
0
LINE
8
BLACK
6
CONTINUOUS
10
0.366933
20
0.177581
11
0.367464
21
0.178642
0
LINE
8
BLACK
6
CONTINUOUS
10
0.367464
20
0.178642
11
0.367765
21
0.178841
0
LINE
8
BLACK
6
CONTINUOUS
10
0.367765
20
0.178841
11
0.367964
21
0.179142
0
LINE
8
BLACK
6
CONTINUOUS
10
0.367964
20
0.179142
11
0.369025
21
0.179672
0
LINE
8
BLACK
6
CONTINUOUS
10
0.369025
20
0.179672
11
0.370015
21
0.180326
0
LINE
8
BLACK
6
CONTINUOUS
10
0.370015
20
0.180326
11
0.421196
21
0.197386
0
LINE
8
BLACK
6
CONTINUOUS
10
0.421196
20
0.197386
11
0.424247
21
0.197569
0
LINE
8
BLACK
6
CONTINUOUS
10
0.424247
20
0.197569
11
0.426981
21
0.196202
0
LINE
8
BLACK
6
CONTINUOUS
10
0.390557
20
0.174723
11
0.402534
21
0.170731
0
LINE
8
BLACK
6
CONTINUOUS
10
0.402534
20
0.170731
11
0.402534
21
0.178716
0
LINE
8
BLACK
6
CONTINUOUS
10
0.402534
20
0.178716
11
0.390557
21
0.174723
0
LINE
8
BLACK
6
CONTINUOUS
10
0.414625
20
0.243645
11
0.415955
21
0.243373
0
LINE
8
BLACK
6
CONTINUOUS
10
0.415955
20
0.243373
11
0.42083
21
0.240935
0
LINE
8
BLACK
6
CONTINUOUS
10
0.42083
20
0.240935
11
0.421541
21
0.240305
0
LINE
8
BLACK
6
CONTINUOUS
10
0.421541
20
0.240305
11
0.422365
21
0.239829
0
LINE
8
BLACK
6
CONTINUOUS
10
0.422365
20
0.239829
11
0.424802
21
0.237392
0
LINE
8
BLACK
6
CONTINUOUS
10
0.424802
20
0.237392
11
0.425277
21
0.236569
0
LINE
8
BLACK
6
CONTINUOUS
10
0.425277
20
0.236569
11
0.425908
21
0.235857
0
LINE
8
BLACK
6
CONTINUOUS
10
0.425908
20
0.235857
11
0.428345
21
0.230983
0
LINE
8
BLACK
6
CONTINUOUS
10
0.428345
20
0.230983
11
0.428617
21
0.229653
0
LINE
8
BLACK
6
CONTINUOUS
10
0.428617
20
0.229653
11
0.428969
21
0.228342
0
LINE
8
BLACK
6
CONTINUOUS
10
0.428969
20
0.228342
11
0.428969
21
0.208844
0
LINE
8
BLACK
6
CONTINUOUS
10
0.428969
20
0.208844
11
0.428177
21
0.205891
0
LINE
8
BLACK
6
CONTINUOUS
10
0.428177
20
0.205891
11
0.426016
21
0.20373
0
LINE
8
BLACK
6
CONTINUOUS
10
0.426016
20
0.20373
11
0.423063
21
0.202939
0
LINE
8
BLACK
6
CONTINUOUS
10
0.423063
20
0.202939
11
0.396254
21
0.202939
0
LINE
8
BLACK
6
CONTINUOUS
10
0.396254
20
0.202939
11
0.371882
21
0.202939
0
LINE
8
BLACK
6
CONTINUOUS
10
0.371882
20
0.202939
11
0.368929
21
0.20373
0
LINE
8
BLACK
6
CONTINUOUS
10
0.368929
20
0.20373
11
0.366768
21
0.205891
0
LINE
8
BLACK
6
CONTINUOUS
10
0.366768
20
0.205891
11
0.365977
21
0.208844
0
LINE
8
BLACK
6
CONTINUOUS
10
0.365977
20
0.208844
11
0.365977
21
0.225905
0
LINE
8
BLACK
6
CONTINUOUS
10
0.365977
20
0.225905
11
0.366328
21
0.227216
0
LINE
8
BLACK
6
CONTINUOUS
10
0.366328
20
0.227216
11
0.3666
21
0.228546
0
LINE
8
BLACK
6
CONTINUOUS
10
0.3666
20
0.228546
11
0.369037
21
0.23342
0
LINE
8
BLACK
6
CONTINUOUS
10
0.369037
20
0.23342
11
0.369668
21
0.234131
0
LINE
8
BLACK
6
CONTINUOUS
10
0.369668
20
0.234131
11
0.370143
21
0.234955
0
LINE
8
BLACK
6
CONTINUOUS
10
0.370143
20
0.234955
11
0.372581
21
0.237392
0
LINE
8
BLACK
6
CONTINUOUS
10
0.372581
20
0.237392
11
0.373404
21
0.237867
0
LINE
8
BLACK
6
CONTINUOUS
10
0.373404
20
0.237867
11
0.374115
21
0.238498
0
LINE
8
BLACK
6
CONTINUOUS
10
0.374115
20
0.238498
11
0.37899
21
0.240935
0
LINE
8
BLACK
6
CONTINUOUS
10
0.37899
20
0.240935
11
0.38032
21
0.241208
0
LINE
8
BLACK
6
CONTINUOUS
10
0.38032
20
0.241208
11
0.381631
21
0.241559
0
LINE
8
BLACK
6
CONTINUOUS
10
0.381631
20
0.241559
11
0.386505
21
0.241559
0
LINE
8
BLACK
6
CONTINUOUS
10
0.386505
20
0.241559
11
0.387816
21
0.241208
0
LINE
8
BLACK
6
CONTINUOUS
10
0.387816
20
0.241208
11
0.389146
21
0.240935
0
LINE
8
BLACK
6
CONTINUOUS
10
0.389146
20
0.240935
11
0.394021
21
0.238498
0
LINE
8
BLACK
6
CONTINUOUS
10
0.394021
20
0.238498
11
0.394732
21
0.237867
0
LINE
8
BLACK
6
CONTINUOUS
10
0.394732
20
0.237867
11
0.394896
21
0.237773
0
LINE
8
BLACK
6
CONTINUOUS
10
0.394896
20
0.237773
11
0.396953
21
0.239829
0
LINE
8
BLACK
6
CONTINUOUS
10
0.396953
20
0.239829
11
0.397776
21
0.240305
0
LINE
8
BLACK
6
CONTINUOUS
10
0.397776
20
0.240305
11
0.398487
21
0.240935
0
LINE
8
BLACK
6
CONTINUOUS
10
0.398487
20
0.240935
11
0.403362
21
0.243373
0
LINE
8
BLACK
6
CONTINUOUS
10
0.403362
20
0.243373
11
0.404691
21
0.243645
0
LINE
8
BLACK
6
CONTINUOUS
10
0.404691
20
0.243645
11
0.406003
21
0.243996
0
LINE
8
BLACK
6
CONTINUOUS
10
0.406003
20
0.243996
11
0.413314
21
0.243996
0
LINE
8
BLACK
6
CONTINUOUS
10
0.413314
20
0.243996
11
0.414625
21
0.243645
0
LINE
8
BLACK
6
CONTINUOUS
10
0.380255
20
0.228363
11
0.379173
21
0.227281
0
LINE
8
BLACK
6
CONTINUOUS
10
0.379173
20
0.227281
11
0.377788
21
0.22451
0
LINE
8
BLACK
6
CONTINUOUS
10
0.377788
20
0.22451
11
0.377788
21
0.21475
0
LINE
8
BLACK
6
CONTINUOUS
10
0.377788
20
0.21475
11
0.390349
21
0.21475
0
LINE
8
BLACK
6
CONTINUOUS
10
0.390349
20
0.21475
11
0.390349
21
0.22451
0
LINE
8
BLACK
6
CONTINUOUS
10
0.390349
20
0.22451
11
0.388963
21
0.227281
0
LINE
8
BLACK
6
CONTINUOUS
10
0.388963
20
0.227281
11
0.387881
21
0.228363
0
LINE
8
BLACK
6
CONTINUOUS
10
0.387881
20
0.228363
11
0.385111
21
0.229748
0
LINE
8
BLACK
6
CONTINUOUS
10
0.385111
20
0.229748
11
0.383025
21
0.229748
0
LINE
8
BLACK
6
CONTINUOUS
10
0.383025
20
0.229748
11
0.380255
21
0.228363
0
LINE
8
BLACK
6
CONTINUOUS
10
0.404627
20
0.2308
11
0.403853
21
0.230026
0
LINE
8
BLACK
6
CONTINUOUS
10
0.403853
20
0.230026
11
0.40216
21
0.224946
0
LINE
8
BLACK
6
CONTINUOUS
10
0.40216
20
0.224946
11
0.40216
21
0.21475
0
LINE
8
BLACK
6
CONTINUOUS
10
0.40216
20
0.21475
11
0.417158
21
0.21475
0
LINE
8
BLACK
6
CONTINUOUS
10
0.417158
20
0.21475
11
0.417158
21
0.226948
0
LINE
8
BLACK
6
CONTINUOUS
10
0.417158
20
0.226948
11
0.415772
21
0.229718
0
LINE
8
BLACK
6
CONTINUOUS
10
0.415772
20
0.229718
11
0.414691
21
0.2308
0
LINE
8
BLACK
6
CONTINUOUS
10
0.414691
20
0.2308
11
0.41192
21
0.232185
0
LINE
8
BLACK
6
CONTINUOUS
10
0.41192
20
0.232185
11
0.407397
21
0.232185
0
LINE
8
BLACK
6
CONTINUOUS
10
0.407397
20
0.232185
11
0.404627
21
0.2308
0
LINE
8
BLACK
6
CONTINUOUS
10
0.423683
20
0.267284
11
0.424802
21
0.266638
0
LINE
8
BLACK
6
CONTINUOUS
10
0.424802
20
0.266638
11
0.424802
21
0.266638
0
LINE
8
BLACK
6
CONTINUOUS
10
0.424802
20
0.266638
11
0.424802
21
0.266638
0
LINE
8
BLACK
6
CONTINUOUS
10
0.424802
20
0.266638
11
0.427239
21
0.264201
0
LINE
8
BLACK
6
CONTINUOUS
10
0.427239
20
0.264201
11
0.42736
21
0.263991
0
LINE
8
BLACK
6
CONTINUOUS
10
0.42736
20
0.263991
11
0.427628
21
0.263528
0
LINE
8
BLACK
6
CONTINUOUS
10
0.427628
20
0.263528
11
0.428177
21
0.262978
0
LINE
8
BLACK
6
CONTINUOUS
10
0.428177
20
0.262978
11
0.428379
21
0.262227
0
LINE
8
BLACK
6
CONTINUOUS
10
0.428379
20
0.262227
11
0.428767
21
0.261554
0
LINE
8
BLACK
6
CONTINUOUS
10
0.428767
20
0.261554
11
0.428767
21
0.261554
0
LINE
8
BLACK
6
CONTINUOUS
10
0.428767
20
0.261554
11
0.428767
21
0.260776
0
LINE
8
BLACK
6
CONTINUOUS
10
0.428767
20
0.260776
11
0.428969
21
0.260025
0
LINE
8
BLACK
6
CONTINUOUS
10
0.428969
20
0.260025
11
0.428767
21
0.259274
0
LINE
8
BLACK
6
CONTINUOUS
10
0.428767
20
0.259274
11
0.428767
21
0.258497
0
LINE
8
BLACK
6
CONTINUOUS
10
0.428767
20
0.258497
11
0.428379
21
0.257823
0
LINE
8
BLACK
6
CONTINUOUS
10
0.428379
20
0.257823
11
0.428177
21
0.257073
0
LINE
8
BLACK
6
CONTINUOUS
10
0.428177
20
0.257073
11
0.427628
21
0.256523
0
LINE
8
BLACK
6
CONTINUOUS
10
0.427628
20
0.256523
11
0.427239
21
0.255849
0
LINE
8
BLACK
6
CONTINUOUS
10
0.427239
20
0.255849
11
0.424802
21
0.253412
0
LINE
8
BLACK
6
CONTINUOUS
10
0.424802
20
0.253412
11
0.424802
21
0.253412
0
LINE
8
BLACK
6
CONTINUOUS
10
0.424802
20
0.253412
11
0.422154
21
0.251884
0
LINE
8
BLACK
6
CONTINUOUS
10
0.422154
20
0.251884
11
0.419098
21
0.251884
0
LINE
8
BLACK
6
CONTINUOUS
10
0.419098
20
0.251884
11
0.419098
21
0.251884
0
LINE
8
BLACK
6
CONTINUOUS
10
0.419098
20
0.251884
11
0.417569
21
0.252766
0
LINE
8
BLACK
6
CONTINUOUS
10
0.417569
20
0.252766
11
0.41645
21
0.253412
0
LINE
8
BLACK
6
CONTINUOUS
10
0.41645
20
0.253412
11
0.414013
21
0.255849
0
LINE
8
BLACK
6
CONTINUOUS
10
0.414013
20
0.255849
11
0.414013
21
0.255849
0
LINE
8
BLACK
6
CONTINUOUS
10
0.414013
20
0.255849
11
0.413624
21
0.256523
0
LINE
8
BLACK
6
CONTINUOUS
10
0.413624
20
0.256523
11
0.413074
21
0.257073
0
LINE
8
BLACK
6
CONTINUOUS
10
0.413074
20
0.257073
11
0.412873
21
0.257823
0
LINE
8
BLACK
6
CONTINUOUS
10
0.412873
20
0.257823
11
0.412484
21
0.258497
0
LINE
8
BLACK
6
CONTINUOUS
10
0.412484
20
0.258497
11
0.412484
21
0.259274
0
LINE
8
BLACK
6
CONTINUOUS
10
0.412484
20
0.259274
11
0.412283
21
0.260025
0
LINE
8
BLACK
6
CONTINUOUS
10
0.412283
20
0.260025
11
0.412484
21
0.260776
0
LINE
8
BLACK
6
CONTINUOUS
10
0.412484
20
0.260776
11
0.412484
21
0.261554
0
LINE
8
BLACK
6
CONTINUOUS
10
0.412484
20
0.261554
11
0.412484
21
0.261554
0
LINE
8
BLACK
6
CONTINUOUS
10
0.412484
20
0.261554
11
0.412873
21
0.262227
0
LINE
8
BLACK
6
CONTINUOUS
10
0.412873
20
0.262227
11
0.413074
21
0.262978
0
LINE
8
BLACK
6
CONTINUOUS
10
0.413074
20
0.262978
11
0.413624
21
0.263528
0
LINE
8
BLACK
6
CONTINUOUS
10
0.413624
20
0.263528
11
0.413892
21
0.263991
0
LINE
8
BLACK
6
CONTINUOUS
10
0.413892
20
0.263991
11
0.414013
21
0.264201
0
LINE
8
BLACK
6
CONTINUOUS
10
0.414013
20
0.264201
11
0.414013
21
0.264201
0
LINE
8
BLACK
6
CONTINUOUS
10
0.414013
20
0.264201
11
0.41645
21
0.266638
0
LINE
8
BLACK
6
CONTINUOUS
10
0.41645
20
0.266638
11
0.41645
21
0.266638
0
LINE
8
BLACK
6
CONTINUOUS
10
0.41645
20
0.266638
11
0.417569
21
0.267284
0
LINE
8
BLACK
6
CONTINUOUS
10
0.417569
20
0.267284
11
0.419098
21
0.268167
0
LINE
8
BLACK
6
CONTINUOUS
10
0.419098
20
0.268167
11
0.422154
21
0.268167
0
LINE
8
BLACK
6
CONTINUOUS
10
0.422154
20
0.268167
11
0.422154
21
0.268167
0
LINE
8
BLACK
6
CONTINUOUS
10
0.422154
20
0.268167
11
0.423683
21
0.267284
0
LINE
8
BLACK
6
CONTINUOUS
10
0.380932
20
0.317819
11
0.382461
21
0.315172
0
LINE
8
BLACK
6
CONTINUOUS
10
0.382461
20
0.315172
11
0.382461
21
0.312115
0
LINE
8
BLACK
6
CONTINUOUS
10
0.382461
20
0.312115
11
0.380932
21
0.309468
0
LINE
8
BLACK
6
CONTINUOUS
10
0.380932
20
0.309468
11
0.379481
21
0.308016
0
LINE
8
BLACK
6
CONTINUOUS
10
0.379481
20
0.308016
11
0.377788
21
0.302936
0
LINE
8
BLACK
6
CONTINUOUS
10
0.377788
20
0.302936
11
0.377788
21
0.299979
0
LINE
8
BLACK
6
CONTINUOUS
10
0.377788
20
0.299979
11
0.379481
21
0.294899
0
LINE
8
BLACK
6
CONTINUOUS
10
0.379481
20
0.294899
11
0.382692
21
0.291688
0
LINE
8
BLACK
6
CONTINUOUS
10
0.382692
20
0.291688
11
0.386129
21
0.289969
0
LINE
8
BLACK
6
CONTINUOUS
10
0.386129
20
0.289969
11
0.394544
21
0.287866
0
LINE
8
BLACK
6
CONTINUOUS
10
0.394544
20
0.287866
11
0.400401
21
0.287866
0
LINE
8
BLACK
6
CONTINUOUS
10
0.400401
20
0.287866
11
0.408816
21
0.289969
0
LINE
8
BLACK
6
CONTINUOUS
10
0.408816
20
0.289969
11
0.412253
21
0.291688
0
LINE
8
BLACK
6
CONTINUOUS
10
0.412253
20
0.291688
11
0.415464
21
0.294899
0
LINE
8
BLACK
6
CONTINUOUS
10
0.415464
20
0.294899
11
0.417158
21
0.299979
0
LINE
8
BLACK
6
CONTINUOUS
10
0.417158
20
0.299979
11
0.417158
21
0.302936
0
LINE
8
BLACK
6
CONTINUOUS
10
0.417158
20
0.302936
11
0.415464
21
0.308016
0
LINE
8
BLACK
6
CONTINUOUS
10
0.415464
20
0.308016
11
0.414013
21
0.309468
0
LINE
8
BLACK
6
CONTINUOUS
10
0.414013
20
0.309468
11
0.412484
21
0.312115
0
LINE
8
BLACK
6
CONTINUOUS
10
0.412484
20
0.312115
11
0.412484
21
0.315172
0
LINE
8
BLACK
6
CONTINUOUS
10
0.412484
20
0.315172
11
0.414013
21
0.317819
0
LINE
8
BLACK
6
CONTINUOUS
10
0.414013
20
0.317819
11
0.41666
21
0.319348
0
LINE
8
BLACK
6
CONTINUOUS
10
0.41666
20
0.319348
11
0.419717
21
0.319348
0
LINE
8
BLACK
6
CONTINUOUS
10
0.419717
20
0.319348
11
0.422365
21
0.317819
0
LINE
8
BLACK
6
CONTINUOUS
10
0.422365
20
0.317819
11
0.424802
21
0.315382
0
LINE
8
BLACK
6
CONTINUOUS
10
0.424802
20
0.315382
11
0.425481
21
0.314207
0
LINE
8
BLACK
6
CONTINUOUS
10
0.425481
20
0.314207
11
0.426228
21
0.313074
0
LINE
8
BLACK
6
CONTINUOUS
10
0.426228
20
0.313074
11
0.428666
21
0.305762
0
LINE
8
BLACK
6
CONTINUOUS
10
0.428666
20
0.305762
11
0.428723
21
0.304813
0
LINE
8
BLACK
6
CONTINUOUS
10
0.428723
20
0.304813
11
0.428969
21
0.303895
0
LINE
8
BLACK
6
CONTINUOUS
10
0.428969
20
0.303895
11
0.428969
21
0.29902
0
LINE
8
BLACK
6
CONTINUOUS
10
0.428969
20
0.29902
11
0.428723
21
0.298102
0
LINE
8
BLACK
6
CONTINUOUS
10
0.428723
20
0.298102
11
0.428666
21
0.297153
0
LINE
8
BLACK
6
CONTINUOUS
10
0.428666
20
0.297153
11
0.426228
21
0.289841
0
LINE
8
BLACK
6
CONTINUOUS
10
0.426228
20
0.289841
11
0.42548
21
0.288708
0
LINE
8
BLACK
6
CONTINUOUS
10
0.42548
20
0.288708
11
0.424802
21
0.287533
0
LINE
8
BLACK
6
CONTINUOUS
10
0.424802
20
0.287533
11
0.419927
21
0.282659
0
LINE
8
BLACK
6
CONTINUOUS
10
0.419927
20
0.282659
11
0.419104
21
0.282183
0
LINE
8
BLACK
6
CONTINUOUS
10
0.419104
20
0.282183
11
0.418393
21
0.281552
0
LINE
8
BLACK
6
CONTINUOUS
10
0.418393
20
0.281552
11
0.413518
21
0.279115
0
LINE
8
BLACK
6
CONTINUOUS
10
0.413518
20
0.279115
11
0.412879
21
0.278984
0
LINE
8
BLACK
6
CONTINUOUS
10
0.412879
20
0.278984
11
0.412309
21
0.278668
0
LINE
8
BLACK
6
CONTINUOUS
10
0.412309
20
0.278668
11
0.402561
21
0.276231
0
LINE
8
BLACK
6
CONTINUOUS
10
0.402561
20
0.276231
11
0.401832
21
0.276243
0
LINE
8
BLACK
6
CONTINUOUS
10
0.401832
20
0.276243
11
0.401128
21
0.276055
0
LINE
8
BLACK
6
CONTINUOUS
10
0.401128
20
0.276055
11
0.393817
21
0.276055
0
LINE
8
BLACK
6
CONTINUOUS
10
0.393817
20
0.276055
11
0.393113
21
0.276243
0
LINE
8
BLACK
6
CONTINUOUS
10
0.393113
20
0.276243
11
0.392385
21
0.276231
0
LINE
8
BLACK
6
CONTINUOUS
10
0.392385
20
0.276231
11
0.382636
21
0.278668
0
LINE
8
BLACK
6
CONTINUOUS
10
0.382636
20
0.278668
11
0.382066
21
0.278984
0
LINE
8
BLACK
6
CONTINUOUS
10
0.382066
20
0.278984
11
0.381427
21
0.279115
0
LINE
8
BLACK
6
CONTINUOUS
10
0.381427
20
0.279115
11
0.376553
21
0.281552
0
LINE
8
BLACK
6
CONTINUOUS
10
0.376553
20
0.281552
11
0.375841
21
0.282183
0
LINE
8
BLACK
6
CONTINUOUS
10
0.375841
20
0.282183
11
0.375018
21
0.282659
0
LINE
8
BLACK
6
CONTINUOUS
10
0.375018
20
0.282659
11
0.370143
21
0.287533
0
LINE
8
BLACK
6
CONTINUOUS
10
0.370143
20
0.287533
11
0.369465
21
0.288709
0
LINE
8
BLACK
6
CONTINUOUS
10
0.369465
20
0.288709
11
0.368717
21
0.289841
0
LINE
8
BLACK
6
CONTINUOUS
10
0.368717
20
0.289841
11
0.36628
21
0.297153
0
LINE
8
BLACK
6
CONTINUOUS
10
0.36628
20
0.297153
11
0.366223
21
0.298102
0
LINE
8
BLACK
6
CONTINUOUS
10
0.366223
20
0.298102
11
0.365977
21
0.29902
0
LINE
8
BLACK
6
CONTINUOUS
10
0.365977
20
0.29902
11
0.365977
21
0.303895
0
LINE
8
BLACK
6
CONTINUOUS
10
0.365977
20
0.303895
11
0.366223
21
0.304813
0
LINE
8
BLACK
6
CONTINUOUS
10
0.366223
20
0.304813
11
0.36628
21
0.305762
0
LINE
8
BLACK
6
CONTINUOUS
10
0.36628
20
0.305762
11
0.368717
21
0.313074
0
LINE
8
BLACK
6
CONTINUOUS
10
0.368717
20
0.313074
11
0.369465
21
0.314207
0
LINE
8
BLACK
6
CONTINUOUS
10
0.369465
20
0.314207
11
0.370143
21
0.315382
0
LINE
8
BLACK
6
CONTINUOUS
10
0.370143
20
0.315382
11
0.372581
21
0.317819
0
LINE
8
BLACK
6
CONTINUOUS
10
0.372581
20
0.317819
11
0.375228
21
0.319348
0
LINE
8
BLACK
6
CONTINUOUS
10
0.375228
20
0.319348
11
0.378285
21
0.319348
0
LINE
8
BLACK
6
CONTINUOUS
10
0.378285
20
0.319348
11
0.380932
21
0.317819
0
LINE
8
BLACK
6
CONTINUOUS
10
0.426016
20
0.369939
11
0.428177
21
0.367777
0
LINE
8
BLACK
6
CONTINUOUS
10
0.428177
20
0.367777
11
0.428969
21
0.364825
0
LINE
8
BLACK
6
CONTINUOUS
10
0.428969
20
0.364825
11
0.428969
21
0.330704
0
LINE
8
BLACK
6
CONTINUOUS
10
0.428969
20
0.330704
11
0.428918
21
0.330515
0
LINE
8
BLACK
6
CONTINUOUS
10
0.428918
20
0.330515
11
0.428956
21
0.330324
0
LINE
8
BLACK
6
CONTINUOUS
10
0.428956
20
0.330324
11
0.428526
21
0.32905
0
LINE
8
BLACK
6
CONTINUOUS
10
0.428526
20
0.32905
11
0.428177
21
0.327751
0
LINE
8
BLACK
6
CONTINUOUS
10
0.428177
20
0.327751
11
0.428039
21
0.327613
0
LINE
8
BLACK
6
CONTINUOUS
10
0.428039
20
0.327613
11
0.427977
21
0.327428
0
LINE
8
BLACK
6
CONTINUOUS
10
0.427977
20
0.327428
11
0.426967
21
0.326541
0
LINE
8
BLACK
6
CONTINUOUS
10
0.426967
20
0.326541
11
0.426016
21
0.32559
0
LINE
8
BLACK
6
CONTINUOUS
10
0.426016
20
0.32559
11
0.425827
21
0.325539
0
LINE
8
BLACK
6
CONTINUOUS
10
0.425827
20
0.325539
11
0.425681
21
0.32541
0
LINE
8
BLACK
6
CONTINUOUS
10
0.425681
20
0.32541
11
0.424362
21
0.325147
0
LINE
8
BLACK
6
CONTINUOUS
10
0.424362
20
0.325147
11
0.423063
21
0.324798
0
LINE
8
BLACK
6
CONTINUOUS
10
0.423063
20
0.324798
11
0.422875
21
0.324849
0
LINE
8
BLACK
6
CONTINUOUS
10
0.422875
20
0.324849
11
0.422683
21
0.324811
0
LINE
8
BLACK
6
CONTINUOUS
10
0.422683
20
0.324811
11
0.421409
21
0.325242
0
LINE
8
BLACK
6
CONTINUOUS
10
0.421409
20
0.325242
11
0.42011
21
0.32559
0
LINE
8
BLACK
6
CONTINUOUS
10
0.42011
20
0.32559
11
0.419972
21
0.325728
0
LINE
8
BLACK
6
CONTINUOUS
10
0.419972
20
0.325728
11
0.419787
21
0.32579
0
LINE
8
BLACK
6
CONTINUOUS
10
0.419787
20
0.32579
11
0.377788
21
0.35379
0
LINE
8
BLACK
6
CONTINUOUS
10
0.377788
20
0.35379
11
0.377788
21
0.330704
0
LINE
8
BLACK
6
CONTINUOUS
10
0.377788
20
0.330704
11
0.376996
21
0.327751
0
LINE
8
BLACK
6
CONTINUOUS
10
0.376996
20
0.327751
11
0.374835
21
0.32559
0
LINE
8
BLACK
6
CONTINUOUS
10
0.374835
20
0.32559
11
0.371882
21
0.324798
0
LINE
8
BLACK
6
CONTINUOUS
10
0.371882
20
0.324798
11
0.368929
21
0.32559
0
LINE
8
BLACK
6
CONTINUOUS
10
0.368929
20
0.32559
11
0.366768
21
0.327751
0
LINE
8
BLACK
6
CONTINUOUS
10
0.366768
20
0.327751
11
0.365977
21
0.330704
0
LINE
8
BLACK
6
CONTINUOUS
10
0.365977
20
0.330704
11
0.365977
21
0.364825
0
LINE
8
BLACK
6
CONTINUOUS
10
0.365977
20
0.364825
11
0.366027
21
0.365013
0
LINE
8
BLACK
6
CONTINUOUS
10
0.366027
20
0.365013
11
0.365989
21
0.365205
0
LINE
8
BLACK
6
CONTINUOUS
10
0.365989
20
0.365205
11
0.36642
21
0.366479
0
LINE
8
BLACK
6
CONTINUOUS
10
0.36642
20
0.366479
11
0.366768
21
0.367777
0
LINE
8
BLACK
6
CONTINUOUS
10
0.366768
20
0.367777
11
0.366906
21
0.367915
0
LINE
8
BLACK
6
CONTINUOUS
10
0.366906
20
0.367915
11
0.366968
21
0.3681
0
LINE
8
BLACK
6
CONTINUOUS
10
0.366968
20
0.3681
11
0.367979
21
0.368988
0
LINE
8
BLACK
6
CONTINUOUS
10
0.367979
20
0.368988
11
0.368929
21
0.369939
0
LINE
8
BLACK
6
CONTINUOUS
10
0.368929
20
0.369939
11
0.369118
21
0.36999
0
LINE
8
BLACK
6
CONTINUOUS
10
0.369118
20
0.36999
11
0.369265
21
0.370118
0
LINE
8
BLACK
6
CONTINUOUS
10
0.369265
20
0.370118
11
0.370583
21
0.370382
0
LINE
8
BLACK
6
CONTINUOUS
10
0.370583
20
0.370382
11
0.371882
21
0.37073
0
LINE
8
BLACK
6
CONTINUOUS
10
0.371882
20
0.37073
11
0.372071
21
0.37068
0
LINE
8
BLACK
6
CONTINUOUS
10
0.372071
20
0.37068
11
0.372262
21
0.370718
0
LINE
8
BLACK
6
CONTINUOUS
10
0.372262
20
0.370718
11
0.373536
21
0.370287
0
LINE
8
BLACK
6
CONTINUOUS
10
0.373536
20
0.370287
11
0.374835
21
0.369939
0
LINE
8
BLACK
6
CONTINUOUS
10
0.374835
20
0.369939
11
0.374973
21
0.369801
0
LINE
8
BLACK
6
CONTINUOUS
10
0.374973
20
0.369801
11
0.375158
21
0.369738
0
LINE
8
BLACK
6
CONTINUOUS
10
0.375158
20
0.369738
11
0.417158
21
0.341739
0
LINE
8
BLACK
6
CONTINUOUS
10
0.417158
20
0.341739
11
0.417158
21
0.364825
0
LINE
8
BLACK
6
CONTINUOUS
10
0.417158
20
0.364825
11
0.417949
21
0.367777
0
LINE
8
BLACK
6
CONTINUOUS
10
0.417949
20
0.367777
11
0.42011
21
0.369939
0
LINE
8
BLACK
6
CONTINUOUS
10
0.42011
20
0.369939
11
0.423063
21
0.37073
0
LINE
8
BLACK
6
CONTINUOUS
10
0.423063
20
0.37073
11
0.426016
21
0.369939
0
LINE
8
BLACK
6
CONTINUOUS
10
0.51
20
0.4175
11
0.45
21
0.4175
0
LINE
8
BLACK
6
CONTINUOUS
10
0.45
20
0.4175
11
0.45
21
0.4775
0
LINE
8
BLACK
6
CONTINUOUS
10
0.45
20
0.4775
11
0.51
21
0.4775
0
LINE
8
BLACK
6
CONTINUOUS
10
0.51
20
0.4775
11
0.51
21
0.4175
0
LINE
8
BLACK
6
CONTINUOUS
10
0.61
20
0.4175
11
0.55
21
0.4175
0
LINE
8
BLACK
6
CONTINUOUS
10
0.55
20
0.4175
11
0.55
21
0.4775
0
LINE
8
BLACK
6
CONTINUOUS
10
0.55
20
0.4775
11
0.61
21
0.4775
0
LINE
8
BLACK
6
CONTINUOUS
10
0.61
20
0.4775
11
0.61
21
0.4175
0
LINE
8
BLACK
6
CONTINUOUS
10
0.51
20
0.5175
11
0.45
21
0.5175
0
LINE
8
BLACK
6
CONTINUOUS
10
0.45
20
0.5175
11
0.45
21
0.5775
0
LINE
8
BLACK
6
CONTINUOUS
10
0.45
20
0.5775
11
0.51
21
0.5775
0
LINE
8
BLACK
6
CONTINUOUS
10
0.51
20
0.5775
11
0.51
21
0.5175
0
LINE
8
BLACK
6
CONTINUOUS
10
0.61
20
0.5175
11
0.55
21
0.5175
0
LINE
8
BLACK
6
CONTINUOUS
10
0.55
20
0.5175
11
0.55
21
0.5775
0
LINE
8
BLACK
6
CONTINUOUS
10
0.55
20
0.5775
11
0.61
21
0.5775
0
LINE
8
BLACK
6
CONTINUOUS
10
0.61
20
0.5775
11
0.61
21
0.5175
0
LINE
8
BLACK
6
CONTINUOUS
10
0.51
20
0.6175
11
0.45
21
0.6175
0
LINE
8
BLACK
6
CONTINUOUS
10
0.45
20
0.6175
11
0.45
21
0.6775
0
LINE
8
BLACK
6
CONTINUOUS
10
0.45
20
0.6775
11
0.51
21
0.6775
0
LINE
8
BLACK
6
CONTINUOUS
10
0.51
20
0.6775
11
0.51
21
0.6175
0
LINE
8
BLACK
6
CONTINUOUS
10
0.61
20
0.6175
11
0.55
21
0.6175
0
LINE
8
BLACK
6
CONTINUOUS
10
0.55
20
0.6175
11
0.55
21
0.6775
0
LINE
8
BLACK
6
CONTINUOUS
10
0.55
20
0.6775
11
0.61
21
0.6775
0
LINE
8
BLACK
6
CONTINUOUS
10
0.61
20
0.6775
11
0.61
21
0.6175
0
LINE
8
BLACK
6
CONTINUOUS
10
0.51
20
0.7175
11
0.45
21
0.7175
0
LINE
8
BLACK
6
CONTINUOUS
10
0.45
20
0.7175
11
0.45
21
0.7775
0
LINE
8
BLACK
6
CONTINUOUS
10
0.45
20
0.7775
11
0.51
21
0.7775
0
LINE
8
BLACK
6
CONTINUOUS
10
0.51
20
0.7775
11
0.51
21
0.7175
0
LINE
8
BLACK
6
CONTINUOUS
10
0.61
20
0.7175
11
0.55
21
0.7175
0
LINE
8
BLACK
6
CONTINUOUS
10
0.55
20
0.7175
11
0.55
21
0.7775
0
LINE
8
BLACK
6
CONTINUOUS
10
0.55
20
0.7775
11
0.61
21
0.7775
0
LINE
8
BLACK
6
CONTINUOUS
10
0.61
20
0.7775
11
0.61
21
0.7175
0
LINE
8
BLACK
6
CONTINUOUS
10
0.51
20
0.8175
11
0.45
21
0.8175
0
LINE
8
BLACK
6
CONTINUOUS
10
0.45
20
0.8175
11
0.45
21
0.8775
0
LINE
8
BLACK
6
CONTINUOUS
10
0.45
20
0.8775
11
0.51
21
0.8775
0
LINE
8
BLACK
6
CONTINUOUS
10
0.51
20
0.8775
11
0.51
21
0.8175
0
LINE
8
BLACK
6
CONTINUOUS
10
0.61
20
0.8175
11
0.55
21
0.8175
0
LINE
8
BLACK
6
CONTINUOUS
10
0.55
20
0.8175
11
0.55
21
0.8775
0
LINE
8
BLACK
6
CONTINUOUS
10
0.55
20
0.8775
11
0.61
21
0.8775
0
LINE
8
BLACK
6
CONTINUOUS
10
0.61
20
0.8775
11
0.61
21
0.8175
0
LINE
8
BLACK
6
CONTINUOUS
10
0.31
20
0.4175
11
0.25
21
0.4175
0
LINE
8
BLACK
6
CONTINUOUS
10
0.25
20
0.4175
11
0.25
21
0.4775
0
LINE
8
BLACK
6
CONTINUOUS
10
0.25
20
0.4775
11
0.31
21
0.4775
0
LINE
8
BLACK
6
CONTINUOUS
10
0.31
20
0.4775
11
0.31
21
0.4175
0
LINE
8
BLACK
6
CONTINUOUS
10
0.41
20
0.4175
11
0.35
21
0.4175
0
LINE
8
BLACK
6
CONTINUOUS
10
0.35
20
0.4175
11
0.35
21
0.4775
0
LINE
8
BLACK
6
CONTINUOUS
10
0.35
20
0.4775
11
0.41
21
0.4775
0
LINE
8
BLACK
6
CONTINUOUS
10
0.41
20
0.4775
11
0.41
21
0.4175
0
LINE
8
BLACK
6
CONTINUOUS
10
0.31
20
0.5175
11
0.25
21
0.5175
0
LINE
8
BLACK
6
CONTINUOUS
10
0.25
20
0.5175
11
0.25
21
0.5775
0
LINE
8
BLACK
6
CONTINUOUS
10
0.25
20
0.5775
11
0.31
21
0.5775
0
LINE
8
BLACK
6
CONTINUOUS
10
0.31
20
0.5775
11
0.31
21
0.5175
0
LINE
8
BLACK
6
CONTINUOUS
10
0.41
20
0.5175
11
0.35
21
0.5175
0
LINE
8
BLACK
6
CONTINUOUS
10
0.35
20
0.5175
11
0.35
21
0.5775
0
LINE
8
BLACK
6
CONTINUOUS
10
0.35
20
0.5775
11
0.41
21
0.5775
0
LINE
8
BLACK
6
CONTINUOUS
10
0.41
20
0.5775
11
0.41
21
0.5175
0
LINE
8
BLACK
6
CONTINUOUS
10
0.31
20
0.6175
11
0.25
21
0.6175
0
LINE
8
BLACK
6
CONTINUOUS
10
0.25
20
0.6175
11
0.25
21
0.6775
0
LINE
8
BLACK
6
CONTINUOUS
10
0.25
20
0.6775
11
0.31
21
0.6775
0
LINE
8
BLACK
6
CONTINUOUS
10
0.31
20
0.6775
11
0.31
21
0.6175
0
LINE
8
BLACK
6
CONTINUOUS
10
0.41
20
0.6175
11
0.35
21
0.6175
0
LINE
8
BLACK
6
CONTINUOUS
10
0.35
20
0.6175
11
0.35
21
0.6775
0
LINE
8
BLACK
6
CONTINUOUS
10
0.35
20
0.6775
11
0.41
21
0.6775
0
LINE
8
BLACK
6
CONTINUOUS
10
0.41
20
0.6775
11
0.41
21
0.6175
0
LINE
8
BLACK
6
CONTINUOUS
10
0.31
20
0.7175
11
0.25
21
0.7175
0
LINE
8
BLACK
6
CONTINUOUS
10
0.25
20
0.7175
11
0.25
21
0.7775
0
LINE
8
BLACK
6
CONTINUOUS
10
0.25
20
0.7775
11
0.31
21
0.7775
0
LINE
8
BLACK
6
CONTINUOUS
10
0.31
20
0.7775
11
0.31
21
0.7175
0
LINE
8
BLACK
6
CONTINUOUS
10
0.41
20
0.7175
11
0.35
21
0.7175
0
LINE
8
BLACK
6
CONTINUOUS
10
0.35
20
0.7175
11
0.35
21
0.7775
0
LINE
8
BLACK
6
CONTINUOUS
10
0.35
20
0.7775
11
0.41
21
0.7775
0
LINE
8
BLACK
6
CONTINUOUS
10
0.41
20
0.7775
11
0.41
21
0.7175
0
LINE
8
BLACK
6
CONTINUOUS
10
0.31
20
0.8175
11
0.25
21
0.8175
0
LINE
8
BLACK
6
CONTINUOUS
10
0.25
20
0.8175
11
0.25
21
0.8775
0
LINE
8
BLACK
6
CONTINUOUS
10
0.25
20
0.8775
11
0.31
21
0.8775
0
LINE
8
BLACK
6
CONTINUOUS
10
0.31
20
0.8775
11
0.31
21
0.8175
0
LINE
8
BLACK
6
CONTINUOUS
10
0.41
20
0.853969
11
0.410667
21
0.854303
0
LINE
8
BLACK
6
CONTINUOUS
10
0.410667
20
0.854303
11
0.41236
21
0.855996
0
LINE
8
BLACK
6
CONTINUOUS
10
0.41236
20
0.855996
11
0.414181
21
0.858727
0
LINE
8
BLACK
6
CONTINUOUS
10
0.414181
20
0.858727
11
0.414265
21
0.858783
0
LINE
8
BLACK
6
CONTINUOUS
10
0.414265
20
0.858783
11
0.414304
21
0.858877
0
LINE
8
BLACK
6
CONTINUOUS
10
0.414304
20
0.858877
11
0.414569
21
0.858986
0
LINE
8
BLACK
6
CONTINUOUS
10
0.414569
20
0.858986
11
0.414807
21
0.859146
0
LINE
8
BLACK
6
CONTINUOUS
10
0.414807
20
0.859146
11
0.414906
21
0.859126
0
LINE
8
BLACK
6
CONTINUOUS
10
0.414906
20
0.859126
11
0.415
21
0.859165
0
LINE
8
BLACK
6
CONTINUOUS
10
0.415
20
0.859165
11
0.415265
21
0.859055
0
LINE
8
BLACK
6
CONTINUOUS
10
0.415265
20
0.859055
11
0.415546
21
0.859
0
LINE
8
BLACK
6
CONTINUOUS
10
0.415546
20
0.859
11
0.415602
21
0.858915
0
LINE
8
BLACK
6
CONTINUOUS
10
0.415602
20
0.858915
11
0.415696
21
0.858877
0
LINE
8
BLACK
6
CONTINUOUS
10
0.415696
20
0.858877
11
0.415806
21
0.858612
0
LINE
8
BLACK
6
CONTINUOUS
10
0.415806
20
0.858612
11
0.415965
21
0.858374
0
LINE
8
BLACK
6
CONTINUOUS
10
0.415965
20
0.858374
11
0.415945
21
0.858274
0
LINE
8
BLACK
6
CONTINUOUS
10
0.415945
20
0.858274
11
0.415984
21
0.858181
0
LINE
8
BLACK
6
CONTINUOUS
10
0.415984
20
0.858181
11
0.415984
21
0.83948
0
LINE
8
BLACK
6
CONTINUOUS
10
0.415984
20
0.83948
11
0.420624
21
0.83948
0
LINE
8
BLACK
6
CONTINUOUS
10
0.420624
20
0.83948
11
0.42132
21
0.839192
0
LINE
8
BLACK
6
CONTINUOUS
10
0.42132
20
0.839192
11
0.421609
21
0.838496
0
LINE
8
BLACK
6
CONTINUOUS
10
0.421609
20
0.838496
11
0.42132
21
0.8378
0
LINE
8
BLACK
6
CONTINUOUS
10
0.42132
20
0.8378
11
0.420624
21
0.837511
0
LINE
8
BLACK
6
CONTINUOUS
10
0.420624
20
0.837511
11
0.415
21
0.837511
0
LINE
8
BLACK
6
CONTINUOUS
10
0.415
20
0.837511
11
0.41
21
0.837511
0
LINE
8
BLACK
6
CONTINUOUS
10
0.41
20
0.837511
11
0.41
21
0.8175
0
LINE
8
BLACK
6
CONTINUOUS
10
0.41
20
0.8175
11
0.35
21
0.8175
0
LINE
8
BLACK
6
CONTINUOUS
10
0.35
20
0.8175
11
0.35
21
0.8775
0
LINE
8
BLACK
6
CONTINUOUS
10
0.35
20
0.8775
11
0.41
21
0.8775
0
LINE
8
BLACK
6
CONTINUOUS
10
0.41
20
0.8775
11
0.41
21
0.853969
0
LINE
8
BLACK
6
CONTINUOUS
10
0.413944
20
0.854823
11
0.41386
21
0.854766
0
LINE
8
BLACK
6
CONTINUOUS
10
0.41386
20
0.854766
11
0.413821
21
0.854673
0
LINE
8
BLACK
6
CONTINUOUS
10
0.413821
20
0.854673
11
0.411946
21
0.852798
0
LINE
8
BLACK
6
CONTINUOUS
10
0.411946
20
0.852798
11
0.411797
21
0.852736
0
LINE
8
BLACK
6
CONTINUOUS
10
0.411797
20
0.852736
11
0.411691
21
0.852613
0
LINE
8
BLACK
6
CONTINUOUS
10
0.411691
20
0.852613
11
0.41
21
0.851768
0
LINE
8
BLACK
6
CONTINUOUS
10
0.41
20
0.851768
11
0.41
21
0.83948
0
LINE
8
BLACK
6
CONTINUOUS
10
0.41
20
0.83948
11
0.414016
21
0.83948
0
LINE
8
BLACK
6
CONTINUOUS
10
0.414016
20
0.83948
11
0.414016
21
0.85493
0
LINE
8
BLACK
6
CONTINUOUS
10
0.414016
20
0.85493
11
0.413944
21
0.854823
0
LINE
8
BLACK
6
CONTINUOUS
10
0.11
20
0.4175
11
0.05
21
0.4175
0
LINE
8
BLACK
6
CONTINUOUS
10
0.05
20
0.4175
11
0.05
21
0.4775
0
LINE
8
BLACK
6
CONTINUOUS
10
0.05
20
0.4775
11
0.11
21
0.4775
0
LINE
8
BLACK
6
CONTINUOUS
10
0.11
20
0.4775
11
0.11
21
0.4175
0
LINE
8
BLACK
6
CONTINUOUS
10
0.21
20
0.4175
11
0.15
21
0.4175
0
LINE
8
BLACK
6
CONTINUOUS
10
0.15
20
0.4175
11
0.15
21
0.4775
0
LINE
8
BLACK
6
CONTINUOUS
10
0.15
20
0.4775
11
0.21
21
0.4775
0
LINE
8
BLACK
6
CONTINUOUS
10
0.21
20
0.4775
11
0.21
21
0.4175
0
LINE
8
BLACK
6
CONTINUOUS
10
0.11
20
0.5175
11
0.05
21
0.5175
0
LINE
8
BLACK
6
CONTINUOUS
10
0.05
20
0.5175
11
0.05
21
0.5775
0
LINE
8
BLACK
6
CONTINUOUS
10
0.05
20
0.5775
11
0.11
21
0.5775
0
LINE
8
BLACK
6
CONTINUOUS
10
0.11
20
0.5775
11
0.11
21
0.5175
0
LINE
8
BLACK
6
CONTINUOUS
10
0.21
20
0.5175
11
0.15
21
0.5175
0
LINE
8
BLACK
6
CONTINUOUS
10
0.15
20
0.5175
11
0.15
21
0.5775
0
LINE
8
BLACK
6
CONTINUOUS
10
0.15
20
0.5775
11
0.21
21
0.5775
0
LINE
8
BLACK
6
CONTINUOUS
10
0.21
20
0.5775
11
0.21
21
0.5175
0
LINE
8
BLACK
6
CONTINUOUS
10
0.11
20
0.6175
11
0.05
21
0.6175
0
LINE
8
BLACK
6
CONTINUOUS
10
0.05
20
0.6175
11
0.05
21
0.6775
0
LINE
8
BLACK
6
CONTINUOUS
10
0.05
20
0.6775
11
0.11
21
0.6775
0
LINE
8
BLACK
6
CONTINUOUS
10
0.11
20
0.6775
11
0.11
21
0.6175
0
LINE
8
BLACK
6
CONTINUOUS
10
0.21
20
0.6175
11
0.15
21
0.6175
0
LINE
8
BLACK
6
CONTINUOUS
10
0.15
20
0.6175
11
0.15
21
0.6775
0
LINE
8
BLACK
6
CONTINUOUS
10
0.15
20
0.6775
11
0.21
21
0.6775
0
LINE
8
BLACK
6
CONTINUOUS
10
0.21
20
0.6775
11
0.21
21
0.6175
0
LINE
8
BLACK
6
CONTINUOUS
10
0.11
20
0.7175
11
0.05
21
0.7175
0
LINE
8
BLACK
6
CONTINUOUS
10
0.05
20
0.7175
11
0.05
21
0.7775
0
LINE
8
BLACK
6
CONTINUOUS
10
0.05
20
0.7775
11
0.11
21
0.7775
0
LINE
8
BLACK
6
CONTINUOUS
10
0.11
20
0.7775
11
0.11
21
0.7175
0
LINE
8
BLACK
6
CONTINUOUS
10
0.21
20
0.7175
11
0.15
21
0.7175
0
LINE
8
BLACK
6
CONTINUOUS
10
0.15
20
0.7175
11
0.15
21
0.7775
0
LINE
8
BLACK
6
CONTINUOUS
10
0.15
20
0.7775
11
0.21
21
0.7775
0
LINE
8
BLACK
6
CONTINUOUS
10
0.21
20
0.7775
11
0.21
21
0.7175
0
LINE
8
BLACK
6
CONTINUOUS
10
0.11
20
0.8175
11
0.05
21
0.8175
0
LINE
8
BLACK
6
CONTINUOUS
10
0.05
20
0.8175
11
0.05
21
0.8775
0
LINE
8
BLACK
6
CONTINUOUS
10
0.05
20
0.8775
11
0.11
21
0.8775
0
LINE
8
BLACK
6
CONTINUOUS
10
0.11
20
0.8775
11
0.11
21
0.8175
0
LINE
8
BLACK
6
CONTINUOUS
10
0.21
20
0.853969
11
0.210667
21
0.854303
0
LINE
8
BLACK
6
CONTINUOUS
10
0.210667
20
0.854303
11
0.21236
21
0.855996
0
LINE
8
BLACK
6
CONTINUOUS
10
0.21236
20
0.855996
11
0.214181
21
0.858727
0
LINE
8
BLACK
6
CONTINUOUS
10
0.214181
20
0.858727
11
0.214265
21
0.858783
0
LINE
8
BLACK
6
CONTINUOUS
10
0.214265
20
0.858783
11
0.214304
21
0.858877
0
LINE
8
BLACK
6
CONTINUOUS
10
0.214304
20
0.858877
11
0.214569
21
0.858986
0
LINE
8
BLACK
6
CONTINUOUS
10
0.214569
20
0.858986
11
0.214807
21
0.859146
0
LINE
8
BLACK
6
CONTINUOUS
10
0.214807
20
0.859146
11
0.214906
21
0.859126
0
LINE
8
BLACK
6
CONTINUOUS
10
0.214906
20
0.859126
11
0.215
21
0.859165
0
LINE
8
BLACK
6
CONTINUOUS
10
0.215
20
0.859165
11
0.215265
21
0.859055
0
LINE
8
BLACK
6
CONTINUOUS
10
0.215265
20
0.859055
11
0.215546
21
0.859
0
LINE
8
BLACK
6
CONTINUOUS
10
0.215546
20
0.859
11
0.215602
21
0.858915
0
LINE
8
BLACK
6
CONTINUOUS
10
0.215602
20
0.858915
11
0.215696
21
0.858877
0
LINE
8
BLACK
6
CONTINUOUS
10
0.215696
20
0.858877
11
0.215806
21
0.858612
0
LINE
8
BLACK
6
CONTINUOUS
10
0.215806
20
0.858612
11
0.215965
21
0.858374
0
LINE
8
BLACK
6
CONTINUOUS
10
0.215965
20
0.858374
11
0.215945
21
0.858274
0
LINE
8
BLACK
6
CONTINUOUS
10
0.215945
20
0.858274
11
0.215984
21
0.858181
0
LINE
8
BLACK
6
CONTINUOUS
10
0.215984
20
0.858181
11
0.215984
21
0.83948
0
LINE
8
BLACK
6
CONTINUOUS
10
0.215984
20
0.83948
11
0.220624
21
0.83948
0
LINE
8
BLACK
6
CONTINUOUS
10
0.220624
20
0.83948
11
0.22132
21
0.839192
0
LINE
8
BLACK
6
CONTINUOUS
10
0.22132
20
0.839192
11
0.221609
21
0.838496
0
LINE
8
BLACK
6
CONTINUOUS
10
0.221609
20
0.838496
11
0.22132
21
0.8378
0
LINE
8
BLACK
6
CONTINUOUS
10
0.22132
20
0.8378
11
0.220624
21
0.837511
0
LINE
8
BLACK
6
CONTINUOUS
10
0.220624
20
0.837511
11
0.215
21
0.837511
0
LINE
8
BLACK
6
CONTINUOUS
10
0.215
20
0.837511
11
0.21
21
0.837511
0
LINE
8
BLACK
6
CONTINUOUS
10
0.21
20
0.837511
11
0.21
21
0.8175
0
LINE
8
BLACK
6
CONTINUOUS
10
0.21
20
0.8175
11
0.15
21
0.8175
0
LINE
8
BLACK
6
CONTINUOUS
10
0.15
20
0.8175
11
0.15
21
0.8775
0
LINE
8
BLACK
6
CONTINUOUS
10
0.15
20
0.8775
11
0.21
21
0.8775
0
LINE
8
BLACK
6
CONTINUOUS
10
0.21
20
0.8775
11
0.21
21
0.853969
0
LINE
8
BLACK
6
CONTINUOUS
10
0.213944
20
0.854823
11
0.21386
21
0.854766
0
LINE
8
BLACK
6
CONTINUOUS
10
0.21386
20
0.854766
11
0.213821
21
0.854673
0
LINE
8
BLACK
6
CONTINUOUS
10
0.213821
20
0.854673
11
0.211946
21
0.852798
0
LINE
8
BLACK
6
CONTINUOUS
10
0.211946
20
0.852798
11
0.211797
21
0.852736
0
LINE
8
BLACK
6
CONTINUOUS
10
0.211797
20
0.852736
11
0.211691
21
0.852613
0
LINE
8
BLACK
6
CONTINUOUS
10
0.211691
20
0.852613
11
0.21
21
0.851768
0
LINE
8
BLACK
6
CONTINUOUS
10
0.21
20
0.851768
11
0.21
21
0.83948
0
LINE
8
BLACK
6
CONTINUOUS
10
0.21
20
0.83948
11
0.214016
21
0.83948
0
LINE
8
BLACK
6
CONTINUOUS
10
0.214016
20
0.83948
11
0.214016
21
0.85493
0
LINE
8
BLACK
6
CONTINUOUS
10
0.214016
20
0.85493
11
0.213944
21
0.854823
0
LINE
8
BLACK
6
CONTINUOUS
10
0.23
20
0.900453
11
0.43
21
0.900453
0
LINE
8
BLACK
6
CONTINUOUS
10
0.43
20
0.900453
11
0.63
21
0.900453
0
LINE
8
BLACK
6
CONTINUOUS
10
0.63
20
0.900453
11
0.630384
21
0.900385
0
LINE
8
BLACK
6
CONTINUOUS
10
0.630384
20
0.900385
11
0.630513
21
0.900408
0
LINE
8
BLACK
6
CONTINUOUS
10
0.630513
20
0.900408
11
0.630626
21
0.900342
0
LINE
8
BLACK
6
CONTINUOUS
10
0.630626
20
0.900342
11
0.63101
21
0.900275
0
LINE
8
BLACK
6
CONTINUOUS
10
0.63101
20
0.900275
11
0.631598
21
0.899782
0
LINE
8
BLACK
6
CONTINUOUS
10
0.631598
20
0.899782
11
0.632262
21
0.899398
0
LINE
8
BLACK
6
CONTINUOUS
10
0.632262
20
0.899398
11
0.632353
21
0.899148
0
LINE
8
BLACK
6
CONTINUOUS
10
0.632353
20
0.899148
11
0.632557
21
0.898976
0
LINE
8
BLACK
6
CONTINUOUS
10
0.632557
20
0.898976
11
0.63269
21
0.898221
0
LINE
8
BLACK
6
CONTINUOUS
10
0.63269
20
0.898221
11
0.632953
21
0.8975
0
LINE
8
BLACK
6
CONTINUOUS
10
0.632953
20
0.8975
11
0.632953
21
0.3975
0
LINE
8
BLACK
6
CONTINUOUS
10
0.632953
20
0.3975
11
0.632885
21
0.397116
0
LINE
8
BLACK
6
CONTINUOUS
10
0.632885
20
0.397116
11
0.632908
21
0.396987
0
LINE
8
BLACK
6
CONTINUOUS
10
0.632908
20
0.396987
11
0.632842
21
0.396874
0
LINE
8
BLACK
6
CONTINUOUS
10
0.632842
20
0.396874
11
0.632775
21
0.39649
0
LINE
8
BLACK
6
CONTINUOUS
10
0.632775
20
0.39649
11
0.632282
21
0.395902
0
LINE
8
BLACK
6
CONTINUOUS
10
0.632282
20
0.395902
11
0.631898
21
0.395238
0
LINE
8
BLACK
6
CONTINUOUS
10
0.631898
20
0.395238
11
0.631648
21
0.395147
0
LINE
8
BLACK
6
CONTINUOUS
10
0.631648
20
0.395147
11
0.631476
21
0.394943
0
LINE
8
BLACK
6
CONTINUOUS
10
0.631476
20
0.394943
11
0.630721
21
0.39481
0
LINE
8
BLACK
6
CONTINUOUS
10
0.630721
20
0.39481
11
0.63
21
0.394547
0
LINE
8
BLACK
6
CONTINUOUS
10
0.63
20
0.394547
11
0.43
21
0.394547
0
LINE
8
BLACK
6
CONTINUOUS
10
0.43
20
0.394547
11
0.23
21
0.394547
0
LINE
8
BLACK
6
CONTINUOUS
10
0.23
20
0.394547
11
0.03
21
0.394547
0
LINE
8
BLACK
6
CONTINUOUS
10
0.03
20
0.394547
11
0.0296165
21
0.394615
0
LINE
8
BLACK
6
CONTINUOUS
10
0.0296165
20
0.394615
11
0.0294872
21
0.394592
0
LINE
8
BLACK
6
CONTINUOUS
10
0.0294872
20
0.394592
11
0.0293736
21
0.394658
0
LINE
8
BLACK
6
CONTINUOUS
10
0.0293736
20
0.394658
11
0.0289901
21
0.394725
0
LINE
8
BLACK
6
CONTINUOUS
10
0.0289901
20
0.394725
11
0.0284024
21
0.395218
0
LINE
8
BLACK
6
CONTINUOUS
10
0.0284024
20
0.395218
11
0.0277381
21
0.395602
0
LINE
8
BLACK
6
CONTINUOUS
10
0.0277381
20
0.395602
11
0.0276469
21
0.395852
0
LINE
8
BLACK
6
CONTINUOUS
10
0.0276469
20
0.395852
11
0.0274428
21
0.396024
0
LINE
8
BLACK
6
CONTINUOUS
10
0.0274428
20
0.396024
11
0.0273096
21
0.396779
0
LINE
8
BLACK
6
CONTINUOUS
10
0.0273096
20
0.396779
11
0.0270472
21
0.3975
0
LINE
8
BLACK
6
CONTINUOUS
10
0.0270472
20
0.3975
11
0.0270472
21
0.8975
0
LINE
8
BLACK
6
CONTINUOUS
10
0.0270472
20
0.8975
11
0.0271148
21
0.897884
0
LINE
8
BLACK
6
CONTINUOUS
10
0.0271148
20
0.897884
11
0.0270921
21
0.898013
0
LINE
8
BLACK
6
CONTINUOUS
10
0.0270921
20
0.898013
11
0.0271577
21
0.898126
0
LINE
8
BLACK
6
CONTINUOUS
10
0.0271577
20
0.898126
11
0.0272253
21
0.89851
0
LINE
8
BLACK
6
CONTINUOUS
10
0.0272253
20
0.89851
11
0.0277184
21
0.899098
0
LINE
8
BLACK
6
CONTINUOUS
10
0.0277184
20
0.899098
11
0.028102
21
0.899762
0
LINE
8
BLACK
6
CONTINUOUS
10
0.028102
20
0.899762
11
0.0283523
21
0.899853
0
LINE
8
BLACK
6
CONTINUOUS
10
0.0283523
20
0.899853
11
0.0285236
21
0.900057
0
LINE
8
BLACK
6
CONTINUOUS
10
0.0285236
20
0.900057
11
0.0292792
21
0.90019
0
LINE
8
BLACK
6
CONTINUOUS
10
0.0292792
20
0.90019
11
0.03
21
0.900453
0
LINE
8
BLACK
6
CONTINUOUS
10
0.03
20
0.900453
11
0.23
21
0.900453
0
LINE
8
BLACK
6
CONTINUOUS
10
0.432953
20
0.894547
11
0.432953
21
0.400453
0
LINE
8
BLACK
6
CONTINUOUS
10
0.432953
20
0.400453
11
0.627047
21
0.400453
0
LINE
8
BLACK
6
CONTINUOUS
10
0.627047
20
0.400453
11
0.627047
21
0.894547
0
LINE
8
BLACK
6
CONTINUOUS
10
0.627047
20
0.894547
11
0.432953
21
0.894547
0
LINE
8
BLACK
6
CONTINUOUS
10
0.232953
20
0.894547
11
0.232953
21
0.400453
0
LINE
8
BLACK
6
CONTINUOUS
10
0.232953
20
0.400453
11
0.427047
21
0.400453
0
LINE
8
BLACK
6
CONTINUOUS
10
0.427047
20
0.400453
11
0.427047
21
0.894547
0
LINE
8
BLACK
6
CONTINUOUS
10
0.427047
20
0.894547
11
0.232953
21
0.894547
0
LINE
8
BLACK
6
CONTINUOUS
10
0.0329528
20
0.894547
11
0.0329528
21
0.400453
0
LINE
8
BLACK
6
CONTINUOUS
10
0.0329528
20
0.400453
11
0.227047
21
0.400453
0
LINE
8
BLACK
6
CONTINUOUS
10
0.227047
20
0.400453
11
0.227047
21
0.894547
0
LINE
8
BLACK
6
CONTINUOUS
10
0.227047
20
0.894547
11
0.0329528
21
0.894547
0
LINE
8
BLACK
6
CONTINUOUS
10
0.675702
20
0.481172
11
0.677032
21
0.4809
0
LINE
8
BLACK
6
CONTINUOUS
10
0.677032
20
0.4809
11
0.681907
21
0.478463
0
LINE
8
BLACK
6
CONTINUOUS
10
0.681907
20
0.478463
11
0.684194
21
0.476435
0
LINE
8
BLACK
6
CONTINUOUS
10
0.684194
20
0.476435
11
0.68516
21
0.473535
0
LINE
8
BLACK
6
CONTINUOUS
10
0.68516
20
0.473535
11
0.684548
21
0.47054
0
LINE
8
BLACK
6
CONTINUOUS
10
0.684548
20
0.47054
11
0.682519
21
0.468252
0
LINE
8
BLACK
6
CONTINUOUS
10
0.682519
20
0.468252
11
0.679619
21
0.467286
0
LINE
8
BLACK
6
CONTINUOUS
10
0.679619
20
0.467286
11
0.676624
21
0.467899
0
LINE
8
BLACK
6
CONTINUOUS
10
0.676624
20
0.467899
11
0.672997
21
0.469712
0
LINE
8
BLACK
6
CONTINUOUS
10
0.672997
20
0.469712
11
0.668038
21
0.469712
0
LINE
8
BLACK
6
CONTINUOUS
10
0.668038
20
0.469712
11
0.662958
21
0.468019
0
LINE
8
BLACK
6
CONTINUOUS
10
0.662958
20
0.468019
11
0.659747
21
0.464808
0
LINE
8
BLACK
6
CONTINUOUS
10
0.659747
20
0.464808
11
0.658028
21
0.461371
0
LINE
8
BLACK
6
CONTINUOUS
10
0.658028
20
0.461371
11
0.655925
21
0.452956
0
LINE
8
BLACK
6
CONTINUOUS
10
0.655925
20
0.452956
11
0.655925
21
0.447099
0
LINE
8
BLACK
6
CONTINUOUS
10
0.655925
20
0.447099
11
0.658028
21
0.438684
0
LINE
8
BLACK
6
CONTINUOUS
10
0.658028
20
0.438684
11
0.659747
21
0.435247
0
LINE
8
BLACK
6
CONTINUOUS
10
0.659747
20
0.435247
11
0.662958
21
0.432036
0
LINE
8
BLACK
6
CONTINUOUS
10
0.662958
20
0.432036
11
0.668038
21
0.430342
0
LINE
8
BLACK
6
CONTINUOUS
10
0.668038
20
0.430342
11
0.670996
21
0.430342
0
LINE
8
BLACK
6
CONTINUOUS
10
0.670996
20
0.430342
11
0.675797
21
0.431943
0
LINE
8
BLACK
6
CONTINUOUS
10
0.675797
20
0.431943
11
0.675797
21
0.440466
0
LINE
8
BLACK
6
CONTINUOUS
10
0.675797
20
0.440466
11
0.671954
21
0.440466
0
LINE
8
BLACK
6
CONTINUOUS
10
0.671954
20
0.440466
11
0.669001
21
0.441257
0
LINE
8
BLACK
6
CONTINUOUS
10
0.669001
20
0.441257
11
0.66684
21
0.443419
0
LINE
8
BLACK
6
CONTINUOUS
10
0.66684
20
0.443419
11
0.666048
21
0.446372
0
LINE
8
BLACK
6
CONTINUOUS
10
0.666048
20
0.446372
11
0.66684
21
0.449324
0
LINE
8
BLACK
6
CONTINUOUS
10
0.66684
20
0.449324
11
0.669001
21
0.451486
0
LINE
8
BLACK
6
CONTINUOUS
10
0.669001
20
0.451486
11
0.671954
21
0.452277
0
LINE
8
BLACK
6
CONTINUOUS
10
0.671954
20
0.452277
11
0.681703
21
0.452277
0
LINE
8
BLACK
6
CONTINUOUS
10
0.681703
20
0.452277
11
0.684655
21
0.451486
0
LINE
8
BLACK
6
CONTINUOUS
10
0.684655
20
0.451486
11
0.686817
21
0.449324
0
LINE
8
BLACK
6
CONTINUOUS
10
0.686817
20
0.449324
11
0.687608
21
0.446372
0
LINE
8
BLACK
6
CONTINUOUS
10
0.687608
20
0.446372
11
0.687608
21
0.429311
0
LINE
8
BLACK
6
CONTINUOUS
10
0.687608
20
0.429311
11
0.687407
21
0.42856
0
LINE
8
BLACK
6
CONTINUOUS
10
0.687407
20
0.42856
11
0.687407
21
0.427783
0
LINE
8
BLACK
6
CONTINUOUS
10
0.687407
20
0.427783
11
0.687018
21
0.427109
0
LINE
8
BLACK
6
CONTINUOUS
10
0.687018
20
0.427109
11
0.686817
21
0.426358
0
LINE
8
BLACK
6
CONTINUOUS
10
0.686817
20
0.426358
11
0.686267
21
0.425809
0
LINE
8
BLACK
6
CONTINUOUS
10
0.686267
20
0.425809
11
0.685879
21
0.425135
0
LINE
8
BLACK
6
CONTINUOUS
10
0.685879
20
0.425135
11
0.683441
21
0.422698
0
LINE
8
BLACK
6
CONTINUOUS
10
0.683441
20
0.422698
11
0.682266
21
0.422019
0
LINE
8
BLACK
6
CONTINUOUS
10
0.682266
20
0.422019
11
0.681133
21
0.421272
0
LINE
8
BLACK
6
CONTINUOUS
10
0.681133
20
0.421272
11
0.673821
21
0.418834
0
LINE
8
BLACK
6
CONTINUOUS
10
0.673821
20
0.418834
11
0.672872
21
0.418777
0
LINE
8
BLACK
6
CONTINUOUS
10
0.672872
20
0.418777
11
0.671954
21
0.418531
0
LINE
8
BLACK
6
CONTINUOUS
10
0.671954
20
0.418531
11
0.66708
21
0.418531
0
LINE
8
BLACK
6
CONTINUOUS
10
0.66708
20
0.418531
11
0.666161
21
0.418777
0
LINE
8
BLACK
6
CONTINUOUS
10
0.666161
20
0.418777
11
0.665212
21
0.418834
0
LINE
8
BLACK
6
CONTINUOUS
10
0.665212
20
0.418834
11
0.6579
21
0.421272
0
LINE
8
BLACK
6
CONTINUOUS
10
0.6579
20
0.421272
11
0.656768
21
0.422019
0
LINE
8
BLACK
6
CONTINUOUS
10
0.656768
20
0.422019
11
0.655592
21
0.422698
0
LINE
8
BLACK
6
CONTINUOUS
10
0.655592
20
0.422698
11
0.650718
21
0.427573
0
LINE
8
BLACK
6
CONTINUOUS
10
0.650718
20
0.427573
11
0.650242
21
0.428396
0
LINE
8
BLACK
6
CONTINUOUS
10
0.650242
20
0.428396
11
0.649611
21
0.429107
0
LINE
8
BLACK
6
CONTINUOUS
10
0.649611
20
0.429107
11
0.647174
21
0.433982
0
LINE
8
BLACK
6
CONTINUOUS
10
0.647174
20
0.433982
11
0.647044
21
0.434621
0
LINE
8
BLACK
6
CONTINUOUS
10
0.647044
20
0.434621
11
0.646727
21
0.435191
0
LINE
8
BLACK
6
CONTINUOUS
10
0.646727
20
0.435191
11
0.64429
21
0.444939
0
LINE
8
BLACK
6
CONTINUOUS
10
0.64429
20
0.444939
11
0.644302
21
0.445668
0
LINE
8
BLACK
6
CONTINUOUS
10
0.644302
20
0.445668
11
0.644114
21
0.446372
0
LINE
8
BLACK
6
CONTINUOUS
10
0.644114
20
0.446372
11
0.644114
21
0.453683
0
LINE
8
BLACK
6
CONTINUOUS
10
0.644114
20
0.453683
11
0.644302
21
0.454387
0
LINE
8
BLACK
6
CONTINUOUS
10
0.644302
20
0.454387
11
0.64429
21
0.455115
0
LINE
8
BLACK
6
CONTINUOUS
10
0.64429
20
0.455115
11
0.646727
21
0.464864
0
LINE
8
BLACK
6
CONTINUOUS
10
0.646727
20
0.464864
11
0.647044
21
0.465434
0
LINE
8
BLACK
6
CONTINUOUS
10
0.647044
20
0.465434
11
0.647174
21
0.466073
0
LINE
8
BLACK
6
CONTINUOUS
10
0.647174
20
0.466073
11
0.649611
21
0.470947
0
LINE
8
BLACK
6
CONTINUOUS
10
0.649611
20
0.470947
11
0.650242
21
0.471659
0
LINE
8
BLACK
6
CONTINUOUS
10
0.650242
20
0.471659
11
0.650718
21
0.472482
0
LINE
8
BLACK
6
CONTINUOUS
10
0.650718
20
0.472482
11
0.655592
21
0.477357
0
LINE
8
BLACK
6
CONTINUOUS
10
0.655592
20
0.477357
11
0.656768
21
0.478035
0
LINE
8
BLACK
6
CONTINUOUS
10
0.656768
20
0.478035
11
0.6579
21
0.478783
0
LINE
8
BLACK
6
CONTINUOUS
10
0.6579
20
0.478783
11
0.665212
21
0.48122
0
LINE
8
BLACK
6
CONTINUOUS
10
0.665212
20
0.48122
11
0.666161
21
0.481277
0
LINE
8
BLACK
6
CONTINUOUS
10
0.666161
20
0.481277
11
0.66708
21
0.481523
0
LINE
8
BLACK
6
CONTINUOUS
10
0.66708
20
0.481523
11
0.674391
21
0.481523
0
LINE
8
BLACK
6
CONTINUOUS
10
0.674391
20
0.481523
11
0.675702
21
0.481172
0
LINE
8
BLACK
6
CONTINUOUS
10
0.735837
20
0.480732
11
0.737998
21
0.478571
0
LINE
8
BLACK
6
CONTINUOUS
10
0.737998
20
0.478571
11
0.738789
21
0.475618
0
LINE
8
BLACK
6
CONTINUOUS
10
0.738789
20
0.475618
11
0.738789
21
0.424437
0
LINE
8
BLACK
6
CONTINUOUS
10
0.738789
20
0.424437
11
0.738786
21
0.424424
0
LINE
8
BLACK
6
CONTINUOUS
10
0.738786
20
0.424424
11
0.738789
21
0.424411
0
LINE
8
BLACK
6
CONTINUOUS
10
0.738789
20
0.424411
11
0.738392
21
0.422956
0
LINE
8
BLACK
6
CONTINUOUS
10
0.738392
20
0.422956
11
0.737998
21
0.421484
0
LINE
8
BLACK
6
CONTINUOUS
10
0.737998
20
0.421484
11
0.737988
21
0.421474
0
LINE
8
BLACK
6
CONTINUOUS
10
0.737988
20
0.421474
11
0.737985
21
0.421461
0
LINE
8
BLACK
6
CONTINUOUS
10
0.737985
20
0.421461
11
0.73691
21
0.420396
0
LINE
8
BLACK
6
CONTINUOUS
10
0.73691
20
0.420396
11
0.735837
21
0.419322
0
LINE
8
BLACK
6
CONTINUOUS
10
0.735837
20
0.419322
11
0.735823
21
0.419319
0
LINE
8
BLACK
6
CONTINUOUS
10
0.735823
20
0.419319
11
0.735814
21
0.419309
0
LINE
8
BLACK
6
CONTINUOUS
10
0.735814
20
0.419309
11
0.734353
21
0.418925
0
LINE
8
BLACK
6
CONTINUOUS
10
0.734353
20
0.418925
11
0.732884
21
0.418531
0
LINE
8
BLACK
6
CONTINUOUS
10
0.732884
20
0.418531
11
0.732871
21
0.418535
0
LINE
8
BLACK
6
CONTINUOUS
10
0.732871
20
0.418535
11
0.732857
21
0.418531
0
LINE
8
BLACK
6
CONTINUOUS
10
0.732857
20
0.418531
11
0.7314
21
0.418929
0
LINE
8
BLACK
6
CONTINUOUS
10
0.7314
20
0.418929
11
0.729931
21
0.419322
0
LINE
8
BLACK
6
CONTINUOUS
10
0.729931
20
0.419322
11
0.729921
21
0.419332
0
LINE
8
BLACK
6
CONTINUOUS
10
0.729921
20
0.419332
11
0.729908
21
0.419336
0
LINE
8
BLACK
6
CONTINUOUS
10
0.729908
20
0.419336
11
0.728841
21
0.420412
0
LINE
8
BLACK
6
CONTINUOUS
10
0.728841
20
0.420412
11
0.727769
21
0.421484
0
LINE
8
BLACK
6
CONTINUOUS
10
0.727769
20
0.421484
11
0.727766
21
0.421497
0
LINE
8
BLACK
6
CONTINUOUS
10
0.727766
20
0.421497
11
0.727756
21
0.421507
0
LINE
8
BLACK
6
CONTINUOUS
10
0.727756
20
0.421507
11
0.709543
21
0.45338
0
LINE
8
BLACK
6
CONTINUOUS
10
0.709543
20
0.45338
11
0.709543
21
0.424437
0
LINE
8
BLACK
6
CONTINUOUS
10
0.709543
20
0.424437
11
0.708752
21
0.421484
0
LINE
8
BLACK
6
CONTINUOUS
10
0.708752
20
0.421484
11
0.70659
21
0.419322
0
LINE
8
BLACK
6
CONTINUOUS
10
0.70659
20
0.419322
11
0.703637
21
0.418531
0
LINE
8
BLACK
6
CONTINUOUS
10
0.703637
20
0.418531
11
0.700685
21
0.419322
0
LINE
8
BLACK
6
CONTINUOUS
10
0.700685
20
0.419322
11
0.698523
21
0.421484
0
LINE
8
BLACK
6
CONTINUOUS
10
0.698523
20
0.421484
11
0.697732
21
0.424437
0
LINE
8
BLACK
6
CONTINUOUS
10
0.697732
20
0.424437
11
0.697732
21
0.475618
0
LINE
8
BLACK
6
CONTINUOUS
10
0.697732
20
0.475618
11
0.697735
21
0.475631
0
LINE
8
BLACK
6
CONTINUOUS
10
0.697735
20
0.475631
11
0.697732
21
0.475644
0
LINE
8
BLACK
6
CONTINUOUS
10
0.697732
20
0.475644
11
0.698132
21
0.47711
0
LINE
8
BLACK
6
CONTINUOUS
10
0.698132
20
0.47711
11
0.698523
21
0.478571
0
LINE
8
BLACK
6
CONTINUOUS
10
0.698523
20
0.478571
11
0.698533
21
0.47858
0
LINE
8
BLACK
6
CONTINUOUS
10
0.698533
20
0.47858
11
0.698536
21
0.478593
0
LINE
8
BLACK
6
CONTINUOUS
10
0.698536
20
0.478593
11
0.699613
21
0.479661
0
LINE
8
BLACK
6
CONTINUOUS
10
0.699613
20
0.479661
11
0.700685
21
0.480732
0
LINE
8
BLACK
6
CONTINUOUS
10
0.700685
20
0.480732
11
0.700698
21
0.480736
0
LINE
8
BLACK
6
CONTINUOUS
10
0.700698
20
0.480736
11
0.700707
21
0.480745
0
LINE
8
BLACK
6
CONTINUOUS
10
0.700707
20
0.480745
11
0.702173
21
0.481131
0
LINE
8
BLACK
6
CONTINUOUS
10
0.702173
20
0.481131
11
0.703637
21
0.481523
0
LINE
8
BLACK
6
CONTINUOUS
10
0.703637
20
0.481523
11
0.703651
21
0.48152
0
LINE
8
BLACK
6
CONTINUOUS
10
0.703651
20
0.48152
11
0.703664
21
0.481523
0
LINE
8
BLACK
6
CONTINUOUS
10
0.703664
20
0.481523
11
0.70513
21
0.481124
0
LINE
8
BLACK
6
CONTINUOUS
10
0.70513
20
0.481124
11
0.70659
21
0.480732
0
LINE
8
BLACK
6
CONTINUOUS
10
0.70659
20
0.480732
11
0.7066
21
0.480723
0
LINE
8
BLACK
6
CONTINUOUS
10
0.7066
20
0.480723
11
0.706613
21
0.480719
0
LINE
8
BLACK
6
CONTINUOUS
10
0.706613
20
0.480719
11
0.70768
21
0.479642
0
LINE
8
BLACK
6
CONTINUOUS
10
0.70768
20
0.479642
11
0.708752
21
0.478571
0
LINE
8
BLACK
6
CONTINUOUS
10
0.708752
20
0.478571
11
0.708755
21
0.478557
0
LINE
8
BLACK
6
CONTINUOUS
10
0.708755
20
0.478557
11
0.708765
21
0.478548
0
LINE
8
BLACK
6
CONTINUOUS
10
0.708765
20
0.478548
11
0.726978
21
0.446674
0
LINE
8
BLACK
6
CONTINUOUS
10
0.726978
20
0.446674
11
0.726978
21
0.475618
0
LINE
8
BLACK
6
CONTINUOUS
10
0.726978
20
0.475618
11
0.727769
21
0.478571
0
LINE
8
BLACK
6
CONTINUOUS
10
0.727769
20
0.478571
11
0.729931
21
0.480732
0
LINE
8
BLACK
6
CONTINUOUS
10
0.729931
20
0.480732
11
0.732884
21
0.481523
0
LINE
8
BLACK
6
CONTINUOUS
10
0.732884
20
0.481523
11
0.735837
21
0.480732
0
LINE
8
BLACK
6
CONTINUOUS
10
0.77036
20
0.481277
11
0.771309
21
0.48122
0
LINE
8
BLACK
6
CONTINUOUS
10
0.771309
20
0.48122
11
0.778621
21
0.478783
0
LINE
8
BLACK
6
CONTINUOUS
10
0.778621
20
0.478783
11
0.779754
21
0.478035
0
LINE
8
BLACK
6
CONTINUOUS
10
0.779754
20
0.478035
11
0.780929
21
0.477357
0
LINE
8
BLACK
6
CONTINUOUS
10
0.780929
20
0.477357
11
0.785804
21
0.472482
0
LINE
8
BLACK
6
CONTINUOUS
10
0.785804
20
0.472482
11
0.786279
21
0.471659
0
LINE
8
BLACK
6
CONTINUOUS
10
0.786279
20
0.471659
11
0.78691
21
0.470947
0
LINE
8
BLACK
6
CONTINUOUS
10
0.78691
20
0.470947
11
0.789347
21
0.466073
0
LINE
8
BLACK
6
CONTINUOUS
10
0.789347
20
0.466073
11
0.789478
21
0.465434
0
LINE
8
BLACK
6
CONTINUOUS
10
0.789478
20
0.465434
11
0.789794
21
0.464864
0
LINE
8
BLACK
6
CONTINUOUS
10
0.789794
20
0.464864
11
0.792231
21
0.455115
0
LINE
8
BLACK
6
CONTINUOUS
10
0.792231
20
0.455115
11
0.792219
21
0.454387
0
LINE
8
BLACK
6
CONTINUOUS
10
0.792219
20
0.454387
11
0.792408
21
0.453683
0
LINE
8
BLACK
6
CONTINUOUS
10
0.792408
20
0.453683
11
0.792408
21
0.446372
0
LINE
8
BLACK
6
CONTINUOUS
10
0.792408
20
0.446372
11
0.792219
21
0.445668
0
LINE
8
BLACK
6
CONTINUOUS
10
0.792219
20
0.445668
11
0.792231
21
0.444939
0
LINE
8
BLACK
6
CONTINUOUS
10
0.792231
20
0.444939
11
0.789794
21
0.435191
0
LINE
8
BLACK
6
CONTINUOUS
10
0.789794
20
0.435191
11
0.789478
21
0.434621
0
LINE
8
BLACK
6
CONTINUOUS
10
0.789478
20
0.434621
11
0.789347
21
0.433982
0
LINE
8
BLACK
6
CONTINUOUS
10
0.789347
20
0.433982
11
0.78691
21
0.429107
0
LINE
8
BLACK
6
CONTINUOUS
10
0.78691
20
0.429107
11
0.786279
21
0.428396
0
LINE
8
BLACK
6
CONTINUOUS
10
0.786279
20
0.428396
11
0.785804
21
0.427573
0
LINE
8
BLACK
6
CONTINUOUS
10
0.785804
20
0.427573
11
0.780929
21
0.422698
0
LINE
8
BLACK
6
CONTINUOUS
10
0.780929
20
0.422698
11
0.779754
21
0.42202
0
LINE
8
BLACK
6
CONTINUOUS
10
0.779754
20
0.42202
11
0.778621
21
0.421272
0
LINE
8
BLACK
6
CONTINUOUS
10
0.778621
20
0.421272
11
0.771309
21
0.418834
0
LINE
8
BLACK
6
CONTINUOUS
10
0.771309
20
0.418834
11
0.77036
21
0.418777
0
LINE
8
BLACK
6
CONTINUOUS
10
0.77036
20
0.418777
11
0.769442
21
0.418531
0
LINE
8
BLACK
6
CONTINUOUS
10
0.769442
20
0.418531
11
0.757256
21
0.418531
0
LINE
8
BLACK
6
CONTINUOUS
10
0.757256
20
0.418531
11
0.754303
21
0.419322
0
LINE
8
BLACK
6
CONTINUOUS
10
0.754303
20
0.419322
11
0.752141
21
0.421484
0
LINE
8
BLACK
6
CONTINUOUS
10
0.752141
20
0.421484
11
0.75135
21
0.424437
0
LINE
8
BLACK
6
CONTINUOUS
10
0.75135
20
0.424437
11
0.75135
21
0.475618
0
LINE
8
BLACK
6
CONTINUOUS
10
0.75135
20
0.475618
11
0.752141
21
0.478571
0
LINE
8
BLACK
6
CONTINUOUS
10
0.752141
20
0.478571
11
0.754303
21
0.480732
0
LINE
8
BLACK
6
CONTINUOUS
10
0.754303
20
0.480732
11
0.757256
21
0.481523
0
LINE
8
BLACK
6
CONTINUOUS
10
0.757256
20
0.481523
11
0.769442
21
0.481523
0
LINE
8
BLACK
6
CONTINUOUS
10
0.769442
20
0.481523
11
0.77036
21
0.481277
0
LINE
8
BLACK
6
CONTINUOUS
10
0.763161
20
0.430342
11
0.768483
21
0.430342
0
LINE
8
BLACK
6
CONTINUOUS
10
0.768483
20
0.430342
11
0.773563
21
0.432036
0
LINE
8
BLACK
6
CONTINUOUS
10
0.773563
20
0.432036
11
0.776774
21
0.435247
0
LINE
8
BLACK
6
CONTINUOUS
10
0.776774
20
0.435247
11
0.778493
21
0.438684
0
LINE
8
BLACK
6
CONTINUOUS
10
0.778493
20
0.438684
11
0.780597
21
0.447098
0
LINE
8
BLACK
6
CONTINUOUS
10
0.780597
20
0.447098
11
0.780597
21
0.452956
0
LINE
8
BLACK
6
CONTINUOUS
10
0.780597
20
0.452956
11
0.778493
21
0.461371
0
LINE
8
BLACK
6
CONTINUOUS
10
0.778493
20
0.461371
11
0.776774
21
0.464808
0
LINE
8
BLACK
6
CONTINUOUS
10
0.776774
20
0.464808
11
0.773563
21
0.468019
0
LINE
8
BLACK
6
CONTINUOUS
10
0.773563
20
0.468019
11
0.768483
21
0.469712
0
LINE
8
BLACK
6
CONTINUOUS
10
0.768483
20
0.469712
11
0.763161
21
0.469712
0
LINE
8
BLACK
6
CONTINUOUS
10
0.763161
20
0.469712
11
0.763161
21
0.430342
0
LINE
8
BLACK
6
CONTINUOUS
10
0.672872
20
0.581277
11
0.673821
21
0.58122
0
LINE
8
BLACK
6
CONTINUOUS
10
0.673821
20
0.58122
11
0.681133
21
0.578783
0
LINE
8
BLACK
6
CONTINUOUS
10
0.681133
20
0.578783
11
0.683684
21
0.577099
0
LINE
8
BLACK
6
CONTINUOUS
10
0.683684
20
0.577099
11
0.685051
21
0.574365
0
LINE
8
BLACK
6
CONTINUOUS
10
0.685051
20
0.574365
11
0.684868
21
0.571313
0
LINE
8
BLACK
6
CONTINUOUS
10
0.684868
20
0.571313
11
0.683184
21
0.568762
0
LINE
8
BLACK
6
CONTINUOUS
10
0.683184
20
0.568762
11
0.680449
21
0.567395
0
LINE
8
BLACK
6
CONTINUOUS
10
0.680449
20
0.567395
11
0.677398
21
0.567578
0
LINE
8
BLACK
6
CONTINUOUS
10
0.677398
20
0.567578
11
0.670996
21
0.569712
0
LINE
8
BLACK
6
CONTINUOUS
10
0.670996
20
0.569712
11
0.661162
21
0.569712
0
LINE
8
BLACK
6
CONTINUOUS
10
0.661162
20
0.569712
11
0.658392
21
0.568327
0
LINE
8
BLACK
6
CONTINUOUS
10
0.658392
20
0.568327
11
0.65731
21
0.567245
0
LINE
8
BLACK
6
CONTINUOUS
10
0.65731
20
0.567245
11
0.655925
21
0.564475
0
LINE
8
BLACK
6
CONTINUOUS
10
0.655925
20
0.564475
11
0.655925
21
0.562389
0
LINE
8
BLACK
6
CONTINUOUS
10
0.655925
20
0.562389
11
0.65731
21
0.559619
0
LINE
8
BLACK
6
CONTINUOUS
10
0.65731
20
0.559619
11
0.658392
21
0.558537
0
LINE
8
BLACK
6
CONTINUOUS
10
0.658392
20
0.558537
11
0.661829
21
0.556818
0
LINE
8
BLACK
6
CONTINUOUS
10
0.661829
20
0.556818
11
0.670949
21
0.554538
0
LINE
8
BLACK
6
CONTINUOUS
10
0.670949
20
0.554538
11
0.671519
21
0.554221
0
LINE
8
BLACK
6
CONTINUOUS
10
0.671519
20
0.554221
11
0.672158
21
0.554091
0
LINE
8
BLACK
6
CONTINUOUS
10
0.672158
20
0.554091
11
0.677032
21
0.551654
0
LINE
8
BLACK
6
CONTINUOUS
10
0.677032
20
0.551654
11
0.677743
21
0.551023
0
LINE
8
BLACK
6
CONTINUOUS
10
0.677743
20
0.551023
11
0.678567
21
0.550547
0
LINE
8
BLACK
6
CONTINUOUS
10
0.678567
20
0.550547
11
0.681004
21
0.54811
0
LINE
8
BLACK
6
CONTINUOUS
10
0.681004
20
0.54811
11
0.681479
21
0.547287
0
LINE
8
BLACK
6
CONTINUOUS
10
0.681479
20
0.547287
11
0.68211
21
0.546575
0
LINE
8
BLACK
6
CONTINUOUS
10
0.68211
20
0.546575
11
0.684548
21
0.541701
0
LINE
8
BLACK
6
CONTINUOUS
10
0.684548
20
0.541701
11
0.68482
21
0.540371
0
LINE
8
BLACK
6
CONTINUOUS
10
0.68482
20
0.540371
11
0.685171
21
0.53906
0
LINE
8
BLACK
6
CONTINUOUS
10
0.685171
20
0.53906
11
0.685171
21
0.534186
0
LINE
8
BLACK
6
CONTINUOUS
10
0.685171
20
0.534186
11
0.68482
21
0.532874
0
LINE
8
BLACK
6
CONTINUOUS
10
0.68482
20
0.532874
11
0.684548
21
0.531545
0
LINE
8
BLACK
6
CONTINUOUS
10
0.684548
20
0.531545
11
0.68211
21
0.52667
0
LINE
8
BLACK
6
CONTINUOUS
10
0.68211
20
0.52667
11
0.681479
21
0.525959
0
LINE
8
BLACK
6
CONTINUOUS
10
0.681479
20
0.525959
11
0.681004
21
0.525135
0
LINE
8
BLACK
6
CONTINUOUS
10
0.681004
20
0.525135
11
0.678567
21
0.522698
0
LINE
8
BLACK
6
CONTINUOUS
10
0.678567
20
0.522698
11
0.677744
21
0.522223
0
LINE
8
BLACK
6
CONTINUOUS
10
0.677744
20
0.522223
11
0.677032
21
0.521592
0
LINE
8
BLACK
6
CONTINUOUS
10
0.677032
20
0.521592
11
0.672158
21
0.519155
0
LINE
8
BLACK
6
CONTINUOUS
10
0.672158
20
0.519155
11
0.670828
21
0.518883
0
LINE
8
BLACK
6
CONTINUOUS
10
0.670828
20
0.518883
11
0.669517
21
0.518531
0
LINE
8
BLACK
6
CONTINUOUS
10
0.669517
20
0.518531
11
0.657331
21
0.518531
0
LINE
8
BLACK
6
CONTINUOUS
10
0.657331
20
0.518531
11
0.656412
21
0.518777
0
LINE
8
BLACK
6
CONTINUOUS
10
0.656412
20
0.518777
11
0.655463
21
0.518834
0
LINE
8
BLACK
6
CONTINUOUS
10
0.655463
20
0.518834
11
0.648152
21
0.521272
0
LINE
8
BLACK
6
CONTINUOUS
10
0.648152
20
0.521272
11
0.645601
21
0.522956
0
LINE
8
BLACK
6
CONTINUOUS
10
0.645601
20
0.522956
11
0.644234
21
0.52569
0
LINE
8
BLACK
6
CONTINUOUS
10
0.644234
20
0.52569
11
0.644417
21
0.528741
0
LINE
8
BLACK
6
CONTINUOUS
10
0.644417
20
0.528741
11
0.646101
21
0.531293
0
LINE
8
BLACK
6
CONTINUOUS
10
0.646101
20
0.531293
11
0.648835
21
0.53266
0
LINE
8
BLACK
6
CONTINUOUS
10
0.648835
20
0.53266
11
0.651887
21
0.532476
0
LINE
8
BLACK
6
CONTINUOUS
10
0.651887
20
0.532476
11
0.658289
21
0.530342
0
LINE
8
BLACK
6
CONTINUOUS
10
0.658289
20
0.530342
11
0.668123
21
0.530342
0
LINE
8
BLACK
6
CONTINUOUS
10
0.668123
20
0.530342
11
0.670893
21
0.531727
0
LINE
8
BLACK
6
CONTINUOUS
10
0.670893
20
0.531727
11
0.671975
21
0.532809
0
LINE
8
BLACK
6
CONTINUOUS
10
0.671975
20
0.532809
11
0.67336
21
0.53558
0
LINE
8
BLACK
6
CONTINUOUS
10
0.67336
20
0.53558
11
0.67336
21
0.537666
0
LINE
8
BLACK
6
CONTINUOUS
10
0.67336
20
0.537666
11
0.671975
21
0.540436
0
LINE
8
BLACK
6
CONTINUOUS
10
0.671975
20
0.540436
11
0.670893
21
0.541518
0
LINE
8
BLACK
6
CONTINUOUS
10
0.670893
20
0.541518
11
0.667455
21
0.543237
0
LINE
8
BLACK
6
CONTINUOUS
10
0.667455
20
0.543237
11
0.658336
21
0.545517
0
LINE
8
BLACK
6
CONTINUOUS
10
0.658336
20
0.545517
11
0.657766
21
0.545833
0
LINE
8
BLACK
6
CONTINUOUS
10
0.657766
20
0.545833
11
0.657127
21
0.545964
0
LINE
8
BLACK
6
CONTINUOUS
10
0.657127
20
0.545964
11
0.652253
21
0.548401
0
LINE
8
BLACK
6
CONTINUOUS
10
0.652253
20
0.548401
11
0.651541
21
0.549032
0
LINE
8
BLACK
6
CONTINUOUS
10
0.651541
20
0.549032
11
0.650718
21
0.549507
0
LINE
8
BLACK
6
CONTINUOUS
10
0.650718
20
0.549507
11
0.648281
21
0.551945
0
LINE
8
BLACK
6
CONTINUOUS
10
0.648281
20
0.551945
11
0.647805
21
0.552768
0
LINE
8
BLACK
6
CONTINUOUS
10
0.647805
20
0.552768
11
0.647174
21
0.553479
0
LINE
8
BLACK
6
CONTINUOUS
10
0.647174
20
0.553479
11
0.644737
21
0.558354
0
LINE
8
BLACK
6
CONTINUOUS
10
0.644737
20
0.558354
11
0.644465
21
0.559684
0
LINE
8
BLACK
6
CONTINUOUS
10
0.644465
20
0.559684
11
0.644114
21
0.560995
0
LINE
8
BLACK
6
CONTINUOUS
10
0.644114
20
0.560995
11
0.644114
21
0.565869
0
LINE
8
BLACK
6
CONTINUOUS
10
0.644114
20
0.565869
11
0.644465
21
0.56718
0
LINE
8
BLACK
6
CONTINUOUS
10
0.644465
20
0.56718
11
0.644737
21
0.56851
0
LINE
8
BLACK
6
CONTINUOUS
10
0.644737
20
0.56851
11
0.647174
21
0.573384
0
LINE
8
BLACK
6
CONTINUOUS
10
0.647174
20
0.573384
11
0.647805
21
0.574096
0
LINE
8
BLACK
6
CONTINUOUS
10
0.647805
20
0.574096
11
0.648281
21
0.574919
0
LINE
8
BLACK
6
CONTINUOUS
10
0.648281
20
0.574919
11
0.650718
21
0.577357
0
LINE
8
BLACK
6
CONTINUOUS
10
0.650718
20
0.577357
11
0.651541
21
0.577832
0
LINE
8
BLACK
6
CONTINUOUS
10
0.651541
20
0.577832
11
0.652253
21
0.578463
0
LINE
8
BLACK
6
CONTINUOUS
10
0.652253
20
0.578463
11
0.657127
21
0.5809
0
LINE
8
BLACK
6
CONTINUOUS
10
0.657127
20
0.5809
11
0.658457
21
0.581172
0
LINE
8
BLACK
6
CONTINUOUS
10
0.658457
20
0.581172
11
0.659768
21
0.581523
0
LINE
8
BLACK
6
CONTINUOUS
10
0.659768
20
0.581523
11
0.671954
21
0.581523
0
LINE
8
BLACK
6
CONTINUOUS
10
0.671954
20
0.581523
11
0.672872
21
0.581277
0
LINE
8
BLACK
6
CONTINUOUS
10
0.714305
20
0.581277
11
0.715254
21
0.58122
0
LINE
8
BLACK
6
CONTINUOUS
10
0.715254
20
0.58122
11
0.722565
21
0.578783
0
LINE
8
BLACK
6
CONTINUOUS
10
0.722565
20
0.578783
11
0.723698
21
0.578035
0
LINE
8
BLACK
6
CONTINUOUS
10
0.723698
20
0.578035
11
0.724874
21
0.577357
0
LINE
8
BLACK
6
CONTINUOUS
10
0.724874
20
0.577357
11
0.729748
21
0.572482
0
LINE
8
BLACK
6
CONTINUOUS
10
0.729748
20
0.572482
11
0.730223
21
0.571659
0
LINE
8
BLACK
6
CONTINUOUS
10
0.730223
20
0.571659
11
0.730854
21
0.570947
0
LINE
8
BLACK
6
CONTINUOUS
10
0.730854
20
0.570947
11
0.733291
21
0.566073
0
LINE
8
BLACK
6
CONTINUOUS
10
0.733291
20
0.566073
11
0.733422
21
0.565434
0
LINE
8
BLACK
6
CONTINUOUS
10
0.733422
20
0.565434
11
0.733739
21
0.564864
0
LINE
8
BLACK
6
CONTINUOUS
10
0.733739
20
0.564864
11
0.736176
21
0.555115
0
LINE
8
BLACK
6
CONTINUOUS
10
0.736176
20
0.555115
11
0.736164
21
0.554387
0
LINE
8
BLACK
6
CONTINUOUS
10
0.736164
20
0.554387
11
0.736352
21
0.553683
0
LINE
8
BLACK
6
CONTINUOUS
10
0.736352
20
0.553683
11
0.736352
21
0.546372
0
LINE
8
BLACK
6
CONTINUOUS
10
0.736352
20
0.546372
11
0.736164
21
0.545668
0
LINE
8
BLACK
6
CONTINUOUS
10
0.736164
20
0.545668
11
0.736176
21
0.544939
0
LINE
8
BLACK
6
CONTINUOUS
10
0.736176
20
0.544939
11
0.733739
21
0.535191
0
LINE
8
BLACK
6
CONTINUOUS
10
0.733739
20
0.535191
11
0.733422
21
0.534621
0
LINE
8
BLACK
6
CONTINUOUS
10
0.733422
20
0.534621
11
0.733291
21
0.533982
0
LINE
8
BLACK
6
CONTINUOUS
10
0.733291
20
0.533982
11
0.730854
21
0.529107
0
LINE
8
BLACK
6
CONTINUOUS
10
0.730854
20
0.529107
11
0.730223
21
0.528396
0
LINE
8
BLACK
6
CONTINUOUS
10
0.730223
20
0.528396
11
0.729748
21
0.527573
0
LINE
8
BLACK
6
CONTINUOUS
10
0.729748
20
0.527573
11
0.724874
21
0.522698
0
LINE
8
BLACK
6
CONTINUOUS
10
0.724874
20
0.522698
11
0.723698
21
0.52202
0
LINE
8
BLACK
6
CONTINUOUS
10
0.723698
20
0.52202
11
0.722565
21
0.521272
0
LINE
8
BLACK
6
CONTINUOUS
10
0.722565
20
0.521272
11
0.715254
21
0.518834
0
LINE
8
BLACK
6
CONTINUOUS
10
0.715254
20
0.518834
11
0.714305
21
0.518777
0
LINE
8
BLACK
6
CONTINUOUS
10
0.714305
20
0.518777
11
0.713386
21
0.518531
0
LINE
8
BLACK
6
CONTINUOUS
10
0.713386
20
0.518531
11
0.7012
21
0.518531
0
LINE
8
BLACK
6
CONTINUOUS
10
0.7012
20
0.518531
11
0.698247
21
0.519322
0
LINE
8
BLACK
6
CONTINUOUS
10
0.698247
20
0.519322
11
0.696086
21
0.521484
0
LINE
8
BLACK
6
CONTINUOUS
10
0.696086
20
0.521484
11
0.695295
21
0.524437
0
LINE
8
BLACK
6
CONTINUOUS
10
0.695295
20
0.524437
11
0.695295
21
0.575618
0
LINE
8
BLACK
6
CONTINUOUS
10
0.695295
20
0.575618
11
0.696086
21
0.578571
0
LINE
8
BLACK
6
CONTINUOUS
10
0.696086
20
0.578571
11
0.698247
21
0.580732
0
LINE
8
BLACK
6
CONTINUOUS
10
0.698247
20
0.580732
11
0.7012
21
0.581523
0
LINE
8
BLACK
6
CONTINUOUS
10
0.7012
20
0.581523
11
0.713386
21
0.581523
0
LINE
8
BLACK
6
CONTINUOUS
10
0.713386
20
0.581523
11
0.714305
21
0.581277
0
LINE
8
BLACK
6
CONTINUOUS
10
0.707106
20
0.530342
11
0.712428
21
0.530342
0
LINE
8
BLACK
6
CONTINUOUS
10
0.712428
20
0.530342
11
0.717508
21
0.532036
0
LINE
8
BLACK
6
CONTINUOUS
10
0.717508
20
0.532036
11
0.720719
21
0.535247
0
LINE
8
BLACK
6
CONTINUOUS
10
0.720719
20
0.535247
11
0.722437
21
0.538684
0
LINE
8
BLACK
6
CONTINUOUS
10
0.722437
20
0.538684
11
0.724541
21
0.547098
0
LINE
8
BLACK
6
CONTINUOUS
10
0.724541
20
0.547098
11
0.724541
21
0.552956
0
LINE
8
BLACK
6
CONTINUOUS
10
0.724541
20
0.552956
11
0.722437
21
0.561371
0
LINE
8
BLACK
6
CONTINUOUS
10
0.722437
20
0.561371
11
0.720719
21
0.564808
0
LINE
8
BLACK
6
CONTINUOUS
10
0.720719
20
0.564808
11
0.717508
21
0.568019
0
LINE
8
BLACK
6
CONTINUOUS
10
0.717508
20
0.568019
11
0.712428
21
0.569712
0
LINE
8
BLACK
6
CONTINUOUS
10
0.712428
20
0.569712
11
0.707106
21
0.569712
0
LINE
8
BLACK
6
CONTINUOUS
10
0.707106
20
0.569712
11
0.707106
21
0.530342
0
LINE
8
BLACK
6
CONTINUOUS
10
0.763637
20
0.581242
11
0.763998
21
0.58122
0
LINE
8
BLACK
6
CONTINUOUS
10
0.763998
20
0.58122
11
0.764987
21
0.580567
0
LINE
8
BLACK
6
CONTINUOUS
10
0.764987
20
0.580567
11
0.766048
21
0.580036
0
LINE
8
BLACK
6
CONTINUOUS
10
0.766048
20
0.580036
11
0.766247
21
0.579735
0
LINE
8
BLACK
6
CONTINUOUS
10
0.766247
20
0.579735
11
0.766549
21
0.579536
0
LINE
8
BLACK
6
CONTINUOUS
10
0.766549
20
0.579536
11
0.767079
21
0.578475
0
LINE
8
BLACK
6
CONTINUOUS
10
0.767079
20
0.578475
11
0.767733
21
0.577485
0
LINE
8
BLACK
6
CONTINUOUS
10
0.767733
20
0.577485
11
0.784793
21
0.526304
0
LINE
8
BLACK
6
CONTINUOUS
10
0.784793
20
0.526304
11
0.784976
21
0.523253
0
LINE
8
BLACK
6
CONTINUOUS
10
0.784976
20
0.523253
11
0.783609
21
0.520519
0
LINE
8
BLACK
6
CONTINUOUS
10
0.783609
20
0.520519
11
0.781058
21
0.518834
0
LINE
8
BLACK
6
CONTINUOUS
10
0.781058
20
0.518834
11
0.778007
21
0.518651
0
LINE
8
BLACK
6
CONTINUOUS
10
0.778007
20
0.518651
11
0.775272
21
0.520018
0
LINE
8
BLACK
6
CONTINUOUS
10
0.775272
20
0.520018
11
0.773588
21
0.522569
0
LINE
8
BLACK
6
CONTINUOUS
10
0.773588
20
0.522569
11
0.77006
21
0.533154
0
LINE
8
BLACK
6
CONTINUOUS
10
0.77006
20
0.533154
11
0.754201
21
0.533154
0
LINE
8
BLACK
6
CONTINUOUS
10
0.754201
20
0.533154
11
0.750672
21
0.522569
0
LINE
8
BLACK
6
CONTINUOUS
10
0.750672
20
0.522569
11
0.748988
21
0.520018
0
LINE
8
BLACK
6
CONTINUOUS
10
0.748988
20
0.520018
11
0.746254
21
0.518651
0
LINE
8
BLACK
6
CONTINUOUS
10
0.746254
20
0.518651
11
0.743202
21
0.518834
0
LINE
8
BLACK
6
CONTINUOUS
10
0.743202
20
0.518834
11
0.740651
21
0.520519
0
LINE
8
BLACK
6
CONTINUOUS
10
0.740651
20
0.520519
11
0.739284
21
0.523253
0
LINE
8
BLACK
6
CONTINUOUS
10
0.739284
20
0.523253
11
0.739467
21
0.526304
0
LINE
8
BLACK
6
CONTINUOUS
10
0.739467
20
0.526304
11
0.756528
21
0.577485
0
LINE
8
BLACK
6
CONTINUOUS
10
0.756528
20
0.577485
11
0.757181
21
0.578475
0
LINE
8
BLACK
6
CONTINUOUS
10
0.757181
20
0.578475
11
0.757712
21
0.579536
0
LINE
8
BLACK
6
CONTINUOUS
10
0.757712
20
0.579536
11
0.758013
21
0.579735
0
LINE
8
BLACK
6
CONTINUOUS
10
0.758013
20
0.579735
11
0.758212
21
0.580036
0
LINE
8
BLACK
6
CONTINUOUS
10
0.758212
20
0.580036
11
0.759273
21
0.580567
0
LINE
8
BLACK
6
CONTINUOUS
10
0.759273
20
0.580567
11
0.760263
21
0.58122
0
LINE
8
BLACK
6
CONTINUOUS
10
0.760263
20
0.58122
11
0.760623
21
0.581242
0
LINE
8
BLACK
6
CONTINUOUS
10
0.760623
20
0.581242
11
0.760946
21
0.581404
0
LINE
8
BLACK
6
CONTINUOUS
10
0.760946
20
0.581404
11
0.76213
21
0.581332
0
LINE
8
BLACK
6
CONTINUOUS
10
0.76213
20
0.581332
11
0.763314
21
0.581404
0
LINE
8
BLACK
6
CONTINUOUS
10
0.763314
20
0.581404
11
0.763637
21
0.581242
0
LINE
8
BLACK
6
CONTINUOUS
10
0.758138
20
0.544965
11
0.766123
21
0.544965
0
LINE
8
BLACK
6
CONTINUOUS
10
0.766123
20
0.544965
11
0.76213
21
0.556943
0
LINE
8
BLACK
6
CONTINUOUS
10
0.76213
20
0.556943
11
0.758138
21
0.544965
0
LINE
8
BLACK
6
CONTINUOUS
10
0.70943
20
0.678777
11
0.710379
21
0.67872
0
LINE
8
BLACK
6
CONTINUOUS
10
0.710379
20
0.67872
11
0.717691
21
0.676283
0
LINE
8
BLACK
6
CONTINUOUS
10
0.717691
20
0.676283
11
0.718824
21
0.675535
0
LINE
8
BLACK
6
CONTINUOUS
10
0.718824
20
0.675535
11
0.719999
21
0.674857
0
LINE
8
BLACK
6
CONTINUOUS
10
0.719999
20
0.674857
11
0.724874
21
0.669982
0
LINE
8
BLACK
6
CONTINUOUS
10
0.724874
20
0.669982
11
0.725349
21
0.669159
0
LINE
8
BLACK
6
CONTINUOUS
10
0.725349
20
0.669159
11
0.72598
21
0.668447
0
LINE
8
BLACK
6
CONTINUOUS
10
0.72598
20
0.668447
11
0.728417
21
0.663573
0
LINE
8
BLACK
6
CONTINUOUS
10
0.728417
20
0.663573
11
0.728548
21
0.662934
0
LINE
8
BLACK
6
CONTINUOUS
10
0.728548
20
0.662934
11
0.728864
21
0.662364
0
LINE
8
BLACK
6
CONTINUOUS
10
0.728864
20
0.662364
11
0.731301
21
0.652615
0
LINE
8
BLACK
6
CONTINUOUS
10
0.731301
20
0.652615
11
0.731289
21
0.651887
0
LINE
8
BLACK
6
CONTINUOUS
10
0.731289
20
0.651887
11
0.731478
21
0.651183
0
LINE
8
BLACK
6
CONTINUOUS
10
0.731478
20
0.651183
11
0.731478
21
0.643872
0
LINE
8
BLACK
6
CONTINUOUS
10
0.731478
20
0.643872
11
0.731289
21
0.643168
0
LINE
8
BLACK
6
CONTINUOUS
10
0.731289
20
0.643168
11
0.731301
21
0.642439
0
LINE
8
BLACK
6
CONTINUOUS
10
0.731301
20
0.642439
11
0.728864
21
0.632691
0
LINE
8
BLACK
6
CONTINUOUS
10
0.728864
20
0.632691
11
0.728548
21
0.632121
0
LINE
8
BLACK
6
CONTINUOUS
10
0.728548
20
0.632121
11
0.728417
21
0.631482
0
LINE
8
BLACK
6
CONTINUOUS
10
0.728417
20
0.631482
11
0.72598
21
0.626607
0
LINE
8
BLACK
6
CONTINUOUS
10
0.72598
20
0.626607
11
0.725349
21
0.625896
0
LINE
8
BLACK
6
CONTINUOUS
10
0.725349
20
0.625896
11
0.724874
21
0.625073
0
LINE
8
BLACK
6
CONTINUOUS
10
0.724874
20
0.625073
11
0.719999
21
0.620198
0
LINE
8
BLACK
6
CONTINUOUS
10
0.719999
20
0.620198
11
0.718824
21
0.61952
0
LINE
8
BLACK
6
CONTINUOUS
10
0.718824
20
0.61952
11
0.717691
21
0.618772
0
LINE
8
BLACK
6
CONTINUOUS
10
0.717691
20
0.618772
11
0.710379
21
0.616334
0
LINE
8
BLACK
6
CONTINUOUS
10
0.710379
20
0.616334
11
0.70943
21
0.616277
0
LINE
8
BLACK
6
CONTINUOUS
10
0.70943
20
0.616277
11
0.708512
21
0.616031
0
LINE
8
BLACK
6
CONTINUOUS
10
0.708512
20
0.616031
11
0.696326
21
0.616031
0
LINE
8
BLACK
6
CONTINUOUS
10
0.696326
20
0.616031
11
0.693373
21
0.616822
0
LINE
8
BLACK
6
CONTINUOUS
10
0.693373
20
0.616822
11
0.691212
21
0.618984
0
LINE
8
BLACK
6
CONTINUOUS
10
0.691212
20
0.618984
11
0.69042
21
0.621937
0
LINE
8
BLACK
6
CONTINUOUS
10
0.69042
20
0.621937
11
0.69042
21
0.673118
0
LINE
8
BLACK
6
CONTINUOUS
10
0.69042
20
0.673118
11
0.691212
21
0.676071
0
LINE
8
BLACK
6
CONTINUOUS
10
0.691212
20
0.676071
11
0.693373
21
0.678232
0
LINE
8
BLACK
6
CONTINUOUS
10
0.693373
20
0.678232
11
0.696326
21
0.679023
0
LINE
8
BLACK
6
CONTINUOUS
10
0.696326
20
0.679023
11
0.708512
21
0.679023
0
LINE
8
BLACK
6
CONTINUOUS
10
0.708512
20
0.679023
11
0.70943
21
0.678777
0
LINE
8
BLACK
6
CONTINUOUS
10
0.702231
20
0.627842
11
0.707554
21
0.627842
0
LINE
8
BLACK
6
CONTINUOUS
10
0.707554
20
0.627842
11
0.712633
21
0.629536
0
LINE
8
BLACK
6
CONTINUOUS
10
0.712633
20
0.629536
11
0.715844
21
0.632747
0
LINE
8
BLACK
6
CONTINUOUS
10
0.715844
20
0.632747
11
0.717563
21
0.636184
0
LINE
8
BLACK
6
CONTINUOUS
10
0.717563
20
0.636184
11
0.719667
21
0.644598
0
LINE
8
BLACK
6
CONTINUOUS
10
0.719667
20
0.644598
11
0.719667
21
0.650456
0
LINE
8
BLACK
6
CONTINUOUS
10
0.719667
20
0.650456
11
0.717563
21
0.658871
0
LINE
8
BLACK
6
CONTINUOUS
10
0.717563
20
0.658871
11
0.715844
21
0.662308
0
LINE
8
BLACK
6
CONTINUOUS
10
0.715844
20
0.662308
11
0.712633
21
0.665519
0
LINE
8
BLACK
6
CONTINUOUS
10
0.712633
20
0.665519
11
0.707554
21
0.667212
0
LINE
8
BLACK
6
CONTINUOUS
10
0.707554
20
0.667212
11
0.702231
21
0.667212
0
LINE
8
BLACK
6
CONTINUOUS
10
0.702231
20
0.667212
11
0.702231
21
0.627842
0
LINE
8
BLACK
6
CONTINUOUS
10
0.760611
20
0.678777
11
0.76156
21
0.67872
0
LINE
8
BLACK
6
CONTINUOUS
10
0.76156
20
0.67872
11
0.768872
21
0.676283
0
LINE
8
BLACK
6
CONTINUOUS
10
0.768872
20
0.676283
11
0.770005
21
0.675535
0
LINE
8
BLACK
6
CONTINUOUS
10
0.770005
20
0.675535
11
0.77118
21
0.674857
0
LINE
8
BLACK
6
CONTINUOUS
10
0.77118
20
0.674857
11
0.776055
21
0.669982
0
LINE
8
BLACK
6
CONTINUOUS
10
0.776055
20
0.669982
11
0.77653
21
0.669159
0
LINE
8
BLACK
6
CONTINUOUS
10
0.77653
20
0.669159
11
0.777161
21
0.668447
0
LINE
8
BLACK
6
CONTINUOUS
10
0.777161
20
0.668447
11
0.779598
21
0.663573
0
LINE
8
BLACK
6
CONTINUOUS
10
0.779598
20
0.663573
11
0.779729
21
0.662934
0
LINE
8
BLACK
6
CONTINUOUS
10
0.779729
20
0.662934
11
0.780045
21
0.662364
0
LINE
8
BLACK
6
CONTINUOUS
10
0.780045
20
0.662364
11
0.782483
21
0.652615
0
LINE
8
BLACK
6
CONTINUOUS
10
0.782483
20
0.652615
11
0.78247
21
0.651887
0
LINE
8
BLACK
6
CONTINUOUS
10
0.78247
20
0.651887
11
0.782659
21
0.651183
0
LINE
8
BLACK
6
CONTINUOUS
10
0.782659
20
0.651183
11
0.782659
21
0.643872
0
LINE
8
BLACK
6
CONTINUOUS
10
0.782659
20
0.643872
11
0.78247
21
0.643168
0
LINE
8
BLACK
6
CONTINUOUS
10
0.78247
20
0.643168
11
0.782483
21
0.642439
0
LINE
8
BLACK
6
CONTINUOUS
10
0.782483
20
0.642439
11
0.780045
21
0.632691
0
LINE
8
BLACK
6
CONTINUOUS
10
0.780045
20
0.632691
11
0.779729
21
0.632121
0
LINE
8
BLACK
6
CONTINUOUS
10
0.779729
20
0.632121
11
0.779598
21
0.631482
0
LINE
8
BLACK
6
CONTINUOUS
10
0.779598
20
0.631482
11
0.777161
21
0.626607
0
LINE
8
BLACK
6
CONTINUOUS
10
0.777161
20
0.626607
11
0.77653
21
0.625896
0
LINE
8
BLACK
6
CONTINUOUS
10
0.77653
20
0.625896
11
0.776055
21
0.625073
0
LINE
8
BLACK
6
CONTINUOUS
10
0.776055
20
0.625073
11
0.77118
21
0.620198
0
LINE
8
BLACK
6
CONTINUOUS
10
0.77118
20
0.620198
11
0.770005
21
0.61952
0
LINE
8
BLACK
6
CONTINUOUS
10
0.770005
20
0.61952
11
0.768872
21
0.618772
0
LINE
8
BLACK
6
CONTINUOUS
10
0.768872
20
0.618772
11
0.76156
21
0.616334
0
LINE
8
BLACK
6
CONTINUOUS
10
0.76156
20
0.616334
11
0.760611
21
0.616277
0
LINE
8
BLACK
6
CONTINUOUS
10
0.760611
20
0.616277
11
0.759693
21
0.616031
0
LINE
8
BLACK
6
CONTINUOUS
10
0.759693
20
0.616031
11
0.747507
21
0.616031
0
LINE
8
BLACK
6
CONTINUOUS
10
0.747507
20
0.616031
11
0.744554
21
0.616822
0
LINE
8
BLACK
6
CONTINUOUS
10
0.744554
20
0.616822
11
0.742393
21
0.618984
0
LINE
8
BLACK
6
CONTINUOUS
10
0.742393
20
0.618984
11
0.741601
21
0.621937
0
LINE
8
BLACK
6
CONTINUOUS
10
0.741601
20
0.621937
11
0.741601
21
0.673118
0
LINE
8
BLACK
6
CONTINUOUS
10
0.741601
20
0.673118
11
0.742393
21
0.676071
0
LINE
8
BLACK
6
CONTINUOUS
10
0.742393
20
0.676071
11
0.744554
21
0.678232
0
LINE
8
BLACK
6
CONTINUOUS
10
0.744554
20
0.678232
11
0.747507
21
0.679023
0
LINE
8
BLACK
6
CONTINUOUS
10
0.747507
20
0.679023
11
0.759693
21
0.679023
0
LINE
8
BLACK
6
CONTINUOUS
10
0.759693
20
0.679023
11
0.760611
21
0.678777
0
LINE
8
BLACK
6
CONTINUOUS
10
0.753412
20
0.627842
11
0.758735
21
0.627842
0
LINE
8
BLACK
6
CONTINUOUS
10
0.758735
20
0.627842
11
0.763814
21
0.629536
0
LINE
8
BLACK
6
CONTINUOUS
10
0.763814
20
0.629536
11
0.767025
21
0.632747
0
LINE
8
BLACK
6
CONTINUOUS
10
0.767025
20
0.632747
11
0.768744
21
0.636184
0
LINE
8
BLACK
6
CONTINUOUS
10
0.768744
20
0.636184
11
0.770848
21
0.644598
0
LINE
8
BLACK
6
CONTINUOUS
10
0.770848
20
0.644598
11
0.770848
21
0.650456
0
LINE
8
BLACK
6
CONTINUOUS
10
0.770848
20
0.650456
11
0.768744
21
0.658871
0
LINE
8
BLACK
6
CONTINUOUS
10
0.768744
20
0.658871
11
0.767025
21
0.662308
0
LINE
8
BLACK
6
CONTINUOUS
10
0.767025
20
0.662308
11
0.763814
21
0.665519
0
LINE
8
BLACK
6
CONTINUOUS
10
0.763814
20
0.665519
11
0.758735
21
0.667212
0
LINE
8
BLACK
6
CONTINUOUS
10
0.758735
20
0.667212
11
0.753412
21
0.667212
0
LINE
8
BLACK
6
CONTINUOUS
10
0.753412
20
0.667212
11
0.753412
21
0.627842
0
LINE
8
BLACK
6
CONTINUOUS
10
0.681133
20
0.67872
11
0.683684
21
0.677036
0
LINE
8
BLACK
6
CONTINUOUS
10
0.683684
20
0.677036
11
0.685051
21
0.674302
0
LINE
8
BLACK
6
CONTINUOUS
10
0.685051
20
0.674302
11
0.684868
21
0.67125
0
LINE
8
BLACK
6
CONTINUOUS
10
0.684868
20
0.67125
11
0.667808
21
0.620069
0
LINE
8
BLACK
6
CONTINUOUS
10
0.667808
20
0.620069
11
0.667154
21
0.619079
0
LINE
8
BLACK
6
CONTINUOUS
10
0.667154
20
0.619079
11
0.666624
21
0.618019
0
LINE
8
BLACK
6
CONTINUOUS
10
0.666624
20
0.618019
11
0.666322
21
0.61782
0
LINE
8
BLACK
6
CONTINUOUS
10
0.666322
20
0.61782
11
0.666123
21
0.617518
0
LINE
8
BLACK
6
CONTINUOUS
10
0.666123
20
0.617518
11
0.665062
21
0.616988
0
LINE
8
BLACK
6
CONTINUOUS
10
0.665062
20
0.616988
11
0.664073
21
0.616334
0
LINE
8
BLACK
6
CONTINUOUS
10
0.664073
20
0.616334
11
0.663712
21
0.616313
0
LINE
8
BLACK
6
CONTINUOUS
10
0.663712
20
0.616313
11
0.663389
21
0.616151
0
LINE
8
BLACK
6
CONTINUOUS
10
0.663389
20
0.616151
11
0.662205
21
0.616222
0
LINE
8
BLACK
6
CONTINUOUS
10
0.662205
20
0.616222
11
0.661021
21
0.616151
0
LINE
8
BLACK
6
CONTINUOUS
10
0.661021
20
0.616151
11
0.660698
21
0.616313
0
LINE
8
BLACK
6
CONTINUOUS
10
0.660698
20
0.616313
11
0.660338
21
0.616334
0
LINE
8
BLACK
6
CONTINUOUS
10
0.660338
20
0.616334
11
0.659348
21
0.616988
0
LINE
8
BLACK
6
CONTINUOUS
10
0.659348
20
0.616988
11
0.658287
21
0.617518
0
LINE
8
BLACK
6
CONTINUOUS
10
0.658287
20
0.617518
11
0.658088
21
0.61782
0
LINE
8
BLACK
6
CONTINUOUS
10
0.658088
20
0.61782
11
0.657787
21
0.618019
0
LINE
8
BLACK
6
CONTINUOUS
10
0.657787
20
0.618019
11
0.657256
21
0.61908
0
LINE
8
BLACK
6
CONTINUOUS
10
0.657256
20
0.61908
11
0.656603
21
0.620069
0
LINE
8
BLACK
6
CONTINUOUS
10
0.656603
20
0.620069
11
0.639542
21
0.67125
0
LINE
8
BLACK
6
CONTINUOUS
10
0.639542
20
0.67125
11
0.639359
21
0.674302
0
LINE
8
BLACK
6
CONTINUOUS
10
0.639359
20
0.674302
11
0.640726
21
0.677036
0
LINE
8
BLACK
6
CONTINUOUS
10
0.640726
20
0.677036
11
0.643277
21
0.67872
0
LINE
8
BLACK
6
CONTINUOUS
10
0.643277
20
0.67872
11
0.646329
21
0.678904
0
LINE
8
BLACK
6
CONTINUOUS
10
0.646329
20
0.678904
11
0.649063
21
0.677536
0
LINE
8
BLACK
6
CONTINUOUS
10
0.649063
20
0.677536
11
0.650747
21
0.674985
0
LINE
8
BLACK
6
CONTINUOUS
10
0.650747
20
0.674985
11
0.662205
21
0.640612
0
LINE
8
BLACK
6
CONTINUOUS
10
0.662205
20
0.640612
11
0.673663
21
0.674985
0
LINE
8
BLACK
6
CONTINUOUS
10
0.673663
20
0.674985
11
0.675347
21
0.677536
0
LINE
8
BLACK
6
CONTINUOUS
10
0.675347
20
0.677536
11
0.678082
21
0.678904
0
LINE
8
BLACK
6
CONTINUOUS
10
0.678082
20
0.678904
11
0.681133
21
0.67872
0
LINE
8
BLACK
6
CONTINUOUS
10
0.672872
20
0.781277
11
0.673821
21
0.78122
0
LINE
8
BLACK
6
CONTINUOUS
10
0.673821
20
0.78122
11
0.681133
21
0.778783
0
LINE
8
BLACK
6
CONTINUOUS
10
0.681133
20
0.778783
11
0.683684
21
0.777099
0
LINE
8
BLACK
6
CONTINUOUS
10
0.683684
20
0.777099
11
0.685051
21
0.774365
0
LINE
8
BLACK
6
CONTINUOUS
10
0.685051
20
0.774365
11
0.684868
21
0.771313
0
LINE
8
BLACK
6
CONTINUOUS
10
0.684868
20
0.771313
11
0.683184
21
0.768762
0
LINE
8
BLACK
6
CONTINUOUS
10
0.683184
20
0.768762
11
0.680449
21
0.767395
0
LINE
8
BLACK
6
CONTINUOUS
10
0.680449
20
0.767395
11
0.677398
21
0.767578
0
LINE
8
BLACK
6
CONTINUOUS
10
0.677398
20
0.767578
11
0.670996
21
0.769712
0
LINE
8
BLACK
6
CONTINUOUS
10
0.670996
20
0.769712
11
0.661162
21
0.769712
0
LINE
8
BLACK
6
CONTINUOUS
10
0.661162
20
0.769712
11
0.658392
21
0.768327
0
LINE
8
BLACK
6
CONTINUOUS
10
0.658392
20
0.768327
11
0.65731
21
0.767245
0
LINE
8
BLACK
6
CONTINUOUS
10
0.65731
20
0.767245
11
0.655925
21
0.764475
0
LINE
8
BLACK
6
CONTINUOUS
10
0.655925
20
0.764475
11
0.655925
21
0.762389
0
LINE
8
BLACK
6
CONTINUOUS
10
0.655925
20
0.762389
11
0.65731
21
0.759619
0
LINE
8
BLACK
6
CONTINUOUS
10
0.65731
20
0.759619
11
0.658392
21
0.758537
0
LINE
8
BLACK
6
CONTINUOUS
10
0.658392
20
0.758537
11
0.661829
21
0.756818
0
LINE
8
BLACK
6
CONTINUOUS
10
0.661829
20
0.756818
11
0.670949
21
0.754538
0
LINE
8
BLACK
6
CONTINUOUS
10
0.670949
20
0.754538
11
0.671519
21
0.754221
0
LINE
8
BLACK
6
CONTINUOUS
10
0.671519
20
0.754221
11
0.672158
21
0.754091
0
LINE
8
BLACK
6
CONTINUOUS
10
0.672158
20
0.754091
11
0.677032
21
0.751654
0
LINE
8
BLACK
6
CONTINUOUS
10
0.677032
20
0.751654
11
0.677743
21
0.751023
0
LINE
8
BLACK
6
CONTINUOUS
10
0.677743
20
0.751023
11
0.678567
21
0.750547
0
LINE
8
BLACK
6
CONTINUOUS
10
0.678567
20
0.750547
11
0.681004
21
0.74811
0
LINE
8
BLACK
6
CONTINUOUS
10
0.681004
20
0.74811
11
0.681479
21
0.747287
0
LINE
8
BLACK
6
CONTINUOUS
10
0.681479
20
0.747287
11
0.68211
21
0.746575
0
LINE
8
BLACK
6
CONTINUOUS
10
0.68211
20
0.746575
11
0.684548
21
0.741701
0
LINE
8
BLACK
6
CONTINUOUS
10
0.684548
20
0.741701
11
0.68482
21
0.740371
0
LINE
8
BLACK
6
CONTINUOUS
10
0.68482
20
0.740371
11
0.685171
21
0.73906
0
LINE
8
BLACK
6
CONTINUOUS
10
0.685171
20
0.73906
11
0.685171
21
0.734186
0
LINE
8
BLACK
6
CONTINUOUS
10
0.685171
20
0.734186
11
0.68482
21
0.732874
0
LINE
8
BLACK
6
CONTINUOUS
10
0.68482
20
0.732874
11
0.684548
21
0.731545
0
LINE
8
BLACK
6
CONTINUOUS
10
0.684548
20
0.731545
11
0.68211
21
0.72667
0
LINE
8
BLACK
6
CONTINUOUS
10
0.68211
20
0.72667
11
0.681479
21
0.725959
0
LINE
8
BLACK
6
CONTINUOUS
10
0.681479
20
0.725959
11
0.681004
21
0.725135
0
LINE
8
BLACK
6
CONTINUOUS
10
0.681004
20
0.725135
11
0.678567
21
0.722698
0
LINE
8
BLACK
6
CONTINUOUS
10
0.678567
20
0.722698
11
0.677744
21
0.722223
0
LINE
8
BLACK
6
CONTINUOUS
10
0.677744
20
0.722223
11
0.677032
21
0.721592
0
LINE
8
BLACK
6
CONTINUOUS
10
0.677032
20
0.721592
11
0.672158
21
0.719155
0
LINE
8
BLACK
6
CONTINUOUS
10
0.672158
20
0.719155
11
0.670828
21
0.718883
0
LINE
8
BLACK
6
CONTINUOUS
10
0.670828
20
0.718883
11
0.669517
21
0.718531
0
LINE
8
BLACK
6
CONTINUOUS
10
0.669517
20
0.718531
11
0.657331
21
0.718531
0
LINE
8
BLACK
6
CONTINUOUS
10
0.657331
20
0.718531
11
0.656412
21
0.718777
0
LINE
8
BLACK
6
CONTINUOUS
10
0.656412
20
0.718777
11
0.655463
21
0.718834
0
LINE
8
BLACK
6
CONTINUOUS
10
0.655463
20
0.718834
11
0.648152
21
0.721272
0
LINE
8
BLACK
6
CONTINUOUS
10
0.648152
20
0.721272
11
0.645601
21
0.722956
0
LINE
8
BLACK
6
CONTINUOUS
10
0.645601
20
0.722956
11
0.644234
21
0.72569
0
LINE
8
BLACK
6
CONTINUOUS
10
0.644234
20
0.72569
11
0.644417
21
0.728741
0
LINE
8
BLACK
6
CONTINUOUS
10
0.644417
20
0.728741
11
0.646101
21
0.731293
0
LINE
8
BLACK
6
CONTINUOUS
10
0.646101
20
0.731293
11
0.648835
21
0.73266
0
LINE
8
BLACK
6
CONTINUOUS
10
0.648835
20
0.73266
11
0.651887
21
0.732476
0
LINE
8
BLACK
6
CONTINUOUS
10
0.651887
20
0.732476
11
0.658289
21
0.730342
0
LINE
8
BLACK
6
CONTINUOUS
10
0.658289
20
0.730342
11
0.668123
21
0.730342
0
LINE
8
BLACK
6
CONTINUOUS
10
0.668123
20
0.730342
11
0.670893
21
0.731727
0
LINE
8
BLACK
6
CONTINUOUS
10
0.670893
20
0.731727
11
0.671975
21
0.732809
0
LINE
8
BLACK
6
CONTINUOUS
10
0.671975
20
0.732809
11
0.67336
21
0.73558
0
LINE
8
BLACK
6
CONTINUOUS
10
0.67336
20
0.73558
11
0.67336
21
0.737666
0
LINE
8
BLACK
6
CONTINUOUS
10
0.67336
20
0.737666
11
0.671975
21
0.740436
0
LINE
8
BLACK
6
CONTINUOUS
10
0.671975
20
0.740436
11
0.670893
21
0.741518
0
LINE
8
BLACK
6
CONTINUOUS
10
0.670893
20
0.741518
11
0.667455
21
0.743237
0
LINE
8
BLACK
6
CONTINUOUS
10
0.667455
20
0.743237
11
0.658336
21
0.745517
0
LINE
8
BLACK
6
CONTINUOUS
10
0.658336
20
0.745517
11
0.657766
21
0.745833
0
LINE
8
BLACK
6
CONTINUOUS
10
0.657766
20
0.745833
11
0.657127
21
0.745964
0
LINE
8
BLACK
6
CONTINUOUS
10
0.657127
20
0.745964
11
0.652253
21
0.748401
0
LINE
8
BLACK
6
CONTINUOUS
10
0.652253
20
0.748401
11
0.651541
21
0.749032
0
LINE
8
BLACK
6
CONTINUOUS
10
0.651541
20
0.749032
11
0.650718
21
0.749507
0
LINE
8
BLACK
6
CONTINUOUS
10
0.650718
20
0.749507
11
0.648281
21
0.751945
0
LINE
8
BLACK
6
CONTINUOUS
10
0.648281
20
0.751945
11
0.647805
21
0.752768
0
LINE
8
BLACK
6
CONTINUOUS
10
0.647805
20
0.752768
11
0.647174
21
0.753479
0
LINE
8
BLACK
6
CONTINUOUS
10
0.647174
20
0.753479
11
0.644737
21
0.758354
0
LINE
8
BLACK
6
CONTINUOUS
10
0.644737
20
0.758354
11
0.644465
21
0.759684
0
LINE
8
BLACK
6
CONTINUOUS
10
0.644465
20
0.759684
11
0.644114
21
0.760995
0
LINE
8
BLACK
6
CONTINUOUS
10
0.644114
20
0.760995
11
0.644114
21
0.765869
0
LINE
8
BLACK
6
CONTINUOUS
10
0.644114
20
0.765869
11
0.644465
21
0.76718
0
LINE
8
BLACK
6
CONTINUOUS
10
0.644465
20
0.76718
11
0.644737
21
0.76851
0
LINE
8
BLACK
6
CONTINUOUS
10
0.644737
20
0.76851
11
0.647174
21
0.773384
0
LINE
8
BLACK
6
CONTINUOUS
10
0.647174
20
0.773384
11
0.647805
21
0.774096
0
LINE
8
BLACK
6
CONTINUOUS
10
0.647805
20
0.774096
11
0.648281
21
0.774919
0
LINE
8
BLACK
6
CONTINUOUS
10
0.648281
20
0.774919
11
0.650718
21
0.777357
0
LINE
8
BLACK
6
CONTINUOUS
10
0.650718
20
0.777357
11
0.651541
21
0.777832
0
LINE
8
BLACK
6
CONTINUOUS
10
0.651541
20
0.777832
11
0.652253
21
0.778463
0
LINE
8
BLACK
6
CONTINUOUS
10
0.652253
20
0.778463
11
0.657127
21
0.7809
0
LINE
8
BLACK
6
CONTINUOUS
10
0.657127
20
0.7809
11
0.658457
21
0.781172
0
LINE
8
BLACK
6
CONTINUOUS
10
0.658457
20
0.781172
11
0.659768
21
0.781523
0
LINE
8
BLACK
6
CONTINUOUS
10
0.659768
20
0.781523
11
0.671954
21
0.781523
0
LINE
8
BLACK
6
CONTINUOUS
10
0.671954
20
0.781523
11
0.672872
21
0.781277
0
LINE
8
BLACK
6
CONTINUOUS
10
0.721616
20
0.781277
11
0.722565
21
0.78122
0
LINE
8
BLACK
6
CONTINUOUS
10
0.722565
20
0.78122
11
0.729877
21
0.778783
0
LINE
8
BLACK
6
CONTINUOUS
10
0.729877
20
0.778783
11
0.73101
21
0.778035
0
LINE
8
BLACK
6
CONTINUOUS
10
0.73101
20
0.778035
11
0.732185
21
0.777356
0
LINE
8
BLACK
6
CONTINUOUS
10
0.732185
20
0.777356
11
0.734622
21
0.774919
0
LINE
8
BLACK
6
CONTINUOUS
10
0.734622
20
0.774919
11
0.736151
21
0.772272
0
LINE
8
BLACK
6
CONTINUOUS
10
0.736151
20
0.772272
11
0.736151
21
0.769215
0
LINE
8
BLACK
6
CONTINUOUS
10
0.736151
20
0.769215
11
0.734622
21
0.766568
0
LINE
8
BLACK
6
CONTINUOUS
10
0.734622
20
0.766568
11
0.731975
21
0.765039
0
LINE
8
BLACK
6
CONTINUOUS
10
0.731975
20
0.765039
11
0.728918
21
0.765039
0
LINE
8
BLACK
6
CONTINUOUS
10
0.728918
20
0.765039
11
0.726271
21
0.766568
0
LINE
8
BLACK
6
CONTINUOUS
10
0.726271
20
0.766568
11
0.724819
21
0.768019
0
LINE
8
BLACK
6
CONTINUOUS
10
0.724819
20
0.768019
11
0.71974
21
0.769712
0
LINE
8
BLACK
6
CONTINUOUS
10
0.71974
20
0.769712
11
0.716782
21
0.769712
0
LINE
8
BLACK
6
CONTINUOUS
10
0.716782
20
0.769712
11
0.711702
21
0.768019
0
LINE
8
BLACK
6
CONTINUOUS
10
0.711702
20
0.768019
11
0.708491
21
0.764808
0
LINE
8
BLACK
6
CONTINUOUS
10
0.708491
20
0.764808
11
0.706772
21
0.761371
0
LINE
8
BLACK
6
CONTINUOUS
10
0.706772
20
0.761371
11
0.704669
21
0.752956
0
LINE
8
BLACK
6
CONTINUOUS
10
0.704669
20
0.752956
11
0.704669
21
0.747099
0
LINE
8
BLACK
6
CONTINUOUS
10
0.704669
20
0.747099
11
0.706772
21
0.738684
0
LINE
8
BLACK
6
CONTINUOUS
10
0.706772
20
0.738684
11
0.708491
21
0.735247
0
LINE
8
BLACK
6
CONTINUOUS
10
0.708491
20
0.735247
11
0.711702
21
0.732036
0
LINE
8
BLACK
6
CONTINUOUS
10
0.711702
20
0.732036
11
0.716782
21
0.730342
0
LINE
8
BLACK
6
CONTINUOUS
10
0.716782
20
0.730342
11
0.71974
21
0.730342
0
LINE
8
BLACK
6
CONTINUOUS
10
0.71974
20
0.730342
11
0.724819
21
0.732036
0
LINE
8
BLACK
6
CONTINUOUS
10
0.724819
20
0.732036
11
0.726271
21
0.733487
0
LINE
8
BLACK
6
CONTINUOUS
10
0.726271
20
0.733487
11
0.728918
21
0.735015
0
LINE
8
BLACK
6
CONTINUOUS
10
0.728918
20
0.735015
11
0.731975
21
0.735015
0
LINE
8
BLACK
6
CONTINUOUS
10
0.731975
20
0.735015
11
0.734622
21
0.733487
0
LINE
8
BLACK
6
CONTINUOUS
10
0.734622
20
0.733487
11
0.736151
21
0.73084
0
LINE
8
BLACK
6
CONTINUOUS
10
0.736151
20
0.73084
11
0.736151
21
0.727783
0
LINE
8
BLACK
6
CONTINUOUS
10
0.736151
20
0.727783
11
0.734622
21
0.725135
0
LINE
8
BLACK
6
CONTINUOUS
10
0.734622
20
0.725135
11
0.732185
21
0.722698
0
LINE
8
BLACK
6
CONTINUOUS
10
0.732185
20
0.722698
11
0.73101
21
0.722019
0
LINE
8
BLACK
6
CONTINUOUS
10
0.73101
20
0.722019
11
0.729877
21
0.721272
0
LINE
8
BLACK
6
CONTINUOUS
10
0.729877
20
0.721272
11
0.722565
21
0.718834
0
LINE
8
BLACK
6
CONTINUOUS
10
0.722565
20
0.718834
11
0.721616
21
0.718777
0
LINE
8
BLACK
6
CONTINUOUS
10
0.721616
20
0.718777
11
0.720698
21
0.718531
0
LINE
8
BLACK
6
CONTINUOUS
10
0.720698
20
0.718531
11
0.715823
21
0.718531
0
LINE
8
BLACK
6
CONTINUOUS
10
0.715823
20
0.718531
11
0.714905
21
0.718777
0
LINE
8
BLACK
6
CONTINUOUS
10
0.714905
20
0.718777
11
0.713956
21
0.718834
0
LINE
8
BLACK
6
CONTINUOUS
10
0.713956
20
0.718834
11
0.706644
21
0.721272
0
LINE
8
BLACK
6
CONTINUOUS
10
0.706644
20
0.721272
11
0.705512
21
0.722019
0
LINE
8
BLACK
6
CONTINUOUS
10
0.705512
20
0.722019
11
0.704336
21
0.722698
0
LINE
8
BLACK
6
CONTINUOUS
10
0.704336
20
0.722698
11
0.699462
21
0.727573
0
LINE
8
BLACK
6
CONTINUOUS
10
0.699462
20
0.727573
11
0.698986
21
0.728396
0
LINE
8
BLACK
6
CONTINUOUS
10
0.698986
20
0.728396
11
0.698355
21
0.729107
0
LINE
8
BLACK
6
CONTINUOUS
10
0.698355
20
0.729107
11
0.695918
21
0.733982
0
LINE
8
BLACK
6
CONTINUOUS
10
0.695918
20
0.733982
11
0.695787
21
0.734621
0
LINE
8
BLACK
6
CONTINUOUS
10
0.695787
20
0.734621
11
0.695471
21
0.735191
0
LINE
8
BLACK
6
CONTINUOUS
10
0.695471
20
0.735191
11
0.693034
21
0.744939
0
LINE
8
BLACK
6
CONTINUOUS
10
0.693034
20
0.744939
11
0.693046
21
0.745668
0
LINE
8
BLACK
6
CONTINUOUS
10
0.693046
20
0.745668
11
0.692858
21
0.746372
0
LINE
8
BLACK
6
CONTINUOUS
10
0.692858
20
0.746372
11
0.692858
21
0.753683
0
LINE
8
BLACK
6
CONTINUOUS
10
0.692858
20
0.753683
11
0.693046
21
0.754387
0
LINE
8
BLACK
6
CONTINUOUS
10
0.693046
20
0.754387
11
0.693034
21
0.755115
0
LINE
8
BLACK
6
CONTINUOUS
10
0.693034
20
0.755115
11
0.695471
21
0.764864
0
LINE
8
BLACK
6
CONTINUOUS
10
0.695471
20
0.764864
11
0.695787
21
0.765434
0
LINE
8
BLACK
6
CONTINUOUS
10
0.695787
20
0.765434
11
0.695918
21
0.766073
0
LINE
8
BLACK
6
CONTINUOUS
10
0.695918
20
0.766073
11
0.698355
21
0.770947
0
LINE
8
BLACK
6
CONTINUOUS
10
0.698355
20
0.770947
11
0.698986
21
0.771659
0
LINE
8
BLACK
6
CONTINUOUS
10
0.698986
20
0.771659
11
0.699462
21
0.772482
0
LINE
8
BLACK
6
CONTINUOUS
10
0.699462
20
0.772482
11
0.704336
21
0.777357
0
LINE
8
BLACK
6
CONTINUOUS
10
0.704336
20
0.777357
11
0.705512
21
0.778035
0
LINE
8
BLACK
6
CONTINUOUS
10
0.705512
20
0.778035
11
0.706644
21
0.778783
0
LINE
8
BLACK
6
CONTINUOUS
10
0.706644
20
0.778783
11
0.713956
21
0.78122
0
LINE
8
BLACK
6
CONTINUOUS
10
0.713956
20
0.78122
11
0.714905
21
0.781277
0
LINE
8
BLACK
6
CONTINUOUS
10
0.714905
20
0.781277
11
0.715823
21
0.781523
0
LINE
8
BLACK
6
CONTINUOUS
10
0.715823
20
0.781523
11
0.720698
21
0.781523
0
LINE
8
BLACK
6
CONTINUOUS
10
0.720698
20
0.781523
11
0.721616
21
0.781277
0
LINE
8
BLACK
6
CONTINUOUS
10
0.755334
20
0.780732
11
0.757496
21
0.778571
0
LINE
8
BLACK
6
CONTINUOUS
10
0.757496
20
0.778571
11
0.758287
21
0.775618
0
LINE
8
BLACK
6
CONTINUOUS
10
0.758287
20
0.775618
11
0.758287
21
0.730342
0
LINE
8
BLACK
6
CONTINUOUS
10
0.758287
20
0.730342
11
0.776753
21
0.730342
0
LINE
8
BLACK
6
CONTINUOUS
10
0.776753
20
0.730342
11
0.779706
21
0.729551
0
LINE
8
BLACK
6
CONTINUOUS
10
0.779706
20
0.729551
11
0.781868
21
0.72739
0
LINE
8
BLACK
6
CONTINUOUS
10
0.781868
20
0.72739
11
0.782659
21
0.724437
0
LINE
8
BLACK
6
CONTINUOUS
10
0.782659
20
0.724437
11
0.781868
21
0.721484
0
LINE
8
BLACK
6
CONTINUOUS
10
0.781868
20
0.721484
11
0.779706
21
0.719322
0
LINE
8
BLACK
6
CONTINUOUS
10
0.779706
20
0.719322
11
0.776753
21
0.718531
0
LINE
8
BLACK
6
CONTINUOUS
10
0.776753
20
0.718531
11
0.752381
21
0.718531
0
LINE
8
BLACK
6
CONTINUOUS
10
0.752381
20
0.718531
11
0.749429
21
0.719322
0
LINE
8
BLACK
6
CONTINUOUS
10
0.749429
20
0.719322
11
0.747267
21
0.721484
0
LINE
8
BLACK
6
CONTINUOUS
10
0.747267
20
0.721484
11
0.746476
21
0.724437
0
LINE
8
BLACK
6
CONTINUOUS
10
0.746476
20
0.724437
11
0.746476
21
0.775618
0
LINE
8
BLACK
6
CONTINUOUS
10
0.746476
20
0.775618
11
0.747267
21
0.778571
0
LINE
8
BLACK
6
CONTINUOUS
10
0.747267
20
0.778571
11
0.749429
21
0.780732
0
LINE
8
BLACK
6
CONTINUOUS
10
0.749429
20
0.780732
11
0.752381
21
0.781523
0
LINE
8
BLACK
6
CONTINUOUS
10
0.752381
20
0.781523
11
0.755334
21
0.780732
0
LINE
8
BLACK
6
CONTINUOUS
10
0.675702
20
0.878672
11
0.677032
21
0.8784
0
LINE
8
BLACK
6
CONTINUOUS
10
0.677032
20
0.8784
11
0.681907
21
0.875963
0
LINE
8
BLACK
6
CONTINUOUS
10
0.681907
20
0.875963
11
0.684194
21
0.873935
0
LINE
8
BLACK
6
CONTINUOUS
10
0.684194
20
0.873935
11
0.68516
21
0.871035
0
LINE
8
BLACK
6
CONTINUOUS
10
0.68516
20
0.871035
11
0.684548
21
0.86804
0
LINE
8
BLACK
6
CONTINUOUS
10
0.684548
20
0.86804
11
0.682519
21
0.865752
0
LINE
8
BLACK
6
CONTINUOUS
10
0.682519
20
0.865752
11
0.679619
21
0.864786
0
LINE
8
BLACK
6
CONTINUOUS
10
0.679619
20
0.864786
11
0.676624
21
0.865399
0
LINE
8
BLACK
6
CONTINUOUS
10
0.676624
20
0.865399
11
0.672997
21
0.867212
0
LINE
8
BLACK
6
CONTINUOUS
10
0.672997
20
0.867212
11
0.668038
21
0.867212
0
LINE
8
BLACK
6
CONTINUOUS
10
0.668038
20
0.867212
11
0.662958
21
0.865519
0
LINE
8
BLACK
6
CONTINUOUS
10
0.662958
20
0.865519
11
0.659747
21
0.862308
0
LINE
8
BLACK
6
CONTINUOUS
10
0.659747
20
0.862308
11
0.658028
21
0.858871
0
LINE
8
BLACK
6
CONTINUOUS
10
0.658028
20
0.858871
11
0.655925
21
0.850456
0
LINE
8
BLACK
6
CONTINUOUS
10
0.655925
20
0.850456
11
0.655925
21
0.844599
0
LINE
8
BLACK
6
CONTINUOUS
10
0.655925
20
0.844599
11
0.658028
21
0.836184
0
LINE
8
BLACK
6
CONTINUOUS
10
0.658028
20
0.836184
11
0.659747
21
0.832747
0
LINE
8
BLACK
6
CONTINUOUS
10
0.659747
20
0.832747
11
0.662958
21
0.829536
0
LINE
8
BLACK
6
CONTINUOUS
10
0.662958
20
0.829536
11
0.668038
21
0.827842
0
LINE
8
BLACK
6
CONTINUOUS
10
0.668038
20
0.827842
11
0.670996
21
0.827842
0
LINE
8
BLACK
6
CONTINUOUS
10
0.670996
20
0.827842
11
0.675797
21
0.829443
0
LINE
8
BLACK
6
CONTINUOUS
10
0.675797
20
0.829443
11
0.675797
21
0.837966
0
LINE
8
BLACK
6
CONTINUOUS
10
0.675797
20
0.837966
11
0.671954
21
0.837966
0
LINE
8
BLACK
6
CONTINUOUS
10
0.671954
20
0.837966
11
0.669001
21
0.838757
0
LINE
8
BLACK
6
CONTINUOUS
10
0.669001
20
0.838757
11
0.66684
21
0.840919
0
LINE
8
BLACK
6
CONTINUOUS
10
0.66684
20
0.840919
11
0.666048
21
0.843872
0
LINE
8
BLACK
6
CONTINUOUS
10
0.666048
20
0.843872
11
0.66684
21
0.846824
0
LINE
8
BLACK
6
CONTINUOUS
10
0.66684
20
0.846824
11
0.669001
21
0.848986
0
LINE
8
BLACK
6
CONTINUOUS
10
0.669001
20
0.848986
11
0.671954
21
0.849777
0
LINE
8
BLACK
6
CONTINUOUS
10
0.671954
20
0.849777
11
0.681703
21
0.849777
0
LINE
8
BLACK
6
CONTINUOUS
10
0.681703
20
0.849777
11
0.684655
21
0.848986
0
LINE
8
BLACK
6
CONTINUOUS
10
0.684655
20
0.848986
11
0.686817
21
0.846824
0
LINE
8
BLACK
6
CONTINUOUS
10
0.686817
20
0.846824
11
0.687608
21
0.843872
0
LINE
8
BLACK
6
CONTINUOUS
10
0.687608
20
0.843872
11
0.687608
21
0.826811
0
LINE
8
BLACK
6
CONTINUOUS
10
0.687608
20
0.826811
11
0.687407
21
0.82606
0
LINE
8
BLACK
6
CONTINUOUS
10
0.687407
20
0.82606
11
0.687407
21
0.825283
0
LINE
8
BLACK
6
CONTINUOUS
10
0.687407
20
0.825283
11
0.687018
21
0.824609
0
LINE
8
BLACK
6
CONTINUOUS
10
0.687018
20
0.824609
11
0.686817
21
0.823858
0
LINE
8
BLACK
6
CONTINUOUS
10
0.686817
20
0.823858
11
0.686267
21
0.823309
0
LINE
8
BLACK
6
CONTINUOUS
10
0.686267
20
0.823309
11
0.685879
21
0.822635
0
LINE
8
BLACK
6
CONTINUOUS
10
0.685879
20
0.822635
11
0.683441
21
0.820198
0
LINE
8
BLACK
6
CONTINUOUS
10
0.683441
20
0.820198
11
0.682266
21
0.819519
0
LINE
8
BLACK
6
CONTINUOUS
10
0.682266
20
0.819519
11
0.681133
21
0.818772
0
LINE
8
BLACK
6
CONTINUOUS
10
0.681133
20
0.818772
11
0.673821
21
0.816334
0
LINE
8
BLACK
6
CONTINUOUS
10
0.673821
20
0.816334
11
0.672872
21
0.816277
0
LINE
8
BLACK
6
CONTINUOUS
10
0.672872
20
0.816277
11
0.671954
21
0.816031
0
LINE
8
BLACK
6
CONTINUOUS
10
0.671954
20
0.816031
11
0.66708
21
0.816031
0
LINE
8
BLACK
6
CONTINUOUS
10
0.66708
20
0.816031
11
0.666161
21
0.816277
0
LINE
8
BLACK
6
CONTINUOUS
10
0.666161
20
0.816277
11
0.665212
21
0.816334
0
LINE
8
BLACK
6
CONTINUOUS
10
0.665212
20
0.816334
11
0.6579
21
0.818772
0
LINE
8
BLACK
6
CONTINUOUS
10
0.6579
20
0.818772
11
0.656768
21
0.819519
0
LINE
8
BLACK
6
CONTINUOUS
10
0.656768
20
0.819519
11
0.655592
21
0.820198
0
LINE
8
BLACK
6
CONTINUOUS
10
0.655592
20
0.820198
11
0.650718
21
0.825073
0
LINE
8
BLACK
6
CONTINUOUS
10
0.650718
20
0.825073
11
0.650242
21
0.825896
0
LINE
8
BLACK
6
CONTINUOUS
10
0.650242
20
0.825896
11
0.649611
21
0.826607
0
LINE
8
BLACK
6
CONTINUOUS
10
0.649611
20
0.826607
11
0.647174
21
0.831482
0
LINE
8
BLACK
6
CONTINUOUS
10
0.647174
20
0.831482
11
0.647044
21
0.832121
0
LINE
8
BLACK
6
CONTINUOUS
10
0.647044
20
0.832121
11
0.646727
21
0.832691
0
LINE
8
BLACK
6
CONTINUOUS
10
0.646727
20
0.832691
11
0.64429
21
0.842439
0
LINE
8
BLACK
6
CONTINUOUS
10
0.64429
20
0.842439
11
0.644302
21
0.843168
0
LINE
8
BLACK
6
CONTINUOUS
10
0.644302
20
0.843168
11
0.644114
21
0.843872
0
LINE
8
BLACK
6
CONTINUOUS
10
0.644114
20
0.843872
11
0.644114
21
0.851183
0
LINE
8
BLACK
6
CONTINUOUS
10
0.644114
20
0.851183
11
0.644302
21
0.851887
0
LINE
8
BLACK
6
CONTINUOUS
10
0.644302
20
0.851887
11
0.64429
21
0.852615
0
LINE
8
BLACK
6
CONTINUOUS
10
0.64429
20
0.852615
11
0.646727
21
0.862364
0
LINE
8
BLACK
6
CONTINUOUS
10
0.646727
20
0.862364
11
0.647044
21
0.862934
0
LINE
8
BLACK
6
CONTINUOUS
10
0.647044
20
0.862934
11
0.647174
21
0.863573
0
LINE
8
BLACK
6
CONTINUOUS
10
0.647174
20
0.863573
11
0.649611
21
0.868447
0
LINE
8
BLACK
6
CONTINUOUS
10
0.649611
20
0.868447
11
0.650242
21
0.869159
0
LINE
8
BLACK
6
CONTINUOUS
10
0.650242
20
0.869159
11
0.650718
21
0.869982
0
LINE
8
BLACK
6
CONTINUOUS
10
0.650718
20
0.869982
11
0.655592
21
0.874857
0
LINE
8
BLACK
6
CONTINUOUS
10
0.655592
20
0.874857
11
0.656768
21
0.875535
0
LINE
8
BLACK
6
CONTINUOUS
10
0.656768
20
0.875535
11
0.6579
21
0.876283
0
LINE
8
BLACK
6
CONTINUOUS
10
0.6579
20
0.876283
11
0.665212
21
0.87872
0
LINE
8
BLACK
6
CONTINUOUS
10
0.665212
20
0.87872
11
0.666161
21
0.878777
0
LINE
8
BLACK
6
CONTINUOUS
10
0.666161
20
0.878777
11
0.66708
21
0.879023
0
LINE
8
BLACK
6
CONTINUOUS
10
0.66708
20
0.879023
11
0.674391
21
0.879023
0
LINE
8
BLACK
6
CONTINUOUS
10
0.674391
20
0.879023
11
0.675702
21
0.878672
0
LINE
8
BLACK
6
CONTINUOUS
10
0.735837
20
0.878232
11
0.737998
21
0.876071
0
LINE
8
BLACK
6
CONTINUOUS
10
0.737998
20
0.876071
11
0.738789
21
0.873118
0
LINE
8
BLACK
6
CONTINUOUS
10
0.738789
20
0.873118
11
0.738789
21
0.821937
0
LINE
8
BLACK
6
CONTINUOUS
10
0.738789
20
0.821937
11
0.738786
21
0.821924
0
LINE
8
BLACK
6
CONTINUOUS
10
0.738786
20
0.821924
11
0.738789
21
0.821911
0
LINE
8
BLACK
6
CONTINUOUS
10
0.738789
20
0.821911
11
0.738392
21
0.820456
0
LINE
8
BLACK
6
CONTINUOUS
10
0.738392
20
0.820456
11
0.737998
21
0.818984
0
LINE
8
BLACK
6
CONTINUOUS
10
0.737998
20
0.818984
11
0.737988
21
0.818974
0
LINE
8
BLACK
6
CONTINUOUS
10
0.737988
20
0.818974
11
0.737985
21
0.818961
0
LINE
8
BLACK
6
CONTINUOUS
10
0.737985
20
0.818961
11
0.73691
21
0.817896
0
LINE
8
BLACK
6
CONTINUOUS
10
0.73691
20
0.817896
11
0.735837
21
0.816822
0
LINE
8
BLACK
6
CONTINUOUS
10
0.735837
20
0.816822
11
0.735823
21
0.816819
0
LINE
8
BLACK
6
CONTINUOUS
10
0.735823
20
0.816819
11
0.735814
21
0.816809
0
LINE
8
BLACK
6
CONTINUOUS
10
0.735814
20
0.816809
11
0.734353
21
0.816425
0
LINE
8
BLACK
6
CONTINUOUS
10
0.734353
20
0.816425
11
0.732884
21
0.816031
0
LINE
8
BLACK
6
CONTINUOUS
10
0.732884
20
0.816031
11
0.732871
21
0.816035
0
LINE
8
BLACK
6
CONTINUOUS
10
0.732871
20
0.816035
11
0.732857
21
0.816031
0
LINE
8
BLACK
6
CONTINUOUS
10
0.732857
20
0.816031
11
0.7314
21
0.816429
0
LINE
8
BLACK
6
CONTINUOUS
10
0.7314
20
0.816429
11
0.729931
21
0.816822
0
LINE
8
BLACK
6
CONTINUOUS
10
0.729931
20
0.816822
11
0.729921
21
0.816832
0
LINE
8
BLACK
6
CONTINUOUS
10
0.729921
20
0.816832
11
0.729908
21
0.816836
0
LINE
8
BLACK
6
CONTINUOUS
10
0.729908
20
0.816836
11
0.728841
21
0.817912
0
LINE
8
BLACK
6
CONTINUOUS
10
0.728841
20
0.817912
11
0.727769
21
0.818984
0
LINE
8
BLACK
6
CONTINUOUS
10
0.727769
20
0.818984
11
0.727766
21
0.818997
0
LINE
8
BLACK
6
CONTINUOUS
10
0.727766
20
0.818997
11
0.727756
21
0.819007
0
LINE
8
BLACK
6
CONTINUOUS
10
0.727756
20
0.819007
11
0.709543
21
0.85088
0
LINE
8
BLACK
6
CONTINUOUS
10
0.709543
20
0.85088
11
0.709543
21
0.821937
0
LINE
8
BLACK
6
CONTINUOUS
10
0.709543
20
0.821937
11
0.708752
21
0.818984
0
LINE
8
BLACK
6
CONTINUOUS
10
0.708752
20
0.818984
11
0.70659
21
0.816822
0
LINE
8
BLACK
6
CONTINUOUS
10
0.70659
20
0.816822
11
0.703637
21
0.816031
0
LINE
8
BLACK
6
CONTINUOUS
10
0.703637
20
0.816031
11
0.700685
21
0.816822
0
LINE
8
BLACK
6
CONTINUOUS
10
0.700685
20
0.816822
11
0.698523
21
0.818984
0
LINE
8
BLACK
6
CONTINUOUS
10
0.698523
20
0.818984
11
0.697732
21
0.821937
0
LINE
8
BLACK
6
CONTINUOUS
10
0.697732
20
0.821937
11
0.697732
21
0.873118
0
LINE
8
BLACK
6
CONTINUOUS
10
0.697732
20
0.873118
11
0.697735
21
0.873131
0
LINE
8
BLACK
6
CONTINUOUS
10
0.697735
20
0.873131
11
0.697732
21
0.873144
0
LINE
8
BLACK
6
CONTINUOUS
10
0.697732
20
0.873144
11
0.698132
21
0.87461
0
LINE
8
BLACK
6
CONTINUOUS
10
0.698132
20
0.87461
11
0.698523
21
0.876071
0
LINE
8
BLACK
6
CONTINUOUS
10
0.698523
20
0.876071
11
0.698533
21
0.87608
0
LINE
8
BLACK
6
CONTINUOUS
10
0.698533
20
0.87608
11
0.698536
21
0.876093
0
LINE
8
BLACK
6
CONTINUOUS
10
0.698536
20
0.876093
11
0.699613
21
0.877161
0
LINE
8
BLACK
6
CONTINUOUS
10
0.699613
20
0.877161
11
0.700685
21
0.878232
0
LINE
8
BLACK
6
CONTINUOUS
10
0.700685
20
0.878232
11
0.700698
21
0.878236
0
LINE
8
BLACK
6
CONTINUOUS
10
0.700698
20
0.878236
11
0.700707
21
0.878245
0
LINE
8
BLACK
6
CONTINUOUS
10
0.700707
20
0.878245
11
0.702173
21
0.878631
0
LINE
8
BLACK
6
CONTINUOUS
10
0.702173
20
0.878631
11
0.703637
21
0.879023
0
LINE
8
BLACK
6
CONTINUOUS
10
0.703637
20
0.879023
11
0.703651
21
0.87902
0
LINE
8
BLACK
6
CONTINUOUS
10
0.703651
20
0.87902
11
0.703664
21
0.879023
0
LINE
8
BLACK
6
CONTINUOUS
10
0.703664
20
0.879023
11
0.70513
21
0.878624
0
LINE
8
BLACK
6
CONTINUOUS
10
0.70513
20
0.878624
11
0.70659
21
0.878232
0
LINE
8
BLACK
6
CONTINUOUS
10
0.70659
20
0.878232
11
0.7066
21
0.878223
0
LINE
8
BLACK
6
CONTINUOUS
10
0.7066
20
0.878223
11
0.706613
21
0.878219
0
LINE
8
BLACK
6
CONTINUOUS
10
0.706613
20
0.878219
11
0.70768
21
0.877142
0
LINE
8
BLACK
6
CONTINUOUS
10
0.70768
20
0.877142
11
0.708752
21
0.876071
0
LINE
8
BLACK
6
CONTINUOUS
10
0.708752
20
0.876071
11
0.708755
21
0.876057
0
LINE
8
BLACK
6
CONTINUOUS
10
0.708755
20
0.876057
11
0.708765
21
0.876048
0
LINE
8
BLACK
6
CONTINUOUS
10
0.708765
20
0.876048
11
0.726978
21
0.844174
0
LINE
8
BLACK
6
CONTINUOUS
10
0.726978
20
0.844174
11
0.726978
21
0.873118
0
LINE
8
BLACK
6
CONTINUOUS
10
0.726978
20
0.873118
11
0.727769
21
0.876071
0
LINE
8
BLACK
6
CONTINUOUS
10
0.727769
20
0.876071
11
0.729931
21
0.878232
0
LINE
8
BLACK
6
CONTINUOUS
10
0.729931
20
0.878232
11
0.732884
21
0.879023
0
LINE
8
BLACK
6
CONTINUOUS
10
0.732884
20
0.879023
11
0.735837
21
0.878232
0
LINE
8
BLACK
6
CONTINUOUS
10
0.77036
20
0.878777
11
0.771309
21
0.87872
0
LINE
8
BLACK
6
CONTINUOUS
10
0.771309
20
0.87872
11
0.778621
21
0.876283
0
LINE
8
BLACK
6
CONTINUOUS
10
0.778621
20
0.876283
11
0.779754
21
0.875535
0
LINE
8
BLACK
6
CONTINUOUS
10
0.779754
20
0.875535
11
0.780929
21
0.874857
0
LINE
8
BLACK
6
CONTINUOUS
10
0.780929
20
0.874857
11
0.785804
21
0.869982
0
LINE
8
BLACK
6
CONTINUOUS
10
0.785804
20
0.869982
11
0.786279
21
0.869159
0
LINE
8
BLACK
6
CONTINUOUS
10
0.786279
20
0.869159
11
0.78691
21
0.868447
0
LINE
8
BLACK
6
CONTINUOUS
10
0.78691
20
0.868447
11
0.789347
21
0.863573
0
LINE
8
BLACK
6
CONTINUOUS
10
0.789347
20
0.863573
11
0.789478
21
0.862934
0
LINE
8
BLACK
6
CONTINUOUS
10
0.789478
20
0.862934
11
0.789794
21
0.862364
0
LINE
8
BLACK
6
CONTINUOUS
10
0.789794
20
0.862364
11
0.792231
21
0.852615
0
LINE
8
BLACK
6
CONTINUOUS
10
0.792231
20
0.852615
11
0.792219
21
0.851887
0
LINE
8
BLACK
6
CONTINUOUS
10
0.792219
20
0.851887
11
0.792408
21
0.851183
0
LINE
8
BLACK
6
CONTINUOUS
10
0.792408
20
0.851183
11
0.792408
21
0.843872
0
LINE
8
BLACK
6
CONTINUOUS
10
0.792408
20
0.843872
11
0.792219
21
0.843168
0
LINE
8
BLACK
6
CONTINUOUS
10
0.792219
20
0.843168
11
0.792231
21
0.842439
0
LINE
8
BLACK
6
CONTINUOUS
10
0.792231
20
0.842439
11
0.789794
21
0.832691
0
LINE
8
BLACK
6
CONTINUOUS
10
0.789794
20
0.832691
11
0.789478
21
0.832121
0
LINE
8
BLACK
6
CONTINUOUS
10
0.789478
20
0.832121
11
0.789347
21
0.831482
0
LINE
8
BLACK
6
CONTINUOUS
10
0.789347
20
0.831482
11
0.78691
21
0.826607
0
LINE
8
BLACK
6
CONTINUOUS
10
0.78691
20
0.826607
11
0.786279
21
0.825896
0
LINE
8
BLACK
6
CONTINUOUS
10
0.786279
20
0.825896
11
0.785804
21
0.825073
0
LINE
8
BLACK
6
CONTINUOUS
10
0.785804
20
0.825073
11
0.780929
21
0.820198
0
LINE
8
BLACK
6
CONTINUOUS
10
0.780929
20
0.820198
11
0.779754
21
0.81952
0
LINE
8
BLACK
6
CONTINUOUS
10
0.779754
20
0.81952
11
0.778621
21
0.818772
0
LINE
8
BLACK
6
CONTINUOUS
10
0.778621
20
0.818772
11
0.771309
21
0.816334
0
LINE
8
BLACK
6
CONTINUOUS
10
0.771309
20
0.816334
11
0.77036
21
0.816277
0
LINE
8
BLACK
6
CONTINUOUS
10
0.77036
20
0.816277
11
0.769442
21
0.816031
0
LINE
8
BLACK
6
CONTINUOUS
10
0.769442
20
0.816031
11
0.757256
21
0.816031
0
LINE
8
BLACK
6
CONTINUOUS
10
0.757256
20
0.816031
11
0.754303
21
0.816822
0
LINE
8
BLACK
6
CONTINUOUS
10
0.754303
20
0.816822
11
0.752141
21
0.818984
0
LINE
8
BLACK
6
CONTINUOUS
10
0.752141
20
0.818984
11
0.75135
21
0.821937
0
LINE
8
BLACK
6
CONTINUOUS
10
0.75135
20
0.821937
11
0.75135
21
0.873118
0
LINE
8
BLACK
6
CONTINUOUS
10
0.75135
20
0.873118
11
0.752141
21
0.876071
0
LINE
8
BLACK
6
CONTINUOUS
10
0.752141
20
0.876071
11
0.754303
21
0.878232
0
LINE
8
BLACK
6
CONTINUOUS
10
0.754303
20
0.878232
11
0.757256
21
0.879023
0
LINE
8
BLACK
6
CONTINUOUS
10
0.757256
20
0.879023
11
0.769442
21
0.879023
0
LINE
8
BLACK
6
CONTINUOUS
10
0.769442
20
0.879023
11
0.77036
21
0.878777
0
LINE
8
BLACK
6
CONTINUOUS
10
0.763161
20
0.827842
11
0.768483
21
0.827842
0
LINE
8
BLACK
6
CONTINUOUS
10
0.768483
20
0.827842
11
0.773563
21
0.829536
0
LINE
8
BLACK
6
CONTINUOUS
10
0.773563
20
0.829536
11
0.776774
21
0.832747
0
LINE
8
BLACK
6
CONTINUOUS
10
0.776774
20
0.832747
11
0.778493
21
0.836184
0
LINE
8
BLACK
6
CONTINUOUS
10
0.778493
20
0.836184
11
0.780597
21
0.844598
0
LINE
8
BLACK
6
CONTINUOUS
10
0.780597
20
0.844598
11
0.780597
21
0.850456
0
LINE
8
BLACK
6
CONTINUOUS
10
0.780597
20
0.850456
11
0.778493
21
0.858871
0
LINE
8
BLACK
6
CONTINUOUS
10
0.778493
20
0.858871
11
0.776774
21
0.862308
0
LINE
8
BLACK
6
CONTINUOUS
10
0.776774
20
0.862308
11
0.773563
21
0.865519
0
LINE
8
BLACK
6
CONTINUOUS
10
0.773563
20
0.865519
11
0.768483
21
0.867212
0
LINE
8
BLACK
6
CONTINUOUS
10
0.768483
20
0.867212
11
0.763161
21
0.867212
0
LINE
8
BLACK
6
CONTINUOUS
10
0.763161
20
0.867212
11
0.763161
21
0.827842
0
LINE
8
BLACK
6
CONTINUOUS
10
0.0152648
20
0.859055
11
0.015546
21
0.859
0
LINE
8
BLACK
6
CONTINUOUS
10
0.015546
20
0.859
11
0.0156023
21
0.858915
0
LINE
8
BLACK
6
CONTINUOUS
10
0.0156023
20
0.858915
11
0.015696
21
0.858877
0
LINE
8
BLACK
6
CONTINUOUS
10
0.015696
20
0.858877
11
0.0158056
21
0.858612
0
LINE
8
BLACK
6
CONTINUOUS
10
0.0158056
20
0.858612
11
0.0159652
21
0.858374
0
LINE
8
BLACK
6
CONTINUOUS
10
0.0159652
20
0.858374
11
0.0159455
21
0.858274
0
LINE
8
BLACK
6
CONTINUOUS
10
0.0159455
20
0.858274
11
0.0159843
21
0.858181
0
LINE
8
BLACK
6
CONTINUOUS
10
0.0159843
20
0.858181
11
0.0159843
21
0.83948
0
LINE
8
BLACK
6
CONTINUOUS
10
0.0159843
20
0.83948
11
0.0206243
21
0.83948
0
LINE
8
BLACK
6
CONTINUOUS
10
0.0206243
20
0.83948
11
0.0213203
21
0.839192
0
LINE
8
BLACK
6
CONTINUOUS
10
0.0213203
20
0.839192
11
0.0216085
21
0.838496
0
LINE
8
BLACK
6
CONTINUOUS
10
0.0216085
20
0.838496
11
0.0213203
21
0.8378
0
LINE
8
BLACK
6
CONTINUOUS
10
0.0213203
20
0.8378
11
0.0206243
21
0.837511
0
LINE
8
BLACK
6
CONTINUOUS
10
0.0206243
20
0.837511
11
0.015
21
0.837511
0
LINE
8
BLACK
6
CONTINUOUS
10
0.015
20
0.837511
11
0.00937571
21
0.837511
0
LINE
8
BLACK
6
CONTINUOUS
10
0.00937571
20
0.837511
11
0.00867972
21
0.8378
0
LINE
8
BLACK
6
CONTINUOUS
10
0.00867972
20
0.8378
11
0.00839146
21
0.838496
0
LINE
8
BLACK
6
CONTINUOUS
10
0.00839146
20
0.838496
11
0.00867972
21
0.839192
0
LINE
8
BLACK
6
CONTINUOUS
10
0.00867972
20
0.839192
11
0.00937571
21
0.83948
0
LINE
8
BLACK
6
CONTINUOUS
10
0.00937571
20
0.83948
11
0.0140157
21
0.83948
0
LINE
8
BLACK
6
CONTINUOUS
10
0.0140157
20
0.83948
11
0.0140157
21
0.85493
0
LINE
8
BLACK
6
CONTINUOUS
10
0.0140157
20
0.85493
11
0.0139442
21
0.854823
0
LINE
8
BLACK
6
CONTINUOUS
10
0.0139442
20
0.854823
11
0.01386
21
0.854766
0
LINE
8
BLACK
6
CONTINUOUS
10
0.01386
20
0.854766
11
0.0138212
21
0.854673
0
LINE
8
BLACK
6
CONTINUOUS
10
0.0138212
20
0.854673
11
0.0119465
21
0.852798
0
LINE
8
BLACK
6
CONTINUOUS
10
0.0119465
20
0.852798
11
0.0117967
21
0.852736
0
LINE
8
BLACK
6
CONTINUOUS
10
0.0117967
20
0.852736
11
0.0116906
21
0.852613
0
LINE
8
BLACK
6
CONTINUOUS
10
0.0116906
20
0.852613
11
0.00981587
21
0.851676
0
LINE
8
BLACK
6
CONTINUOUS
10
0.00981587
20
0.851676
11
0.00906445
21
0.851623
0
LINE
8
BLACK
6
CONTINUOUS
10
0.00906445
20
0.851623
11
0.00849535
21
0.852116
0
LINE
8
BLACK
6
CONTINUOUS
10
0.00849535
20
0.852116
11
0.00844197
21
0.852868
0
LINE
8
BLACK
6
CONTINUOUS
10
0.00844197
20
0.852868
11
0.00893555
21
0.853437
0
LINE
8
BLACK
6
CONTINUOUS
10
0.00893555
20
0.853437
11
0.0106674
21
0.854303
0
LINE
8
BLACK
6
CONTINUOUS
10
0.0106674
20
0.854303
11
0.0123604
21
0.855996
0
LINE
8
BLACK
6
CONTINUOUS
10
0.0123604
20
0.855996
11
0.0141811
21
0.858727
0
LINE
8
BLACK
6
CONTINUOUS
10
0.0141811
20
0.858727
11
0.0142652
21
0.858783
0
LINE
8
BLACK
6
CONTINUOUS
10
0.0142652
20
0.858783
11
0.014304
21
0.858877
0
LINE
8
BLACK
6
CONTINUOUS
10
0.014304
20
0.858877
11
0.0145688
21
0.858986
0
LINE
8
BLACK
6
CONTINUOUS
10
0.0145688
20
0.858986
11
0.014807
21
0.859146
0
LINE
8
BLACK
6
CONTINUOUS
10
0.014807
20
0.859146
11
0.0149064
21
0.859126
0
LINE
8
BLACK
6
CONTINUOUS
10
0.0149064
20
0.859126
11
0.015
21
0.859165
0
LINE
8
BLACK
6
CONTINUOUS
10
0.015
20
0.859165
11
0.0152648
21
0.859055
0
LINE
8
BLACK
6
CONTINUOUS
10
0.201044
20
0.993777
11
0.201993
21
0.99372
0
LINE
8
BLACK
6
CONTINUOUS
10
0.201993
20
0.99372
11
0.209305
21
0.991283
0
LINE
8
BLACK
6
CONTINUOUS
10
0.209305
20
0.991283
11
0.210437
21
0.990535
0
LINE
8
BLACK
6
CONTINUOUS
10
0.210437
20
0.990535
11
0.211613
21
0.989857
0
LINE
8
BLACK
6
CONTINUOUS
10
0.211613
20
0.989857
11
0.216487
21
0.984982
0
LINE
8
BLACK
6
CONTINUOUS
10
0.216487
20
0.984982
11
0.216963
21
0.984159
0
LINE
8
BLACK
6
CONTINUOUS
10
0.216963
20
0.984159
11
0.217594
21
0.983447
0
LINE
8
BLACK
6
CONTINUOUS
10
0.217594
20
0.983447
11
0.220031
21
0.978573
0
LINE
8
BLACK
6
CONTINUOUS
10
0.220031
20
0.978573
11
0.220162
21
0.977934
0
LINE
8
BLACK
6
CONTINUOUS
10
0.220162
20
0.977934
11
0.220478
21
0.977364
0
LINE
8
BLACK
6
CONTINUOUS
10
0.220478
20
0.977364
11
0.222915
21
0.967615
0
LINE
8
BLACK
6
CONTINUOUS
10
0.222915
20
0.967615
11
0.222903
21
0.966887
0
LINE
8
BLACK
6
CONTINUOUS
10
0.222903
20
0.966887
11
0.223091
21
0.966183
0
LINE
8
BLACK
6
CONTINUOUS
10
0.223091
20
0.966183
11
0.223091
21
0.958872
0
LINE
8
BLACK
6
CONTINUOUS
10
0.223091
20
0.958872
11
0.222903
21
0.958168
0
LINE
8
BLACK
6
CONTINUOUS
10
0.222903
20
0.958168
11
0.222915
21
0.957439
0
LINE
8
BLACK
6
CONTINUOUS
10
0.222915
20
0.957439
11
0.220478
21
0.947691
0
LINE
8
BLACK
6
CONTINUOUS
10
0.220478
20
0.947691
11
0.220162
21
0.947121
0
LINE
8
BLACK
6
CONTINUOUS
10
0.220162
20
0.947121
11
0.220031
21
0.946482
0
LINE
8
BLACK
6
CONTINUOUS
10
0.220031
20
0.946482
11
0.217594
21
0.941607
0
LINE
8
BLACK
6
CONTINUOUS
10
0.217594
20
0.941607
11
0.216963
21
0.940896
0
LINE
8
BLACK
6
CONTINUOUS
10
0.216963
20
0.940896
11
0.216487
21
0.940073
0
LINE
8
BLACK
6
CONTINUOUS
10
0.216487
20
0.940073
11
0.211613
21
0.935198
0
LINE
8
BLACK
6
CONTINUOUS
10
0.211613
20
0.935198
11
0.210437
21
0.93452
0
LINE
8
BLACK
6
CONTINUOUS
10
0.210437
20
0.93452
11
0.209305
21
0.933772
0
LINE
8
BLACK
6
CONTINUOUS
10
0.209305
20
0.933772
11
0.201993
21
0.931334
0
LINE
8
BLACK
6
CONTINUOUS
10
0.201993
20
0.931334
11
0.201044
21
0.931277
0
LINE
8
BLACK
6
CONTINUOUS
10
0.201044
20
0.931277
11
0.200126
21
0.931031
0
LINE
8
BLACK
6
CONTINUOUS
10
0.200126
20
0.931031
11
0.18794
21
0.931031
0
LINE
8
BLACK
6
CONTINUOUS
10
0.18794
20
0.931031
11
0.184987
21
0.931822
0
LINE
8
BLACK
6
CONTINUOUS
10
0.184987
20
0.931822
11
0.182825
21
0.933984
0
LINE
8
BLACK
6
CONTINUOUS
10
0.182825
20
0.933984
11
0.182034
21
0.936937
0
LINE
8
BLACK
6
CONTINUOUS
10
0.182034
20
0.936937
11
0.182034
21
0.988118
0
LINE
8
BLACK
6
CONTINUOUS
10
0.182034
20
0.988118
11
0.182825
21
0.991071
0
LINE
8
BLACK
6
CONTINUOUS
10
0.182825
20
0.991071
11
0.184987
21
0.993232
0
LINE
8
BLACK
6
CONTINUOUS
10
0.184987
20
0.993232
11
0.18794
21
0.994023
0
LINE
8
BLACK
6
CONTINUOUS
10
0.18794
20
0.994023
11
0.200126
21
0.994023
0
LINE
8
BLACK
6
CONTINUOUS
10
0.200126
20
0.994023
11
0.201044
21
0.993777
0
LINE
8
BLACK
6
CONTINUOUS
10
0.193845
20
0.942842
11
0.199167
21
0.942842
0
LINE
8
BLACK
6
CONTINUOUS
10
0.199167
20
0.942842
11
0.204247
21
0.944536
0
LINE
8
BLACK
6
CONTINUOUS
10
0.204247
20
0.944536
11
0.207458
21
0.947747
0
LINE
8
BLACK
6
CONTINUOUS
10
0.207458
20
0.947747
11
0.209177
21
0.951184
0
LINE
8
BLACK
6
CONTINUOUS
10
0.209177
20
0.951184
11
0.21128
21
0.959598
0
LINE
8
BLACK
6
CONTINUOUS
10
0.21128
20
0.959598
11
0.21128
21
0.965456
0
LINE
8
BLACK
6
CONTINUOUS
10
0.21128
20
0.965456
11
0.209177
21
0.973871
0
LINE
8
BLACK
6
CONTINUOUS
10
0.209177
20
0.973871
11
0.207458
21
0.977308
0
LINE
8
BLACK
6
CONTINUOUS
10
0.207458
20
0.977308
11
0.204247
21
0.980519
0
LINE
8
BLACK
6
CONTINUOUS
10
0.204247
20
0.980519
11
0.199167
21
0.982212
0
LINE
8
BLACK
6
CONTINUOUS
10
0.199167
20
0.982212
11
0.193845
21
0.982212
0
LINE
8
BLACK
6
CONTINUOUS
10
0.193845
20
0.982212
11
0.193845
21
0.942842
0
LINE
8
BLACK
6
CONTINUOUS
10
0.252225
20
0.993777
11
0.253174
21
0.99372
0
LINE
8
BLACK
6
CONTINUOUS
10
0.253174
20
0.99372
11
0.260486
21
0.991283
0
LINE
8
BLACK
6
CONTINUOUS
10
0.260486
20
0.991283
11
0.261618
21
0.990535
0
LINE
8
BLACK
6
CONTINUOUS
10
0.261618
20
0.990535
11
0.262794
21
0.989857
0
LINE
8
BLACK
6
CONTINUOUS
10
0.262794
20
0.989857
11
0.267669
21
0.984982
0
LINE
8
BLACK
6
CONTINUOUS
10
0.267669
20
0.984982
11
0.268144
21
0.984159
0
LINE
8
BLACK
6
CONTINUOUS
10
0.268144
20
0.984159
11
0.268775
21
0.983447
0
LINE
8
BLACK
6
CONTINUOUS
10
0.268775
20
0.983447
11
0.271212
21
0.978573
0
LINE
8
BLACK
6
CONTINUOUS
10
0.271212
20
0.978573
11
0.271343
21
0.977934
0
LINE
8
BLACK
6
CONTINUOUS
10
0.271343
20
0.977934
11
0.271659
21
0.977364
0
LINE
8
BLACK
6
CONTINUOUS
10
0.271659
20
0.977364
11
0.274096
21
0.967615
0
LINE
8
BLACK
6
CONTINUOUS
10
0.274096
20
0.967615
11
0.274084
21
0.966887
0
LINE
8
BLACK
6
CONTINUOUS
10
0.274084
20
0.966887
11
0.274273
21
0.966183
0
LINE
8
BLACK
6
CONTINUOUS
10
0.274273
20
0.966183
11
0.274273
21
0.958872
0
LINE
8
BLACK
6
CONTINUOUS
10
0.274273
20
0.958872
11
0.274084
21
0.958168
0
LINE
8
BLACK
6
CONTINUOUS
10
0.274084
20
0.958168
11
0.274096
21
0.957439
0
LINE
8
BLACK
6
CONTINUOUS
10
0.274096
20
0.957439
11
0.271659
21
0.947691
0
LINE
8
BLACK
6
CONTINUOUS
10
0.271659
20
0.947691
11
0.271343
21
0.947121
0
LINE
8
BLACK
6
CONTINUOUS
10
0.271343
20
0.947121
11
0.271212
21
0.946482
0
LINE
8
BLACK
6
CONTINUOUS
10
0.271212
20
0.946482
11
0.268775
21
0.941607
0
LINE
8
BLACK
6
CONTINUOUS
10
0.268775
20
0.941607
11
0.268144
21
0.940896
0
LINE
8
BLACK
6
CONTINUOUS
10
0.268144
20
0.940896
11
0.267669
21
0.940073
0
LINE
8
BLACK
6
CONTINUOUS
10
0.267669
20
0.940073
11
0.262794
21
0.935198
0
LINE
8
BLACK
6
CONTINUOUS
10
0.262794
20
0.935198
11
0.261619
21
0.93452
0
LINE
8
BLACK
6
CONTINUOUS
10
0.261619
20
0.93452
11
0.260486
21
0.933772
0
LINE
8
BLACK
6
CONTINUOUS
10
0.260486
20
0.933772
11
0.253174
21
0.931334
0
LINE
8
BLACK
6
CONTINUOUS
10
0.253174
20
0.931334
11
0.252225
21
0.931277
0
LINE
8
BLACK
6
CONTINUOUS
10
0.252225
20
0.931277
11
0.251307
21
0.931031
0
LINE
8
BLACK
6
CONTINUOUS
10
0.251307
20
0.931031
11
0.239121
21
0.931031
0
LINE
8
BLACK
6
CONTINUOUS
10
0.239121
20
0.931031
11
0.236168
21
0.931822
0
LINE
8
BLACK
6
CONTINUOUS
10
0.236168
20
0.931822
11
0.234006
21
0.933984
0
LINE
8
BLACK
6
CONTINUOUS
10
0.234006
20
0.933984
11
0.233215
21
0.936937
0
LINE
8
BLACK
6
CONTINUOUS
10
0.233215
20
0.936937
11
0.233215
21
0.988118
0
LINE
8
BLACK
6
CONTINUOUS
10
0.233215
20
0.988118
11
0.234006
21
0.991071
0
LINE
8
BLACK
6
CONTINUOUS
10
0.234006
20
0.991071
11
0.236168
21
0.993232
0
LINE
8
BLACK
6
CONTINUOUS
10
0.236168
20
0.993232
11
0.239121
21
0.994023
0
LINE
8
BLACK
6
CONTINUOUS
10
0.239121
20
0.994023
11
0.251307
21
0.994023
0
LINE
8
BLACK
6
CONTINUOUS
10
0.251307
20
0.994023
11
0.252225
21
0.993777
0
LINE
8
BLACK
6
CONTINUOUS
10
0.245026
20
0.942842
11
0.250348
21
0.942842
0
LINE
8
BLACK
6
CONTINUOUS
10
0.250348
20
0.942842
11
0.255428
21
0.944536
0
LINE
8
BLACK
6
CONTINUOUS
10
0.255428
20
0.944536
11
0.258639
21
0.947747
0
LINE
8
BLACK
6
CONTINUOUS
10
0.258639
20
0.947747
11
0.260358
21
0.951184
0
LINE
8
BLACK
6
CONTINUOUS
10
0.260358
20
0.951184
11
0.262462
21
0.959598
0
LINE
8
BLACK
6
CONTINUOUS
10
0.262462
20
0.959598
11
0.262462
21
0.965456
0
LINE
8
BLACK
6
CONTINUOUS
10
0.262462
20
0.965456
11
0.260358
21
0.973871
0
LINE
8
BLACK
6
CONTINUOUS
10
0.260358
20
0.973871
11
0.258639
21
0.977308
0
LINE
8
BLACK
6
CONTINUOUS
10
0.258639
20
0.977308
11
0.255428
21
0.980519
0
LINE
8
BLACK
6
CONTINUOUS
10
0.255428
20
0.980519
11
0.250348
21
0.982212
0
LINE
8
BLACK
6
CONTINUOUS
10
0.250348
20
0.982212
11
0.245026
21
0.982212
0
LINE
8
BLACK
6
CONTINUOUS
10
0.245026
20
0.982212
11
0.245026
21
0.942842
0
LINE
8
BLACK
6
CONTINUOUS
10
0.172747
20
0.99372
11
0.175298
21
0.992036
0
LINE
8
BLACK
6
CONTINUOUS
10
0.175298
20
0.992036
11
0.176665
21
0.989302
0
LINE
8
BLACK
6
CONTINUOUS
10
0.176665
20
0.989302
11
0.176482
21
0.98625
0
LINE
8
BLACK
6
CONTINUOUS
10
0.176482
20
0.98625
11
0.159421
21
0.935069
0
LINE
8
BLACK
6
CONTINUOUS
10
0.159421
20
0.935069
11
0.158768
21
0.934079
0
LINE
8
BLACK
6
CONTINUOUS
10
0.158768
20
0.934079
11
0.158237
21
0.933019
0
LINE
8
BLACK
6
CONTINUOUS
10
0.158237
20
0.933019
11
0.157936
21
0.93282
0
LINE
8
BLACK
6
CONTINUOUS
10
0.157936
20
0.93282
11
0.157737
21
0.932518
0
LINE
8
BLACK
6
CONTINUOUS
10
0.157737
20
0.932518
11
0.156676
21
0.931988
0
LINE
8
BLACK
6
CONTINUOUS
10
0.156676
20
0.931988
11
0.155686
21
0.931334
0
LINE
8
BLACK
6
CONTINUOUS
10
0.155686
20
0.931334
11
0.155326
21
0.931313
0
LINE
8
BLACK
6
CONTINUOUS
10
0.155326
20
0.931313
11
0.155003
21
0.931151
0
LINE
8
BLACK
6
CONTINUOUS
10
0.155003
20
0.931151
11
0.153819
21
0.931222
0
LINE
8
BLACK
6
CONTINUOUS
10
0.153819
20
0.931222
11
0.152635
21
0.931151
0
LINE
8
BLACK
6
CONTINUOUS
10
0.152635
20
0.931151
11
0.152312
21
0.931313
0
LINE
8
BLACK
6
CONTINUOUS
10
0.152312
20
0.931313
11
0.151951
21
0.931334
0
LINE
8
BLACK
6
CONTINUOUS
10
0.151951
20
0.931334
11
0.150962
21
0.931988
0
LINE
8
BLACK
6
CONTINUOUS
10
0.150962
20
0.931988
11
0.149901
21
0.932518
0
LINE
8
BLACK
6
CONTINUOUS
10
0.149901
20
0.932518
11
0.149702
21
0.93282
0
LINE
8
BLACK
6
CONTINUOUS
10
0.149702
20
0.93282
11
0.1494
21
0.933019
0
LINE
8
BLACK
6
CONTINUOUS
10
0.1494
20
0.933019
11
0.14887
21
0.93408
0
LINE
8
BLACK
6
CONTINUOUS
10
0.14887
20
0.93408
11
0.148216
21
0.935069
0
LINE
8
BLACK
6
CONTINUOUS
10
0.148216
20
0.935069
11
0.131156
21
0.98625
0
LINE
8
BLACK
6
CONTINUOUS
10
0.131156
20
0.98625
11
0.130973
21
0.989302
0
LINE
8
BLACK
6
CONTINUOUS
10
0.130973
20
0.989302
11
0.13234
21
0.992036
0
LINE
8
BLACK
6
CONTINUOUS
10
0.13234
20
0.992036
11
0.134891
21
0.99372
0
LINE
8
BLACK
6
CONTINUOUS
10
0.134891
20
0.99372
11
0.137942
21
0.993904
0
LINE
8
BLACK
6
CONTINUOUS
10
0.137942
20
0.993904
11
0.140677
21
0.992536
0
LINE
8
BLACK
6
CONTINUOUS
10
0.140677
20
0.992536
11
0.142361
21
0.989985
0
LINE
8
BLACK
6
CONTINUOUS
10
0.142361
20
0.989985
11
0.153819
21
0.955612
0
LINE
8
BLACK
6
CONTINUOUS
10
0.153819
20
0.955612
11
0.165277
21
0.989985
0
LINE
8
BLACK
6
CONTINUOUS
10
0.165277
20
0.989985
11
0.166961
21
0.992536
0
LINE
8
BLACK
6
CONTINUOUS
10
0.166961
20
0.992536
11
0.169695
21
0.993904
0
LINE
8
BLACK
6
CONTINUOUS
10
0.169695
20
0.993904
11
0.172747
21
0.99372
0
LINE
8
BLACK
6
CONTINUOUS
10
0.6375
20
0.9775
11
0.5775
21
0.9775
0
LINE
8
BLACK
6
CONTINUOUS
10
0.5775
20
0.9775
11
0.5775
21
1.0375
0
LINE
8
BLACK
6
CONTINUOUS
10
0.5775
20
1.0375
11
0.6375
21
1.0375
0
LINE
8
BLACK
6
CONTINUOUS
10
0.6375
20
1.0375
11
0.6375
21
0.9775
0
LINE
8
BLACK
6
CONTINUOUS
10
0.7375
20
0.9775
11
0.6775
21
0.9775
0
LINE
8
BLACK
6
CONTINUOUS
10
0.6775
20
0.9775
11
0.6775
21
1.0375
0
LINE
8
BLACK
6
CONTINUOUS
10
0.6775
20
1.0375
11
0.7375
21
1.0375
0
LINE
8
BLACK
6
CONTINUOUS
10
0.7375
20
1.0375
11
0.7375
21
0.9775
0
LINE
8
BLACK
6
CONTINUOUS
10
0.6375
20
1.0775
11
0.5775
21
1.0775
0
LINE
8
BLACK
6
CONTINUOUS
10
0.5775
20
1.0775
11
0.5775
21
1.1375
0
LINE
8
BLACK
6
CONTINUOUS
10
0.5775
20
1.1375
11
0.6375
21
1.1375
0
LINE
8
BLACK
6
CONTINUOUS
10
0.6375
20
1.1375
11
0.6375
21
1.0775
0
LINE
8
BLACK
6
CONTINUOUS
10
0.7375
20
1.0775
11
0.6775
21
1.0775
0
LINE
8
BLACK
6
CONTINUOUS
10
0.6775
20
1.0775
11
0.6775
21
1.1375
0
LINE
8
BLACK
6
CONTINUOUS
10
0.6775
20
1.1375
11
0.7375
21
1.1375
0
LINE
8
BLACK
6
CONTINUOUS
10
0.7375
20
1.1375
11
0.7375
21
1.0775
0
LINE
8
BLACK
6
CONTINUOUS
10
0.757884
20
1.16039
11
0.758013
21
1.16041
0
LINE
8
BLACK
6
CONTINUOUS
10
0.758013
20
1.16041
11
0.758126
21
1.16034
0
LINE
8
BLACK
6
CONTINUOUS
10
0.758126
20
1.16034
11
0.75851
21
1.16027
0
LINE
8
BLACK
6
CONTINUOUS
10
0.75851
20
1.16027
11
0.759098
21
1.15978
0
LINE
8
BLACK
6
CONTINUOUS
10
0.759098
20
1.15978
11
0.759762
21
1.1594
0
LINE
8
BLACK
6
CONTINUOUS
10
0.759762
20
1.1594
11
0.759853
21
1.15915
0
LINE
8
BLACK
6
CONTINUOUS
10
0.759853
20
1.15915
11
0.760057
21
1.15898
0
LINE
8
BLACK
6
CONTINUOUS
10
0.760057
20
1.15898
11
0.76019
21
1.15822
0
LINE
8
BLACK
6
CONTINUOUS
10
0.76019
20
1.15822
11
0.760453
21
1.1575
0
LINE
8
BLACK
6
CONTINUOUS
10
0.760453
20
1.1575
11
0.760453
21
1.0575
0
LINE
8
BLACK
6
CONTINUOUS
10
0.760453
20
1.0575
11
0.760453
21
0.9575
0
LINE
8
BLACK
6
CONTINUOUS
10
0.760453
20
0.9575
11
0.760385
21
0.957116
0
LINE
8
BLACK
6
CONTINUOUS
10
0.760385
20
0.957116
11
0.760408
21
0.956987
0
LINE
8
BLACK
6
CONTINUOUS
10
0.760408
20
0.956987
11
0.760342
21
0.956874
0
LINE
8
BLACK
6
CONTINUOUS
10
0.760342
20
0.956874
11
0.760275
21
0.95649
0
LINE
8
BLACK
6
CONTINUOUS
10
0.760275
20
0.95649
11
0.759782
21
0.955902
0
LINE
8
BLACK
6
CONTINUOUS
10
0.759782
20
0.955902
11
0.759398
21
0.955238
0
LINE
8
BLACK
6
CONTINUOUS
10
0.759398
20
0.955238
11
0.759148
21
0.955147
0
LINE
8
BLACK
6
CONTINUOUS
10
0.759148
20
0.955147
11
0.758976
21
0.954943
0
LINE
8
BLACK
6
CONTINUOUS
10
0.758976
20
0.954943
11
0.758221
21
0.95481
0
LINE
8
BLACK
6
CONTINUOUS
10
0.758221
20
0.95481
11
0.7575
21
0.954547
0
LINE
8
BLACK
6
CONTINUOUS
10
0.7575
20
0.954547
11
0.5575
21
0.954547
0
LINE
8
BLACK
6
CONTINUOUS
10
0.5575
20
0.954547
11
0.557116
21
0.954615
0
LINE
8
BLACK
6
CONTINUOUS
10
0.557116
20
0.954615
11
0.556987
21
0.954592
0
LINE
8
BLACK
6
CONTINUOUS
10
0.556987
20
0.954592
11
0.556874
21
0.954658
0
LINE
8
BLACK
6
CONTINUOUS
10
0.556874
20
0.954658
11
0.55649
21
0.954725
0
LINE
8
BLACK
6
CONTINUOUS
10
0.55649
20
0.954725
11
0.555902
21
0.955218
0
LINE
8
BLACK
6
CONTINUOUS
10
0.555902
20
0.955218
11
0.555238
21
0.955602
0
LINE
8
BLACK
6
CONTINUOUS
10
0.555238
20
0.955602
11
0.555147
21
0.955852
0
LINE
8
BLACK
6
CONTINUOUS
10
0.555147
20
0.955852
11
0.554943
21
0.956024
0
LINE
8
BLACK
6
CONTINUOUS
10
0.554943
20
0.956024
11
0.55481
21
0.956779
0
LINE
8
BLACK
6
CONTINUOUS
10
0.55481
20
0.956779
11
0.554547
21
0.9575
0
LINE
8
BLACK
6
CONTINUOUS
10
0.554547
20
0.9575
11
0.554547
21
1.0575
0
LINE
8
BLACK
6
CONTINUOUS
10
0.554547
20
1.0575
11
0.554547
21
1.1575
0
LINE
8
BLACK
6
CONTINUOUS
10
0.554547
20
1.1575
11
0.554615
21
1.15788
0
LINE
8
BLACK
6
CONTINUOUS
10
0.554615
20
1.15788
11
0.554592
21
1.15801
0
LINE
8
BLACK
6
CONTINUOUS
10
0.554592
20
1.15801
11
0.554658
21
1.15813
0
LINE
8
BLACK
6
CONTINUOUS
10
0.554658
20
1.15813
11
0.554725
21
1.15851
0
LINE
8
BLACK
6
CONTINUOUS
10
0.554725
20
1.15851
11
0.555218
21
1.1591
0
LINE
8
BLACK
6
CONTINUOUS
10
0.555218
20
1.1591
11
0.555602
21
1.15976
0
LINE
8
BLACK
6
CONTINUOUS
10
0.555602
20
1.15976
11
0.555852
21
1.15985
0
LINE
8
BLACK
6
CONTINUOUS
10
0.555852
20
1.15985
11
0.556024
21
1.16006
0
LINE
8
BLACK
6
CONTINUOUS
10
0.556024
20
1.16006
11
0.556779
21
1.16019
0
LINE
8
BLACK
6
CONTINUOUS
10
0.556779
20
1.16019
11
0.5575
21
1.16045
0
LINE
8
BLACK
6
CONTINUOUS
10
0.5575
20
1.16045
11
0.7575
21
1.16045
0
LINE
8
BLACK
6
CONTINUOUS
10
0.7575
20
1.16045
11
0.757884
21
1.16039
0
LINE
8
BLACK
6
CONTINUOUS
10
0.560453
20
1.05455
11
0.560453
21
0.960453
0
LINE
8
BLACK
6
CONTINUOUS
10
0.560453
20
0.960453
11
0.754547
21
0.960453
0
LINE
8
BLACK
6
CONTINUOUS
10
0.754547
20
0.960453
11
0.754547
21
1.05455
0
LINE
8
BLACK
6
CONTINUOUS
10
0.754547
20
1.05455
11
0.560453
21
1.05455
0
LINE
8
BLACK
6
CONTINUOUS
10
0.560453
20
1.15455
11
0.560453
21
1.06045
0
LINE
8
BLACK
6
CONTINUOUS
10
0.560453
20
1.06045
11
0.754547
21
1.06045
0
LINE
8
BLACK
6
CONTINUOUS
10
0.754547
20
1.06045
11
0.754547
21
1.15455
0
LINE
8
BLACK
6
CONTINUOUS
10
0.754547
20
1.15455
11
0.560453
21
1.15455
0
LINE
8
BLACK
6
CONTINUOUS
10
0.1222
20
1.00882
11
0.122489
21
1.00812
0
LINE
8
BLACK
6
CONTINUOUS
10
0.122489
20
1.00812
11
0.122489
21
0.996876
0
LINE
8
BLACK
6
CONTINUOUS
10
0.122489
20
0.996876
11
0.1222
21
0.99618
0
LINE
8
BLACK
6
CONTINUOUS
10
0.1222
20
0.99618
11
0.121504
21
0.995891
0
LINE
8
BLACK
6
CONTINUOUS
10
0.121504
20
0.995891
11
0.120808
21
0.99618
0
LINE
8
BLACK
6
CONTINUOUS
10
0.120808
20
0.99618
11
0.12052
21
0.996876
0
LINE
8
BLACK
6
CONTINUOUS
10
0.12052
20
0.996876
11
0.12052
21
1.00152
0
LINE
8
BLACK
6
CONTINUOUS
10
0.12052
20
1.00152
11
0.10507
21
1.00152
0
LINE
8
BLACK
6
CONTINUOUS
10
0.10507
20
1.00152
11
0.105177
21
1.00144
0
LINE
8
BLACK
6
CONTINUOUS
10
0.105177
20
1.00144
11
0.105234
21
1.00136
0
LINE
8
BLACK
6
CONTINUOUS
10
0.105234
20
1.00136
11
0.105327
21
1.00132
0
LINE
8
BLACK
6
CONTINUOUS
10
0.105327
20
1.00132
11
0.107202
21
0.999446
0
LINE
8
BLACK
6
CONTINUOUS
10
0.107202
20
0.999446
11
0.107264
21
0.999297
0
LINE
8
BLACK
6
CONTINUOUS
10
0.107264
20
0.999297
11
0.107387
21
0.999191
0
LINE
8
BLACK
6
CONTINUOUS
10
0.107387
20
0.999191
11
0.108324
21
0.997316
0
LINE
8
BLACK
6
CONTINUOUS
10
0.108324
20
0.997316
11
0.108377
21
0.996564
0
LINE
8
BLACK
6
CONTINUOUS
10
0.108377
20
0.996564
11
0.107884
21
0.995995
0
LINE
8
BLACK
6
CONTINUOUS
10
0.107884
20
0.995995
11
0.107132
21
0.995942
0
LINE
8
BLACK
6
CONTINUOUS
10
0.107132
20
0.995942
11
0.106563
21
0.996436
0
LINE
8
BLACK
6
CONTINUOUS
10
0.106563
20
0.996436
11
0.105697
21
0.998167
0
LINE
8
BLACK
6
CONTINUOUS
10
0.105697
20
0.998167
11
0.104004
21
0.99986
0
LINE
8
BLACK
6
CONTINUOUS
10
0.104004
20
0.99986
11
0.101273
21
1.00168
0
LINE
8
BLACK
6
CONTINUOUS
10
0.101273
20
1.00168
11
0.101217
21
1.00177
0
LINE
8
BLACK
6
CONTINUOUS
10
0.101217
20
1.00177
11
0.101123
21
1.0018
0
LINE
8
BLACK
6
CONTINUOUS
10
0.101123
20
1.0018
11
0.101014
21
1.00207
0
LINE
8
BLACK
6
CONTINUOUS
10
0.101014
20
1.00207
11
0.100854
21
1.00231
0
LINE
8
BLACK
6
CONTINUOUS
10
0.100854
20
1.00231
11
0.100874
21
1.00241
0
LINE
8
BLACK
6
CONTINUOUS
10
0.100874
20
1.00241
11
0.100835
21
1.0025
0
LINE
8
BLACK
6
CONTINUOUS
10
0.100835
20
1.0025
11
0.100945
21
1.00276
0
LINE
8
BLACK
6
CONTINUOUS
10
0.100945
20
1.00276
11
0.101
21
1.00305
0
LINE
8
BLACK
6
CONTINUOUS
10
0.101
20
1.00305
11
0.101084
21
1.0031
0
LINE
8
BLACK
6
CONTINUOUS
10
0.101084
20
1.0031
11
0.101123
21
1.0032
0
LINE
8
BLACK
6
CONTINUOUS
10
0.101123
20
1.0032
11
0.101388
21
1.00331
0
LINE
8
BLACK
6
CONTINUOUS
10
0.101388
20
1.00331
11
0.101626
21
1.00347
0
LINE
8
BLACK
6
CONTINUOUS
10
0.101626
20
1.00347
11
0.101726
21
1.00345
0
LINE
8
BLACK
6
CONTINUOUS
10
0.101726
20
1.00345
11
0.101819
21
1.00348
0
LINE
8
BLACK
6
CONTINUOUS
10
0.101819
20
1.00348
11
0.12052
21
1.00348
0
LINE
8
BLACK
6
CONTINUOUS
10
0.12052
20
1.00348
11
0.12052
21
1.00812
0
LINE
8
BLACK
6
CONTINUOUS
10
0.12052
20
1.00812
11
0.120808
21
1.00882
0
LINE
8
BLACK
6
CONTINUOUS
10
0.120808
20
1.00882
11
0.121504
21
1.00911
0
LINE
8
BLACK
6
CONTINUOUS
10
0.121504
20
1.00911
11
0.1222
21
1.00882
0
LINE
8
BLACK
6
CONTINUOUS
10
0.1425
20
1.0375
11
0.0825
21
1.0375
0
LINE
8
BLACK
6
CONTINUOUS
10
0.0825
20
1.0375
11
0.0825
21
1.0975
0
LINE
8
BLACK
6
CONTINUOUS
10
0.0825
20
1.0975
11
0.1425
21
1.0975
0
LINE
8
BLACK
6
CONTINUOUS
10
0.1425
20
1.0975
11
0.1425
21
1.0375
0
LINE
8
BLACK
6
CONTINUOUS
10
0.2425
20
1.0375
11
0.1825
21
1.0375
0
LINE
8
BLACK
6
CONTINUOUS
10
0.1825
20
1.0375
11
0.1825
21
1.0975
0
LINE
8
BLACK
6
CONTINUOUS
10
0.1825
20
1.0975
11
0.2425
21
1.0975
0
LINE
8
BLACK
6
CONTINUOUS
10
0.2425
20
1.0975
11
0.2425
21
1.0375
0
LINE
8
BLACK
6
CONTINUOUS
10
0.3425
20
1.0375
11
0.2825
21
1.0375
0
LINE
8
BLACK
6
CONTINUOUS
10
0.2825
20
1.0375
11
0.2825
21
1.0975
0
LINE
8
BLACK
6
CONTINUOUS
10
0.2825
20
1.0975
11
0.3425
21
1.0975
0
LINE
8
BLACK
6
CONTINUOUS
10
0.3425
20
1.0975
11
0.3425
21
1.0375
0
LINE
8
BLACK
6
CONTINUOUS
10
0.1425
20
1.1375
11
0.0825
21
1.1375
0
LINE
8
BLACK
6
CONTINUOUS
10
0.0825
20
1.1375
11
0.0825
21
1.1975
0
LINE
8
BLACK
6
CONTINUOUS
10
0.0825
20
1.1975
11
0.1425
21
1.1975
0
LINE
8
BLACK
6
CONTINUOUS
10
0.1425
20
1.1975
11
0.1425
21
1.1375
0
LINE
8
BLACK
6
CONTINUOUS
10
0.2425
20
1.1375
11
0.1825
21
1.1375
0
LINE
8
BLACK
6
CONTINUOUS
10
0.1825
20
1.1375
11
0.1825
21
1.1975
0
LINE
8
BLACK
6
CONTINUOUS
10
0.1825
20
1.1975
11
0.2425
21
1.1975
0
LINE
8
BLACK
6
CONTINUOUS
10
0.2425
20
1.1975
11
0.2425
21
1.1375
0
LINE
8
BLACK
6
CONTINUOUS
10
0.3425
20
1.1375
11
0.2825
21
1.1375
0
LINE
8
BLACK
6
CONTINUOUS
10
0.2825
20
1.1375
11
0.2825
21
1.1975
0
LINE
8
BLACK
6
CONTINUOUS
10
0.2825
20
1.1975
11
0.3425
21
1.1975
0
LINE
8
BLACK
6
CONTINUOUS
10
0.3425
20
1.1975
11
0.3425
21
1.1375
0
LINE
8
BLACK
6
CONTINUOUS
10
0.362884
20
1.22039
11
0.363013
21
1.22041
0
LINE
8
BLACK
6
CONTINUOUS
10
0.363013
20
1.22041
11
0.363126
21
1.22034
0
LINE
8
BLACK
6
CONTINUOUS
10
0.363126
20
1.22034
11
0.36351
21
1.22027
0
LINE
8
BLACK
6
CONTINUOUS
10
0.36351
20
1.22027
11
0.364098
21
1.21978
0
LINE
8
BLACK
6
CONTINUOUS
10
0.364098
20
1.21978
11
0.364762
21
1.2194
0
LINE
8
BLACK
6
CONTINUOUS
10
0.364762
20
1.2194
11
0.364853
21
1.21915
0
LINE
8
BLACK
6
CONTINUOUS
10
0.364853
20
1.21915
11
0.365057
21
1.21898
0
LINE
8
BLACK
6
CONTINUOUS
10
0.365057
20
1.21898
11
0.36519
21
1.21822
0
LINE
8
BLACK
6
CONTINUOUS
10
0.36519
20
1.21822
11
0.365453
21
1.2175
0
LINE
8
BLACK
6
CONTINUOUS
10
0.365453
20
1.2175
11
0.365453
21
1.0175
0
LINE
8
BLACK
6
CONTINUOUS
10
0.365453
20
1.0175
11
0.365385
21
1.01712
0
LINE
8
BLACK
6
CONTINUOUS
10
0.365385
20
1.01712
11
0.365408
21
1.01699
0
LINE
8
BLACK
6
CONTINUOUS
10
0.365408
20
1.01699
11
0.365342
21
1.01687
0
LINE
8
BLACK
6
CONTINUOUS
10
0.365342
20
1.01687
11
0.365275
21
1.01649
0
LINE
8
BLACK
6
CONTINUOUS
10
0.365275
20
1.01649
11
0.364782
21
1.0159
0
LINE
8
BLACK
6
CONTINUOUS
10
0.364782
20
1.0159
11
0.364398
21
1.01524
0
LINE
8
BLACK
6
CONTINUOUS
10
0.364398
20
1.01524
11
0.364148
21
1.01515
0
LINE
8
BLACK
6
CONTINUOUS
10
0.364148
20
1.01515
11
0.363976
21
1.01494
0
LINE
8
BLACK
6
CONTINUOUS
10
0.363976
20
1.01494
11
0.363221
21
1.01481
0
LINE
8
BLACK
6
CONTINUOUS
10
0.363221
20
1.01481
11
0.3625
21
1.01455
0
LINE
8
BLACK
6
CONTINUOUS
10
0.3625
20
1.01455
11
0.0625
21
1.01455
0
LINE
8
BLACK
6
CONTINUOUS
10
0.0625
20
1.01455
11
0.0621165
21
1.01461
0
LINE
8
BLACK
6
CONTINUOUS
10
0.0621165
20
1.01461
11
0.0619872
21
1.01459
0
LINE
8
BLACK
6
CONTINUOUS
10
0.0619872
20
1.01459
11
0.0618736
21
1.01466
0
LINE
8
BLACK
6
CONTINUOUS
10
0.0618736
20
1.01466
11
0.0614901
21
1.01473
0
LINE
8
BLACK
6
CONTINUOUS
10
0.0614901
20
1.01473
11
0.0609024
21
1.01522
0
LINE
8
BLACK
6
CONTINUOUS
10
0.0609024
20
1.01522
11
0.0602381
21
1.0156
0
LINE
8
BLACK
6
CONTINUOUS
10
0.0602381
20
1.0156
11
0.0601469
21
1.01585
0
LINE
8
BLACK
6
CONTINUOUS
10
0.0601469
20
1.01585
11
0.0599428
21
1.01602
0
LINE
8
BLACK
6
CONTINUOUS
10
0.0599428
20
1.01602
11
0.0598096
21
1.01678
0
LINE
8
BLACK
6
CONTINUOUS
10
0.0598096
20
1.01678
11
0.0595472
21
1.0175
0
LINE
8
BLACK
6
CONTINUOUS
10
0.0595472
20
1.0175
11
0.0595472
21
1.2175
0
LINE
8
BLACK
6
CONTINUOUS
10
0.0595472
20
1.2175
11
0.0596148
21
1.21788
0
LINE
8
BLACK
6
CONTINUOUS
10
0.0596148
20
1.21788
11
0.0595921
21
1.21801
0
LINE
8
BLACK
6
CONTINUOUS
10
0.0595921
20
1.21801
11
0.0596577
21
1.21813
0
LINE
8
BLACK
6
CONTINUOUS
10
0.0596577
20
1.21813
11
0.0597253
21
1.21851
0
LINE
8
BLACK
6
CONTINUOUS
10
0.0597253
20
1.21851
11
0.0602184
21
1.2191
0
LINE
8
BLACK
6
CONTINUOUS
10
0.0602184
20
1.2191
11
0.060602
21
1.21976
0
LINE
8
BLACK
6
CONTINUOUS
10
0.060602
20
1.21976
11
0.0608523
21
1.21985
0
LINE
8
BLACK
6
CONTINUOUS
10
0.0608523
20
1.21985
11
0.0610236
21
1.22006
0
LINE
8
BLACK
6
CONTINUOUS
10
0.0610236
20
1.22006
11
0.0617792
21
1.22019
0
LINE
8
BLACK
6
CONTINUOUS
10
0.0617792
20
1.22019
11
0.0625
21
1.22045
0
LINE
8
BLACK
6
CONTINUOUS
10
0.0625
20
1.22045
11
0.3625
21
1.22045
0
LINE
8
BLACK
6
CONTINUOUS
10
0.3625
20
1.22045
11
0.362884
21
1.22039
0
LINE
8
BLACK
6
CONTINUOUS
10
0.0654528
20
1.21455
11
0.0654528
21
1.02045
0
LINE
8
BLACK
6
CONTINUOUS
10
0.0654528
20
1.02045
11
0.359547
21
1.02045
0
LINE
8
BLACK
6
CONTINUOUS
10
0.359547
20
1.02045
11
0.359547
21
1.21455
0
LINE
8
BLACK
6
CONTINUOUS
10
0.359547
20
1.21455
11
0.0654528
21
1.21455
0
LINE
8
BLACK
6
CONTINUOUS
10
0.504242
20
1.23499
11
0.506338
21
1.23318
0
LINE
8
BLACK
6
CONTINUOUS
10
0.506338
20
1.23318
11
0.507119
21
1.23052
0
LINE
8
BLACK
6
CONTINUOUS
10
0.507119
20
1.23052
11
0.507119
21
1.18908
0
LINE
8
BLACK
6
CONTINUOUS
10
0.507119
20
1.18908
11
0.50692
21
1.1877
0
LINE
8
BLACK
6
CONTINUOUS
10
0.50692
20
1.1877
11
0.506679
21
1.18732
0
LINE
8
BLACK
6
CONTINUOUS
10
0.506679
20
1.18732
11
0.5066
21
1.18688
0
LINE
8
BLACK
6
CONTINUOUS
10
0.5066
20
1.18688
11
0.504163
21
1.18201
0
LINE
8
BLACK
6
CONTINUOUS
10
0.504163
20
1.18201
11
0.503364
21
1.18086
0
LINE
8
BLACK
6
CONTINUOUS
10
0.503364
20
1.18086
11
0.503285
21
1.18081
0
LINE
8
BLACK
6
CONTINUOUS
10
0.503285
20
1.18081
11
0.503241
21
1.18073
0
LINE
8
BLACK
6
CONTINUOUS
10
0.503241
20
1.18073
11
0.500804
21
1.17829
0
LINE
8
BLACK
6
CONTINUOUS
10
0.500804
20
1.17829
11
0.499682
21
1.17745
0
LINE
8
BLACK
6
CONTINUOUS
10
0.499682
20
1.17745
11
0.499592
21
1.17743
0
LINE
8
BLACK
6
CONTINUOUS
10
0.499592
20
1.17743
11
0.499525
21
1.17737
0
LINE
8
BLACK
6
CONTINUOUS
10
0.499525
20
1.17737
11
0.49465
21
1.17493
0
LINE
8
BLACK
6
CONTINUOUS
10
0.49465
20
1.17493
11
0.493321
21
1.17449
0
LINE
8
BLACK
6
CONTINUOUS
10
0.493321
20
1.17449
11
0.492877
21
1.17454
0
LINE
8
BLACK
6
CONTINUOUS
10
0.492877
20
1.17454
11
0.492449
21
1.17441
0
LINE
8
BLACK
6
CONTINUOUS
10
0.492449
20
1.17441
11
0.482701
21
1.17441
0
LINE
8
BLACK
6
CONTINUOUS
10
0.482701
20
1.17441
11
0.481314
21
1.17461
0
LINE
8
BLACK
6
CONTINUOUS
10
0.481314
20
1.17461
11
0.480939
21
1.17485
0
LINE
8
BLACK
6
CONTINUOUS
10
0.480939
20
1.17485
11
0.4805
21
1.17493
0
LINE
8
BLACK
6
CONTINUOUS
10
0.4805
20
1.17493
11
0.475625
21
1.17737
0
LINE
8
BLACK
6
CONTINUOUS
10
0.475625
20
1.17737
11
0.474474
21
1.17817
0
LINE
8
BLACK
6
CONTINUOUS
10
0.474474
20
1.17817
11
0.474427
21
1.17825
0
LINE
8
BLACK
6
CONTINUOUS
10
0.474427
20
1.17825
11
0.474346
21
1.17829
0
LINE
8
BLACK
6
CONTINUOUS
10
0.474346
20
1.17829
11
0.471909
21
1.18073
0
LINE
8
BLACK
6
CONTINUOUS
10
0.471909
20
1.18073
11
0.47107
21
1.18185
0
LINE
8
BLACK
6
CONTINUOUS
10
0.47107
20
1.18185
11
0.47105
21
1.18194
0
LINE
8
BLACK
6
CONTINUOUS
10
0.47105
20
1.18194
11
0.470987
21
1.18201
0
LINE
8
BLACK
6
CONTINUOUS
10
0.470987
20
1.18201
11
0.46855
21
1.18688
0
LINE
8
BLACK
6
CONTINUOUS
10
0.46855
20
1.18688
11
0.468108
21
1.18821
0
LINE
8
BLACK
6
CONTINUOUS
10
0.468108
20
1.18821
11
0.468156
21
1.18866
0
LINE
8
BLACK
6
CONTINUOUS
10
0.468156
20
1.18866
11
0.468031
21
1.18908
0
LINE
8
BLACK
6
CONTINUOUS
10
0.468031
20
1.18908
11
0.468031
21
1.23052
0
LINE
8
BLACK
6
CONTINUOUS
10
0.468031
20
1.23052
11
0.46823
21
1.2319
0
LINE
8
BLACK
6
CONTINUOUS
10
0.46823
20
1.2319
11
0.469729
21
1.23423
0
LINE
8
BLACK
6
CONTINUOUS
10
0.469729
20
1.23423
11
0.472251
21
1.23539
0
LINE
8
BLACK
6
CONTINUOUS
10
0.472251
20
1.23539
11
0.474996
21
1.23499
0
LINE
8
BLACK
6
CONTINUOUS
10
0.474996
20
1.23499
11
0.477092
21
1.23318
0
LINE
8
BLACK
6
CONTINUOUS
10
0.477092
20
1.23318
11
0.477873
21
1.23052
0
LINE
8
BLACK
6
CONTINUOUS
10
0.477873
20
1.23052
11
0.477873
21
1.19024
0
LINE
8
BLACK
6
CONTINUOUS
10
0.477873
20
1.19024
11
0.479433
21
1.18712
0
LINE
8
BLACK
6
CONTINUOUS
10
0.479433
20
1.18712
11
0.480741
21
1.18582
0
LINE
8
BLACK
6
CONTINUOUS
10
0.480741
20
1.18582
11
0.483862
21
1.18426
0
LINE
8
BLACK
6
CONTINUOUS
10
0.483862
20
1.18426
11
0.491288
21
1.18426
0
LINE
8
BLACK
6
CONTINUOUS
10
0.491288
20
1.18426
11
0.494409
21
1.18582
0
LINE
8
BLACK
6
CONTINUOUS
10
0.494409
20
1.18582
11
0.495716
21
1.18712
0
LINE
8
BLACK
6
CONTINUOUS
10
0.495716
20
1.18712
11
0.497277
21
1.19024
0
LINE
8
BLACK
6
CONTINUOUS
10
0.497277
20
1.19024
11
0.497277
21
1.23052
0
LINE
8
BLACK
6
CONTINUOUS
10
0.497277
20
1.23052
11
0.497476
21
1.2319
0
LINE
8
BLACK
6
CONTINUOUS
10
0.497476
20
1.2319
11
0.498975
21
1.23423
0
LINE
8
BLACK
6
CONTINUOUS
10
0.498975
20
1.23423
11
0.501498
21
1.23539
0
LINE
8
BLACK
6
CONTINUOUS
10
0.501498
20
1.23539
11
0.504242
21
1.23499
0
LINE
8
BLACK
6
CONTINUOUS
10
0.528614
20
1.23499
11
0.53071
21
1.23318
0
LINE
8
BLACK
6
CONTINUOUS
10
0.53071
20
1.23318
11
0.531491
21
1.23052
0
LINE
8
BLACK
6
CONTINUOUS
10
0.531491
20
1.23052
11
0.531491
21
1.18426
0
LINE
8
BLACK
6
CONTINUOUS
10
0.531491
20
1.18426
11
0.550942
21
1.18426
0
LINE
8
BLACK
6
CONTINUOUS
10
0.550942
20
1.18426
11
0.552329
21
1.18406
0
LINE
8
BLACK
6
CONTINUOUS
10
0.552329
20
1.18406
11
0.554661
21
1.18256
0
LINE
8
BLACK
6
CONTINUOUS
10
0.554661
20
1.18256
11
0.555813
21
1.18003
0
LINE
8
BLACK
6
CONTINUOUS
10
0.555813
20
1.18003
11
0.555419
21
1.17729
0
LINE
8
BLACK
6
CONTINUOUS
10
0.555419
20
1.17729
11
0.553603
21
1.17519
0
LINE
8
BLACK
6
CONTINUOUS
10
0.553603
20
1.17519
11
0.550942
21
1.17441
0
LINE
8
BLACK
6
CONTINUOUS
10
0.550942
20
1.17441
11
0.52657
21
1.17441
0
LINE
8
BLACK
6
CONTINUOUS
10
0.52657
20
1.17441
11
0.525184
21
1.17461
0
LINE
8
BLACK
6
CONTINUOUS
10
0.525184
20
1.17461
11
0.524881
21
1.17481
0
LINE
8
BLACK
6
CONTINUOUS
10
0.524881
20
1.17481
11
0.524526
21
1.17486
0
LINE
8
BLACK
6
CONTINUOUS
10
0.524526
20
1.17486
11
0.523733
21
1.17554
0
LINE
8
BLACK
6
CONTINUOUS
10
0.523733
20
1.17554
11
0.522851
21
1.17611
0
LINE
8
BLACK
6
CONTINUOUS
10
0.522851
20
1.17611
11
0.522702
21
1.17644
0
LINE
8
BLACK
6
CONTINUOUS
10
0.522702
20
1.17644
11
0.52243
21
1.17667
0
LINE
8
BLACK
6
CONTINUOUS
10
0.52243
20
1.17667
11
0.522135
21
1.17768
0
LINE
8
BLACK
6
CONTINUOUS
10
0.522135
20
1.17768
11
0.521699
21
1.17863
0
LINE
8
BLACK
6
CONTINUOUS
10
0.521699
20
1.17863
11
0.52175
21
1.17899
0
LINE
8
BLACK
6
CONTINUOUS
10
0.52175
20
1.17899
11
0.521649
21
1.17933
0
LINE
8
BLACK
6
CONTINUOUS
10
0.521649
20
1.17933
11
0.521649
21
1.23052
0
LINE
8
BLACK
6
CONTINUOUS
10
0.521649
20
1.23052
11
0.521848
21
1.2319
0
LINE
8
BLACK
6
CONTINUOUS
10
0.521848
20
1.2319
11
0.523347
21
1.23423
0
LINE
8
BLACK
6
CONTINUOUS
10
0.523347
20
1.23423
11
0.52587
21
1.23539
0
LINE
8
BLACK
6
CONTINUOUS
10
0.52587
20
1.23539
11
0.528614
21
1.23499
0
LINE
8
BLACK
6
CONTINUOUS
10
0.570047
20
1.23499
11
0.572142
21
1.23318
0
LINE
8
BLACK
6
CONTINUOUS
10
0.572142
20
1.23318
11
0.572924
21
1.23052
0
LINE
8
BLACK
6
CONTINUOUS
10
0.572924
20
1.23052
11
0.572924
21
1.18426
0
LINE
8
BLACK
6
CONTINUOUS
10
0.572924
20
1.18426
11
0.592374
21
1.18426
0
LINE
8
BLACK
6
CONTINUOUS
10
0.592374
20
1.18426
11
0.593761
21
1.18406
0
LINE
8
BLACK
6
CONTINUOUS
10
0.593761
20
1.18406
11
0.596094
21
1.18256
0
LINE
8
BLACK
6
CONTINUOUS
10
0.596094
20
1.18256
11
0.597246
21
1.18003
0
LINE
8
BLACK
6
CONTINUOUS
10
0.597246
20
1.18003
11
0.596851
21
1.17729
0
LINE
8
BLACK
6
CONTINUOUS
10
0.596851
20
1.17729
11
0.595035
21
1.17519
0
LINE
8
BLACK
6
CONTINUOUS
10
0.595035
20
1.17519
11
0.592374
21
1.17441
0
LINE
8
BLACK
6
CONTINUOUS
10
0.592374
20
1.17441
11
0.568002
21
1.17441
0
LINE
8
BLACK
6
CONTINUOUS
10
0.568002
20
1.17441
11
0.566616
21
1.17461
0
LINE
8
BLACK
6
CONTINUOUS
10
0.566616
20
1.17461
11
0.566314
21
1.17481
0
LINE
8
BLACK
6
CONTINUOUS
10
0.566314
20
1.17481
11
0.565958
21
1.17486
0
LINE
8
BLACK
6
CONTINUOUS
10
0.565958
20
1.17486
11
0.565166
21
1.17554
0
LINE
8
BLACK
6
CONTINUOUS
10
0.565166
20
1.17554
11
0.564283
21
1.17611
0
LINE
8
BLACK
6
CONTINUOUS
10
0.564283
20
1.17611
11
0.564134
21
1.17644
0
LINE
8
BLACK
6
CONTINUOUS
10
0.564134
20
1.17644
11
0.563862
21
1.17667
0
LINE
8
BLACK
6
CONTINUOUS
10
0.563862
20
1.17667
11
0.563567
21
1.17768
0
LINE
8
BLACK
6
CONTINUOUS
10
0.563567
20
1.17768
11
0.563131
21
1.17863
0
LINE
8
BLACK
6
CONTINUOUS
10
0.563131
20
1.17863
11
0.563182
21
1.17899
0
LINE
8
BLACK
6
CONTINUOUS
10
0.563182
20
1.17899
11
0.563081
21
1.17933
0
LINE
8
BLACK
6
CONTINUOUS
10
0.563081
20
1.17933
11
0.563081
21
1.23052
0
LINE
8
BLACK
6
CONTINUOUS
10
0.563081
20
1.23052
11
0.56328
21
1.2319
0
LINE
8
BLACK
6
CONTINUOUS
10
0.56328
20
1.2319
11
0.56478
21
1.23423
0
LINE
8
BLACK
6
CONTINUOUS
10
0.56478
20
1.23423
11
0.567302
21
1.23539
0
LINE
8
BLACK
6
CONTINUOUS
10
0.567302
20
1.23539
11
0.570047
21
1.23499
0
LINE
8
BLACK
6
CONTINUOUS
10
0.704093
20
1.23499
11
0.706188
21
1.23318
0
LINE
8
BLACK
6
CONTINUOUS
10
0.706188
20
1.23318
11
0.706969
21
1.23052
0
LINE
8
BLACK
6
CONTINUOUS
10
0.706969
20
1.23052
11
0.706969
21
1.18908
0
LINE
8
BLACK
6
CONTINUOUS
10
0.706969
20
1.18908
11
0.70677
21
1.1877
0
LINE
8
BLACK
6
CONTINUOUS
10
0.70677
20
1.1877
11
0.706529
21
1.18732
0
LINE
8
BLACK
6
CONTINUOUS
10
0.706529
20
1.18732
11
0.70645
21
1.18688
0
LINE
8
BLACK
6
CONTINUOUS
10
0.70645
20
1.18688
11
0.704013
21
1.18201
0
LINE
8
BLACK
6
CONTINUOUS
10
0.704013
20
1.18201
11
0.703214
21
1.18086
0
LINE
8
BLACK
6
CONTINUOUS
10
0.703214
20
1.18086
11
0.703135
21
1.18081
0
LINE
8
BLACK
6
CONTINUOUS
10
0.703135
20
1.18081
11
0.703091
21
1.18073
0
LINE
8
BLACK
6
CONTINUOUS
10
0.703091
20
1.18073
11
0.700654
21
1.17829
0
LINE
8
BLACK
6
CONTINUOUS
10
0.700654
20
1.17829
11
0.699532
21
1.17745
0
LINE
8
BLACK
6
CONTINUOUS
10
0.699532
20
1.17745
11
0.699442
21
1.17743
0
LINE
8
BLACK
6
CONTINUOUS
10
0.699442
20
1.17743
11
0.699375
21
1.17737
0
LINE
8
BLACK
6
CONTINUOUS
10
0.699375
20
1.17737
11
0.6945
21
1.17493
0
LINE
8
BLACK
6
CONTINUOUS
10
0.6945
20
1.17493
11
0.693171
21
1.17449
0
LINE
8
BLACK
6
CONTINUOUS
10
0.693171
20
1.17449
11
0.692727
21
1.17454
0
LINE
8
BLACK
6
CONTINUOUS
10
0.692727
20
1.17454
11
0.692299
21
1.17441
0
LINE
8
BLACK
6
CONTINUOUS
10
0.692299
20
1.17441
11
0.682551
21
1.17441
0
LINE
8
BLACK
6
CONTINUOUS
10
0.682551
20
1.17441
11
0.681164
21
1.17461
0
LINE
8
BLACK
6
CONTINUOUS
10
0.681164
20
1.17461
11
0.680789
21
1.17485
0
LINE
8
BLACK
6
CONTINUOUS
10
0.680789
20
1.17485
11
0.68035
21
1.17493
0
LINE
8
BLACK
6
CONTINUOUS
10
0.68035
20
1.17493
11
0.675475
21
1.17737
0
LINE
8
BLACK
6
CONTINUOUS
10
0.675475
20
1.17737
11
0.674324
21
1.17817
0
LINE
8
BLACK
6
CONTINUOUS
10
0.674324
20
1.17817
11
0.674277
21
1.17825
0
LINE
8
BLACK
6
CONTINUOUS
10
0.674277
20
1.17825
11
0.674196
21
1.17829
0
LINE
8
BLACK
6
CONTINUOUS
10
0.674196
20
1.17829
11
0.671759
21
1.18073
0
LINE
8
BLACK
6
CONTINUOUS
10
0.671759
20
1.18073
11
0.67092
21
1.18185
0
LINE
8
BLACK
6
CONTINUOUS
10
0.67092
20
1.18185
11
0.6709
21
1.18194
0
LINE
8
BLACK
6
CONTINUOUS
10
0.6709
20
1.18194
11
0.670837
21
1.18201
0
LINE
8
BLACK
6
CONTINUOUS
10
0.670837
20
1.18201
11
0.6684
21
1.18688
0
LINE
8
BLACK
6
CONTINUOUS
10
0.6684
20
1.18688
11
0.667958
21
1.18821
0
LINE
8
BLACK
6
CONTINUOUS
10
0.667958
20
1.18821
11
0.668006
21
1.18866
0
LINE
8
BLACK
6
CONTINUOUS
10
0.668006
20
1.18866
11
0.667881
21
1.18908
0
LINE
8
BLACK
6
CONTINUOUS
10
0.667881
20
1.18908
11
0.667881
21
1.23052
0
LINE
8
BLACK
6
CONTINUOUS
10
0.667881
20
1.23052
11
0.66808
21
1.2319
0
LINE
8
BLACK
6
CONTINUOUS
10
0.66808
20
1.2319
11
0.669579
21
1.23423
0
LINE
8
BLACK
6
CONTINUOUS
10
0.669579
20
1.23423
11
0.672101
21
1.23539
0
LINE
8
BLACK
6
CONTINUOUS
10
0.672101
20
1.23539
11
0.674846
21
1.23499
0
LINE
8
BLACK
6
CONTINUOUS
10
0.674846
20
1.23499
11
0.676942
21
1.23318
0
LINE
8
BLACK
6
CONTINUOUS
10
0.676942
20
1.23318
11
0.677723
21
1.23052
0
LINE
8
BLACK
6
CONTINUOUS
10
0.677723
20
1.23052
11
0.677723
21
1.19024
0
LINE
8
BLACK
6
CONTINUOUS
10
0.677723
20
1.19024
11
0.679284
21
1.18712
0
LINE
8
BLACK
6
CONTINUOUS
10
0.679284
20
1.18712
11
0.680591
21
1.18582
0
LINE
8
BLACK
6
CONTINUOUS
10
0.680591
20
1.18582
11
0.683712
21
1.18426
0
LINE
8
BLACK
6
CONTINUOUS
10
0.683712
20
1.18426
11
0.691138
21
1.18426
0
LINE
8
BLACK
6
CONTINUOUS
10
0.691138
20
1.18426
11
0.694259
21
1.18582
0
LINE
8
BLACK
6
CONTINUOUS
10
0.694259
20
1.18582
11
0.695566
21
1.18712
0
LINE
8
BLACK
6
CONTINUOUS
10
0.695566
20
1.18712
11
0.697127
21
1.19024
0
LINE
8
BLACK
6
CONTINUOUS
10
0.697127
20
1.19024
11
0.697127
21
1.23052
0
LINE
8
BLACK
6
CONTINUOUS
10
0.697127
20
1.23052
11
0.697326
21
1.2319
0
LINE
8
BLACK
6
CONTINUOUS
10
0.697326
20
1.2319
11
0.698825
21
1.23423
0
LINE
8
BLACK
6
CONTINUOUS
10
0.698825
20
1.23423
11
0.701348
21
1.23539
0
LINE
8
BLACK
6
CONTINUOUS
10
0.701348
20
1.23539
11
0.704093
21
1.23499
0
LINE
8
BLACK
6
CONTINUOUS
10
0.442655
20
1.23524
11
0.44303
21
1.235
0
LINE
8
BLACK
6
CONTINUOUS
10
0.44303
20
1.235
11
0.443469
21
1.23492
0
LINE
8
BLACK
6
CONTINUOUS
10
0.443469
20
1.23492
11
0.448344
21
1.23248
0
LINE
8
BLACK
6
CONTINUOUS
10
0.448344
20
1.23248
11
0.449494
21
1.23168
0
LINE
8
BLACK
6
CONTINUOUS
10
0.449494
20
1.23168
11
0.449542
21
1.2316
0
LINE
8
BLACK
6
CONTINUOUS
10
0.449542
20
1.2316
11
0.449622
21
1.23156
0
LINE
8
BLACK
6
CONTINUOUS
10
0.449622
20
1.23156
11
0.45206
21
1.22912
0
LINE
8
BLACK
6
CONTINUOUS
10
0.45206
20
1.22912
11
0.452899
21
1.228
0
LINE
8
BLACK
6
CONTINUOUS
10
0.452899
20
1.228
11
0.452919
21
1.22791
0
LINE
8
BLACK
6
CONTINUOUS
10
0.452919
20
1.22791
11
0.452982
21
1.22784
0
LINE
8
BLACK
6
CONTINUOUS
10
0.452982
20
1.22784
11
0.455419
21
1.22297
0
LINE
8
BLACK
6
CONTINUOUS
10
0.455419
20
1.22297
11
0.45586
21
1.22164
0
LINE
8
BLACK
6
CONTINUOUS
10
0.45586
20
1.22164
11
0.455813
21
1.22119
0
LINE
8
BLACK
6
CONTINUOUS
10
0.455813
20
1.22119
11
0.455938
21
1.22077
0
LINE
8
BLACK
6
CONTINUOUS
10
0.455938
20
1.22077
11
0.455938
21
1.21346
0
LINE
8
BLACK
6
CONTINUOUS
10
0.455938
20
1.21346
11
0.455739
21
1.21207
0
LINE
8
BLACK
6
CONTINUOUS
10
0.455739
20
1.21207
11
0.455498
21
1.21169
0
LINE
8
BLACK
6
CONTINUOUS
10
0.455498
20
1.21169
11
0.455419
21
1.21125
0
LINE
8
BLACK
6
CONTINUOUS
10
0.455419
20
1.21125
11
0.452982
21
1.20638
0
LINE
8
BLACK
6
CONTINUOUS
10
0.452982
20
1.20638
11
0.452183
21
1.20523
0
LINE
8
BLACK
6
CONTINUOUS
10
0.452183
20
1.20523
11
0.452104
21
1.20518
0
LINE
8
BLACK
6
CONTINUOUS
10
0.452104
20
1.20518
11
0.45206
21
1.2051
0
LINE
8
BLACK
6
CONTINUOUS
10
0.45206
20
1.2051
11
0.449622
21
1.20266
0
LINE
8
BLACK
6
CONTINUOUS
10
0.449622
20
1.20266
11
0.448501
21
1.20182
0
LINE
8
BLACK
6
CONTINUOUS
10
0.448501
20
1.20182
11
0.448411
21
1.2018
0
LINE
8
BLACK
6
CONTINUOUS
10
0.448411
20
1.2018
11
0.448344
21
1.20174
0
LINE
8
BLACK
6
CONTINUOUS
10
0.448344
20
1.20174
11
0.443469
21
1.1993
0
LINE
8
BLACK
6
CONTINUOUS
10
0.443469
20
1.1993
11
0.44214
21
1.19886
0
LINE
8
BLACK
6
CONTINUOUS
10
0.44214
20
1.19886
11
0.441696
21
1.19891
0
LINE
8
BLACK
6
CONTINUOUS
10
0.441696
20
1.19891
11
0.441268
21
1.19879
0
LINE
8
BLACK
6
CONTINUOUS
10
0.441268
20
1.19879
11
0.426692
21
1.19879
0
LINE
8
BLACK
6
CONTINUOUS
10
0.426692
20
1.19879
11
0.426692
21
1.17933
0
LINE
8
BLACK
6
CONTINUOUS
10
0.426692
20
1.17933
11
0.426493
21
1.17795
0
LINE
8
BLACK
6
CONTINUOUS
10
0.426493
20
1.17795
11
0.424993
21
1.17562
0
LINE
8
BLACK
6
CONTINUOUS
10
0.424993
20
1.17562
11
0.422471
21
1.17446
0
LINE
8
BLACK
6
CONTINUOUS
10
0.422471
20
1.17446
11
0.419726
21
1.17486
0
LINE
8
BLACK
6
CONTINUOUS
10
0.419726
20
1.17486
11
0.417631
21
1.17667
0
LINE
8
BLACK
6
CONTINUOUS
10
0.417631
20
1.17667
11
0.416849
21
1.17933
0
LINE
8
BLACK
6
CONTINUOUS
10
0.416849
20
1.17933
11
0.416849
21
1.23052
0
LINE
8
BLACK
6
CONTINUOUS
10
0.416849
20
1.23052
11
0.417049
21
1.2319
0
LINE
8
BLACK
6
CONTINUOUS
10
0.417049
20
1.2319
11
0.417243
21
1.2322
0
LINE
8
BLACK
6
CONTINUOUS
10
0.417243
20
1.2322
11
0.417294
21
1.23256
0
LINE
8
BLACK
6
CONTINUOUS
10
0.417294
20
1.23256
11
0.417981
21
1.23335
0
LINE
8
BLACK
6
CONTINUOUS
10
0.417981
20
1.23335
11
0.418548
21
1.23423
0
LINE
8
BLACK
6
CONTINUOUS
10
0.418548
20
1.23423
11
0.418875
21
1.23438
0
LINE
8
BLACK
6
CONTINUOUS
10
0.418875
20
1.23438
11
0.41911
21
1.23466
0
LINE
8
BLACK
6
CONTINUOUS
10
0.41911
20
1.23466
11
0.420116
21
1.23495
0
LINE
8
BLACK
6
CONTINUOUS
10
0.420116
20
1.23495
11
0.42107
21
1.23539
0
LINE
8
BLACK
6
CONTINUOUS
10
0.42107
20
1.23539
11
0.421426
21
1.23534
0
LINE
8
BLACK
6
CONTINUOUS
10
0.421426
20
1.23534
11
0.421771
21
1.23544
0
LINE
8
BLACK
6
CONTINUOUS
10
0.421771
20
1.23544
11
0.441268
21
1.23544
0
LINE
8
BLACK
6
CONTINUOUS
10
0.441268
20
1.23544
11
0.442655
21
1.23524
0
LINE
8
BLACK
6
CONTINUOUS
10
0.426692
20
1.20863
11
0.440106
21
1.20863
0
LINE
8
BLACK
6
CONTINUOUS
10
0.440106
20
1.20863
11
0.443228
21
1.21019
0
LINE
8
BLACK
6
CONTINUOUS
10
0.443228
20
1.21019
11
0.444535
21
1.2115
0
LINE
8
BLACK
6
CONTINUOUS
10
0.444535
20
1.2115
11
0.446096
21
1.21462
0
LINE
8
BLACK
6
CONTINUOUS
10
0.446096
20
1.21462
11
0.446096
21
1.21961
0
LINE
8
BLACK
6
CONTINUOUS
10
0.446096
20
1.21961
11
0.444535
21
1.22273
0
LINE
8
BLACK
6
CONTINUOUS
10
0.444535
20
1.22273
11
0.443228
21
1.22403
0
LINE
8
BLACK
6
CONTINUOUS
10
0.443228
20
1.22403
11
0.440106
21
1.22559
0
LINE
8
BLACK
6
CONTINUOUS
10
0.440106
20
1.22559
11
0.426692
21
1.22559
0
LINE
8
BLACK
6
CONTINUOUS
10
0.426692
20
1.22559
11
0.426692
21
1.20863
0
LINE
8
BLACK
6
CONTINUOUS
10
0.747304
20
1.23524
11
0.74768
21
1.235
0
LINE
8
BLACK
6
CONTINUOUS
10
0.74768
20
1.235
11
0.748119
21
1.23492
0
LINE
8
BLACK
6
CONTINUOUS
10
0.748119
20
1.23492
11
0.752993
21
1.23248
0
LINE
8
BLACK
6
CONTINUOUS
10
0.752993
20
1.23248
11
0.754144
21
1.23168
0
LINE
8
BLACK
6
CONTINUOUS
10
0.754144
20
1.23168
11
0.754191
21
1.2316
0
LINE
8
BLACK
6
CONTINUOUS
10
0.754191
20
1.2316
11
0.754272
21
1.23156
0
LINE
8
BLACK
6
CONTINUOUS
10
0.754272
20
1.23156
11
0.756709
21
1.22912
0
LINE
8
BLACK
6
CONTINUOUS
10
0.756709
20
1.22912
11
0.757549
21
1.228
0
LINE
8
BLACK
6
CONTINUOUS
10
0.757549
20
1.228
11
0.757568
21
1.22791
0
LINE
8
BLACK
6
CONTINUOUS
10
0.757568
20
1.22791
11
0.757631
21
1.22784
0
LINE
8
BLACK
6
CONTINUOUS
10
0.757631
20
1.22784
11
0.760068
21
1.22297
0
LINE
8
BLACK
6
CONTINUOUS
10
0.760068
20
1.22297
11
0.76051
21
1.22164
0
LINE
8
BLACK
6
CONTINUOUS
10
0.76051
20
1.22164
11
0.760462
21
1.22119
0
LINE
8
BLACK
6
CONTINUOUS
10
0.760462
20
1.22119
11
0.760588
21
1.22077
0
LINE
8
BLACK
6
CONTINUOUS
10
0.760588
20
1.22077
11
0.760588
21
1.21346
0
LINE
8
BLACK
6
CONTINUOUS
10
0.760588
20
1.21346
11
0.760388
21
1.21207
0
LINE
8
BLACK
6
CONTINUOUS
10
0.760388
20
1.21207
11
0.760147
21
1.21169
0
LINE
8
BLACK
6
CONTINUOUS
10
0.760147
20
1.21169
11
0.760068
21
1.21125
0
LINE
8
BLACK
6
CONTINUOUS
10
0.760068
20
1.21125
11
0.757631
21
1.20638
0
LINE
8
BLACK
6
CONTINUOUS
10
0.757631
20
1.20638
11
0.756833
21
1.20523
0
LINE
8
BLACK
6
CONTINUOUS
10
0.756833
20
1.20523
11
0.756753
21
1.20518
0
LINE
8
BLACK
6
CONTINUOUS
10
0.756753
20
1.20518
11
0.756709
21
1.2051
0
LINE
8
BLACK
6
CONTINUOUS
10
0.756709
20
1.2051
11
0.754272
21
1.20266
0
LINE
8
BLACK
6
CONTINUOUS
10
0.754272
20
1.20266
11
0.753151
21
1.20182
0
LINE
8
BLACK
6
CONTINUOUS
10
0.753151
20
1.20182
11
0.75306
21
1.2018
0
LINE
8
BLACK
6
CONTINUOUS
10
0.75306
20
1.2018
11
0.752993
21
1.20174
0
LINE
8
BLACK
6
CONTINUOUS
10
0.752993
20
1.20174
11
0.748119
21
1.1993
0
LINE
8
BLACK
6
CONTINUOUS
10
0.748119
20
1.1993
11
0.746789
21
1.19886
0
LINE
8
BLACK
6
CONTINUOUS
10
0.746789
20
1.19886
11
0.746346
21
1.19891
0
LINE
8
BLACK
6
CONTINUOUS
10
0.746346
20
1.19891
11
0.745918
21
1.19879
0
LINE
8
BLACK
6
CONTINUOUS
10
0.745918
20
1.19879
11
0.731341
21
1.19879
0
LINE
8
BLACK
6
CONTINUOUS
10
0.731341
20
1.19879
11
0.731341
21
1.17933
0
LINE
8
BLACK
6
CONTINUOUS
10
0.731341
20
1.17933
11
0.731142
21
1.17795
0
LINE
8
BLACK
6
CONTINUOUS
10
0.731142
20
1.17795
11
0.729643
21
1.17562
0
LINE
8
BLACK
6
CONTINUOUS
10
0.729643
20
1.17562
11
0.72712
21
1.17446
0
LINE
8
BLACK
6
CONTINUOUS
10
0.72712
20
1.17446
11
0.724376
21
1.17486
0
LINE
8
BLACK
6
CONTINUOUS
10
0.724376
20
1.17486
11
0.72228
21
1.17667
0
LINE
8
BLACK
6
CONTINUOUS
10
0.72228
20
1.17667
11
0.721499
21
1.17933
0
LINE
8
BLACK
6
CONTINUOUS
10
0.721499
20
1.17933
11
0.721499
21
1.23052
0
LINE
8
BLACK
6
CONTINUOUS
10
0.721499
20
1.23052
11
0.721698
21
1.2319
0
LINE
8
BLACK
6
CONTINUOUS
10
0.721698
20
1.2319
11
0.721892
21
1.2322
0
LINE
8
BLACK
6
CONTINUOUS
10
0.721892
20
1.2322
11
0.721944
21
1.23256
0
LINE
8
BLACK
6
CONTINUOUS
10
0.721944
20
1.23256
11
0.72263
21
1.23335
0
LINE
8
BLACK
6
CONTINUOUS
10
0.72263
20
1.23335
11
0.723197
21
1.23423
0
LINE
8
BLACK
6
CONTINUOUS
10
0.723197
20
1.23423
11
0.723524
21
1.23438
0
LINE
8
BLACK
6
CONTINUOUS
10
0.723524
20
1.23438
11
0.723759
21
1.23466
0
LINE
8
BLACK
6
CONTINUOUS
10
0.723759
20
1.23466
11
0.724766
21
1.23495
0
LINE
8
BLACK
6
CONTINUOUS
10
0.724766
20
1.23495
11
0.72572
21
1.23539
0
LINE
8
BLACK
6
CONTINUOUS
10
0.72572
20
1.23539
11
0.726075
21
1.23534
0
LINE
8
BLACK
6
CONTINUOUS
10
0.726075
20
1.23534
11
0.72642
21
1.23544
0
LINE
8
BLACK
6
CONTINUOUS
10
0.72642
20
1.23544
11
0.745918
21
1.23544
0
LINE
8
BLACK
6
CONTINUOUS
10
0.745918
20
1.23544
11
0.747304
21
1.23524
0
LINE
8
BLACK
6
CONTINUOUS
10
0.731341
20
1.20863
11
0.744756
21
1.20863
0
LINE
8
BLACK
6
CONTINUOUS
10
0.744756
20
1.20863
11
0.747877
21
1.21019
0
LINE
8
BLACK
6
CONTINUOUS
10
0.747877
20
1.21019
11
0.749185
21
1.2115
0
LINE
8
BLACK
6
CONTINUOUS
10
0.749185
20
1.2115
11
0.750745
21
1.21462
0
LINE
8
BLACK
6
CONTINUOUS
10
0.750745
20
1.21462
11
0.750745
21
1.21961
0
LINE
8
BLACK
6
CONTINUOUS
10
0.750745
20
1.21961
11
0.749185
21
1.22273
0
LINE
8
BLACK
6
CONTINUOUS
10
0.749185
20
1.22273
11
0.747877
21
1.22403
0
LINE
8
BLACK
6
CONTINUOUS
10
0.747877
20
1.22403
11
0.744756
21
1.22559
0
LINE
8
BLACK
6
CONTINUOUS
10
0.744756
20
1.22559
11
0.731341
21
1.22559
0
LINE
8
BLACK
6
CONTINUOUS
10
0.731341
20
1.22559
11
0.731341
21
1.20863
0
LINE
8
BLACK
6
CONTINUOUS
10
0.649816
20
1.20355
11
0.652149
21
1.20205
0
LINE
8
BLACK
6
CONTINUOUS
10
0.652149
20
1.20205
11
0.653301
21
1.19953
0
LINE
8
BLACK
6
CONTINUOUS
10
0.653301
20
1.19953
11
0.652906
21
1.19679
0
LINE
8
BLACK
6
CONTINUOUS
10
0.652906
20
1.19679
11
0.651091
21
1.19469
0
LINE
8
BLACK
6
CONTINUOUS
10
0.651091
20
1.19469
11
0.64843
21
1.19391
0
LINE
8
BLACK
6
CONTINUOUS
10
0.64843
20
1.19391
11
0.609435
21
1.19391
0
LINE
8
BLACK
6
CONTINUOUS
10
0.609435
20
1.19391
11
0.608048
21
1.19411
0
LINE
8
BLACK
6
CONTINUOUS
10
0.608048
20
1.19411
11
0.605715
21
1.19561
0
LINE
8
BLACK
6
CONTINUOUS
10
0.605715
20
1.19561
11
0.604564
21
1.19813
0
LINE
8
BLACK
6
CONTINUOUS
10
0.604564
20
1.19813
11
0.604958
21
1.20088
0
LINE
8
BLACK
6
CONTINUOUS
10
0.604958
20
1.20088
11
0.606774
21
1.20297
0
LINE
8
BLACK
6
CONTINUOUS
10
0.606774
20
1.20297
11
0.609435
21
1.20375
0
LINE
8
BLACK
6
CONTINUOUS
10
0.609435
20
1.20375
11
0.64843
21
1.20375
0
LINE
8
BLACK
6
CONTINUOUS
10
0.64843
20
1.20375
11
0.649816
21
1.20355
0
LINE
8
BLACK
6
CONTINUOUS
10
0.428571
20
1.34025
11
0.430732
21
1.33809
0
LINE
8
BLACK
6
CONTINUOUS
10
0.430732
20
1.33809
11
0.431523
21
1.33514
0
LINE
8
BLACK
6
CONTINUOUS
10
0.431523
20
1.33514
11
0.431523
21
1.31808
0
LINE
8
BLACK
6
CONTINUOUS
10
0.431523
20
1.31808
11
0.431172
21
1.31677
0
LINE
8
BLACK
6
CONTINUOUS
10
0.431172
20
1.31677
11
0.4309
21
1.31544
0
LINE
8
BLACK
6
CONTINUOUS
10
0.4309
20
1.31544
11
0.428463
21
1.31056
0
LINE
8
BLACK
6
CONTINUOUS
10
0.428463
20
1.31056
11
0.427832
21
1.30985
0
LINE
8
BLACK
6
CONTINUOUS
10
0.427832
20
1.30985
11
0.427357
21
1.30903
0
LINE
8
BLACK
6
CONTINUOUS
10
0.427357
20
1.30903
11
0.424919
21
1.30659
0
LINE
8
BLACK
6
CONTINUOUS
10
0.424919
20
1.30659
11
0.424096
21
1.30611
0
LINE
8
BLACK
6
CONTINUOUS
10
0.424096
20
1.30611
11
0.423385
21
1.30548
0
LINE
8
BLACK
6
CONTINUOUS
10
0.423385
20
1.30548
11
0.41851
21
1.30305
0
LINE
8
BLACK
6
CONTINUOUS
10
0.41851
20
1.30305
11
0.41718
21
1.30277
0
LINE
8
BLACK
6
CONTINUOUS
10
0.41718
20
1.30277
11
0.415869
21
1.30242
0
LINE
8
BLACK
6
CONTINUOUS
10
0.415869
20
1.30242
11
0.410995
21
1.30242
0
LINE
8
BLACK
6
CONTINUOUS
10
0.410995
20
1.30242
11
0.409684
21
1.30277
0
LINE
8
BLACK
6
CONTINUOUS
10
0.409684
20
1.30277
11
0.408354
21
1.30305
0
LINE
8
BLACK
6
CONTINUOUS
10
0.408354
20
1.30305
11
0.403479
21
1.30548
0
LINE
8
BLACK
6
CONTINUOUS
10
0.403479
20
1.30548
11
0.402768
21
1.30611
0
LINE
8
BLACK
6
CONTINUOUS
10
0.402768
20
1.30611
11
0.402604
21
1.30621
0
LINE
8
BLACK
6
CONTINUOUS
10
0.402604
20
1.30621
11
0.400547
21
1.30415
0
LINE
8
BLACK
6
CONTINUOUS
10
0.400547
20
1.30415
11
0.399724
21
1.30368
0
LINE
8
BLACK
6
CONTINUOUS
10
0.399724
20
1.30368
11
0.399013
21
1.30305
0
LINE
8
BLACK
6
CONTINUOUS
10
0.399013
20
1.30305
11
0.394138
21
1.30061
0
LINE
8
BLACK
6
CONTINUOUS
10
0.394138
20
1.30061
11
0.392808
21
1.30034
0
LINE
8
BLACK
6
CONTINUOUS
10
0.392808
20
1.30034
11
0.391497
21
1.29999
0
LINE
8
BLACK
6
CONTINUOUS
10
0.391497
20
1.29999
11
0.384186
21
1.29999
0
LINE
8
BLACK
6
CONTINUOUS
10
0.384186
20
1.29999
11
0.382874
21
1.30034
0
LINE
8
BLACK
6
CONTINUOUS
10
0.382874
20
1.30034
11
0.381545
21
1.30061
0
LINE
8
BLACK
6
CONTINUOUS
10
0.381545
20
1.30061
11
0.37667
21
1.30305
0
LINE
8
BLACK
6
CONTINUOUS
10
0.37667
20
1.30305
11
0.375959
21
1.30368
0
LINE
8
BLACK
6
CONTINUOUS
10
0.375959
20
1.30368
11
0.375135
21
1.30415
0
LINE
8
BLACK
6
CONTINUOUS
10
0.375135
20
1.30415
11
0.372698
21
1.30659
0
LINE
8
BLACK
6
CONTINUOUS
10
0.372698
20
1.30659
11
0.372223
21
1.30741
0
LINE
8
BLACK
6
CONTINUOUS
10
0.372223
20
1.30741
11
0.371592
21
1.30812
0
LINE
8
BLACK
6
CONTINUOUS
10
0.371592
20
1.30812
11
0.369155
21
1.313
0
LINE
8
BLACK
6
CONTINUOUS
10
0.369155
20
1.313
11
0.368883
21
1.31433
0
LINE
8
BLACK
6
CONTINUOUS
10
0.368883
20
1.31433
11
0.368531
21
1.31564
0
LINE
8
BLACK
6
CONTINUOUS
10
0.368531
20
1.31564
11
0.368531
21
1.33514
0
LINE
8
BLACK
6
CONTINUOUS
10
0.368531
20
1.33514
11
0.369322
21
1.33809
0
LINE
8
BLACK
6
CONTINUOUS
10
0.369322
20
1.33809
11
0.371484
21
1.34025
0
LINE
8
BLACK
6
CONTINUOUS
10
0.371484
20
1.34025
11
0.374437
21
1.34104
0
LINE
8
BLACK
6
CONTINUOUS
10
0.374437
20
1.34104
11
0.425618
21
1.34104
0
LINE
8
BLACK
6
CONTINUOUS
10
0.425618
20
1.34104
11
0.428571
21
1.34025
0
LINE
8
BLACK
6
CONTINUOUS
10
0.380342
20
1.31703
11
0.381727
21
1.31426
0
LINE
8
BLACK
6
CONTINUOUS
10
0.381727
20
1.31426
11
0.382809
21
1.31318
0
LINE
8
BLACK
6
CONTINUOUS
10
0.382809
20
1.31318
11
0.38558
21
1.3118
0
LINE
8
BLACK
6
CONTINUOUS
10
0.38558
20
1.3118
11
0.390103
21
1.3118
0
LINE
8
BLACK
6
CONTINUOUS
10
0.390103
20
1.3118
11
0.392873
21
1.31318
0
LINE
8
BLACK
6
CONTINUOUS
10
0.392873
20
1.31318
11
0.393647
21
1.31396
0
LINE
8
BLACK
6
CONTINUOUS
10
0.393647
20
1.31396
11
0.39534
21
1.31904
0
LINE
8
BLACK
6
CONTINUOUS
10
0.39534
20
1.31904
11
0.39534
21
1.32923
0
LINE
8
BLACK
6
CONTINUOUS
10
0.39534
20
1.32923
11
0.380342
21
1.32923
0
LINE
8
BLACK
6
CONTINUOUS
10
0.380342
20
1.32923
11
0.380342
21
1.31703
0
LINE
8
BLACK
6
CONTINUOUS
10
0.407151
20
1.31947
11
0.408537
21
1.3167
0
LINE
8
BLACK
6
CONTINUOUS
10
0.408537
20
1.3167
11
0.409619
21
1.31562
0
LINE
8
BLACK
6
CONTINUOUS
10
0.409619
20
1.31562
11
0.412389
21
1.31423
0
LINE
8
BLACK
6
CONTINUOUS
10
0.412389
20
1.31423
11
0.414475
21
1.31423
0
LINE
8
BLACK
6
CONTINUOUS
10
0.414475
20
1.31423
11
0.417245
21
1.31562
0
LINE
8
BLACK
6
CONTINUOUS
10
0.417245
20
1.31562
11
0.418327
21
1.3167
0
LINE
8
BLACK
6
CONTINUOUS
10
0.418327
20
1.3167
11
0.419712
21
1.31947
0
LINE
8
BLACK
6
CONTINUOUS
10
0.419712
20
1.31947
11
0.419712
21
1.32923
0
LINE
8
BLACK
6
CONTINUOUS
10
0.419712
20
1.32923
11
0.407151
21
1.32923
0
LINE
8
BLACK
6
CONTINUOUS
10
0.407151
20
1.32923
11
0.407151
21
1.31947
0
LINE
8
BLACK
6
CONTINUOUS
10
0.428571
20
1.39387
11
0.430732
21
1.39171
0
LINE
8
BLACK
6
CONTINUOUS
10
0.430732
20
1.39171
11
0.431523
21
1.38876
0
LINE
8
BLACK
6
CONTINUOUS
10
0.431523
20
1.38876
11
0.430732
21
1.3858
0
LINE
8
BLACK
6
CONTINUOUS
10
0.430732
20
1.3858
11
0.428571
21
1.38364
0
LINE
8
BLACK
6
CONTINUOUS
10
0.428571
20
1.38364
11
0.425618
21
1.38285
0
LINE
8
BLACK
6
CONTINUOUS
10
0.425618
20
1.38285
11
0.38558
21
1.38285
0
LINE
8
BLACK
6
CONTINUOUS
10
0.38558
20
1.38285
11
0.382809
21
1.38147
0
LINE
8
BLACK
6
CONTINUOUS
10
0.382809
20
1.38147
11
0.381727
21
1.38038
0
LINE
8
BLACK
6
CONTINUOUS
10
0.381727
20
1.38038
11
0.380342
21
1.37761
0
LINE
8
BLACK
6
CONTINUOUS
10
0.380342
20
1.37761
11
0.380342
21
1.37065
0
LINE
8
BLACK
6
CONTINUOUS
10
0.380342
20
1.37065
11
0.381727
21
1.36788
0
LINE
8
BLACK
6
CONTINUOUS
10
0.381727
20
1.36788
11
0.382809
21
1.3668
0
LINE
8
BLACK
6
CONTINUOUS
10
0.382809
20
1.3668
11
0.38558
21
1.36542
0
LINE
8
BLACK
6
CONTINUOUS
10
0.38558
20
1.36542
11
0.425618
21
1.36542
0
LINE
8
BLACK
6
CONTINUOUS
10
0.425618
20
1.36542
11
0.428571
21
1.36462
0
LINE
8
BLACK
6
CONTINUOUS
10
0.428571
20
1.36462
11
0.430732
21
1.36246
0
LINE
8
BLACK
6
CONTINUOUS
10
0.430732
20
1.36246
11
0.431523
21
1.35951
0
LINE
8
BLACK
6
CONTINUOUS
10
0.431523
20
1.35951
11
0.430732
21
1.35656
0
LINE
8
BLACK
6
CONTINUOUS
10
0.430732
20
1.35656
11
0.428571
21
1.3544
0
LINE
8
BLACK
6
CONTINUOUS
10
0.428571
20
1.3544
11
0.425618
21
1.3536
0
LINE
8
BLACK
6
CONTINUOUS
10
0.425618
20
1.3536
11
0.384186
21
1.3536
0
LINE
8
BLACK
6
CONTINUOUS
10
0.384186
20
1.3536
11
0.382874
21
1.35396
0
LINE
8
BLACK
6
CONTINUOUS
10
0.382874
20
1.35396
11
0.381545
21
1.35423
0
LINE
8
BLACK
6
CONTINUOUS
10
0.381545
20
1.35423
11
0.37667
21
1.35666
0
LINE
8
BLACK
6
CONTINUOUS
10
0.37667
20
1.35666
11
0.375959
21
1.3573
0
LINE
8
BLACK
6
CONTINUOUS
10
0.375959
20
1.3573
11
0.375135
21
1.35777
0
LINE
8
BLACK
6
CONTINUOUS
10
0.375135
20
1.35777
11
0.372698
21
1.36021
0
LINE
8
BLACK
6
CONTINUOUS
10
0.372698
20
1.36021
11
0.372223
21
1.36103
0
LINE
8
BLACK
6
CONTINUOUS
10
0.372223
20
1.36103
11
0.371592
21
1.36174
0
LINE
8
BLACK
6
CONTINUOUS
10
0.371592
20
1.36174
11
0.369155
21
1.36662
0
LINE
8
BLACK
6
CONTINUOUS
10
0.369155
20
1.36662
11
0.368883
21
1.36795
0
LINE
8
BLACK
6
CONTINUOUS
10
0.368883
20
1.36795
11
0.368531
21
1.36926
0
LINE
8
BLACK
6
CONTINUOUS
10
0.368531
20
1.36926
11
0.368531
21
1.37901
0
LINE
8
BLACK
6
CONTINUOUS
10
0.368531
20
1.37901
11
0.368883
21
1.38032
0
LINE
8
BLACK
6
CONTINUOUS
10
0.368883
20
1.38032
11
0.369155
21
1.38165
0
LINE
8
BLACK
6
CONTINUOUS
10
0.369155
20
1.38165
11
0.371592
21
1.38652
0
LINE
8
BLACK
6
CONTINUOUS
10
0.371592
20
1.38652
11
0.372223
21
1.38723
0
LINE
8
BLACK
6
CONTINUOUS
10
0.372223
20
1.38723
11
0.372698
21
1.38806
0
LINE
8
BLACK
6
CONTINUOUS
10
0.372698
20
1.38806
11
0.375135
21
1.39049
0
LINE
8
BLACK
6
CONTINUOUS
10
0.375135
20
1.39049
11
0.375959
21
1.39097
0
LINE
8
BLACK
6
CONTINUOUS
10
0.375959
20
1.39097
11
0.37667
21
1.3916
0
LINE
8
BLACK
6
CONTINUOUS
10
0.37667
20
1.3916
11
0.381545
21
1.39404
0
LINE
8
BLACK
6
CONTINUOUS
10
0.381545
20
1.39404
11
0.382874
21
1.39431
0
LINE
8
BLACK
6
CONTINUOUS
10
0.382874
20
1.39431
11
0.384186
21
1.39466
0
LINE
8
BLACK
6
CONTINUOUS
10
0.384186
20
1.39466
11
0.425618
21
1.39466
0
LINE
8
BLACK
6
CONTINUOUS
10
0.425618
20
1.39466
11
0.428571
21
1.39387
0
LINE
8
BLACK
6
CONTINUOUS
10
0.428571
20
1.44749
11
0.430732
21
1.44533
0
LINE
8
BLACK
6
CONTINUOUS
10
0.430732
20
1.44533
11
0.431523
21
1.44237
0
LINE
8
BLACK
6
CONTINUOUS
10
0.431523
20
1.44237
11
0.430732
21
1.43942
0
LINE
8
BLACK
6
CONTINUOUS
10
0.430732
20
1.43942
11
0.428571
21
1.43726
0
LINE
8
BLACK
6
CONTINUOUS
10
0.428571
20
1.43726
11
0.425618
21
1.43647
0
LINE
8
BLACK
6
CONTINUOUS
10
0.425618
20
1.43647
11
0.407151
21
1.43647
0
LINE
8
BLACK
6
CONTINUOUS
10
0.407151
20
1.43647
11
0.407151
21
1.41903
0
LINE
8
BLACK
6
CONTINUOUS
10
0.407151
20
1.41903
11
0.425618
21
1.41903
0
LINE
8
BLACK
6
CONTINUOUS
10
0.425618
20
1.41903
11
0.428571
21
1.41824
0
LINE
8
BLACK
6
CONTINUOUS
10
0.428571
20
1.41824
11
0.430732
21
1.41608
0
LINE
8
BLACK
6
CONTINUOUS
10
0.430732
20
1.41608
11
0.431523
21
1.41313
0
LINE
8
BLACK
6
CONTINUOUS
10
0.431523
20
1.41313
11
0.430732
21
1.41018
0
LINE
8
BLACK
6
CONTINUOUS
10
0.430732
20
1.41018
11
0.428571
21
1.40801
0
LINE
8
BLACK
6
CONTINUOUS
10
0.428571
20
1.40801
11
0.425618
21
1.40722
0
LINE
8
BLACK
6
CONTINUOUS
10
0.425618
20
1.40722
11
0.401246
21
1.40722
0
LINE
8
BLACK
6
CONTINUOUS
10
0.401246
20
1.40722
11
0.374437
21
1.40722
0
LINE
8
BLACK
6
CONTINUOUS
10
0.374437
20
1.40722
11
0.371484
21
1.40801
0
LINE
8
BLACK
6
CONTINUOUS
10
0.371484
20
1.40801
11
0.369322
21
1.41018
0
LINE
8
BLACK
6
CONTINUOUS
10
0.369322
20
1.41018
11
0.368531
21
1.41313
0
LINE
8
BLACK
6
CONTINUOUS
10
0.368531
20
1.41313
11
0.369322
21
1.41608
0
LINE
8
BLACK
6
CONTINUOUS
10
0.369322
20
1.41608
11
0.371484
21
1.41824
0
LINE
8
BLACK
6
CONTINUOUS
10
0.371484
20
1.41824
11
0.374437
21
1.41903
0
LINE
8
BLACK
6
CONTINUOUS
10
0.374437
20
1.41903
11
0.39534
21
1.41903
0
LINE
8
BLACK
6
CONTINUOUS
10
0.39534
20
1.41903
11
0.39534
21
1.43647
0
LINE
8
BLACK
6
CONTINUOUS
10
0.39534
20
1.43647
11
0.374437
21
1.43647
0
LINE
8
BLACK
6
CONTINUOUS
10
0.374437
20
1.43647
11
0.371484
21
1.43726
0
LINE
8
BLACK
6
CONTINUOUS
10
0.371484
20
1.43726
11
0.369322
21
1.43942
0
LINE
8
BLACK
6
CONTINUOUS
10
0.369322
20
1.43942
11
0.368531
21
1.44237
0
LINE
8
BLACK
6
CONTINUOUS
10
0.368531
20
1.44237
11
0.369322
21
1.44533
0
LINE
8
BLACK
6
CONTINUOUS
10
0.369322
20
1.44533
11
0.371484
21
1.44749
0
LINE
8
BLACK
6
CONTINUOUS
10
0.371484
20
1.44749
11
0.374437
21
1.44828
0
LINE
8
BLACK
6
CONTINUOUS
10
0.374437
20
1.44828
11
0.425618
21
1.44828
0
LINE
8
BLACK
6
CONTINUOUS
10
0.425618
20
1.44828
11
0.428571
21
1.44749
0
LINE
8
BLACK
6
CONTINUOUS
10
0.404387
20
1.50171
11
0.405115
21
1.50172
0
LINE
8
BLACK
6
CONTINUOUS
10
0.405115
20
1.50172
11
0.414864
21
1.49928
0
LINE
8
BLACK
6
CONTINUOUS
10
0.414864
20
1.49928
11
0.415434
21
1.49897
0
LINE
8
BLACK
6
CONTINUOUS
10
0.415434
20
1.49897
11
0.416073
21
1.49884
0
LINE
8
BLACK
6
CONTINUOUS
10
0.416073
20
1.49884
11
0.420947
21
1.4964
0
LINE
8
BLACK
6
CONTINUOUS
10
0.420947
20
1.4964
11
0.421659
21
1.49577
0
LINE
8
BLACK
6
CONTINUOUS
10
0.421659
20
1.49577
11
0.422482
21
1.49529
0
LINE
8
BLACK
6
CONTINUOUS
10
0.422482
20
1.49529
11
0.427357
21
1.49042
0
LINE
8
BLACK
6
CONTINUOUS
10
0.427357
20
1.49042
11
0.428035
21
1.48924
0
LINE
8
BLACK
6
CONTINUOUS
10
0.428035
20
1.48924
11
0.428783
21
1.48811
0
LINE
8
BLACK
6
CONTINUOUS
10
0.428783
20
1.48811
11
0.43122
21
1.4808
0
LINE
8
BLACK
6
CONTINUOUS
10
0.43122
20
1.4808
11
0.431277
21
1.47985
0
LINE
8
BLACK
6
CONTINUOUS
10
0.431277
20
1.47985
11
0.431523
21
1.47893
0
LINE
8
BLACK
6
CONTINUOUS
10
0.431523
20
1.47893
11
0.431523
21
1.47406
0
LINE
8
BLACK
6
CONTINUOUS
10
0.431523
20
1.47406
11
0.431277
21
1.47314
0
LINE
8
BLACK
6
CONTINUOUS
10
0.431277
20
1.47314
11
0.43122
21
1.47219
0
LINE
8
BLACK
6
CONTINUOUS
10
0.43122
20
1.47219
11
0.428783
21
1.46488
0
LINE
8
BLACK
6
CONTINUOUS
10
0.428783
20
1.46488
11
0.428035
21
1.46375
0
LINE
8
BLACK
6
CONTINUOUS
10
0.428035
20
1.46375
11
0.427356
21
1.46257
0
LINE
8
BLACK
6
CONTINUOUS
10
0.427356
20
1.46257
11
0.424919
21
1.46013
0
LINE
8
BLACK
6
CONTINUOUS
10
0.424919
20
1.46013
11
0.422272
21
1.4586
0
LINE
8
BLACK
6
CONTINUOUS
10
0.422272
20
1.4586
11
0.419215
21
1.4586
0
LINE
8
BLACK
6
CONTINUOUS
10
0.419215
20
1.4586
11
0.416568
21
1.46013
0
LINE
8
BLACK
6
CONTINUOUS
10
0.416568
20
1.46013
11
0.415039
21
1.46278
0
LINE
8
BLACK
6
CONTINUOUS
10
0.415039
20
1.46278
11
0.415039
21
1.46584
0
LINE
8
BLACK
6
CONTINUOUS
10
0.415039
20
1.46584
11
0.416568
21
1.46849
0
LINE
8
BLACK
6
CONTINUOUS
10
0.416568
20
1.46849
11
0.418019
21
1.46994
0
LINE
8
BLACK
6
CONTINUOUS
10
0.418019
20
1.46994
11
0.419712
21
1.47502
0
LINE
8
BLACK
6
CONTINUOUS
10
0.419712
20
1.47502
11
0.419712
21
1.47797
0
LINE
8
BLACK
6
CONTINUOUS
10
0.419712
20
1.47797
11
0.418019
21
1.48305
0
LINE
8
BLACK
6
CONTINUOUS
10
0.418019
20
1.48305
11
0.414808
21
1.48626
0
LINE
8
BLACK
6
CONTINUOUS
10
0.414808
20
1.48626
11
0.411371
21
1.48798
0
LINE
8
BLACK
6
CONTINUOUS
10
0.411371
20
1.48798
11
0.402956
21
1.49009
0
LINE
8
BLACK
6
CONTINUOUS
10
0.402956
20
1.49009
11
0.397099
21
1.49009
0
LINE
8
BLACK
6
CONTINUOUS
10
0.397099
20
1.49009
11
0.388684
21
1.48798
0
LINE
8
BLACK
6
CONTINUOUS
10
0.388684
20
1.48798
11
0.385247
21
1.48626
0
LINE
8
BLACK
6
CONTINUOUS
10
0.385247
20
1.48626
11
0.382036
21
1.48305
0
LINE
8
BLACK
6
CONTINUOUS
10
0.382036
20
1.48305
11
0.380342
21
1.47797
0
LINE
8
BLACK
6
CONTINUOUS
10
0.380342
20
1.47797
11
0.380342
21
1.47502
0
LINE
8
BLACK
6
CONTINUOUS
10
0.380342
20
1.47502
11
0.382036
21
1.46994
0
LINE
8
BLACK
6
CONTINUOUS
10
0.382036
20
1.46994
11
0.383487
21
1.46848
0
LINE
8
BLACK
6
CONTINUOUS
10
0.383487
20
1.46848
11
0.385015
21
1.46584
0
LINE
8
BLACK
6
CONTINUOUS
10
0.385015
20
1.46584
11
0.385015
21
1.46278
0
LINE
8
BLACK
6
CONTINUOUS
10
0.385015
20
1.46278
11
0.383487
21
1.46013
0
LINE
8
BLACK
6
CONTINUOUS
10
0.383487
20
1.46013
11
0.38084
21
1.4586
0
LINE
8
BLACK
6
CONTINUOUS
10
0.38084
20
1.4586
11
0.377783
21
1.4586
0
LINE
8
BLACK
6
CONTINUOUS
10
0.377783
20
1.4586
11
0.375135
21
1.46013
0
LINE
8
BLACK
6
CONTINUOUS
10
0.375135
20
1.46013
11
0.372698
21
1.46257
0
LINE
8
BLACK
6
CONTINUOUS
10
0.372698
20
1.46257
11
0.372019
21
1.46375
0
LINE
8
BLACK
6
CONTINUOUS
10
0.372019
20
1.46375
11
0.371272
21
1.46488
0
LINE
8
BLACK
6
CONTINUOUS
10
0.371272
20
1.46488
11
0.368834
21
1.47219
0
LINE
8
BLACK
6
CONTINUOUS
10
0.368834
20
1.47219
11
0.368777
21
1.47314
0
LINE
8
BLACK
6
CONTINUOUS
10
0.368777
20
1.47314
11
0.368531
21
1.47406
0
LINE
8
BLACK
6
CONTINUOUS
10
0.368531
20
1.47406
11
0.368531
21
1.47893
0
LINE
8
BLACK
6
CONTINUOUS
10
0.368531
20
1.47893
11
0.368777
21
1.47985
0
LINE
8
BLACK
6
CONTINUOUS
10
0.368777
20
1.47985
11
0.368834
21
1.4808
0
LINE
8
BLACK
6
CONTINUOUS
10
0.368834
20
1.4808
11
0.371272
21
1.48811
0
LINE
8
BLACK
6
CONTINUOUS
10
0.371272
20
1.48811
11
0.37202
21
1.48924
0
LINE
8
BLACK
6
CONTINUOUS
10
0.37202
20
1.48924
11
0.372698
21
1.49042
0
LINE
8
BLACK
6
CONTINUOUS
10
0.372698
20
1.49042
11
0.377573
21
1.49529
0
LINE
8
BLACK
6
CONTINUOUS
10
0.377573
20
1.49529
11
0.378396
21
1.49577
0
LINE
8
BLACK
6
CONTINUOUS
10
0.378396
20
1.49577
11
0.379107
21
1.4964
0
LINE
8
BLACK
6
CONTINUOUS
10
0.379107
20
1.4964
11
0.383982
21
1.49884
0
LINE
8
BLACK
6
CONTINUOUS
10
0.383982
20
1.49884
11
0.384621
21
1.49897
0
LINE
8
BLACK
6
CONTINUOUS
10
0.384621
20
1.49897
11
0.385191
21
1.49928
0
LINE
8
BLACK
6
CONTINUOUS
10
0.385191
20
1.49928
11
0.394939
21
1.50172
0
LINE
8
BLACK
6
CONTINUOUS
10
0.394939
20
1.50172
11
0.395668
21
1.50171
0
LINE
8
BLACK
6
CONTINUOUS
10
0.395668
20
1.50171
11
0.396372
21
1.5019
0
LINE
8
BLACK
6
CONTINUOUS
10
0.396372
20
1.5019
11
0.403683
21
1.5019
0
LINE
8
BLACK
6
CONTINUOUS
10
0.403683
20
1.5019
11
0.404387
21
1.50171
0
LINE
8
BLACK
6
CONTINUOUS
10
0.375188
20
1.55288
11
0.375965
21
1.55288
0
LINE
8
BLACK
6
CONTINUOUS
10
0.375965
20
1.55288
11
0.376639
21
1.55249
0
LINE
8
BLACK
6
CONTINUOUS
10
0.376639
20
1.55249
11
0.37739
21
1.55229
0
LINE
8
BLACK
6
CONTINUOUS
10
0.37739
20
1.55229
11
0.377939
21
1.55174
0
LINE
8
BLACK
6
CONTINUOUS
10
0.377939
20
1.55174
11
0.378613
21
1.55135
0
LINE
8
BLACK
6
CONTINUOUS
10
0.378613
20
1.55135
11
0.406873
21
1.52309
0
LINE
8
BLACK
6
CONTINUOUS
10
0.406873
20
1.52309
11
0.411953
21
1.5214
0
LINE
8
BLACK
6
CONTINUOUS
10
0.411953
20
1.5214
11
0.414475
21
1.5214
0
LINE
8
BLACK
6
CONTINUOUS
10
0.414475
20
1.5214
11
0.417245
21
1.52278
0
LINE
8
BLACK
6
CONTINUOUS
10
0.417245
20
1.52278
11
0.418327
21
1.52386
0
LINE
8
BLACK
6
CONTINUOUS
10
0.418327
20
1.52386
11
0.419712
21
1.52663
0
LINE
8
BLACK
6
CONTINUOUS
10
0.419712
20
1.52663
11
0.419712
21
1.53603
0
LINE
8
BLACK
6
CONTINUOUS
10
0.419712
20
1.53603
11
0.418327
21
1.5388
0
LINE
8
BLACK
6
CONTINUOUS
10
0.418327
20
1.5388
11
0.416568
21
1.54056
0
LINE
8
BLACK
6
CONTINUOUS
10
0.416568
20
1.54056
11
0.415039
21
1.54321
0
LINE
8
BLACK
6
CONTINUOUS
10
0.415039
20
1.54321
11
0.415039
21
1.54626
0
LINE
8
BLACK
6
CONTINUOUS
10
0.415039
20
1.54626
11
0.416568
21
1.54891
0
LINE
8
BLACK
6
CONTINUOUS
10
0.416568
20
1.54891
11
0.419215
21
1.55044
0
LINE
8
BLACK
6
CONTINUOUS
10
0.419215
20
1.55044
11
0.422272
21
1.55044
0
LINE
8
BLACK
6
CONTINUOUS
10
0.422272
20
1.55044
11
0.424919
21
1.54891
0
LINE
8
BLACK
6
CONTINUOUS
10
0.424919
20
1.54891
11
0.427356
21
1.54648
0
LINE
8
BLACK
6
CONTINUOUS
10
0.427356
20
1.54648
11
0.427832
21
1.54565
0
LINE
8
BLACK
6
CONTINUOUS
10
0.427832
20
1.54565
11
0.428463
21
1.54494
0
LINE
8
BLACK
6
CONTINUOUS
10
0.428463
20
1.54494
11
0.4309
21
1.54007
0
LINE
8
BLACK
6
CONTINUOUS
10
0.4309
20
1.54007
11
0.431172
21
1.53874
0
LINE
8
BLACK
6
CONTINUOUS
10
0.431172
20
1.53874
11
0.431523
21
1.53742
0
LINE
8
BLACK
6
CONTINUOUS
10
0.431523
20
1.53742
11
0.431523
21
1.52524
0
LINE
8
BLACK
6
CONTINUOUS
10
0.431523
20
1.52524
11
0.431172
21
1.52393
0
LINE
8
BLACK
6
CONTINUOUS
10
0.431172
20
1.52393
11
0.4309
21
1.5226
0
LINE
8
BLACK
6
CONTINUOUS
10
0.4309
20
1.5226
11
0.428463
21
1.51772
0
LINE
8
BLACK
6
CONTINUOUS
10
0.428463
20
1.51772
11
0.427832
21
1.51701
0
LINE
8
BLACK
6
CONTINUOUS
10
0.427832
20
1.51701
11
0.427357
21
1.51619
0
LINE
8
BLACK
6
CONTINUOUS
10
0.427357
20
1.51619
11
0.424919
21
1.51375
0
LINE
8
BLACK
6
CONTINUOUS
10
0.424919
20
1.51375
11
0.424096
21
1.51328
0
LINE
8
BLACK
6
CONTINUOUS
10
0.424096
20
1.51328
11
0.423385
21
1.51265
0
LINE
8
BLACK
6
CONTINUOUS
10
0.423385
20
1.51265
11
0.41851
21
1.51021
0
LINE
8
BLACK
6
CONTINUOUS
10
0.41851
20
1.51021
11
0.41718
21
1.50994
0
LINE
8
BLACK
6
CONTINUOUS
10
0.41718
20
1.50994
11
0.415869
21
1.50958
0
LINE
8
BLACK
6
CONTINUOUS
10
0.415869
20
1.50958
11
0.410995
21
1.50958
0
LINE
8
BLACK
6
CONTINUOUS
10
0.410995
20
1.50958
11
0.410076
21
1.50983
0
LINE
8
BLACK
6
CONTINUOUS
10
0.410076
20
1.50983
11
0.409127
21
1.50989
0
LINE
8
BLACK
6
CONTINUOUS
10
0.409127
20
1.50989
11
0.401816
21
1.51232
0
LINE
8
BLACK
6
CONTINUOUS
10
0.401816
20
1.51232
11
0.400683
21
1.51307
0
LINE
8
BLACK
6
CONTINUOUS
10
0.400683
20
1.51307
11
0.399507
21
1.51375
0
LINE
8
BLACK
6
CONTINUOUS
10
0.399507
20
1.51375
11
0.380342
21
1.53292
0
LINE
8
BLACK
6
CONTINUOUS
10
0.380342
20
1.53292
11
0.380342
21
1.51549
0
LINE
8
BLACK
6
CONTINUOUS
10
0.380342
20
1.51549
11
0.379551
21
1.51254
0
LINE
8
BLACK
6
CONTINUOUS
10
0.379551
20
1.51254
11
0.37739
21
1.51038
0
LINE
8
BLACK
6
CONTINUOUS
10
0.37739
20
1.51038
11
0.374437
21
1.50958
0
LINE
8
BLACK
6
CONTINUOUS
10
0.374437
20
1.50958
11
0.371484
21
1.51038
0
LINE
8
BLACK
6
CONTINUOUS
10
0.371484
20
1.51038
11
0.369322
21
1.51254
0
LINE
8
BLACK
6
CONTINUOUS
10
0.369322
20
1.51254
11
0.368531
21
1.51549
0
LINE
8
BLACK
6
CONTINUOUS
10
0.368531
20
1.51549
11
0.368531
21
1.54717
0
LINE
8
BLACK
6
CONTINUOUS
10
0.368531
20
1.54717
11
0.368733
21
1.54792
0
LINE
8
BLACK
6
CONTINUOUS
10
0.368733
20
1.54792
11
0.368733
21
1.5487
0
LINE
8
BLACK
6
CONTINUOUS
10
0.368733
20
1.5487
11
0.369121
21
1.54938
0
LINE
8
BLACK
6
CONTINUOUS
10
0.369121
20
1.54938
11
0.369322
21
1.55013
0
LINE
8
BLACK
6
CONTINUOUS
10
0.369322
20
1.55013
11
0.369872
21
1.55068
0
LINE
8
BLACK
6
CONTINUOUS
10
0.369872
20
1.55068
11
0.370261
21
1.55135
0
LINE
8
BLACK
6
CONTINUOUS
10
0.370261
20
1.55135
11
0.370934
21
1.55174
0
LINE
8
BLACK
6
CONTINUOUS
10
0.370934
20
1.55174
11
0.371484
21
1.55229
0
LINE
8
BLACK
6
CONTINUOUS
10
0.371484
20
1.55229
11
0.372235
21
1.55249
0
LINE
8
BLACK
6
CONTINUOUS
10
0.372235
20
1.55249
11
0.372908
21
1.55288
0
LINE
8
BLACK
6
CONTINUOUS
10
0.372908
20
1.55288
11
0.373686
21
1.55288
0
LINE
8
BLACK
6
CONTINUOUS
10
0.373686
20
1.55288
11
0.374437
21
1.55308
0
LINE
8
BLACK
6
CONTINUOUS
10
0.374437
20
1.55308
11
0.375188
21
1.55288
0
LINE
8
BLACK
6
CONTINUOUS
10
0.428571
20
1.57179
11
0.430732
21
1.56962
0
LINE
8
BLACK
6
CONTINUOUS
10
0.430732
20
1.56962
11
0.431523
21
1.56667
0
LINE
8
BLACK
6
CONTINUOUS
10
0.431523
20
1.56667
11
0.430732
21
1.56372
0
LINE
8
BLACK
6
CONTINUOUS
10
0.430732
20
1.56372
11
0.428571
21
1.56156
0
LINE
8
BLACK
6
CONTINUOUS
10
0.428571
20
1.56156
11
0.425618
21
1.56077
0
LINE
8
BLACK
6
CONTINUOUS
10
0.425618
20
1.56077
11
0.374437
21
1.56077
0
LINE
8
BLACK
6
CONTINUOUS
10
0.374437
20
1.56077
11
0.371484
21
1.56156
0
LINE
8
BLACK
6
CONTINUOUS
10
0.371484
20
1.56156
11
0.369322
21
1.56372
0
LINE
8
BLACK
6
CONTINUOUS
10
0.369322
20
1.56372
11
0.368531
21
1.56667
0
LINE
8
BLACK
6
CONTINUOUS
10
0.368531
20
1.56667
11
0.369322
21
1.56962
0
LINE
8
BLACK
6
CONTINUOUS
10
0.369322
20
1.56962
11
0.371484
21
1.57179
0
LINE
8
BLACK
6
CONTINUOUS
10
0.371484
20
1.57179
11
0.374437
21
1.57258
0
LINE
8
BLACK
6
CONTINUOUS
10
0.374437
20
1.57258
11
0.425618
21
1.57258
0
LINE
8
BLACK
6
CONTINUOUS
10
0.425618
20
1.57258
11
0.428571
21
1.57179
0
CIRCLE
8
BLACK
10
0.1125
20
1.0675
40
0.00688976
0
CIRCLE
8
BLACK
10
0.1125
20
1.1675
40
0.00688976
0
CIRCLE
8
BLACK
10
0.2125
20
1.0675
40
0.00688976
0
CIRCLE
8
BLACK
10
0.2125
20
1.1675
40
0.00688976
0
CIRCLE
8
BLACK
10
0.3125
20
1.0675
40
0.00688976
0
CIRCLE
8
BLACK
10
0.3125
20
1.1675
40
0.00688976
0
CIRCLE
8
BLACK
10
0.48
20
0.8475
40
0.00688976
0
CIRCLE
8
BLACK
10
0.58
20
0.8475
40
0.00688976
0
CIRCLE
8
BLACK
10
0.48
20
0.7475
40
0.00688976
0
CIRCLE
8
BLACK
10
0.58
20
0.7475
40
0.00688976
0
CIRCLE
8
BLACK
10
0.48
20
0.6475
40
0.00688976
0
CIRCLE
8
BLACK
10
0.58
20
0.6475
40
0.00688976
0
CIRCLE
8
BLACK
10
0.48
20
0.5475
40
0.00688976
0
CIRCLE
8
BLACK
10
0.58
20
0.5475
40
0.00688976
0
CIRCLE
8
BLACK
10
0.48
20
0.4475
40
0.00688976
0
CIRCLE
8
BLACK
10
0.58
20
0.4475
40
0.00688976
0
CIRCLE
8
BLACK
10
0.28
20
0.8475
40
0.00688976
0
CIRCLE
8
BLACK
10
0.38
20
0.8475
40
0.00688976
0
CIRCLE
8
BLACK
10
0.28
20
0.7475
40
0.00688976
0
CIRCLE
8
BLACK
10
0.38
20
0.7475
40
0.00688976
0
CIRCLE
8
BLACK
10
0.28
20
0.6475
40
0.00688976
0
CIRCLE
8
BLACK
10
0.38
20
0.6475
40
0.00688976
0
CIRCLE
8
BLACK
10
0.28
20
0.5475
40
0.00688976
0
CIRCLE
8
BLACK
10
0.38
20
0.5475
40
0.00688976
0
CIRCLE
8
BLACK
10
0.28
20
0.4475
40
0.00688976
0
CIRCLE
8
BLACK
10
0.38
20
0.4475
40
0.00688976
0
CIRCLE
8
BLACK
10
0.08
20
0.8475
40
0.00688976
0
CIRCLE
8
BLACK
10
0.18
20
0.8475
40
0.00688976
0
CIRCLE
8
BLACK
10
0.08
20
0.7475
40
0.00688976
0
CIRCLE
8
BLACK
10
0.18
20
0.7475
40
0.00688976
0
CIRCLE
8
BLACK
10
0.08
20
0.6475
40
0.00688976
0
CIRCLE
8
BLACK
10
0.18
20
0.6475
40
0.00688976
0
CIRCLE
8
BLACK
10
0.08
20
0.5475
40
0.00688976
0
CIRCLE
8
BLACK
10
0.18
20
0.5475
40
0.00688976
0
CIRCLE
8
BLACK
10
0.08
20
0.4475
40
0.00688976
0
CIRCLE
8
BLACK
10
0.18
20
0.4475
40
0.00688976
0
CIRCLE
8
BLACK
10
0.6075
20
1.1075
40
0.00688976
0
CIRCLE
8
BLACK
10
0.7075
20
1.1075
40
0.00688976
0
CIRCLE
8
BLACK
10
0.6075
20
1.0075
40
0.00688976
0
CIRCLE
8
BLACK
10
0.7075
20
1.0075
40
0.00688976
0
CIRCLE
8
BLACK
10
0.2
20
1.4
40
0.00688976
0
CIRCLE
8
BLACK
10
0.6
20
1.4
40
0.00688976
0
CIRCLE
8
BLACK
10
0.6
20
0.2
40
0.00688976
0
CIRCLE
8
BLACK
10
0.2
20
0.2
40
0.00688976
  0
ENDSEC
  0
EOF
