  0
SECTION
  2
HEADER
  9
$ANGBASE
  50
0.0
  9
$ANGDIR
  70
1
  9
$MEASUREMENT
  70
0
  0
ENDSEC
  0
SECTION
  2
TABLES
  0
TABLE
  2
LTYPE
  70
4
  0
LTYPE
  5
40F
  2
CONTINUOUS
  70
0
  3
Solid line
  72
65
  73
0
  40
0.0
  0
LTYPE
  5
410
  2
DASHDOT
 70
0
  3
Dash Dot ____ _ ____ _
 72
65
 73
4
 40
2.0
 49
1.25
 49
-0.25
 49
0.25
 49
-0.25
  0
LTYPE
  5
411
  2
DASHED
 70
0
  3
Dashed __ __ __ __ __
 72
65
 73
2
 40
0.75
 49
0.5
 49
-0.25
  0
LTYPE
  5
43B
  2
DOTTED
 70
0
  3
Dotted .  .  .  .
 72
65
 73
2
 40
0.2
 49
0.0
 49
-0.2
  0
ENDTAB
  0
TABLE
  2
STYLE
  70
4
  0
STYLE
  2
KICAD
  70
0
  40
0
  41
1
  42
1
  50
0
  71
0
  3
isocp.shx
  0
STYLE
  2
KICADB
  70
0
  40
0
  41
1
  42
1
  50
0
  71
0
  3
isocp.shx
  0
STYLE
  2
KICADI
  70
0
  40
0
  41
1
  42
1
  50
15
  71
0
  3
isocp.shx
  0
STYLE
  2
KICADBI
  70
0
  40
0
  41
1
  42
1
  50
15
  71
0
  3
isocp.shx
  0
ENDTAB
  0
TABLE
  2
LAYER
  70
1
  0
LAYER
  2
BLACK
  70
0
  62
7
  6
CONTINUOUS
  0
ENDTAB
  0
ENDSEC
  0
SECTION
  2
ENTITIES
0
LINE
8
BLACK
6
CONTINUOUS
10
0.69
20
0.6175
11
0.655
21
0.6175
0
LINE
8
BLACK
6
CONTINUOUS
10
0.655
20
0.6175
11
0.655
21
0.6725
0
LINE
8
BLACK
6
CONTINUOUS
10
0.655
20
0.6725
11
0.69
21
0.6725
0
LINE
8
BLACK
6
CONTINUOUS
10
0.69
20
0.6725
11
0.69
21
0.6175
0
LINE
8
BLACK
6
CONTINUOUS
10
0.765
20
0.6175
11
0.73
21
0.6175
0
LINE
8
BLACK
6
CONTINUOUS
10
0.73
20
0.6175
11
0.73
21
0.6725
0
LINE
8
BLACK
6
CONTINUOUS
10
0.73
20
0.6725
11
0.765
21
0.6725
0
LINE
8
BLACK
6
CONTINUOUS
10
0.765
20
0.6725
11
0.765
21
0.6175
0
LINE
8
BLACK
6
CONTINUOUS
10
0.1117
20
0.92655
11
0.0605
21
0.92655
0
LINE
8
BLACK
6
CONTINUOUS
10
0.0605
20
0.92655
11
0.0605
21
0.99345
0
LINE
8
BLACK
6
CONTINUOUS
10
0.0605
20
0.99345
11
0.1117
21
0.99345
0
LINE
8
BLACK
6
CONTINUOUS
10
0.1117
20
0.99345
11
0.1117
21
0.92655
0
LINE
8
BLACK
6
CONTINUOUS
10
0.2495
20
0.92655
11
0.1983
21
0.92655
0
LINE
8
BLACK
6
CONTINUOUS
10
0.1983
20
0.92655
11
0.1983
21
0.99345
0
LINE
8
BLACK
6
CONTINUOUS
10
0.1983
20
0.99345
11
0.2495
21
0.99345
0
LINE
8
BLACK
6
CONTINUOUS
10
0.2495
20
0.99345
11
0.2495
21
0.92655
0
LINE
8
BLACK
6
CONTINUOUS
10
0.32
20
0.93
11
0.285
21
0.93
0
LINE
8
BLACK
6
CONTINUOUS
10
0.285
20
0.93
11
0.285
21
0.985
0
LINE
8
BLACK
6
CONTINUOUS
10
0.285
20
0.985
11
0.32
21
0.985
0
LINE
8
BLACK
6
CONTINUOUS
10
0.32
20
0.985
11
0.32
21
0.93
0
LINE
8
BLACK
6
CONTINUOUS
10
0.395
20
0.93
11
0.36
21
0.93
0
LINE
8
BLACK
6
CONTINUOUS
10
0.36
20
0.93
11
0.36
21
0.985
0
LINE
8
BLACK
6
CONTINUOUS
10
0.36
20
0.985
11
0.395
21
0.985
0
LINE
8
BLACK
6
CONTINUOUS
10
0.395
20
0.985
11
0.395
21
0.93
0
LINE
8
BLACK
6
CONTINUOUS
10
0.455
20
0.99
11
0.42
21
0.99
0
LINE
8
BLACK
6
CONTINUOUS
10
0.42
20
0.99
11
0.42
21
1.045
0
LINE
8
BLACK
6
CONTINUOUS
10
0.42
20
1.045
11
0.455
21
1.045
0
LINE
8
BLACK
6
CONTINUOUS
10
0.455
20
1.045
11
0.455
21
0.99
0
LINE
8
BLACK
6
CONTINUOUS
10
0.53
20
0.99
11
0.495
21
0.99
0
LINE
8
BLACK
6
CONTINUOUS
10
0.495
20
0.99
11
0.495
21
1.045
0
LINE
8
BLACK
6
CONTINUOUS
10
0.495
20
1.045
11
0.53
21
1.045
0
LINE
8
BLACK
6
CONTINUOUS
10
0.53
20
1.045
11
0.53
21
0.99
0
LINE
8
BLACK
6
CONTINUOUS
10
0.455
20
1.0825
11
0.42
21
1.0825
0
LINE
8
BLACK
6
CONTINUOUS
10
0.42
20
1.0825
11
0.42
21
1.1375
0
LINE
8
BLACK
6
CONTINUOUS
10
0.42
20
1.1375
11
0.455
21
1.1375
0
LINE
8
BLACK
6
CONTINUOUS
10
0.455
20
1.1375
11
0.455
21
1.0825
0
LINE
8
BLACK
6
CONTINUOUS
10
0.53
20
1.0825
11
0.495
21
1.0825
0
LINE
8
BLACK
6
CONTINUOUS
10
0.495
20
1.0825
11
0.495
21
1.1375
0
LINE
8
BLACK
6
CONTINUOUS
10
0.495
20
1.1375
11
0.53
21
1.1375
0
LINE
8
BLACK
6
CONTINUOUS
10
0.53
20
1.1375
11
0.53
21
1.0825
  0
ENDSEC
  0
EOF
