  0
SECTION
  2
HEADER
  9
$ANGBASE
  50
0.0
  9
$ANGDIR
  70
1
  9
$MEASUREMENT
  70
0
  0
ENDSEC
  0
SECTION
  2
TABLES
  0
TABLE
  2
LTYPE
  70
4
  0
LTYPE
  5
40F
  2
CONTINUOUS
  70
0
  3
Solid line
  72
65
  73
0
  40
0.0
  0
LTYPE
  5
410
  2
DASHDOT
 70
0
  3
Dash Dot ____ _ ____ _
 72
65
 73
4
 40
2.0
 49
1.25
 49
-0.25
 49
0.25
 49
-0.25
  0
LTYPE
  5
411
  2
DASHED
 70
0
  3
Dashed __ __ __ __ __
 72
65
 73
2
 40
0.75
 49
0.5
 49
-0.25
  0
LTYPE
  5
43B
  2
DOTTED
 70
0
  3
Dotted .  .  .  .
 72
65
 73
2
 40
0.2
 49
0.0
 49
-0.2
  0
ENDTAB
  0
TABLE
  2
STYLE
  70
4
  0
STYLE
  2
KICAD
  70
0
  40
0
  41
1
  42
1
  50
0
  71
0
  3
isocp.shx
  0
STYLE
  2
KICADB
  70
0
  40
0
  41
1
  42
1
  50
0
  71
0
  3
isocp.shx
  0
STYLE
  2
KICADI
  70
0
  40
0
  41
1
  42
1
  50
15
  71
0
  3
isocp.shx
  0
STYLE
  2
KICADBI
  70
0
  40
0
  41
1
  42
1
  50
15
  71
0
  3
isocp.shx
  0
ENDTAB
  0
TABLE
  2
LAYER
  70
1
  0
LAYER
  2
BLACK
  70
0
  62
7
  6
CONTINUOUS
  0
ENDTAB
  0
ENDSEC
  0
SECTION
  2
ENTITIES
0
LINE
8
BLACK
6
CONTINUOUS
10
0.784749
20
1.58624
11
0.786579
21
1.58413
0
LINE
8
BLACK
6
CONTINUOUS
10
0.786579
20
1.58413
11
0.787028
21
1.58207
0
LINE
8
BLACK
6
CONTINUOUS
10
0.787028
20
1.58207
11
0.787028
21
1.13785
0
LINE
8
BLACK
6
CONTINUOUS
10
0.787028
20
1.13785
11
0.78624
21
1.13517
0
LINE
8
BLACK
6
CONTINUOUS
10
0.78624
20
1.13517
11
0.784128
21
1.13334
0
LINE
8
BLACK
6
CONTINUOUS
10
0.784128
20
1.13334
11
0.781361
21
1.13294
0
LINE
8
BLACK
6
CONTINUOUS
10
0.781361
20
1.13294
11
0.778974
21
1.13398
0
LINE
8
BLACK
6
CONTINUOUS
10
0.778974
20
1.13398
11
0.778164
21
1.13462
0
LINE
8
BLACK
6
CONTINUOUS
10
0.778164
20
1.13462
11
0.776669
21
1.13534
0
LINE
8
BLACK
6
CONTINUOUS
10
0.776669
20
1.13534
11
0.776425
21
1.13548
0
LINE
8
BLACK
6
CONTINUOUS
10
0.776425
20
1.13548
11
0.776215
21
1.13561
0
LINE
8
BLACK
6
CONTINUOUS
10
0.776215
20
1.13561
11
0.77502
21
1.13636
0
LINE
8
BLACK
6
CONTINUOUS
10
0.77502
20
1.13636
11
0.773453
21
1.13691
0
LINE
8
BLACK
6
CONTINUOUS
10
0.773453
20
1.13691
11
0.773197
21
1.13701
0
LINE
8
BLACK
6
CONTINUOUS
10
0.773197
20
1.13701
11
0.771702
21
1.13773
0
LINE
8
BLACK
6
CONTINUOUS
10
0.771702
20
1.13773
11
0.770084
21
1.1381
0
LINE
8
BLACK
6
CONTINUOUS
10
0.770084
20
1.1381
11
0.769817
21
1.13818
0
LINE
8
BLACK
6
CONTINUOUS
10
0.769817
20
1.13818
11
0.76825
21
1.13873
0
LINE
8
BLACK
6
CONTINUOUS
10
0.76825
20
1.13873
11
0.7666
21
1.13891
0
LINE
8
BLACK
6
CONTINUOUS
10
0.7666
20
1.13891
11
0.766327
21
1.13896
0
LINE
8
BLACK
6
CONTINUOUS
10
0.766327
20
1.13896
11
0.764709
21
1.13933
0
LINE
8
BLACK
6
CONTINUOUS
10
0.764709
20
1.13933
11
0.764708
21
1.13933
0
LINE
8
BLACK
6
CONTINUOUS
10
0.764708
20
1.13933
11
0.761628
21
1.13933
0
LINE
8
BLACK
6
CONTINUOUS
10
0.761628
20
1.13933
11
0.758946
21
1.14012
0
LINE
8
BLACK
6
CONTINUOUS
10
0.758946
20
1.14012
11
0.757116
21
1.14223
0
LINE
8
BLACK
6
CONTINUOUS
10
0.757116
20
1.14223
11
0.75698
21
1.14256
0
LINE
8
BLACK
6
CONTINUOUS
10
0.75698
20
1.14256
11
0.756369
21
1.1442
0
LINE
8
BLACK
6
CONTINUOUS
10
0.756369
20
1.1442
11
0.755252
21
1.14719
0
LINE
8
BLACK
6
CONTINUOUS
10
0.755252
20
1.14719
11
0.751802
21
1.1518
0
LINE
8
BLACK
6
CONTINUOUS
10
0.751802
20
1.1518
11
0.747193
21
1.15525
0
LINE
8
BLACK
6
CONTINUOUS
10
0.747193
20
1.15525
11
0.741799
21
1.15726
0
LINE
8
BLACK
6
CONTINUOUS
10
0.741799
20
1.15726
11
0.741799
21
1.15726
0
LINE
8
BLACK
6
CONTINUOUS
10
0.741799
20
1.15726
11
0.741799
21
1.15726
0
LINE
8
BLACK
6
CONTINUOUS
10
0.741799
20
1.15726
11
0.739415
21
1.15752
0
LINE
8
BLACK
6
CONTINUOUS
10
0.739415
20
1.15752
11
0.739415
21
1.15752
0
LINE
8
BLACK
6
CONTINUOUS
10
0.739415
20
1.15752
11
0.739415
21
1.15752
0
LINE
8
BLACK
6
CONTINUOUS
10
0.739415
20
1.15752
11
0.675585
21
1.15752
0
LINE
8
BLACK
6
CONTINUOUS
10
0.675585
20
1.15752
11
0.675585
21
1.15752
0
LINE
8
BLACK
6
CONTINUOUS
10
0.675585
20
1.15752
11
0.675585
21
1.15752
0
LINE
8
BLACK
6
CONTINUOUS
10
0.675585
20
1.15752
11
0.673201
21
1.15726
0
LINE
8
BLACK
6
CONTINUOUS
10
0.673201
20
1.15726
11
0.673201
21
1.15726
0
LINE
8
BLACK
6
CONTINUOUS
10
0.673201
20
1.15726
11
0.670133
21
1.15612
0
LINE
8
BLACK
6
CONTINUOUS
10
0.670133
20
1.15612
11
0.667807
21
1.15525
0
LINE
8
BLACK
6
CONTINUOUS
10
0.667807
20
1.15525
11
0.667807
21
1.15525
0
LINE
8
BLACK
6
CONTINUOUS
10
0.667807
20
1.15525
11
0.667807
21
1.15525
0
LINE
8
BLACK
6
CONTINUOUS
10
0.667807
20
1.15525
11
0.663198
21
1.1518
0
LINE
8
BLACK
6
CONTINUOUS
10
0.663198
20
1.1518
11
0.661471
21
1.14949
0
LINE
8
BLACK
6
CONTINUOUS
10
0.661471
20
1.14949
11
0.659234
21
1.14782
0
LINE
8
BLACK
6
CONTINUOUS
10
0.659234
20
1.14782
11
0.656446
21
1.14762
0
LINE
8
BLACK
6
CONTINUOUS
10
0.656446
20
1.14762
11
0.653992
21
1.14896
0
LINE
8
BLACK
6
CONTINUOUS
10
0.653992
20
1.14896
11
0.653529
21
1.14949
0
LINE
8
BLACK
6
CONTINUOUS
10
0.653529
20
1.14949
11
0.651802
21
1.1518
0
LINE
8
BLACK
6
CONTINUOUS
10
0.651802
20
1.1518
11
0.647193
21
1.15525
0
LINE
8
BLACK
6
CONTINUOUS
10
0.647193
20
1.15525
11
0.647193
21
1.15525
0
LINE
8
BLACK
6
CONTINUOUS
10
0.647193
20
1.15525
11
0.647193
21
1.15525
0
LINE
8
BLACK
6
CONTINUOUS
10
0.647193
20
1.15525
11
0.641799
21
1.15726
0
LINE
8
BLACK
6
CONTINUOUS
10
0.641799
20
1.15726
11
0.641799
21
1.15726
0
LINE
8
BLACK
6
CONTINUOUS
10
0.641799
20
1.15726
11
0.641799
21
1.15726
0
LINE
8
BLACK
6
CONTINUOUS
10
0.641799
20
1.15726
11
0.639415
21
1.15752
0
LINE
8
BLACK
6
CONTINUOUS
10
0.639415
20
1.15752
11
0.639415
21
1.15752
0
LINE
8
BLACK
6
CONTINUOUS
10
0.639415
20
1.15752
11
0.639415
21
1.15752
0
LINE
8
BLACK
6
CONTINUOUS
10
0.639415
20
1.15752
11
0.575585
21
1.15752
0
LINE
8
BLACK
6
CONTINUOUS
10
0.575585
20
1.15752
11
0.575585
21
1.15752
0
LINE
8
BLACK
6
CONTINUOUS
10
0.575585
20
1.15752
11
0.575585
21
1.15752
0
LINE
8
BLACK
6
CONTINUOUS
10
0.575585
20
1.15752
11
0.573201
21
1.15726
0
LINE
8
BLACK
6
CONTINUOUS
10
0.573201
20
1.15726
11
0.573201
21
1.15726
0
LINE
8
BLACK
6
CONTINUOUS
10
0.573201
20
1.15726
11
0.570133
21
1.15612
0
LINE
8
BLACK
6
CONTINUOUS
10
0.570133
20
1.15612
11
0.567807
21
1.15525
0
LINE
8
BLACK
6
CONTINUOUS
10
0.567807
20
1.15525
11
0.567807
21
1.15525
0
LINE
8
BLACK
6
CONTINUOUS
10
0.567807
20
1.15525
11
0.567807
21
1.15525
0
LINE
8
BLACK
6
CONTINUOUS
10
0.567807
20
1.15525
11
0.563198
21
1.1518
0
LINE
8
BLACK
6
CONTINUOUS
10
0.563198
20
1.1518
11
0.559749
21
1.14719
0
LINE
8
BLACK
6
CONTINUOUS
10
0.559749
20
1.14719
11
0.559748
21
1.14719
0
LINE
8
BLACK
6
CONTINUOUS
10
0.559748
20
1.14719
11
0.557737
21
1.1418
0
LINE
8
BLACK
6
CONTINUOUS
10
0.557737
20
1.1418
11
0.557737
21
1.1418
0
LINE
8
BLACK
6
CONTINUOUS
10
0.557737
20
1.1418
11
0.55748
21
1.13942
0
LINE
8
BLACK
6
CONTINUOUS
10
0.55748
20
1.13942
11
0.55748
21
1.07558
0
LINE
8
BLACK
6
CONTINUOUS
10
0.55748
20
1.07558
11
0.557737
21
1.0732
0
LINE
8
BLACK
6
CONTINUOUS
10
0.557737
20
1.0732
11
0.557737
21
1.0732
0
LINE
8
BLACK
6
CONTINUOUS
10
0.557737
20
1.0732
11
0.559748
21
1.06781
0
LINE
8
BLACK
6
CONTINUOUS
10
0.559748
20
1.06781
11
0.559749
21
1.06781
0
LINE
8
BLACK
6
CONTINUOUS
10
0.559749
20
1.06781
11
0.563198
21
1.0632
0
LINE
8
BLACK
6
CONTINUOUS
10
0.563198
20
1.0632
11
0.565506
21
1.06147
0
LINE
8
BLACK
6
CONTINUOUS
10
0.565506
20
1.06147
11
0.567181
21
1.05923
0
LINE
8
BLACK
6
CONTINUOUS
10
0.567181
20
1.05923
11
0.56738
21
1.05645
0
LINE
8
BLACK
6
CONTINUOUS
10
0.56738
20
1.05645
11
0.56604
21
1.05399
0
LINE
8
BLACK
6
CONTINUOUS
10
0.56604
20
1.05399
11
0.565506
21
1.05353
0
LINE
8
BLACK
6
CONTINUOUS
10
0.565506
20
1.05353
11
0.563198
21
1.0518
0
LINE
8
BLACK
6
CONTINUOUS
10
0.563198
20
1.0518
11
0.559749
21
1.04719
0
LINE
8
BLACK
6
CONTINUOUS
10
0.559749
20
1.04719
11
0.559748
21
1.04719
0
LINE
8
BLACK
6
CONTINUOUS
10
0.559748
20
1.04719
11
0.557737
21
1.0418
0
LINE
8
BLACK
6
CONTINUOUS
10
0.557737
20
1.0418
11
0.557737
21
1.0418
0
LINE
8
BLACK
6
CONTINUOUS
10
0.557737
20
1.0418
11
0.55748
21
1.03942
0
LINE
8
BLACK
6
CONTINUOUS
10
0.55748
20
1.03942
11
0.55748
21
0.975585
0
LINE
8
BLACK
6
CONTINUOUS
10
0.55748
20
0.975585
11
0.557737
21
0.973201
0
LINE
8
BLACK
6
CONTINUOUS
10
0.557737
20
0.973201
11
0.557737
21
0.973201
0
LINE
8
BLACK
6
CONTINUOUS
10
0.557737
20
0.973201
11
0.558548
21
0.971025
0
LINE
8
BLACK
6
CONTINUOUS
10
0.558548
20
0.971025
11
0.558748
21
0.968237
0
LINE
8
BLACK
6
CONTINUOUS
10
0.558748
20
0.968237
11
0.557408
21
0.965784
0
LINE
8
BLACK
6
CONTINUOUS
10
0.557408
20
0.965784
11
0.554955
21
0.964444
0
LINE
8
BLACK
6
CONTINUOUS
10
0.554955
20
0.964444
11
0.5539
21
0.964331
0
LINE
8
BLACK
6
CONTINUOUS
10
0.5539
20
0.964331
11
0.47
21
0.964331
0
LINE
8
BLACK
6
CONTINUOUS
10
0.47
20
0.964331
11
0.467982
21
0.96476
0
LINE
8
BLACK
6
CONTINUOUS
10
0.467982
20
0.96476
11
0.467689
21
0.96489
0
LINE
8
BLACK
6
CONTINUOUS
10
0.467689
20
0.96489
11
0.463614
21
0.966704
0
LINE
8
BLACK
6
CONTINUOUS
10
0.463614
20
0.966704
11
0.456259
21
0.968268
0
LINE
8
BLACK
6
CONTINUOUS
10
0.456259
20
0.968268
11
0.448741
21
0.968268
0
LINE
8
BLACK
6
CONTINUOUS
10
0.448741
20
0.968268
11
0.441386
21
0.966704
0
LINE
8
BLACK
6
CONTINUOUS
10
0.441386
20
0.966704
11
0.437823
21
0.965118
0
LINE
8
BLACK
6
CONTINUOUS
10
0.437823
20
0.965118
11
0.437018
21
0.96476
0
LINE
8
BLACK
6
CONTINUOUS
10
0.437018
20
0.96476
11
0.435
21
0.964331
0
LINE
8
BLACK
6
CONTINUOUS
10
0.435
20
0.964331
11
0.309117
21
0.964331
0
LINE
8
BLACK
6
CONTINUOUS
10
0.309117
20
0.964331
11
0.306435
21
0.965118
0
LINE
8
BLACK
6
CONTINUOUS
10
0.306435
20
0.965118
11
0.30561
21
0.965784
0
LINE
8
BLACK
6
CONTINUOUS
10
0.30561
20
0.965784
11
0.295808
21
0.975585
0
LINE
8
BLACK
6
CONTINUOUS
10
0.295808
20
0.975585
11
0.255928
21
1.01547
0
LINE
8
BLACK
6
CONTINUOUS
10
0.255928
20
1.01547
11
0.254588
21
1.01792
0
LINE
8
BLACK
6
CONTINUOUS
10
0.254588
20
1.01792
11
0.254787
21
1.02071
0
LINE
8
BLACK
6
CONTINUOUS
10
0.254787
20
1.02071
11
0.256463
21
1.02294
0
LINE
8
BLACK
6
CONTINUOUS
10
0.256463
20
1.02294
11
0.256802
21
1.0232
0
LINE
8
BLACK
6
CONTINUOUS
10
0.256802
20
1.0232
11
0.260251
21
1.02781
0
LINE
8
BLACK
6
CONTINUOUS
10
0.260251
20
1.02781
11
0.260252
21
1.02781
0
LINE
8
BLACK
6
CONTINUOUS
10
0.260252
20
1.02781
11
0.262263
21
1.0332
0
LINE
8
BLACK
6
CONTINUOUS
10
0.262263
20
1.0332
11
0.262263
21
1.0332
0
LINE
8
BLACK
6
CONTINUOUS
10
0.262263
20
1.0332
11
0.26252
21
1.03558
0
LINE
8
BLACK
6
CONTINUOUS
10
0.26252
20
1.03558
11
0.26252
21
1.03559
0
LINE
8
BLACK
6
CONTINUOUS
10
0.26252
20
1.03559
11
0.26252
21
1.09941
0
LINE
8
BLACK
6
CONTINUOUS
10
0.26252
20
1.09941
11
0.26252
21
1.09942
0
LINE
8
BLACK
6
CONTINUOUS
10
0.26252
20
1.09942
11
0.262263
21
1.1018
0
LINE
8
BLACK
6
CONTINUOUS
10
0.262263
20
1.1018
11
0.262263
21
1.1018
0
LINE
8
BLACK
6
CONTINUOUS
10
0.262263
20
1.1018
11
0.260524
21
1.10646
0
LINE
8
BLACK
6
CONTINUOUS
10
0.260524
20
1.10646
11
0.260252
21
1.10719
0
LINE
8
BLACK
6
CONTINUOUS
10
0.260252
20
1.10719
11
0.258189
21
1.10995
0
LINE
8
BLACK
6
CONTINUOUS
10
0.258189
20
1.10995
11
0.256802
21
1.1118
0
LINE
8
BLACK
6
CONTINUOUS
10
0.256802
20
1.1118
11
0.254494
21
1.11353
0
LINE
8
BLACK
6
CONTINUOUS
10
0.254494
20
1.11353
11
0.252819
21
1.11577
0
LINE
8
BLACK
6
CONTINUOUS
10
0.252819
20
1.11577
11
0.25262
21
1.11855
0
LINE
8
BLACK
6
CONTINUOUS
10
0.25262
20
1.11855
11
0.253959
21
1.12101
0
LINE
8
BLACK
6
CONTINUOUS
10
0.253959
20
1.12101
11
0.254494
21
1.12147
0
LINE
8
BLACK
6
CONTINUOUS
10
0.254494
20
1.12147
11
0.256802
21
1.1232
0
LINE
8
BLACK
6
CONTINUOUS
10
0.256802
20
1.1232
11
0.260251
21
1.12781
0
LINE
8
BLACK
6
CONTINUOUS
10
0.260251
20
1.12781
11
0.260252
21
1.12781
0
LINE
8
BLACK
6
CONTINUOUS
10
0.260252
20
1.12781
11
0.262263
21
1.1332
0
LINE
8
BLACK
6
CONTINUOUS
10
0.262263
20
1.1332
11
0.262263
21
1.1332
0
LINE
8
BLACK
6
CONTINUOUS
10
0.262263
20
1.1332
11
0.26252
21
1.13558
0
LINE
8
BLACK
6
CONTINUOUS
10
0.26252
20
1.13558
11
0.26252
21
1.13559
0
LINE
8
BLACK
6
CONTINUOUS
10
0.26252
20
1.13559
11
0.26252
21
1.19941
0
LINE
8
BLACK
6
CONTINUOUS
10
0.26252
20
1.19941
11
0.26252
21
1.19942
0
LINE
8
BLACK
6
CONTINUOUS
10
0.26252
20
1.19942
11
0.262263
21
1.2018
0
LINE
8
BLACK
6
CONTINUOUS
10
0.262263
20
1.2018
11
0.262263
21
1.2018
0
LINE
8
BLACK
6
CONTINUOUS
10
0.262263
20
1.2018
11
0.261987
21
1.20254
0
LINE
8
BLACK
6
CONTINUOUS
10
0.261987
20
1.20254
11
0.260252
21
1.20719
0
LINE
8
BLACK
6
CONTINUOUS
10
0.260252
20
1.20719
11
0.256802
21
1.2118
0
LINE
8
BLACK
6
CONTINUOUS
10
0.256802
20
1.2118
11
0.252193
21
1.21525
0
LINE
8
BLACK
6
CONTINUOUS
10
0.252193
20
1.21525
11
0.246799
21
1.21726
0
LINE
8
BLACK
6
CONTINUOUS
10
0.246799
20
1.21726
11
0.246799
21
1.21726
0
LINE
8
BLACK
6
CONTINUOUS
10
0.246799
20
1.21726
11
0.246799
21
1.21726
0
LINE
8
BLACK
6
CONTINUOUS
10
0.246799
20
1.21726
11
0.244415
21
1.21752
0
LINE
8
BLACK
6
CONTINUOUS
10
0.244415
20
1.21752
11
0.244415
21
1.21752
0
LINE
8
BLACK
6
CONTINUOUS
10
0.244415
20
1.21752
11
0.244415
21
1.21752
0
LINE
8
BLACK
6
CONTINUOUS
10
0.244415
20
1.21752
11
0.180585
21
1.21752
0
LINE
8
BLACK
6
CONTINUOUS
10
0.180585
20
1.21752
11
0.180585
21
1.21752
0
LINE
8
BLACK
6
CONTINUOUS
10
0.180585
20
1.21752
11
0.180585
21
1.21752
0
LINE
8
BLACK
6
CONTINUOUS
10
0.180585
20
1.21752
11
0.178201
21
1.21726
0
LINE
8
BLACK
6
CONTINUOUS
10
0.178201
20
1.21726
11
0.178201
21
1.21726
0
LINE
8
BLACK
6
CONTINUOUS
10
0.178201
20
1.21726
11
0.175133
21
1.21612
0
LINE
8
BLACK
6
CONTINUOUS
10
0.175133
20
1.21612
11
0.172807
21
1.21525
0
LINE
8
BLACK
6
CONTINUOUS
10
0.172807
20
1.21525
11
0.172807
21
1.21525
0
LINE
8
BLACK
6
CONTINUOUS
10
0.172807
20
1.21525
11
0.172807
21
1.21525
0
LINE
8
BLACK
6
CONTINUOUS
10
0.172807
20
1.21525
11
0.168198
21
1.2118
0
LINE
8
BLACK
6
CONTINUOUS
10
0.168198
20
1.2118
11
0.164749
21
1.20719
0
LINE
8
BLACK
6
CONTINUOUS
10
0.164749
20
1.20719
11
0.164748
21
1.20719
0
LINE
8
BLACK
6
CONTINUOUS
10
0.164748
20
1.20719
11
0.162737
21
1.2018
0
LINE
8
BLACK
6
CONTINUOUS
10
0.162737
20
1.2018
11
0.162737
21
1.2018
0
LINE
8
BLACK
6
CONTINUOUS
10
0.162737
20
1.2018
11
0.16248
21
1.19942
0
LINE
8
BLACK
6
CONTINUOUS
10
0.16248
20
1.19942
11
0.16248
21
1.13558
0
LINE
8
BLACK
6
CONTINUOUS
10
0.16248
20
1.13558
11
0.162737
21
1.1332
0
LINE
8
BLACK
6
CONTINUOUS
10
0.162737
20
1.1332
11
0.162737
21
1.1332
0
LINE
8
BLACK
6
CONTINUOUS
10
0.162737
20
1.1332
11
0.164748
21
1.12781
0
LINE
8
BLACK
6
CONTINUOUS
10
0.164748
20
1.12781
11
0.164749
21
1.12781
0
LINE
8
BLACK
6
CONTINUOUS
10
0.164749
20
1.12781
11
0.168198
21
1.1232
0
LINE
8
BLACK
6
CONTINUOUS
10
0.168198
20
1.1232
11
0.170506
21
1.12147
0
LINE
8
BLACK
6
CONTINUOUS
10
0.170506
20
1.12147
11
0.172181
21
1.11923
0
LINE
8
BLACK
6
CONTINUOUS
10
0.172181
20
1.11923
11
0.17238
21
1.11645
0
LINE
8
BLACK
6
CONTINUOUS
10
0.17238
20
1.11645
11
0.17104
21
1.11399
0
LINE
8
BLACK
6
CONTINUOUS
10
0.17104
20
1.11399
11
0.170506
21
1.11353
0
LINE
8
BLACK
6
CONTINUOUS
10
0.170506
20
1.11353
11
0.168198
21
1.1118
0
LINE
8
BLACK
6
CONTINUOUS
10
0.168198
20
1.1118
11
0.164749
21
1.10719
0
LINE
8
BLACK
6
CONTINUOUS
10
0.164749
20
1.10719
11
0.164748
21
1.10719
0
LINE
8
BLACK
6
CONTINUOUS
10
0.164748
20
1.10719
11
0.162737
21
1.1018
0
LINE
8
BLACK
6
CONTINUOUS
10
0.162737
20
1.1018
11
0.162737
21
1.1018
0
LINE
8
BLACK
6
CONTINUOUS
10
0.162737
20
1.1018
11
0.16248
21
1.09942
0
LINE
8
BLACK
6
CONTINUOUS
10
0.16248
20
1.09942
11
0.16248
21
1.03558
0
LINE
8
BLACK
6
CONTINUOUS
10
0.16248
20
1.03558
11
0.162737
21
1.0332
0
LINE
8
BLACK
6
CONTINUOUS
10
0.162737
20
1.0332
11
0.162737
21
1.0332
0
LINE
8
BLACK
6
CONTINUOUS
10
0.162737
20
1.0332
11
0.164748
21
1.02781
0
LINE
8
BLACK
6
CONTINUOUS
10
0.164748
20
1.02781
11
0.164749
21
1.02781
0
LINE
8
BLACK
6
CONTINUOUS
10
0.164749
20
1.02781
11
0.168198
21
1.0232
0
LINE
8
BLACK
6
CONTINUOUS
10
0.168198
20
1.0232
11
0.172807
21
1.01975
0
LINE
8
BLACK
6
CONTINUOUS
10
0.172807
20
1.01975
11
0.172807
21
1.01975
0
LINE
8
BLACK
6
CONTINUOUS
10
0.172807
20
1.01975
11
0.177442
21
1.01802
0
LINE
8
BLACK
6
CONTINUOUS
10
0.177442
20
1.01802
11
0.17968
21
1.01634
0
LINE
8
BLACK
6
CONTINUOUS
10
0.17968
20
1.01634
11
0.180657
21
1.01373
0
LINE
8
BLACK
6
CONTINUOUS
10
0.180657
20
1.01373
11
0.180669
21
1.01337
0
LINE
8
BLACK
6
CONTINUOUS
10
0.180669
20
1.01337
11
0.180669
21
1.01029
0
LINE
8
BLACK
6
CONTINUOUS
10
0.180669
20
1.01029
11
0.181039
21
1.00867
0
LINE
8
BLACK
6
CONTINUOUS
10
0.181039
20
1.00867
11
0.181085
21
1.0084
0
LINE
8
BLACK
6
CONTINUOUS
10
0.181085
20
1.0084
11
0.181271
21
1.00675
0
LINE
8
BLACK
6
CONTINUOUS
10
0.181271
20
1.00675
11
0.181819
21
1.00518
0
LINE
8
BLACK
6
CONTINUOUS
10
0.181819
20
1.00518
11
0.181896
21
1.00492
0
LINE
8
BLACK
6
CONTINUOUS
10
0.181896
20
1.00492
11
0.182265
21
1.0033
0
LINE
8
BLACK
6
CONTINUOUS
10
0.182265
20
1.0033
11
0.182265
21
1.0033
0
LINE
8
BLACK
6
CONTINUOUS
10
0.182265
20
1.0033
11
0.182985
21
1.0018
0
LINE
8
BLACK
6
CONTINUOUS
10
0.182985
20
1.0018
11
0.183092
21
1.00155
0
LINE
8
BLACK
6
CONTINUOUS
10
0.183092
20
1.00155
11
0.18364
21
0.99998
0
LINE
8
BLACK
6
CONTINUOUS
10
0.18364
20
0.99998
11
0.184523
21
0.998574
0
LINE
8
BLACK
6
CONTINUOUS
10
0.184523
20
0.998574
11
0.184658
21
0.998331
0
LINE
8
BLACK
6
CONTINUOUS
10
0.184658
20
0.998331
11
0.185378
21
0.996836
0
LINE
8
BLACK
6
CONTINUOUS
10
0.185378
20
0.996836
11
0.186412
21
0.995538
0
LINE
8
BLACK
6
CONTINUOUS
10
0.186412
20
0.995538
11
0.186573
21
0.995311
0
LINE
8
BLACK
6
CONTINUOUS
10
0.186573
20
0.995311
11
0.187456
21
0.993906
0
LINE
8
BLACK
6
CONTINUOUS
10
0.187456
20
0.993906
11
0.188728
21
0.992634
0
LINE
8
BLACK
6
CONTINUOUS
10
0.188728
20
0.992634
11
0.268834
21
0.912528
0
LINE
8
BLACK
6
CONTINUOUS
10
0.268834
20
0.912528
11
0.268834
21
0.912528
0
LINE
8
BLACK
6
CONTINUOUS
10
0.268834
20
0.912528
11
0.27137
21
0.909992
0
LINE
8
BLACK
6
CONTINUOUS
10
0.27137
20
0.909992
11
0.273906
21
0.907456
0
LINE
8
BLACK
6
CONTINUOUS
10
0.273906
20
0.907456
11
0.275312
21
0.906573
0
LINE
8
BLACK
6
CONTINUOUS
10
0.275312
20
0.906573
11
0.275538
21
0.906412
0
LINE
8
BLACK
6
CONTINUOUS
10
0.275538
20
0.906412
11
0.276836
21
0.905378
0
LINE
8
BLACK
6
CONTINUOUS
10
0.276836
20
0.905378
11
0.278331
21
0.904658
0
LINE
8
BLACK
6
CONTINUOUS
10
0.278331
20
0.904658
11
0.278575
21
0.904523
0
LINE
8
BLACK
6
CONTINUOUS
10
0.278575
20
0.904523
11
0.27998
21
0.90364
0
LINE
8
BLACK
6
CONTINUOUS
10
0.27998
20
0.90364
11
0.281546
21
0.903092
0
LINE
8
BLACK
6
CONTINUOUS
10
0.281546
20
0.903092
11
0.281803
21
0.902985
0
LINE
8
BLACK
6
CONTINUOUS
10
0.281803
20
0.902985
11
0.282345
21
0.902725
0
LINE
8
BLACK
6
CONTINUOUS
10
0.282345
20
0.902725
11
0.283298
21
0.902265
0
LINE
8
BLACK
6
CONTINUOUS
10
0.283298
20
0.902265
11
0.283299
21
0.902265
0
LINE
8
BLACK
6
CONTINUOUS
10
0.283299
20
0.902265
11
0.283299
21
0.902265
0
LINE
8
BLACK
6
CONTINUOUS
10
0.283299
20
0.902265
11
0.284916
21
0.901896
0
LINE
8
BLACK
6
CONTINUOUS
10
0.284916
20
0.901896
11
0.285184
21
0.901819
0
LINE
8
BLACK
6
CONTINUOUS
10
0.285184
20
0.901819
11
0.28675
21
0.901271
0
LINE
8
BLACK
6
CONTINUOUS
10
0.28675
20
0.901271
11
0.28675
21
0.901271
0
LINE
8
BLACK
6
CONTINUOUS
10
0.28675
20
0.901271
11
0.288399
21
0.901085
0
LINE
8
BLACK
6
CONTINUOUS
10
0.288399
20
0.901085
11
0.288674
21
0.901039
0
LINE
8
BLACK
6
CONTINUOUS
10
0.288674
20
0.901039
11
0.290291
21
0.900669
0
LINE
8
BLACK
6
CONTINUOUS
10
0.290291
20
0.900669
11
0.29209
21
0.900669
0
LINE
8
BLACK
6
CONTINUOUS
10
0.29209
20
0.900669
11
0.435
21
0.900669
0
LINE
8
BLACK
6
CONTINUOUS
10
0.435
20
0.900669
11
0.437018
21
0.90024
0
LINE
8
BLACK
6
CONTINUOUS
10
0.437018
20
0.90024
11
0.441386
21
0.898296
0
LINE
8
BLACK
6
CONTINUOUS
10
0.441386
20
0.898296
11
0.448741
21
0.896732
0
LINE
8
BLACK
6
CONTINUOUS
10
0.448741
20
0.896732
11
0.456259
21
0.896732
0
LINE
8
BLACK
6
CONTINUOUS
10
0.456259
20
0.896732
11
0.463614
21
0.898296
0
LINE
8
BLACK
6
CONTINUOUS
10
0.463614
20
0.898296
11
0.467982
21
0.90024
0
LINE
8
BLACK
6
CONTINUOUS
10
0.467982
20
0.90024
11
0.47
21
0.900669
0
LINE
8
BLACK
6
CONTINUOUS
10
0.47
20
0.900669
11
0.588646
21
0.900669
0
LINE
8
BLACK
6
CONTINUOUS
10
0.588646
20
0.900669
11
0.627261
21
0.900669
0
LINE
8
BLACK
6
CONTINUOUS
10
0.627261
20
0.900669
11
0.629942
21
0.899882
0
LINE
8
BLACK
6
CONTINUOUS
10
0.629942
20
0.899882
11
0.630768
21
0.899216
0
LINE
8
BLACK
6
CONTINUOUS
10
0.630768
20
0.899216
11
0.631716
21
0.898268
0
LINE
8
BLACK
6
CONTINUOUS
10
0.631716
20
0.898268
11
0.633056
21
0.895815
0
LINE
8
BLACK
6
CONTINUOUS
10
0.633056
20
0.895815
11
0.633169
21
0.89476
0
LINE
8
BLACK
6
CONTINUOUS
10
0.633169
20
0.89476
11
0.633169
21
0.79486
0
LINE
8
BLACK
6
CONTINUOUS
10
0.633169
20
0.79486
11
0.632382
21
0.792178
0
LINE
8
BLACK
6
CONTINUOUS
10
0.632382
20
0.792178
11
0.630269
21
0.790348
0
LINE
8
BLACK
6
CONTINUOUS
10
0.630269
20
0.790348
11
0.627503
21
0.78995
0
LINE
8
BLACK
6
CONTINUOUS
10
0.627503
20
0.78995
11
0.62496
21
0.791111
0
LINE
8
BLACK
6
CONTINUOUS
10
0.62496
20
0.791111
11
0.624528
21
0.791575
0
LINE
8
BLACK
6
CONTINUOUS
10
0.624528
20
0.791575
11
0.624302
21
0.791802
0
LINE
8
BLACK
6
CONTINUOUS
10
0.624302
20
0.791802
11
0.624302
21
0.791802
0
LINE
8
BLACK
6
CONTINUOUS
10
0.624302
20
0.791802
11
0.624302
21
0.791802
0
LINE
8
BLACK
6
CONTINUOUS
10
0.624302
20
0.791802
11
0.619693
21
0.795252
0
LINE
8
BLACK
6
CONTINUOUS
10
0.619693
20
0.795252
11
0.614299
21
0.797263
0
LINE
8
BLACK
6
CONTINUOUS
10
0.614299
20
0.797263
11
0.614299
21
0.797263
0
LINE
8
BLACK
6
CONTINUOUS
10
0.614299
20
0.797263
11
0.614299
21
0.797263
0
LINE
8
BLACK
6
CONTINUOUS
10
0.614299
20
0.797263
11
0.611915
21
0.79752
0
LINE
8
BLACK
6
CONTINUOUS
10
0.611915
20
0.79752
11
0.611915
21
0.79752
0
LINE
8
BLACK
6
CONTINUOUS
10
0.611915
20
0.79752
11
0.611915
21
0.79752
0
LINE
8
BLACK
6
CONTINUOUS
10
0.611915
20
0.79752
11
0.548085
21
0.79752
0
LINE
8
BLACK
6
CONTINUOUS
10
0.548085
20
0.79752
11
0.548085
21
0.79752
0
LINE
8
BLACK
6
CONTINUOUS
10
0.548085
20
0.79752
11
0.548085
21
0.79752
0
LINE
8
BLACK
6
CONTINUOUS
10
0.548085
20
0.79752
11
0.545701
21
0.797263
0
LINE
8
BLACK
6
CONTINUOUS
10
0.545701
20
0.797263
11
0.545701
21
0.797263
0
LINE
8
BLACK
6
CONTINUOUS
10
0.545701
20
0.797263
11
0.542633
21
0.796119
0
LINE
8
BLACK
6
CONTINUOUS
10
0.542633
20
0.796119
11
0.540307
21
0.795252
0
LINE
8
BLACK
6
CONTINUOUS
10
0.540307
20
0.795252
11
0.540307
21
0.795251
0
LINE
8
BLACK
6
CONTINUOUS
10
0.540307
20
0.795251
11
0.540307
21
0.795251
0
LINE
8
BLACK
6
CONTINUOUS
10
0.540307
20
0.795251
11
0.535698
21
0.791802
0
LINE
8
BLACK
6
CONTINUOUS
10
0.535698
20
0.791802
11
0.533971
21
0.789494
0
LINE
8
BLACK
6
CONTINUOUS
10
0.533971
20
0.789494
11
0.531734
21
0.787819
0
LINE
8
BLACK
6
CONTINUOUS
10
0.531734
20
0.787819
11
0.528946
21
0.78762
0
LINE
8
BLACK
6
CONTINUOUS
10
0.528946
20
0.78762
11
0.526492
21
0.788959
0
LINE
8
BLACK
6
CONTINUOUS
10
0.526492
20
0.788959
11
0.526029
21
0.789494
0
LINE
8
BLACK
6
CONTINUOUS
10
0.526029
20
0.789494
11
0.524302
21
0.791802
0
LINE
8
BLACK
6
CONTINUOUS
10
0.524302
20
0.791802
11
0.519693
21
0.795251
0
LINE
8
BLACK
6
CONTINUOUS
10
0.519693
20
0.795251
11
0.519693
21
0.795251
0
LINE
8
BLACK
6
CONTINUOUS
10
0.519693
20
0.795251
11
0.519693
21
0.795252
0
LINE
8
BLACK
6
CONTINUOUS
10
0.519693
20
0.795252
11
0.514299
21
0.797263
0
LINE
8
BLACK
6
CONTINUOUS
10
0.514299
20
0.797263
11
0.514299
21
0.797263
0
LINE
8
BLACK
6
CONTINUOUS
10
0.514299
20
0.797263
11
0.514299
21
0.797263
0
LINE
8
BLACK
6
CONTINUOUS
10
0.514299
20
0.797263
11
0.511915
21
0.79752
0
LINE
8
BLACK
6
CONTINUOUS
10
0.511915
20
0.79752
11
0.511915
21
0.79752
0
LINE
8
BLACK
6
CONTINUOUS
10
0.511915
20
0.79752
11
0.511915
21
0.79752
0
LINE
8
BLACK
6
CONTINUOUS
10
0.511915
20
0.79752
11
0.448085
21
0.79752
0
LINE
8
BLACK
6
CONTINUOUS
10
0.448085
20
0.79752
11
0.448085
21
0.79752
0
LINE
8
BLACK
6
CONTINUOUS
10
0.448085
20
0.79752
11
0.448085
21
0.79752
0
LINE
8
BLACK
6
CONTINUOUS
10
0.448085
20
0.79752
11
0.445701
21
0.797263
0
LINE
8
BLACK
6
CONTINUOUS
10
0.445701
20
0.797263
11
0.445701
21
0.797263
0
LINE
8
BLACK
6
CONTINUOUS
10
0.445701
20
0.797263
11
0.442633
21
0.796119
0
LINE
8
BLACK
6
CONTINUOUS
10
0.442633
20
0.796119
11
0.440307
21
0.795252
0
LINE
8
BLACK
6
CONTINUOUS
10
0.440307
20
0.795252
11
0.440307
21
0.795251
0
LINE
8
BLACK
6
CONTINUOUS
10
0.440307
20
0.795251
11
0.440307
21
0.795251
0
LINE
8
BLACK
6
CONTINUOUS
10
0.440307
20
0.795251
11
0.435698
21
0.791802
0
LINE
8
BLACK
6
CONTINUOUS
10
0.435698
20
0.791802
11
0.433971
21
0.789494
0
LINE
8
BLACK
6
CONTINUOUS
10
0.433971
20
0.789494
11
0.431733
21
0.787819
0
LINE
8
BLACK
6
CONTINUOUS
10
0.431733
20
0.787819
11
0.428945
21
0.78762
0
LINE
8
BLACK
6
CONTINUOUS
10
0.428945
20
0.78762
11
0.426492
21
0.78896
0
LINE
8
BLACK
6
CONTINUOUS
10
0.426492
20
0.78896
11
0.426029
21
0.789494
0
LINE
8
BLACK
6
CONTINUOUS
10
0.426029
20
0.789494
11
0.424302
21
0.791802
0
LINE
8
BLACK
6
CONTINUOUS
10
0.424302
20
0.791802
11
0.419693
21
0.795252
0
LINE
8
BLACK
6
CONTINUOUS
10
0.419693
20
0.795252
11
0.414299
21
0.797263
0
LINE
8
BLACK
6
CONTINUOUS
10
0.414299
20
0.797263
11
0.414299
21
0.797263
0
LINE
8
BLACK
6
CONTINUOUS
10
0.414299
20
0.797263
11
0.414299
21
0.797263
0
LINE
8
BLACK
6
CONTINUOUS
10
0.414299
20
0.797263
11
0.411915
21
0.79752
0
LINE
8
BLACK
6
CONTINUOUS
10
0.411915
20
0.79752
11
0.411915
21
0.79752
0
LINE
8
BLACK
6
CONTINUOUS
10
0.411915
20
0.79752
11
0.411915
21
0.79752
0
LINE
8
BLACK
6
CONTINUOUS
10
0.411915
20
0.79752
11
0.348085
21
0.79752
0
LINE
8
BLACK
6
CONTINUOUS
10
0.348085
20
0.79752
11
0.348085
21
0.79752
0
LINE
8
BLACK
6
CONTINUOUS
10
0.348085
20
0.79752
11
0.348085
21
0.79752
0
LINE
8
BLACK
6
CONTINUOUS
10
0.348085
20
0.79752
11
0.345701
21
0.797263
0
LINE
8
BLACK
6
CONTINUOUS
10
0.345701
20
0.797263
11
0.345701
21
0.797263
0
LINE
8
BLACK
6
CONTINUOUS
10
0.345701
20
0.797263
11
0.342633
21
0.796119
0
LINE
8
BLACK
6
CONTINUOUS
10
0.342633
20
0.796119
11
0.340307
21
0.795252
0
LINE
8
BLACK
6
CONTINUOUS
10
0.340307
20
0.795252
11
0.340307
21
0.795251
0
LINE
8
BLACK
6
CONTINUOUS
10
0.340307
20
0.795251
11
0.340307
21
0.795251
0
LINE
8
BLACK
6
CONTINUOUS
10
0.340307
20
0.795251
11
0.335698
21
0.791802
0
LINE
8
BLACK
6
CONTINUOUS
10
0.335698
20
0.791802
11
0.333971
21
0.789494
0
LINE
8
BLACK
6
CONTINUOUS
10
0.333971
20
0.789494
11
0.331734
21
0.787819
0
LINE
8
BLACK
6
CONTINUOUS
10
0.331734
20
0.787819
11
0.328946
21
0.78762
0
LINE
8
BLACK
6
CONTINUOUS
10
0.328946
20
0.78762
11
0.326492
21
0.788959
0
LINE
8
BLACK
6
CONTINUOUS
10
0.326492
20
0.788959
11
0.326029
21
0.789494
0
LINE
8
BLACK
6
CONTINUOUS
10
0.326029
20
0.789494
11
0.324302
21
0.791802
0
LINE
8
BLACK
6
CONTINUOUS
10
0.324302
20
0.791802
11
0.319693
21
0.795251
0
LINE
8
BLACK
6
CONTINUOUS
10
0.319693
20
0.795251
11
0.319693
21
0.795251
0
LINE
8
BLACK
6
CONTINUOUS
10
0.319693
20
0.795251
11
0.319693
21
0.795252
0
LINE
8
BLACK
6
CONTINUOUS
10
0.319693
20
0.795252
11
0.314299
21
0.797263
0
LINE
8
BLACK
6
CONTINUOUS
10
0.314299
20
0.797263
11
0.314299
21
0.797263
0
LINE
8
BLACK
6
CONTINUOUS
10
0.314299
20
0.797263
11
0.314299
21
0.797263
0
LINE
8
BLACK
6
CONTINUOUS
10
0.314299
20
0.797263
11
0.311915
21
0.79752
0
LINE
8
BLACK
6
CONTINUOUS
10
0.311915
20
0.79752
11
0.311915
21
0.79752
0
LINE
8
BLACK
6
CONTINUOUS
10
0.311915
20
0.79752
11
0.311915
21
0.79752
0
LINE
8
BLACK
6
CONTINUOUS
10
0.311915
20
0.79752
11
0.248085
21
0.79752
0
LINE
8
BLACK
6
CONTINUOUS
10
0.248085
20
0.79752
11
0.248085
21
0.79752
0
LINE
8
BLACK
6
CONTINUOUS
10
0.248085
20
0.79752
11
0.248085
21
0.79752
0
LINE
8
BLACK
6
CONTINUOUS
10
0.248085
20
0.79752
11
0.245701
21
0.797263
0
LINE
8
BLACK
6
CONTINUOUS
10
0.245701
20
0.797263
11
0.245701
21
0.797263
0
LINE
8
BLACK
6
CONTINUOUS
10
0.245701
20
0.797263
11
0.242633
21
0.796119
0
LINE
8
BLACK
6
CONTINUOUS
10
0.242633
20
0.796119
11
0.240307
21
0.795252
0
LINE
8
BLACK
6
CONTINUOUS
10
0.240307
20
0.795252
11
0.240307
21
0.795251
0
LINE
8
BLACK
6
CONTINUOUS
10
0.240307
20
0.795251
11
0.240307
21
0.795251
0
LINE
8
BLACK
6
CONTINUOUS
10
0.240307
20
0.795251
11
0.235698
21
0.791802
0
LINE
8
BLACK
6
CONTINUOUS
10
0.235698
20
0.791802
11
0.233971
21
0.789494
0
LINE
8
BLACK
6
CONTINUOUS
10
0.233971
20
0.789494
11
0.231734
21
0.787819
0
LINE
8
BLACK
6
CONTINUOUS
10
0.231734
20
0.787819
11
0.228946
21
0.78762
0
LINE
8
BLACK
6
CONTINUOUS
10
0.228946
20
0.78762
11
0.226492
21
0.788959
0
LINE
8
BLACK
6
CONTINUOUS
10
0.226492
20
0.788959
11
0.226029
21
0.789494
0
LINE
8
BLACK
6
CONTINUOUS
10
0.226029
20
0.789494
11
0.224302
21
0.791802
0
LINE
8
BLACK
6
CONTINUOUS
10
0.224302
20
0.791802
11
0.219693
21
0.795251
0
LINE
8
BLACK
6
CONTINUOUS
10
0.219693
20
0.795251
11
0.219693
21
0.795251
0
LINE
8
BLACK
6
CONTINUOUS
10
0.219693
20
0.795251
11
0.219693
21
0.795252
0
LINE
8
BLACK
6
CONTINUOUS
10
0.219693
20
0.795252
11
0.214299
21
0.797263
0
LINE
8
BLACK
6
CONTINUOUS
10
0.214299
20
0.797263
11
0.214299
21
0.797263
0
LINE
8
BLACK
6
CONTINUOUS
10
0.214299
20
0.797263
11
0.214299
21
0.797263
0
LINE
8
BLACK
6
CONTINUOUS
10
0.214299
20
0.797263
11
0.211915
21
0.79752
0
LINE
8
BLACK
6
CONTINUOUS
10
0.211915
20
0.79752
11
0.211915
21
0.79752
0
LINE
8
BLACK
6
CONTINUOUS
10
0.211915
20
0.79752
11
0.211915
21
0.79752
0
LINE
8
BLACK
6
CONTINUOUS
10
0.211915
20
0.79752
11
0.148085
21
0.79752
0
LINE
8
BLACK
6
CONTINUOUS
10
0.148085
20
0.79752
11
0.148085
21
0.79752
0
LINE
8
BLACK
6
CONTINUOUS
10
0.148085
20
0.79752
11
0.148085
21
0.79752
0
LINE
8
BLACK
6
CONTINUOUS
10
0.148085
20
0.79752
11
0.145701
21
0.797263
0
LINE
8
BLACK
6
CONTINUOUS
10
0.145701
20
0.797263
11
0.145701
21
0.797263
0
LINE
8
BLACK
6
CONTINUOUS
10
0.145701
20
0.797263
11
0.142633
21
0.796119
0
LINE
8
BLACK
6
CONTINUOUS
10
0.142633
20
0.796119
11
0.140307
21
0.795252
0
LINE
8
BLACK
6
CONTINUOUS
10
0.140307
20
0.795252
11
0.140307
21
0.795251
0
LINE
8
BLACK
6
CONTINUOUS
10
0.140307
20
0.795251
11
0.140307
21
0.795251
0
LINE
8
BLACK
6
CONTINUOUS
10
0.140307
20
0.795251
11
0.135698
21
0.791802
0
LINE
8
BLACK
6
CONTINUOUS
10
0.135698
20
0.791802
11
0.133971
21
0.789494
0
LINE
8
BLACK
6
CONTINUOUS
10
0.133971
20
0.789494
11
0.131734
21
0.787819
0
LINE
8
BLACK
6
CONTINUOUS
10
0.131734
20
0.787819
11
0.128946
21
0.78762
0
LINE
8
BLACK
6
CONTINUOUS
10
0.128946
20
0.78762
11
0.126492
21
0.788959
0
LINE
8
BLACK
6
CONTINUOUS
10
0.126492
20
0.788959
11
0.126029
21
0.789494
0
LINE
8
BLACK
6
CONTINUOUS
10
0.126029
20
0.789494
11
0.124302
21
0.791802
0
LINE
8
BLACK
6
CONTINUOUS
10
0.124302
20
0.791802
11
0.119693
21
0.795251
0
LINE
8
BLACK
6
CONTINUOUS
10
0.119693
20
0.795251
11
0.119693
21
0.795251
0
LINE
8
BLACK
6
CONTINUOUS
10
0.119693
20
0.795251
11
0.119693
21
0.795252
0
LINE
8
BLACK
6
CONTINUOUS
10
0.119693
20
0.795252
11
0.114299
21
0.797263
0
LINE
8
BLACK
6
CONTINUOUS
10
0.114299
20
0.797263
11
0.114299
21
0.797263
0
LINE
8
BLACK
6
CONTINUOUS
10
0.114299
20
0.797263
11
0.114299
21
0.797263
0
LINE
8
BLACK
6
CONTINUOUS
10
0.114299
20
0.797263
11
0.111915
21
0.79752
0
LINE
8
BLACK
6
CONTINUOUS
10
0.111915
20
0.79752
11
0.111915
21
0.79752
0
LINE
8
BLACK
6
CONTINUOUS
10
0.111915
20
0.79752
11
0.111915
21
0.79752
0
LINE
8
BLACK
6
CONTINUOUS
10
0.111915
20
0.79752
11
0.0480851
21
0.79752
0
LINE
8
BLACK
6
CONTINUOUS
10
0.0480851
20
0.79752
11
0.0480848
21
0.79752
0
LINE
8
BLACK
6
CONTINUOUS
10
0.0480848
20
0.79752
11
0.0480846
21
0.79752
0
LINE
8
BLACK
6
CONTINUOUS
10
0.0480846
20
0.79752
11
0.0457009
21
0.797263
0
LINE
8
BLACK
6
CONTINUOUS
10
0.0457009
20
0.797263
11
0.0457006
21
0.797263
0
LINE
8
BLACK
6
CONTINUOUS
10
0.0457006
20
0.797263
11
0.0426329
21
0.796119
0
LINE
8
BLACK
6
CONTINUOUS
10
0.0426329
20
0.796119
11
0.0403069
21
0.795252
0
LINE
8
BLACK
6
CONTINUOUS
10
0.0403069
20
0.795252
11
0.0403069
21
0.795251
0
LINE
8
BLACK
6
CONTINUOUS
10
0.0403069
20
0.795251
11
0.0403068
21
0.795251
0
LINE
8
BLACK
6
CONTINUOUS
10
0.0403068
20
0.795251
11
0.0356983
21
0.791802
0
LINE
8
BLACK
6
CONTINUOUS
10
0.0356983
20
0.791802
11
0.0322485
21
0.787193
0
LINE
8
BLACK
6
CONTINUOUS
10
0.0322485
20
0.787193
11
0.0322484
21
0.787193
0
LINE
8
BLACK
6
CONTINUOUS
10
0.0322484
20
0.787193
11
0.0302367
21
0.781799
0
LINE
8
BLACK
6
CONTINUOUS
10
0.0302367
20
0.781799
11
0.0302366
21
0.781799
0
LINE
8
BLACK
6
CONTINUOUS
10
0.0302366
20
0.781799
11
0.0299803
21
0.779415
0
LINE
8
BLACK
6
CONTINUOUS
10
0.0299803
20
0.779415
11
0.0299803
21
0.715585
0
LINE
8
BLACK
6
CONTINUOUS
10
0.0299803
20
0.715585
11
0.0302366
21
0.713201
0
LINE
8
BLACK
6
CONTINUOUS
10
0.0302366
20
0.713201
11
0.0302367
21
0.713201
0
LINE
8
BLACK
6
CONTINUOUS
10
0.0302367
20
0.713201
11
0.0322484
21
0.707807
0
LINE
8
BLACK
6
CONTINUOUS
10
0.0322484
20
0.707807
11
0.0322485
21
0.707807
0
LINE
8
BLACK
6
CONTINUOUS
10
0.0322485
20
0.707807
11
0.0356984
21
0.703198
0
LINE
8
BLACK
6
CONTINUOUS
10
0.0356984
20
0.703198
11
0.0380056
21
0.701471
0
LINE
8
BLACK
6
CONTINUOUS
10
0.0380056
20
0.701471
11
0.0396807
21
0.699234
0
LINE
8
BLACK
6
CONTINUOUS
10
0.0396807
20
0.699234
11
0.03988
21
0.696446
0
LINE
8
BLACK
6
CONTINUOUS
10
0.03988
20
0.696446
11
0.0385405
21
0.693992
0
LINE
8
BLACK
6
CONTINUOUS
10
0.0385405
20
0.693992
11
0.0380056
21
0.693529
0
LINE
8
BLACK
6
CONTINUOUS
10
0.0380056
20
0.693529
11
0.0356984
21
0.691802
0
LINE
8
BLACK
6
CONTINUOUS
10
0.0356984
20
0.691802
11
0.0322485
21
0.687193
0
LINE
8
BLACK
6
CONTINUOUS
10
0.0322485
20
0.687193
11
0.0322484
21
0.687193
0
LINE
8
BLACK
6
CONTINUOUS
10
0.0322484
20
0.687193
11
0.0302367
21
0.681799
0
LINE
8
BLACK
6
CONTINUOUS
10
0.0302367
20
0.681799
11
0.0302366
21
0.681799
0
LINE
8
BLACK
6
CONTINUOUS
10
0.0302366
20
0.681799
11
0.0299803
21
0.679415
0
LINE
8
BLACK
6
CONTINUOUS
10
0.0299803
20
0.679415
11
0.0299803
21
0.615585
0
LINE
8
BLACK
6
CONTINUOUS
10
0.0299803
20
0.615585
11
0.0302366
21
0.613201
0
LINE
8
BLACK
6
CONTINUOUS
10
0.0302366
20
0.613201
11
0.0302367
21
0.613201
0
LINE
8
BLACK
6
CONTINUOUS
10
0.0302367
20
0.613201
11
0.0322484
21
0.607807
0
LINE
8
BLACK
6
CONTINUOUS
10
0.0322484
20
0.607807
11
0.0322485
21
0.607807
0
LINE
8
BLACK
6
CONTINUOUS
10
0.0322485
20
0.607807
11
0.0356984
21
0.603198
0
LINE
8
BLACK
6
CONTINUOUS
10
0.0356984
20
0.603198
11
0.0380056
21
0.601471
0
LINE
8
BLACK
6
CONTINUOUS
10
0.0380056
20
0.601471
11
0.0396807
21
0.599234
0
LINE
8
BLACK
6
CONTINUOUS
10
0.0396807
20
0.599234
11
0.03988
21
0.596446
0
LINE
8
BLACK
6
CONTINUOUS
10
0.03988
20
0.596446
11
0.0385405
21
0.593992
0
LINE
8
BLACK
6
CONTINUOUS
10
0.0385405
20
0.593992
11
0.0380056
21
0.593529
0
LINE
8
BLACK
6
CONTINUOUS
10
0.0380056
20
0.593529
11
0.0356984
21
0.591802
0
LINE
8
BLACK
6
CONTINUOUS
10
0.0356984
20
0.591802
11
0.0322485
21
0.587193
0
LINE
8
BLACK
6
CONTINUOUS
10
0.0322485
20
0.587193
11
0.0322484
21
0.587193
0
LINE
8
BLACK
6
CONTINUOUS
10
0.0322484
20
0.587193
11
0.0302367
21
0.581799
0
LINE
8
BLACK
6
CONTINUOUS
10
0.0302367
20
0.581799
11
0.0302366
21
0.581799
0
LINE
8
BLACK
6
CONTINUOUS
10
0.0302366
20
0.581799
11
0.0299803
21
0.579415
0
LINE
8
BLACK
6
CONTINUOUS
10
0.0299803
20
0.579415
11
0.0299803
21
0.515585
0
LINE
8
BLACK
6
CONTINUOUS
10
0.0299803
20
0.515585
11
0.0302366
21
0.513201
0
LINE
8
BLACK
6
CONTINUOUS
10
0.0302366
20
0.513201
11
0.0302367
21
0.513201
0
LINE
8
BLACK
6
CONTINUOUS
10
0.0302367
20
0.513201
11
0.0322484
21
0.507807
0
LINE
8
BLACK
6
CONTINUOUS
10
0.0322484
20
0.507807
11
0.0322485
21
0.507807
0
LINE
8
BLACK
6
CONTINUOUS
10
0.0322485
20
0.507807
11
0.0356983
21
0.503198
0
LINE
8
BLACK
6
CONTINUOUS
10
0.0356983
20
0.503198
11
0.0403068
21
0.499749
0
LINE
8
BLACK
6
CONTINUOUS
10
0.0403068
20
0.499749
11
0.040307
21
0.499748
0
LINE
8
BLACK
6
CONTINUOUS
10
0.040307
20
0.499748
11
0.0457006
21
0.497737
0
LINE
8
BLACK
6
CONTINUOUS
10
0.0457006
20
0.497737
11
0.0457009
21
0.497737
0
LINE
8
BLACK
6
CONTINUOUS
10
0.0457009
20
0.497737
11
0.0480846
21
0.49748
0
LINE
8
BLACK
6
CONTINUOUS
10
0.0480846
20
0.49748
11
0.0480851
21
0.49748
0
LINE
8
BLACK
6
CONTINUOUS
10
0.0480851
20
0.49748
11
0.111915
21
0.49748
0
LINE
8
BLACK
6
CONTINUOUS
10
0.111915
20
0.49748
11
0.114299
21
0.497737
0
LINE
8
BLACK
6
CONTINUOUS
10
0.114299
20
0.497737
11
0.114299
21
0.497737
0
LINE
8
BLACK
6
CONTINUOUS
10
0.114299
20
0.497737
11
0.119693
21
0.499748
0
LINE
8
BLACK
6
CONTINUOUS
10
0.119693
20
0.499748
11
0.119693
21
0.499749
0
LINE
8
BLACK
6
CONTINUOUS
10
0.119693
20
0.499749
11
0.124302
21
0.503198
0
LINE
8
BLACK
6
CONTINUOUS
10
0.124302
20
0.503198
11
0.126029
21
0.505506
0
LINE
8
BLACK
6
CONTINUOUS
10
0.126029
20
0.505506
11
0.128266
21
0.507181
0
LINE
8
BLACK
6
CONTINUOUS
10
0.128266
20
0.507181
11
0.131054
21
0.50738
0
LINE
8
BLACK
6
CONTINUOUS
10
0.131054
20
0.50738
11
0.133508
21
0.50604
0
LINE
8
BLACK
6
CONTINUOUS
10
0.133508
20
0.50604
11
0.133971
21
0.505506
0
LINE
8
BLACK
6
CONTINUOUS
10
0.133971
20
0.505506
11
0.135698
21
0.503198
0
LINE
8
BLACK
6
CONTINUOUS
10
0.135698
20
0.503198
11
0.140307
21
0.499749
0
LINE
8
BLACK
6
CONTINUOUS
10
0.140307
20
0.499749
11
0.140307
21
0.499748
0
LINE
8
BLACK
6
CONTINUOUS
10
0.140307
20
0.499748
11
0.145701
21
0.497737
0
LINE
8
BLACK
6
CONTINUOUS
10
0.145701
20
0.497737
11
0.145701
21
0.497737
0
LINE
8
BLACK
6
CONTINUOUS
10
0.145701
20
0.497737
11
0.148085
21
0.49748
0
LINE
8
BLACK
6
CONTINUOUS
10
0.148085
20
0.49748
11
0.148085
21
0.49748
0
LINE
8
BLACK
6
CONTINUOUS
10
0.148085
20
0.49748
11
0.211915
21
0.49748
0
LINE
8
BLACK
6
CONTINUOUS
10
0.211915
20
0.49748
11
0.214299
21
0.497737
0
LINE
8
BLACK
6
CONTINUOUS
10
0.214299
20
0.497737
11
0.214299
21
0.497737
0
LINE
8
BLACK
6
CONTINUOUS
10
0.214299
20
0.497737
11
0.219693
21
0.499748
0
LINE
8
BLACK
6
CONTINUOUS
10
0.219693
20
0.499748
11
0.219693
21
0.499749
0
LINE
8
BLACK
6
CONTINUOUS
10
0.219693
20
0.499749
11
0.224302
21
0.503198
0
LINE
8
BLACK
6
CONTINUOUS
10
0.224302
20
0.503198
11
0.226029
21
0.505506
0
LINE
8
BLACK
6
CONTINUOUS
10
0.226029
20
0.505506
11
0.228266
21
0.507181
0
LINE
8
BLACK
6
CONTINUOUS
10
0.228266
20
0.507181
11
0.231054
21
0.50738
0
LINE
8
BLACK
6
CONTINUOUS
10
0.231054
20
0.50738
11
0.233508
21
0.50604
0
LINE
8
BLACK
6
CONTINUOUS
10
0.233508
20
0.50604
11
0.233971
21
0.505506
0
LINE
8
BLACK
6
CONTINUOUS
10
0.233971
20
0.505506
11
0.235698
21
0.503198
0
LINE
8
BLACK
6
CONTINUOUS
10
0.235698
20
0.503198
11
0.240307
21
0.499749
0
LINE
8
BLACK
6
CONTINUOUS
10
0.240307
20
0.499749
11
0.240307
21
0.499748
0
LINE
8
BLACK
6
CONTINUOUS
10
0.240307
20
0.499748
11
0.245701
21
0.497737
0
LINE
8
BLACK
6
CONTINUOUS
10
0.245701
20
0.497737
11
0.245701
21
0.497737
0
LINE
8
BLACK
6
CONTINUOUS
10
0.245701
20
0.497737
11
0.248085
21
0.49748
0
LINE
8
BLACK
6
CONTINUOUS
10
0.248085
20
0.49748
11
0.248085
21
0.49748
0
LINE
8
BLACK
6
CONTINUOUS
10
0.248085
20
0.49748
11
0.311915
21
0.49748
0
LINE
8
BLACK
6
CONTINUOUS
10
0.311915
20
0.49748
11
0.314299
21
0.497737
0
LINE
8
BLACK
6
CONTINUOUS
10
0.314299
20
0.497737
11
0.314299
21
0.497737
0
LINE
8
BLACK
6
CONTINUOUS
10
0.314299
20
0.497737
11
0.319693
21
0.499748
0
LINE
8
BLACK
6
CONTINUOUS
10
0.319693
20
0.499748
11
0.319693
21
0.499749
0
LINE
8
BLACK
6
CONTINUOUS
10
0.319693
20
0.499749
11
0.324302
21
0.503198
0
LINE
8
BLACK
6
CONTINUOUS
10
0.324302
20
0.503198
11
0.326029
21
0.505506
0
LINE
8
BLACK
6
CONTINUOUS
10
0.326029
20
0.505506
11
0.328266
21
0.507181
0
LINE
8
BLACK
6
CONTINUOUS
10
0.328266
20
0.507181
11
0.331054
21
0.50738
0
LINE
8
BLACK
6
CONTINUOUS
10
0.331054
20
0.50738
11
0.333508
21
0.50604
0
LINE
8
BLACK
6
CONTINUOUS
10
0.333508
20
0.50604
11
0.333971
21
0.505506
0
LINE
8
BLACK
6
CONTINUOUS
10
0.333971
20
0.505506
11
0.335698
21
0.503198
0
LINE
8
BLACK
6
CONTINUOUS
10
0.335698
20
0.503198
11
0.340307
21
0.499749
0
LINE
8
BLACK
6
CONTINUOUS
10
0.340307
20
0.499749
11
0.340307
21
0.499748
0
LINE
8
BLACK
6
CONTINUOUS
10
0.340307
20
0.499748
11
0.345701
21
0.497737
0
LINE
8
BLACK
6
CONTINUOUS
10
0.345701
20
0.497737
11
0.345701
21
0.497737
0
LINE
8
BLACK
6
CONTINUOUS
10
0.345701
20
0.497737
11
0.348085
21
0.49748
0
LINE
8
BLACK
6
CONTINUOUS
10
0.348085
20
0.49748
11
0.348085
21
0.49748
0
LINE
8
BLACK
6
CONTINUOUS
10
0.348085
20
0.49748
11
0.411915
21
0.49748
0
LINE
8
BLACK
6
CONTINUOUS
10
0.411915
20
0.49748
11
0.414299
21
0.497737
0
LINE
8
BLACK
6
CONTINUOUS
10
0.414299
20
0.497737
11
0.414299
21
0.497737
0
LINE
8
BLACK
6
CONTINUOUS
10
0.414299
20
0.497737
11
0.419693
21
0.499748
0
LINE
8
BLACK
6
CONTINUOUS
10
0.419693
20
0.499748
11
0.419693
21
0.499749
0
LINE
8
BLACK
6
CONTINUOUS
10
0.419693
20
0.499749
11
0.424302
21
0.503198
0
LINE
8
BLACK
6
CONTINUOUS
10
0.424302
20
0.503198
11
0.426029
21
0.505506
0
LINE
8
BLACK
6
CONTINUOUS
10
0.426029
20
0.505506
11
0.428266
21
0.507181
0
LINE
8
BLACK
6
CONTINUOUS
10
0.428266
20
0.507181
11
0.431054
21
0.50738
0
LINE
8
BLACK
6
CONTINUOUS
10
0.431054
20
0.50738
11
0.433508
21
0.50604
0
LINE
8
BLACK
6
CONTINUOUS
10
0.433508
20
0.50604
11
0.433971
21
0.505506
0
LINE
8
BLACK
6
CONTINUOUS
10
0.433971
20
0.505506
11
0.435698
21
0.503198
0
LINE
8
BLACK
6
CONTINUOUS
10
0.435698
20
0.503198
11
0.440307
21
0.499749
0
LINE
8
BLACK
6
CONTINUOUS
10
0.440307
20
0.499749
11
0.440307
21
0.499748
0
LINE
8
BLACK
6
CONTINUOUS
10
0.440307
20
0.499748
11
0.445701
21
0.497737
0
LINE
8
BLACK
6
CONTINUOUS
10
0.445701
20
0.497737
11
0.445701
21
0.497737
0
LINE
8
BLACK
6
CONTINUOUS
10
0.445701
20
0.497737
11
0.448085
21
0.49748
0
LINE
8
BLACK
6
CONTINUOUS
10
0.448085
20
0.49748
11
0.448085
21
0.49748
0
LINE
8
BLACK
6
CONTINUOUS
10
0.448085
20
0.49748
11
0.511915
21
0.49748
0
LINE
8
BLACK
6
CONTINUOUS
10
0.511915
20
0.49748
11
0.514299
21
0.497737
0
LINE
8
BLACK
6
CONTINUOUS
10
0.514299
20
0.497737
11
0.514299
21
0.497737
0
LINE
8
BLACK
6
CONTINUOUS
10
0.514299
20
0.497737
11
0.519693
21
0.499748
0
LINE
8
BLACK
6
CONTINUOUS
10
0.519693
20
0.499748
11
0.519693
21
0.499749
0
LINE
8
BLACK
6
CONTINUOUS
10
0.519693
20
0.499749
11
0.524302
21
0.503198
0
LINE
8
BLACK
6
CONTINUOUS
10
0.524302
20
0.503198
11
0.526029
21
0.505506
0
LINE
8
BLACK
6
CONTINUOUS
10
0.526029
20
0.505506
11
0.528266
21
0.507181
0
LINE
8
BLACK
6
CONTINUOUS
10
0.528266
20
0.507181
11
0.531054
21
0.50738
0
LINE
8
BLACK
6
CONTINUOUS
10
0.531054
20
0.50738
11
0.533508
21
0.50604
0
LINE
8
BLACK
6
CONTINUOUS
10
0.533508
20
0.50604
11
0.533971
21
0.505506
0
LINE
8
BLACK
6
CONTINUOUS
10
0.533971
20
0.505506
11
0.535698
21
0.503198
0
LINE
8
BLACK
6
CONTINUOUS
10
0.535698
20
0.503198
11
0.540307
21
0.499749
0
LINE
8
BLACK
6
CONTINUOUS
10
0.540307
20
0.499749
11
0.540307
21
0.499748
0
LINE
8
BLACK
6
CONTINUOUS
10
0.540307
20
0.499748
11
0.545701
21
0.497737
0
LINE
8
BLACK
6
CONTINUOUS
10
0.545701
20
0.497737
11
0.545701
21
0.497737
0
LINE
8
BLACK
6
CONTINUOUS
10
0.545701
20
0.497737
11
0.548085
21
0.49748
0
LINE
8
BLACK
6
CONTINUOUS
10
0.548085
20
0.49748
11
0.548085
21
0.49748
0
LINE
8
BLACK
6
CONTINUOUS
10
0.548085
20
0.49748
11
0.611915
21
0.49748
0
LINE
8
BLACK
6
CONTINUOUS
10
0.611915
20
0.49748
11
0.614299
21
0.497737
0
LINE
8
BLACK
6
CONTINUOUS
10
0.614299
20
0.497737
11
0.614299
21
0.497737
0
LINE
8
BLACK
6
CONTINUOUS
10
0.614299
20
0.497737
11
0.619693
21
0.499748
0
LINE
8
BLACK
6
CONTINUOUS
10
0.619693
20
0.499748
11
0.619693
21
0.499749
0
LINE
8
BLACK
6
CONTINUOUS
10
0.619693
20
0.499749
11
0.624302
21
0.503198
0
LINE
8
BLACK
6
CONTINUOUS
10
0.624302
20
0.503198
11
0.627751
21
0.507807
0
LINE
8
BLACK
6
CONTINUOUS
10
0.627751
20
0.507807
11
0.627751
21
0.507807
0
LINE
8
BLACK
6
CONTINUOUS
10
0.627751
20
0.507807
11
0.627752
21
0.507807
0
LINE
8
BLACK
6
CONTINUOUS
10
0.627752
20
0.507807
11
0.628675
21
0.510282
0
LINE
8
BLACK
6
CONTINUOUS
10
0.628675
20
0.510282
11
0.62948
21
0.512442
0
LINE
8
BLACK
6
CONTINUOUS
10
0.62948
20
0.512442
11
0.631156
21
0.51468
0
LINE
8
BLACK
6
CONTINUOUS
10
0.631156
20
0.51468
11
0.633774
21
0.515657
0
LINE
8
BLACK
6
CONTINUOUS
10
0.633774
20
0.515657
11
0.634128
21
0.515669
0
LINE
8
BLACK
6
CONTINUOUS
10
0.634128
20
0.515669
11
0.637209
21
0.515669
0
LINE
8
BLACK
6
CONTINUOUS
10
0.637209
20
0.515669
11
0.638826
21
0.516039
0
LINE
8
BLACK
6
CONTINUOUS
10
0.638826
20
0.516039
11
0.639101
21
0.516085
0
LINE
8
BLACK
6
CONTINUOUS
10
0.639101
20
0.516085
11
0.64075
21
0.516271
0
LINE
8
BLACK
6
CONTINUOUS
10
0.64075
20
0.516271
11
0.64075
21
0.516271
0
LINE
8
BLACK
6
CONTINUOUS
10
0.64075
20
0.516271
11
0.642316
21
0.516819
0
LINE
8
BLACK
6
CONTINUOUS
10
0.642316
20
0.516819
11
0.642583
21
0.516896
0
LINE
8
BLACK
6
CONTINUOUS
10
0.642583
20
0.516896
11
0.644201
21
0.517265
0
LINE
8
BLACK
6
CONTINUOUS
10
0.644201
20
0.517265
11
0.644202
21
0.517265
0
LINE
8
BLACK
6
CONTINUOUS
10
0.644202
20
0.517265
11
0.645697
21
0.517985
0
LINE
8
BLACK
6
CONTINUOUS
10
0.645697
20
0.517985
11
0.645954
21
0.518092
0
LINE
8
BLACK
6
CONTINUOUS
10
0.645954
20
0.518092
11
0.64752
21
0.51864
0
LINE
8
BLACK
6
CONTINUOUS
10
0.64752
20
0.51864
11
0.648925
21
0.519523
0
LINE
8
BLACK
6
CONTINUOUS
10
0.648925
20
0.519523
11
0.649169
21
0.519657
0
LINE
8
BLACK
6
CONTINUOUS
10
0.649169
20
0.519657
11
0.650664
21
0.520378
0
LINE
8
BLACK
6
CONTINUOUS
10
0.650664
20
0.520378
11
0.650664
21
0.520378
0
LINE
8
BLACK
6
CONTINUOUS
10
0.650664
20
0.520378
11
0.651962
21
0.521412
0
LINE
8
BLACK
6
CONTINUOUS
10
0.651962
20
0.521412
11
0.652189
21
0.521573
0
LINE
8
BLACK
6
CONTINUOUS
10
0.652189
20
0.521573
11
0.653594
21
0.522456
0
LINE
8
BLACK
6
CONTINUOUS
10
0.653594
20
0.522456
11
0.658666
21
0.527528
0
LINE
8
BLACK
6
CONTINUOUS
10
0.658666
20
0.527528
11
0.778559
21
0.647422
0
LINE
8
BLACK
6
CONTINUOUS
10
0.778559
20
0.647422
11
0.781012
21
0.648761
0
LINE
8
BLACK
6
CONTINUOUS
10
0.781012
20
0.648761
11
0.783801
21
0.648562
0
LINE
8
BLACK
6
CONTINUOUS
10
0.783801
20
0.648562
11
0.786038
21
0.646887
0
LINE
8
BLACK
6
CONTINUOUS
10
0.786038
20
0.646887
11
0.787015
21
0.644268
0
LINE
8
BLACK
6
CONTINUOUS
10
0.787015
20
0.644268
11
0.787028
21
0.643914
0
LINE
8
BLACK
6
CONTINUOUS
10
0.787028
20
0.643914
11
0.787028
21
0.0179331
0
LINE
8
BLACK
6
CONTINUOUS
10
0.787028
20
0.0179331
11
0.78624
21
0.0152511
0
LINE
8
BLACK
6
CONTINUOUS
10
0.78624
20
0.0152511
11
0.784128
21
0.0134207
0
LINE
8
BLACK
6
CONTINUOUS
10
0.784128
20
0.0134207
11
0.782067
21
0.0129724
0
LINE
8
BLACK
6
CONTINUOUS
10
0.782067
20
0.0129724
11
0.0179331
21
0.0129724
0
LINE
8
BLACK
6
CONTINUOUS
10
0.0179331
20
0.0129724
11
0.0152511
21
0.0137599
0
LINE
8
BLACK
6
CONTINUOUS
10
0.0152511
20
0.0137599
11
0.0134207
21
0.0158724
0
LINE
8
BLACK
6
CONTINUOUS
10
0.0134207
20
0.0158724
11
0.0129724
21
0.0179331
0
LINE
8
BLACK
6
CONTINUOUS
10
0.0129724
20
0.0179331
11
0.0129724
21
1.58207
0
LINE
8
BLACK
6
CONTINUOUS
10
0.0129724
20
1.58207
11
0.0137599
21
1.58475
0
LINE
8
BLACK
6
CONTINUOUS
10
0.0137599
20
1.58475
11
0.0158724
21
1.58658
0
LINE
8
BLACK
6
CONTINUOUS
10
0.0158724
20
1.58658
11
0.0179331
21
1.58703
0
LINE
8
BLACK
6
CONTINUOUS
10
0.0179331
20
1.58703
11
0.782067
21
1.58703
0
LINE
8
BLACK
6
CONTINUOUS
10
0.782067
20
1.58703
11
0.784749
21
1.58624
0
LINE
8
BLACK
6
CONTINUOUS
10
0.11
20
0.5175
11
0.05
21
0.5175
0
LINE
8
BLACK
6
CONTINUOUS
10
0.05
20
0.5175
11
0.05
21
0.5775
0
LINE
8
BLACK
6
CONTINUOUS
10
0.05
20
0.5775
11
0.11
21
0.5775
0
LINE
8
BLACK
6
CONTINUOUS
10
0.11
20
0.5775
11
0.11
21
0.5175
0
LINE
8
BLACK
6
CONTINUOUS
10
0.21
20
0.5175
11
0.15
21
0.5175
0
LINE
8
BLACK
6
CONTINUOUS
10
0.15
20
0.5175
11
0.15
21
0.5775
0
LINE
8
BLACK
6
CONTINUOUS
10
0.15
20
0.5775
11
0.21
21
0.5775
0
LINE
8
BLACK
6
CONTINUOUS
10
0.21
20
0.5775
11
0.21
21
0.5175
0
LINE
8
BLACK
6
CONTINUOUS
10
0.31
20
0.5175
11
0.25
21
0.5175
0
LINE
8
BLACK
6
CONTINUOUS
10
0.25
20
0.5175
11
0.25
21
0.5775
0
LINE
8
BLACK
6
CONTINUOUS
10
0.25
20
0.5775
11
0.31
21
0.5775
0
LINE
8
BLACK
6
CONTINUOUS
10
0.31
20
0.5775
11
0.31
21
0.5175
0
LINE
8
BLACK
6
CONTINUOUS
10
0.41
20
0.5175
11
0.35
21
0.5175
0
LINE
8
BLACK
6
CONTINUOUS
10
0.35
20
0.5175
11
0.35
21
0.5775
0
LINE
8
BLACK
6
CONTINUOUS
10
0.35
20
0.5775
11
0.41
21
0.5775
0
LINE
8
BLACK
6
CONTINUOUS
10
0.41
20
0.5775
11
0.41
21
0.5175
0
LINE
8
BLACK
6
CONTINUOUS
10
0.51
20
0.5175
11
0.45
21
0.5175
0
LINE
8
BLACK
6
CONTINUOUS
10
0.45
20
0.5175
11
0.45
21
0.5775
0
LINE
8
BLACK
6
CONTINUOUS
10
0.45
20
0.5775
11
0.51
21
0.5775
0
LINE
8
BLACK
6
CONTINUOUS
10
0.51
20
0.5775
11
0.51
21
0.5175
0
LINE
8
BLACK
6
CONTINUOUS
10
0.7375
20
1.11931
11
0.761122
21
1.11931
0
LINE
8
BLACK
6
CONTINUOUS
10
0.761122
20
1.11931
11
0.761504
21
1.11928
0
LINE
8
BLACK
6
CONTINUOUS
10
0.761504
20
1.11928
11
0.761668
21
1.1193
0
LINE
8
BLACK
6
CONTINUOUS
10
0.761668
20
1.1193
11
0.761934
21
1.11924
0
LINE
8
BLACK
6
CONTINUOUS
10
0.761934
20
1.11924
11
0.763292
21
1.11911
0
LINE
8
BLACK
6
CONTINUOUS
10
0.763292
20
1.11911
11
0.764565
21
1.11862
0
LINE
8
BLACK
6
CONTINUOUS
10
0.764565
20
1.11862
11
0.765893
21
1.1183
0
LINE
8
BLACK
6
CONTINUOUS
10
0.765893
20
1.1183
11
0.766572
21
1.11784
0
LINE
8
BLACK
6
CONTINUOUS
10
0.766572
20
1.11784
11
0.76734
21
1.11754
0
LINE
8
BLACK
6
CONTINUOUS
10
0.76734
20
1.11754
11
0.768348
21
1.11662
0
LINE
8
BLACK
6
CONTINUOUS
10
0.768348
20
1.11662
11
0.769474
21
1.11585
0
LINE
8
BLACK
6
CONTINUOUS
10
0.769474
20
1.11585
11
0.775852
21
1.10947
0
LINE
8
BLACK
6
CONTINUOUS
10
0.775852
20
1.10947
11
0.776097
21
1.10918
0
LINE
8
BLACK
6
CONTINUOUS
10
0.776097
20
1.10918
11
0.776228
21
1.10908
0
LINE
8
BLACK
6
CONTINUOUS
10
0.776228
20
1.10908
11
0.776372
21
1.10885
0
LINE
8
BLACK
6
CONTINUOUS
10
0.776372
20
1.10885
11
0.777244
21
1.1078
0
LINE
8
BLACK
6
CONTINUOUS
10
0.777244
20
1.1078
11
0.777795
21
1.10655
0
LINE
8
BLACK
6
CONTINUOUS
10
0.777795
20
1.10655
11
0.778513
21
1.10539
0
LINE
8
BLACK
6
CONTINUOUS
10
0.778513
20
1.10539
11
0.778665
21
1.10458
0
LINE
8
BLACK
6
CONTINUOUS
10
0.778665
20
1.10458
11
0.778997
21
1.10383
0
LINE
8
BLACK
6
CONTINUOUS
10
0.778997
20
1.10383
11
0.77906
21
1.10246
0
LINE
8
BLACK
6
CONTINUOUS
10
0.77906
20
1.10246
11
0.779311
21
1.10112
0
LINE
8
BLACK
6
CONTINUOUS
10
0.779311
20
1.10112
11
0.779311
21
0.681378
0
LINE
8
BLACK
6
CONTINUOUS
10
0.779311
20
0.681378
11
0.779276
21
0.680996
0
LINE
8
BLACK
6
CONTINUOUS
10
0.779276
20
0.680996
11
0.779298
21
0.680832
0
LINE
8
BLACK
6
CONTINUOUS
10
0.779298
20
0.680832
11
0.779236
21
0.680566
0
LINE
8
BLACK
6
CONTINUOUS
10
0.779236
20
0.680566
11
0.77911
21
0.679208
0
LINE
8
BLACK
6
CONTINUOUS
10
0.77911
20
0.679208
11
0.778617
21
0.677935
0
LINE
8
BLACK
6
CONTINUOUS
10
0.778617
20
0.677935
11
0.778305
21
0.676607
0
LINE
8
BLACK
6
CONTINUOUS
10
0.778305
20
0.676607
11
0.777839
21
0.675928
0
LINE
8
BLACK
6
CONTINUOUS
10
0.777839
20
0.675928
11
0.777542
21
0.67516
0
LINE
8
BLACK
6
CONTINUOUS
10
0.777542
20
0.67516
11
0.776623
21
0.674152
0
LINE
8
BLACK
6
CONTINUOUS
10
0.776623
20
0.674152
11
0.775852
21
0.673026
0
LINE
8
BLACK
6
CONTINUOUS
10
0.775852
20
0.673026
11
0.641974
21
0.539148
0
LINE
8
BLACK
6
CONTINUOUS
10
0.641974
20
0.539148
11
0.641679
21
0.538903
0
LINE
8
BLACK
6
CONTINUOUS
10
0.641679
20
0.538903
11
0.641579
21
0.538772
0
LINE
8
BLACK
6
CONTINUOUS
10
0.641579
20
0.538772
11
0.641346
21
0.538627
0
LINE
8
BLACK
6
CONTINUOUS
10
0.641346
20
0.538627
11
0.640297
21
0.537756
0
LINE
8
BLACK
6
CONTINUOUS
10
0.640297
20
0.537756
11
0.639049
21
0.537205
0
LINE
8
BLACK
6
CONTINUOUS
10
0.639049
20
0.537205
11
0.637889
21
0.536487
0
LINE
8
BLACK
6
CONTINUOUS
10
0.637889
20
0.536487
11
0.637079
21
0.536335
0
LINE
8
BLACK
6
CONTINUOUS
10
0.637079
20
0.536335
11
0.636326
21
0.536003
0
LINE
8
BLACK
6
CONTINUOUS
10
0.636326
20
0.536003
11
0.634963
21
0.53594
0
LINE
8
BLACK
6
CONTINUOUS
10
0.634963
20
0.53594
11
0.633622
21
0.535689
0
LINE
8
BLACK
6
CONTINUOUS
10
0.633622
20
0.535689
11
0.61
21
0.535689
0
LINE
8
BLACK
6
CONTINUOUS
10
0.61
20
0.535689
11
0.61
21
0.5175
0
LINE
8
BLACK
6
CONTINUOUS
10
0.61
20
0.5175
11
0.55
21
0.5175
0
LINE
8
BLACK
6
CONTINUOUS
10
0.55
20
0.5175
11
0.55
21
0.5775
0
LINE
8
BLACK
6
CONTINUOUS
10
0.55
20
0.5775
11
0.61
21
0.5775
0
LINE
8
BLACK
6
CONTINUOUS
10
0.61
20
0.5775
11
0.61
21
0.559311
0
LINE
8
BLACK
6
CONTINUOUS
10
0.61
20
0.559311
11
0.62873
21
0.559311
0
LINE
8
BLACK
6
CONTINUOUS
10
0.62873
20
0.559311
11
0.755689
21
0.68627
0
LINE
8
BLACK
6
CONTINUOUS
10
0.755689
20
0.68627
11
0.755689
21
1.09569
0
LINE
8
BLACK
6
CONTINUOUS
10
0.755689
20
1.09569
11
0.7375
21
1.09569
0
LINE
8
BLACK
6
CONTINUOUS
10
0.7375
20
1.09569
11
0.7375
21
1.0775
0
LINE
8
BLACK
6
CONTINUOUS
10
0.7375
20
1.0775
11
0.6775
21
1.0775
0
LINE
8
BLACK
6
CONTINUOUS
10
0.6775
20
1.0775
11
0.6775
21
1.1375
0
LINE
8
BLACK
6
CONTINUOUS
10
0.6775
20
1.1375
11
0.7375
21
1.1375
0
LINE
8
BLACK
6
CONTINUOUS
10
0.7375
20
1.1375
11
0.7375
21
1.11931
0
LINE
8
BLACK
6
CONTINUOUS
10
0.11
20
0.6175
11
0.05
21
0.6175
0
LINE
8
BLACK
6
CONTINUOUS
10
0.05
20
0.6175
11
0.05
21
0.6775
0
LINE
8
BLACK
6
CONTINUOUS
10
0.05
20
0.6775
11
0.11
21
0.6775
0
LINE
8
BLACK
6
CONTINUOUS
10
0.11
20
0.6775
11
0.11
21
0.6175
0
LINE
8
BLACK
6
CONTINUOUS
10
0.21
20
0.6175
11
0.15
21
0.6175
0
LINE
8
BLACK
6
CONTINUOUS
10
0.15
20
0.6175
11
0.15
21
0.6775
0
LINE
8
BLACK
6
CONTINUOUS
10
0.15
20
0.6775
11
0.21
21
0.6775
0
LINE
8
BLACK
6
CONTINUOUS
10
0.21
20
0.6775
11
0.21
21
0.6175
0
LINE
8
BLACK
6
CONTINUOUS
10
0.31
20
0.6175
11
0.25
21
0.6175
0
LINE
8
BLACK
6
CONTINUOUS
10
0.25
20
0.6175
11
0.25
21
0.6775
0
LINE
8
BLACK
6
CONTINUOUS
10
0.25
20
0.6775
11
0.31
21
0.6775
0
LINE
8
BLACK
6
CONTINUOUS
10
0.31
20
0.6775
11
0.31
21
0.6175
0
LINE
8
BLACK
6
CONTINUOUS
10
0.41
20
0.6175
11
0.35
21
0.6175
0
LINE
8
BLACK
6
CONTINUOUS
10
0.35
20
0.6175
11
0.35
21
0.6775
0
LINE
8
BLACK
6
CONTINUOUS
10
0.35
20
0.6775
11
0.41
21
0.6775
0
LINE
8
BLACK
6
CONTINUOUS
10
0.41
20
0.6775
11
0.41
21
0.6175
0
LINE
8
BLACK
6
CONTINUOUS
10
0.51
20
0.6175
11
0.45
21
0.6175
0
LINE
8
BLACK
6
CONTINUOUS
10
0.45
20
0.6175
11
0.45
21
0.6775
0
LINE
8
BLACK
6
CONTINUOUS
10
0.45
20
0.6775
11
0.51
21
0.6775
0
LINE
8
BLACK
6
CONTINUOUS
10
0.51
20
0.6775
11
0.51
21
0.6175
0
LINE
8
BLACK
6
CONTINUOUS
10
0.61
20
0.6175
11
0.55
21
0.6175
0
LINE
8
BLACK
6
CONTINUOUS
10
0.55
20
0.6175
11
0.55
21
0.6775
0
LINE
8
BLACK
6
CONTINUOUS
10
0.55
20
0.6775
11
0.61
21
0.6775
0
LINE
8
BLACK
6
CONTINUOUS
10
0.61
20
0.6775
11
0.61
21
0.6175
0
LINE
8
BLACK
6
CONTINUOUS
10
0.2425
20
1.0375
11
0.224311
21
1.0375
0
LINE
8
BLACK
6
CONTINUOUS
10
0.224311
20
1.0375
11
0.224311
21
1.01877
0
LINE
8
BLACK
6
CONTINUOUS
10
0.224311
20
1.01877
11
0.29877
21
0.944311
0
LINE
8
BLACK
6
CONTINUOUS
10
0.29877
20
0.944311
11
0.442314
21
0.944311
0
LINE
8
BLACK
6
CONTINUOUS
10
0.442314
20
0.944311
11
0.443244
21
0.94524
0
LINE
8
BLACK
6
CONTINUOUS
10
0.443244
20
0.94524
11
0.447634
21
0.947477
0
LINE
8
BLACK
6
CONTINUOUS
10
0.447634
20
0.947477
11
0.4525
21
0.948248
0
LINE
8
BLACK
6
CONTINUOUS
10
0.4525
20
0.948248
11
0.457366
21
0.947477
0
LINE
8
BLACK
6
CONTINUOUS
10
0.457366
20
0.947477
11
0.461756
21
0.94524
0
LINE
8
BLACK
6
CONTINUOUS
10
0.461756
20
0.94524
11
0.462686
21
0.944311
0
LINE
8
BLACK
6
CONTINUOUS
10
0.462686
20
0.944311
11
0.590433
21
0.944311
0
LINE
8
BLACK
6
CONTINUOUS
10
0.590433
20
0.944311
11
0.6425
21
0.944311
0
LINE
8
BLACK
6
CONTINUOUS
10
0.6425
20
0.944311
11
0.642882
21
0.944276
0
LINE
8
BLACK
6
CONTINUOUS
10
0.642882
20
0.944276
11
0.643045
21
0.944298
0
LINE
8
BLACK
6
CONTINUOUS
10
0.643045
20
0.944298
11
0.643312
21
0.944236
0
LINE
8
BLACK
6
CONTINUOUS
10
0.643312
20
0.944236
11
0.64467
21
0.94411
0
LINE
8
BLACK
6
CONTINUOUS
10
0.64467
20
0.94411
11
0.645943
21
0.943617
0
LINE
8
BLACK
6
CONTINUOUS
10
0.645943
20
0.943617
11
0.647271
21
0.943305
0
LINE
8
BLACK
6
CONTINUOUS
10
0.647271
20
0.943305
11
0.64795
21
0.942839
0
LINE
8
BLACK
6
CONTINUOUS
10
0.64795
20
0.942839
11
0.648718
21
0.942542
0
LINE
8
BLACK
6
CONTINUOUS
10
0.648718
20
0.942542
11
0.649726
21
0.941623
0
LINE
8
BLACK
6
CONTINUOUS
10
0.649726
20
0.941623
11
0.650852
21
0.940852
0
LINE
8
BLACK
6
CONTINUOUS
10
0.650852
20
0.940852
11
0.673352
21
0.918352
0
LINE
8
BLACK
6
CONTINUOUS
10
0.673352
20
0.918352
11
0.673597
21
0.918057
0
LINE
8
BLACK
6
CONTINUOUS
10
0.673597
20
0.918057
11
0.673728
21
0.917957
0
LINE
8
BLACK
6
CONTINUOUS
10
0.673728
20
0.917957
11
0.673872
21
0.917724
0
LINE
8
BLACK
6
CONTINUOUS
10
0.673872
20
0.917724
11
0.674744
21
0.916675
0
LINE
8
BLACK
6
CONTINUOUS
10
0.674744
20
0.916675
11
0.675295
21
0.915427
0
LINE
8
BLACK
6
CONTINUOUS
10
0.675295
20
0.915427
11
0.676013
21
0.914267
0
LINE
8
BLACK
6
CONTINUOUS
10
0.676013
20
0.914267
11
0.676165
21
0.913457
0
LINE
8
BLACK
6
CONTINUOUS
10
0.676165
20
0.913457
11
0.676497
21
0.912704
0
LINE
8
BLACK
6
CONTINUOUS
10
0.676497
20
0.912704
11
0.67656
21
0.911341
0
LINE
8
BLACK
6
CONTINUOUS
10
0.67656
20
0.911341
11
0.676811
21
0.91
0
LINE
8
BLACK
6
CONTINUOUS
10
0.676811
20
0.91
11
0.676811
21
0.712686
0
LINE
8
BLACK
6
CONTINUOUS
10
0.676811
20
0.712686
11
0.68024
21
0.709256
0
LINE
8
BLACK
6
CONTINUOUS
10
0.68024
20
0.709256
11
0.682477
21
0.704866
0
LINE
8
BLACK
6
CONTINUOUS
10
0.682477
20
0.704866
11
0.683248
21
0.7
0
LINE
8
BLACK
6
CONTINUOUS
10
0.683248
20
0.7
11
0.682477
21
0.695134
0
LINE
8
BLACK
6
CONTINUOUS
10
0.682477
20
0.695134
11
0.68024
21
0.690744
0
LINE
8
BLACK
6
CONTINUOUS
10
0.68024
20
0.690744
11
0.676756
21
0.68726
0
LINE
8
BLACK
6
CONTINUOUS
10
0.676756
20
0.68726
11
0.672366
21
0.685023
0
LINE
8
BLACK
6
CONTINUOUS
10
0.672366
20
0.685023
11
0.6675
21
0.684252
0
LINE
8
BLACK
6
CONTINUOUS
10
0.6675
20
0.684252
11
0.662634
21
0.685023
0
LINE
8
BLACK
6
CONTINUOUS
10
0.662634
20
0.685023
11
0.658244
21
0.68726
0
LINE
8
BLACK
6
CONTINUOUS
10
0.658244
20
0.68726
11
0.65476
21
0.690744
0
LINE
8
BLACK
6
CONTINUOUS
10
0.65476
20
0.690744
11
0.652523
21
0.695134
0
LINE
8
BLACK
6
CONTINUOUS
10
0.652523
20
0.695134
11
0.651752
21
0.7
0
LINE
8
BLACK
6
CONTINUOUS
10
0.651752
20
0.7
11
0.652523
21
0.704866
0
LINE
8
BLACK
6
CONTINUOUS
10
0.652523
20
0.704866
11
0.653189
21
0.706174
0
LINE
8
BLACK
6
CONTINUOUS
10
0.653189
20
0.706174
11
0.653189
21
0.905108
0
LINE
8
BLACK
6
CONTINUOUS
10
0.653189
20
0.905108
11
0.637608
21
0.920689
0
LINE
8
BLACK
6
CONTINUOUS
10
0.637608
20
0.920689
11
0.590433
21
0.920689
0
LINE
8
BLACK
6
CONTINUOUS
10
0.590433
20
0.920689
11
0.462686
21
0.920689
0
LINE
8
BLACK
6
CONTINUOUS
10
0.462686
20
0.920689
11
0.461756
21
0.91976
0
LINE
8
BLACK
6
CONTINUOUS
10
0.461756
20
0.91976
11
0.457366
21
0.917523
0
LINE
8
BLACK
6
CONTINUOUS
10
0.457366
20
0.917523
11
0.4525
21
0.916752
0
LINE
8
BLACK
6
CONTINUOUS
10
0.4525
20
0.916752
11
0.447634
21
0.917523
0
LINE
8
BLACK
6
CONTINUOUS
10
0.447634
20
0.917523
11
0.443244
21
0.91976
0
LINE
8
BLACK
6
CONTINUOUS
10
0.443244
20
0.91976
11
0.442314
21
0.920689
0
LINE
8
BLACK
6
CONTINUOUS
10
0.442314
20
0.920689
11
0.293878
21
0.920689
0
LINE
8
BLACK
6
CONTINUOUS
10
0.293878
20
0.920689
11
0.293496
21
0.920724
0
LINE
8
BLACK
6
CONTINUOUS
10
0.293496
20
0.920724
11
0.293332
21
0.920702
0
LINE
8
BLACK
6
CONTINUOUS
10
0.293332
20
0.920702
11
0.293066
21
0.920764
0
LINE
8
BLACK
6
CONTINUOUS
10
0.293066
20
0.920764
11
0.291708
21
0.92089
0
LINE
8
BLACK
6
CONTINUOUS
10
0.291708
20
0.92089
11
0.290435
21
0.921383
0
LINE
8
BLACK
6
CONTINUOUS
10
0.290435
20
0.921383
11
0.289107
21
0.921695
0
LINE
8
BLACK
6
CONTINUOUS
10
0.289107
20
0.921695
11
0.288428
21
0.922161
0
LINE
8
BLACK
6
CONTINUOUS
10
0.288428
20
0.922161
11
0.28766
21
0.922458
0
LINE
8
BLACK
6
CONTINUOUS
10
0.28766
20
0.922458
11
0.286652
21
0.923377
0
LINE
8
BLACK
6
CONTINUOUS
10
0.286652
20
0.923377
11
0.285526
21
0.924148
0
LINE
8
BLACK
6
CONTINUOUS
10
0.285526
20
0.924148
11
0.204148
21
1.00553
0
LINE
8
BLACK
6
CONTINUOUS
10
0.204148
20
1.00553
11
0.203903
21
1.00582
0
LINE
8
BLACK
6
CONTINUOUS
10
0.203903
20
1.00582
11
0.203772
21
1.00592
0
LINE
8
BLACK
6
CONTINUOUS
10
0.203772
20
1.00592
11
0.203627
21
1.00615
0
LINE
8
BLACK
6
CONTINUOUS
10
0.203627
20
1.00615
11
0.202756
21
1.0072
0
LINE
8
BLACK
6
CONTINUOUS
10
0.202756
20
1.0072
11
0.202205
21
1.00845
0
LINE
8
BLACK
6
CONTINUOUS
10
0.202205
20
1.00845
11
0.201487
21
1.00961
0
LINE
8
BLACK
6
CONTINUOUS
10
0.201487
20
1.00961
11
0.201335
21
1.01042
0
LINE
8
BLACK
6
CONTINUOUS
10
0.201335
20
1.01042
11
0.201003
21
1.01117
0
LINE
8
BLACK
6
CONTINUOUS
10
0.201003
20
1.01117
11
0.20094
21
1.01254
0
LINE
8
BLACK
6
CONTINUOUS
10
0.20094
20
1.01254
11
0.200689
21
1.01388
0
LINE
8
BLACK
6
CONTINUOUS
10
0.200689
20
1.01388
11
0.200689
21
1.0375
0
LINE
8
BLACK
6
CONTINUOUS
10
0.200689
20
1.0375
11
0.1825
21
1.0375
0
LINE
8
BLACK
6
CONTINUOUS
10
0.1825
20
1.0375
11
0.1825
21
1.0975
0
LINE
8
BLACK
6
CONTINUOUS
10
0.1825
20
1.0975
11
0.2425
21
1.0975
0
LINE
8
BLACK
6
CONTINUOUS
10
0.2425
20
1.0975
11
0.2425
21
1.0375
0
LINE
8
BLACK
6
CONTINUOUS
10
0.11
20
0.7175
11
0.05
21
0.7175
0
LINE
8
BLACK
6
CONTINUOUS
10
0.05
20
0.7175
11
0.05
21
0.7775
0
LINE
8
BLACK
6
CONTINUOUS
10
0.05
20
0.7775
11
0.11
21
0.7775
0
LINE
8
BLACK
6
CONTINUOUS
10
0.11
20
0.7775
11
0.11
21
0.7175
0
LINE
8
BLACK
6
CONTINUOUS
10
0.21
20
0.7175
11
0.15
21
0.7175
0
LINE
8
BLACK
6
CONTINUOUS
10
0.15
20
0.7175
11
0.15
21
0.7775
0
LINE
8
BLACK
6
CONTINUOUS
10
0.15
20
0.7775
11
0.21
21
0.7775
0
LINE
8
BLACK
6
CONTINUOUS
10
0.21
20
0.7775
11
0.21
21
0.7175
0
LINE
8
BLACK
6
CONTINUOUS
10
0.31
20
0.7175
11
0.25
21
0.7175
0
LINE
8
BLACK
6
CONTINUOUS
10
0.25
20
0.7175
11
0.25
21
0.7775
0
LINE
8
BLACK
6
CONTINUOUS
10
0.25
20
0.7775
11
0.31
21
0.7775
0
LINE
8
BLACK
6
CONTINUOUS
10
0.31
20
0.7775
11
0.31
21
0.7175
0
LINE
8
BLACK
6
CONTINUOUS
10
0.41
20
0.7175
11
0.35
21
0.7175
0
LINE
8
BLACK
6
CONTINUOUS
10
0.35
20
0.7175
11
0.35
21
0.7775
0
LINE
8
BLACK
6
CONTINUOUS
10
0.35
20
0.7775
11
0.41
21
0.7775
0
LINE
8
BLACK
6
CONTINUOUS
10
0.41
20
0.7775
11
0.41
21
0.7175
0
LINE
8
BLACK
6
CONTINUOUS
10
0.51
20
0.7175
11
0.45
21
0.7175
0
LINE
8
BLACK
6
CONTINUOUS
10
0.45
20
0.7175
11
0.45
21
0.7775
0
LINE
8
BLACK
6
CONTINUOUS
10
0.45
20
0.7775
11
0.51
21
0.7775
0
LINE
8
BLACK
6
CONTINUOUS
10
0.51
20
0.7775
11
0.51
21
0.7175
0
LINE
8
BLACK
6
CONTINUOUS
10
0.61
20
0.7175
11
0.55
21
0.7175
0
LINE
8
BLACK
6
CONTINUOUS
10
0.55
20
0.7175
11
0.55
21
0.7775
0
LINE
8
BLACK
6
CONTINUOUS
10
0.55
20
0.7775
11
0.61
21
0.7775
0
LINE
8
BLACK
6
CONTINUOUS
10
0.61
20
0.7775
11
0.61
21
0.7175
0
LINE
8
BLACK
6
CONTINUOUS
10
0.7375
20
0.9775
11
0.721811
21
0.9775
0
LINE
8
BLACK
6
CONTINUOUS
10
0.721811
20
0.9775
11
0.721811
21
0.812686
0
LINE
8
BLACK
6
CONTINUOUS
10
0.721811
20
0.812686
11
0.72274
21
0.811756
0
LINE
8
BLACK
6
CONTINUOUS
10
0.72274
20
0.811756
11
0.724977
21
0.807366
0
LINE
8
BLACK
6
CONTINUOUS
10
0.724977
20
0.807366
11
0.725748
21
0.8025
0
LINE
8
BLACK
6
CONTINUOUS
10
0.725748
20
0.8025
11
0.724977
21
0.797634
0
LINE
8
BLACK
6
CONTINUOUS
10
0.724977
20
0.797634
11
0.72274
21
0.793244
0
LINE
8
BLACK
6
CONTINUOUS
10
0.72274
20
0.793244
11
0.719256
21
0.78976
0
LINE
8
BLACK
6
CONTINUOUS
10
0.719256
20
0.78976
11
0.714866
21
0.787523
0
LINE
8
BLACK
6
CONTINUOUS
10
0.714866
20
0.787523
11
0.71
21
0.786752
0
LINE
8
BLACK
6
CONTINUOUS
10
0.71
20
0.786752
11
0.705134
21
0.787523
0
LINE
8
BLACK
6
CONTINUOUS
10
0.705134
20
0.787523
11
0.700744
21
0.78976
0
LINE
8
BLACK
6
CONTINUOUS
10
0.700744
20
0.78976
11
0.69726
21
0.793244
0
LINE
8
BLACK
6
CONTINUOUS
10
0.69726
20
0.793244
11
0.695023
21
0.797634
0
LINE
8
BLACK
6
CONTINUOUS
10
0.695023
20
0.797634
11
0.694252
21
0.8025
0
LINE
8
BLACK
6
CONTINUOUS
10
0.694252
20
0.8025
11
0.695023
21
0.807366
0
LINE
8
BLACK
6
CONTINUOUS
10
0.695023
20
0.807366
11
0.69726
21
0.811756
0
LINE
8
BLACK
6
CONTINUOUS
10
0.69726
20
0.811756
11
0.698189
21
0.812686
0
LINE
8
BLACK
6
CONTINUOUS
10
0.698189
20
0.812686
11
0.698189
21
0.9775
0
LINE
8
BLACK
6
CONTINUOUS
10
0.698189
20
0.9775
11
0.6775
21
0.9775
0
LINE
8
BLACK
6
CONTINUOUS
10
0.6775
20
0.9775
11
0.6775
21
1.0375
0
LINE
8
BLACK
6
CONTINUOUS
10
0.6775
20
1.0375
11
0.7375
21
1.0375
0
LINE
8
BLACK
6
CONTINUOUS
10
0.7375
20
1.0375
11
0.7375
21
0.9775
0
LINE
8
BLACK
6
CONTINUOUS
10
0.6375
20
0.9775
11
0.5775
21
0.9775
0
LINE
8
BLACK
6
CONTINUOUS
10
0.5775
20
0.9775
11
0.5775
21
1.0375
0
LINE
8
BLACK
6
CONTINUOUS
10
0.5775
20
1.0375
11
0.6375
21
1.0375
0
LINE
8
BLACK
6
CONTINUOUS
10
0.6375
20
1.0375
11
0.6375
21
0.9775
0
LINE
8
BLACK
6
CONTINUOUS
10
0.6375
20
1.0775
11
0.5775
21
1.0775
0
LINE
8
BLACK
6
CONTINUOUS
10
0.5775
20
1.0775
11
0.5775
21
1.1375
0
LINE
8
BLACK
6
CONTINUOUS
10
0.5775
20
1.1375
11
0.6375
21
1.1375
0
LINE
8
BLACK
6
CONTINUOUS
10
0.6375
20
1.1375
11
0.6375
21
1.0775
0
LINE
8
BLACK
6
CONTINUOUS
10
0.2425
20
1.1375
11
0.1825
21
1.1375
0
LINE
8
BLACK
6
CONTINUOUS
10
0.1825
20
1.1375
11
0.1825
21
1.1975
0
LINE
8
BLACK
6
CONTINUOUS
10
0.1825
20
1.1975
11
0.2425
21
1.1975
0
LINE
8
BLACK
6
CONTINUOUS
10
0.2425
20
1.1975
11
0.2425
21
1.1375
0
CIRCLE
8
BLACK
10
0.1125
20
1.0675
40
0.00688976
0
CIRCLE
8
BLACK
10
0.1125
20
1.1675
40
0.00688976
0
CIRCLE
8
BLACK
10
0.2125
20
1.0675
40
0.00688976
0
CIRCLE
8
BLACK
10
0.2125
20
1.1675
40
0.00688976
0
CIRCLE
8
BLACK
10
0.3125
20
1.0675
40
0.00688976
0
CIRCLE
8
BLACK
10
0.3125
20
1.1675
40
0.00688976
0
CIRCLE
8
BLACK
10
0.48
20
0.8475
40
0.00688976
0
CIRCLE
8
BLACK
10
0.58
20
0.8475
40
0.00688976
0
CIRCLE
8
BLACK
10
0.48
20
0.7475
40
0.00688976
0
CIRCLE
8
BLACK
10
0.58
20
0.7475
40
0.00688976
0
CIRCLE
8
BLACK
10
0.48
20
0.6475
40
0.00688976
0
CIRCLE
8
BLACK
10
0.58
20
0.6475
40
0.00688976
0
CIRCLE
8
BLACK
10
0.48
20
0.5475
40
0.00688976
0
CIRCLE
8
BLACK
10
0.58
20
0.5475
40
0.00688976
0
CIRCLE
8
BLACK
10
0.48
20
0.4475
40
0.00688976
0
CIRCLE
8
BLACK
10
0.58
20
0.4475
40
0.00688976
0
CIRCLE
8
BLACK
10
0.28
20
0.8475
40
0.00688976
0
CIRCLE
8
BLACK
10
0.38
20
0.8475
40
0.00688976
0
CIRCLE
8
BLACK
10
0.28
20
0.7475
40
0.00688976
0
CIRCLE
8
BLACK
10
0.38
20
0.7475
40
0.00688976
0
CIRCLE
8
BLACK
10
0.28
20
0.6475
40
0.00688976
0
CIRCLE
8
BLACK
10
0.38
20
0.6475
40
0.00688976
0
CIRCLE
8
BLACK
10
0.28
20
0.5475
40
0.00688976
0
CIRCLE
8
BLACK
10
0.38
20
0.5475
40
0.00688976
0
CIRCLE
8
BLACK
10
0.28
20
0.4475
40
0.00688976
0
CIRCLE
8
BLACK
10
0.38
20
0.4475
40
0.00688976
0
CIRCLE
8
BLACK
10
0.08
20
0.8475
40
0.00688976
0
CIRCLE
8
BLACK
10
0.18
20
0.8475
40
0.00688976
0
CIRCLE
8
BLACK
10
0.08
20
0.7475
40
0.00688976
0
CIRCLE
8
BLACK
10
0.18
20
0.7475
40
0.00688976
0
CIRCLE
8
BLACK
10
0.08
20
0.6475
40
0.00688976
0
CIRCLE
8
BLACK
10
0.18
20
0.6475
40
0.00688976
0
CIRCLE
8
BLACK
10
0.08
20
0.5475
40
0.00688976
0
CIRCLE
8
BLACK
10
0.18
20
0.5475
40
0.00688976
0
CIRCLE
8
BLACK
10
0.08
20
0.4475
40
0.00688976
0
CIRCLE
8
BLACK
10
0.18
20
0.4475
40
0.00688976
0
CIRCLE
8
BLACK
10
0.6075
20
1.1075
40
0.00688976
0
CIRCLE
8
BLACK
10
0.7075
20
1.1075
40
0.00688976
0
CIRCLE
8
BLACK
10
0.6075
20
1.0075
40
0.00688976
0
CIRCLE
8
BLACK
10
0.7075
20
1.0075
40
0.00688976
0
CIRCLE
8
BLACK
10
0.2
20
1.4
40
0.00688976
0
CIRCLE
8
BLACK
10
0.6
20
1.4
40
0.00688976
0
CIRCLE
8
BLACK
10
0.6
20
0.2
40
0.00688976
0
CIRCLE
8
BLACK
10
0.2
20
0.2
40
0.00688976
0
CIRCLE
8
BLACK
10
0.6675
20
0.7
40
0.00787402
0
CIRCLE
8
BLACK
10
0.4525
20
0.9325
40
0.00787402
0
CIRCLE
8
BLACK
10
0.4525
20
0.9325
40
0.00787402
0
CIRCLE
8
BLACK
10
0.71
20
0.8025
40
0.00787402
  0
ENDSEC
  0
EOF
