  0
SECTION
  2
HEADER
  9
$ANGBASE
  50
0.0
  9
$ANGDIR
  70
1
  9
$MEASUREMENT
  70
0
  0
ENDSEC
  0
SECTION
  2
TABLES
  0
TABLE
  2
LTYPE
  70
4
  0
LTYPE
  5
40F
  2
CONTINUOUS
  70
0
  3
Solid line
  72
65
  73
0
  40
0.0
  0
LTYPE
  5
410
  2
DASHDOT
 70
0
  3
Dash Dot ____ _ ____ _
 72
65
 73
4
 40
2.0
 49
1.25
 49
-0.25
 49
0.25
 49
-0.25
  0
LTYPE
  5
411
  2
DASHED
 70
0
  3
Dashed __ __ __ __ __
 72
65
 73
2
 40
0.75
 49
0.5
 49
-0.25
  0
LTYPE
  5
43B
  2
DOTTED
 70
0
  3
Dotted .  .  .  .
 72
65
 73
2
 40
0.2
 49
0.0
 49
-0.2
  0
ENDTAB
  0
TABLE
  2
STYLE
  70
4
  0
STYLE
  2
KICAD
  70
0
  40
0
  41
1
  42
1
  50
0
  71
0
  3
isocp.shx
  0
STYLE
  2
KICADB
  70
0
  40
0
  41
1
  42
1
  50
0
  71
0
  3
isocp.shx
  0
STYLE
  2
KICADI
  70
0
  40
0
  41
1
  42
1
  50
15
  71
0
  3
isocp.shx
  0
STYLE
  2
KICADBI
  70
0
  40
0
  41
1
  42
1
  50
15
  71
0
  3
isocp.shx
  0
ENDTAB
  0
TABLE
  2
LAYER
  70
1
  0
LAYER
  2
BLACK
  70
0
  62
7
  6
CONTINUOUS
  0
ENDTAB
  0
ENDSEC
  0
SECTION
  2
ENTITIES
0
LINE
8
BLACK
6
CONTINUOUS
10
0.213665
20
0.32128
11
0.227158
21
0.318987
0
LINE
8
BLACK
6
CONTINUOUS
10
0.227158
20
0.318987
11
0.24031
21
0.315198
0
LINE
8
BLACK
6
CONTINUOUS
10
0.24031
20
0.315198
11
0.252954
21
0.309961
0
LINE
8
BLACK
6
CONTINUOUS
10
0.252954
20
0.309961
11
0.264933
21
0.30334
0
LINE
8
BLACK
6
CONTINUOUS
10
0.264933
20
0.30334
11
0.276095
21
0.29542
0
LINE
8
BLACK
6
CONTINUOUS
10
0.276095
20
0.29542
11
0.2863
21
0.2863
0
LINE
8
BLACK
6
CONTINUOUS
10
0.2863
20
0.2863
11
0.29542
21
0.276095
0
LINE
8
BLACK
6
CONTINUOUS
10
0.29542
20
0.276095
11
0.30334
21
0.264933
0
LINE
8
BLACK
6
CONTINUOUS
10
0.30334
20
0.264933
11
0.309961
21
0.252954
0
LINE
8
BLACK
6
CONTINUOUS
10
0.309961
20
0.252954
11
0.315198
21
0.24031
0
LINE
8
BLACK
6
CONTINUOUS
10
0.315198
20
0.24031
11
0.318987
21
0.227158
0
LINE
8
BLACK
6
CONTINUOUS
10
0.318987
20
0.227158
11
0.32128
21
0.213665
0
LINE
8
BLACK
6
CONTINUOUS
10
0.32128
20
0.213665
11
0.322047
21
0.2
0
LINE
8
BLACK
6
CONTINUOUS
10
0.322047
20
0.2
11
0.32128
21
0.186335
0
LINE
8
BLACK
6
CONTINUOUS
10
0.32128
20
0.186335
11
0.318987
21
0.172842
0
LINE
8
BLACK
6
CONTINUOUS
10
0.318987
20
0.172842
11
0.315198
21
0.15969
0
LINE
8
BLACK
6
CONTINUOUS
10
0.315198
20
0.15969
11
0.309961
21
0.147046
0
LINE
8
BLACK
6
CONTINUOUS
10
0.309961
20
0.147046
11
0.30334
21
0.135067
0
LINE
8
BLACK
6
CONTINUOUS
10
0.30334
20
0.135067
11
0.29542
21
0.123905
0
LINE
8
BLACK
6
CONTINUOUS
10
0.29542
20
0.123905
11
0.2863
21
0.1137
0
LINE
8
BLACK
6
CONTINUOUS
10
0.2863
20
0.1137
11
0.276095
21
0.10458
0
LINE
8
BLACK
6
CONTINUOUS
10
0.276095
20
0.10458
11
0.264933
21
0.0966596
0
LINE
8
BLACK
6
CONTINUOUS
10
0.264933
20
0.0966596
11
0.252954
21
0.0900393
0
LINE
8
BLACK
6
CONTINUOUS
10
0.252954
20
0.0900393
11
0.24031
21
0.0848017
0
LINE
8
BLACK
6
CONTINUOUS
10
0.24031
20
0.0848017
11
0.227158
21
0.0810127
0
LINE
8
BLACK
6
CONTINUOUS
10
0.227158
20
0.0810127
11
0.213665
21
0.0787202
0
LINE
8
BLACK
6
CONTINUOUS
10
0.213665
20
0.0787202
11
0.2
21
0.0779528
0
LINE
8
BLACK
6
CONTINUOUS
10
0.2
20
0.0779528
11
0.186335
21
0.0787202
0
LINE
8
BLACK
6
CONTINUOUS
10
0.186335
20
0.0787202
11
0.172842
21
0.0810127
0
LINE
8
BLACK
6
CONTINUOUS
10
0.172842
20
0.0810127
11
0.15969
21
0.0848017
0
LINE
8
BLACK
6
CONTINUOUS
10
0.15969
20
0.0848017
11
0.147046
21
0.0900393
0
LINE
8
BLACK
6
CONTINUOUS
10
0.147046
20
0.0900393
11
0.135067
21
0.0966596
0
LINE
8
BLACK
6
CONTINUOUS
10
0.135067
20
0.0966596
11
0.123905
21
0.10458
0
LINE
8
BLACK
6
CONTINUOUS
10
0.123905
20
0.10458
11
0.1137
21
0.1137
0
LINE
8
BLACK
6
CONTINUOUS
10
0.1137
20
0.1137
11
0.10458
21
0.123905
0
LINE
8
BLACK
6
CONTINUOUS
10
0.10458
20
0.123905
11
0.0966596
21
0.135067
0
LINE
8
BLACK
6
CONTINUOUS
10
0.0966596
20
0.135067
11
0.0900393
21
0.147046
0
LINE
8
BLACK
6
CONTINUOUS
10
0.0900393
20
0.147046
11
0.0848017
21
0.15969
0
LINE
8
BLACK
6
CONTINUOUS
10
0.0848017
20
0.15969
11
0.0810127
21
0.172842
0
LINE
8
BLACK
6
CONTINUOUS
10
0.0810127
20
0.172842
11
0.0787202
21
0.186335
0
LINE
8
BLACK
6
CONTINUOUS
10
0.0787202
20
0.186335
11
0.0779528
21
0.2
0
LINE
8
BLACK
6
CONTINUOUS
10
0.0779528
20
0.2
11
0.0787202
21
0.213665
0
LINE
8
BLACK
6
CONTINUOUS
10
0.0787202
20
0.213665
11
0.0810127
21
0.227158
0
LINE
8
BLACK
6
CONTINUOUS
10
0.0810127
20
0.227158
11
0.0848017
21
0.24031
0
LINE
8
BLACK
6
CONTINUOUS
10
0.0848017
20
0.24031
11
0.0900393
21
0.252954
0
LINE
8
BLACK
6
CONTINUOUS
10
0.0900393
20
0.252954
11
0.0966596
21
0.264933
0
LINE
8
BLACK
6
CONTINUOUS
10
0.0966596
20
0.264933
11
0.10458
21
0.276095
0
LINE
8
BLACK
6
CONTINUOUS
10
0.10458
20
0.276095
11
0.1137
21
0.2863
0
LINE
8
BLACK
6
CONTINUOUS
10
0.1137
20
0.2863
11
0.123905
21
0.29542
0
LINE
8
BLACK
6
CONTINUOUS
10
0.123905
20
0.29542
11
0.135067
21
0.30334
0
LINE
8
BLACK
6
CONTINUOUS
10
0.135067
20
0.30334
11
0.147046
21
0.309961
0
LINE
8
BLACK
6
CONTINUOUS
10
0.147046
20
0.309961
11
0.15969
21
0.315198
0
LINE
8
BLACK
6
CONTINUOUS
10
0.15969
20
0.315198
11
0.172842
21
0.318987
0
LINE
8
BLACK
6
CONTINUOUS
10
0.172842
20
0.318987
11
0.186335
21
0.32128
0
LINE
8
BLACK
6
CONTINUOUS
10
0.186335
20
0.32128
11
0.2
21
0.322047
0
LINE
8
BLACK
6
CONTINUOUS
10
0.2
20
0.322047
11
0.213665
21
0.32128
0
LINE
8
BLACK
6
CONTINUOUS
10
0.613665
20
0.32128
11
0.627158
21
0.318987
0
LINE
8
BLACK
6
CONTINUOUS
10
0.627158
20
0.318987
11
0.64031
21
0.315198
0
LINE
8
BLACK
6
CONTINUOUS
10
0.64031
20
0.315198
11
0.652954
21
0.309961
0
LINE
8
BLACK
6
CONTINUOUS
10
0.652954
20
0.309961
11
0.664933
21
0.30334
0
LINE
8
BLACK
6
CONTINUOUS
10
0.664933
20
0.30334
11
0.676095
21
0.29542
0
LINE
8
BLACK
6
CONTINUOUS
10
0.676095
20
0.29542
11
0.6863
21
0.2863
0
LINE
8
BLACK
6
CONTINUOUS
10
0.6863
20
0.2863
11
0.69542
21
0.276095
0
LINE
8
BLACK
6
CONTINUOUS
10
0.69542
20
0.276095
11
0.70334
21
0.264933
0
LINE
8
BLACK
6
CONTINUOUS
10
0.70334
20
0.264933
11
0.709961
21
0.252954
0
LINE
8
BLACK
6
CONTINUOUS
10
0.709961
20
0.252954
11
0.715198
21
0.24031
0
LINE
8
BLACK
6
CONTINUOUS
10
0.715198
20
0.24031
11
0.718987
21
0.227158
0
LINE
8
BLACK
6
CONTINUOUS
10
0.718987
20
0.227158
11
0.72128
21
0.213665
0
LINE
8
BLACK
6
CONTINUOUS
10
0.72128
20
0.213665
11
0.722047
21
0.2
0
LINE
8
BLACK
6
CONTINUOUS
10
0.722047
20
0.2
11
0.72128
21
0.186335
0
LINE
8
BLACK
6
CONTINUOUS
10
0.72128
20
0.186335
11
0.718987
21
0.172842
0
LINE
8
BLACK
6
CONTINUOUS
10
0.718987
20
0.172842
11
0.715198
21
0.15969
0
LINE
8
BLACK
6
CONTINUOUS
10
0.715198
20
0.15969
11
0.709961
21
0.147046
0
LINE
8
BLACK
6
CONTINUOUS
10
0.709961
20
0.147046
11
0.70334
21
0.135067
0
LINE
8
BLACK
6
CONTINUOUS
10
0.70334
20
0.135067
11
0.69542
21
0.123905
0
LINE
8
BLACK
6
CONTINUOUS
10
0.69542
20
0.123905
11
0.6863
21
0.1137
0
LINE
8
BLACK
6
CONTINUOUS
10
0.6863
20
0.1137
11
0.676095
21
0.10458
0
LINE
8
BLACK
6
CONTINUOUS
10
0.676095
20
0.10458
11
0.664933
21
0.0966596
0
LINE
8
BLACK
6
CONTINUOUS
10
0.664933
20
0.0966596
11
0.652954
21
0.0900393
0
LINE
8
BLACK
6
CONTINUOUS
10
0.652954
20
0.0900393
11
0.64031
21
0.0848017
0
LINE
8
BLACK
6
CONTINUOUS
10
0.64031
20
0.0848017
11
0.627158
21
0.0810127
0
LINE
8
BLACK
6
CONTINUOUS
10
0.627158
20
0.0810127
11
0.613665
21
0.0787202
0
LINE
8
BLACK
6
CONTINUOUS
10
0.613665
20
0.0787202
11
0.6
21
0.0779528
0
LINE
8
BLACK
6
CONTINUOUS
10
0.6
20
0.0779528
11
0.586335
21
0.0787202
0
LINE
8
BLACK
6
CONTINUOUS
10
0.586335
20
0.0787202
11
0.572842
21
0.0810127
0
LINE
8
BLACK
6
CONTINUOUS
10
0.572842
20
0.0810127
11
0.55969
21
0.0848017
0
LINE
8
BLACK
6
CONTINUOUS
10
0.55969
20
0.0848017
11
0.547046
21
0.0900393
0
LINE
8
BLACK
6
CONTINUOUS
10
0.547046
20
0.0900393
11
0.535067
21
0.0966596
0
LINE
8
BLACK
6
CONTINUOUS
10
0.535067
20
0.0966596
11
0.523905
21
0.10458
0
LINE
8
BLACK
6
CONTINUOUS
10
0.523905
20
0.10458
11
0.5137
21
0.1137
0
LINE
8
BLACK
6
CONTINUOUS
10
0.5137
20
0.1137
11
0.50458
21
0.123905
0
LINE
8
BLACK
6
CONTINUOUS
10
0.50458
20
0.123905
11
0.49666
21
0.135067
0
LINE
8
BLACK
6
CONTINUOUS
10
0.49666
20
0.135067
11
0.490039
21
0.147046
0
LINE
8
BLACK
6
CONTINUOUS
10
0.490039
20
0.147046
11
0.484802
21
0.15969
0
LINE
8
BLACK
6
CONTINUOUS
10
0.484802
20
0.15969
11
0.481013
21
0.172842
0
LINE
8
BLACK
6
CONTINUOUS
10
0.481013
20
0.172842
11
0.47872
21
0.186335
0
LINE
8
BLACK
6
CONTINUOUS
10
0.47872
20
0.186335
11
0.477953
21
0.2
0
LINE
8
BLACK
6
CONTINUOUS
10
0.477953
20
0.2
11
0.47872
21
0.213665
0
LINE
8
BLACK
6
CONTINUOUS
10
0.47872
20
0.213665
11
0.481013
21
0.227158
0
LINE
8
BLACK
6
CONTINUOUS
10
0.481013
20
0.227158
11
0.484802
21
0.24031
0
LINE
8
BLACK
6
CONTINUOUS
10
0.484802
20
0.24031
11
0.490039
21
0.252954
0
LINE
8
BLACK
6
CONTINUOUS
10
0.490039
20
0.252954
11
0.49666
21
0.264933
0
LINE
8
BLACK
6
CONTINUOUS
10
0.49666
20
0.264933
11
0.50458
21
0.276095
0
LINE
8
BLACK
6
CONTINUOUS
10
0.50458
20
0.276095
11
0.5137
21
0.2863
0
LINE
8
BLACK
6
CONTINUOUS
10
0.5137
20
0.2863
11
0.523905
21
0.29542
0
LINE
8
BLACK
6
CONTINUOUS
10
0.523905
20
0.29542
11
0.535067
21
0.30334
0
LINE
8
BLACK
6
CONTINUOUS
10
0.535067
20
0.30334
11
0.547046
21
0.309961
0
LINE
8
BLACK
6
CONTINUOUS
10
0.547046
20
0.309961
11
0.55969
21
0.315198
0
LINE
8
BLACK
6
CONTINUOUS
10
0.55969
20
0.315198
11
0.572842
21
0.318987
0
LINE
8
BLACK
6
CONTINUOUS
10
0.572842
20
0.318987
11
0.586335
21
0.32128
0
LINE
8
BLACK
6
CONTINUOUS
10
0.586335
20
0.32128
11
0.6
21
0.322047
0
LINE
8
BLACK
6
CONTINUOUS
10
0.6
20
0.322047
11
0.613665
21
0.32128
0
LINE
8
BLACK
6
CONTINUOUS
10
0.111507
20
0.481137
11
0.112784
21
0.480284
0
LINE
8
BLACK
6
CONTINUOUS
10
0.112784
20
0.480284
11
0.113637
21
0.479007
0
LINE
8
BLACK
6
CONTINUOUS
10
0.113637
20
0.479007
11
0.113937
21
0.4775
0
LINE
8
BLACK
6
CONTINUOUS
10
0.113937
20
0.4775
11
0.113937
21
0.4175
0
LINE
8
BLACK
6
CONTINUOUS
10
0.113937
20
0.4175
11
0.113637
21
0.415993
0
LINE
8
BLACK
6
CONTINUOUS
10
0.113637
20
0.415993
11
0.112784
21
0.414716
0
LINE
8
BLACK
6
CONTINUOUS
10
0.112784
20
0.414716
11
0.111507
21
0.413863
0
LINE
8
BLACK
6
CONTINUOUS
10
0.111507
20
0.413863
11
0.11
21
0.413563
0
LINE
8
BLACK
6
CONTINUOUS
10
0.11
20
0.413563
11
0.109806
21
0.413563
0
LINE
8
BLACK
6
CONTINUOUS
10
0.109806
20
0.413563
11
0.0501938
21
0.413563
0
LINE
8
BLACK
6
CONTINUOUS
10
0.0501938
20
0.413563
11
0.05
21
0.413563
0
LINE
8
BLACK
6
CONTINUOUS
10
0.05
20
0.413563
11
0.0484934
21
0.413863
0
LINE
8
BLACK
6
CONTINUOUS
10
0.0484934
20
0.413863
11
0.0472161
21
0.414716
0
LINE
8
BLACK
6
CONTINUOUS
10
0.0472161
20
0.414716
11
0.0463627
21
0.415993
0
LINE
8
BLACK
6
CONTINUOUS
10
0.0463627
20
0.415993
11
0.046063
21
0.4175
0
LINE
8
BLACK
6
CONTINUOUS
10
0.046063
20
0.4175
11
0.046063
21
0.4775
0
LINE
8
BLACK
6
CONTINUOUS
10
0.046063
20
0.4775
11
0.0463627
21
0.479007
0
LINE
8
BLACK
6
CONTINUOUS
10
0.0463627
20
0.479007
11
0.0472161
21
0.480284
0
LINE
8
BLACK
6
CONTINUOUS
10
0.0472161
20
0.480284
11
0.0484934
21
0.481137
0
LINE
8
BLACK
6
CONTINUOUS
10
0.0484934
20
0.481137
11
0.05
21
0.481437
0
LINE
8
BLACK
6
CONTINUOUS
10
0.05
20
0.481437
11
0.11
21
0.481437
0
LINE
8
BLACK
6
CONTINUOUS
10
0.11
20
0.481437
11
0.111507
21
0.481137
0
LINE
8
BLACK
6
CONTINUOUS
10
0.211507
20
0.481137
11
0.212784
21
0.480284
0
LINE
8
BLACK
6
CONTINUOUS
10
0.212784
20
0.480284
11
0.213637
21
0.479007
0
LINE
8
BLACK
6
CONTINUOUS
10
0.213637
20
0.479007
11
0.213937
21
0.4775
0
LINE
8
BLACK
6
CONTINUOUS
10
0.213937
20
0.4775
11
0.213937
21
0.4175
0
LINE
8
BLACK
6
CONTINUOUS
10
0.213937
20
0.4175
11
0.213637
21
0.415993
0
LINE
8
BLACK
6
CONTINUOUS
10
0.213637
20
0.415993
11
0.212784
21
0.414716
0
LINE
8
BLACK
6
CONTINUOUS
10
0.212784
20
0.414716
11
0.211507
21
0.413863
0
LINE
8
BLACK
6
CONTINUOUS
10
0.211507
20
0.413863
11
0.21
21
0.413563
0
LINE
8
BLACK
6
CONTINUOUS
10
0.21
20
0.413563
11
0.209806
21
0.413563
0
LINE
8
BLACK
6
CONTINUOUS
10
0.209806
20
0.413563
11
0.150194
21
0.413563
0
LINE
8
BLACK
6
CONTINUOUS
10
0.150194
20
0.413563
11
0.15
21
0.413563
0
LINE
8
BLACK
6
CONTINUOUS
10
0.15
20
0.413563
11
0.148493
21
0.413863
0
LINE
8
BLACK
6
CONTINUOUS
10
0.148493
20
0.413863
11
0.147216
21
0.414716
0
LINE
8
BLACK
6
CONTINUOUS
10
0.147216
20
0.414716
11
0.146363
21
0.415993
0
LINE
8
BLACK
6
CONTINUOUS
10
0.146363
20
0.415993
11
0.146063
21
0.4175
0
LINE
8
BLACK
6
CONTINUOUS
10
0.146063
20
0.4175
11
0.146063
21
0.4775
0
LINE
8
BLACK
6
CONTINUOUS
10
0.146063
20
0.4775
11
0.146363
21
0.479007
0
LINE
8
BLACK
6
CONTINUOUS
10
0.146363
20
0.479007
11
0.147216
21
0.480284
0
LINE
8
BLACK
6
CONTINUOUS
10
0.147216
20
0.480284
11
0.148493
21
0.481137
0
LINE
8
BLACK
6
CONTINUOUS
10
0.148493
20
0.481137
11
0.15
21
0.481437
0
LINE
8
BLACK
6
CONTINUOUS
10
0.15
20
0.481437
11
0.21
21
0.481437
0
LINE
8
BLACK
6
CONTINUOUS
10
0.21
20
0.481437
11
0.211507
21
0.481137
0
LINE
8
BLACK
6
CONTINUOUS
10
0.311507
20
0.481137
11
0.312784
21
0.480284
0
LINE
8
BLACK
6
CONTINUOUS
10
0.312784
20
0.480284
11
0.313637
21
0.479007
0
LINE
8
BLACK
6
CONTINUOUS
10
0.313637
20
0.479007
11
0.313937
21
0.4775
0
LINE
8
BLACK
6
CONTINUOUS
10
0.313937
20
0.4775
11
0.313937
21
0.4175
0
LINE
8
BLACK
6
CONTINUOUS
10
0.313937
20
0.4175
11
0.313637
21
0.415993
0
LINE
8
BLACK
6
CONTINUOUS
10
0.313637
20
0.415993
11
0.312784
21
0.414716
0
LINE
8
BLACK
6
CONTINUOUS
10
0.312784
20
0.414716
11
0.311507
21
0.413863
0
LINE
8
BLACK
6
CONTINUOUS
10
0.311507
20
0.413863
11
0.31
21
0.413563
0
LINE
8
BLACK
6
CONTINUOUS
10
0.31
20
0.413563
11
0.309806
21
0.413563
0
LINE
8
BLACK
6
CONTINUOUS
10
0.309806
20
0.413563
11
0.250194
21
0.413563
0
LINE
8
BLACK
6
CONTINUOUS
10
0.250194
20
0.413563
11
0.25
21
0.413563
0
LINE
8
BLACK
6
CONTINUOUS
10
0.25
20
0.413563
11
0.248493
21
0.413863
0
LINE
8
BLACK
6
CONTINUOUS
10
0.248493
20
0.413863
11
0.247216
21
0.414716
0
LINE
8
BLACK
6
CONTINUOUS
10
0.247216
20
0.414716
11
0.246363
21
0.415993
0
LINE
8
BLACK
6
CONTINUOUS
10
0.246363
20
0.415993
11
0.246063
21
0.4175
0
LINE
8
BLACK
6
CONTINUOUS
10
0.246063
20
0.4175
11
0.246063
21
0.4775
0
LINE
8
BLACK
6
CONTINUOUS
10
0.246063
20
0.4775
11
0.246363
21
0.479007
0
LINE
8
BLACK
6
CONTINUOUS
10
0.246363
20
0.479007
11
0.247216
21
0.480284
0
LINE
8
BLACK
6
CONTINUOUS
10
0.247216
20
0.480284
11
0.248493
21
0.481137
0
LINE
8
BLACK
6
CONTINUOUS
10
0.248493
20
0.481137
11
0.25
21
0.481437
0
LINE
8
BLACK
6
CONTINUOUS
10
0.25
20
0.481437
11
0.31
21
0.481437
0
LINE
8
BLACK
6
CONTINUOUS
10
0.31
20
0.481437
11
0.311507
21
0.481137
0
LINE
8
BLACK
6
CONTINUOUS
10
0.411507
20
0.481137
11
0.412784
21
0.480284
0
LINE
8
BLACK
6
CONTINUOUS
10
0.412784
20
0.480284
11
0.413637
21
0.479007
0
LINE
8
BLACK
6
CONTINUOUS
10
0.413637
20
0.479007
11
0.413937
21
0.4775
0
LINE
8
BLACK
6
CONTINUOUS
10
0.413937
20
0.4775
11
0.413937
21
0.4175
0
LINE
8
BLACK
6
CONTINUOUS
10
0.413937
20
0.4175
11
0.413637
21
0.415993
0
LINE
8
BLACK
6
CONTINUOUS
10
0.413637
20
0.415993
11
0.412784
21
0.414716
0
LINE
8
BLACK
6
CONTINUOUS
10
0.412784
20
0.414716
11
0.411507
21
0.413863
0
LINE
8
BLACK
6
CONTINUOUS
10
0.411507
20
0.413863
11
0.41
21
0.413563
0
LINE
8
BLACK
6
CONTINUOUS
10
0.41
20
0.413563
11
0.409806
21
0.413563
0
LINE
8
BLACK
6
CONTINUOUS
10
0.409806
20
0.413563
11
0.350194
21
0.413563
0
LINE
8
BLACK
6
CONTINUOUS
10
0.350194
20
0.413563
11
0.35
21
0.413563
0
LINE
8
BLACK
6
CONTINUOUS
10
0.35
20
0.413563
11
0.348493
21
0.413863
0
LINE
8
BLACK
6
CONTINUOUS
10
0.348493
20
0.413863
11
0.347216
21
0.414716
0
LINE
8
BLACK
6
CONTINUOUS
10
0.347216
20
0.414716
11
0.346363
21
0.415993
0
LINE
8
BLACK
6
CONTINUOUS
10
0.346363
20
0.415993
11
0.346063
21
0.4175
0
LINE
8
BLACK
6
CONTINUOUS
10
0.346063
20
0.4175
11
0.346063
21
0.4775
0
LINE
8
BLACK
6
CONTINUOUS
10
0.346063
20
0.4775
11
0.346363
21
0.479007
0
LINE
8
BLACK
6
CONTINUOUS
10
0.346363
20
0.479007
11
0.347216
21
0.480284
0
LINE
8
BLACK
6
CONTINUOUS
10
0.347216
20
0.480284
11
0.348493
21
0.481137
0
LINE
8
BLACK
6
CONTINUOUS
10
0.348493
20
0.481137
11
0.35
21
0.481437
0
LINE
8
BLACK
6
CONTINUOUS
10
0.35
20
0.481437
11
0.41
21
0.481437
0
LINE
8
BLACK
6
CONTINUOUS
10
0.41
20
0.481437
11
0.411507
21
0.481137
0
LINE
8
BLACK
6
CONTINUOUS
10
0.511507
20
0.481137
11
0.512784
21
0.480284
0
LINE
8
BLACK
6
CONTINUOUS
10
0.512784
20
0.480284
11
0.513637
21
0.479007
0
LINE
8
BLACK
6
CONTINUOUS
10
0.513637
20
0.479007
11
0.513937
21
0.4775
0
LINE
8
BLACK
6
CONTINUOUS
10
0.513937
20
0.4775
11
0.513937
21
0.4175
0
LINE
8
BLACK
6
CONTINUOUS
10
0.513937
20
0.4175
11
0.513637
21
0.415993
0
LINE
8
BLACK
6
CONTINUOUS
10
0.513637
20
0.415993
11
0.512784
21
0.414716
0
LINE
8
BLACK
6
CONTINUOUS
10
0.512784
20
0.414716
11
0.511507
21
0.413863
0
LINE
8
BLACK
6
CONTINUOUS
10
0.511507
20
0.413863
11
0.51
21
0.413563
0
LINE
8
BLACK
6
CONTINUOUS
10
0.51
20
0.413563
11
0.509806
21
0.413563
0
LINE
8
BLACK
6
CONTINUOUS
10
0.509806
20
0.413563
11
0.450194
21
0.413563
0
LINE
8
BLACK
6
CONTINUOUS
10
0.450194
20
0.413563
11
0.45
21
0.413563
0
LINE
8
BLACK
6
CONTINUOUS
10
0.45
20
0.413563
11
0.448493
21
0.413863
0
LINE
8
BLACK
6
CONTINUOUS
10
0.448493
20
0.413863
11
0.447216
21
0.414716
0
LINE
8
BLACK
6
CONTINUOUS
10
0.447216
20
0.414716
11
0.446363
21
0.415993
0
LINE
8
BLACK
6
CONTINUOUS
10
0.446363
20
0.415993
11
0.446063
21
0.4175
0
LINE
8
BLACK
6
CONTINUOUS
10
0.446063
20
0.4175
11
0.446063
21
0.4775
0
LINE
8
BLACK
6
CONTINUOUS
10
0.446063
20
0.4775
11
0.446363
21
0.479007
0
LINE
8
BLACK
6
CONTINUOUS
10
0.446363
20
0.479007
11
0.447216
21
0.480284
0
LINE
8
BLACK
6
CONTINUOUS
10
0.447216
20
0.480284
11
0.448493
21
0.481137
0
LINE
8
BLACK
6
CONTINUOUS
10
0.448493
20
0.481137
11
0.45
21
0.481437
0
LINE
8
BLACK
6
CONTINUOUS
10
0.45
20
0.481437
11
0.51
21
0.481437
0
LINE
8
BLACK
6
CONTINUOUS
10
0.51
20
0.481437
11
0.511507
21
0.481137
0
LINE
8
BLACK
6
CONTINUOUS
10
0.611507
20
0.481137
11
0.612784
21
0.480284
0
LINE
8
BLACK
6
CONTINUOUS
10
0.612784
20
0.480284
11
0.613637
21
0.479007
0
LINE
8
BLACK
6
CONTINUOUS
10
0.613637
20
0.479007
11
0.613937
21
0.4775
0
LINE
8
BLACK
6
CONTINUOUS
10
0.613937
20
0.4775
11
0.613937
21
0.4175
0
LINE
8
BLACK
6
CONTINUOUS
10
0.613937
20
0.4175
11
0.613637
21
0.415993
0
LINE
8
BLACK
6
CONTINUOUS
10
0.613637
20
0.415993
11
0.612784
21
0.414716
0
LINE
8
BLACK
6
CONTINUOUS
10
0.612784
20
0.414716
11
0.611507
21
0.413863
0
LINE
8
BLACK
6
CONTINUOUS
10
0.611507
20
0.413863
11
0.61
21
0.413563
0
LINE
8
BLACK
6
CONTINUOUS
10
0.61
20
0.413563
11
0.609806
21
0.413563
0
LINE
8
BLACK
6
CONTINUOUS
10
0.609806
20
0.413563
11
0.550194
21
0.413563
0
LINE
8
BLACK
6
CONTINUOUS
10
0.550194
20
0.413563
11
0.55
21
0.413563
0
LINE
8
BLACK
6
CONTINUOUS
10
0.55
20
0.413563
11
0.548493
21
0.413863
0
LINE
8
BLACK
6
CONTINUOUS
10
0.548493
20
0.413863
11
0.547216
21
0.414716
0
LINE
8
BLACK
6
CONTINUOUS
10
0.547216
20
0.414716
11
0.546363
21
0.415993
0
LINE
8
BLACK
6
CONTINUOUS
10
0.546363
20
0.415993
11
0.546063
21
0.4175
0
LINE
8
BLACK
6
CONTINUOUS
10
0.546063
20
0.4175
11
0.546063
21
0.4775
0
LINE
8
BLACK
6
CONTINUOUS
10
0.546063
20
0.4775
11
0.546363
21
0.479007
0
LINE
8
BLACK
6
CONTINUOUS
10
0.546363
20
0.479007
11
0.547216
21
0.480284
0
LINE
8
BLACK
6
CONTINUOUS
10
0.547216
20
0.480284
11
0.548493
21
0.481137
0
LINE
8
BLACK
6
CONTINUOUS
10
0.548493
20
0.481137
11
0.55
21
0.481437
0
LINE
8
BLACK
6
CONTINUOUS
10
0.55
20
0.481437
11
0.61
21
0.481437
0
LINE
8
BLACK
6
CONTINUOUS
10
0.61
20
0.481437
11
0.611507
21
0.481137
0
LINE
8
BLACK
6
CONTINUOUS
10
0.111507
20
0.581137
11
0.112784
21
0.580284
0
LINE
8
BLACK
6
CONTINUOUS
10
0.112784
20
0.580284
11
0.113637
21
0.579007
0
LINE
8
BLACK
6
CONTINUOUS
10
0.113637
20
0.579007
11
0.113937
21
0.5775
0
LINE
8
BLACK
6
CONTINUOUS
10
0.113937
20
0.5775
11
0.113937
21
0.5175
0
LINE
8
BLACK
6
CONTINUOUS
10
0.113937
20
0.5175
11
0.113637
21
0.515993
0
LINE
8
BLACK
6
CONTINUOUS
10
0.113637
20
0.515993
11
0.112784
21
0.514716
0
LINE
8
BLACK
6
CONTINUOUS
10
0.112784
20
0.514716
11
0.111507
21
0.513863
0
LINE
8
BLACK
6
CONTINUOUS
10
0.111507
20
0.513863
11
0.11
21
0.513563
0
LINE
8
BLACK
6
CONTINUOUS
10
0.11
20
0.513563
11
0.109806
21
0.513563
0
LINE
8
BLACK
6
CONTINUOUS
10
0.109806
20
0.513563
11
0.0501938
21
0.513563
0
LINE
8
BLACK
6
CONTINUOUS
10
0.0501938
20
0.513563
11
0.05
21
0.513563
0
LINE
8
BLACK
6
CONTINUOUS
10
0.05
20
0.513563
11
0.0484934
21
0.513863
0
LINE
8
BLACK
6
CONTINUOUS
10
0.0484934
20
0.513863
11
0.0472161
21
0.514716
0
LINE
8
BLACK
6
CONTINUOUS
10
0.0472161
20
0.514716
11
0.0463627
21
0.515993
0
LINE
8
BLACK
6
CONTINUOUS
10
0.0463627
20
0.515993
11
0.046063
21
0.5175
0
LINE
8
BLACK
6
CONTINUOUS
10
0.046063
20
0.5175
11
0.046063
21
0.5775
0
LINE
8
BLACK
6
CONTINUOUS
10
0.046063
20
0.5775
11
0.0463627
21
0.579007
0
LINE
8
BLACK
6
CONTINUOUS
10
0.0463627
20
0.579007
11
0.0472161
21
0.580284
0
LINE
8
BLACK
6
CONTINUOUS
10
0.0472161
20
0.580284
11
0.0484934
21
0.581137
0
LINE
8
BLACK
6
CONTINUOUS
10
0.0484934
20
0.581137
11
0.05
21
0.581437
0
LINE
8
BLACK
6
CONTINUOUS
10
0.05
20
0.581437
11
0.11
21
0.581437
0
LINE
8
BLACK
6
CONTINUOUS
10
0.11
20
0.581437
11
0.111507
21
0.581137
0
LINE
8
BLACK
6
CONTINUOUS
10
0.211507
20
0.581137
11
0.212784
21
0.580284
0
LINE
8
BLACK
6
CONTINUOUS
10
0.212784
20
0.580284
11
0.213637
21
0.579007
0
LINE
8
BLACK
6
CONTINUOUS
10
0.213637
20
0.579007
11
0.213937
21
0.5775
0
LINE
8
BLACK
6
CONTINUOUS
10
0.213937
20
0.5775
11
0.213937
21
0.5175
0
LINE
8
BLACK
6
CONTINUOUS
10
0.213937
20
0.5175
11
0.213637
21
0.515993
0
LINE
8
BLACK
6
CONTINUOUS
10
0.213637
20
0.515993
11
0.212784
21
0.514716
0
LINE
8
BLACK
6
CONTINUOUS
10
0.212784
20
0.514716
11
0.211507
21
0.513863
0
LINE
8
BLACK
6
CONTINUOUS
10
0.211507
20
0.513863
11
0.21
21
0.513563
0
LINE
8
BLACK
6
CONTINUOUS
10
0.21
20
0.513563
11
0.209806
21
0.513563
0
LINE
8
BLACK
6
CONTINUOUS
10
0.209806
20
0.513563
11
0.150194
21
0.513563
0
LINE
8
BLACK
6
CONTINUOUS
10
0.150194
20
0.513563
11
0.15
21
0.513563
0
LINE
8
BLACK
6
CONTINUOUS
10
0.15
20
0.513563
11
0.148493
21
0.513863
0
LINE
8
BLACK
6
CONTINUOUS
10
0.148493
20
0.513863
11
0.147216
21
0.514716
0
LINE
8
BLACK
6
CONTINUOUS
10
0.147216
20
0.514716
11
0.146363
21
0.515993
0
LINE
8
BLACK
6
CONTINUOUS
10
0.146363
20
0.515993
11
0.146063
21
0.5175
0
LINE
8
BLACK
6
CONTINUOUS
10
0.146063
20
0.5175
11
0.146063
21
0.5775
0
LINE
8
BLACK
6
CONTINUOUS
10
0.146063
20
0.5775
11
0.146363
21
0.579007
0
LINE
8
BLACK
6
CONTINUOUS
10
0.146363
20
0.579007
11
0.147216
21
0.580284
0
LINE
8
BLACK
6
CONTINUOUS
10
0.147216
20
0.580284
11
0.148493
21
0.581137
0
LINE
8
BLACK
6
CONTINUOUS
10
0.148493
20
0.581137
11
0.15
21
0.581437
0
LINE
8
BLACK
6
CONTINUOUS
10
0.15
20
0.581437
11
0.21
21
0.581437
0
LINE
8
BLACK
6
CONTINUOUS
10
0.21
20
0.581437
11
0.211507
21
0.581137
0
LINE
8
BLACK
6
CONTINUOUS
10
0.311507
20
0.581137
11
0.312784
21
0.580284
0
LINE
8
BLACK
6
CONTINUOUS
10
0.312784
20
0.580284
11
0.313637
21
0.579007
0
LINE
8
BLACK
6
CONTINUOUS
10
0.313637
20
0.579007
11
0.313937
21
0.5775
0
LINE
8
BLACK
6
CONTINUOUS
10
0.313937
20
0.5775
11
0.313937
21
0.5175
0
LINE
8
BLACK
6
CONTINUOUS
10
0.313937
20
0.5175
11
0.313637
21
0.515993
0
LINE
8
BLACK
6
CONTINUOUS
10
0.313637
20
0.515993
11
0.312784
21
0.514716
0
LINE
8
BLACK
6
CONTINUOUS
10
0.312784
20
0.514716
11
0.311507
21
0.513863
0
LINE
8
BLACK
6
CONTINUOUS
10
0.311507
20
0.513863
11
0.31
21
0.513563
0
LINE
8
BLACK
6
CONTINUOUS
10
0.31
20
0.513563
11
0.309806
21
0.513563
0
LINE
8
BLACK
6
CONTINUOUS
10
0.309806
20
0.513563
11
0.250194
21
0.513563
0
LINE
8
BLACK
6
CONTINUOUS
10
0.250194
20
0.513563
11
0.25
21
0.513563
0
LINE
8
BLACK
6
CONTINUOUS
10
0.25
20
0.513563
11
0.248493
21
0.513863
0
LINE
8
BLACK
6
CONTINUOUS
10
0.248493
20
0.513863
11
0.247216
21
0.514716
0
LINE
8
BLACK
6
CONTINUOUS
10
0.247216
20
0.514716
11
0.246363
21
0.515993
0
LINE
8
BLACK
6
CONTINUOUS
10
0.246363
20
0.515993
11
0.246063
21
0.5175
0
LINE
8
BLACK
6
CONTINUOUS
10
0.246063
20
0.5175
11
0.246063
21
0.5775
0
LINE
8
BLACK
6
CONTINUOUS
10
0.246063
20
0.5775
11
0.246363
21
0.579007
0
LINE
8
BLACK
6
CONTINUOUS
10
0.246363
20
0.579007
11
0.247216
21
0.580284
0
LINE
8
BLACK
6
CONTINUOUS
10
0.247216
20
0.580284
11
0.248493
21
0.581137
0
LINE
8
BLACK
6
CONTINUOUS
10
0.248493
20
0.581137
11
0.25
21
0.581437
0
LINE
8
BLACK
6
CONTINUOUS
10
0.25
20
0.581437
11
0.31
21
0.581437
0
LINE
8
BLACK
6
CONTINUOUS
10
0.31
20
0.581437
11
0.311507
21
0.581137
0
LINE
8
BLACK
6
CONTINUOUS
10
0.411507
20
0.581137
11
0.412784
21
0.580284
0
LINE
8
BLACK
6
CONTINUOUS
10
0.412784
20
0.580284
11
0.413637
21
0.579007
0
LINE
8
BLACK
6
CONTINUOUS
10
0.413637
20
0.579007
11
0.413937
21
0.5775
0
LINE
8
BLACK
6
CONTINUOUS
10
0.413937
20
0.5775
11
0.413937
21
0.5175
0
LINE
8
BLACK
6
CONTINUOUS
10
0.413937
20
0.5175
11
0.413637
21
0.515993
0
LINE
8
BLACK
6
CONTINUOUS
10
0.413637
20
0.515993
11
0.412784
21
0.514716
0
LINE
8
BLACK
6
CONTINUOUS
10
0.412784
20
0.514716
11
0.411507
21
0.513863
0
LINE
8
BLACK
6
CONTINUOUS
10
0.411507
20
0.513863
11
0.41
21
0.513563
0
LINE
8
BLACK
6
CONTINUOUS
10
0.41
20
0.513563
11
0.409806
21
0.513563
0
LINE
8
BLACK
6
CONTINUOUS
10
0.409806
20
0.513563
11
0.350194
21
0.513563
0
LINE
8
BLACK
6
CONTINUOUS
10
0.350194
20
0.513563
11
0.35
21
0.513563
0
LINE
8
BLACK
6
CONTINUOUS
10
0.35
20
0.513563
11
0.348493
21
0.513863
0
LINE
8
BLACK
6
CONTINUOUS
10
0.348493
20
0.513863
11
0.347216
21
0.514716
0
LINE
8
BLACK
6
CONTINUOUS
10
0.347216
20
0.514716
11
0.346363
21
0.515993
0
LINE
8
BLACK
6
CONTINUOUS
10
0.346363
20
0.515993
11
0.346063
21
0.5175
0
LINE
8
BLACK
6
CONTINUOUS
10
0.346063
20
0.5175
11
0.346063
21
0.5775
0
LINE
8
BLACK
6
CONTINUOUS
10
0.346063
20
0.5775
11
0.346363
21
0.579007
0
LINE
8
BLACK
6
CONTINUOUS
10
0.346363
20
0.579007
11
0.347216
21
0.580284
0
LINE
8
BLACK
6
CONTINUOUS
10
0.347216
20
0.580284
11
0.348493
21
0.581137
0
LINE
8
BLACK
6
CONTINUOUS
10
0.348493
20
0.581137
11
0.35
21
0.581437
0
LINE
8
BLACK
6
CONTINUOUS
10
0.35
20
0.581437
11
0.41
21
0.581437
0
LINE
8
BLACK
6
CONTINUOUS
10
0.41
20
0.581437
11
0.411507
21
0.581137
0
LINE
8
BLACK
6
CONTINUOUS
10
0.511507
20
0.581137
11
0.512784
21
0.580284
0
LINE
8
BLACK
6
CONTINUOUS
10
0.512784
20
0.580284
11
0.513637
21
0.579007
0
LINE
8
BLACK
6
CONTINUOUS
10
0.513637
20
0.579007
11
0.513937
21
0.5775
0
LINE
8
BLACK
6
CONTINUOUS
10
0.513937
20
0.5775
11
0.513937
21
0.5175
0
LINE
8
BLACK
6
CONTINUOUS
10
0.513937
20
0.5175
11
0.513637
21
0.515993
0
LINE
8
BLACK
6
CONTINUOUS
10
0.513637
20
0.515993
11
0.512784
21
0.514716
0
LINE
8
BLACK
6
CONTINUOUS
10
0.512784
20
0.514716
11
0.511507
21
0.513863
0
LINE
8
BLACK
6
CONTINUOUS
10
0.511507
20
0.513863
11
0.51
21
0.513563
0
LINE
8
BLACK
6
CONTINUOUS
10
0.51
20
0.513563
11
0.509806
21
0.513563
0
LINE
8
BLACK
6
CONTINUOUS
10
0.509806
20
0.513563
11
0.450194
21
0.513563
0
LINE
8
BLACK
6
CONTINUOUS
10
0.450194
20
0.513563
11
0.45
21
0.513563
0
LINE
8
BLACK
6
CONTINUOUS
10
0.45
20
0.513563
11
0.448493
21
0.513863
0
LINE
8
BLACK
6
CONTINUOUS
10
0.448493
20
0.513863
11
0.447216
21
0.514716
0
LINE
8
BLACK
6
CONTINUOUS
10
0.447216
20
0.514716
11
0.446363
21
0.515993
0
LINE
8
BLACK
6
CONTINUOUS
10
0.446363
20
0.515993
11
0.446063
21
0.5175
0
LINE
8
BLACK
6
CONTINUOUS
10
0.446063
20
0.5175
11
0.446063
21
0.5775
0
LINE
8
BLACK
6
CONTINUOUS
10
0.446063
20
0.5775
11
0.446363
21
0.579007
0
LINE
8
BLACK
6
CONTINUOUS
10
0.446363
20
0.579007
11
0.447216
21
0.580284
0
LINE
8
BLACK
6
CONTINUOUS
10
0.447216
20
0.580284
11
0.448493
21
0.581137
0
LINE
8
BLACK
6
CONTINUOUS
10
0.448493
20
0.581137
11
0.45
21
0.581437
0
LINE
8
BLACK
6
CONTINUOUS
10
0.45
20
0.581437
11
0.51
21
0.581437
0
LINE
8
BLACK
6
CONTINUOUS
10
0.51
20
0.581437
11
0.511507
21
0.581137
0
LINE
8
BLACK
6
CONTINUOUS
10
0.611507
20
0.581137
11
0.612784
21
0.580284
0
LINE
8
BLACK
6
CONTINUOUS
10
0.612784
20
0.580284
11
0.613637
21
0.579007
0
LINE
8
BLACK
6
CONTINUOUS
10
0.613637
20
0.579007
11
0.613937
21
0.5775
0
LINE
8
BLACK
6
CONTINUOUS
10
0.613937
20
0.5775
11
0.613937
21
0.5175
0
LINE
8
BLACK
6
CONTINUOUS
10
0.613937
20
0.5175
11
0.613637
21
0.515993
0
LINE
8
BLACK
6
CONTINUOUS
10
0.613637
20
0.515993
11
0.612784
21
0.514716
0
LINE
8
BLACK
6
CONTINUOUS
10
0.612784
20
0.514716
11
0.611507
21
0.513863
0
LINE
8
BLACK
6
CONTINUOUS
10
0.611507
20
0.513863
11
0.61
21
0.513563
0
LINE
8
BLACK
6
CONTINUOUS
10
0.61
20
0.513563
11
0.609806
21
0.513563
0
LINE
8
BLACK
6
CONTINUOUS
10
0.609806
20
0.513563
11
0.550194
21
0.513563
0
LINE
8
BLACK
6
CONTINUOUS
10
0.550194
20
0.513563
11
0.55
21
0.513563
0
LINE
8
BLACK
6
CONTINUOUS
10
0.55
20
0.513563
11
0.548493
21
0.513863
0
LINE
8
BLACK
6
CONTINUOUS
10
0.548493
20
0.513863
11
0.547216
21
0.514716
0
LINE
8
BLACK
6
CONTINUOUS
10
0.547216
20
0.514716
11
0.546363
21
0.515993
0
LINE
8
BLACK
6
CONTINUOUS
10
0.546363
20
0.515993
11
0.546063
21
0.5175
0
LINE
8
BLACK
6
CONTINUOUS
10
0.546063
20
0.5175
11
0.546063
21
0.5775
0
LINE
8
BLACK
6
CONTINUOUS
10
0.546063
20
0.5775
11
0.546363
21
0.579007
0
LINE
8
BLACK
6
CONTINUOUS
10
0.546363
20
0.579007
11
0.547216
21
0.580284
0
LINE
8
BLACK
6
CONTINUOUS
10
0.547216
20
0.580284
11
0.548493
21
0.581137
0
LINE
8
BLACK
6
CONTINUOUS
10
0.548493
20
0.581137
11
0.55
21
0.581437
0
LINE
8
BLACK
6
CONTINUOUS
10
0.55
20
0.581437
11
0.61
21
0.581437
0
LINE
8
BLACK
6
CONTINUOUS
10
0.61
20
0.581437
11
0.611507
21
0.581137
0
LINE
8
BLACK
6
CONTINUOUS
10
0.111507
20
0.681137
11
0.112784
21
0.680284
0
LINE
8
BLACK
6
CONTINUOUS
10
0.112784
20
0.680284
11
0.113637
21
0.679007
0
LINE
8
BLACK
6
CONTINUOUS
10
0.113637
20
0.679007
11
0.113937
21
0.6775
0
LINE
8
BLACK
6
CONTINUOUS
10
0.113937
20
0.6775
11
0.113937
21
0.6175
0
LINE
8
BLACK
6
CONTINUOUS
10
0.113937
20
0.6175
11
0.113637
21
0.615993
0
LINE
8
BLACK
6
CONTINUOUS
10
0.113637
20
0.615993
11
0.112784
21
0.614716
0
LINE
8
BLACK
6
CONTINUOUS
10
0.112784
20
0.614716
11
0.111507
21
0.613863
0
LINE
8
BLACK
6
CONTINUOUS
10
0.111507
20
0.613863
11
0.11
21
0.613563
0
LINE
8
BLACK
6
CONTINUOUS
10
0.11
20
0.613563
11
0.109806
21
0.613563
0
LINE
8
BLACK
6
CONTINUOUS
10
0.109806
20
0.613563
11
0.0501938
21
0.613563
0
LINE
8
BLACK
6
CONTINUOUS
10
0.0501938
20
0.613563
11
0.05
21
0.613563
0
LINE
8
BLACK
6
CONTINUOUS
10
0.05
20
0.613563
11
0.0484934
21
0.613863
0
LINE
8
BLACK
6
CONTINUOUS
10
0.0484934
20
0.613863
11
0.0472161
21
0.614716
0
LINE
8
BLACK
6
CONTINUOUS
10
0.0472161
20
0.614716
11
0.0463627
21
0.615993
0
LINE
8
BLACK
6
CONTINUOUS
10
0.0463627
20
0.615993
11
0.046063
21
0.6175
0
LINE
8
BLACK
6
CONTINUOUS
10
0.046063
20
0.6175
11
0.046063
21
0.6775
0
LINE
8
BLACK
6
CONTINUOUS
10
0.046063
20
0.6775
11
0.0463627
21
0.679007
0
LINE
8
BLACK
6
CONTINUOUS
10
0.0463627
20
0.679007
11
0.0472161
21
0.680284
0
LINE
8
BLACK
6
CONTINUOUS
10
0.0472161
20
0.680284
11
0.0484934
21
0.681137
0
LINE
8
BLACK
6
CONTINUOUS
10
0.0484934
20
0.681137
11
0.05
21
0.681437
0
LINE
8
BLACK
6
CONTINUOUS
10
0.05
20
0.681437
11
0.11
21
0.681437
0
LINE
8
BLACK
6
CONTINUOUS
10
0.11
20
0.681437
11
0.111507
21
0.681137
0
LINE
8
BLACK
6
CONTINUOUS
10
0.211507
20
0.681137
11
0.212784
21
0.680284
0
LINE
8
BLACK
6
CONTINUOUS
10
0.212784
20
0.680284
11
0.213637
21
0.679007
0
LINE
8
BLACK
6
CONTINUOUS
10
0.213637
20
0.679007
11
0.213937
21
0.6775
0
LINE
8
BLACK
6
CONTINUOUS
10
0.213937
20
0.6775
11
0.213937
21
0.6175
0
LINE
8
BLACK
6
CONTINUOUS
10
0.213937
20
0.6175
11
0.213637
21
0.615993
0
LINE
8
BLACK
6
CONTINUOUS
10
0.213637
20
0.615993
11
0.212784
21
0.614716
0
LINE
8
BLACK
6
CONTINUOUS
10
0.212784
20
0.614716
11
0.211507
21
0.613863
0
LINE
8
BLACK
6
CONTINUOUS
10
0.211507
20
0.613863
11
0.21
21
0.613563
0
LINE
8
BLACK
6
CONTINUOUS
10
0.21
20
0.613563
11
0.209806
21
0.613563
0
LINE
8
BLACK
6
CONTINUOUS
10
0.209806
20
0.613563
11
0.150194
21
0.613563
0
LINE
8
BLACK
6
CONTINUOUS
10
0.150194
20
0.613563
11
0.15
21
0.613563
0
LINE
8
BLACK
6
CONTINUOUS
10
0.15
20
0.613563
11
0.148493
21
0.613863
0
LINE
8
BLACK
6
CONTINUOUS
10
0.148493
20
0.613863
11
0.147216
21
0.614716
0
LINE
8
BLACK
6
CONTINUOUS
10
0.147216
20
0.614716
11
0.146363
21
0.615993
0
LINE
8
BLACK
6
CONTINUOUS
10
0.146363
20
0.615993
11
0.146063
21
0.6175
0
LINE
8
BLACK
6
CONTINUOUS
10
0.146063
20
0.6175
11
0.146063
21
0.6775
0
LINE
8
BLACK
6
CONTINUOUS
10
0.146063
20
0.6775
11
0.146363
21
0.679007
0
LINE
8
BLACK
6
CONTINUOUS
10
0.146363
20
0.679007
11
0.147216
21
0.680284
0
LINE
8
BLACK
6
CONTINUOUS
10
0.147216
20
0.680284
11
0.148493
21
0.681137
0
LINE
8
BLACK
6
CONTINUOUS
10
0.148493
20
0.681137
11
0.15
21
0.681437
0
LINE
8
BLACK
6
CONTINUOUS
10
0.15
20
0.681437
11
0.21
21
0.681437
0
LINE
8
BLACK
6
CONTINUOUS
10
0.21
20
0.681437
11
0.211507
21
0.681137
0
LINE
8
BLACK
6
CONTINUOUS
10
0.311507
20
0.681137
11
0.312784
21
0.680284
0
LINE
8
BLACK
6
CONTINUOUS
10
0.312784
20
0.680284
11
0.313637
21
0.679007
0
LINE
8
BLACK
6
CONTINUOUS
10
0.313637
20
0.679007
11
0.313937
21
0.6775
0
LINE
8
BLACK
6
CONTINUOUS
10
0.313937
20
0.6775
11
0.313937
21
0.6175
0
LINE
8
BLACK
6
CONTINUOUS
10
0.313937
20
0.6175
11
0.313637
21
0.615993
0
LINE
8
BLACK
6
CONTINUOUS
10
0.313637
20
0.615993
11
0.312784
21
0.614716
0
LINE
8
BLACK
6
CONTINUOUS
10
0.312784
20
0.614716
11
0.311507
21
0.613863
0
LINE
8
BLACK
6
CONTINUOUS
10
0.311507
20
0.613863
11
0.31
21
0.613563
0
LINE
8
BLACK
6
CONTINUOUS
10
0.31
20
0.613563
11
0.309806
21
0.613563
0
LINE
8
BLACK
6
CONTINUOUS
10
0.309806
20
0.613563
11
0.250194
21
0.613563
0
LINE
8
BLACK
6
CONTINUOUS
10
0.250194
20
0.613563
11
0.25
21
0.613563
0
LINE
8
BLACK
6
CONTINUOUS
10
0.25
20
0.613563
11
0.248493
21
0.613863
0
LINE
8
BLACK
6
CONTINUOUS
10
0.248493
20
0.613863
11
0.247216
21
0.614716
0
LINE
8
BLACK
6
CONTINUOUS
10
0.247216
20
0.614716
11
0.246363
21
0.615993
0
LINE
8
BLACK
6
CONTINUOUS
10
0.246363
20
0.615993
11
0.246063
21
0.6175
0
LINE
8
BLACK
6
CONTINUOUS
10
0.246063
20
0.6175
11
0.246063
21
0.6775
0
LINE
8
BLACK
6
CONTINUOUS
10
0.246063
20
0.6775
11
0.246363
21
0.679007
0
LINE
8
BLACK
6
CONTINUOUS
10
0.246363
20
0.679007
11
0.247216
21
0.680284
0
LINE
8
BLACK
6
CONTINUOUS
10
0.247216
20
0.680284
11
0.248493
21
0.681137
0
LINE
8
BLACK
6
CONTINUOUS
10
0.248493
20
0.681137
11
0.25
21
0.681437
0
LINE
8
BLACK
6
CONTINUOUS
10
0.25
20
0.681437
11
0.31
21
0.681437
0
LINE
8
BLACK
6
CONTINUOUS
10
0.31
20
0.681437
11
0.311507
21
0.681137
0
LINE
8
BLACK
6
CONTINUOUS
10
0.411507
20
0.681137
11
0.412784
21
0.680284
0
LINE
8
BLACK
6
CONTINUOUS
10
0.412784
20
0.680284
11
0.413637
21
0.679007
0
LINE
8
BLACK
6
CONTINUOUS
10
0.413637
20
0.679007
11
0.413937
21
0.6775
0
LINE
8
BLACK
6
CONTINUOUS
10
0.413937
20
0.6775
11
0.413937
21
0.6175
0
LINE
8
BLACK
6
CONTINUOUS
10
0.413937
20
0.6175
11
0.413637
21
0.615993
0
LINE
8
BLACK
6
CONTINUOUS
10
0.413637
20
0.615993
11
0.412784
21
0.614716
0
LINE
8
BLACK
6
CONTINUOUS
10
0.412784
20
0.614716
11
0.411507
21
0.613863
0
LINE
8
BLACK
6
CONTINUOUS
10
0.411507
20
0.613863
11
0.41
21
0.613563
0
LINE
8
BLACK
6
CONTINUOUS
10
0.41
20
0.613563
11
0.409806
21
0.613563
0
LINE
8
BLACK
6
CONTINUOUS
10
0.409806
20
0.613563
11
0.350194
21
0.613563
0
LINE
8
BLACK
6
CONTINUOUS
10
0.350194
20
0.613563
11
0.35
21
0.613563
0
LINE
8
BLACK
6
CONTINUOUS
10
0.35
20
0.613563
11
0.348493
21
0.613863
0
LINE
8
BLACK
6
CONTINUOUS
10
0.348493
20
0.613863
11
0.347216
21
0.614716
0
LINE
8
BLACK
6
CONTINUOUS
10
0.347216
20
0.614716
11
0.346363
21
0.615993
0
LINE
8
BLACK
6
CONTINUOUS
10
0.346363
20
0.615993
11
0.346063
21
0.6175
0
LINE
8
BLACK
6
CONTINUOUS
10
0.346063
20
0.6175
11
0.346063
21
0.6775
0
LINE
8
BLACK
6
CONTINUOUS
10
0.346063
20
0.6775
11
0.346363
21
0.679007
0
LINE
8
BLACK
6
CONTINUOUS
10
0.346363
20
0.679007
11
0.347216
21
0.680284
0
LINE
8
BLACK
6
CONTINUOUS
10
0.347216
20
0.680284
11
0.348493
21
0.681137
0
LINE
8
BLACK
6
CONTINUOUS
10
0.348493
20
0.681137
11
0.35
21
0.681437
0
LINE
8
BLACK
6
CONTINUOUS
10
0.35
20
0.681437
11
0.41
21
0.681437
0
LINE
8
BLACK
6
CONTINUOUS
10
0.41
20
0.681437
11
0.411507
21
0.681137
0
LINE
8
BLACK
6
CONTINUOUS
10
0.511507
20
0.681137
11
0.512784
21
0.680284
0
LINE
8
BLACK
6
CONTINUOUS
10
0.512784
20
0.680284
11
0.513637
21
0.679007
0
LINE
8
BLACK
6
CONTINUOUS
10
0.513637
20
0.679007
11
0.513937
21
0.6775
0
LINE
8
BLACK
6
CONTINUOUS
10
0.513937
20
0.6775
11
0.513937
21
0.6175
0
LINE
8
BLACK
6
CONTINUOUS
10
0.513937
20
0.6175
11
0.513637
21
0.615993
0
LINE
8
BLACK
6
CONTINUOUS
10
0.513637
20
0.615993
11
0.512784
21
0.614716
0
LINE
8
BLACK
6
CONTINUOUS
10
0.512784
20
0.614716
11
0.511507
21
0.613863
0
LINE
8
BLACK
6
CONTINUOUS
10
0.511507
20
0.613863
11
0.51
21
0.613563
0
LINE
8
BLACK
6
CONTINUOUS
10
0.51
20
0.613563
11
0.509806
21
0.613563
0
LINE
8
BLACK
6
CONTINUOUS
10
0.509806
20
0.613563
11
0.450194
21
0.613563
0
LINE
8
BLACK
6
CONTINUOUS
10
0.450194
20
0.613563
11
0.45
21
0.613563
0
LINE
8
BLACK
6
CONTINUOUS
10
0.45
20
0.613563
11
0.448493
21
0.613863
0
LINE
8
BLACK
6
CONTINUOUS
10
0.448493
20
0.613863
11
0.447216
21
0.614716
0
LINE
8
BLACK
6
CONTINUOUS
10
0.447216
20
0.614716
11
0.446363
21
0.615993
0
LINE
8
BLACK
6
CONTINUOUS
10
0.446363
20
0.615993
11
0.446063
21
0.6175
0
LINE
8
BLACK
6
CONTINUOUS
10
0.446063
20
0.6175
11
0.446063
21
0.6775
0
LINE
8
BLACK
6
CONTINUOUS
10
0.446063
20
0.6775
11
0.446363
21
0.679007
0
LINE
8
BLACK
6
CONTINUOUS
10
0.446363
20
0.679007
11
0.447216
21
0.680284
0
LINE
8
BLACK
6
CONTINUOUS
10
0.447216
20
0.680284
11
0.448493
21
0.681137
0
LINE
8
BLACK
6
CONTINUOUS
10
0.448493
20
0.681137
11
0.45
21
0.681437
0
LINE
8
BLACK
6
CONTINUOUS
10
0.45
20
0.681437
11
0.51
21
0.681437
0
LINE
8
BLACK
6
CONTINUOUS
10
0.51
20
0.681437
11
0.511507
21
0.681137
0
LINE
8
BLACK
6
CONTINUOUS
10
0.611507
20
0.681137
11
0.612784
21
0.680284
0
LINE
8
BLACK
6
CONTINUOUS
10
0.612784
20
0.680284
11
0.613637
21
0.679007
0
LINE
8
BLACK
6
CONTINUOUS
10
0.613637
20
0.679007
11
0.613937
21
0.6775
0
LINE
8
BLACK
6
CONTINUOUS
10
0.613937
20
0.6775
11
0.613937
21
0.6175
0
LINE
8
BLACK
6
CONTINUOUS
10
0.613937
20
0.6175
11
0.613637
21
0.615993
0
LINE
8
BLACK
6
CONTINUOUS
10
0.613637
20
0.615993
11
0.612784
21
0.614716
0
LINE
8
BLACK
6
CONTINUOUS
10
0.612784
20
0.614716
11
0.611507
21
0.613863
0
LINE
8
BLACK
6
CONTINUOUS
10
0.611507
20
0.613863
11
0.61
21
0.613563
0
LINE
8
BLACK
6
CONTINUOUS
10
0.61
20
0.613563
11
0.609806
21
0.613563
0
LINE
8
BLACK
6
CONTINUOUS
10
0.609806
20
0.613563
11
0.550194
21
0.613563
0
LINE
8
BLACK
6
CONTINUOUS
10
0.550194
20
0.613563
11
0.55
21
0.613563
0
LINE
8
BLACK
6
CONTINUOUS
10
0.55
20
0.613563
11
0.548493
21
0.613863
0
LINE
8
BLACK
6
CONTINUOUS
10
0.548493
20
0.613863
11
0.547216
21
0.614716
0
LINE
8
BLACK
6
CONTINUOUS
10
0.547216
20
0.614716
11
0.546363
21
0.615993
0
LINE
8
BLACK
6
CONTINUOUS
10
0.546363
20
0.615993
11
0.546063
21
0.6175
0
LINE
8
BLACK
6
CONTINUOUS
10
0.546063
20
0.6175
11
0.546063
21
0.6775
0
LINE
8
BLACK
6
CONTINUOUS
10
0.546063
20
0.6775
11
0.546363
21
0.679007
0
LINE
8
BLACK
6
CONTINUOUS
10
0.546363
20
0.679007
11
0.547216
21
0.680284
0
LINE
8
BLACK
6
CONTINUOUS
10
0.547216
20
0.680284
11
0.548493
21
0.681137
0
LINE
8
BLACK
6
CONTINUOUS
10
0.548493
20
0.681137
11
0.55
21
0.681437
0
LINE
8
BLACK
6
CONTINUOUS
10
0.55
20
0.681437
11
0.61
21
0.681437
0
LINE
8
BLACK
6
CONTINUOUS
10
0.61
20
0.681437
11
0.611507
21
0.681137
0
LINE
8
BLACK
6
CONTINUOUS
10
0.691507
20
0.676137
11
0.692784
21
0.675284
0
LINE
8
BLACK
6
CONTINUOUS
10
0.692784
20
0.675284
11
0.693637
21
0.674007
0
LINE
8
BLACK
6
CONTINUOUS
10
0.693637
20
0.674007
11
0.693937
21
0.6725
0
LINE
8
BLACK
6
CONTINUOUS
10
0.693937
20
0.6725
11
0.693937
21
0.6175
0
LINE
8
BLACK
6
CONTINUOUS
10
0.693937
20
0.6175
11
0.693637
21
0.615993
0
LINE
8
BLACK
6
CONTINUOUS
10
0.693637
20
0.615993
11
0.692784
21
0.614716
0
LINE
8
BLACK
6
CONTINUOUS
10
0.692784
20
0.614716
11
0.691507
21
0.613863
0
LINE
8
BLACK
6
CONTINUOUS
10
0.691507
20
0.613863
11
0.69
21
0.613563
0
LINE
8
BLACK
6
CONTINUOUS
10
0.69
20
0.613563
11
0.689806
21
0.613563
0
LINE
8
BLACK
6
CONTINUOUS
10
0.689806
20
0.613563
11
0.655194
21
0.613563
0
LINE
8
BLACK
6
CONTINUOUS
10
0.655194
20
0.613563
11
0.655
21
0.613563
0
LINE
8
BLACK
6
CONTINUOUS
10
0.655
20
0.613563
11
0.653493
21
0.613863
0
LINE
8
BLACK
6
CONTINUOUS
10
0.653493
20
0.613863
11
0.652216
21
0.614716
0
LINE
8
BLACK
6
CONTINUOUS
10
0.652216
20
0.614716
11
0.651363
21
0.615993
0
LINE
8
BLACK
6
CONTINUOUS
10
0.651363
20
0.615993
11
0.651063
21
0.6175
0
LINE
8
BLACK
6
CONTINUOUS
10
0.651063
20
0.6175
11
0.651063
21
0.6725
0
LINE
8
BLACK
6
CONTINUOUS
10
0.651063
20
0.6725
11
0.651363
21
0.674007
0
LINE
8
BLACK
6
CONTINUOUS
10
0.651363
20
0.674007
11
0.652216
21
0.675284
0
LINE
8
BLACK
6
CONTINUOUS
10
0.652216
20
0.675284
11
0.653493
21
0.676137
0
LINE
8
BLACK
6
CONTINUOUS
10
0.653493
20
0.676137
11
0.655
21
0.676437
0
LINE
8
BLACK
6
CONTINUOUS
10
0.655
20
0.676437
11
0.69
21
0.676437
0
LINE
8
BLACK
6
CONTINUOUS
10
0.69
20
0.676437
11
0.691507
21
0.676137
0
LINE
8
BLACK
6
CONTINUOUS
10
0.766507
20
0.676137
11
0.767784
21
0.675284
0
LINE
8
BLACK
6
CONTINUOUS
10
0.767784
20
0.675284
11
0.768637
21
0.674007
0
LINE
8
BLACK
6
CONTINUOUS
10
0.768637
20
0.674007
11
0.768937
21
0.6725
0
LINE
8
BLACK
6
CONTINUOUS
10
0.768937
20
0.6725
11
0.768937
21
0.6175
0
LINE
8
BLACK
6
CONTINUOUS
10
0.768937
20
0.6175
11
0.768637
21
0.615993
0
LINE
8
BLACK
6
CONTINUOUS
10
0.768637
20
0.615993
11
0.767784
21
0.614716
0
LINE
8
BLACK
6
CONTINUOUS
10
0.767784
20
0.614716
11
0.766507
21
0.613863
0
LINE
8
BLACK
6
CONTINUOUS
10
0.766507
20
0.613863
11
0.765
21
0.613563
0
LINE
8
BLACK
6
CONTINUOUS
10
0.765
20
0.613563
11
0.764806
21
0.613563
0
LINE
8
BLACK
6
CONTINUOUS
10
0.764806
20
0.613563
11
0.730194
21
0.613563
0
LINE
8
BLACK
6
CONTINUOUS
10
0.730194
20
0.613563
11
0.73
21
0.613563
0
LINE
8
BLACK
6
CONTINUOUS
10
0.73
20
0.613563
11
0.728493
21
0.613863
0
LINE
8
BLACK
6
CONTINUOUS
10
0.728493
20
0.613863
11
0.727216
21
0.614716
0
LINE
8
BLACK
6
CONTINUOUS
10
0.727216
20
0.614716
11
0.726363
21
0.615993
0
LINE
8
BLACK
6
CONTINUOUS
10
0.726363
20
0.615993
11
0.726063
21
0.6175
0
LINE
8
BLACK
6
CONTINUOUS
10
0.726063
20
0.6175
11
0.726063
21
0.6725
0
LINE
8
BLACK
6
CONTINUOUS
10
0.726063
20
0.6725
11
0.726363
21
0.674007
0
LINE
8
BLACK
6
CONTINUOUS
10
0.726363
20
0.674007
11
0.727216
21
0.675284
0
LINE
8
BLACK
6
CONTINUOUS
10
0.727216
20
0.675284
11
0.728493
21
0.676137
0
LINE
8
BLACK
6
CONTINUOUS
10
0.728493
20
0.676137
11
0.73
21
0.676437
0
LINE
8
BLACK
6
CONTINUOUS
10
0.73
20
0.676437
11
0.765
21
0.676437
0
LINE
8
BLACK
6
CONTINUOUS
10
0.765
20
0.676437
11
0.766507
21
0.676137
0
LINE
8
BLACK
6
CONTINUOUS
10
0.111507
20
0.781137
11
0.112784
21
0.780284
0
LINE
8
BLACK
6
CONTINUOUS
10
0.112784
20
0.780284
11
0.113637
21
0.779007
0
LINE
8
BLACK
6
CONTINUOUS
10
0.113637
20
0.779007
11
0.113937
21
0.7775
0
LINE
8
BLACK
6
CONTINUOUS
10
0.113937
20
0.7775
11
0.113937
21
0.7175
0
LINE
8
BLACK
6
CONTINUOUS
10
0.113937
20
0.7175
11
0.113637
21
0.715993
0
LINE
8
BLACK
6
CONTINUOUS
10
0.113637
20
0.715993
11
0.112784
21
0.714716
0
LINE
8
BLACK
6
CONTINUOUS
10
0.112784
20
0.714716
11
0.111507
21
0.713863
0
LINE
8
BLACK
6
CONTINUOUS
10
0.111507
20
0.713863
11
0.11
21
0.713563
0
LINE
8
BLACK
6
CONTINUOUS
10
0.11
20
0.713563
11
0.109806
21
0.713563
0
LINE
8
BLACK
6
CONTINUOUS
10
0.109806
20
0.713563
11
0.0501938
21
0.713563
0
LINE
8
BLACK
6
CONTINUOUS
10
0.0501938
20
0.713563
11
0.05
21
0.713563
0
LINE
8
BLACK
6
CONTINUOUS
10
0.05
20
0.713563
11
0.0484934
21
0.713863
0
LINE
8
BLACK
6
CONTINUOUS
10
0.0484934
20
0.713863
11
0.0472161
21
0.714716
0
LINE
8
BLACK
6
CONTINUOUS
10
0.0472161
20
0.714716
11
0.0463627
21
0.715993
0
LINE
8
BLACK
6
CONTINUOUS
10
0.0463627
20
0.715993
11
0.046063
21
0.7175
0
LINE
8
BLACK
6
CONTINUOUS
10
0.046063
20
0.7175
11
0.046063
21
0.7775
0
LINE
8
BLACK
6
CONTINUOUS
10
0.046063
20
0.7775
11
0.0463627
21
0.779007
0
LINE
8
BLACK
6
CONTINUOUS
10
0.0463627
20
0.779007
11
0.0472161
21
0.780284
0
LINE
8
BLACK
6
CONTINUOUS
10
0.0472161
20
0.780284
11
0.0484934
21
0.781137
0
LINE
8
BLACK
6
CONTINUOUS
10
0.0484934
20
0.781137
11
0.05
21
0.781437
0
LINE
8
BLACK
6
CONTINUOUS
10
0.05
20
0.781437
11
0.11
21
0.781437
0
LINE
8
BLACK
6
CONTINUOUS
10
0.11
20
0.781437
11
0.111507
21
0.781137
0
LINE
8
BLACK
6
CONTINUOUS
10
0.211507
20
0.781137
11
0.212784
21
0.780284
0
LINE
8
BLACK
6
CONTINUOUS
10
0.212784
20
0.780284
11
0.213637
21
0.779007
0
LINE
8
BLACK
6
CONTINUOUS
10
0.213637
20
0.779007
11
0.213937
21
0.7775
0
LINE
8
BLACK
6
CONTINUOUS
10
0.213937
20
0.7775
11
0.213937
21
0.7175
0
LINE
8
BLACK
6
CONTINUOUS
10
0.213937
20
0.7175
11
0.213637
21
0.715993
0
LINE
8
BLACK
6
CONTINUOUS
10
0.213637
20
0.715993
11
0.212784
21
0.714716
0
LINE
8
BLACK
6
CONTINUOUS
10
0.212784
20
0.714716
11
0.211507
21
0.713863
0
LINE
8
BLACK
6
CONTINUOUS
10
0.211507
20
0.713863
11
0.21
21
0.713563
0
LINE
8
BLACK
6
CONTINUOUS
10
0.21
20
0.713563
11
0.209806
21
0.713563
0
LINE
8
BLACK
6
CONTINUOUS
10
0.209806
20
0.713563
11
0.150194
21
0.713563
0
LINE
8
BLACK
6
CONTINUOUS
10
0.150194
20
0.713563
11
0.15
21
0.713563
0
LINE
8
BLACK
6
CONTINUOUS
10
0.15
20
0.713563
11
0.148493
21
0.713863
0
LINE
8
BLACK
6
CONTINUOUS
10
0.148493
20
0.713863
11
0.147216
21
0.714716
0
LINE
8
BLACK
6
CONTINUOUS
10
0.147216
20
0.714716
11
0.146363
21
0.715993
0
LINE
8
BLACK
6
CONTINUOUS
10
0.146363
20
0.715993
11
0.146063
21
0.7175
0
LINE
8
BLACK
6
CONTINUOUS
10
0.146063
20
0.7175
11
0.146063
21
0.7775
0
LINE
8
BLACK
6
CONTINUOUS
10
0.146063
20
0.7775
11
0.146363
21
0.779007
0
LINE
8
BLACK
6
CONTINUOUS
10
0.146363
20
0.779007
11
0.147216
21
0.780284
0
LINE
8
BLACK
6
CONTINUOUS
10
0.147216
20
0.780284
11
0.148493
21
0.781137
0
LINE
8
BLACK
6
CONTINUOUS
10
0.148493
20
0.781137
11
0.15
21
0.781437
0
LINE
8
BLACK
6
CONTINUOUS
10
0.15
20
0.781437
11
0.21
21
0.781437
0
LINE
8
BLACK
6
CONTINUOUS
10
0.21
20
0.781437
11
0.211507
21
0.781137
0
LINE
8
BLACK
6
CONTINUOUS
10
0.311507
20
0.781137
11
0.312784
21
0.780284
0
LINE
8
BLACK
6
CONTINUOUS
10
0.312784
20
0.780284
11
0.313637
21
0.779007
0
LINE
8
BLACK
6
CONTINUOUS
10
0.313637
20
0.779007
11
0.313937
21
0.7775
0
LINE
8
BLACK
6
CONTINUOUS
10
0.313937
20
0.7775
11
0.313937
21
0.7175
0
LINE
8
BLACK
6
CONTINUOUS
10
0.313937
20
0.7175
11
0.313637
21
0.715993
0
LINE
8
BLACK
6
CONTINUOUS
10
0.313637
20
0.715993
11
0.312784
21
0.714716
0
LINE
8
BLACK
6
CONTINUOUS
10
0.312784
20
0.714716
11
0.311507
21
0.713863
0
LINE
8
BLACK
6
CONTINUOUS
10
0.311507
20
0.713863
11
0.31
21
0.713563
0
LINE
8
BLACK
6
CONTINUOUS
10
0.31
20
0.713563
11
0.309806
21
0.713563
0
LINE
8
BLACK
6
CONTINUOUS
10
0.309806
20
0.713563
11
0.250194
21
0.713563
0
LINE
8
BLACK
6
CONTINUOUS
10
0.250194
20
0.713563
11
0.25
21
0.713563
0
LINE
8
BLACK
6
CONTINUOUS
10
0.25
20
0.713563
11
0.248493
21
0.713863
0
LINE
8
BLACK
6
CONTINUOUS
10
0.248493
20
0.713863
11
0.247216
21
0.714716
0
LINE
8
BLACK
6
CONTINUOUS
10
0.247216
20
0.714716
11
0.246363
21
0.715993
0
LINE
8
BLACK
6
CONTINUOUS
10
0.246363
20
0.715993
11
0.246063
21
0.7175
0
LINE
8
BLACK
6
CONTINUOUS
10
0.246063
20
0.7175
11
0.246063
21
0.7775
0
LINE
8
BLACK
6
CONTINUOUS
10
0.246063
20
0.7775
11
0.246363
21
0.779007
0
LINE
8
BLACK
6
CONTINUOUS
10
0.246363
20
0.779007
11
0.247216
21
0.780284
0
LINE
8
BLACK
6
CONTINUOUS
10
0.247216
20
0.780284
11
0.248493
21
0.781137
0
LINE
8
BLACK
6
CONTINUOUS
10
0.248493
20
0.781137
11
0.25
21
0.781437
0
LINE
8
BLACK
6
CONTINUOUS
10
0.25
20
0.781437
11
0.31
21
0.781437
0
LINE
8
BLACK
6
CONTINUOUS
10
0.31
20
0.781437
11
0.311507
21
0.781137
0
LINE
8
BLACK
6
CONTINUOUS
10
0.411507
20
0.781137
11
0.412784
21
0.780284
0
LINE
8
BLACK
6
CONTINUOUS
10
0.412784
20
0.780284
11
0.413637
21
0.779007
0
LINE
8
BLACK
6
CONTINUOUS
10
0.413637
20
0.779007
11
0.413937
21
0.7775
0
LINE
8
BLACK
6
CONTINUOUS
10
0.413937
20
0.7775
11
0.413937
21
0.7175
0
LINE
8
BLACK
6
CONTINUOUS
10
0.413937
20
0.7175
11
0.413637
21
0.715993
0
LINE
8
BLACK
6
CONTINUOUS
10
0.413637
20
0.715993
11
0.412784
21
0.714716
0
LINE
8
BLACK
6
CONTINUOUS
10
0.412784
20
0.714716
11
0.411507
21
0.713863
0
LINE
8
BLACK
6
CONTINUOUS
10
0.411507
20
0.713863
11
0.41
21
0.713563
0
LINE
8
BLACK
6
CONTINUOUS
10
0.41
20
0.713563
11
0.409806
21
0.713563
0
LINE
8
BLACK
6
CONTINUOUS
10
0.409806
20
0.713563
11
0.350194
21
0.713563
0
LINE
8
BLACK
6
CONTINUOUS
10
0.350194
20
0.713563
11
0.35
21
0.713563
0
LINE
8
BLACK
6
CONTINUOUS
10
0.35
20
0.713563
11
0.348493
21
0.713863
0
LINE
8
BLACK
6
CONTINUOUS
10
0.348493
20
0.713863
11
0.347216
21
0.714716
0
LINE
8
BLACK
6
CONTINUOUS
10
0.347216
20
0.714716
11
0.346363
21
0.715993
0
LINE
8
BLACK
6
CONTINUOUS
10
0.346363
20
0.715993
11
0.346063
21
0.7175
0
LINE
8
BLACK
6
CONTINUOUS
10
0.346063
20
0.7175
11
0.346063
21
0.7775
0
LINE
8
BLACK
6
CONTINUOUS
10
0.346063
20
0.7775
11
0.346363
21
0.779007
0
LINE
8
BLACK
6
CONTINUOUS
10
0.346363
20
0.779007
11
0.347216
21
0.780284
0
LINE
8
BLACK
6
CONTINUOUS
10
0.347216
20
0.780284
11
0.348493
21
0.781137
0
LINE
8
BLACK
6
CONTINUOUS
10
0.348493
20
0.781137
11
0.35
21
0.781437
0
LINE
8
BLACK
6
CONTINUOUS
10
0.35
20
0.781437
11
0.41
21
0.781437
0
LINE
8
BLACK
6
CONTINUOUS
10
0.41
20
0.781437
11
0.411507
21
0.781137
0
LINE
8
BLACK
6
CONTINUOUS
10
0.511507
20
0.781137
11
0.512784
21
0.780284
0
LINE
8
BLACK
6
CONTINUOUS
10
0.512784
20
0.780284
11
0.513637
21
0.779007
0
LINE
8
BLACK
6
CONTINUOUS
10
0.513637
20
0.779007
11
0.513937
21
0.7775
0
LINE
8
BLACK
6
CONTINUOUS
10
0.513937
20
0.7775
11
0.513937
21
0.7175
0
LINE
8
BLACK
6
CONTINUOUS
10
0.513937
20
0.7175
11
0.513637
21
0.715993
0
LINE
8
BLACK
6
CONTINUOUS
10
0.513637
20
0.715993
11
0.512784
21
0.714716
0
LINE
8
BLACK
6
CONTINUOUS
10
0.512784
20
0.714716
11
0.511507
21
0.713863
0
LINE
8
BLACK
6
CONTINUOUS
10
0.511507
20
0.713863
11
0.51
21
0.713563
0
LINE
8
BLACK
6
CONTINUOUS
10
0.51
20
0.713563
11
0.509806
21
0.713563
0
LINE
8
BLACK
6
CONTINUOUS
10
0.509806
20
0.713563
11
0.450194
21
0.713563
0
LINE
8
BLACK
6
CONTINUOUS
10
0.450194
20
0.713563
11
0.45
21
0.713563
0
LINE
8
BLACK
6
CONTINUOUS
10
0.45
20
0.713563
11
0.448493
21
0.713863
0
LINE
8
BLACK
6
CONTINUOUS
10
0.448493
20
0.713863
11
0.447216
21
0.714716
0
LINE
8
BLACK
6
CONTINUOUS
10
0.447216
20
0.714716
11
0.446363
21
0.715993
0
LINE
8
BLACK
6
CONTINUOUS
10
0.446363
20
0.715993
11
0.446063
21
0.7175
0
LINE
8
BLACK
6
CONTINUOUS
10
0.446063
20
0.7175
11
0.446063
21
0.7775
0
LINE
8
BLACK
6
CONTINUOUS
10
0.446063
20
0.7775
11
0.446363
21
0.779007
0
LINE
8
BLACK
6
CONTINUOUS
10
0.446363
20
0.779007
11
0.447216
21
0.780284
0
LINE
8
BLACK
6
CONTINUOUS
10
0.447216
20
0.780284
11
0.448493
21
0.781137
0
LINE
8
BLACK
6
CONTINUOUS
10
0.448493
20
0.781137
11
0.45
21
0.781437
0
LINE
8
BLACK
6
CONTINUOUS
10
0.45
20
0.781437
11
0.51
21
0.781437
0
LINE
8
BLACK
6
CONTINUOUS
10
0.51
20
0.781437
11
0.511507
21
0.781137
0
LINE
8
BLACK
6
CONTINUOUS
10
0.611507
20
0.781137
11
0.612784
21
0.780284
0
LINE
8
BLACK
6
CONTINUOUS
10
0.612784
20
0.780284
11
0.613637
21
0.779007
0
LINE
8
BLACK
6
CONTINUOUS
10
0.613637
20
0.779007
11
0.613937
21
0.7775
0
LINE
8
BLACK
6
CONTINUOUS
10
0.613937
20
0.7775
11
0.613937
21
0.7175
0
LINE
8
BLACK
6
CONTINUOUS
10
0.613937
20
0.7175
11
0.613637
21
0.715993
0
LINE
8
BLACK
6
CONTINUOUS
10
0.613637
20
0.715993
11
0.612784
21
0.714716
0
LINE
8
BLACK
6
CONTINUOUS
10
0.612784
20
0.714716
11
0.611507
21
0.713863
0
LINE
8
BLACK
6
CONTINUOUS
10
0.611507
20
0.713863
11
0.61
21
0.713563
0
LINE
8
BLACK
6
CONTINUOUS
10
0.61
20
0.713563
11
0.609806
21
0.713563
0
LINE
8
BLACK
6
CONTINUOUS
10
0.609806
20
0.713563
11
0.550194
21
0.713563
0
LINE
8
BLACK
6
CONTINUOUS
10
0.550194
20
0.713563
11
0.55
21
0.713563
0
LINE
8
BLACK
6
CONTINUOUS
10
0.55
20
0.713563
11
0.548493
21
0.713863
0
LINE
8
BLACK
6
CONTINUOUS
10
0.548493
20
0.713863
11
0.547216
21
0.714716
0
LINE
8
BLACK
6
CONTINUOUS
10
0.547216
20
0.714716
11
0.546363
21
0.715993
0
LINE
8
BLACK
6
CONTINUOUS
10
0.546363
20
0.715993
11
0.546063
21
0.7175
0
LINE
8
BLACK
6
CONTINUOUS
10
0.546063
20
0.7175
11
0.546063
21
0.7775
0
LINE
8
BLACK
6
CONTINUOUS
10
0.546063
20
0.7775
11
0.546363
21
0.779007
0
LINE
8
BLACK
6
CONTINUOUS
10
0.546363
20
0.779007
11
0.547216
21
0.780284
0
LINE
8
BLACK
6
CONTINUOUS
10
0.547216
20
0.780284
11
0.548493
21
0.781137
0
LINE
8
BLACK
6
CONTINUOUS
10
0.548493
20
0.781137
11
0.55
21
0.781437
0
LINE
8
BLACK
6
CONTINUOUS
10
0.55
20
0.781437
11
0.61
21
0.781437
0
LINE
8
BLACK
6
CONTINUOUS
10
0.61
20
0.781437
11
0.611507
21
0.781137
0
LINE
8
BLACK
6
CONTINUOUS
10
0.111507
20
0.881137
11
0.112784
21
0.880284
0
LINE
8
BLACK
6
CONTINUOUS
10
0.112784
20
0.880284
11
0.113637
21
0.879007
0
LINE
8
BLACK
6
CONTINUOUS
10
0.113637
20
0.879007
11
0.113937
21
0.8775
0
LINE
8
BLACK
6
CONTINUOUS
10
0.113937
20
0.8775
11
0.113937
21
0.8175
0
LINE
8
BLACK
6
CONTINUOUS
10
0.113937
20
0.8175
11
0.113637
21
0.815993
0
LINE
8
BLACK
6
CONTINUOUS
10
0.113637
20
0.815993
11
0.112784
21
0.814716
0
LINE
8
BLACK
6
CONTINUOUS
10
0.112784
20
0.814716
11
0.111507
21
0.813863
0
LINE
8
BLACK
6
CONTINUOUS
10
0.111507
20
0.813863
11
0.11
21
0.813563
0
LINE
8
BLACK
6
CONTINUOUS
10
0.11
20
0.813563
11
0.109806
21
0.813563
0
LINE
8
BLACK
6
CONTINUOUS
10
0.109806
20
0.813563
11
0.0501938
21
0.813563
0
LINE
8
BLACK
6
CONTINUOUS
10
0.0501938
20
0.813563
11
0.05
21
0.813563
0
LINE
8
BLACK
6
CONTINUOUS
10
0.05
20
0.813563
11
0.0484934
21
0.813863
0
LINE
8
BLACK
6
CONTINUOUS
10
0.0484934
20
0.813863
11
0.0472161
21
0.814716
0
LINE
8
BLACK
6
CONTINUOUS
10
0.0472161
20
0.814716
11
0.0463627
21
0.815993
0
LINE
8
BLACK
6
CONTINUOUS
10
0.0463627
20
0.815993
11
0.046063
21
0.8175
0
LINE
8
BLACK
6
CONTINUOUS
10
0.046063
20
0.8175
11
0.046063
21
0.8775
0
LINE
8
BLACK
6
CONTINUOUS
10
0.046063
20
0.8775
11
0.0463627
21
0.879007
0
LINE
8
BLACK
6
CONTINUOUS
10
0.0463627
20
0.879007
11
0.0472161
21
0.880284
0
LINE
8
BLACK
6
CONTINUOUS
10
0.0472161
20
0.880284
11
0.0484934
21
0.881137
0
LINE
8
BLACK
6
CONTINUOUS
10
0.0484934
20
0.881137
11
0.05
21
0.881437
0
LINE
8
BLACK
6
CONTINUOUS
10
0.05
20
0.881437
11
0.11
21
0.881437
0
LINE
8
BLACK
6
CONTINUOUS
10
0.11
20
0.881437
11
0.111507
21
0.881137
0
LINE
8
BLACK
6
CONTINUOUS
10
0.211507
20
0.881137
11
0.212784
21
0.880284
0
LINE
8
BLACK
6
CONTINUOUS
10
0.212784
20
0.880284
11
0.213637
21
0.879007
0
LINE
8
BLACK
6
CONTINUOUS
10
0.213637
20
0.879007
11
0.213937
21
0.8775
0
LINE
8
BLACK
6
CONTINUOUS
10
0.213937
20
0.8775
11
0.213937
21
0.8175
0
LINE
8
BLACK
6
CONTINUOUS
10
0.213937
20
0.8175
11
0.213637
21
0.815993
0
LINE
8
BLACK
6
CONTINUOUS
10
0.213637
20
0.815993
11
0.212784
21
0.814716
0
LINE
8
BLACK
6
CONTINUOUS
10
0.212784
20
0.814716
11
0.211507
21
0.813863
0
LINE
8
BLACK
6
CONTINUOUS
10
0.211507
20
0.813863
11
0.21
21
0.813563
0
LINE
8
BLACK
6
CONTINUOUS
10
0.21
20
0.813563
11
0.209806
21
0.813563
0
LINE
8
BLACK
6
CONTINUOUS
10
0.209806
20
0.813563
11
0.150194
21
0.813563
0
LINE
8
BLACK
6
CONTINUOUS
10
0.150194
20
0.813563
11
0.15
21
0.813563
0
LINE
8
BLACK
6
CONTINUOUS
10
0.15
20
0.813563
11
0.148493
21
0.813863
0
LINE
8
BLACK
6
CONTINUOUS
10
0.148493
20
0.813863
11
0.147216
21
0.814716
0
LINE
8
BLACK
6
CONTINUOUS
10
0.147216
20
0.814716
11
0.146363
21
0.815993
0
LINE
8
BLACK
6
CONTINUOUS
10
0.146363
20
0.815993
11
0.146063
21
0.8175
0
LINE
8
BLACK
6
CONTINUOUS
10
0.146063
20
0.8175
11
0.146063
21
0.8775
0
LINE
8
BLACK
6
CONTINUOUS
10
0.146063
20
0.8775
11
0.146363
21
0.879007
0
LINE
8
BLACK
6
CONTINUOUS
10
0.146363
20
0.879007
11
0.147216
21
0.880284
0
LINE
8
BLACK
6
CONTINUOUS
10
0.147216
20
0.880284
11
0.148493
21
0.881137
0
LINE
8
BLACK
6
CONTINUOUS
10
0.148493
20
0.881137
11
0.15
21
0.881437
0
LINE
8
BLACK
6
CONTINUOUS
10
0.15
20
0.881437
11
0.21
21
0.881437
0
LINE
8
BLACK
6
CONTINUOUS
10
0.21
20
0.881437
11
0.211507
21
0.881137
0
LINE
8
BLACK
6
CONTINUOUS
10
0.311507
20
0.881137
11
0.312784
21
0.880284
0
LINE
8
BLACK
6
CONTINUOUS
10
0.312784
20
0.880284
11
0.313637
21
0.879007
0
LINE
8
BLACK
6
CONTINUOUS
10
0.313637
20
0.879007
11
0.313937
21
0.8775
0
LINE
8
BLACK
6
CONTINUOUS
10
0.313937
20
0.8775
11
0.313937
21
0.8175
0
LINE
8
BLACK
6
CONTINUOUS
10
0.313937
20
0.8175
11
0.313637
21
0.815993
0
LINE
8
BLACK
6
CONTINUOUS
10
0.313637
20
0.815993
11
0.312784
21
0.814716
0
LINE
8
BLACK
6
CONTINUOUS
10
0.312784
20
0.814716
11
0.311507
21
0.813863
0
LINE
8
BLACK
6
CONTINUOUS
10
0.311507
20
0.813863
11
0.31
21
0.813563
0
LINE
8
BLACK
6
CONTINUOUS
10
0.31
20
0.813563
11
0.309806
21
0.813563
0
LINE
8
BLACK
6
CONTINUOUS
10
0.309806
20
0.813563
11
0.250194
21
0.813563
0
LINE
8
BLACK
6
CONTINUOUS
10
0.250194
20
0.813563
11
0.25
21
0.813563
0
LINE
8
BLACK
6
CONTINUOUS
10
0.25
20
0.813563
11
0.248493
21
0.813863
0
LINE
8
BLACK
6
CONTINUOUS
10
0.248493
20
0.813863
11
0.247216
21
0.814716
0
LINE
8
BLACK
6
CONTINUOUS
10
0.247216
20
0.814716
11
0.246363
21
0.815993
0
LINE
8
BLACK
6
CONTINUOUS
10
0.246363
20
0.815993
11
0.246063
21
0.8175
0
LINE
8
BLACK
6
CONTINUOUS
10
0.246063
20
0.8175
11
0.246063
21
0.8775
0
LINE
8
BLACK
6
CONTINUOUS
10
0.246063
20
0.8775
11
0.246363
21
0.879007
0
LINE
8
BLACK
6
CONTINUOUS
10
0.246363
20
0.879007
11
0.247216
21
0.880284
0
LINE
8
BLACK
6
CONTINUOUS
10
0.247216
20
0.880284
11
0.248493
21
0.881137
0
LINE
8
BLACK
6
CONTINUOUS
10
0.248493
20
0.881137
11
0.25
21
0.881437
0
LINE
8
BLACK
6
CONTINUOUS
10
0.25
20
0.881437
11
0.31
21
0.881437
0
LINE
8
BLACK
6
CONTINUOUS
10
0.31
20
0.881437
11
0.311507
21
0.881137
0
LINE
8
BLACK
6
CONTINUOUS
10
0.411507
20
0.881137
11
0.412784
21
0.880284
0
LINE
8
BLACK
6
CONTINUOUS
10
0.412784
20
0.880284
11
0.413637
21
0.879007
0
LINE
8
BLACK
6
CONTINUOUS
10
0.413637
20
0.879007
11
0.413937
21
0.8775
0
LINE
8
BLACK
6
CONTINUOUS
10
0.413937
20
0.8775
11
0.413937
21
0.8175
0
LINE
8
BLACK
6
CONTINUOUS
10
0.413937
20
0.8175
11
0.413637
21
0.815993
0
LINE
8
BLACK
6
CONTINUOUS
10
0.413637
20
0.815993
11
0.412784
21
0.814716
0
LINE
8
BLACK
6
CONTINUOUS
10
0.412784
20
0.814716
11
0.411507
21
0.813863
0
LINE
8
BLACK
6
CONTINUOUS
10
0.411507
20
0.813863
11
0.41
21
0.813563
0
LINE
8
BLACK
6
CONTINUOUS
10
0.41
20
0.813563
11
0.409806
21
0.813563
0
LINE
8
BLACK
6
CONTINUOUS
10
0.409806
20
0.813563
11
0.350194
21
0.813563
0
LINE
8
BLACK
6
CONTINUOUS
10
0.350194
20
0.813563
11
0.35
21
0.813563
0
LINE
8
BLACK
6
CONTINUOUS
10
0.35
20
0.813563
11
0.348493
21
0.813863
0
LINE
8
BLACK
6
CONTINUOUS
10
0.348493
20
0.813863
11
0.347216
21
0.814716
0
LINE
8
BLACK
6
CONTINUOUS
10
0.347216
20
0.814716
11
0.346363
21
0.815993
0
LINE
8
BLACK
6
CONTINUOUS
10
0.346363
20
0.815993
11
0.346063
21
0.8175
0
LINE
8
BLACK
6
CONTINUOUS
10
0.346063
20
0.8175
11
0.346063
21
0.8775
0
LINE
8
BLACK
6
CONTINUOUS
10
0.346063
20
0.8775
11
0.346363
21
0.879007
0
LINE
8
BLACK
6
CONTINUOUS
10
0.346363
20
0.879007
11
0.347216
21
0.880284
0
LINE
8
BLACK
6
CONTINUOUS
10
0.347216
20
0.880284
11
0.348493
21
0.881137
0
LINE
8
BLACK
6
CONTINUOUS
10
0.348493
20
0.881137
11
0.35
21
0.881437
0
LINE
8
BLACK
6
CONTINUOUS
10
0.35
20
0.881437
11
0.41
21
0.881437
0
LINE
8
BLACK
6
CONTINUOUS
10
0.41
20
0.881437
11
0.411507
21
0.881137
0
LINE
8
BLACK
6
CONTINUOUS
10
0.511507
20
0.881137
11
0.512784
21
0.880284
0
LINE
8
BLACK
6
CONTINUOUS
10
0.512784
20
0.880284
11
0.513637
21
0.879007
0
LINE
8
BLACK
6
CONTINUOUS
10
0.513637
20
0.879007
11
0.513937
21
0.8775
0
LINE
8
BLACK
6
CONTINUOUS
10
0.513937
20
0.8775
11
0.513937
21
0.8175
0
LINE
8
BLACK
6
CONTINUOUS
10
0.513937
20
0.8175
11
0.513637
21
0.815993
0
LINE
8
BLACK
6
CONTINUOUS
10
0.513637
20
0.815993
11
0.512784
21
0.814716
0
LINE
8
BLACK
6
CONTINUOUS
10
0.512784
20
0.814716
11
0.511507
21
0.813863
0
LINE
8
BLACK
6
CONTINUOUS
10
0.511507
20
0.813863
11
0.51
21
0.813563
0
LINE
8
BLACK
6
CONTINUOUS
10
0.51
20
0.813563
11
0.509806
21
0.813563
0
LINE
8
BLACK
6
CONTINUOUS
10
0.509806
20
0.813563
11
0.450194
21
0.813563
0
LINE
8
BLACK
6
CONTINUOUS
10
0.450194
20
0.813563
11
0.45
21
0.813563
0
LINE
8
BLACK
6
CONTINUOUS
10
0.45
20
0.813563
11
0.448493
21
0.813863
0
LINE
8
BLACK
6
CONTINUOUS
10
0.448493
20
0.813863
11
0.447216
21
0.814716
0
LINE
8
BLACK
6
CONTINUOUS
10
0.447216
20
0.814716
11
0.446363
21
0.815993
0
LINE
8
BLACK
6
CONTINUOUS
10
0.446363
20
0.815993
11
0.446063
21
0.8175
0
LINE
8
BLACK
6
CONTINUOUS
10
0.446063
20
0.8175
11
0.446063
21
0.8775
0
LINE
8
BLACK
6
CONTINUOUS
10
0.446063
20
0.8775
11
0.446363
21
0.879007
0
LINE
8
BLACK
6
CONTINUOUS
10
0.446363
20
0.879007
11
0.447216
21
0.880284
0
LINE
8
BLACK
6
CONTINUOUS
10
0.447216
20
0.880284
11
0.448493
21
0.881137
0
LINE
8
BLACK
6
CONTINUOUS
10
0.448493
20
0.881137
11
0.45
21
0.881437
0
LINE
8
BLACK
6
CONTINUOUS
10
0.45
20
0.881437
11
0.51
21
0.881437
0
LINE
8
BLACK
6
CONTINUOUS
10
0.51
20
0.881437
11
0.511507
21
0.881137
0
LINE
8
BLACK
6
CONTINUOUS
10
0.611507
20
0.881137
11
0.612784
21
0.880284
0
LINE
8
BLACK
6
CONTINUOUS
10
0.612784
20
0.880284
11
0.613637
21
0.879007
0
LINE
8
BLACK
6
CONTINUOUS
10
0.613637
20
0.879007
11
0.613937
21
0.8775
0
LINE
8
BLACK
6
CONTINUOUS
10
0.613937
20
0.8775
11
0.613937
21
0.8175
0
LINE
8
BLACK
6
CONTINUOUS
10
0.613937
20
0.8175
11
0.613637
21
0.815993
0
LINE
8
BLACK
6
CONTINUOUS
10
0.613637
20
0.815993
11
0.612784
21
0.814716
0
LINE
8
BLACK
6
CONTINUOUS
10
0.612784
20
0.814716
11
0.611507
21
0.813863
0
LINE
8
BLACK
6
CONTINUOUS
10
0.611507
20
0.813863
11
0.61
21
0.813563
0
LINE
8
BLACK
6
CONTINUOUS
10
0.61
20
0.813563
11
0.609806
21
0.813563
0
LINE
8
BLACK
6
CONTINUOUS
10
0.609806
20
0.813563
11
0.550194
21
0.813563
0
LINE
8
BLACK
6
CONTINUOUS
10
0.550194
20
0.813563
11
0.55
21
0.813563
0
LINE
8
BLACK
6
CONTINUOUS
10
0.55
20
0.813563
11
0.548493
21
0.813863
0
LINE
8
BLACK
6
CONTINUOUS
10
0.548493
20
0.813863
11
0.547216
21
0.814716
0
LINE
8
BLACK
6
CONTINUOUS
10
0.547216
20
0.814716
11
0.546363
21
0.815993
0
LINE
8
BLACK
6
CONTINUOUS
10
0.546363
20
0.815993
11
0.546063
21
0.8175
0
LINE
8
BLACK
6
CONTINUOUS
10
0.546063
20
0.8175
11
0.546063
21
0.8775
0
LINE
8
BLACK
6
CONTINUOUS
10
0.546063
20
0.8775
11
0.546363
21
0.879007
0
LINE
8
BLACK
6
CONTINUOUS
10
0.546363
20
0.879007
11
0.547216
21
0.880284
0
LINE
8
BLACK
6
CONTINUOUS
10
0.547216
20
0.880284
11
0.548493
21
0.881137
0
LINE
8
BLACK
6
CONTINUOUS
10
0.548493
20
0.881137
11
0.55
21
0.881437
0
LINE
8
BLACK
6
CONTINUOUS
10
0.55
20
0.881437
11
0.61
21
0.881437
0
LINE
8
BLACK
6
CONTINUOUS
10
0.61
20
0.881437
11
0.611507
21
0.881137
0
LINE
8
BLACK
6
CONTINUOUS
10
0.113207
20
0.997087
11
0.114484
21
0.996234
0
LINE
8
BLACK
6
CONTINUOUS
10
0.114484
20
0.996234
11
0.115337
21
0.994957
0
LINE
8
BLACK
6
CONTINUOUS
10
0.115337
20
0.994957
11
0.115637
21
0.99345
0
LINE
8
BLACK
6
CONTINUOUS
10
0.115637
20
0.99345
11
0.115637
21
0.92655
0
LINE
8
BLACK
6
CONTINUOUS
10
0.115637
20
0.92655
11
0.115337
21
0.925043
0
LINE
8
BLACK
6
CONTINUOUS
10
0.115337
20
0.925043
11
0.114484
21
0.923766
0
LINE
8
BLACK
6
CONTINUOUS
10
0.114484
20
0.923766
11
0.113207
21
0.922913
0
LINE
8
BLACK
6
CONTINUOUS
10
0.113207
20
0.922913
11
0.1117
21
0.922613
0
LINE
8
BLACK
6
CONTINUOUS
10
0.1117
20
0.922613
11
0.111506
21
0.922613
0
LINE
8
BLACK
6
CONTINUOUS
10
0.111506
20
0.922613
11
0.0606938
21
0.922613
0
LINE
8
BLACK
6
CONTINUOUS
10
0.0606938
20
0.922613
11
0.0605
21
0.922613
0
LINE
8
BLACK
6
CONTINUOUS
10
0.0605
20
0.922613
11
0.0589934
21
0.922913
0
LINE
8
BLACK
6
CONTINUOUS
10
0.0589934
20
0.922913
11
0.0577161
21
0.923766
0
LINE
8
BLACK
6
CONTINUOUS
10
0.0577161
20
0.923766
11
0.0568627
21
0.925043
0
LINE
8
BLACK
6
CONTINUOUS
10
0.0568627
20
0.925043
11
0.056563
21
0.92655
0
LINE
8
BLACK
6
CONTINUOUS
10
0.056563
20
0.92655
11
0.056563
21
0.99345
0
LINE
8
BLACK
6
CONTINUOUS
10
0.056563
20
0.99345
11
0.0568627
21
0.994957
0
LINE
8
BLACK
6
CONTINUOUS
10
0.0568627
20
0.994957
11
0.0577161
21
0.996234
0
LINE
8
BLACK
6
CONTINUOUS
10
0.0577161
20
0.996234
11
0.0589934
21
0.997087
0
LINE
8
BLACK
6
CONTINUOUS
10
0.0589934
20
0.997087
11
0.0605
21
0.997387
0
LINE
8
BLACK
6
CONTINUOUS
10
0.0605
20
0.997387
11
0.1117
21
0.997387
0
LINE
8
BLACK
6
CONTINUOUS
10
0.1117
20
0.997387
11
0.113207
21
0.997087
0
LINE
8
BLACK
6
CONTINUOUS
10
0.251007
20
0.997087
11
0.252284
21
0.996234
0
LINE
8
BLACK
6
CONTINUOUS
10
0.252284
20
0.996234
11
0.253137
21
0.994957
0
LINE
8
BLACK
6
CONTINUOUS
10
0.253137
20
0.994957
11
0.253437
21
0.99345
0
LINE
8
BLACK
6
CONTINUOUS
10
0.253437
20
0.99345
11
0.253437
21
0.92655
0
LINE
8
BLACK
6
CONTINUOUS
10
0.253437
20
0.92655
11
0.253137
21
0.925043
0
LINE
8
BLACK
6
CONTINUOUS
10
0.253137
20
0.925043
11
0.252284
21
0.923766
0
LINE
8
BLACK
6
CONTINUOUS
10
0.252284
20
0.923766
11
0.251007
21
0.922913
0
LINE
8
BLACK
6
CONTINUOUS
10
0.251007
20
0.922913
11
0.2495
21
0.922613
0
LINE
8
BLACK
6
CONTINUOUS
10
0.2495
20
0.922613
11
0.249306
21
0.922613
0
LINE
8
BLACK
6
CONTINUOUS
10
0.249306
20
0.922613
11
0.198494
21
0.922613
0
LINE
8
BLACK
6
CONTINUOUS
10
0.198494
20
0.922613
11
0.1983
21
0.922613
0
LINE
8
BLACK
6
CONTINUOUS
10
0.1983
20
0.922613
11
0.196793
21
0.922913
0
LINE
8
BLACK
6
CONTINUOUS
10
0.196793
20
0.922913
11
0.195516
21
0.923766
0
LINE
8
BLACK
6
CONTINUOUS
10
0.195516
20
0.923766
11
0.194663
21
0.925043
0
LINE
8
BLACK
6
CONTINUOUS
10
0.194663
20
0.925043
11
0.194363
21
0.92655
0
LINE
8
BLACK
6
CONTINUOUS
10
0.194363
20
0.92655
11
0.194363
21
0.99345
0
LINE
8
BLACK
6
CONTINUOUS
10
0.194363
20
0.99345
11
0.194663
21
0.994957
0
LINE
8
BLACK
6
CONTINUOUS
10
0.194663
20
0.994957
11
0.195516
21
0.996234
0
LINE
8
BLACK
6
CONTINUOUS
10
0.195516
20
0.996234
11
0.196793
21
0.997087
0
LINE
8
BLACK
6
CONTINUOUS
10
0.196793
20
0.997087
11
0.1983
21
0.997387
0
LINE
8
BLACK
6
CONTINUOUS
10
0.1983
20
0.997387
11
0.2495
21
0.997387
0
LINE
8
BLACK
6
CONTINUOUS
10
0.2495
20
0.997387
11
0.251007
21
0.997087
0
LINE
8
BLACK
6
CONTINUOUS
10
0.321507
20
0.988637
11
0.322784
21
0.987784
0
LINE
8
BLACK
6
CONTINUOUS
10
0.322784
20
0.987784
11
0.323637
21
0.986507
0
LINE
8
BLACK
6
CONTINUOUS
10
0.323637
20
0.986507
11
0.323937
21
0.985
0
LINE
8
BLACK
6
CONTINUOUS
10
0.323937
20
0.985
11
0.323937
21
0.93
0
LINE
8
BLACK
6
CONTINUOUS
10
0.323937
20
0.93
11
0.323637
21
0.928493
0
LINE
8
BLACK
6
CONTINUOUS
10
0.323637
20
0.928493
11
0.322784
21
0.927216
0
LINE
8
BLACK
6
CONTINUOUS
10
0.322784
20
0.927216
11
0.321507
21
0.926363
0
LINE
8
BLACK
6
CONTINUOUS
10
0.321507
20
0.926363
11
0.32
21
0.926063
0
LINE
8
BLACK
6
CONTINUOUS
10
0.32
20
0.926063
11
0.319806
21
0.926063
0
LINE
8
BLACK
6
CONTINUOUS
10
0.319806
20
0.926063
11
0.285194
21
0.926063
0
LINE
8
BLACK
6
CONTINUOUS
10
0.285194
20
0.926063
11
0.285
21
0.926063
0
LINE
8
BLACK
6
CONTINUOUS
10
0.285
20
0.926063
11
0.283493
21
0.926363
0
LINE
8
BLACK
6
CONTINUOUS
10
0.283493
20
0.926363
11
0.282216
21
0.927216
0
LINE
8
BLACK
6
CONTINUOUS
10
0.282216
20
0.927216
11
0.281363
21
0.928493
0
LINE
8
BLACK
6
CONTINUOUS
10
0.281363
20
0.928493
11
0.281063
21
0.93
0
LINE
8
BLACK
6
CONTINUOUS
10
0.281063
20
0.93
11
0.281063
21
0.985
0
LINE
8
BLACK
6
CONTINUOUS
10
0.281063
20
0.985
11
0.281363
21
0.986507
0
LINE
8
BLACK
6
CONTINUOUS
10
0.281363
20
0.986507
11
0.282216
21
0.987784
0
LINE
8
BLACK
6
CONTINUOUS
10
0.282216
20
0.987784
11
0.283493
21
0.988637
0
LINE
8
BLACK
6
CONTINUOUS
10
0.283493
20
0.988637
11
0.285
21
0.988937
0
LINE
8
BLACK
6
CONTINUOUS
10
0.285
20
0.988937
11
0.32
21
0.988937
0
LINE
8
BLACK
6
CONTINUOUS
10
0.32
20
0.988937
11
0.321507
21
0.988637
0
LINE
8
BLACK
6
CONTINUOUS
10
0.396507
20
0.988637
11
0.397784
21
0.987784
0
LINE
8
BLACK
6
CONTINUOUS
10
0.397784
20
0.987784
11
0.398637
21
0.986507
0
LINE
8
BLACK
6
CONTINUOUS
10
0.398637
20
0.986507
11
0.398937
21
0.985
0
LINE
8
BLACK
6
CONTINUOUS
10
0.398937
20
0.985
11
0.398937
21
0.93
0
LINE
8
BLACK
6
CONTINUOUS
10
0.398937
20
0.93
11
0.398637
21
0.928493
0
LINE
8
BLACK
6
CONTINUOUS
10
0.398637
20
0.928493
11
0.397784
21
0.927216
0
LINE
8
BLACK
6
CONTINUOUS
10
0.397784
20
0.927216
11
0.396507
21
0.926363
0
LINE
8
BLACK
6
CONTINUOUS
10
0.396507
20
0.926363
11
0.395
21
0.926063
0
LINE
8
BLACK
6
CONTINUOUS
10
0.395
20
0.926063
11
0.394806
21
0.926063
0
LINE
8
BLACK
6
CONTINUOUS
10
0.394806
20
0.926063
11
0.360194
21
0.926063
0
LINE
8
BLACK
6
CONTINUOUS
10
0.360194
20
0.926063
11
0.36
21
0.926063
0
LINE
8
BLACK
6
CONTINUOUS
10
0.36
20
0.926063
11
0.358493
21
0.926363
0
LINE
8
BLACK
6
CONTINUOUS
10
0.358493
20
0.926363
11
0.357216
21
0.927216
0
LINE
8
BLACK
6
CONTINUOUS
10
0.357216
20
0.927216
11
0.356363
21
0.928493
0
LINE
8
BLACK
6
CONTINUOUS
10
0.356363
20
0.928493
11
0.356063
21
0.93
0
LINE
8
BLACK
6
CONTINUOUS
10
0.356063
20
0.93
11
0.356063
21
0.985
0
LINE
8
BLACK
6
CONTINUOUS
10
0.356063
20
0.985
11
0.356363
21
0.986507
0
LINE
8
BLACK
6
CONTINUOUS
10
0.356363
20
0.986507
11
0.357216
21
0.987784
0
LINE
8
BLACK
6
CONTINUOUS
10
0.357216
20
0.987784
11
0.358493
21
0.988637
0
LINE
8
BLACK
6
CONTINUOUS
10
0.358493
20
0.988637
11
0.36
21
0.988937
0
LINE
8
BLACK
6
CONTINUOUS
10
0.36
20
0.988937
11
0.395
21
0.988937
0
LINE
8
BLACK
6
CONTINUOUS
10
0.395
20
0.988937
11
0.396507
21
0.988637
0
LINE
8
BLACK
6
CONTINUOUS
10
0.639007
20
1.04114
11
0.640284
21
1.04028
0
LINE
8
BLACK
6
CONTINUOUS
10
0.640284
20
1.04028
11
0.641137
21
1.03901
0
LINE
8
BLACK
6
CONTINUOUS
10
0.641137
20
1.03901
11
0.641437
21
1.0375
0
LINE
8
BLACK
6
CONTINUOUS
10
0.641437
20
1.0375
11
0.641437
21
0.9775
0
LINE
8
BLACK
6
CONTINUOUS
10
0.641437
20
0.9775
11
0.641137
21
0.975993
0
LINE
8
BLACK
6
CONTINUOUS
10
0.641137
20
0.975993
11
0.640284
21
0.974716
0
LINE
8
BLACK
6
CONTINUOUS
10
0.640284
20
0.974716
11
0.639007
21
0.973863
0
LINE
8
BLACK
6
CONTINUOUS
10
0.639007
20
0.973863
11
0.6375
21
0.973563
0
LINE
8
BLACK
6
CONTINUOUS
10
0.6375
20
0.973563
11
0.637306
21
0.973563
0
LINE
8
BLACK
6
CONTINUOUS
10
0.637306
20
0.973563
11
0.577694
21
0.973563
0
LINE
8
BLACK
6
CONTINUOUS
10
0.577694
20
0.973563
11
0.5775
21
0.973563
0
LINE
8
BLACK
6
CONTINUOUS
10
0.5775
20
0.973563
11
0.575993
21
0.973863
0
LINE
8
BLACK
6
CONTINUOUS
10
0.575993
20
0.973863
11
0.574716
21
0.974716
0
LINE
8
BLACK
6
CONTINUOUS
10
0.574716
20
0.974716
11
0.573863
21
0.975993
0
LINE
8
BLACK
6
CONTINUOUS
10
0.573863
20
0.975993
11
0.573563
21
0.9775
0
LINE
8
BLACK
6
CONTINUOUS
10
0.573563
20
0.9775
11
0.573563
21
1.0375
0
LINE
8
BLACK
6
CONTINUOUS
10
0.573563
20
1.0375
11
0.573863
21
1.03901
0
LINE
8
BLACK
6
CONTINUOUS
10
0.573863
20
1.03901
11
0.574716
21
1.04028
0
LINE
8
BLACK
6
CONTINUOUS
10
0.574716
20
1.04028
11
0.575993
21
1.04114
0
LINE
8
BLACK
6
CONTINUOUS
10
0.575993
20
1.04114
11
0.5775
21
1.04144
0
LINE
8
BLACK
6
CONTINUOUS
10
0.5775
20
1.04144
11
0.6375
21
1.04144
0
LINE
8
BLACK
6
CONTINUOUS
10
0.6375
20
1.04144
11
0.639007
21
1.04114
0
LINE
8
BLACK
6
CONTINUOUS
10
0.739007
20
1.04114
11
0.740284
21
1.04028
0
LINE
8
BLACK
6
CONTINUOUS
10
0.740284
20
1.04028
11
0.741137
21
1.03901
0
LINE
8
BLACK
6
CONTINUOUS
10
0.741137
20
1.03901
11
0.741437
21
1.0375
0
LINE
8
BLACK
6
CONTINUOUS
10
0.741437
20
1.0375
11
0.741437
21
0.9775
0
LINE
8
BLACK
6
CONTINUOUS
10
0.741437
20
0.9775
11
0.741137
21
0.975993
0
LINE
8
BLACK
6
CONTINUOUS
10
0.741137
20
0.975993
11
0.740284
21
0.974716
0
LINE
8
BLACK
6
CONTINUOUS
10
0.740284
20
0.974716
11
0.739007
21
0.973863
0
LINE
8
BLACK
6
CONTINUOUS
10
0.739007
20
0.973863
11
0.7375
21
0.973563
0
LINE
8
BLACK
6
CONTINUOUS
10
0.7375
20
0.973563
11
0.737306
21
0.973563
0
LINE
8
BLACK
6
CONTINUOUS
10
0.737306
20
0.973563
11
0.677694
21
0.973563
0
LINE
8
BLACK
6
CONTINUOUS
10
0.677694
20
0.973563
11
0.6775
21
0.973563
0
LINE
8
BLACK
6
CONTINUOUS
10
0.6775
20
0.973563
11
0.675993
21
0.973863
0
LINE
8
BLACK
6
CONTINUOUS
10
0.675993
20
0.973863
11
0.674716
21
0.974716
0
LINE
8
BLACK
6
CONTINUOUS
10
0.674716
20
0.974716
11
0.673863
21
0.975993
0
LINE
8
BLACK
6
CONTINUOUS
10
0.673863
20
0.975993
11
0.673563
21
0.9775
0
LINE
8
BLACK
6
CONTINUOUS
10
0.673563
20
0.9775
11
0.673563
21
1.0375
0
LINE
8
BLACK
6
CONTINUOUS
10
0.673563
20
1.0375
11
0.673863
21
1.03901
0
LINE
8
BLACK
6
CONTINUOUS
10
0.673863
20
1.03901
11
0.674716
21
1.04028
0
LINE
8
BLACK
6
CONTINUOUS
10
0.674716
20
1.04028
11
0.675993
21
1.04114
0
LINE
8
BLACK
6
CONTINUOUS
10
0.675993
20
1.04114
11
0.6775
21
1.04144
0
LINE
8
BLACK
6
CONTINUOUS
10
0.6775
20
1.04144
11
0.7375
21
1.04144
0
LINE
8
BLACK
6
CONTINUOUS
10
0.7375
20
1.04144
11
0.739007
21
1.04114
0
LINE
8
BLACK
6
CONTINUOUS
10
0.456507
20
1.04864
11
0.457784
21
1.04778
0
LINE
8
BLACK
6
CONTINUOUS
10
0.457784
20
1.04778
11
0.458637
21
1.04651
0
LINE
8
BLACK
6
CONTINUOUS
10
0.458637
20
1.04651
11
0.458937
21
1.045
0
LINE
8
BLACK
6
CONTINUOUS
10
0.458937
20
1.045
11
0.458937
21
0.99
0
LINE
8
BLACK
6
CONTINUOUS
10
0.458937
20
0.99
11
0.458637
21
0.988493
0
LINE
8
BLACK
6
CONTINUOUS
10
0.458637
20
0.988493
11
0.457784
21
0.987216
0
LINE
8
BLACK
6
CONTINUOUS
10
0.457784
20
0.987216
11
0.456507
21
0.986363
0
LINE
8
BLACK
6
CONTINUOUS
10
0.456507
20
0.986363
11
0.455
21
0.986063
0
LINE
8
BLACK
6
CONTINUOUS
10
0.455
20
0.986063
11
0.454806
21
0.986063
0
LINE
8
BLACK
6
CONTINUOUS
10
0.454806
20
0.986063
11
0.420194
21
0.986063
0
LINE
8
BLACK
6
CONTINUOUS
10
0.420194
20
0.986063
11
0.42
21
0.986063
0
LINE
8
BLACK
6
CONTINUOUS
10
0.42
20
0.986063
11
0.418493
21
0.986363
0
LINE
8
BLACK
6
CONTINUOUS
10
0.418493
20
0.986363
11
0.417216
21
0.987216
0
LINE
8
BLACK
6
CONTINUOUS
10
0.417216
20
0.987216
11
0.416363
21
0.988493
0
LINE
8
BLACK
6
CONTINUOUS
10
0.416363
20
0.988493
11
0.416063
21
0.99
0
LINE
8
BLACK
6
CONTINUOUS
10
0.416063
20
0.99
11
0.416063
21
1.045
0
LINE
8
BLACK
6
CONTINUOUS
10
0.416063
20
1.045
11
0.416363
21
1.04651
0
LINE
8
BLACK
6
CONTINUOUS
10
0.416363
20
1.04651
11
0.417216
21
1.04778
0
LINE
8
BLACK
6
CONTINUOUS
10
0.417216
20
1.04778
11
0.418493
21
1.04864
0
LINE
8
BLACK
6
CONTINUOUS
10
0.418493
20
1.04864
11
0.42
21
1.04894
0
LINE
8
BLACK
6
CONTINUOUS
10
0.42
20
1.04894
11
0.455
21
1.04894
0
LINE
8
BLACK
6
CONTINUOUS
10
0.455
20
1.04894
11
0.456507
21
1.04864
0
LINE
8
BLACK
6
CONTINUOUS
10
0.531507
20
1.04864
11
0.532784
21
1.04778
0
LINE
8
BLACK
6
CONTINUOUS
10
0.532784
20
1.04778
11
0.533637
21
1.04651
0
LINE
8
BLACK
6
CONTINUOUS
10
0.533637
20
1.04651
11
0.533937
21
1.045
0
LINE
8
BLACK
6
CONTINUOUS
10
0.533937
20
1.045
11
0.533937
21
0.99
0
LINE
8
BLACK
6
CONTINUOUS
10
0.533937
20
0.99
11
0.533637
21
0.988493
0
LINE
8
BLACK
6
CONTINUOUS
10
0.533637
20
0.988493
11
0.532784
21
0.987216
0
LINE
8
BLACK
6
CONTINUOUS
10
0.532784
20
0.987216
11
0.531507
21
0.986363
0
LINE
8
BLACK
6
CONTINUOUS
10
0.531507
20
0.986363
11
0.53
21
0.986063
0
LINE
8
BLACK
6
CONTINUOUS
10
0.53
20
0.986063
11
0.529806
21
0.986063
0
LINE
8
BLACK
6
CONTINUOUS
10
0.529806
20
0.986063
11
0.495194
21
0.986063
0
LINE
8
BLACK
6
CONTINUOUS
10
0.495194
20
0.986063
11
0.495
21
0.986063
0
LINE
8
BLACK
6
CONTINUOUS
10
0.495
20
0.986063
11
0.493493
21
0.986363
0
LINE
8
BLACK
6
CONTINUOUS
10
0.493493
20
0.986363
11
0.492216
21
0.987216
0
LINE
8
BLACK
6
CONTINUOUS
10
0.492216
20
0.987216
11
0.491363
21
0.988493
0
LINE
8
BLACK
6
CONTINUOUS
10
0.491363
20
0.988493
11
0.491063
21
0.99
0
LINE
8
BLACK
6
CONTINUOUS
10
0.491063
20
0.99
11
0.491063
21
1.045
0
LINE
8
BLACK
6
CONTINUOUS
10
0.491063
20
1.045
11
0.491363
21
1.04651
0
LINE
8
BLACK
6
CONTINUOUS
10
0.491363
20
1.04651
11
0.492216
21
1.04778
0
LINE
8
BLACK
6
CONTINUOUS
10
0.492216
20
1.04778
11
0.493493
21
1.04864
0
LINE
8
BLACK
6
CONTINUOUS
10
0.493493
20
1.04864
11
0.495
21
1.04894
0
LINE
8
BLACK
6
CONTINUOUS
10
0.495
20
1.04894
11
0.53
21
1.04894
0
LINE
8
BLACK
6
CONTINUOUS
10
0.53
20
1.04894
11
0.531507
21
1.04864
0
LINE
8
BLACK
6
CONTINUOUS
10
0.144007
20
1.10114
11
0.145284
21
1.10028
0
LINE
8
BLACK
6
CONTINUOUS
10
0.145284
20
1.10028
11
0.146137
21
1.09901
0
LINE
8
BLACK
6
CONTINUOUS
10
0.146137
20
1.09901
11
0.146437
21
1.0975
0
LINE
8
BLACK
6
CONTINUOUS
10
0.146437
20
1.0975
11
0.146437
21
1.0375
0
LINE
8
BLACK
6
CONTINUOUS
10
0.146437
20
1.0375
11
0.146137
21
1.03599
0
LINE
8
BLACK
6
CONTINUOUS
10
0.146137
20
1.03599
11
0.145284
21
1.03472
0
LINE
8
BLACK
6
CONTINUOUS
10
0.145284
20
1.03472
11
0.144007
21
1.03386
0
LINE
8
BLACK
6
CONTINUOUS
10
0.144007
20
1.03386
11
0.1425
21
1.03356
0
LINE
8
BLACK
6
CONTINUOUS
10
0.1425
20
1.03356
11
0.142306
21
1.03356
0
LINE
8
BLACK
6
CONTINUOUS
10
0.142306
20
1.03356
11
0.0826938
21
1.03356
0
LINE
8
BLACK
6
CONTINUOUS
10
0.0826938
20
1.03356
11
0.0825
21
1.03356
0
LINE
8
BLACK
6
CONTINUOUS
10
0.0825
20
1.03356
11
0.0809934
21
1.03386
0
LINE
8
BLACK
6
CONTINUOUS
10
0.0809934
20
1.03386
11
0.0797161
21
1.03472
0
LINE
8
BLACK
6
CONTINUOUS
10
0.0797161
20
1.03472
11
0.0788627
21
1.03599
0
LINE
8
BLACK
6
CONTINUOUS
10
0.0788627
20
1.03599
11
0.078563
21
1.0375
0
LINE
8
BLACK
6
CONTINUOUS
10
0.078563
20
1.0375
11
0.078563
21
1.0975
0
LINE
8
BLACK
6
CONTINUOUS
10
0.078563
20
1.0975
11
0.0788627
21
1.09901
0
LINE
8
BLACK
6
CONTINUOUS
10
0.0788627
20
1.09901
11
0.0797161
21
1.10028
0
LINE
8
BLACK
6
CONTINUOUS
10
0.0797161
20
1.10028
11
0.0809934
21
1.10114
0
LINE
8
BLACK
6
CONTINUOUS
10
0.0809934
20
1.10114
11
0.0825
21
1.10144
0
LINE
8
BLACK
6
CONTINUOUS
10
0.0825
20
1.10144
11
0.1425
21
1.10144
0
LINE
8
BLACK
6
CONTINUOUS
10
0.1425
20
1.10144
11
0.144007
21
1.10114
0
LINE
8
BLACK
6
CONTINUOUS
10
0.244007
20
1.10114
11
0.245284
21
1.10028
0
LINE
8
BLACK
6
CONTINUOUS
10
0.245284
20
1.10028
11
0.246137
21
1.09901
0
LINE
8
BLACK
6
CONTINUOUS
10
0.246137
20
1.09901
11
0.246437
21
1.0975
0
LINE
8
BLACK
6
CONTINUOUS
10
0.246437
20
1.0975
11
0.246437
21
1.0375
0
LINE
8
BLACK
6
CONTINUOUS
10
0.246437
20
1.0375
11
0.246137
21
1.03599
0
LINE
8
BLACK
6
CONTINUOUS
10
0.246137
20
1.03599
11
0.245284
21
1.03472
0
LINE
8
BLACK
6
CONTINUOUS
10
0.245284
20
1.03472
11
0.244007
21
1.03386
0
LINE
8
BLACK
6
CONTINUOUS
10
0.244007
20
1.03386
11
0.2425
21
1.03356
0
LINE
8
BLACK
6
CONTINUOUS
10
0.2425
20
1.03356
11
0.242306
21
1.03356
0
LINE
8
BLACK
6
CONTINUOUS
10
0.242306
20
1.03356
11
0.182694
21
1.03356
0
LINE
8
BLACK
6
CONTINUOUS
10
0.182694
20
1.03356
11
0.1825
21
1.03356
0
LINE
8
BLACK
6
CONTINUOUS
10
0.1825
20
1.03356
11
0.180993
21
1.03386
0
LINE
8
BLACK
6
CONTINUOUS
10
0.180993
20
1.03386
11
0.179716
21
1.03472
0
LINE
8
BLACK
6
CONTINUOUS
10
0.179716
20
1.03472
11
0.178863
21
1.03599
0
LINE
8
BLACK
6
CONTINUOUS
10
0.178863
20
1.03599
11
0.178563
21
1.0375
0
LINE
8
BLACK
6
CONTINUOUS
10
0.178563
20
1.0375
11
0.178563
21
1.0975
0
LINE
8
BLACK
6
CONTINUOUS
10
0.178563
20
1.0975
11
0.178863
21
1.09901
0
LINE
8
BLACK
6
CONTINUOUS
10
0.178863
20
1.09901
11
0.179716
21
1.10028
0
LINE
8
BLACK
6
CONTINUOUS
10
0.179716
20
1.10028
11
0.180993
21
1.10114
0
LINE
8
BLACK
6
CONTINUOUS
10
0.180993
20
1.10114
11
0.1825
21
1.10144
0
LINE
8
BLACK
6
CONTINUOUS
10
0.1825
20
1.10144
11
0.2425
21
1.10144
0
LINE
8
BLACK
6
CONTINUOUS
10
0.2425
20
1.10144
11
0.244007
21
1.10114
0
LINE
8
BLACK
6
CONTINUOUS
10
0.344007
20
1.10114
11
0.345284
21
1.10028
0
LINE
8
BLACK
6
CONTINUOUS
10
0.345284
20
1.10028
11
0.346137
21
1.09901
0
LINE
8
BLACK
6
CONTINUOUS
10
0.346137
20
1.09901
11
0.346437
21
1.0975
0
LINE
8
BLACK
6
CONTINUOUS
10
0.346437
20
1.0975
11
0.346437
21
1.0375
0
LINE
8
BLACK
6
CONTINUOUS
10
0.346437
20
1.0375
11
0.346137
21
1.03599
0
LINE
8
BLACK
6
CONTINUOUS
10
0.346137
20
1.03599
11
0.345284
21
1.03472
0
LINE
8
BLACK
6
CONTINUOUS
10
0.345284
20
1.03472
11
0.344007
21
1.03386
0
LINE
8
BLACK
6
CONTINUOUS
10
0.344007
20
1.03386
11
0.3425
21
1.03356
0
LINE
8
BLACK
6
CONTINUOUS
10
0.3425
20
1.03356
11
0.342306
21
1.03356
0
LINE
8
BLACK
6
CONTINUOUS
10
0.342306
20
1.03356
11
0.282694
21
1.03356
0
LINE
8
BLACK
6
CONTINUOUS
10
0.282694
20
1.03356
11
0.2825
21
1.03356
0
LINE
8
BLACK
6
CONTINUOUS
10
0.2825
20
1.03356
11
0.280993
21
1.03386
0
LINE
8
BLACK
6
CONTINUOUS
10
0.280993
20
1.03386
11
0.279716
21
1.03472
0
LINE
8
BLACK
6
CONTINUOUS
10
0.279716
20
1.03472
11
0.278863
21
1.03599
0
LINE
8
BLACK
6
CONTINUOUS
10
0.278863
20
1.03599
11
0.278563
21
1.0375
0
LINE
8
BLACK
6
CONTINUOUS
10
0.278563
20
1.0375
11
0.278563
21
1.0975
0
LINE
8
BLACK
6
CONTINUOUS
10
0.278563
20
1.0975
11
0.278863
21
1.09901
0
LINE
8
BLACK
6
CONTINUOUS
10
0.278863
20
1.09901
11
0.279716
21
1.10028
0
LINE
8
BLACK
6
CONTINUOUS
10
0.279716
20
1.10028
11
0.280993
21
1.10114
0
LINE
8
BLACK
6
CONTINUOUS
10
0.280993
20
1.10114
11
0.2825
21
1.10144
0
LINE
8
BLACK
6
CONTINUOUS
10
0.2825
20
1.10144
11
0.3425
21
1.10144
0
LINE
8
BLACK
6
CONTINUOUS
10
0.3425
20
1.10144
11
0.344007
21
1.10114
0
LINE
8
BLACK
6
CONTINUOUS
10
0.639007
20
1.14114
11
0.640284
21
1.14028
0
LINE
8
BLACK
6
CONTINUOUS
10
0.640284
20
1.14028
11
0.641137
21
1.13901
0
LINE
8
BLACK
6
CONTINUOUS
10
0.641137
20
1.13901
11
0.641437
21
1.1375
0
LINE
8
BLACK
6
CONTINUOUS
10
0.641437
20
1.1375
11
0.641437
21
1.0775
0
LINE
8
BLACK
6
CONTINUOUS
10
0.641437
20
1.0775
11
0.641137
21
1.07599
0
LINE
8
BLACK
6
CONTINUOUS
10
0.641137
20
1.07599
11
0.640284
21
1.07472
0
LINE
8
BLACK
6
CONTINUOUS
10
0.640284
20
1.07472
11
0.639007
21
1.07386
0
LINE
8
BLACK
6
CONTINUOUS
10
0.639007
20
1.07386
11
0.6375
21
1.07356
0
LINE
8
BLACK
6
CONTINUOUS
10
0.6375
20
1.07356
11
0.637306
21
1.07356
0
LINE
8
BLACK
6
CONTINUOUS
10
0.637306
20
1.07356
11
0.577694
21
1.07356
0
LINE
8
BLACK
6
CONTINUOUS
10
0.577694
20
1.07356
11
0.5775
21
1.07356
0
LINE
8
BLACK
6
CONTINUOUS
10
0.5775
20
1.07356
11
0.575993
21
1.07386
0
LINE
8
BLACK
6
CONTINUOUS
10
0.575993
20
1.07386
11
0.574716
21
1.07472
0
LINE
8
BLACK
6
CONTINUOUS
10
0.574716
20
1.07472
11
0.573863
21
1.07599
0
LINE
8
BLACK
6
CONTINUOUS
10
0.573863
20
1.07599
11
0.573563
21
1.0775
0
LINE
8
BLACK
6
CONTINUOUS
10
0.573563
20
1.0775
11
0.573563
21
1.1375
0
LINE
8
BLACK
6
CONTINUOUS
10
0.573563
20
1.1375
11
0.573863
21
1.13901
0
LINE
8
BLACK
6
CONTINUOUS
10
0.573863
20
1.13901
11
0.574716
21
1.14028
0
LINE
8
BLACK
6
CONTINUOUS
10
0.574716
20
1.14028
11
0.575993
21
1.14114
0
LINE
8
BLACK
6
CONTINUOUS
10
0.575993
20
1.14114
11
0.5775
21
1.14144
0
LINE
8
BLACK
6
CONTINUOUS
10
0.5775
20
1.14144
11
0.6375
21
1.14144
0
LINE
8
BLACK
6
CONTINUOUS
10
0.6375
20
1.14144
11
0.639007
21
1.14114
0
LINE
8
BLACK
6
CONTINUOUS
10
0.739007
20
1.14114
11
0.740284
21
1.14028
0
LINE
8
BLACK
6
CONTINUOUS
10
0.740284
20
1.14028
11
0.741137
21
1.13901
0
LINE
8
BLACK
6
CONTINUOUS
10
0.741137
20
1.13901
11
0.741437
21
1.1375
0
LINE
8
BLACK
6
CONTINUOUS
10
0.741437
20
1.1375
11
0.741437
21
1.0775
0
LINE
8
BLACK
6
CONTINUOUS
10
0.741437
20
1.0775
11
0.741137
21
1.07599
0
LINE
8
BLACK
6
CONTINUOUS
10
0.741137
20
1.07599
11
0.740284
21
1.07472
0
LINE
8
BLACK
6
CONTINUOUS
10
0.740284
20
1.07472
11
0.739007
21
1.07386
0
LINE
8
BLACK
6
CONTINUOUS
10
0.739007
20
1.07386
11
0.7375
21
1.07356
0
LINE
8
BLACK
6
CONTINUOUS
10
0.7375
20
1.07356
11
0.737306
21
1.07356
0
LINE
8
BLACK
6
CONTINUOUS
10
0.737306
20
1.07356
11
0.677694
21
1.07356
0
LINE
8
BLACK
6
CONTINUOUS
10
0.677694
20
1.07356
11
0.6775
21
1.07356
0
LINE
8
BLACK
6
CONTINUOUS
10
0.6775
20
1.07356
11
0.675993
21
1.07386
0
LINE
8
BLACK
6
CONTINUOUS
10
0.675993
20
1.07386
11
0.674716
21
1.07472
0
LINE
8
BLACK
6
CONTINUOUS
10
0.674716
20
1.07472
11
0.673863
21
1.07599
0
LINE
8
BLACK
6
CONTINUOUS
10
0.673863
20
1.07599
11
0.673563
21
1.0775
0
LINE
8
BLACK
6
CONTINUOUS
10
0.673563
20
1.0775
11
0.673563
21
1.1375
0
LINE
8
BLACK
6
CONTINUOUS
10
0.673563
20
1.1375
11
0.673863
21
1.13901
0
LINE
8
BLACK
6
CONTINUOUS
10
0.673863
20
1.13901
11
0.674716
21
1.14028
0
LINE
8
BLACK
6
CONTINUOUS
10
0.674716
20
1.14028
11
0.675993
21
1.14114
0
LINE
8
BLACK
6
CONTINUOUS
10
0.675993
20
1.14114
11
0.6775
21
1.14144
0
LINE
8
BLACK
6
CONTINUOUS
10
0.6775
20
1.14144
11
0.7375
21
1.14144
0
LINE
8
BLACK
6
CONTINUOUS
10
0.7375
20
1.14144
11
0.739007
21
1.14114
0
LINE
8
BLACK
6
CONTINUOUS
10
0.456507
20
1.14114
11
0.457784
21
1.14028
0
LINE
8
BLACK
6
CONTINUOUS
10
0.457784
20
1.14028
11
0.458637
21
1.13901
0
LINE
8
BLACK
6
CONTINUOUS
10
0.458637
20
1.13901
11
0.458937
21
1.1375
0
LINE
8
BLACK
6
CONTINUOUS
10
0.458937
20
1.1375
11
0.458937
21
1.0825
0
LINE
8
BLACK
6
CONTINUOUS
10
0.458937
20
1.0825
11
0.458637
21
1.08099
0
LINE
8
BLACK
6
CONTINUOUS
10
0.458637
20
1.08099
11
0.457784
21
1.07972
0
LINE
8
BLACK
6
CONTINUOUS
10
0.457784
20
1.07972
11
0.456507
21
1.07886
0
LINE
8
BLACK
6
CONTINUOUS
10
0.456507
20
1.07886
11
0.455
21
1.07856
0
LINE
8
BLACK
6
CONTINUOUS
10
0.455
20
1.07856
11
0.454806
21
1.07856
0
LINE
8
BLACK
6
CONTINUOUS
10
0.454806
20
1.07856
11
0.420194
21
1.07856
0
LINE
8
BLACK
6
CONTINUOUS
10
0.420194
20
1.07856
11
0.42
21
1.07856
0
LINE
8
BLACK
6
CONTINUOUS
10
0.42
20
1.07856
11
0.418493
21
1.07886
0
LINE
8
BLACK
6
CONTINUOUS
10
0.418493
20
1.07886
11
0.417216
21
1.07972
0
LINE
8
BLACK
6
CONTINUOUS
10
0.417216
20
1.07972
11
0.416363
21
1.08099
0
LINE
8
BLACK
6
CONTINUOUS
10
0.416363
20
1.08099
11
0.416063
21
1.0825
0
LINE
8
BLACK
6
CONTINUOUS
10
0.416063
20
1.0825
11
0.416063
21
1.1375
0
LINE
8
BLACK
6
CONTINUOUS
10
0.416063
20
1.1375
11
0.416363
21
1.13901
0
LINE
8
BLACK
6
CONTINUOUS
10
0.416363
20
1.13901
11
0.417216
21
1.14028
0
LINE
8
BLACK
6
CONTINUOUS
10
0.417216
20
1.14028
11
0.418493
21
1.14114
0
LINE
8
BLACK
6
CONTINUOUS
10
0.418493
20
1.14114
11
0.42
21
1.14144
0
LINE
8
BLACK
6
CONTINUOUS
10
0.42
20
1.14144
11
0.455
21
1.14144
0
LINE
8
BLACK
6
CONTINUOUS
10
0.455
20
1.14144
11
0.456507
21
1.14114
0
LINE
8
BLACK
6
CONTINUOUS
10
0.531507
20
1.14114
11
0.532784
21
1.14028
0
LINE
8
BLACK
6
CONTINUOUS
10
0.532784
20
1.14028
11
0.533637
21
1.13901
0
LINE
8
BLACK
6
CONTINUOUS
10
0.533637
20
1.13901
11
0.533937
21
1.1375
0
LINE
8
BLACK
6
CONTINUOUS
10
0.533937
20
1.1375
11
0.533937
21
1.0825
0
LINE
8
BLACK
6
CONTINUOUS
10
0.533937
20
1.0825
11
0.533637
21
1.08099
0
LINE
8
BLACK
6
CONTINUOUS
10
0.533637
20
1.08099
11
0.532784
21
1.07972
0
LINE
8
BLACK
6
CONTINUOUS
10
0.532784
20
1.07972
11
0.531507
21
1.07886
0
LINE
8
BLACK
6
CONTINUOUS
10
0.531507
20
1.07886
11
0.53
21
1.07856
0
LINE
8
BLACK
6
CONTINUOUS
10
0.53
20
1.07856
11
0.529806
21
1.07856
0
LINE
8
BLACK
6
CONTINUOUS
10
0.529806
20
1.07856
11
0.495194
21
1.07856
0
LINE
8
BLACK
6
CONTINUOUS
10
0.495194
20
1.07856
11
0.495
21
1.07856
0
LINE
8
BLACK
6
CONTINUOUS
10
0.495
20
1.07856
11
0.493493
21
1.07886
0
LINE
8
BLACK
6
CONTINUOUS
10
0.493493
20
1.07886
11
0.492216
21
1.07972
0
LINE
8
BLACK
6
CONTINUOUS
10
0.492216
20
1.07972
11
0.491363
21
1.08099
0
LINE
8
BLACK
6
CONTINUOUS
10
0.491363
20
1.08099
11
0.491063
21
1.0825
0
LINE
8
BLACK
6
CONTINUOUS
10
0.491063
20
1.0825
11
0.491063
21
1.1375
0
LINE
8
BLACK
6
CONTINUOUS
10
0.491063
20
1.1375
11
0.491363
21
1.13901
0
LINE
8
BLACK
6
CONTINUOUS
10
0.491363
20
1.13901
11
0.492216
21
1.14028
0
LINE
8
BLACK
6
CONTINUOUS
10
0.492216
20
1.14028
11
0.493493
21
1.14114
0
LINE
8
BLACK
6
CONTINUOUS
10
0.493493
20
1.14114
11
0.495
21
1.14144
0
LINE
8
BLACK
6
CONTINUOUS
10
0.495
20
1.14144
11
0.53
21
1.14144
0
LINE
8
BLACK
6
CONTINUOUS
10
0.53
20
1.14144
11
0.531507
21
1.14114
0
LINE
8
BLACK
6
CONTINUOUS
10
0.144007
20
1.20114
11
0.145284
21
1.20028
0
LINE
8
BLACK
6
CONTINUOUS
10
0.145284
20
1.20028
11
0.146137
21
1.19901
0
LINE
8
BLACK
6
CONTINUOUS
10
0.146137
20
1.19901
11
0.146437
21
1.1975
0
LINE
8
BLACK
6
CONTINUOUS
10
0.146437
20
1.1975
11
0.146437
21
1.1375
0
LINE
8
BLACK
6
CONTINUOUS
10
0.146437
20
1.1375
11
0.146137
21
1.13599
0
LINE
8
BLACK
6
CONTINUOUS
10
0.146137
20
1.13599
11
0.145284
21
1.13472
0
LINE
8
BLACK
6
CONTINUOUS
10
0.145284
20
1.13472
11
0.144007
21
1.13386
0
LINE
8
BLACK
6
CONTINUOUS
10
0.144007
20
1.13386
11
0.1425
21
1.13356
0
LINE
8
BLACK
6
CONTINUOUS
10
0.1425
20
1.13356
11
0.142306
21
1.13356
0
LINE
8
BLACK
6
CONTINUOUS
10
0.142306
20
1.13356
11
0.0826938
21
1.13356
0
LINE
8
BLACK
6
CONTINUOUS
10
0.0826938
20
1.13356
11
0.0825
21
1.13356
0
LINE
8
BLACK
6
CONTINUOUS
10
0.0825
20
1.13356
11
0.0809934
21
1.13386
0
LINE
8
BLACK
6
CONTINUOUS
10
0.0809934
20
1.13386
11
0.0797161
21
1.13472
0
LINE
8
BLACK
6
CONTINUOUS
10
0.0797161
20
1.13472
11
0.0788627
21
1.13599
0
LINE
8
BLACK
6
CONTINUOUS
10
0.0788627
20
1.13599
11
0.078563
21
1.1375
0
LINE
8
BLACK
6
CONTINUOUS
10
0.078563
20
1.1375
11
0.078563
21
1.1975
0
LINE
8
BLACK
6
CONTINUOUS
10
0.078563
20
1.1975
11
0.0788627
21
1.19901
0
LINE
8
BLACK
6
CONTINUOUS
10
0.0788627
20
1.19901
11
0.0797161
21
1.20028
0
LINE
8
BLACK
6
CONTINUOUS
10
0.0797161
20
1.20028
11
0.0809934
21
1.20114
0
LINE
8
BLACK
6
CONTINUOUS
10
0.0809934
20
1.20114
11
0.0825
21
1.20144
0
LINE
8
BLACK
6
CONTINUOUS
10
0.0825
20
1.20144
11
0.1425
21
1.20144
0
LINE
8
BLACK
6
CONTINUOUS
10
0.1425
20
1.20144
11
0.144007
21
1.20114
0
LINE
8
BLACK
6
CONTINUOUS
10
0.244007
20
1.20114
11
0.245284
21
1.20028
0
LINE
8
BLACK
6
CONTINUOUS
10
0.245284
20
1.20028
11
0.246137
21
1.19901
0
LINE
8
BLACK
6
CONTINUOUS
10
0.246137
20
1.19901
11
0.246437
21
1.1975
0
LINE
8
BLACK
6
CONTINUOUS
10
0.246437
20
1.1975
11
0.246437
21
1.1375
0
LINE
8
BLACK
6
CONTINUOUS
10
0.246437
20
1.1375
11
0.246137
21
1.13599
0
LINE
8
BLACK
6
CONTINUOUS
10
0.246137
20
1.13599
11
0.245284
21
1.13472
0
LINE
8
BLACK
6
CONTINUOUS
10
0.245284
20
1.13472
11
0.244007
21
1.13386
0
LINE
8
BLACK
6
CONTINUOUS
10
0.244007
20
1.13386
11
0.2425
21
1.13356
0
LINE
8
BLACK
6
CONTINUOUS
10
0.2425
20
1.13356
11
0.242306
21
1.13356
0
LINE
8
BLACK
6
CONTINUOUS
10
0.242306
20
1.13356
11
0.182694
21
1.13356
0
LINE
8
BLACK
6
CONTINUOUS
10
0.182694
20
1.13356
11
0.1825
21
1.13356
0
LINE
8
BLACK
6
CONTINUOUS
10
0.1825
20
1.13356
11
0.180993
21
1.13386
0
LINE
8
BLACK
6
CONTINUOUS
10
0.180993
20
1.13386
11
0.179716
21
1.13472
0
LINE
8
BLACK
6
CONTINUOUS
10
0.179716
20
1.13472
11
0.178863
21
1.13599
0
LINE
8
BLACK
6
CONTINUOUS
10
0.178863
20
1.13599
11
0.178563
21
1.1375
0
LINE
8
BLACK
6
CONTINUOUS
10
0.178563
20
1.1375
11
0.178563
21
1.1975
0
LINE
8
BLACK
6
CONTINUOUS
10
0.178563
20
1.1975
11
0.178863
21
1.19901
0
LINE
8
BLACK
6
CONTINUOUS
10
0.178863
20
1.19901
11
0.179716
21
1.20028
0
LINE
8
BLACK
6
CONTINUOUS
10
0.179716
20
1.20028
11
0.180993
21
1.20114
0
LINE
8
BLACK
6
CONTINUOUS
10
0.180993
20
1.20114
11
0.1825
21
1.20144
0
LINE
8
BLACK
6
CONTINUOUS
10
0.1825
20
1.20144
11
0.2425
21
1.20144
0
LINE
8
BLACK
6
CONTINUOUS
10
0.2425
20
1.20144
11
0.244007
21
1.20114
0
LINE
8
BLACK
6
CONTINUOUS
10
0.344007
20
1.20114
11
0.345284
21
1.20028
0
LINE
8
BLACK
6
CONTINUOUS
10
0.345284
20
1.20028
11
0.346137
21
1.19901
0
LINE
8
BLACK
6
CONTINUOUS
10
0.346137
20
1.19901
11
0.346437
21
1.1975
0
LINE
8
BLACK
6
CONTINUOUS
10
0.346437
20
1.1975
11
0.346437
21
1.1375
0
LINE
8
BLACK
6
CONTINUOUS
10
0.346437
20
1.1375
11
0.346137
21
1.13599
0
LINE
8
BLACK
6
CONTINUOUS
10
0.346137
20
1.13599
11
0.345284
21
1.13472
0
LINE
8
BLACK
6
CONTINUOUS
10
0.345284
20
1.13472
11
0.344007
21
1.13386
0
LINE
8
BLACK
6
CONTINUOUS
10
0.344007
20
1.13386
11
0.3425
21
1.13356
0
LINE
8
BLACK
6
CONTINUOUS
10
0.3425
20
1.13356
11
0.342306
21
1.13356
0
LINE
8
BLACK
6
CONTINUOUS
10
0.342306
20
1.13356
11
0.282694
21
1.13356
0
LINE
8
BLACK
6
CONTINUOUS
10
0.282694
20
1.13356
11
0.2825
21
1.13356
0
LINE
8
BLACK
6
CONTINUOUS
10
0.2825
20
1.13356
11
0.280993
21
1.13386
0
LINE
8
BLACK
6
CONTINUOUS
10
0.280993
20
1.13386
11
0.279716
21
1.13472
0
LINE
8
BLACK
6
CONTINUOUS
10
0.279716
20
1.13472
11
0.278863
21
1.13599
0
LINE
8
BLACK
6
CONTINUOUS
10
0.278863
20
1.13599
11
0.278563
21
1.1375
0
LINE
8
BLACK
6
CONTINUOUS
10
0.278563
20
1.1375
11
0.278563
21
1.1975
0
LINE
8
BLACK
6
CONTINUOUS
10
0.278563
20
1.1975
11
0.278863
21
1.19901
0
LINE
8
BLACK
6
CONTINUOUS
10
0.278863
20
1.19901
11
0.279716
21
1.20028
0
LINE
8
BLACK
6
CONTINUOUS
10
0.279716
20
1.20028
11
0.280993
21
1.20114
0
LINE
8
BLACK
6
CONTINUOUS
10
0.280993
20
1.20114
11
0.2825
21
1.20144
0
LINE
8
BLACK
6
CONTINUOUS
10
0.2825
20
1.20144
11
0.3425
21
1.20144
0
LINE
8
BLACK
6
CONTINUOUS
10
0.3425
20
1.20144
11
0.344007
21
1.20114
0
LINE
8
BLACK
6
CONTINUOUS
10
0.213665
20
1.52128
11
0.227158
21
1.51899
0
LINE
8
BLACK
6
CONTINUOUS
10
0.227158
20
1.51899
11
0.24031
21
1.5152
0
LINE
8
BLACK
6
CONTINUOUS
10
0.24031
20
1.5152
11
0.252954
21
1.50996
0
LINE
8
BLACK
6
CONTINUOUS
10
0.252954
20
1.50996
11
0.264933
21
1.50334
0
LINE
8
BLACK
6
CONTINUOUS
10
0.264933
20
1.50334
11
0.276095
21
1.49542
0
LINE
8
BLACK
6
CONTINUOUS
10
0.276095
20
1.49542
11
0.2863
21
1.4863
0
LINE
8
BLACK
6
CONTINUOUS
10
0.2863
20
1.4863
11
0.29542
21
1.4761
0
LINE
8
BLACK
6
CONTINUOUS
10
0.29542
20
1.4761
11
0.30334
21
1.46493
0
LINE
8
BLACK
6
CONTINUOUS
10
0.30334
20
1.46493
11
0.309961
21
1.45295
0
LINE
8
BLACK
6
CONTINUOUS
10
0.309961
20
1.45295
11
0.315198
21
1.44031
0
LINE
8
BLACK
6
CONTINUOUS
10
0.315198
20
1.44031
11
0.318987
21
1.42716
0
LINE
8
BLACK
6
CONTINUOUS
10
0.318987
20
1.42716
11
0.32128
21
1.41366
0
LINE
8
BLACK
6
CONTINUOUS
10
0.32128
20
1.41366
11
0.322047
21
1.4
0
LINE
8
BLACK
6
CONTINUOUS
10
0.322047
20
1.4
11
0.32128
21
1.38634
0
LINE
8
BLACK
6
CONTINUOUS
10
0.32128
20
1.38634
11
0.318987
21
1.37284
0
LINE
8
BLACK
6
CONTINUOUS
10
0.318987
20
1.37284
11
0.315198
21
1.35969
0
LINE
8
BLACK
6
CONTINUOUS
10
0.315198
20
1.35969
11
0.309961
21
1.34705
0
LINE
8
BLACK
6
CONTINUOUS
10
0.309961
20
1.34705
11
0.30334
21
1.33507
0
LINE
8
BLACK
6
CONTINUOUS
10
0.30334
20
1.33507
11
0.29542
21
1.3239
0
LINE
8
BLACK
6
CONTINUOUS
10
0.29542
20
1.3239
11
0.2863
21
1.3137
0
LINE
8
BLACK
6
CONTINUOUS
10
0.2863
20
1.3137
11
0.276095
21
1.30458
0
LINE
8
BLACK
6
CONTINUOUS
10
0.276095
20
1.30458
11
0.264933
21
1.29666
0
LINE
8
BLACK
6
CONTINUOUS
10
0.264933
20
1.29666
11
0.252954
21
1.29004
0
LINE
8
BLACK
6
CONTINUOUS
10
0.252954
20
1.29004
11
0.24031
21
1.2848
0
LINE
8
BLACK
6
CONTINUOUS
10
0.24031
20
1.2848
11
0.227158
21
1.28101
0
LINE
8
BLACK
6
CONTINUOUS
10
0.227158
20
1.28101
11
0.213665
21
1.27872
0
LINE
8
BLACK
6
CONTINUOUS
10
0.213665
20
1.27872
11
0.2
21
1.27795
0
LINE
8
BLACK
6
CONTINUOUS
10
0.2
20
1.27795
11
0.186335
21
1.27872
0
LINE
8
BLACK
6
CONTINUOUS
10
0.186335
20
1.27872
11
0.172842
21
1.28101
0
LINE
8
BLACK
6
CONTINUOUS
10
0.172842
20
1.28101
11
0.15969
21
1.2848
0
LINE
8
BLACK
6
CONTINUOUS
10
0.15969
20
1.2848
11
0.147046
21
1.29004
0
LINE
8
BLACK
6
CONTINUOUS
10
0.147046
20
1.29004
11
0.135067
21
1.29666
0
LINE
8
BLACK
6
CONTINUOUS
10
0.135067
20
1.29666
11
0.123905
21
1.30458
0
LINE
8
BLACK
6
CONTINUOUS
10
0.123905
20
1.30458
11
0.1137
21
1.3137
0
LINE
8
BLACK
6
CONTINUOUS
10
0.1137
20
1.3137
11
0.10458
21
1.3239
0
LINE
8
BLACK
6
CONTINUOUS
10
0.10458
20
1.3239
11
0.0966596
21
1.33507
0
LINE
8
BLACK
6
CONTINUOUS
10
0.0966596
20
1.33507
11
0.0900393
21
1.34705
0
LINE
8
BLACK
6
CONTINUOUS
10
0.0900393
20
1.34705
11
0.0848017
21
1.35969
0
LINE
8
BLACK
6
CONTINUOUS
10
0.0848017
20
1.35969
11
0.0810127
21
1.37284
0
LINE
8
BLACK
6
CONTINUOUS
10
0.0810127
20
1.37284
11
0.0787202
21
1.38634
0
LINE
8
BLACK
6
CONTINUOUS
10
0.0787202
20
1.38634
11
0.0779528
21
1.4
0
LINE
8
BLACK
6
CONTINUOUS
10
0.0779528
20
1.4
11
0.0787202
21
1.41366
0
LINE
8
BLACK
6
CONTINUOUS
10
0.0787202
20
1.41366
11
0.0810127
21
1.42716
0
LINE
8
BLACK
6
CONTINUOUS
10
0.0810127
20
1.42716
11
0.0848017
21
1.44031
0
LINE
8
BLACK
6
CONTINUOUS
10
0.0848017
20
1.44031
11
0.0900393
21
1.45295
0
LINE
8
BLACK
6
CONTINUOUS
10
0.0900393
20
1.45295
11
0.0966596
21
1.46493
0
LINE
8
BLACK
6
CONTINUOUS
10
0.0966596
20
1.46493
11
0.10458
21
1.4761
0
LINE
8
BLACK
6
CONTINUOUS
10
0.10458
20
1.4761
11
0.1137
21
1.4863
0
LINE
8
BLACK
6
CONTINUOUS
10
0.1137
20
1.4863
11
0.123905
21
1.49542
0
LINE
8
BLACK
6
CONTINUOUS
10
0.123905
20
1.49542
11
0.135067
21
1.50334
0
LINE
8
BLACK
6
CONTINUOUS
10
0.135067
20
1.50334
11
0.147046
21
1.50996
0
LINE
8
BLACK
6
CONTINUOUS
10
0.147046
20
1.50996
11
0.15969
21
1.5152
0
LINE
8
BLACK
6
CONTINUOUS
10
0.15969
20
1.5152
11
0.172842
21
1.51899
0
LINE
8
BLACK
6
CONTINUOUS
10
0.172842
20
1.51899
11
0.186335
21
1.52128
0
LINE
8
BLACK
6
CONTINUOUS
10
0.186335
20
1.52128
11
0.2
21
1.52205
0
LINE
8
BLACK
6
CONTINUOUS
10
0.2
20
1.52205
11
0.213665
21
1.52128
0
LINE
8
BLACK
6
CONTINUOUS
10
0.613665
20
1.52128
11
0.627158
21
1.51899
0
LINE
8
BLACK
6
CONTINUOUS
10
0.627158
20
1.51899
11
0.64031
21
1.5152
0
LINE
8
BLACK
6
CONTINUOUS
10
0.64031
20
1.5152
11
0.652954
21
1.50996
0
LINE
8
BLACK
6
CONTINUOUS
10
0.652954
20
1.50996
11
0.664933
21
1.50334
0
LINE
8
BLACK
6
CONTINUOUS
10
0.664933
20
1.50334
11
0.676095
21
1.49542
0
LINE
8
BLACK
6
CONTINUOUS
10
0.676095
20
1.49542
11
0.6863
21
1.4863
0
LINE
8
BLACK
6
CONTINUOUS
10
0.6863
20
1.4863
11
0.69542
21
1.4761
0
LINE
8
BLACK
6
CONTINUOUS
10
0.69542
20
1.4761
11
0.70334
21
1.46493
0
LINE
8
BLACK
6
CONTINUOUS
10
0.70334
20
1.46493
11
0.709961
21
1.45295
0
LINE
8
BLACK
6
CONTINUOUS
10
0.709961
20
1.45295
11
0.715198
21
1.44031
0
LINE
8
BLACK
6
CONTINUOUS
10
0.715198
20
1.44031
11
0.718987
21
1.42716
0
LINE
8
BLACK
6
CONTINUOUS
10
0.718987
20
1.42716
11
0.72128
21
1.41366
0
LINE
8
BLACK
6
CONTINUOUS
10
0.72128
20
1.41366
11
0.722047
21
1.4
0
LINE
8
BLACK
6
CONTINUOUS
10
0.722047
20
1.4
11
0.72128
21
1.38634
0
LINE
8
BLACK
6
CONTINUOUS
10
0.72128
20
1.38634
11
0.718987
21
1.37284
0
LINE
8
BLACK
6
CONTINUOUS
10
0.718987
20
1.37284
11
0.715198
21
1.35969
0
LINE
8
BLACK
6
CONTINUOUS
10
0.715198
20
1.35969
11
0.709961
21
1.34705
0
LINE
8
BLACK
6
CONTINUOUS
10
0.709961
20
1.34705
11
0.70334
21
1.33507
0
LINE
8
BLACK
6
CONTINUOUS
10
0.70334
20
1.33507
11
0.69542
21
1.3239
0
LINE
8
BLACK
6
CONTINUOUS
10
0.69542
20
1.3239
11
0.6863
21
1.3137
0
LINE
8
BLACK
6
CONTINUOUS
10
0.6863
20
1.3137
11
0.676095
21
1.30458
0
LINE
8
BLACK
6
CONTINUOUS
10
0.676095
20
1.30458
11
0.664933
21
1.29666
0
LINE
8
BLACK
6
CONTINUOUS
10
0.664933
20
1.29666
11
0.652954
21
1.29004
0
LINE
8
BLACK
6
CONTINUOUS
10
0.652954
20
1.29004
11
0.64031
21
1.2848
0
LINE
8
BLACK
6
CONTINUOUS
10
0.64031
20
1.2848
11
0.627158
21
1.28101
0
LINE
8
BLACK
6
CONTINUOUS
10
0.627158
20
1.28101
11
0.613665
21
1.27872
0
LINE
8
BLACK
6
CONTINUOUS
10
0.613665
20
1.27872
11
0.6
21
1.27795
0
LINE
8
BLACK
6
CONTINUOUS
10
0.6
20
1.27795
11
0.586335
21
1.27872
0
LINE
8
BLACK
6
CONTINUOUS
10
0.586335
20
1.27872
11
0.572842
21
1.28101
0
LINE
8
BLACK
6
CONTINUOUS
10
0.572842
20
1.28101
11
0.55969
21
1.2848
0
LINE
8
BLACK
6
CONTINUOUS
10
0.55969
20
1.2848
11
0.547046
21
1.29004
0
LINE
8
BLACK
6
CONTINUOUS
10
0.547046
20
1.29004
11
0.535067
21
1.29666
0
LINE
8
BLACK
6
CONTINUOUS
10
0.535067
20
1.29666
11
0.523905
21
1.30458
0
LINE
8
BLACK
6
CONTINUOUS
10
0.523905
20
1.30458
11
0.5137
21
1.3137
0
LINE
8
BLACK
6
CONTINUOUS
10
0.5137
20
1.3137
11
0.50458
21
1.3239
0
LINE
8
BLACK
6
CONTINUOUS
10
0.50458
20
1.3239
11
0.49666
21
1.33507
0
LINE
8
BLACK
6
CONTINUOUS
10
0.49666
20
1.33507
11
0.490039
21
1.34705
0
LINE
8
BLACK
6
CONTINUOUS
10
0.490039
20
1.34705
11
0.484802
21
1.35969
0
LINE
8
BLACK
6
CONTINUOUS
10
0.484802
20
1.35969
11
0.481013
21
1.37284
0
LINE
8
BLACK
6
CONTINUOUS
10
0.481013
20
1.37284
11
0.47872
21
1.38634
0
LINE
8
BLACK
6
CONTINUOUS
10
0.47872
20
1.38634
11
0.477953
21
1.4
0
LINE
8
BLACK
6
CONTINUOUS
10
0.477953
20
1.4
11
0.47872
21
1.41366
0
LINE
8
BLACK
6
CONTINUOUS
10
0.47872
20
1.41366
11
0.481013
21
1.42716
0
LINE
8
BLACK
6
CONTINUOUS
10
0.481013
20
1.42716
11
0.484802
21
1.44031
0
LINE
8
BLACK
6
CONTINUOUS
10
0.484802
20
1.44031
11
0.490039
21
1.45295
0
LINE
8
BLACK
6
CONTINUOUS
10
0.490039
20
1.45295
11
0.49666
21
1.46493
0
LINE
8
BLACK
6
CONTINUOUS
10
0.49666
20
1.46493
11
0.50458
21
1.4761
0
LINE
8
BLACK
6
CONTINUOUS
10
0.50458
20
1.4761
11
0.5137
21
1.4863
0
LINE
8
BLACK
6
CONTINUOUS
10
0.5137
20
1.4863
11
0.523905
21
1.49542
0
LINE
8
BLACK
6
CONTINUOUS
10
0.523905
20
1.49542
11
0.535067
21
1.50334
0
LINE
8
BLACK
6
CONTINUOUS
10
0.535067
20
1.50334
11
0.547046
21
1.50996
0
LINE
8
BLACK
6
CONTINUOUS
10
0.547046
20
1.50996
11
0.55969
21
1.5152
0
LINE
8
BLACK
6
CONTINUOUS
10
0.55969
20
1.5152
11
0.572842
21
1.51899
0
LINE
8
BLACK
6
CONTINUOUS
10
0.572842
20
1.51899
11
0.586335
21
1.52128
0
LINE
8
BLACK
6
CONTINUOUS
10
0.586335
20
1.52128
11
0.6
21
1.52205
0
LINE
8
BLACK
6
CONTINUOUS
10
0.6
20
1.52205
11
0.613665
21
1.52128
  0
ENDSEC
  0
EOF
