  0
SECTION
  2
HEADER
  9
$ANGBASE
  50
0.0
  9
$ANGDIR
  70
1
  9
$MEASUREMENT
  70
0
  0
ENDSEC
  0
SECTION
  2
TABLES
  0
TABLE
  2
LTYPE
  70
4
  0
LTYPE
  5
40F
  2
CONTINUOUS
  70
0
  3
Solid line
  72
65
  73
0
  40
0.0
  0
LTYPE
  5
410
  2
DASHDOT
 70
0
  3
Dash Dot ____ _ ____ _
 72
65
 73
4
 40
2.0
 49
1.25
 49
-0.25
 49
0.25
 49
-0.25
  0
LTYPE
  5
411
  2
DASHED
 70
0
  3
Dashed __ __ __ __ __
 72
65
 73
2
 40
0.75
 49
0.5
 49
-0.25
  0
LTYPE
  5
43B
  2
DOTTED
 70
0
  3
Dotted .  .  .  .
 72
65
 73
2
 40
0.2
 49
0.0
 49
-0.2
  0
ENDTAB
  0
TABLE
  2
STYLE
  70
4
  0
STYLE
  2
KICAD
  70
0
  40
0
  41
1
  42
1
  50
0
  71
0
  3
isocp.shx
  0
STYLE
  2
KICADB
  70
0
  40
0
  41
1
  42
1
  50
0
  71
0
  3
isocp.shx
  0
STYLE
  2
KICADI
  70
0
  40
0
  41
1
  42
1
  50
15
  71
0
  3
isocp.shx
  0
STYLE
  2
KICADBI
  70
0
  40
0
  41
1
  42
1
  50
15
  71
0
  3
isocp.shx
  0
ENDTAB
  0
TABLE
  2
LAYER
  70
1
  0
LAYER
  2
BLACK
  70
0
  62
7
  6
CONTINUOUS
  0
ENDTAB
  0
ENDSEC
  0
SECTION
  2
ENTITIES
0
LINE
8
BLACK
6
CONTINUOUS
10
0.11
20
0.559311
11
0.15
21
0.559311
0
LINE
8
BLACK
6
CONTINUOUS
10
0.15
20
0.559311
11
0.15
21
0.5775
0
LINE
8
BLACK
6
CONTINUOUS
10
0.15
20
0.5775
11
0.21
21
0.5775
0
LINE
8
BLACK
6
CONTINUOUS
10
0.21
20
0.5775
11
0.21
21
0.559311
0
LINE
8
BLACK
6
CONTINUOUS
10
0.21
20
0.559311
11
0.25
21
0.559311
0
LINE
8
BLACK
6
CONTINUOUS
10
0.25
20
0.559311
11
0.25
21
0.5775
0
LINE
8
BLACK
6
CONTINUOUS
10
0.25
20
0.5775
11
0.31
21
0.5775
0
LINE
8
BLACK
6
CONTINUOUS
10
0.31
20
0.5775
11
0.31
21
0.559311
0
LINE
8
BLACK
6
CONTINUOUS
10
0.31
20
0.559311
11
0.35
21
0.559311
0
LINE
8
BLACK
6
CONTINUOUS
10
0.35
20
0.559311
11
0.35
21
0.5775
0
LINE
8
BLACK
6
CONTINUOUS
10
0.35
20
0.5775
11
0.41
21
0.5775
0
LINE
8
BLACK
6
CONTINUOUS
10
0.41
20
0.5775
11
0.41
21
0.559311
0
LINE
8
BLACK
6
CONTINUOUS
10
0.41
20
0.559311
11
0.45
21
0.559311
0
LINE
8
BLACK
6
CONTINUOUS
10
0.45
20
0.559311
11
0.45
21
0.5775
0
LINE
8
BLACK
6
CONTINUOUS
10
0.45
20
0.5775
11
0.51
21
0.5775
0
LINE
8
BLACK
6
CONTINUOUS
10
0.51
20
0.5775
11
0.51
21
0.559311
0
LINE
8
BLACK
6
CONTINUOUS
10
0.51
20
0.559311
11
0.55
21
0.559311
0
LINE
8
BLACK
6
CONTINUOUS
10
0.55
20
0.559311
11
0.55
21
0.5775
0
LINE
8
BLACK
6
CONTINUOUS
10
0.55
20
0.5775
11
0.61
21
0.5775
0
LINE
8
BLACK
6
CONTINUOUS
10
0.61
20
0.5775
11
0.61
21
0.5175
0
LINE
8
BLACK
6
CONTINUOUS
10
0.61
20
0.5175
11
0.55
21
0.5175
0
LINE
8
BLACK
6
CONTINUOUS
10
0.55
20
0.5175
11
0.55
21
0.535689
0
LINE
8
BLACK
6
CONTINUOUS
10
0.55
20
0.535689
11
0.51
21
0.535689
0
LINE
8
BLACK
6
CONTINUOUS
10
0.51
20
0.535689
11
0.51
21
0.5175
0
LINE
8
BLACK
6
CONTINUOUS
10
0.51
20
0.5175
11
0.45
21
0.5175
0
LINE
8
BLACK
6
CONTINUOUS
10
0.45
20
0.5175
11
0.45
21
0.535689
0
LINE
8
BLACK
6
CONTINUOUS
10
0.45
20
0.535689
11
0.41
21
0.535689
0
LINE
8
BLACK
6
CONTINUOUS
10
0.41
20
0.535689
11
0.41
21
0.5175
0
LINE
8
BLACK
6
CONTINUOUS
10
0.41
20
0.5175
11
0.35
21
0.5175
0
LINE
8
BLACK
6
CONTINUOUS
10
0.35
20
0.5175
11
0.35
21
0.535689
0
LINE
8
BLACK
6
CONTINUOUS
10
0.35
20
0.535689
11
0.31
21
0.535689
0
LINE
8
BLACK
6
CONTINUOUS
10
0.31
20
0.535689
11
0.31
21
0.5175
0
LINE
8
BLACK
6
CONTINUOUS
10
0.31
20
0.5175
11
0.25
21
0.5175
0
LINE
8
BLACK
6
CONTINUOUS
10
0.25
20
0.5175
11
0.25
21
0.535689
0
LINE
8
BLACK
6
CONTINUOUS
10
0.25
20
0.535689
11
0.21
21
0.535689
0
LINE
8
BLACK
6
CONTINUOUS
10
0.21
20
0.535689
11
0.21
21
0.5175
0
LINE
8
BLACK
6
CONTINUOUS
10
0.21
20
0.5175
11
0.15
21
0.5175
0
LINE
8
BLACK
6
CONTINUOUS
10
0.15
20
0.5175
11
0.15
21
0.535689
0
LINE
8
BLACK
6
CONTINUOUS
10
0.15
20
0.535689
11
0.11
21
0.535689
0
LINE
8
BLACK
6
CONTINUOUS
10
0.11
20
0.535689
11
0.11
21
0.5175
0
LINE
8
BLACK
6
CONTINUOUS
10
0.11
20
0.5175
11
0.05
21
0.5175
0
LINE
8
BLACK
6
CONTINUOUS
10
0.05
20
0.5175
11
0.05
21
0.5775
0
LINE
8
BLACK
6
CONTINUOUS
10
0.05
20
0.5775
11
0.11
21
0.5775
0
LINE
8
BLACK
6
CONTINUOUS
10
0.11
20
0.5775
11
0.11
21
0.559311
0
LINE
8
BLACK
6
CONTINUOUS
10
0.672366
20
0.714977
11
0.676756
21
0.71274
0
LINE
8
BLACK
6
CONTINUOUS
10
0.676756
20
0.71274
11
0.68024
21
0.709256
0
LINE
8
BLACK
6
CONTINUOUS
10
0.68024
20
0.709256
11
0.682477
21
0.704866
0
LINE
8
BLACK
6
CONTINUOUS
10
0.682477
20
0.704866
11
0.683248
21
0.7
0
LINE
8
BLACK
6
CONTINUOUS
10
0.683248
20
0.7
11
0.682477
21
0.695134
0
LINE
8
BLACK
6
CONTINUOUS
10
0.682477
20
0.695134
11
0.68024
21
0.690744
0
LINE
8
BLACK
6
CONTINUOUS
10
0.68024
20
0.690744
11
0.679311
21
0.689814
0
LINE
8
BLACK
6
CONTINUOUS
10
0.679311
20
0.689814
11
0.679311
21
0.6725
0
LINE
8
BLACK
6
CONTINUOUS
10
0.679311
20
0.6725
11
0.69
21
0.6725
0
LINE
8
BLACK
6
CONTINUOUS
10
0.69
20
0.6725
11
0.69
21
0.6175
0
LINE
8
BLACK
6
CONTINUOUS
10
0.69
20
0.6175
11
0.655
21
0.6175
0
LINE
8
BLACK
6
CONTINUOUS
10
0.655
20
0.6175
11
0.655
21
0.635689
0
LINE
8
BLACK
6
CONTINUOUS
10
0.655
20
0.635689
11
0.61
21
0.635689
0
LINE
8
BLACK
6
CONTINUOUS
10
0.61
20
0.635689
11
0.61
21
0.6175
0
LINE
8
BLACK
6
CONTINUOUS
10
0.61
20
0.6175
11
0.55
21
0.6175
0
LINE
8
BLACK
6
CONTINUOUS
10
0.55
20
0.6175
11
0.55
21
0.635689
0
LINE
8
BLACK
6
CONTINUOUS
10
0.55
20
0.635689
11
0.51
21
0.635689
0
LINE
8
BLACK
6
CONTINUOUS
10
0.51
20
0.635689
11
0.51
21
0.6175
0
LINE
8
BLACK
6
CONTINUOUS
10
0.51
20
0.6175
11
0.45
21
0.6175
0
LINE
8
BLACK
6
CONTINUOUS
10
0.45
20
0.6175
11
0.45
21
0.635689
0
LINE
8
BLACK
6
CONTINUOUS
10
0.45
20
0.635689
11
0.41
21
0.635689
0
LINE
8
BLACK
6
CONTINUOUS
10
0.41
20
0.635689
11
0.41
21
0.6175
0
LINE
8
BLACK
6
CONTINUOUS
10
0.41
20
0.6175
11
0.35
21
0.6175
0
LINE
8
BLACK
6
CONTINUOUS
10
0.35
20
0.6175
11
0.35
21
0.635689
0
LINE
8
BLACK
6
CONTINUOUS
10
0.35
20
0.635689
11
0.31
21
0.635689
0
LINE
8
BLACK
6
CONTINUOUS
10
0.31
20
0.635689
11
0.31
21
0.6175
0
LINE
8
BLACK
6
CONTINUOUS
10
0.31
20
0.6175
11
0.25
21
0.6175
0
LINE
8
BLACK
6
CONTINUOUS
10
0.25
20
0.6175
11
0.25
21
0.635689
0
LINE
8
BLACK
6
CONTINUOUS
10
0.25
20
0.635689
11
0.21
21
0.635689
0
LINE
8
BLACK
6
CONTINUOUS
10
0.21
20
0.635689
11
0.21
21
0.6175
0
LINE
8
BLACK
6
CONTINUOUS
10
0.21
20
0.6175
11
0.15
21
0.6175
0
LINE
8
BLACK
6
CONTINUOUS
10
0.15
20
0.6175
11
0.15
21
0.635689
0
LINE
8
BLACK
6
CONTINUOUS
10
0.15
20
0.635689
11
0.11
21
0.635689
0
LINE
8
BLACK
6
CONTINUOUS
10
0.11
20
0.635689
11
0.11
21
0.6175
0
LINE
8
BLACK
6
CONTINUOUS
10
0.11
20
0.6175
11
0.05
21
0.6175
0
LINE
8
BLACK
6
CONTINUOUS
10
0.05
20
0.6175
11
0.05
21
0.6775
0
LINE
8
BLACK
6
CONTINUOUS
10
0.05
20
0.6775
11
0.11
21
0.6775
0
LINE
8
BLACK
6
CONTINUOUS
10
0.11
20
0.6775
11
0.11
21
0.659311
0
LINE
8
BLACK
6
CONTINUOUS
10
0.11
20
0.659311
11
0.15
21
0.659311
0
LINE
8
BLACK
6
CONTINUOUS
10
0.15
20
0.659311
11
0.15
21
0.6775
0
LINE
8
BLACK
6
CONTINUOUS
10
0.15
20
0.6775
11
0.21
21
0.6775
0
LINE
8
BLACK
6
CONTINUOUS
10
0.21
20
0.6775
11
0.21
21
0.659311
0
LINE
8
BLACK
6
CONTINUOUS
10
0.21
20
0.659311
11
0.25
21
0.659311
0
LINE
8
BLACK
6
CONTINUOUS
10
0.25
20
0.659311
11
0.25
21
0.6775
0
LINE
8
BLACK
6
CONTINUOUS
10
0.25
20
0.6775
11
0.31
21
0.6775
0
LINE
8
BLACK
6
CONTINUOUS
10
0.31
20
0.6775
11
0.31
21
0.659311
0
LINE
8
BLACK
6
CONTINUOUS
10
0.31
20
0.659311
11
0.315
21
0.659311
0
LINE
8
BLACK
6
CONTINUOUS
10
0.315
20
0.659311
11
0.35
21
0.659311
0
LINE
8
BLACK
6
CONTINUOUS
10
0.35
20
0.659311
11
0.35
21
0.6775
0
LINE
8
BLACK
6
CONTINUOUS
10
0.35
20
0.6775
11
0.41
21
0.6775
0
LINE
8
BLACK
6
CONTINUOUS
10
0.41
20
0.6775
11
0.41
21
0.659311
0
LINE
8
BLACK
6
CONTINUOUS
10
0.41
20
0.659311
11
0.45
21
0.659311
0
LINE
8
BLACK
6
CONTINUOUS
10
0.45
20
0.659311
11
0.45
21
0.6775
0
LINE
8
BLACK
6
CONTINUOUS
10
0.45
20
0.6775
11
0.51
21
0.6775
0
LINE
8
BLACK
6
CONTINUOUS
10
0.51
20
0.6775
11
0.51
21
0.659311
0
LINE
8
BLACK
6
CONTINUOUS
10
0.51
20
0.659311
11
0.55
21
0.659311
0
LINE
8
BLACK
6
CONTINUOUS
10
0.55
20
0.659311
11
0.55
21
0.6775
0
LINE
8
BLACK
6
CONTINUOUS
10
0.55
20
0.6775
11
0.61
21
0.6775
0
LINE
8
BLACK
6
CONTINUOUS
10
0.61
20
0.6775
11
0.61
21
0.659311
0
LINE
8
BLACK
6
CONTINUOUS
10
0.61
20
0.659311
11
0.655
21
0.659311
0
LINE
8
BLACK
6
CONTINUOUS
10
0.655
20
0.659311
11
0.655
21
0.6725
0
LINE
8
BLACK
6
CONTINUOUS
10
0.655
20
0.6725
11
0.655689
21
0.6725
0
LINE
8
BLACK
6
CONTINUOUS
10
0.655689
20
0.6725
11
0.655689
21
0.689814
0
LINE
8
BLACK
6
CONTINUOUS
10
0.655689
20
0.689814
11
0.65476
21
0.690744
0
LINE
8
BLACK
6
CONTINUOUS
10
0.65476
20
0.690744
11
0.652523
21
0.695134
0
LINE
8
BLACK
6
CONTINUOUS
10
0.652523
20
0.695134
11
0.651752
21
0.7
0
LINE
8
BLACK
6
CONTINUOUS
10
0.651752
20
0.7
11
0.652523
21
0.704866
0
LINE
8
BLACK
6
CONTINUOUS
10
0.652523
20
0.704866
11
0.65476
21
0.709256
0
LINE
8
BLACK
6
CONTINUOUS
10
0.65476
20
0.709256
11
0.658244
21
0.71274
0
LINE
8
BLACK
6
CONTINUOUS
10
0.658244
20
0.71274
11
0.662634
21
0.714977
0
LINE
8
BLACK
6
CONTINUOUS
10
0.662634
20
0.714977
11
0.6675
21
0.715748
0
LINE
8
BLACK
6
CONTINUOUS
10
0.6675
20
0.715748
11
0.672366
21
0.714977
0
LINE
8
BLACK
6
CONTINUOUS
10
0.714866
20
0.817477
11
0.719256
21
0.81524
0
LINE
8
BLACK
6
CONTINUOUS
10
0.719256
20
0.81524
11
0.72274
21
0.811756
0
LINE
8
BLACK
6
CONTINUOUS
10
0.72274
20
0.811756
11
0.724977
21
0.807366
0
LINE
8
BLACK
6
CONTINUOUS
10
0.724977
20
0.807366
11
0.725748
21
0.8025
0
LINE
8
BLACK
6
CONTINUOUS
10
0.725748
20
0.8025
11
0.724977
21
0.797634
0
LINE
8
BLACK
6
CONTINUOUS
10
0.724977
20
0.797634
11
0.72274
21
0.793244
0
LINE
8
BLACK
6
CONTINUOUS
10
0.72274
20
0.793244
11
0.719256
21
0.78976
0
LINE
8
BLACK
6
CONTINUOUS
10
0.719256
20
0.78976
11
0.714866
21
0.787523
0
LINE
8
BLACK
6
CONTINUOUS
10
0.714866
20
0.787523
11
0.711135
21
0.786932
0
LINE
8
BLACK
6
CONTINUOUS
10
0.711135
20
0.786932
11
0.663352
21
0.739148
0
LINE
8
BLACK
6
CONTINUOUS
10
0.663352
20
0.739148
11
0.663057
21
0.738903
0
LINE
8
BLACK
6
CONTINUOUS
10
0.663057
20
0.738903
11
0.662957
21
0.738772
0
LINE
8
BLACK
6
CONTINUOUS
10
0.662957
20
0.738772
11
0.662724
21
0.738627
0
LINE
8
BLACK
6
CONTINUOUS
10
0.662724
20
0.738627
11
0.661675
21
0.737756
0
LINE
8
BLACK
6
CONTINUOUS
10
0.661675
20
0.737756
11
0.660427
21
0.737205
0
LINE
8
BLACK
6
CONTINUOUS
10
0.660427
20
0.737205
11
0.659267
21
0.736487
0
LINE
8
BLACK
6
CONTINUOUS
10
0.659267
20
0.736487
11
0.658457
21
0.736335
0
LINE
8
BLACK
6
CONTINUOUS
10
0.658457
20
0.736335
11
0.657704
21
0.736003
0
LINE
8
BLACK
6
CONTINUOUS
10
0.657704
20
0.736003
11
0.656341
21
0.73594
0
LINE
8
BLACK
6
CONTINUOUS
10
0.656341
20
0.73594
11
0.655
21
0.735689
0
LINE
8
BLACK
6
CONTINUOUS
10
0.655
20
0.735689
11
0.61
21
0.735689
0
LINE
8
BLACK
6
CONTINUOUS
10
0.61
20
0.735689
11
0.61
21
0.7175
0
LINE
8
BLACK
6
CONTINUOUS
10
0.61
20
0.7175
11
0.55
21
0.7175
0
LINE
8
BLACK
6
CONTINUOUS
10
0.55
20
0.7175
11
0.55
21
0.735689
0
LINE
8
BLACK
6
CONTINUOUS
10
0.55
20
0.735689
11
0.51
21
0.735689
0
LINE
8
BLACK
6
CONTINUOUS
10
0.51
20
0.735689
11
0.51
21
0.7175
0
LINE
8
BLACK
6
CONTINUOUS
10
0.51
20
0.7175
11
0.45
21
0.7175
0
LINE
8
BLACK
6
CONTINUOUS
10
0.45
20
0.7175
11
0.45
21
0.735689
0
LINE
8
BLACK
6
CONTINUOUS
10
0.45
20
0.735689
11
0.41
21
0.735689
0
LINE
8
BLACK
6
CONTINUOUS
10
0.41
20
0.735689
11
0.41
21
0.7175
0
LINE
8
BLACK
6
CONTINUOUS
10
0.41
20
0.7175
11
0.35
21
0.7175
0
LINE
8
BLACK
6
CONTINUOUS
10
0.35
20
0.7175
11
0.35
21
0.735689
0
LINE
8
BLACK
6
CONTINUOUS
10
0.35
20
0.735689
11
0.31
21
0.735689
0
LINE
8
BLACK
6
CONTINUOUS
10
0.31
20
0.735689
11
0.31
21
0.7175
0
LINE
8
BLACK
6
CONTINUOUS
10
0.31
20
0.7175
11
0.25
21
0.7175
0
LINE
8
BLACK
6
CONTINUOUS
10
0.25
20
0.7175
11
0.25
21
0.735689
0
LINE
8
BLACK
6
CONTINUOUS
10
0.25
20
0.735689
11
0.21
21
0.735689
0
LINE
8
BLACK
6
CONTINUOUS
10
0.21
20
0.735689
11
0.21
21
0.7175
0
LINE
8
BLACK
6
CONTINUOUS
10
0.21
20
0.7175
11
0.15
21
0.7175
0
LINE
8
BLACK
6
CONTINUOUS
10
0.15
20
0.7175
11
0.15
21
0.735689
0
LINE
8
BLACK
6
CONTINUOUS
10
0.15
20
0.735689
11
0.145
21
0.735689
0
LINE
8
BLACK
6
CONTINUOUS
10
0.145
20
0.735689
11
0.11
21
0.735689
0
LINE
8
BLACK
6
CONTINUOUS
10
0.11
20
0.735689
11
0.11
21
0.7175
0
LINE
8
BLACK
6
CONTINUOUS
10
0.11
20
0.7175
11
0.05
21
0.7175
0
LINE
8
BLACK
6
CONTINUOUS
10
0.05
20
0.7175
11
0.05
21
0.7775
0
LINE
8
BLACK
6
CONTINUOUS
10
0.05
20
0.7775
11
0.11
21
0.7775
0
LINE
8
BLACK
6
CONTINUOUS
10
0.11
20
0.7775
11
0.11
21
0.759311
0
LINE
8
BLACK
6
CONTINUOUS
10
0.11
20
0.759311
11
0.145
21
0.759311
0
LINE
8
BLACK
6
CONTINUOUS
10
0.145
20
0.759311
11
0.15
21
0.759311
0
LINE
8
BLACK
6
CONTINUOUS
10
0.15
20
0.759311
11
0.15
21
0.7775
0
LINE
8
BLACK
6
CONTINUOUS
10
0.15
20
0.7775
11
0.21
21
0.7775
0
LINE
8
BLACK
6
CONTINUOUS
10
0.21
20
0.7775
11
0.21
21
0.759311
0
LINE
8
BLACK
6
CONTINUOUS
10
0.21
20
0.759311
11
0.25
21
0.759311
0
LINE
8
BLACK
6
CONTINUOUS
10
0.25
20
0.759311
11
0.25
21
0.7775
0
LINE
8
BLACK
6
CONTINUOUS
10
0.25
20
0.7775
11
0.31
21
0.7775
0
LINE
8
BLACK
6
CONTINUOUS
10
0.31
20
0.7775
11
0.31
21
0.759311
0
LINE
8
BLACK
6
CONTINUOUS
10
0.31
20
0.759311
11
0.35
21
0.759311
0
LINE
8
BLACK
6
CONTINUOUS
10
0.35
20
0.759311
11
0.35
21
0.7775
0
LINE
8
BLACK
6
CONTINUOUS
10
0.35
20
0.7775
11
0.41
21
0.7775
0
LINE
8
BLACK
6
CONTINUOUS
10
0.41
20
0.7775
11
0.41
21
0.759311
0
LINE
8
BLACK
6
CONTINUOUS
10
0.41
20
0.759311
11
0.45
21
0.759311
0
LINE
8
BLACK
6
CONTINUOUS
10
0.45
20
0.759311
11
0.45
21
0.7775
0
LINE
8
BLACK
6
CONTINUOUS
10
0.45
20
0.7775
11
0.51
21
0.7775
0
LINE
8
BLACK
6
CONTINUOUS
10
0.51
20
0.7775
11
0.51
21
0.759311
0
LINE
8
BLACK
6
CONTINUOUS
10
0.51
20
0.759311
11
0.55
21
0.759311
0
LINE
8
BLACK
6
CONTINUOUS
10
0.55
20
0.759311
11
0.55
21
0.7775
0
LINE
8
BLACK
6
CONTINUOUS
10
0.55
20
0.7775
11
0.61
21
0.7775
0
LINE
8
BLACK
6
CONTINUOUS
10
0.61
20
0.7775
11
0.61
21
0.759311
0
LINE
8
BLACK
6
CONTINUOUS
10
0.61
20
0.759311
11
0.650108
21
0.759311
0
LINE
8
BLACK
6
CONTINUOUS
10
0.650108
20
0.759311
11
0.694432
21
0.803635
0
LINE
8
BLACK
6
CONTINUOUS
10
0.694432
20
0.803635
11
0.695023
21
0.807366
0
LINE
8
BLACK
6
CONTINUOUS
10
0.695023
20
0.807366
11
0.69726
21
0.811756
0
LINE
8
BLACK
6
CONTINUOUS
10
0.69726
20
0.811756
11
0.700744
21
0.81524
0
LINE
8
BLACK
6
CONTINUOUS
10
0.700744
20
0.81524
11
0.705134
21
0.817477
0
LINE
8
BLACK
6
CONTINUOUS
10
0.705134
20
0.817477
11
0.71
21
0.818248
0
LINE
8
BLACK
6
CONTINUOUS
10
0.71
20
0.818248
11
0.714866
21
0.817477
0
LINE
8
BLACK
6
CONTINUOUS
10
0.437271
20
1.1408
11
0.440852
21
1.13835
0
LINE
8
BLACK
6
CONTINUOUS
10
0.440852
20
1.13835
11
0.441703
21
1.1375
0
LINE
8
BLACK
6
CONTINUOUS
10
0.441703
20
1.1375
11
0.455
21
1.1375
0
LINE
8
BLACK
6
CONTINUOUS
10
0.455
20
1.1375
11
0.455
21
1.0825
0
LINE
8
BLACK
6
CONTINUOUS
10
0.455
20
1.0825
11
0.446811
21
1.0825
0
LINE
8
BLACK
6
CONTINUOUS
10
0.446811
20
1.0825
11
0.446811
21
1.045
0
LINE
8
BLACK
6
CONTINUOUS
10
0.446811
20
1.045
11
0.455
21
1.045
0
LINE
8
BLACK
6
CONTINUOUS
10
0.455
20
1.045
11
0.455
21
0.99
0
LINE
8
BLACK
6
CONTINUOUS
10
0.455
20
0.99
11
0.449311
21
0.99
0
LINE
8
BLACK
6
CONTINUOUS
10
0.449311
20
0.99
11
0.449311
21
0.952392
0
LINE
8
BLACK
6
CONTINUOUS
10
0.449311
20
0.952392
11
0.453635
21
0.948068
0
LINE
8
BLACK
6
CONTINUOUS
10
0.453635
20
0.948068
11
0.457366
21
0.947477
0
LINE
8
BLACK
6
CONTINUOUS
10
0.457366
20
0.947477
11
0.461756
21
0.94524
0
LINE
8
BLACK
6
CONTINUOUS
10
0.461756
20
0.94524
11
0.46524
21
0.941756
0
LINE
8
BLACK
6
CONTINUOUS
10
0.46524
20
0.941756
11
0.467477
21
0.937366
0
LINE
8
BLACK
6
CONTINUOUS
10
0.467477
20
0.937366
11
0.468248
21
0.9325
0
LINE
8
BLACK
6
CONTINUOUS
10
0.468248
20
0.9325
11
0.467477
21
0.927634
0
LINE
8
BLACK
6
CONTINUOUS
10
0.467477
20
0.927634
11
0.46524
21
0.923244
0
LINE
8
BLACK
6
CONTINUOUS
10
0.46524
20
0.923244
11
0.461756
21
0.91976
0
LINE
8
BLACK
6
CONTINUOUS
10
0.461756
20
0.91976
11
0.457366
21
0.917523
0
LINE
8
BLACK
6
CONTINUOUS
10
0.457366
20
0.917523
11
0.4525
21
0.916752
0
LINE
8
BLACK
6
CONTINUOUS
10
0.4525
20
0.916752
11
0.447634
21
0.917523
0
LINE
8
BLACK
6
CONTINUOUS
10
0.447634
20
0.917523
11
0.443244
21
0.91976
0
LINE
8
BLACK
6
CONTINUOUS
10
0.443244
20
0.91976
11
0.43976
21
0.923244
0
LINE
8
BLACK
6
CONTINUOUS
10
0.43976
20
0.923244
11
0.437523
21
0.927634
0
LINE
8
BLACK
6
CONTINUOUS
10
0.437523
20
0.927634
11
0.436932
21
0.931365
0
LINE
8
BLACK
6
CONTINUOUS
10
0.436932
20
0.931365
11
0.429148
21
0.939148
0
LINE
8
BLACK
6
CONTINUOUS
10
0.429148
20
0.939148
11
0.428903
21
0.939443
0
LINE
8
BLACK
6
CONTINUOUS
10
0.428903
20
0.939443
11
0.428772
21
0.939543
0
LINE
8
BLACK
6
CONTINUOUS
10
0.428772
20
0.939543
11
0.428627
21
0.939776
0
LINE
8
BLACK
6
CONTINUOUS
10
0.428627
20
0.939776
11
0.427756
21
0.940825
0
LINE
8
BLACK
6
CONTINUOUS
10
0.427756
20
0.940825
11
0.427205
21
0.942073
0
LINE
8
BLACK
6
CONTINUOUS
10
0.427205
20
0.942073
11
0.426487
21
0.943233
0
LINE
8
BLACK
6
CONTINUOUS
10
0.426487
20
0.943233
11
0.426335
21
0.944043
0
LINE
8
BLACK
6
CONTINUOUS
10
0.426335
20
0.944043
11
0.426003
21
0.944796
0
LINE
8
BLACK
6
CONTINUOUS
10
0.426003
20
0.944796
11
0.42594
21
0.946159
0
LINE
8
BLACK
6
CONTINUOUS
10
0.42594
20
0.946159
11
0.425689
21
0.9475
0
LINE
8
BLACK
6
CONTINUOUS
10
0.425689
20
0.9475
11
0.425689
21
0.99
0
LINE
8
BLACK
6
CONTINUOUS
10
0.425689
20
0.99
11
0.42
21
0.99
0
LINE
8
BLACK
6
CONTINUOUS
10
0.42
20
0.99
11
0.42
21
1.045
0
LINE
8
BLACK
6
CONTINUOUS
10
0.42
20
1.045
11
0.423189
21
1.045
0
LINE
8
BLACK
6
CONTINUOUS
10
0.423189
20
1.045
11
0.423189
21
1.0825
0
LINE
8
BLACK
6
CONTINUOUS
10
0.423189
20
1.0825
11
0.42
21
1.0825
0
LINE
8
BLACK
6
CONTINUOUS
10
0.42
20
1.0825
11
0.42
21
1.1375
0
LINE
8
BLACK
6
CONTINUOUS
10
0.42
20
1.1375
11
0.423637
21
1.1375
0
LINE
8
BLACK
6
CONTINUOUS
10
0.423637
20
1.1375
11
0.424955
21
1.13909
0
LINE
8
BLACK
6
CONTINUOUS
10
0.424955
20
1.13909
11
0.428747
21
1.1412
0
LINE
8
BLACK
6
CONTINUOUS
10
0.428747
20
1.1412
11
0.433045
21
1.1418
0
LINE
8
BLACK
6
CONTINUOUS
10
0.433045
20
1.1418
11
0.437271
21
1.1408
0
LINE
8
BLACK
6
CONTINUOUS
10
0.53
20
1.02931
11
0.5775
21
1.02931
0
LINE
8
BLACK
6
CONTINUOUS
10
0.5775
20
1.02931
11
0.5775
21
1.0375
0
LINE
8
BLACK
6
CONTINUOUS
10
0.5775
20
1.0375
11
0.6375
21
1.0375
0
LINE
8
BLACK
6
CONTINUOUS
10
0.6375
20
1.0375
11
0.6375
21
0.9775
0
LINE
8
BLACK
6
CONTINUOUS
10
0.6375
20
0.9775
11
0.5775
21
0.9775
0
LINE
8
BLACK
6
CONTINUOUS
10
0.5775
20
0.9775
11
0.5775
21
1.00569
0
LINE
8
BLACK
6
CONTINUOUS
10
0.5775
20
1.00569
11
0.53
21
1.00569
0
LINE
8
BLACK
6
CONTINUOUS
10
0.53
20
1.00569
11
0.53
21
0.99
0
LINE
8
BLACK
6
CONTINUOUS
10
0.53
20
0.99
11
0.495
21
0.99
0
LINE
8
BLACK
6
CONTINUOUS
10
0.495
20
0.99
11
0.495
21
1.045
0
LINE
8
BLACK
6
CONTINUOUS
10
0.495
20
1.045
11
0.53
21
1.045
0
LINE
8
BLACK
6
CONTINUOUS
10
0.53
20
1.045
11
0.53
21
1.02931
0
LINE
8
BLACK
6
CONTINUOUS
10
0.7375
20
0.9775
11
0.6775
21
0.9775
0
LINE
8
BLACK
6
CONTINUOUS
10
0.6775
20
0.9775
11
0.6775
21
1.0375
0
LINE
8
BLACK
6
CONTINUOUS
10
0.6775
20
1.0375
11
0.7375
21
1.0375
0
LINE
8
BLACK
6
CONTINUOUS
10
0.7375
20
1.0375
11
0.7375
21
0.9775
0
LINE
8
BLACK
6
CONTINUOUS
10
0.53
20
1.12181
11
0.5775
21
1.12181
0
LINE
8
BLACK
6
CONTINUOUS
10
0.5775
20
1.12181
11
0.5775
21
1.1375
0
LINE
8
BLACK
6
CONTINUOUS
10
0.5775
20
1.1375
11
0.6375
21
1.1375
0
LINE
8
BLACK
6
CONTINUOUS
10
0.6375
20
1.1375
11
0.6375
21
1.0775
0
LINE
8
BLACK
6
CONTINUOUS
10
0.6375
20
1.0775
11
0.5775
21
1.0775
0
LINE
8
BLACK
6
CONTINUOUS
10
0.5775
20
1.0775
11
0.5775
21
1.09819
0
LINE
8
BLACK
6
CONTINUOUS
10
0.5775
20
1.09819
11
0.53
21
1.09819
0
LINE
8
BLACK
6
CONTINUOUS
10
0.53
20
1.09819
11
0.53
21
1.0825
0
LINE
8
BLACK
6
CONTINUOUS
10
0.53
20
1.0825
11
0.495
21
1.0825
0
LINE
8
BLACK
6
CONTINUOUS
10
0.495
20
1.0825
11
0.495
21
1.1375
0
LINE
8
BLACK
6
CONTINUOUS
10
0.495
20
1.1375
11
0.53
21
1.1375
0
LINE
8
BLACK
6
CONTINUOUS
10
0.53
20
1.1375
11
0.53
21
1.12181
0
LINE
8
BLACK
6
CONTINUOUS
10
0.7375
20
1.0775
11
0.6775
21
1.0775
0
LINE
8
BLACK
6
CONTINUOUS
10
0.6775
20
1.0775
11
0.6775
21
1.1375
0
LINE
8
BLACK
6
CONTINUOUS
10
0.6775
20
1.1375
11
0.7375
21
1.1375
0
LINE
8
BLACK
6
CONTINUOUS
10
0.7375
20
1.1375
11
0.7375
21
1.0775
0
LINE
8
BLACK
6
CONTINUOUS
10
0.2425
20
1.1375
11
0.224311
21
1.1375
0
LINE
8
BLACK
6
CONTINUOUS
10
0.224311
20
1.1375
11
0.224311
21
1.0975
0
LINE
8
BLACK
6
CONTINUOUS
10
0.224311
20
1.0975
11
0.2425
21
1.0975
0
LINE
8
BLACK
6
CONTINUOUS
10
0.2425
20
1.0975
11
0.2425
21
1.0375
0
LINE
8
BLACK
6
CONTINUOUS
10
0.2425
20
1.0375
11
0.224311
21
1.0375
0
LINE
8
BLACK
6
CONTINUOUS
10
0.224311
20
1.0375
11
0.224311
21
0.99345
0
LINE
8
BLACK
6
CONTINUOUS
10
0.224311
20
0.99345
11
0.2495
21
0.99345
0
LINE
8
BLACK
6
CONTINUOUS
10
0.2495
20
0.99345
11
0.2495
21
0.971811
0
LINE
8
BLACK
6
CONTINUOUS
10
0.2495
20
0.971811
11
0.285
21
0.971811
0
LINE
8
BLACK
6
CONTINUOUS
10
0.285
20
0.971811
11
0.285
21
0.985
0
LINE
8
BLACK
6
CONTINUOUS
10
0.285
20
0.985
11
0.32
21
0.985
0
LINE
8
BLACK
6
CONTINUOUS
10
0.32
20
0.985
11
0.32
21
0.93
0
LINE
8
BLACK
6
CONTINUOUS
10
0.32
20
0.93
11
0.285
21
0.93
0
LINE
8
BLACK
6
CONTINUOUS
10
0.285
20
0.93
11
0.285
21
0.948189
0
LINE
8
BLACK
6
CONTINUOUS
10
0.285
20
0.948189
11
0.2495
21
0.948189
0
LINE
8
BLACK
6
CONTINUOUS
10
0.2495
20
0.948189
11
0.2495
21
0.92655
0
LINE
8
BLACK
6
CONTINUOUS
10
0.2495
20
0.92655
11
0.1983
21
0.92655
0
LINE
8
BLACK
6
CONTINUOUS
10
0.1983
20
0.92655
11
0.1983
21
0.99345
0
LINE
8
BLACK
6
CONTINUOUS
10
0.1983
20
0.99345
11
0.200689
21
0.99345
0
LINE
8
BLACK
6
CONTINUOUS
10
0.200689
20
0.99345
11
0.200689
21
1.0375
0
LINE
8
BLACK
6
CONTINUOUS
10
0.200689
20
1.0375
11
0.1825
21
1.0375
0
LINE
8
BLACK
6
CONTINUOUS
10
0.1825
20
1.0375
11
0.1825
21
1.0975
0
LINE
8
BLACK
6
CONTINUOUS
10
0.1825
20
1.0975
11
0.200689
21
1.0975
0
LINE
8
BLACK
6
CONTINUOUS
10
0.200689
20
1.0975
11
0.200689
21
1.1375
0
LINE
8
BLACK
6
CONTINUOUS
10
0.200689
20
1.1375
11
0.1825
21
1.1375
0
LINE
8
BLACK
6
CONTINUOUS
10
0.1825
20
1.1375
11
0.1825
21
1.1975
0
LINE
8
BLACK
6
CONTINUOUS
10
0.1825
20
1.1975
11
0.2425
21
1.1975
0
LINE
8
BLACK
6
CONTINUOUS
10
0.2425
20
1.1975
11
0.2425
21
1.1375
0
LINE
8
BLACK
6
CONTINUOUS
10
0.784749
20
1.58624
11
0.786579
21
1.58413
0
LINE
8
BLACK
6
CONTINUOUS
10
0.786579
20
1.58413
11
0.787028
21
1.58207
0
LINE
8
BLACK
6
CONTINUOUS
10
0.787028
20
1.58207
11
0.787028
21
0.0179331
0
LINE
8
BLACK
6
CONTINUOUS
10
0.787028
20
0.0179331
11
0.78624
21
0.0152511
0
LINE
8
BLACK
6
CONTINUOUS
10
0.78624
20
0.0152511
11
0.784128
21
0.0134207
0
LINE
8
BLACK
6
CONTINUOUS
10
0.784128
20
0.0134207
11
0.782067
21
0.0129724
0
LINE
8
BLACK
6
CONTINUOUS
10
0.782067
20
0.0129724
11
0.0179331
21
0.0129724
0
LINE
8
BLACK
6
CONTINUOUS
10
0.0179331
20
0.0129724
11
0.0152511
21
0.0137599
0
LINE
8
BLACK
6
CONTINUOUS
10
0.0152511
20
0.0137599
11
0.0134207
21
0.0158724
0
LINE
8
BLACK
6
CONTINUOUS
10
0.0134207
20
0.0158724
11
0.0129724
21
0.0179331
0
LINE
8
BLACK
6
CONTINUOUS
10
0.0129724
20
0.0179331
11
0.0129724
21
0.515585
0
LINE
8
BLACK
6
CONTINUOUS
10
0.0129724
20
0.515585
11
0.0129724
21
1.03558
0
LINE
8
BLACK
6
CONTINUOUS
10
0.0129724
20
1.03558
11
0.0129724
21
1.58207
0
LINE
8
BLACK
6
CONTINUOUS
10
0.0129724
20
1.58207
11
0.0137599
21
1.58475
0
LINE
8
BLACK
6
CONTINUOUS
10
0.0137599
20
1.58475
11
0.0158724
21
1.58658
0
LINE
8
BLACK
6
CONTINUOUS
10
0.0158724
20
1.58658
11
0.0179331
21
1.58703
0
LINE
8
BLACK
6
CONTINUOUS
10
0.0179331
20
1.58703
11
0.782067
21
1.58703
0
LINE
8
BLACK
6
CONTINUOUS
10
0.782067
20
1.58703
11
0.784749
21
1.58624
0
LINE
8
BLACK
6
CONTINUOUS
10
0.0302366
20
0.513201
11
0.0302367
21
0.513201
0
LINE
8
BLACK
6
CONTINUOUS
10
0.0302367
20
0.513201
11
0.0322484
21
0.507807
0
LINE
8
BLACK
6
CONTINUOUS
10
0.0322484
20
0.507807
11
0.0322485
21
0.507807
0
LINE
8
BLACK
6
CONTINUOUS
10
0.0322485
20
0.507807
11
0.0356983
21
0.503198
0
LINE
8
BLACK
6
CONTINUOUS
10
0.0356983
20
0.503198
11
0.0403068
21
0.499749
0
LINE
8
BLACK
6
CONTINUOUS
10
0.0403068
20
0.499749
11
0.040307
21
0.499748
0
LINE
8
BLACK
6
CONTINUOUS
10
0.040307
20
0.499748
11
0.0457006
21
0.497737
0
LINE
8
BLACK
6
CONTINUOUS
10
0.0457006
20
0.497737
11
0.0457009
21
0.497737
0
LINE
8
BLACK
6
CONTINUOUS
10
0.0457009
20
0.497737
11
0.0480846
21
0.49748
0
LINE
8
BLACK
6
CONTINUOUS
10
0.0480846
20
0.49748
11
0.0480851
21
0.49748
0
LINE
8
BLACK
6
CONTINUOUS
10
0.0480851
20
0.49748
11
0.111915
21
0.49748
0
LINE
8
BLACK
6
CONTINUOUS
10
0.111915
20
0.49748
11
0.114299
21
0.497737
0
LINE
8
BLACK
6
CONTINUOUS
10
0.114299
20
0.497737
11
0.114299
21
0.497737
0
LINE
8
BLACK
6
CONTINUOUS
10
0.114299
20
0.497737
11
0.119693
21
0.499748
0
LINE
8
BLACK
6
CONTINUOUS
10
0.119693
20
0.499748
11
0.119693
21
0.499749
0
LINE
8
BLACK
6
CONTINUOUS
10
0.119693
20
0.499749
11
0.124302
21
0.503198
0
LINE
8
BLACK
6
CONTINUOUS
10
0.124302
20
0.503198
11
0.126029
21
0.505506
0
LINE
8
BLACK
6
CONTINUOUS
10
0.126029
20
0.505506
11
0.128266
21
0.507181
0
LINE
8
BLACK
6
CONTINUOUS
10
0.128266
20
0.507181
11
0.131054
21
0.50738
0
LINE
8
BLACK
6
CONTINUOUS
10
0.131054
20
0.50738
11
0.133508
21
0.50604
0
LINE
8
BLACK
6
CONTINUOUS
10
0.133508
20
0.50604
11
0.133971
21
0.505506
0
LINE
8
BLACK
6
CONTINUOUS
10
0.133971
20
0.505506
11
0.135698
21
0.503198
0
LINE
8
BLACK
6
CONTINUOUS
10
0.135698
20
0.503198
11
0.140307
21
0.499749
0
LINE
8
BLACK
6
CONTINUOUS
10
0.140307
20
0.499749
11
0.140307
21
0.499748
0
LINE
8
BLACK
6
CONTINUOUS
10
0.140307
20
0.499748
11
0.145701
21
0.497737
0
LINE
8
BLACK
6
CONTINUOUS
10
0.145701
20
0.497737
11
0.145701
21
0.497737
0
LINE
8
BLACK
6
CONTINUOUS
10
0.145701
20
0.497737
11
0.148085
21
0.49748
0
LINE
8
BLACK
6
CONTINUOUS
10
0.148085
20
0.49748
11
0.148085
21
0.49748
0
LINE
8
BLACK
6
CONTINUOUS
10
0.148085
20
0.49748
11
0.211915
21
0.49748
0
LINE
8
BLACK
6
CONTINUOUS
10
0.211915
20
0.49748
11
0.214299
21
0.497737
0
LINE
8
BLACK
6
CONTINUOUS
10
0.214299
20
0.497737
11
0.214299
21
0.497737
0
LINE
8
BLACK
6
CONTINUOUS
10
0.214299
20
0.497737
11
0.219693
21
0.499748
0
LINE
8
BLACK
6
CONTINUOUS
10
0.219693
20
0.499748
11
0.219693
21
0.499749
0
LINE
8
BLACK
6
CONTINUOUS
10
0.219693
20
0.499749
11
0.224302
21
0.503198
0
LINE
8
BLACK
6
CONTINUOUS
10
0.224302
20
0.503198
11
0.226029
21
0.505506
0
LINE
8
BLACK
6
CONTINUOUS
10
0.226029
20
0.505506
11
0.228266
21
0.507181
0
LINE
8
BLACK
6
CONTINUOUS
10
0.228266
20
0.507181
11
0.231054
21
0.50738
0
LINE
8
BLACK
6
CONTINUOUS
10
0.231054
20
0.50738
11
0.233508
21
0.50604
0
LINE
8
BLACK
6
CONTINUOUS
10
0.233508
20
0.50604
11
0.233971
21
0.505506
0
LINE
8
BLACK
6
CONTINUOUS
10
0.233971
20
0.505506
11
0.235698
21
0.503198
0
LINE
8
BLACK
6
CONTINUOUS
10
0.235698
20
0.503198
11
0.240307
21
0.499749
0
LINE
8
BLACK
6
CONTINUOUS
10
0.240307
20
0.499749
11
0.240307
21
0.499748
0
LINE
8
BLACK
6
CONTINUOUS
10
0.240307
20
0.499748
11
0.245701
21
0.497737
0
LINE
8
BLACK
6
CONTINUOUS
10
0.245701
20
0.497737
11
0.245701
21
0.497737
0
LINE
8
BLACK
6
CONTINUOUS
10
0.245701
20
0.497737
11
0.248085
21
0.49748
0
LINE
8
BLACK
6
CONTINUOUS
10
0.248085
20
0.49748
11
0.248085
21
0.49748
0
LINE
8
BLACK
6
CONTINUOUS
10
0.248085
20
0.49748
11
0.311915
21
0.49748
0
LINE
8
BLACK
6
CONTINUOUS
10
0.311915
20
0.49748
11
0.314299
21
0.497737
0
LINE
8
BLACK
6
CONTINUOUS
10
0.314299
20
0.497737
11
0.314299
21
0.497737
0
LINE
8
BLACK
6
CONTINUOUS
10
0.314299
20
0.497737
11
0.319693
21
0.499748
0
LINE
8
BLACK
6
CONTINUOUS
10
0.319693
20
0.499748
11
0.319693
21
0.499749
0
LINE
8
BLACK
6
CONTINUOUS
10
0.319693
20
0.499749
11
0.324302
21
0.503198
0
LINE
8
BLACK
6
CONTINUOUS
10
0.324302
20
0.503198
11
0.326029
21
0.505506
0
LINE
8
BLACK
6
CONTINUOUS
10
0.326029
20
0.505506
11
0.328266
21
0.507181
0
LINE
8
BLACK
6
CONTINUOUS
10
0.328266
20
0.507181
11
0.331054
21
0.50738
0
LINE
8
BLACK
6
CONTINUOUS
10
0.331054
20
0.50738
11
0.333508
21
0.50604
0
LINE
8
BLACK
6
CONTINUOUS
10
0.333508
20
0.50604
11
0.333971
21
0.505506
0
LINE
8
BLACK
6
CONTINUOUS
10
0.333971
20
0.505506
11
0.335698
21
0.503198
0
LINE
8
BLACK
6
CONTINUOUS
10
0.335698
20
0.503198
11
0.340307
21
0.499749
0
LINE
8
BLACK
6
CONTINUOUS
10
0.340307
20
0.499749
11
0.340307
21
0.499748
0
LINE
8
BLACK
6
CONTINUOUS
10
0.340307
20
0.499748
11
0.345701
21
0.497737
0
LINE
8
BLACK
6
CONTINUOUS
10
0.345701
20
0.497737
11
0.345701
21
0.497737
0
LINE
8
BLACK
6
CONTINUOUS
10
0.345701
20
0.497737
11
0.348085
21
0.49748
0
LINE
8
BLACK
6
CONTINUOUS
10
0.348085
20
0.49748
11
0.348085
21
0.49748
0
LINE
8
BLACK
6
CONTINUOUS
10
0.348085
20
0.49748
11
0.411915
21
0.49748
0
LINE
8
BLACK
6
CONTINUOUS
10
0.411915
20
0.49748
11
0.414299
21
0.497737
0
LINE
8
BLACK
6
CONTINUOUS
10
0.414299
20
0.497737
11
0.414299
21
0.497737
0
LINE
8
BLACK
6
CONTINUOUS
10
0.414299
20
0.497737
11
0.419693
21
0.499748
0
LINE
8
BLACK
6
CONTINUOUS
10
0.419693
20
0.499748
11
0.419693
21
0.499749
0
LINE
8
BLACK
6
CONTINUOUS
10
0.419693
20
0.499749
11
0.424302
21
0.503198
0
LINE
8
BLACK
6
CONTINUOUS
10
0.424302
20
0.503198
11
0.426029
21
0.505506
0
LINE
8
BLACK
6
CONTINUOUS
10
0.426029
20
0.505506
11
0.428266
21
0.507181
0
LINE
8
BLACK
6
CONTINUOUS
10
0.428266
20
0.507181
11
0.431054
21
0.50738
0
LINE
8
BLACK
6
CONTINUOUS
10
0.431054
20
0.50738
11
0.433508
21
0.50604
0
LINE
8
BLACK
6
CONTINUOUS
10
0.433508
20
0.50604
11
0.433971
21
0.505506
0
LINE
8
BLACK
6
CONTINUOUS
10
0.433971
20
0.505506
11
0.435698
21
0.503198
0
LINE
8
BLACK
6
CONTINUOUS
10
0.435698
20
0.503198
11
0.440307
21
0.499749
0
LINE
8
BLACK
6
CONTINUOUS
10
0.440307
20
0.499749
11
0.440307
21
0.499748
0
LINE
8
BLACK
6
CONTINUOUS
10
0.440307
20
0.499748
11
0.445701
21
0.497737
0
LINE
8
BLACK
6
CONTINUOUS
10
0.445701
20
0.497737
11
0.445701
21
0.497737
0
LINE
8
BLACK
6
CONTINUOUS
10
0.445701
20
0.497737
11
0.448085
21
0.49748
0
LINE
8
BLACK
6
CONTINUOUS
10
0.448085
20
0.49748
11
0.448085
21
0.49748
0
LINE
8
BLACK
6
CONTINUOUS
10
0.448085
20
0.49748
11
0.511915
21
0.49748
0
LINE
8
BLACK
6
CONTINUOUS
10
0.511915
20
0.49748
11
0.514299
21
0.497737
0
LINE
8
BLACK
6
CONTINUOUS
10
0.514299
20
0.497737
11
0.514299
21
0.497737
0
LINE
8
BLACK
6
CONTINUOUS
10
0.514299
20
0.497737
11
0.519693
21
0.499748
0
LINE
8
BLACK
6
CONTINUOUS
10
0.519693
20
0.499748
11
0.519693
21
0.499749
0
LINE
8
BLACK
6
CONTINUOUS
10
0.519693
20
0.499749
11
0.524302
21
0.503198
0
LINE
8
BLACK
6
CONTINUOUS
10
0.524302
20
0.503198
11
0.526029
21
0.505506
0
LINE
8
BLACK
6
CONTINUOUS
10
0.526029
20
0.505506
11
0.528266
21
0.507181
0
LINE
8
BLACK
6
CONTINUOUS
10
0.528266
20
0.507181
11
0.531054
21
0.50738
0
LINE
8
BLACK
6
CONTINUOUS
10
0.531054
20
0.50738
11
0.533508
21
0.50604
0
LINE
8
BLACK
6
CONTINUOUS
10
0.533508
20
0.50604
11
0.533971
21
0.505506
0
LINE
8
BLACK
6
CONTINUOUS
10
0.533971
20
0.505506
11
0.535698
21
0.503198
0
LINE
8
BLACK
6
CONTINUOUS
10
0.535698
20
0.503198
11
0.540307
21
0.499749
0
LINE
8
BLACK
6
CONTINUOUS
10
0.540307
20
0.499749
11
0.540307
21
0.499748
0
LINE
8
BLACK
6
CONTINUOUS
10
0.540307
20
0.499748
11
0.545701
21
0.497737
0
LINE
8
BLACK
6
CONTINUOUS
10
0.545701
20
0.497737
11
0.545701
21
0.497737
0
LINE
8
BLACK
6
CONTINUOUS
10
0.545701
20
0.497737
11
0.548085
21
0.49748
0
LINE
8
BLACK
6
CONTINUOUS
10
0.548085
20
0.49748
11
0.548085
21
0.49748
0
LINE
8
BLACK
6
CONTINUOUS
10
0.548085
20
0.49748
11
0.611915
21
0.49748
0
LINE
8
BLACK
6
CONTINUOUS
10
0.611915
20
0.49748
11
0.614299
21
0.497737
0
LINE
8
BLACK
6
CONTINUOUS
10
0.614299
20
0.497737
11
0.614299
21
0.497737
0
LINE
8
BLACK
6
CONTINUOUS
10
0.614299
20
0.497737
11
0.619693
21
0.499748
0
LINE
8
BLACK
6
CONTINUOUS
10
0.619693
20
0.499748
11
0.619693
21
0.499749
0
LINE
8
BLACK
6
CONTINUOUS
10
0.619693
20
0.499749
11
0.624302
21
0.503198
0
LINE
8
BLACK
6
CONTINUOUS
10
0.624302
20
0.503198
11
0.627751
21
0.507807
0
LINE
8
BLACK
6
CONTINUOUS
10
0.627751
20
0.507807
11
0.627752
21
0.507807
0
LINE
8
BLACK
6
CONTINUOUS
10
0.627752
20
0.507807
11
0.629763
21
0.513201
0
LINE
8
BLACK
6
CONTINUOUS
10
0.629763
20
0.513201
11
0.629763
21
0.513201
0
LINE
8
BLACK
6
CONTINUOUS
10
0.629763
20
0.513201
11
0.63002
21
0.515585
0
LINE
8
BLACK
6
CONTINUOUS
10
0.63002
20
0.515585
11
0.63002
21
0.515585
0
LINE
8
BLACK
6
CONTINUOUS
10
0.63002
20
0.515585
11
0.63002
21
0.579415
0
LINE
8
BLACK
6
CONTINUOUS
10
0.63002
20
0.579415
11
0.63002
21
0.579415
0
LINE
8
BLACK
6
CONTINUOUS
10
0.63002
20
0.579415
11
0.629763
21
0.581799
0
LINE
8
BLACK
6
CONTINUOUS
10
0.629763
20
0.581799
11
0.629763
21
0.581799
0
LINE
8
BLACK
6
CONTINUOUS
10
0.629763
20
0.581799
11
0.629487
21
0.582541
0
LINE
8
BLACK
6
CONTINUOUS
10
0.629487
20
0.582541
11
0.627752
21
0.587193
0
LINE
8
BLACK
6
CONTINUOUS
10
0.627752
20
0.587193
11
0.624302
21
0.591802
0
LINE
8
BLACK
6
CONTINUOUS
10
0.624302
20
0.591802
11
0.624302
21
0.591802
0
LINE
8
BLACK
6
CONTINUOUS
10
0.624302
20
0.591802
11
0.621994
21
0.593529
0
LINE
8
BLACK
6
CONTINUOUS
10
0.621994
20
0.593529
11
0.620319
21
0.595766
0
LINE
8
BLACK
6
CONTINUOUS
10
0.620319
20
0.595766
11
0.62012
21
0.598554
0
LINE
8
BLACK
6
CONTINUOUS
10
0.62012
20
0.598554
11
0.621459
21
0.601008
0
LINE
8
BLACK
6
CONTINUOUS
10
0.621459
20
0.601008
11
0.621994
21
0.601471
0
LINE
8
BLACK
6
CONTINUOUS
10
0.621994
20
0.601471
11
0.624302
21
0.603198
0
LINE
8
BLACK
6
CONTINUOUS
10
0.624302
20
0.603198
11
0.627751
21
0.607807
0
LINE
8
BLACK
6
CONTINUOUS
10
0.627751
20
0.607807
11
0.627751
21
0.607807
0
LINE
8
BLACK
6
CONTINUOUS
10
0.627751
20
0.607807
11
0.627752
21
0.607807
0
LINE
8
BLACK
6
CONTINUOUS
10
0.627752
20
0.607807
11
0.627852
21
0.608077
0
LINE
8
BLACK
6
CONTINUOUS
10
0.627852
20
0.608077
11
0.629527
21
0.610314
0
LINE
8
BLACK
6
CONTINUOUS
10
0.629527
20
0.610314
11
0.632146
21
0.611291
0
LINE
8
BLACK
6
CONTINUOUS
10
0.632146
20
0.611291
11
0.634877
21
0.610697
0
LINE
8
BLACK
6
CONTINUOUS
10
0.634877
20
0.610697
11
0.636854
21
0.60872
0
LINE
8
BLACK
6
CONTINUOUS
10
0.636854
20
0.60872
11
0.637148
21
0.608077
0
LINE
8
BLACK
6
CONTINUOUS
10
0.637148
20
0.608077
11
0.637248
21
0.607807
0
LINE
8
BLACK
6
CONTINUOUS
10
0.637248
20
0.607807
11
0.637249
21
0.607807
0
LINE
8
BLACK
6
CONTINUOUS
10
0.637249
20
0.607807
11
0.640698
21
0.603198
0
LINE
8
BLACK
6
CONTINUOUS
10
0.640698
20
0.603198
11
0.645307
21
0.599749
0
LINE
8
BLACK
6
CONTINUOUS
10
0.645307
20
0.599749
11
0.645307
21
0.599748
0
LINE
8
BLACK
6
CONTINUOUS
10
0.645307
20
0.599748
11
0.650701
21
0.597737
0
LINE
8
BLACK
6
CONTINUOUS
10
0.650701
20
0.597737
11
0.650701
21
0.597737
0
LINE
8
BLACK
6
CONTINUOUS
10
0.650701
20
0.597737
11
0.653085
21
0.59748
0
LINE
8
BLACK
6
CONTINUOUS
10
0.653085
20
0.59748
11
0.653085
21
0.59748
0
LINE
8
BLACK
6
CONTINUOUS
10
0.653085
20
0.59748
11
0.691915
21
0.59748
0
LINE
8
BLACK
6
CONTINUOUS
10
0.691915
20
0.59748
11
0.694299
21
0.597737
0
LINE
8
BLACK
6
CONTINUOUS
10
0.694299
20
0.597737
11
0.694299
21
0.597737
0
LINE
8
BLACK
6
CONTINUOUS
10
0.694299
20
0.597737
11
0.699693
21
0.599748
0
LINE
8
BLACK
6
CONTINUOUS
10
0.699693
20
0.599748
11
0.699693
21
0.599749
0
LINE
8
BLACK
6
CONTINUOUS
10
0.699693
20
0.599749
11
0.704302
21
0.603198
0
LINE
8
BLACK
6
CONTINUOUS
10
0.704302
20
0.603198
11
0.707751
21
0.607807
0
LINE
8
BLACK
6
CONTINUOUS
10
0.707751
20
0.607807
11
0.707752
21
0.607807
0
LINE
8
BLACK
6
CONTINUOUS
10
0.707752
20
0.607807
11
0.709763
21
0.613201
0
LINE
8
BLACK
6
CONTINUOUS
10
0.709763
20
0.613201
11
0.709763
21
0.613201
0
LINE
8
BLACK
6
CONTINUOUS
10
0.709763
20
0.613201
11
0.71002
21
0.615585
0
LINE
8
BLACK
6
CONTINUOUS
10
0.71002
20
0.615585
11
0.71002
21
0.615585
0
LINE
8
BLACK
6
CONTINUOUS
10
0.71002
20
0.615585
11
0.71002
21
0.674415
0
LINE
8
BLACK
6
CONTINUOUS
10
0.71002
20
0.674415
11
0.71002
21
0.674415
0
LINE
8
BLACK
6
CONTINUOUS
10
0.71002
20
0.674415
11
0.709763
21
0.676799
0
LINE
8
BLACK
6
CONTINUOUS
10
0.709763
20
0.676799
11
0.709763
21
0.676799
0
LINE
8
BLACK
6
CONTINUOUS
10
0.709763
20
0.676799
11
0.708788
21
0.679415
0
LINE
8
BLACK
6
CONTINUOUS
10
0.708788
20
0.679415
11
0.707752
21
0.682193
0
LINE
8
BLACK
6
CONTINUOUS
10
0.707752
20
0.682193
11
0.704302
21
0.686802
0
LINE
8
BLACK
6
CONTINUOUS
10
0.704302
20
0.686802
11
0.704302
21
0.686802
0
LINE
8
BLACK
6
CONTINUOUS
10
0.704302
20
0.686802
11
0.704301
21
0.686802
0
LINE
8
BLACK
6
CONTINUOUS
10
0.704301
20
0.686802
11
0.704051
21
0.687053
0
LINE
8
BLACK
6
CONTINUOUS
10
0.704051
20
0.687053
11
0.704097
21
0.687099
0
LINE
8
BLACK
6
CONTINUOUS
10
0.704097
20
0.687099
11
0.702668
21
0.689008
0
LINE
8
BLACK
6
CONTINUOUS
10
0.702668
20
0.689008
11
0.702469
21
0.691796
0
LINE
8
BLACK
6
CONTINUOUS
10
0.702469
20
0.691796
11
0.702598
21
0.692274
0
LINE
8
BLACK
6
CONTINUOUS
10
0.702598
20
0.692274
11
0.702679
21
0.692523
0
LINE
8
BLACK
6
CONTINUOUS
10
0.702679
20
0.692523
11
0.703465
21
0.7
0
LINE
8
BLACK
6
CONTINUOUS
10
0.703465
20
0.7
11
0.702679
21
0.707477
0
LINE
8
BLACK
6
CONTINUOUS
10
0.702679
20
0.707477
11
0.700355
21
0.714628
0
LINE
8
BLACK
6
CONTINUOUS
10
0.700355
20
0.714628
11
0.696596
21
0.72114
0
LINE
8
BLACK
6
CONTINUOUS
10
0.696596
20
0.72114
11
0.691565
21
0.726727
0
LINE
8
BLACK
6
CONTINUOUS
10
0.691565
20
0.726727
11
0.689127
21
0.728499
0
LINE
8
BLACK
6
CONTINUOUS
10
0.689127
20
0.728499
11
0.68742
21
0.730712
0
LINE
8
BLACK
6
CONTINUOUS
10
0.68742
20
0.730712
11
0.687181
21
0.733497
0
LINE
8
BLACK
6
CONTINUOUS
10
0.687181
20
0.733497
11
0.688485
21
0.735969
0
LINE
8
BLACK
6
CONTINUOUS
10
0.688485
20
0.735969
11
0.688535
21
0.736019
0
LINE
8
BLACK
6
CONTINUOUS
10
0.688535
20
0.736019
11
0.719918
21
0.767402
0
LINE
8
BLACK
6
CONTINUOUS
10
0.719918
20
0.767402
11
0.721408
21
0.768426
0
LINE
8
BLACK
6
CONTINUOUS
10
0.721408
20
0.768426
11
0.727982
21
0.771354
0
LINE
8
BLACK
6
CONTINUOUS
10
0.727982
20
0.771354
11
0.734065
21
0.775773
0
LINE
8
BLACK
6
CONTINUOUS
10
0.734065
20
0.775773
11
0.739096
21
0.78136
0
LINE
8
BLACK
6
CONTINUOUS
10
0.739096
20
0.78136
11
0.739096
21
0.781361
0
LINE
8
BLACK
6
CONTINUOUS
10
0.739096
20
0.781361
11
0.739349
21
0.781799
0
LINE
8
BLACK
6
CONTINUOUS
10
0.739349
20
0.781799
11
0.742855
21
0.787872
0
LINE
8
BLACK
6
CONTINUOUS
10
0.742855
20
0.787872
11
0.745179
21
0.795023
0
LINE
8
BLACK
6
CONTINUOUS
10
0.745179
20
0.795023
11
0.745965
21
0.8025
0
LINE
8
BLACK
6
CONTINUOUS
10
0.745965
20
0.8025
11
0.745179
21
0.809977
0
LINE
8
BLACK
6
CONTINUOUS
10
0.745179
20
0.809977
11
0.742855
21
0.817128
0
LINE
8
BLACK
6
CONTINUOUS
10
0.742855
20
0.817128
11
0.739096
21
0.82364
0
LINE
8
BLACK
6
CONTINUOUS
10
0.739096
20
0.82364
11
0.734065
21
0.829227
0
LINE
8
BLACK
6
CONTINUOUS
10
0.734065
20
0.829227
11
0.727982
21
0.833646
0
LINE
8
BLACK
6
CONTINUOUS
10
0.727982
20
0.833646
11
0.721114
21
0.836704
0
LINE
8
BLACK
6
CONTINUOUS
10
0.721114
20
0.836704
11
0.713759
21
0.838268
0
LINE
8
BLACK
6
CONTINUOUS
10
0.713759
20
0.838268
11
0.706241
21
0.838268
0
LINE
8
BLACK
6
CONTINUOUS
10
0.706241
20
0.838268
11
0.698886
21
0.836704
0
LINE
8
BLACK
6
CONTINUOUS
10
0.698886
20
0.836704
11
0.692018
21
0.833646
0
LINE
8
BLACK
6
CONTINUOUS
10
0.692018
20
0.833646
11
0.692018
21
0.833646
0
LINE
8
BLACK
6
CONTINUOUS
10
0.692018
20
0.833646
11
0.685935
21
0.829227
0
LINE
8
BLACK
6
CONTINUOUS
10
0.685935
20
0.829227
11
0.680904
21
0.82364
0
LINE
8
BLACK
6
CONTINUOUS
10
0.680904
20
0.82364
11
0.680904
21
0.823639
0
LINE
8
BLACK
6
CONTINUOUS
10
0.680904
20
0.823639
11
0.677145
21
0.817128
0
LINE
8
BLACK
6
CONTINUOUS
10
0.677145
20
0.817128
11
0.677145
21
0.817128
0
LINE
8
BLACK
6
CONTINUOUS
10
0.677145
20
0.817128
11
0.676325
21
0.814605
0
LINE
8
BLACK
6
CONTINUOUS
10
0.676325
20
0.814605
11
0.675114
21
0.81263
0
LINE
8
BLACK
6
CONTINUOUS
10
0.675114
20
0.81263
11
0.643268
21
0.780784
0
LINE
8
BLACK
6
CONTINUOUS
10
0.643268
20
0.780784
11
0.640815
21
0.779444
0
LINE
8
BLACK
6
CONTINUOUS
10
0.640815
20
0.779444
11
0.639761
21
0.779331
0
LINE
8
BLACK
6
CONTINUOUS
10
0.639761
20
0.779331
11
0.634128
21
0.779331
0
LINE
8
BLACK
6
CONTINUOUS
10
0.634128
20
0.779331
11
0.631446
21
0.780118
0
LINE
8
BLACK
6
CONTINUOUS
10
0.631446
20
0.780118
11
0.629616
21
0.782231
0
LINE
8
BLACK
6
CONTINUOUS
10
0.629616
20
0.782231
11
0.62948
21
0.782558
0
LINE
8
BLACK
6
CONTINUOUS
10
0.62948
20
0.782558
11
0.628869
21
0.784197
0
LINE
8
BLACK
6
CONTINUOUS
10
0.628869
20
0.784197
11
0.627752
21
0.787193
0
LINE
8
BLACK
6
CONTINUOUS
10
0.627752
20
0.787193
11
0.624302
21
0.791802
0
LINE
8
BLACK
6
CONTINUOUS
10
0.624302
20
0.791802
11
0.619693
21
0.795252
0
LINE
8
BLACK
6
CONTINUOUS
10
0.619693
20
0.795252
11
0.614299
21
0.797263
0
LINE
8
BLACK
6
CONTINUOUS
10
0.614299
20
0.797263
11
0.614299
21
0.797263
0
LINE
8
BLACK
6
CONTINUOUS
10
0.614299
20
0.797263
11
0.614299
21
0.797263
0
LINE
8
BLACK
6
CONTINUOUS
10
0.614299
20
0.797263
11
0.611915
21
0.79752
0
LINE
8
BLACK
6
CONTINUOUS
10
0.611915
20
0.79752
11
0.611915
21
0.79752
0
LINE
8
BLACK
6
CONTINUOUS
10
0.611915
20
0.79752
11
0.611915
21
0.79752
0
LINE
8
BLACK
6
CONTINUOUS
10
0.611915
20
0.79752
11
0.548085
21
0.79752
0
LINE
8
BLACK
6
CONTINUOUS
10
0.548085
20
0.79752
11
0.548085
21
0.79752
0
LINE
8
BLACK
6
CONTINUOUS
10
0.548085
20
0.79752
11
0.548085
21
0.79752
0
LINE
8
BLACK
6
CONTINUOUS
10
0.548085
20
0.79752
11
0.545701
21
0.797263
0
LINE
8
BLACK
6
CONTINUOUS
10
0.545701
20
0.797263
11
0.545701
21
0.797263
0
LINE
8
BLACK
6
CONTINUOUS
10
0.545701
20
0.797263
11
0.542633
21
0.796119
0
LINE
8
BLACK
6
CONTINUOUS
10
0.542633
20
0.796119
11
0.540307
21
0.795252
0
LINE
8
BLACK
6
CONTINUOUS
10
0.540307
20
0.795252
11
0.540307
21
0.795251
0
LINE
8
BLACK
6
CONTINUOUS
10
0.540307
20
0.795251
11
0.540307
21
0.795251
0
LINE
8
BLACK
6
CONTINUOUS
10
0.540307
20
0.795251
11
0.535698
21
0.791802
0
LINE
8
BLACK
6
CONTINUOUS
10
0.535698
20
0.791802
11
0.533971
21
0.789494
0
LINE
8
BLACK
6
CONTINUOUS
10
0.533971
20
0.789494
11
0.531734
21
0.787819
0
LINE
8
BLACK
6
CONTINUOUS
10
0.531734
20
0.787819
11
0.528946
21
0.78762
0
LINE
8
BLACK
6
CONTINUOUS
10
0.528946
20
0.78762
11
0.526492
21
0.788959
0
LINE
8
BLACK
6
CONTINUOUS
10
0.526492
20
0.788959
11
0.526029
21
0.789494
0
LINE
8
BLACK
6
CONTINUOUS
10
0.526029
20
0.789494
11
0.524302
21
0.791802
0
LINE
8
BLACK
6
CONTINUOUS
10
0.524302
20
0.791802
11
0.519693
21
0.795251
0
LINE
8
BLACK
6
CONTINUOUS
10
0.519693
20
0.795251
11
0.519693
21
0.795251
0
LINE
8
BLACK
6
CONTINUOUS
10
0.519693
20
0.795251
11
0.519693
21
0.795252
0
LINE
8
BLACK
6
CONTINUOUS
10
0.519693
20
0.795252
11
0.514299
21
0.797263
0
LINE
8
BLACK
6
CONTINUOUS
10
0.514299
20
0.797263
11
0.514299
21
0.797263
0
LINE
8
BLACK
6
CONTINUOUS
10
0.514299
20
0.797263
11
0.514299
21
0.797263
0
LINE
8
BLACK
6
CONTINUOUS
10
0.514299
20
0.797263
11
0.511915
21
0.79752
0
LINE
8
BLACK
6
CONTINUOUS
10
0.511915
20
0.79752
11
0.511915
21
0.79752
0
LINE
8
BLACK
6
CONTINUOUS
10
0.511915
20
0.79752
11
0.511915
21
0.79752
0
LINE
8
BLACK
6
CONTINUOUS
10
0.511915
20
0.79752
11
0.448085
21
0.79752
0
LINE
8
BLACK
6
CONTINUOUS
10
0.448085
20
0.79752
11
0.448085
21
0.79752
0
LINE
8
BLACK
6
CONTINUOUS
10
0.448085
20
0.79752
11
0.448085
21
0.79752
0
LINE
8
BLACK
6
CONTINUOUS
10
0.448085
20
0.79752
11
0.445701
21
0.797263
0
LINE
8
BLACK
6
CONTINUOUS
10
0.445701
20
0.797263
11
0.445701
21
0.797263
0
LINE
8
BLACK
6
CONTINUOUS
10
0.445701
20
0.797263
11
0.442633
21
0.796119
0
LINE
8
BLACK
6
CONTINUOUS
10
0.442633
20
0.796119
11
0.440307
21
0.795252
0
LINE
8
BLACK
6
CONTINUOUS
10
0.440307
20
0.795252
11
0.440307
21
0.795251
0
LINE
8
BLACK
6
CONTINUOUS
10
0.440307
20
0.795251
11
0.440307
21
0.795251
0
LINE
8
BLACK
6
CONTINUOUS
10
0.440307
20
0.795251
11
0.435698
21
0.791802
0
LINE
8
BLACK
6
CONTINUOUS
10
0.435698
20
0.791802
11
0.433971
21
0.789494
0
LINE
8
BLACK
6
CONTINUOUS
10
0.433971
20
0.789494
11
0.431733
21
0.787819
0
LINE
8
BLACK
6
CONTINUOUS
10
0.431733
20
0.787819
11
0.428945
21
0.78762
0
LINE
8
BLACK
6
CONTINUOUS
10
0.428945
20
0.78762
11
0.426492
21
0.78896
0
LINE
8
BLACK
6
CONTINUOUS
10
0.426492
20
0.78896
11
0.426029
21
0.789494
0
LINE
8
BLACK
6
CONTINUOUS
10
0.426029
20
0.789494
11
0.424302
21
0.791802
0
LINE
8
BLACK
6
CONTINUOUS
10
0.424302
20
0.791802
11
0.419693
21
0.795252
0
LINE
8
BLACK
6
CONTINUOUS
10
0.419693
20
0.795252
11
0.414299
21
0.797263
0
LINE
8
BLACK
6
CONTINUOUS
10
0.414299
20
0.797263
11
0.414299
21
0.797263
0
LINE
8
BLACK
6
CONTINUOUS
10
0.414299
20
0.797263
11
0.414299
21
0.797263
0
LINE
8
BLACK
6
CONTINUOUS
10
0.414299
20
0.797263
11
0.411915
21
0.79752
0
LINE
8
BLACK
6
CONTINUOUS
10
0.411915
20
0.79752
11
0.411915
21
0.79752
0
LINE
8
BLACK
6
CONTINUOUS
10
0.411915
20
0.79752
11
0.411915
21
0.79752
0
LINE
8
BLACK
6
CONTINUOUS
10
0.411915
20
0.79752
11
0.348085
21
0.79752
0
LINE
8
BLACK
6
CONTINUOUS
10
0.348085
20
0.79752
11
0.348085
21
0.79752
0
LINE
8
BLACK
6
CONTINUOUS
10
0.348085
20
0.79752
11
0.348085
21
0.79752
0
LINE
8
BLACK
6
CONTINUOUS
10
0.348085
20
0.79752
11
0.345701
21
0.797263
0
LINE
8
BLACK
6
CONTINUOUS
10
0.345701
20
0.797263
11
0.345701
21
0.797263
0
LINE
8
BLACK
6
CONTINUOUS
10
0.345701
20
0.797263
11
0.342633
21
0.796119
0
LINE
8
BLACK
6
CONTINUOUS
10
0.342633
20
0.796119
11
0.340307
21
0.795252
0
LINE
8
BLACK
6
CONTINUOUS
10
0.340307
20
0.795252
11
0.340307
21
0.795251
0
LINE
8
BLACK
6
CONTINUOUS
10
0.340307
20
0.795251
11
0.340307
21
0.795251
0
LINE
8
BLACK
6
CONTINUOUS
10
0.340307
20
0.795251
11
0.335698
21
0.791802
0
LINE
8
BLACK
6
CONTINUOUS
10
0.335698
20
0.791802
11
0.333971
21
0.789494
0
LINE
8
BLACK
6
CONTINUOUS
10
0.333971
20
0.789494
11
0.331734
21
0.787819
0
LINE
8
BLACK
6
CONTINUOUS
10
0.331734
20
0.787819
11
0.328946
21
0.78762
0
LINE
8
BLACK
6
CONTINUOUS
10
0.328946
20
0.78762
11
0.326492
21
0.788959
0
LINE
8
BLACK
6
CONTINUOUS
10
0.326492
20
0.788959
11
0.326029
21
0.789494
0
LINE
8
BLACK
6
CONTINUOUS
10
0.326029
20
0.789494
11
0.324302
21
0.791802
0
LINE
8
BLACK
6
CONTINUOUS
10
0.324302
20
0.791802
11
0.319693
21
0.795251
0
LINE
8
BLACK
6
CONTINUOUS
10
0.319693
20
0.795251
11
0.319693
21
0.795251
0
LINE
8
BLACK
6
CONTINUOUS
10
0.319693
20
0.795251
11
0.319693
21
0.795252
0
LINE
8
BLACK
6
CONTINUOUS
10
0.319693
20
0.795252
11
0.314299
21
0.797263
0
LINE
8
BLACK
6
CONTINUOUS
10
0.314299
20
0.797263
11
0.314299
21
0.797263
0
LINE
8
BLACK
6
CONTINUOUS
10
0.314299
20
0.797263
11
0.314299
21
0.797263
0
LINE
8
BLACK
6
CONTINUOUS
10
0.314299
20
0.797263
11
0.311915
21
0.79752
0
LINE
8
BLACK
6
CONTINUOUS
10
0.311915
20
0.79752
11
0.311915
21
0.79752
0
LINE
8
BLACK
6
CONTINUOUS
10
0.311915
20
0.79752
11
0.311915
21
0.79752
0
LINE
8
BLACK
6
CONTINUOUS
10
0.311915
20
0.79752
11
0.248085
21
0.79752
0
LINE
8
BLACK
6
CONTINUOUS
10
0.248085
20
0.79752
11
0.248085
21
0.79752
0
LINE
8
BLACK
6
CONTINUOUS
10
0.248085
20
0.79752
11
0.248085
21
0.79752
0
LINE
8
BLACK
6
CONTINUOUS
10
0.248085
20
0.79752
11
0.245701
21
0.797263
0
LINE
8
BLACK
6
CONTINUOUS
10
0.245701
20
0.797263
11
0.245701
21
0.797263
0
LINE
8
BLACK
6
CONTINUOUS
10
0.245701
20
0.797263
11
0.242633
21
0.796119
0
LINE
8
BLACK
6
CONTINUOUS
10
0.242633
20
0.796119
11
0.240307
21
0.795252
0
LINE
8
BLACK
6
CONTINUOUS
10
0.240307
20
0.795252
11
0.240307
21
0.795251
0
LINE
8
BLACK
6
CONTINUOUS
10
0.240307
20
0.795251
11
0.240307
21
0.795251
0
LINE
8
BLACK
6
CONTINUOUS
10
0.240307
20
0.795251
11
0.235698
21
0.791802
0
LINE
8
BLACK
6
CONTINUOUS
10
0.235698
20
0.791802
11
0.233971
21
0.789494
0
LINE
8
BLACK
6
CONTINUOUS
10
0.233971
20
0.789494
11
0.231734
21
0.787819
0
LINE
8
BLACK
6
CONTINUOUS
10
0.231734
20
0.787819
11
0.228946
21
0.78762
0
LINE
8
BLACK
6
CONTINUOUS
10
0.228946
20
0.78762
11
0.226492
21
0.788959
0
LINE
8
BLACK
6
CONTINUOUS
10
0.226492
20
0.788959
11
0.226029
21
0.789494
0
LINE
8
BLACK
6
CONTINUOUS
10
0.226029
20
0.789494
11
0.224302
21
0.791802
0
LINE
8
BLACK
6
CONTINUOUS
10
0.224302
20
0.791802
11
0.219693
21
0.795251
0
LINE
8
BLACK
6
CONTINUOUS
10
0.219693
20
0.795251
11
0.219693
21
0.795251
0
LINE
8
BLACK
6
CONTINUOUS
10
0.219693
20
0.795251
11
0.219693
21
0.795252
0
LINE
8
BLACK
6
CONTINUOUS
10
0.219693
20
0.795252
11
0.214299
21
0.797263
0
LINE
8
BLACK
6
CONTINUOUS
10
0.214299
20
0.797263
11
0.214299
21
0.797263
0
LINE
8
BLACK
6
CONTINUOUS
10
0.214299
20
0.797263
11
0.214299
21
0.797263
0
LINE
8
BLACK
6
CONTINUOUS
10
0.214299
20
0.797263
11
0.211915
21
0.79752
0
LINE
8
BLACK
6
CONTINUOUS
10
0.211915
20
0.79752
11
0.211915
21
0.79752
0
LINE
8
BLACK
6
CONTINUOUS
10
0.211915
20
0.79752
11
0.211915
21
0.79752
0
LINE
8
BLACK
6
CONTINUOUS
10
0.211915
20
0.79752
11
0.148085
21
0.79752
0
LINE
8
BLACK
6
CONTINUOUS
10
0.148085
20
0.79752
11
0.148085
21
0.79752
0
LINE
8
BLACK
6
CONTINUOUS
10
0.148085
20
0.79752
11
0.148085
21
0.79752
0
LINE
8
BLACK
6
CONTINUOUS
10
0.148085
20
0.79752
11
0.145701
21
0.797263
0
LINE
8
BLACK
6
CONTINUOUS
10
0.145701
20
0.797263
11
0.145701
21
0.797263
0
LINE
8
BLACK
6
CONTINUOUS
10
0.145701
20
0.797263
11
0.142633
21
0.796119
0
LINE
8
BLACK
6
CONTINUOUS
10
0.142633
20
0.796119
11
0.140307
21
0.795252
0
LINE
8
BLACK
6
CONTINUOUS
10
0.140307
20
0.795252
11
0.140307
21
0.795251
0
LINE
8
BLACK
6
CONTINUOUS
10
0.140307
20
0.795251
11
0.140307
21
0.795251
0
LINE
8
BLACK
6
CONTINUOUS
10
0.140307
20
0.795251
11
0.135698
21
0.791802
0
LINE
8
BLACK
6
CONTINUOUS
10
0.135698
20
0.791802
11
0.133971
21
0.789494
0
LINE
8
BLACK
6
CONTINUOUS
10
0.133971
20
0.789494
11
0.131734
21
0.787819
0
LINE
8
BLACK
6
CONTINUOUS
10
0.131734
20
0.787819
11
0.128946
21
0.78762
0
LINE
8
BLACK
6
CONTINUOUS
10
0.128946
20
0.78762
11
0.126492
21
0.788959
0
LINE
8
BLACK
6
CONTINUOUS
10
0.126492
20
0.788959
11
0.126029
21
0.789494
0
LINE
8
BLACK
6
CONTINUOUS
10
0.126029
20
0.789494
11
0.124302
21
0.791802
0
LINE
8
BLACK
6
CONTINUOUS
10
0.124302
20
0.791802
11
0.119693
21
0.795251
0
LINE
8
BLACK
6
CONTINUOUS
10
0.119693
20
0.795251
11
0.119693
21
0.795251
0
LINE
8
BLACK
6
CONTINUOUS
10
0.119693
20
0.795251
11
0.119693
21
0.795252
0
LINE
8
BLACK
6
CONTINUOUS
10
0.119693
20
0.795252
11
0.114299
21
0.797263
0
LINE
8
BLACK
6
CONTINUOUS
10
0.114299
20
0.797263
11
0.114299
21
0.797263
0
LINE
8
BLACK
6
CONTINUOUS
10
0.114299
20
0.797263
11
0.114299
21
0.797263
0
LINE
8
BLACK
6
CONTINUOUS
10
0.114299
20
0.797263
11
0.111915
21
0.79752
0
LINE
8
BLACK
6
CONTINUOUS
10
0.111915
20
0.79752
11
0.111915
21
0.79752
0
LINE
8
BLACK
6
CONTINUOUS
10
0.111915
20
0.79752
11
0.111915
21
0.79752
0
LINE
8
BLACK
6
CONTINUOUS
10
0.111915
20
0.79752
11
0.0480851
21
0.79752
0
LINE
8
BLACK
6
CONTINUOUS
10
0.0480851
20
0.79752
11
0.0480848
21
0.79752
0
LINE
8
BLACK
6
CONTINUOUS
10
0.0480848
20
0.79752
11
0.0480846
21
0.79752
0
LINE
8
BLACK
6
CONTINUOUS
10
0.0480846
20
0.79752
11
0.0457009
21
0.797263
0
LINE
8
BLACK
6
CONTINUOUS
10
0.0457009
20
0.797263
11
0.0457006
21
0.797263
0
LINE
8
BLACK
6
CONTINUOUS
10
0.0457006
20
0.797263
11
0.0426329
21
0.796119
0
LINE
8
BLACK
6
CONTINUOUS
10
0.0426329
20
0.796119
11
0.0403069
21
0.795252
0
LINE
8
BLACK
6
CONTINUOUS
10
0.0403069
20
0.795252
11
0.0403069
21
0.795251
0
LINE
8
BLACK
6
CONTINUOUS
10
0.0403069
20
0.795251
11
0.0403068
21
0.795251
0
LINE
8
BLACK
6
CONTINUOUS
10
0.0403068
20
0.795251
11
0.0356983
21
0.791802
0
LINE
8
BLACK
6
CONTINUOUS
10
0.0356983
20
0.791802
11
0.0322485
21
0.787193
0
LINE
8
BLACK
6
CONTINUOUS
10
0.0322485
20
0.787193
11
0.0322484
21
0.787193
0
LINE
8
BLACK
6
CONTINUOUS
10
0.0322484
20
0.787193
11
0.0302367
21
0.781799
0
LINE
8
BLACK
6
CONTINUOUS
10
0.0302367
20
0.781799
11
0.0302366
21
0.781799
0
LINE
8
BLACK
6
CONTINUOUS
10
0.0302366
20
0.781799
11
0.0299803
21
0.779415
0
LINE
8
BLACK
6
CONTINUOUS
10
0.0299803
20
0.779415
11
0.0299803
21
0.715585
0
LINE
8
BLACK
6
CONTINUOUS
10
0.0299803
20
0.715585
11
0.0302366
21
0.713201
0
LINE
8
BLACK
6
CONTINUOUS
10
0.0302366
20
0.713201
11
0.0302367
21
0.713201
0
LINE
8
BLACK
6
CONTINUOUS
10
0.0302367
20
0.713201
11
0.0322484
21
0.707807
0
LINE
8
BLACK
6
CONTINUOUS
10
0.0322484
20
0.707807
11
0.0322485
21
0.707807
0
LINE
8
BLACK
6
CONTINUOUS
10
0.0322485
20
0.707807
11
0.0356984
21
0.703198
0
LINE
8
BLACK
6
CONTINUOUS
10
0.0356984
20
0.703198
11
0.0380056
21
0.701471
0
LINE
8
BLACK
6
CONTINUOUS
10
0.0380056
20
0.701471
11
0.0396807
21
0.699234
0
LINE
8
BLACK
6
CONTINUOUS
10
0.0396807
20
0.699234
11
0.03988
21
0.696446
0
LINE
8
BLACK
6
CONTINUOUS
10
0.03988
20
0.696446
11
0.0385405
21
0.693992
0
LINE
8
BLACK
6
CONTINUOUS
10
0.0385405
20
0.693992
11
0.0380056
21
0.693529
0
LINE
8
BLACK
6
CONTINUOUS
10
0.0380056
20
0.693529
11
0.0356984
21
0.691802
0
LINE
8
BLACK
6
CONTINUOUS
10
0.0356984
20
0.691802
11
0.0322485
21
0.687193
0
LINE
8
BLACK
6
CONTINUOUS
10
0.0322485
20
0.687193
11
0.0322484
21
0.687193
0
LINE
8
BLACK
6
CONTINUOUS
10
0.0322484
20
0.687193
11
0.0302367
21
0.681799
0
LINE
8
BLACK
6
CONTINUOUS
10
0.0302367
20
0.681799
11
0.0302366
21
0.681799
0
LINE
8
BLACK
6
CONTINUOUS
10
0.0302366
20
0.681799
11
0.0299803
21
0.679415
0
LINE
8
BLACK
6
CONTINUOUS
10
0.0299803
20
0.679415
11
0.0299803
21
0.615585
0
LINE
8
BLACK
6
CONTINUOUS
10
0.0299803
20
0.615585
11
0.0302366
21
0.613201
0
LINE
8
BLACK
6
CONTINUOUS
10
0.0302366
20
0.613201
11
0.0302367
21
0.613201
0
LINE
8
BLACK
6
CONTINUOUS
10
0.0302367
20
0.613201
11
0.0322484
21
0.607807
0
LINE
8
BLACK
6
CONTINUOUS
10
0.0322484
20
0.607807
11
0.0322485
21
0.607807
0
LINE
8
BLACK
6
CONTINUOUS
10
0.0322485
20
0.607807
11
0.0356984
21
0.603198
0
LINE
8
BLACK
6
CONTINUOUS
10
0.0356984
20
0.603198
11
0.0380056
21
0.601471
0
LINE
8
BLACK
6
CONTINUOUS
10
0.0380056
20
0.601471
11
0.0396807
21
0.599234
0
LINE
8
BLACK
6
CONTINUOUS
10
0.0396807
20
0.599234
11
0.03988
21
0.596446
0
LINE
8
BLACK
6
CONTINUOUS
10
0.03988
20
0.596446
11
0.0385405
21
0.593992
0
LINE
8
BLACK
6
CONTINUOUS
10
0.0385405
20
0.593992
11
0.0380056
21
0.593529
0
LINE
8
BLACK
6
CONTINUOUS
10
0.0380056
20
0.593529
11
0.0356984
21
0.591802
0
LINE
8
BLACK
6
CONTINUOUS
10
0.0356984
20
0.591802
11
0.0322485
21
0.587193
0
LINE
8
BLACK
6
CONTINUOUS
10
0.0322485
20
0.587193
11
0.0322484
21
0.587193
0
LINE
8
BLACK
6
CONTINUOUS
10
0.0322484
20
0.587193
11
0.0302367
21
0.581799
0
LINE
8
BLACK
6
CONTINUOUS
10
0.0302367
20
0.581799
11
0.0302366
21
0.581799
0
LINE
8
BLACK
6
CONTINUOUS
10
0.0302366
20
0.581799
11
0.0299803
21
0.579415
0
LINE
8
BLACK
6
CONTINUOUS
10
0.0299803
20
0.579415
11
0.0299803
21
0.515585
0
LINE
8
BLACK
6
CONTINUOUS
10
0.0299803
20
0.515585
11
0.0302366
21
0.513201
0
LINE
8
BLACK
6
CONTINUOUS
10
0.400237
20
0.985701
11
0.400237
21
0.985701
0
LINE
8
BLACK
6
CONTINUOUS
10
0.400237
20
0.985701
11
0.402248
21
0.980307
0
LINE
8
BLACK
6
CONTINUOUS
10
0.402248
20
0.980307
11
0.402249
21
0.980307
0
LINE
8
BLACK
6
CONTINUOUS
10
0.402249
20
0.980307
11
0.40468
21
0.977059
0
LINE
8
BLACK
6
CONTINUOUS
10
0.40468
20
0.977059
11
0.405657
21
0.97444
0
LINE
8
BLACK
6
CONTINUOUS
10
0.405657
20
0.97444
11
0.405669
21
0.974086
0
LINE
8
BLACK
6
CONTINUOUS
10
0.405669
20
0.974086
11
0.405669
21
0.943913
0
LINE
8
BLACK
6
CONTINUOUS
10
0.405669
20
0.943913
11
0.406039
21
0.942296
0
LINE
8
BLACK
6
CONTINUOUS
10
0.406039
20
0.942296
11
0.406085
21
0.942021
0
LINE
8
BLACK
6
CONTINUOUS
10
0.406085
20
0.942021
11
0.406271
21
0.940372
0
LINE
8
BLACK
6
CONTINUOUS
10
0.406271
20
0.940372
11
0.406819
21
0.938806
0
LINE
8
BLACK
6
CONTINUOUS
10
0.406819
20
0.938806
11
0.406896
21
0.938538
0
LINE
8
BLACK
6
CONTINUOUS
10
0.406896
20
0.938538
11
0.407265
21
0.936921
0
LINE
8
BLACK
6
CONTINUOUS
10
0.407265
20
0.936921
11
0.407265
21
0.936921
0
LINE
8
BLACK
6
CONTINUOUS
10
0.407265
20
0.936921
11
0.407985
21
0.935425
0
LINE
8
BLACK
6
CONTINUOUS
10
0.407985
20
0.935425
11
0.408092
21
0.935168
0
LINE
8
BLACK
6
CONTINUOUS
10
0.408092
20
0.935168
11
0.40864
21
0.933602
0
LINE
8
BLACK
6
CONTINUOUS
10
0.40864
20
0.933602
11
0.409523
21
0.932197
0
LINE
8
BLACK
6
CONTINUOUS
10
0.409523
20
0.932197
11
0.409658
21
0.931953
0
LINE
8
BLACK
6
CONTINUOUS
10
0.409658
20
0.931953
11
0.410378
21
0.930458
0
LINE
8
BLACK
6
CONTINUOUS
10
0.410378
20
0.930458
11
0.411412
21
0.92916
0
LINE
8
BLACK
6
CONTINUOUS
10
0.411412
20
0.92916
11
0.411573
21
0.928933
0
LINE
8
BLACK
6
CONTINUOUS
10
0.411573
20
0.928933
11
0.412456
21
0.927528
0
LINE
8
BLACK
6
CONTINUOUS
10
0.412456
20
0.927528
11
0.412456
21
0.927528
0
LINE
8
BLACK
6
CONTINUOUS
10
0.412456
20
0.927528
11
0.413728
21
0.926256
0
LINE
8
BLACK
6
CONTINUOUS
10
0.413728
20
0.926256
11
0.417614
21
0.92237
0
LINE
8
BLACK
6
CONTINUOUS
10
0.417614
20
0.92237
11
0.418825
21
0.920395
0
LINE
8
BLACK
6
CONTINUOUS
10
0.418825
20
0.920395
11
0.419645
21
0.917872
0
LINE
8
BLACK
6
CONTINUOUS
10
0.419645
20
0.917872
11
0.423404
21
0.911361
0
LINE
8
BLACK
6
CONTINUOUS
10
0.423404
20
0.911361
11
0.423404
21
0.91136
0
LINE
8
BLACK
6
CONTINUOUS
10
0.423404
20
0.91136
11
0.428435
21
0.905773
0
LINE
8
BLACK
6
CONTINUOUS
10
0.428435
20
0.905773
11
0.434518
21
0.901354
0
LINE
8
BLACK
6
CONTINUOUS
10
0.434518
20
0.901354
11
0.441386
21
0.898296
0
LINE
8
BLACK
6
CONTINUOUS
10
0.441386
20
0.898296
11
0.448741
21
0.896732
0
LINE
8
BLACK
6
CONTINUOUS
10
0.448741
20
0.896732
11
0.456259
21
0.896732
0
LINE
8
BLACK
6
CONTINUOUS
10
0.456259
20
0.896732
11
0.463614
21
0.898296
0
LINE
8
BLACK
6
CONTINUOUS
10
0.463614
20
0.898296
11
0.470482
21
0.901354
0
LINE
8
BLACK
6
CONTINUOUS
10
0.470482
20
0.901354
11
0.476565
21
0.905773
0
LINE
8
BLACK
6
CONTINUOUS
10
0.476565
20
0.905773
11
0.481596
21
0.91136
0
LINE
8
BLACK
6
CONTINUOUS
10
0.481596
20
0.91136
11
0.481596
21
0.911361
0
LINE
8
BLACK
6
CONTINUOUS
10
0.481596
20
0.911361
11
0.482109
21
0.912248
0
LINE
8
BLACK
6
CONTINUOUS
10
0.482109
20
0.912248
11
0.485355
21
0.917872
0
LINE
8
BLACK
6
CONTINUOUS
10
0.485355
20
0.917872
11
0.487679
21
0.925023
0
LINE
8
BLACK
6
CONTINUOUS
10
0.487679
20
0.925023
11
0.488465
21
0.9325
0
LINE
8
BLACK
6
CONTINUOUS
10
0.488465
20
0.9325
11
0.487679
21
0.939977
0
LINE
8
BLACK
6
CONTINUOUS
10
0.487679
20
0.939977
11
0.485355
21
0.947128
0
LINE
8
BLACK
6
CONTINUOUS
10
0.485355
20
0.947128
11
0.481596
21
0.95364
0
LINE
8
BLACK
6
CONTINUOUS
10
0.481596
20
0.95364
11
0.478138
21
0.95748
0
LINE
8
BLACK
6
CONTINUOUS
10
0.478138
20
0.95748
11
0.476565
21
0.959227
0
LINE
8
BLACK
6
CONTINUOUS
10
0.476565
20
0.959227
11
0.476565
21
0.959227
0
LINE
8
BLACK
6
CONTINUOUS
10
0.476565
20
0.959227
11
0.476565
21
0.959227
0
LINE
8
BLACK
6
CONTINUOUS
10
0.476565
20
0.959227
11
0.471375
21
0.962997
0
LINE
8
BLACK
6
CONTINUOUS
10
0.471375
20
0.962997
11
0.469669
21
0.965211
0
LINE
8
BLACK
6
CONTINUOUS
10
0.469669
20
0.965211
11
0.469331
21
0.967011
0
LINE
8
BLACK
6
CONTINUOUS
10
0.469331
20
0.967011
11
0.469331
21
0.974086
0
LINE
8
BLACK
6
CONTINUOUS
10
0.469331
20
0.974086
11
0.470118
21
0.976768
0
LINE
8
BLACK
6
CONTINUOUS
10
0.470118
20
0.976768
11
0.47032
21
0.977059
0
LINE
8
BLACK
6
CONTINUOUS
10
0.47032
20
0.977059
11
0.471029
21
0.978006
0
LINE
8
BLACK
6
CONTINUOUS
10
0.471029
20
0.978006
11
0.473266
21
0.979681
0
LINE
8
BLACK
6
CONTINUOUS
10
0.473266
20
0.979681
11
0.476054
21
0.97988
0
LINE
8
BLACK
6
CONTINUOUS
10
0.476054
20
0.97988
11
0.478508
21
0.978541
0
LINE
8
BLACK
6
CONTINUOUS
10
0.478508
20
0.978541
11
0.478971
21
0.978006
0
LINE
8
BLACK
6
CONTINUOUS
10
0.478971
20
0.978006
11
0.480698
21
0.975698
0
LINE
8
BLACK
6
CONTINUOUS
10
0.480698
20
0.975698
11
0.485307
21
0.972249
0
LINE
8
BLACK
6
CONTINUOUS
10
0.485307
20
0.972249
11
0.485307
21
0.972248
0
LINE
8
BLACK
6
CONTINUOUS
10
0.485307
20
0.972248
11
0.490701
21
0.970237
0
LINE
8
BLACK
6
CONTINUOUS
10
0.490701
20
0.970237
11
0.490701
21
0.970237
0
LINE
8
BLACK
6
CONTINUOUS
10
0.490701
20
0.970237
11
0.493085
21
0.96998
0
LINE
8
BLACK
6
CONTINUOUS
10
0.493085
20
0.96998
11
0.493085
21
0.96998
0
LINE
8
BLACK
6
CONTINUOUS
10
0.493085
20
0.96998
11
0.531915
21
0.96998
0
LINE
8
BLACK
6
CONTINUOUS
10
0.531915
20
0.96998
11
0.534299
21
0.970237
0
LINE
8
BLACK
6
CONTINUOUS
10
0.534299
20
0.970237
11
0.534299
21
0.970237
0
LINE
8
BLACK
6
CONTINUOUS
10
0.534299
20
0.970237
11
0.539693
21
0.972248
0
LINE
8
BLACK
6
CONTINUOUS
10
0.539693
20
0.972248
11
0.539693
21
0.972249
0
LINE
8
BLACK
6
CONTINUOUS
10
0.539693
20
0.972249
11
0.544302
21
0.975698
0
LINE
8
BLACK
6
CONTINUOUS
10
0.544302
20
0.975698
11
0.547751
21
0.980307
0
LINE
8
BLACK
6
CONTINUOUS
10
0.547751
20
0.980307
11
0.547751
21
0.980307
0
LINE
8
BLACK
6
CONTINUOUS
10
0.547751
20
0.980307
11
0.547752
21
0.980307
0
LINE
8
BLACK
6
CONTINUOUS
10
0.547752
20
0.980307
11
0.547872
21
0.98063
0
LINE
8
BLACK
6
CONTINUOUS
10
0.547872
20
0.98063
11
0.549547
21
0.982867
0
LINE
8
BLACK
6
CONTINUOUS
10
0.549547
20
0.982867
11
0.552166
21
0.983844
0
LINE
8
BLACK
6
CONTINUOUS
10
0.552166
20
0.983844
11
0.554897
21
0.98325
0
LINE
8
BLACK
6
CONTINUOUS
10
0.554897
20
0.98325
11
0.556874
21
0.981273
0
LINE
8
BLACK
6
CONTINUOUS
10
0.556874
20
0.981273
11
0.55748
21
0.978896
0
LINE
8
BLACK
6
CONTINUOUS
10
0.55748
20
0.978896
11
0.55748
21
0.975585
0
LINE
8
BLACK
6
CONTINUOUS
10
0.55748
20
0.975585
11
0.557737
21
0.973201
0
LINE
8
BLACK
6
CONTINUOUS
10
0.557737
20
0.973201
11
0.557737
21
0.973201
0
LINE
8
BLACK
6
CONTINUOUS
10
0.557737
20
0.973201
11
0.559748
21
0.967807
0
LINE
8
BLACK
6
CONTINUOUS
10
0.559748
20
0.967807
11
0.559749
21
0.967807
0
LINE
8
BLACK
6
CONTINUOUS
10
0.559749
20
0.967807
11
0.563198
21
0.963198
0
LINE
8
BLACK
6
CONTINUOUS
10
0.563198
20
0.963198
11
0.567807
21
0.959749
0
LINE
8
BLACK
6
CONTINUOUS
10
0.567807
20
0.959749
11
0.567807
21
0.959748
0
LINE
8
BLACK
6
CONTINUOUS
10
0.567807
20
0.959748
11
0.573201
21
0.957737
0
LINE
8
BLACK
6
CONTINUOUS
10
0.573201
20
0.957737
11
0.573201
21
0.957737
0
LINE
8
BLACK
6
CONTINUOUS
10
0.573201
20
0.957737
11
0.575585
21
0.95748
0
LINE
8
BLACK
6
CONTINUOUS
10
0.575585
20
0.95748
11
0.575585
21
0.95748
0
LINE
8
BLACK
6
CONTINUOUS
10
0.575585
20
0.95748
11
0.639415
21
0.95748
0
LINE
8
BLACK
6
CONTINUOUS
10
0.639415
20
0.95748
11
0.641799
21
0.957737
0
LINE
8
BLACK
6
CONTINUOUS
10
0.641799
20
0.957737
11
0.641799
21
0.957737
0
LINE
8
BLACK
6
CONTINUOUS
10
0.641799
20
0.957737
11
0.647193
21
0.959748
0
LINE
8
BLACK
6
CONTINUOUS
10
0.647193
20
0.959748
11
0.647193
21
0.959749
0
LINE
8
BLACK
6
CONTINUOUS
10
0.647193
20
0.959749
11
0.651802
21
0.963198
0
LINE
8
BLACK
6
CONTINUOUS
10
0.651802
20
0.963198
11
0.653529
21
0.965506
0
LINE
8
BLACK
6
CONTINUOUS
10
0.653529
20
0.965506
11
0.655766
21
0.967181
0
LINE
8
BLACK
6
CONTINUOUS
10
0.655766
20
0.967181
11
0.658554
21
0.96738
0
LINE
8
BLACK
6
CONTINUOUS
10
0.658554
20
0.96738
11
0.661008
21
0.96604
0
LINE
8
BLACK
6
CONTINUOUS
10
0.661008
20
0.96604
11
0.661471
21
0.965506
0
LINE
8
BLACK
6
CONTINUOUS
10
0.661471
20
0.965506
11
0.663198
21
0.963198
0
LINE
8
BLACK
6
CONTINUOUS
10
0.663198
20
0.963198
11
0.667807
21
0.959749
0
LINE
8
BLACK
6
CONTINUOUS
10
0.667807
20
0.959749
11
0.667807
21
0.959748
0
LINE
8
BLACK
6
CONTINUOUS
10
0.667807
20
0.959748
11
0.673201
21
0.957737
0
LINE
8
BLACK
6
CONTINUOUS
10
0.673201
20
0.957737
11
0.673201
21
0.957737
0
LINE
8
BLACK
6
CONTINUOUS
10
0.673201
20
0.957737
11
0.675585
21
0.95748
0
LINE
8
BLACK
6
CONTINUOUS
10
0.675585
20
0.95748
11
0.675585
21
0.95748
0
LINE
8
BLACK
6
CONTINUOUS
10
0.675585
20
0.95748
11
0.739415
21
0.95748
0
LINE
8
BLACK
6
CONTINUOUS
10
0.739415
20
0.95748
11
0.741799
21
0.957737
0
LINE
8
BLACK
6
CONTINUOUS
10
0.741799
20
0.957737
11
0.741799
21
0.957737
0
LINE
8
BLACK
6
CONTINUOUS
10
0.741799
20
0.957737
11
0.747193
21
0.959748
0
LINE
8
BLACK
6
CONTINUOUS
10
0.747193
20
0.959748
11
0.747193
21
0.959749
0
LINE
8
BLACK
6
CONTINUOUS
10
0.747193
20
0.959749
11
0.751802
21
0.963198
0
LINE
8
BLACK
6
CONTINUOUS
10
0.751802
20
0.963198
11
0.755251
21
0.967807
0
LINE
8
BLACK
6
CONTINUOUS
10
0.755251
20
0.967807
11
0.755252
21
0.967807
0
LINE
8
BLACK
6
CONTINUOUS
10
0.755252
20
0.967807
11
0.757263
21
0.973201
0
LINE
8
BLACK
6
CONTINUOUS
10
0.757263
20
0.973201
11
0.757263
21
0.973201
0
LINE
8
BLACK
6
CONTINUOUS
10
0.757263
20
0.973201
11
0.75752
21
0.975585
0
LINE
8
BLACK
6
CONTINUOUS
10
0.75752
20
0.975585
11
0.75752
21
0.975585
0
LINE
8
BLACK
6
CONTINUOUS
10
0.75752
20
0.975585
11
0.75752
21
1.03941
0
LINE
8
BLACK
6
CONTINUOUS
10
0.75752
20
1.03941
11
0.75752
21
1.03942
0
LINE
8
BLACK
6
CONTINUOUS
10
0.75752
20
1.03942
11
0.757263
21
1.0418
0
LINE
8
BLACK
6
CONTINUOUS
10
0.757263
20
1.0418
11
0.757263
21
1.0418
0
LINE
8
BLACK
6
CONTINUOUS
10
0.757263
20
1.0418
11
0.756987
21
1.04254
0
LINE
8
BLACK
6
CONTINUOUS
10
0.756987
20
1.04254
11
0.755252
21
1.04719
0
LINE
8
BLACK
6
CONTINUOUS
10
0.755252
20
1.04719
11
0.753651
21
1.04933
0
LINE
8
BLACK
6
CONTINUOUS
10
0.753651
20
1.04933
11
0.751802
21
1.0518
0
LINE
8
BLACK
6
CONTINUOUS
10
0.751802
20
1.0518
11
0.749494
21
1.05353
0
LINE
8
BLACK
6
CONTINUOUS
10
0.749494
20
1.05353
11
0.747819
21
1.05577
0
LINE
8
BLACK
6
CONTINUOUS
10
0.747819
20
1.05577
11
0.74762
21
1.05855
0
LINE
8
BLACK
6
CONTINUOUS
10
0.74762
20
1.05855
11
0.748959
21
1.06101
0
LINE
8
BLACK
6
CONTINUOUS
10
0.748959
20
1.06101
11
0.749494
21
1.06147
0
LINE
8
BLACK
6
CONTINUOUS
10
0.749494
20
1.06147
11
0.751802
21
1.0632
0
LINE
8
BLACK
6
CONTINUOUS
10
0.751802
20
1.0632
11
0.755251
21
1.06781
0
LINE
8
BLACK
6
CONTINUOUS
10
0.755251
20
1.06781
11
0.755252
21
1.06781
0
LINE
8
BLACK
6
CONTINUOUS
10
0.755252
20
1.06781
11
0.755263
21
1.06784
0
LINE
8
BLACK
6
CONTINUOUS
10
0.755263
20
1.06784
11
0.756985
21
1.07246
0
LINE
8
BLACK
6
CONTINUOUS
10
0.756985
20
1.07246
11
0.757263
21
1.0732
0
LINE
8
BLACK
6
CONTINUOUS
10
0.757263
20
1.0732
11
0.757263
21
1.0732
0
LINE
8
BLACK
6
CONTINUOUS
10
0.757263
20
1.0732
11
0.75752
21
1.07558
0
LINE
8
BLACK
6
CONTINUOUS
10
0.75752
20
1.07558
11
0.75752
21
1.07559
0
LINE
8
BLACK
6
CONTINUOUS
10
0.75752
20
1.07559
11
0.75752
21
1.13941
0
LINE
8
BLACK
6
CONTINUOUS
10
0.75752
20
1.13941
11
0.75752
21
1.13942
0
LINE
8
BLACK
6
CONTINUOUS
10
0.75752
20
1.13942
11
0.757263
21
1.1418
0
LINE
8
BLACK
6
CONTINUOUS
10
0.757263
20
1.1418
11
0.757263
21
1.1418
0
LINE
8
BLACK
6
CONTINUOUS
10
0.757263
20
1.1418
11
0.756958
21
1.14262
0
LINE
8
BLACK
6
CONTINUOUS
10
0.756958
20
1.14262
11
0.755252
21
1.14719
0
LINE
8
BLACK
6
CONTINUOUS
10
0.755252
20
1.14719
11
0.751802
21
1.1518
0
LINE
8
BLACK
6
CONTINUOUS
10
0.751802
20
1.1518
11
0.747193
21
1.15525
0
LINE
8
BLACK
6
CONTINUOUS
10
0.747193
20
1.15525
11
0.741799
21
1.15726
0
LINE
8
BLACK
6
CONTINUOUS
10
0.741799
20
1.15726
11
0.741799
21
1.15726
0
LINE
8
BLACK
6
CONTINUOUS
10
0.741799
20
1.15726
11
0.741799
21
1.15726
0
LINE
8
BLACK
6
CONTINUOUS
10
0.741799
20
1.15726
11
0.739415
21
1.15752
0
LINE
8
BLACK
6
CONTINUOUS
10
0.739415
20
1.15752
11
0.739415
21
1.15752
0
LINE
8
BLACK
6
CONTINUOUS
10
0.739415
20
1.15752
11
0.739415
21
1.15752
0
LINE
8
BLACK
6
CONTINUOUS
10
0.739415
20
1.15752
11
0.675585
21
1.15752
0
LINE
8
BLACK
6
CONTINUOUS
10
0.675585
20
1.15752
11
0.675585
21
1.15752
0
LINE
8
BLACK
6
CONTINUOUS
10
0.675585
20
1.15752
11
0.675585
21
1.15752
0
LINE
8
BLACK
6
CONTINUOUS
10
0.675585
20
1.15752
11
0.673201
21
1.15726
0
LINE
8
BLACK
6
CONTINUOUS
10
0.673201
20
1.15726
11
0.673201
21
1.15726
0
LINE
8
BLACK
6
CONTINUOUS
10
0.673201
20
1.15726
11
0.670133
21
1.15612
0
LINE
8
BLACK
6
CONTINUOUS
10
0.670133
20
1.15612
11
0.667807
21
1.15525
0
LINE
8
BLACK
6
CONTINUOUS
10
0.667807
20
1.15525
11
0.667807
21
1.15525
0
LINE
8
BLACK
6
CONTINUOUS
10
0.667807
20
1.15525
11
0.667807
21
1.15525
0
LINE
8
BLACK
6
CONTINUOUS
10
0.667807
20
1.15525
11
0.663198
21
1.1518
0
LINE
8
BLACK
6
CONTINUOUS
10
0.663198
20
1.1518
11
0.661471
21
1.14949
0
LINE
8
BLACK
6
CONTINUOUS
10
0.661471
20
1.14949
11
0.659234
21
1.14782
0
LINE
8
BLACK
6
CONTINUOUS
10
0.659234
20
1.14782
11
0.656446
21
1.14762
0
LINE
8
BLACK
6
CONTINUOUS
10
0.656446
20
1.14762
11
0.653992
21
1.14896
0
LINE
8
BLACK
6
CONTINUOUS
10
0.653992
20
1.14896
11
0.653529
21
1.14949
0
LINE
8
BLACK
6
CONTINUOUS
10
0.653529
20
1.14949
11
0.651802
21
1.1518
0
LINE
8
BLACK
6
CONTINUOUS
10
0.651802
20
1.1518
11
0.647193
21
1.15525
0
LINE
8
BLACK
6
CONTINUOUS
10
0.647193
20
1.15525
11
0.647193
21
1.15525
0
LINE
8
BLACK
6
CONTINUOUS
10
0.647193
20
1.15525
11
0.647193
21
1.15525
0
LINE
8
BLACK
6
CONTINUOUS
10
0.647193
20
1.15525
11
0.641799
21
1.15726
0
LINE
8
BLACK
6
CONTINUOUS
10
0.641799
20
1.15726
11
0.641799
21
1.15726
0
LINE
8
BLACK
6
CONTINUOUS
10
0.641799
20
1.15726
11
0.641799
21
1.15726
0
LINE
8
BLACK
6
CONTINUOUS
10
0.641799
20
1.15726
11
0.639415
21
1.15752
0
LINE
8
BLACK
6
CONTINUOUS
10
0.639415
20
1.15752
11
0.639415
21
1.15752
0
LINE
8
BLACK
6
CONTINUOUS
10
0.639415
20
1.15752
11
0.639415
21
1.15752
0
LINE
8
BLACK
6
CONTINUOUS
10
0.639415
20
1.15752
11
0.575585
21
1.15752
0
LINE
8
BLACK
6
CONTINUOUS
10
0.575585
20
1.15752
11
0.575585
21
1.15752
0
LINE
8
BLACK
6
CONTINUOUS
10
0.575585
20
1.15752
11
0.575585
21
1.15752
0
LINE
8
BLACK
6
CONTINUOUS
10
0.575585
20
1.15752
11
0.573201
21
1.15726
0
LINE
8
BLACK
6
CONTINUOUS
10
0.573201
20
1.15726
11
0.573201
21
1.15726
0
LINE
8
BLACK
6
CONTINUOUS
10
0.573201
20
1.15726
11
0.570133
21
1.15612
0
LINE
8
BLACK
6
CONTINUOUS
10
0.570133
20
1.15612
11
0.567807
21
1.15525
0
LINE
8
BLACK
6
CONTINUOUS
10
0.567807
20
1.15525
11
0.567807
21
1.15525
0
LINE
8
BLACK
6
CONTINUOUS
10
0.567807
20
1.15525
11
0.567807
21
1.15525
0
LINE
8
BLACK
6
CONTINUOUS
10
0.567807
20
1.15525
11
0.563198
21
1.1518
0
LINE
8
BLACK
6
CONTINUOUS
10
0.563198
20
1.1518
11
0.559749
21
1.14719
0
LINE
8
BLACK
6
CONTINUOUS
10
0.559749
20
1.14719
11
0.559748
21
1.14719
0
LINE
8
BLACK
6
CONTINUOUS
10
0.559748
20
1.14719
11
0.558952
21
1.14506
0
LINE
8
BLACK
6
CONTINUOUS
10
0.558952
20
1.14506
11
0.557277
21
1.14282
0
LINE
8
BLACK
6
CONTINUOUS
10
0.557277
20
1.14282
11
0.554658
21
1.14184
0
LINE
8
BLACK
6
CONTINUOUS
10
0.554658
20
1.14184
11
0.554304
21
1.14183
0
LINE
8
BLACK
6
CONTINUOUS
10
0.554304
20
1.14183
11
0.553196
21
1.14183
0
LINE
8
BLACK
6
CONTINUOUS
10
0.553196
20
1.14183
11
0.550514
21
1.14262
0
LINE
8
BLACK
6
CONTINUOUS
10
0.550514
20
1.14262
11
0.548683
21
1.14473
0
LINE
8
BLACK
6
CONTINUOUS
10
0.548683
20
1.14473
11
0.548548
21
1.14506
0
LINE
8
BLACK
6
CONTINUOUS
10
0.548548
20
1.14506
11
0.548256
21
1.14584
0
LINE
8
BLACK
6
CONTINUOUS
10
0.548256
20
1.14584
11
0.547752
21
1.14719
0
LINE
8
BLACK
6
CONTINUOUS
10
0.547752
20
1.14719
11
0.544302
21
1.1518
0
LINE
8
BLACK
6
CONTINUOUS
10
0.544302
20
1.1518
11
0.539693
21
1.15525
0
LINE
8
BLACK
6
CONTINUOUS
10
0.539693
20
1.15525
11
0.534299
21
1.15726
0
LINE
8
BLACK
6
CONTINUOUS
10
0.534299
20
1.15726
11
0.534299
21
1.15726
0
LINE
8
BLACK
6
CONTINUOUS
10
0.534299
20
1.15726
11
0.534299
21
1.15726
0
LINE
8
BLACK
6
CONTINUOUS
10
0.534299
20
1.15726
11
0.531915
21
1.15752
0
LINE
8
BLACK
6
CONTINUOUS
10
0.531915
20
1.15752
11
0.531915
21
1.15752
0
LINE
8
BLACK
6
CONTINUOUS
10
0.531915
20
1.15752
11
0.531915
21
1.15752
0
LINE
8
BLACK
6
CONTINUOUS
10
0.531915
20
1.15752
11
0.493085
21
1.15752
0
LINE
8
BLACK
6
CONTINUOUS
10
0.493085
20
1.15752
11
0.493085
21
1.15752
0
LINE
8
BLACK
6
CONTINUOUS
10
0.493085
20
1.15752
11
0.493085
21
1.15752
0
LINE
8
BLACK
6
CONTINUOUS
10
0.493085
20
1.15752
11
0.490701
21
1.15726
0
LINE
8
BLACK
6
CONTINUOUS
10
0.490701
20
1.15726
11
0.490701
21
1.15726
0
LINE
8
BLACK
6
CONTINUOUS
10
0.490701
20
1.15726
11
0.487633
21
1.15612
0
LINE
8
BLACK
6
CONTINUOUS
10
0.487633
20
1.15612
11
0.485307
21
1.15525
0
LINE
8
BLACK
6
CONTINUOUS
10
0.485307
20
1.15525
11
0.485307
21
1.15525
0
LINE
8
BLACK
6
CONTINUOUS
10
0.485307
20
1.15525
11
0.485307
21
1.15525
0
LINE
8
BLACK
6
CONTINUOUS
10
0.485307
20
1.15525
11
0.480698
21
1.1518
0
LINE
8
BLACK
6
CONTINUOUS
10
0.480698
20
1.1518
11
0.478971
21
1.14949
0
LINE
8
BLACK
6
CONTINUOUS
10
0.478971
20
1.14949
11
0.476734
21
1.14782
0
LINE
8
BLACK
6
CONTINUOUS
10
0.476734
20
1.14782
11
0.473946
21
1.14762
0
LINE
8
BLACK
6
CONTINUOUS
10
0.473946
20
1.14762
11
0.471492
21
1.14896
0
LINE
8
BLACK
6
CONTINUOUS
10
0.471492
20
1.14896
11
0.471029
21
1.14949
0
LINE
8
BLACK
6
CONTINUOUS
10
0.471029
20
1.14949
11
0.469302
21
1.1518
0
LINE
8
BLACK
6
CONTINUOUS
10
0.469302
20
1.1518
11
0.464693
21
1.15525
0
LINE
8
BLACK
6
CONTINUOUS
10
0.464693
20
1.15525
11
0.464693
21
1.15525
0
LINE
8
BLACK
6
CONTINUOUS
10
0.464693
20
1.15525
11
0.464693
21
1.15525
0
LINE
8
BLACK
6
CONTINUOUS
10
0.464693
20
1.15525
11
0.459299
21
1.15726
0
LINE
8
BLACK
6
CONTINUOUS
10
0.459299
20
1.15726
11
0.459299
21
1.15726
0
LINE
8
BLACK
6
CONTINUOUS
10
0.459299
20
1.15726
11
0.459299
21
1.15726
0
LINE
8
BLACK
6
CONTINUOUS
10
0.459299
20
1.15726
11
0.456915
21
1.15752
0
LINE
8
BLACK
6
CONTINUOUS
10
0.456915
20
1.15752
11
0.456915
21
1.15752
0
LINE
8
BLACK
6
CONTINUOUS
10
0.456915
20
1.15752
11
0.456915
21
1.15752
0
LINE
8
BLACK
6
CONTINUOUS
10
0.456915
20
1.15752
11
0.456915
21
1.15752
0
LINE
8
BLACK
6
CONTINUOUS
10
0.456915
20
1.15752
11
0.449849
21
1.15752
0
LINE
8
BLACK
6
CONTINUOUS
10
0.449849
20
1.15752
11
0.447697
21
1.15801
0
LINE
8
BLACK
6
CONTINUOUS
10
0.447697
20
1.15801
11
0.447608
21
1.15805
0
LINE
8
BLACK
6
CONTINUOUS
10
0.447608
20
1.15805
11
0.44308
21
1.16023
0
LINE
8
BLACK
6
CONTINUOUS
10
0.44308
20
1.16023
11
0.436086
21
1.16183
0
LINE
8
BLACK
6
CONTINUOUS
10
0.436086
20
1.16183
11
0.428914
21
1.16183
0
LINE
8
BLACK
6
CONTINUOUS
10
0.428914
20
1.16183
11
0.42192
21
1.16023
0
LINE
8
BLACK
6
CONTINUOUS
10
0.42192
20
1.16023
11
0.417303
21
1.15801
0
LINE
8
BLACK
6
CONTINUOUS
10
0.417303
20
1.15801
11
0.416024
21
1.1574
0
LINE
8
BLACK
6
CONTINUOUS
10
0.416024
20
1.1574
11
0.415815
21
1.15731
0
LINE
8
BLACK
6
CONTINUOUS
10
0.415815
20
1.15731
11
0.415701
21
1.15726
0
LINE
8
BLACK
6
CONTINUOUS
10
0.415701
20
1.15726
11
0.415701
21
1.15726
0
LINE
8
BLACK
6
CONTINUOUS
10
0.415701
20
1.15726
11
0.410307
21
1.15525
0
LINE
8
BLACK
6
CONTINUOUS
10
0.410307
20
1.15525
11
0.410307
21
1.15525
0
LINE
8
BLACK
6
CONTINUOUS
10
0.410307
20
1.15525
11
0.405698
21
1.1518
0
LINE
8
BLACK
6
CONTINUOUS
10
0.405698
20
1.1518
11
0.402249
21
1.14719
0
LINE
8
BLACK
6
CONTINUOUS
10
0.402249
20
1.14719
11
0.402248
21
1.14719
0
LINE
8
BLACK
6
CONTINUOUS
10
0.402248
20
1.14719
11
0.400237
21
1.1418
0
LINE
8
BLACK
6
CONTINUOUS
10
0.400237
20
1.1418
11
0.400237
21
1.1418
0
LINE
8
BLACK
6
CONTINUOUS
10
0.400237
20
1.1418
11
0.39998
21
1.13942
0
LINE
8
BLACK
6
CONTINUOUS
10
0.39998
20
1.13942
11
0.39998
21
1.08058
0
LINE
8
BLACK
6
CONTINUOUS
10
0.39998
20
1.08058
11
0.400237
21
1.0782
0
LINE
8
BLACK
6
CONTINUOUS
10
0.400237
20
1.0782
11
0.400237
21
1.0782
0
LINE
8
BLACK
6
CONTINUOUS
10
0.400237
20
1.0782
11
0.402248
21
1.07281
0
LINE
8
BLACK
6
CONTINUOUS
10
0.402248
20
1.07281
11
0.402419
21
1.0725
0
LINE
8
BLACK
6
CONTINUOUS
10
0.402419
20
1.0725
11
0.402345
21
1.07246
0
LINE
8
BLACK
6
CONTINUOUS
10
0.402345
20
1.07246
11
0.403157
21
1.07028
0
LINE
8
BLACK
6
CONTINUOUS
10
0.403157
20
1.07028
11
0.403169
21
1.06993
0
LINE
8
BLACK
6
CONTINUOUS
10
0.403169
20
1.06993
11
0.403169
21
1.05757
0
LINE
8
BLACK
6
CONTINUOUS
10
0.403169
20
1.05757
11
0.402415
21
1.05501
0
LINE
8
BLACK
6
CONTINUOUS
10
0.402415
20
1.05501
11
0.402419
21
1.055
0
LINE
8
BLACK
6
CONTINUOUS
10
0.402419
20
1.055
11
0.40241
21
1.05499
0
LINE
8
BLACK
6
CONTINUOUS
10
0.40241
20
1.05499
11
0.402382
21
1.05489
0
LINE
8
BLACK
6
CONTINUOUS
10
0.402382
20
1.05489
11
0.402267
21
1.05473
0
LINE
8
BLACK
6
CONTINUOUS
10
0.402267
20
1.05473
11
0.402249
21
1.05469
0
LINE
8
BLACK
6
CONTINUOUS
10
0.402249
20
1.05469
11
0.402249
21
1.05469
0
LINE
8
BLACK
6
CONTINUOUS
10
0.402249
20
1.05469
11
0.402248
21
1.05469
0
LINE
8
BLACK
6
CONTINUOUS
10
0.402248
20
1.05469
11
0.40117
21
1.0518
0
LINE
8
BLACK
6
CONTINUOUS
10
0.40117
20
1.0518
11
0.400237
21
1.0493
0
LINE
8
BLACK
6
CONTINUOUS
10
0.400237
20
1.0493
11
0.39998
21
1.04692
0
LINE
8
BLACK
6
CONTINUOUS
10
0.39998
20
1.04692
11
0.39998
21
0.988085
0
LINE
8
BLACK
6
CONTINUOUS
10
0.39998
20
0.988085
11
0.400237
21
0.985701
0
LINE
8
BLACK
6
CONTINUOUS
10
0.162737
20
1.0332
11
0.162737
21
1.0332
0
LINE
8
BLACK
6
CONTINUOUS
10
0.162737
20
1.0332
11
0.164748
21
1.02781
0
LINE
8
BLACK
6
CONTINUOUS
10
0.164748
20
1.02781
11
0.164749
21
1.02781
0
LINE
8
BLACK
6
CONTINUOUS
10
0.164749
20
1.02781
11
0.168198
21
1.0232
0
LINE
8
BLACK
6
CONTINUOUS
10
0.168198
20
1.0232
11
0.172807
21
1.01975
0
LINE
8
BLACK
6
CONTINUOUS
10
0.172807
20
1.01975
11
0.172807
21
1.01975
0
LINE
8
BLACK
6
CONTINUOUS
10
0.172807
20
1.01975
11
0.177442
21
1.01802
0
LINE
8
BLACK
6
CONTINUOUS
10
0.177442
20
1.01802
11
0.17968
21
1.01634
0
LINE
8
BLACK
6
CONTINUOUS
10
0.17968
20
1.01634
11
0.180657
21
1.01373
0
LINE
8
BLACK
6
CONTINUOUS
10
0.180657
20
1.01373
11
0.180669
21
1.01337
0
LINE
8
BLACK
6
CONTINUOUS
10
0.180669
20
1.01337
11
0.180669
21
1.00436
0
LINE
8
BLACK
6
CONTINUOUS
10
0.180669
20
1.00436
11
0.180356
21
1.00263
0
LINE
8
BLACK
6
CONTINUOUS
10
0.180356
20
1.00263
11
0.178537
21
0.997749
0
LINE
8
BLACK
6
CONTINUOUS
10
0.178537
20
0.997749
11
0.178537
21
0.997749
0
LINE
8
BLACK
6
CONTINUOUS
10
0.178537
20
0.997749
11
0.17828
21
0.995365
0
LINE
8
BLACK
6
CONTINUOUS
10
0.17828
20
0.995365
11
0.17828
21
0.924635
0
LINE
8
BLACK
6
CONTINUOUS
10
0.17828
20
0.924635
11
0.178537
21
0.922251
0
LINE
8
BLACK
6
CONTINUOUS
10
0.178537
20
0.922251
11
0.178537
21
0.922251
0
LINE
8
BLACK
6
CONTINUOUS
10
0.178537
20
0.922251
11
0.180548
21
0.916857
0
LINE
8
BLACK
6
CONTINUOUS
10
0.180548
20
0.916857
11
0.180549
21
0.916857
0
LINE
8
BLACK
6
CONTINUOUS
10
0.180549
20
0.916857
11
0.183998
21
0.912248
0
LINE
8
BLACK
6
CONTINUOUS
10
0.183998
20
0.912248
11
0.188607
21
0.908799
0
LINE
8
BLACK
6
CONTINUOUS
10
0.188607
20
0.908799
11
0.188607
21
0.908798
0
LINE
8
BLACK
6
CONTINUOUS
10
0.188607
20
0.908798
11
0.194001
21
0.906787
0
LINE
8
BLACK
6
CONTINUOUS
10
0.194001
20
0.906787
11
0.194001
21
0.906787
0
LINE
8
BLACK
6
CONTINUOUS
10
0.194001
20
0.906787
11
0.196385
21
0.90653
0
LINE
8
BLACK
6
CONTINUOUS
10
0.196385
20
0.90653
11
0.196385
21
0.90653
0
LINE
8
BLACK
6
CONTINUOUS
10
0.196385
20
0.90653
11
0.251415
21
0.90653
0
LINE
8
BLACK
6
CONTINUOUS
10
0.251415
20
0.90653
11
0.253799
21
0.906787
0
LINE
8
BLACK
6
CONTINUOUS
10
0.253799
20
0.906787
11
0.253799
21
0.906787
0
LINE
8
BLACK
6
CONTINUOUS
10
0.253799
20
0.906787
11
0.259193
21
0.908798
0
LINE
8
BLACK
6
CONTINUOUS
10
0.259193
20
0.908798
11
0.259193
21
0.908799
0
LINE
8
BLACK
6
CONTINUOUS
10
0.259193
20
0.908799
11
0.263802
21
0.912248
0
LINE
8
BLACK
6
CONTINUOUS
10
0.263802
20
0.912248
11
0.264961
21
0.913797
0
LINE
8
BLACK
6
CONTINUOUS
10
0.264961
20
0.913797
11
0.267198
21
0.915472
0
LINE
8
BLACK
6
CONTINUOUS
10
0.267198
20
0.915472
11
0.269986
21
0.915671
0
LINE
8
BLACK
6
CONTINUOUS
10
0.269986
20
0.915671
11
0.271905
21
0.914795
0
LINE
8
BLACK
6
CONTINUOUS
10
0.271905
20
0.914795
11
0.275307
21
0.912249
0
LINE
8
BLACK
6
CONTINUOUS
10
0.275307
20
0.912249
11
0.275307
21
0.912248
0
LINE
8
BLACK
6
CONTINUOUS
10
0.275307
20
0.912248
11
0.280701
21
0.910237
0
LINE
8
BLACK
6
CONTINUOUS
10
0.280701
20
0.910237
11
0.280701
21
0.910237
0
LINE
8
BLACK
6
CONTINUOUS
10
0.280701
20
0.910237
11
0.283085
21
0.90998
0
LINE
8
BLACK
6
CONTINUOUS
10
0.283085
20
0.90998
11
0.283085
21
0.90998
0
LINE
8
BLACK
6
CONTINUOUS
10
0.283085
20
0.90998
11
0.321915
21
0.90998
0
LINE
8
BLACK
6
CONTINUOUS
10
0.321915
20
0.90998
11
0.324299
21
0.910237
0
LINE
8
BLACK
6
CONTINUOUS
10
0.324299
20
0.910237
11
0.324299
21
0.910237
0
LINE
8
BLACK
6
CONTINUOUS
10
0.324299
20
0.910237
11
0.329693
21
0.912248
0
LINE
8
BLACK
6
CONTINUOUS
10
0.329693
20
0.912248
11
0.329693
21
0.912249
0
LINE
8
BLACK
6
CONTINUOUS
10
0.329693
20
0.912249
11
0.334302
21
0.915698
0
LINE
8
BLACK
6
CONTINUOUS
10
0.334302
20
0.915698
11
0.337751
21
0.920307
0
LINE
8
BLACK
6
CONTINUOUS
10
0.337751
20
0.920307
11
0.337752
21
0.920307
0
LINE
8
BLACK
6
CONTINUOUS
10
0.337752
20
0.920307
11
0.339763
21
0.925701
0
LINE
8
BLACK
6
CONTINUOUS
10
0.339763
20
0.925701
11
0.339763
21
0.925701
0
LINE
8
BLACK
6
CONTINUOUS
10
0.339763
20
0.925701
11
0.34002
21
0.928085
0
LINE
8
BLACK
6
CONTINUOUS
10
0.34002
20
0.928085
11
0.34002
21
0.928085
0
LINE
8
BLACK
6
CONTINUOUS
10
0.34002
20
0.928085
11
0.34002
21
0.986915
0
LINE
8
BLACK
6
CONTINUOUS
10
0.34002
20
0.986915
11
0.34002
21
0.986915
0
LINE
8
BLACK
6
CONTINUOUS
10
0.34002
20
0.986915
11
0.339894
21
0.988085
0
LINE
8
BLACK
6
CONTINUOUS
10
0.339894
20
0.988085
11
0.339763
21
0.989299
0
LINE
8
BLACK
6
CONTINUOUS
10
0.339763
20
0.989299
11
0.339763
21
0.989299
0
LINE
8
BLACK
6
CONTINUOUS
10
0.339763
20
0.989299
11
0.339487
21
0.990041
0
LINE
8
BLACK
6
CONTINUOUS
10
0.339487
20
0.990041
11
0.337752
21
0.994693
0
LINE
8
BLACK
6
CONTINUOUS
10
0.337752
20
0.994693
11
0.334302
21
0.999302
0
LINE
8
BLACK
6
CONTINUOUS
10
0.334302
20
0.999302
11
0.331208
21
1.00162
0
LINE
8
BLACK
6
CONTINUOUS
10
0.331208
20
1.00162
11
0.329693
21
1.00275
0
LINE
8
BLACK
6
CONTINUOUS
10
0.329693
20
1.00275
11
0.329693
21
1.00275
0
LINE
8
BLACK
6
CONTINUOUS
10
0.329693
20
1.00275
11
0.329693
21
1.00275
0
LINE
8
BLACK
6
CONTINUOUS
10
0.329693
20
1.00275
11
0.324299
21
1.00476
0
LINE
8
BLACK
6
CONTINUOUS
10
0.324299
20
1.00476
11
0.324299
21
1.00476
0
LINE
8
BLACK
6
CONTINUOUS
10
0.324299
20
1.00476
11
0.324299
21
1.00476
0
LINE
8
BLACK
6
CONTINUOUS
10
0.324299
20
1.00476
11
0.321915
21
1.00502
0
LINE
8
BLACK
6
CONTINUOUS
10
0.321915
20
1.00502
11
0.321915
21
1.00502
0
LINE
8
BLACK
6
CONTINUOUS
10
0.321915
20
1.00502
11
0.321915
21
1.00502
0
LINE
8
BLACK
6
CONTINUOUS
10
0.321915
20
1.00502
11
0.283085
21
1.00502
0
LINE
8
BLACK
6
CONTINUOUS
10
0.283085
20
1.00502
11
0.283085
21
1.00502
0
LINE
8
BLACK
6
CONTINUOUS
10
0.283085
20
1.00502
11
0.283085
21
1.00502
0
LINE
8
BLACK
6
CONTINUOUS
10
0.283085
20
1.00502
11
0.280701
21
1.00476
0
LINE
8
BLACK
6
CONTINUOUS
10
0.280701
20
1.00476
11
0.280701
21
1.00476
0
LINE
8
BLACK
6
CONTINUOUS
10
0.280701
20
1.00476
11
0.279625
21
1.00436
0
LINE
8
BLACK
6
CONTINUOUS
10
0.279625
20
1.00436
11
0.275307
21
1.00275
0
LINE
8
BLACK
6
CONTINUOUS
10
0.275307
20
1.00275
11
0.275142
21
1.00263
0
LINE
8
BLACK
6
CONTINUOUS
10
0.275142
20
1.00263
11
0.274304
21
1.002
0
LINE
8
BLACK
6
CONTINUOUS
10
0.274304
20
1.002
11
0.271685
21
1.00102
0
LINE
8
BLACK
6
CONTINUOUS
10
0.271685
20
1.00102
11
0.268953
21
1.00162
0
LINE
8
BLACK
6
CONTINUOUS
10
0.268953
20
1.00162
11
0.26736
21
1.003
0
LINE
8
BLACK
6
CONTINUOUS
10
0.26736
20
1.003
11
0.267252
21
1.00314
0
LINE
8
BLACK
6
CONTINUOUS
10
0.267252
20
1.00314
11
0.267252
21
1.00314
0
LINE
8
BLACK
6
CONTINUOUS
10
0.267252
20
1.00314
11
0.263802
21
1.00775
0
LINE
8
BLACK
6
CONTINUOUS
10
0.263802
20
1.00775
11
0.259193
21
1.0112
0
LINE
8
BLACK
6
CONTINUOUS
10
0.259193
20
1.0112
11
0.255412
21
1.01261
0
LINE
8
BLACK
6
CONTINUOUS
10
0.255412
20
1.01261
11
0.253175
21
1.01429
0
LINE
8
BLACK
6
CONTINUOUS
10
0.253175
20
1.01429
11
0.252198
21
1.01691
0
LINE
8
BLACK
6
CONTINUOUS
10
0.252198
20
1.01691
11
0.252792
21
1.01964
0
LINE
8
BLACK
6
CONTINUOUS
10
0.252792
20
1.01964
11
0.254173
21
1.02123
0
LINE
8
BLACK
6
CONTINUOUS
10
0.254173
20
1.02123
11
0.256802
21
1.0232
0
LINE
8
BLACK
6
CONTINUOUS
10
0.256802
20
1.0232
11
0.260251
21
1.02781
0
LINE
8
BLACK
6
CONTINUOUS
10
0.260251
20
1.02781
11
0.260252
21
1.02781
0
LINE
8
BLACK
6
CONTINUOUS
10
0.260252
20
1.02781
11
0.262263
21
1.0332
0
LINE
8
BLACK
6
CONTINUOUS
10
0.262263
20
1.0332
11
0.262263
21
1.0332
0
LINE
8
BLACK
6
CONTINUOUS
10
0.262263
20
1.0332
11
0.26252
21
1.03558
0
LINE
8
BLACK
6
CONTINUOUS
10
0.26252
20
1.03558
11
0.26252
21
1.03559
0
LINE
8
BLACK
6
CONTINUOUS
10
0.26252
20
1.03559
11
0.26252
21
1.09941
0
LINE
8
BLACK
6
CONTINUOUS
10
0.26252
20
1.09941
11
0.26252
21
1.09942
0
LINE
8
BLACK
6
CONTINUOUS
10
0.26252
20
1.09942
11
0.262263
21
1.1018
0
LINE
8
BLACK
6
CONTINUOUS
10
0.262263
20
1.1018
11
0.262263
21
1.1018
0
LINE
8
BLACK
6
CONTINUOUS
10
0.262263
20
1.1018
11
0.261987
21
1.10254
0
LINE
8
BLACK
6
CONTINUOUS
10
0.261987
20
1.10254
11
0.260252
21
1.10719
0
LINE
8
BLACK
6
CONTINUOUS
10
0.260252
20
1.10719
11
0.256802
21
1.1118
0
LINE
8
BLACK
6
CONTINUOUS
10
0.256802
20
1.1118
11
0.256802
21
1.1118
0
LINE
8
BLACK
6
CONTINUOUS
10
0.256802
20
1.1118
11
0.254494
21
1.11353
0
LINE
8
BLACK
6
CONTINUOUS
10
0.254494
20
1.11353
11
0.252819
21
1.11577
0
LINE
8
BLACK
6
CONTINUOUS
10
0.252819
20
1.11577
11
0.25262
21
1.11855
0
LINE
8
BLACK
6
CONTINUOUS
10
0.25262
20
1.11855
11
0.253959
21
1.12101
0
LINE
8
BLACK
6
CONTINUOUS
10
0.253959
20
1.12101
11
0.254494
21
1.12147
0
LINE
8
BLACK
6
CONTINUOUS
10
0.254494
20
1.12147
11
0.256802
21
1.1232
0
LINE
8
BLACK
6
CONTINUOUS
10
0.256802
20
1.1232
11
0.260251
21
1.12781
0
LINE
8
BLACK
6
CONTINUOUS
10
0.260251
20
1.12781
11
0.260252
21
1.12781
0
LINE
8
BLACK
6
CONTINUOUS
10
0.260252
20
1.12781
11
0.262263
21
1.1332
0
LINE
8
BLACK
6
CONTINUOUS
10
0.262263
20
1.1332
11
0.262263
21
1.1332
0
LINE
8
BLACK
6
CONTINUOUS
10
0.262263
20
1.1332
11
0.26252
21
1.13558
0
LINE
8
BLACK
6
CONTINUOUS
10
0.26252
20
1.13558
11
0.26252
21
1.13559
0
LINE
8
BLACK
6
CONTINUOUS
10
0.26252
20
1.13559
11
0.26252
21
1.19941
0
LINE
8
BLACK
6
CONTINUOUS
10
0.26252
20
1.19941
11
0.26252
21
1.19942
0
LINE
8
BLACK
6
CONTINUOUS
10
0.26252
20
1.19942
11
0.262263
21
1.2018
0
LINE
8
BLACK
6
CONTINUOUS
10
0.262263
20
1.2018
11
0.262263
21
1.2018
0
LINE
8
BLACK
6
CONTINUOUS
10
0.262263
20
1.2018
11
0.261987
21
1.20254
0
LINE
8
BLACK
6
CONTINUOUS
10
0.261987
20
1.20254
11
0.260252
21
1.20719
0
LINE
8
BLACK
6
CONTINUOUS
10
0.260252
20
1.20719
11
0.256802
21
1.2118
0
LINE
8
BLACK
6
CONTINUOUS
10
0.256802
20
1.2118
11
0.252193
21
1.21525
0
LINE
8
BLACK
6
CONTINUOUS
10
0.252193
20
1.21525
11
0.246799
21
1.21726
0
LINE
8
BLACK
6
CONTINUOUS
10
0.246799
20
1.21726
11
0.246799
21
1.21726
0
LINE
8
BLACK
6
CONTINUOUS
10
0.246799
20
1.21726
11
0.246799
21
1.21726
0
LINE
8
BLACK
6
CONTINUOUS
10
0.246799
20
1.21726
11
0.244415
21
1.21752
0
LINE
8
BLACK
6
CONTINUOUS
10
0.244415
20
1.21752
11
0.244415
21
1.21752
0
LINE
8
BLACK
6
CONTINUOUS
10
0.244415
20
1.21752
11
0.244415
21
1.21752
0
LINE
8
BLACK
6
CONTINUOUS
10
0.244415
20
1.21752
11
0.180585
21
1.21752
0
LINE
8
BLACK
6
CONTINUOUS
10
0.180585
20
1.21752
11
0.180585
21
1.21752
0
LINE
8
BLACK
6
CONTINUOUS
10
0.180585
20
1.21752
11
0.180585
21
1.21752
0
LINE
8
BLACK
6
CONTINUOUS
10
0.180585
20
1.21752
11
0.178201
21
1.21726
0
LINE
8
BLACK
6
CONTINUOUS
10
0.178201
20
1.21726
11
0.178201
21
1.21726
0
LINE
8
BLACK
6
CONTINUOUS
10
0.178201
20
1.21726
11
0.175133
21
1.21612
0
LINE
8
BLACK
6
CONTINUOUS
10
0.175133
20
1.21612
11
0.172807
21
1.21525
0
LINE
8
BLACK
6
CONTINUOUS
10
0.172807
20
1.21525
11
0.172807
21
1.21525
0
LINE
8
BLACK
6
CONTINUOUS
10
0.172807
20
1.21525
11
0.172807
21
1.21525
0
LINE
8
BLACK
6
CONTINUOUS
10
0.172807
20
1.21525
11
0.168198
21
1.2118
0
LINE
8
BLACK
6
CONTINUOUS
10
0.168198
20
1.2118
11
0.164749
21
1.20719
0
LINE
8
BLACK
6
CONTINUOUS
10
0.164749
20
1.20719
11
0.164748
21
1.20719
0
LINE
8
BLACK
6
CONTINUOUS
10
0.164748
20
1.20719
11
0.162737
21
1.2018
0
LINE
8
BLACK
6
CONTINUOUS
10
0.162737
20
1.2018
11
0.162737
21
1.2018
0
LINE
8
BLACK
6
CONTINUOUS
10
0.162737
20
1.2018
11
0.16248
21
1.19942
0
LINE
8
BLACK
6
CONTINUOUS
10
0.16248
20
1.19942
11
0.16248
21
1.13558
0
LINE
8
BLACK
6
CONTINUOUS
10
0.16248
20
1.13558
11
0.162737
21
1.1332
0
LINE
8
BLACK
6
CONTINUOUS
10
0.162737
20
1.1332
11
0.162737
21
1.1332
0
LINE
8
BLACK
6
CONTINUOUS
10
0.162737
20
1.1332
11
0.164748
21
1.12781
0
LINE
8
BLACK
6
CONTINUOUS
10
0.164748
20
1.12781
11
0.164749
21
1.12781
0
LINE
8
BLACK
6
CONTINUOUS
10
0.164749
20
1.12781
11
0.168198
21
1.1232
0
LINE
8
BLACK
6
CONTINUOUS
10
0.168198
20
1.1232
11
0.170506
21
1.12147
0
LINE
8
BLACK
6
CONTINUOUS
10
0.170506
20
1.12147
11
0.172181
21
1.11923
0
LINE
8
BLACK
6
CONTINUOUS
10
0.172181
20
1.11923
11
0.17238
21
1.11645
0
LINE
8
BLACK
6
CONTINUOUS
10
0.17238
20
1.11645
11
0.17104
21
1.11399
0
LINE
8
BLACK
6
CONTINUOUS
10
0.17104
20
1.11399
11
0.170506
21
1.11353
0
LINE
8
BLACK
6
CONTINUOUS
10
0.170506
20
1.11353
11
0.168198
21
1.1118
0
LINE
8
BLACK
6
CONTINUOUS
10
0.168198
20
1.1118
11
0.164749
21
1.10719
0
LINE
8
BLACK
6
CONTINUOUS
10
0.164749
20
1.10719
11
0.164748
21
1.10719
0
LINE
8
BLACK
6
CONTINUOUS
10
0.164748
20
1.10719
11
0.162737
21
1.1018
0
LINE
8
BLACK
6
CONTINUOUS
10
0.162737
20
1.1018
11
0.162737
21
1.1018
0
LINE
8
BLACK
6
CONTINUOUS
10
0.162737
20
1.1018
11
0.16248
21
1.09942
0
LINE
8
BLACK
6
CONTINUOUS
10
0.16248
20
1.09942
11
0.16248
21
1.03558
0
LINE
8
BLACK
6
CONTINUOUS
10
0.16248
20
1.03558
11
0.162737
21
1.0332
0
CIRCLE
8
BLACK
10
0.1125
20
1.0675
40
0.00688976
0
CIRCLE
8
BLACK
10
0.1125
20
1.1675
40
0.00688976
0
CIRCLE
8
BLACK
10
0.2125
20
1.0675
40
0.00688976
0
CIRCLE
8
BLACK
10
0.2125
20
1.1675
40
0.00688976
0
CIRCLE
8
BLACK
10
0.3125
20
1.0675
40
0.00688976
0
CIRCLE
8
BLACK
10
0.3125
20
1.1675
40
0.00688976
0
CIRCLE
8
BLACK
10
0.48
20
0.8475
40
0.00688976
0
CIRCLE
8
BLACK
10
0.58
20
0.8475
40
0.00688976
0
CIRCLE
8
BLACK
10
0.48
20
0.7475
40
0.00688976
0
CIRCLE
8
BLACK
10
0.58
20
0.7475
40
0.00688976
0
CIRCLE
8
BLACK
10
0.48
20
0.6475
40
0.00688976
0
CIRCLE
8
BLACK
10
0.58
20
0.6475
40
0.00688976
0
CIRCLE
8
BLACK
10
0.48
20
0.5475
40
0.00688976
0
CIRCLE
8
BLACK
10
0.58
20
0.5475
40
0.00688976
0
CIRCLE
8
BLACK
10
0.48
20
0.4475
40
0.00688976
0
CIRCLE
8
BLACK
10
0.58
20
0.4475
40
0.00688976
0
CIRCLE
8
BLACK
10
0.28
20
0.8475
40
0.00688976
0
CIRCLE
8
BLACK
10
0.38
20
0.8475
40
0.00688976
0
CIRCLE
8
BLACK
10
0.28
20
0.7475
40
0.00688976
0
CIRCLE
8
BLACK
10
0.38
20
0.7475
40
0.00688976
0
CIRCLE
8
BLACK
10
0.28
20
0.6475
40
0.00688976
0
CIRCLE
8
BLACK
10
0.38
20
0.6475
40
0.00688976
0
CIRCLE
8
BLACK
10
0.28
20
0.5475
40
0.00688976
0
CIRCLE
8
BLACK
10
0.38
20
0.5475
40
0.00688976
0
CIRCLE
8
BLACK
10
0.28
20
0.4475
40
0.00688976
0
CIRCLE
8
BLACK
10
0.38
20
0.4475
40
0.00688976
0
CIRCLE
8
BLACK
10
0.08
20
0.8475
40
0.00688976
0
CIRCLE
8
BLACK
10
0.18
20
0.8475
40
0.00688976
0
CIRCLE
8
BLACK
10
0.08
20
0.7475
40
0.00688976
0
CIRCLE
8
BLACK
10
0.18
20
0.7475
40
0.00688976
0
CIRCLE
8
BLACK
10
0.08
20
0.6475
40
0.00688976
0
CIRCLE
8
BLACK
10
0.18
20
0.6475
40
0.00688976
0
CIRCLE
8
BLACK
10
0.08
20
0.5475
40
0.00688976
0
CIRCLE
8
BLACK
10
0.18
20
0.5475
40
0.00688976
0
CIRCLE
8
BLACK
10
0.08
20
0.4475
40
0.00688976
0
CIRCLE
8
BLACK
10
0.18
20
0.4475
40
0.00688976
0
CIRCLE
8
BLACK
10
0.6075
20
1.1075
40
0.00688976
0
CIRCLE
8
BLACK
10
0.7075
20
1.1075
40
0.00688976
0
CIRCLE
8
BLACK
10
0.6075
20
1.0075
40
0.00688976
0
CIRCLE
8
BLACK
10
0.7075
20
1.0075
40
0.00688976
0
CIRCLE
8
BLACK
10
0.2
20
1.4
40
0.00688976
0
CIRCLE
8
BLACK
10
0.6
20
1.4
40
0.00688976
0
CIRCLE
8
BLACK
10
0.6
20
0.2
40
0.00688976
0
CIRCLE
8
BLACK
10
0.2
20
0.2
40
0.00688976
0
CIRCLE
8
BLACK
10
0.6675
20
0.7
40
0.00787402
0
CIRCLE
8
BLACK
10
0.4525
20
0.9325
40
0.00787402
0
CIRCLE
8
BLACK
10
0.4525
20
0.9325
40
0.00787402
0
CIRCLE
8
BLACK
10
0.71
20
0.8025
40
0.00787402
  0
ENDSEC
  0
EOF
