%TF.GenerationSoftware,KiCad,Pcbnew,7.0.7-7.0.7~ubuntu23.04.1*%
%TF.CreationDate,2023-09-17T09:29:20+00:00*%
%TF.ProjectId,I2CHUB01,49324348-5542-4303-912e-6b696361645f,rev?*%
%TF.SameCoordinates,Original*%
%TF.FileFunction,Soldermask,Top*%
%TF.FilePolarity,Negative*%
%FSLAX46Y46*%
G04 Gerber Fmt 4.6, Leading zero omitted, Abs format (unit mm)*
G04 Created by KiCad (PCBNEW 7.0.7-7.0.7~ubuntu23.04.1) date 2023-09-17 09:29:20*
%MOMM*%
%LPD*%
G01*
G04 APERTURE LIST*
G04 APERTURE END LIST*
G36*
X5427090Y8160508D02*
G01*
X5769815Y8102277D01*
X6103865Y8006038D01*
X6425040Y7873003D01*
X6729299Y7704845D01*
X7012818Y7503678D01*
X7272031Y7272031D01*
X7503678Y7012818D01*
X7704845Y6729299D01*
X7873003Y6425040D01*
X8006038Y6103865D01*
X8102277Y5769815D01*
X8160508Y5427090D01*
X8180000Y5080000D01*
X8160508Y4732910D01*
X8102277Y4390185D01*
X8006038Y4056135D01*
X7873003Y3734960D01*
X7704845Y3430701D01*
X7503678Y3147182D01*
X7272031Y2887969D01*
X7012818Y2656322D01*
X6729299Y2455155D01*
X6425040Y2286997D01*
X6103865Y2153962D01*
X5769815Y2057723D01*
X5427090Y1999492D01*
X5080000Y1980000D01*
X4732910Y1999492D01*
X4390185Y2057723D01*
X4056135Y2153962D01*
X3734960Y2286997D01*
X3430701Y2455155D01*
X3147182Y2656322D01*
X2887969Y2887969D01*
X2656322Y3147182D01*
X2455155Y3430701D01*
X2286997Y3734960D01*
X2153962Y4056135D01*
X2057723Y4390185D01*
X1999492Y4732910D01*
X1980000Y5080000D01*
X1999492Y5427090D01*
X2057723Y5769815D01*
X2153962Y6103865D01*
X2286997Y6425040D01*
X2455155Y6729299D01*
X2656322Y7012818D01*
X2887969Y7272031D01*
X3147182Y7503678D01*
X3430701Y7704845D01*
X3734960Y7873003D01*
X4056135Y8006038D01*
X4390185Y8102277D01*
X4732910Y8160508D01*
X5080000Y8180000D01*
X5427090Y8160508D01*
G37*
G36*
X15587090Y8160508D02*
G01*
X15929815Y8102277D01*
X16263865Y8006038D01*
X16585040Y7873003D01*
X16889299Y7704845D01*
X17172818Y7503678D01*
X17432031Y7272031D01*
X17663678Y7012818D01*
X17864845Y6729299D01*
X18033003Y6425040D01*
X18166038Y6103865D01*
X18262277Y5769815D01*
X18320508Y5427090D01*
X18340000Y5080000D01*
X18320508Y4732910D01*
X18262277Y4390185D01*
X18166038Y4056135D01*
X18033003Y3734960D01*
X17864845Y3430701D01*
X17663678Y3147182D01*
X17432031Y2887969D01*
X17172818Y2656322D01*
X16889299Y2455155D01*
X16585040Y2286997D01*
X16263865Y2153962D01*
X15929815Y2057723D01*
X15587090Y1999492D01*
X15240000Y1980000D01*
X14892910Y1999492D01*
X14550185Y2057723D01*
X14216135Y2153962D01*
X13894960Y2286997D01*
X13590701Y2455155D01*
X13307182Y2656322D01*
X13047969Y2887969D01*
X12816322Y3147182D01*
X12615155Y3430701D01*
X12446997Y3734960D01*
X12313962Y4056135D01*
X12217723Y4390185D01*
X12159492Y4732910D01*
X12140000Y5080000D01*
X12159492Y5427090D01*
X12217723Y5769815D01*
X12313962Y6103865D01*
X12446997Y6425040D01*
X12615155Y6729299D01*
X12816322Y7012818D01*
X13047969Y7272031D01*
X13307182Y7503678D01*
X13590701Y7704845D01*
X13894960Y7873003D01*
X14216135Y8006038D01*
X14550185Y8102277D01*
X14892910Y8160508D01*
X15240000Y8180000D01*
X15587090Y8160508D01*
G37*
G36*
X2832268Y12220888D02*
G01*
X2864711Y12199211D01*
X2886388Y12166768D01*
X2894000Y12128500D01*
X2894000Y10604500D01*
X2886388Y10566232D01*
X2864711Y10533789D01*
X2832268Y10512112D01*
X2794000Y10504500D01*
X2789077Y10504500D01*
X1274922Y10504500D01*
X1270000Y10504500D01*
X1231732Y10512112D01*
X1199289Y10533789D01*
X1177612Y10566232D01*
X1170000Y10604500D01*
X1170000Y12128500D01*
X1177612Y12166768D01*
X1199289Y12199211D01*
X1231732Y12220888D01*
X1270000Y12228500D01*
X2794000Y12228500D01*
X2832268Y12220888D01*
G37*
G36*
X5372268Y12220888D02*
G01*
X5404711Y12199211D01*
X5426388Y12166768D01*
X5434000Y12128500D01*
X5434000Y10604500D01*
X5426388Y10566232D01*
X5404711Y10533789D01*
X5372268Y10512112D01*
X5334000Y10504500D01*
X5329077Y10504500D01*
X3814922Y10504500D01*
X3810000Y10504500D01*
X3771732Y10512112D01*
X3739289Y10533789D01*
X3717612Y10566232D01*
X3710000Y10604500D01*
X3710000Y12128500D01*
X3717612Y12166768D01*
X3739289Y12199211D01*
X3771732Y12220888D01*
X3810000Y12228500D01*
X5334000Y12228500D01*
X5372268Y12220888D01*
G37*
G36*
X7912268Y12220888D02*
G01*
X7944711Y12199211D01*
X7966388Y12166768D01*
X7974000Y12128500D01*
X7974000Y10604500D01*
X7966388Y10566232D01*
X7944711Y10533789D01*
X7912268Y10512112D01*
X7874000Y10504500D01*
X7869077Y10504500D01*
X6354922Y10504500D01*
X6350000Y10504500D01*
X6311732Y10512112D01*
X6279289Y10533789D01*
X6257612Y10566232D01*
X6250000Y10604500D01*
X6250000Y12128500D01*
X6257612Y12166768D01*
X6279289Y12199211D01*
X6311732Y12220888D01*
X6350000Y12228500D01*
X7874000Y12228500D01*
X7912268Y12220888D01*
G37*
G36*
X10452268Y12220888D02*
G01*
X10484711Y12199211D01*
X10506388Y12166768D01*
X10514000Y12128500D01*
X10514000Y10604500D01*
X10506388Y10566232D01*
X10484711Y10533789D01*
X10452268Y10512112D01*
X10414000Y10504500D01*
X10409077Y10504500D01*
X8894922Y10504500D01*
X8890000Y10504500D01*
X8851732Y10512112D01*
X8819289Y10533789D01*
X8797612Y10566232D01*
X8790000Y10604500D01*
X8790000Y12128500D01*
X8797612Y12166768D01*
X8819289Y12199211D01*
X8851732Y12220888D01*
X8890000Y12228500D01*
X10414000Y12228500D01*
X10452268Y12220888D01*
G37*
G36*
X12992268Y12220888D02*
G01*
X13024711Y12199211D01*
X13046388Y12166768D01*
X13054000Y12128500D01*
X13054000Y10604500D01*
X13046388Y10566232D01*
X13024711Y10533789D01*
X12992268Y10512112D01*
X12954000Y10504500D01*
X12949077Y10504500D01*
X11434922Y10504500D01*
X11430000Y10504500D01*
X11391732Y10512112D01*
X11359289Y10533789D01*
X11337612Y10566232D01*
X11330000Y10604500D01*
X11330000Y12128500D01*
X11337612Y12166768D01*
X11359289Y12199211D01*
X11391732Y12220888D01*
X11430000Y12228500D01*
X12954000Y12228500D01*
X12992268Y12220888D01*
G37*
G36*
X15532268Y12220888D02*
G01*
X15564711Y12199211D01*
X15586388Y12166768D01*
X15594000Y12128500D01*
X15594000Y10604500D01*
X15586388Y10566232D01*
X15564711Y10533789D01*
X15532268Y10512112D01*
X15494000Y10504500D01*
X15489077Y10504500D01*
X13974922Y10504500D01*
X13970000Y10504500D01*
X13931732Y10512112D01*
X13899289Y10533789D01*
X13877612Y10566232D01*
X13870000Y10604500D01*
X13870000Y12128500D01*
X13877612Y12166768D01*
X13899289Y12199211D01*
X13931732Y12220888D01*
X13970000Y12228500D01*
X15494000Y12228500D01*
X15532268Y12220888D01*
G37*
G36*
X2832268Y14760888D02*
G01*
X2864711Y14739211D01*
X2886388Y14706768D01*
X2894000Y14668500D01*
X2894000Y13144500D01*
X2886388Y13106232D01*
X2864711Y13073789D01*
X2832268Y13052112D01*
X2794000Y13044500D01*
X2789077Y13044500D01*
X1274922Y13044500D01*
X1270000Y13044500D01*
X1231732Y13052112D01*
X1199289Y13073789D01*
X1177612Y13106232D01*
X1170000Y13144500D01*
X1170000Y14668500D01*
X1177612Y14706768D01*
X1199289Y14739211D01*
X1231732Y14760888D01*
X1270000Y14768500D01*
X2794000Y14768500D01*
X2832268Y14760888D01*
G37*
G36*
X5372268Y14760888D02*
G01*
X5404711Y14739211D01*
X5426388Y14706768D01*
X5434000Y14668500D01*
X5434000Y13144500D01*
X5426388Y13106232D01*
X5404711Y13073789D01*
X5372268Y13052112D01*
X5334000Y13044500D01*
X5329077Y13044500D01*
X3814922Y13044500D01*
X3810000Y13044500D01*
X3771732Y13052112D01*
X3739289Y13073789D01*
X3717612Y13106232D01*
X3710000Y13144500D01*
X3710000Y14668500D01*
X3717612Y14706768D01*
X3739289Y14739211D01*
X3771732Y14760888D01*
X3810000Y14768500D01*
X5334000Y14768500D01*
X5372268Y14760888D01*
G37*
G36*
X7912268Y14760888D02*
G01*
X7944711Y14739211D01*
X7966388Y14706768D01*
X7974000Y14668500D01*
X7974000Y13144500D01*
X7966388Y13106232D01*
X7944711Y13073789D01*
X7912268Y13052112D01*
X7874000Y13044500D01*
X7869077Y13044500D01*
X6354922Y13044500D01*
X6350000Y13044500D01*
X6311732Y13052112D01*
X6279289Y13073789D01*
X6257612Y13106232D01*
X6250000Y13144500D01*
X6250000Y14668500D01*
X6257612Y14706768D01*
X6279289Y14739211D01*
X6311732Y14760888D01*
X6350000Y14768500D01*
X7874000Y14768500D01*
X7912268Y14760888D01*
G37*
G36*
X10452268Y14760888D02*
G01*
X10484711Y14739211D01*
X10506388Y14706768D01*
X10514000Y14668500D01*
X10514000Y13144500D01*
X10506388Y13106232D01*
X10484711Y13073789D01*
X10452268Y13052112D01*
X10414000Y13044500D01*
X10409077Y13044500D01*
X8894922Y13044500D01*
X8890000Y13044500D01*
X8851732Y13052112D01*
X8819289Y13073789D01*
X8797612Y13106232D01*
X8790000Y13144500D01*
X8790000Y14668500D01*
X8797612Y14706768D01*
X8819289Y14739211D01*
X8851732Y14760888D01*
X8890000Y14768500D01*
X10414000Y14768500D01*
X10452268Y14760888D01*
G37*
G36*
X12992268Y14760888D02*
G01*
X13024711Y14739211D01*
X13046388Y14706768D01*
X13054000Y14668500D01*
X13054000Y13144500D01*
X13046388Y13106232D01*
X13024711Y13073789D01*
X12992268Y13052112D01*
X12954000Y13044500D01*
X12949077Y13044500D01*
X11434922Y13044500D01*
X11430000Y13044500D01*
X11391732Y13052112D01*
X11359289Y13073789D01*
X11337612Y13106232D01*
X11330000Y13144500D01*
X11330000Y14668500D01*
X11337612Y14706768D01*
X11359289Y14739211D01*
X11391732Y14760888D01*
X11430000Y14768500D01*
X12954000Y14768500D01*
X12992268Y14760888D01*
G37*
G36*
X15532268Y14760888D02*
G01*
X15564711Y14739211D01*
X15586388Y14706768D01*
X15594000Y14668500D01*
X15594000Y13144500D01*
X15586388Y13106232D01*
X15564711Y13073789D01*
X15532268Y13052112D01*
X15494000Y13044500D01*
X15489077Y13044500D01*
X13974922Y13044500D01*
X13970000Y13044500D01*
X13931732Y13052112D01*
X13899289Y13073789D01*
X13877612Y13106232D01*
X13870000Y13144500D01*
X13870000Y14668500D01*
X13877612Y14706768D01*
X13899289Y14739211D01*
X13931732Y14760888D01*
X13970000Y14768500D01*
X15494000Y14768500D01*
X15532268Y14760888D01*
G37*
G36*
X2832268Y17300888D02*
G01*
X2864711Y17279211D01*
X2886388Y17246768D01*
X2894000Y17208500D01*
X2894000Y15684500D01*
X2886388Y15646232D01*
X2864711Y15613789D01*
X2832268Y15592112D01*
X2794000Y15584500D01*
X2789077Y15584500D01*
X1274922Y15584500D01*
X1270000Y15584500D01*
X1231732Y15592112D01*
X1199289Y15613789D01*
X1177612Y15646232D01*
X1170000Y15684500D01*
X1170000Y17208500D01*
X1177612Y17246768D01*
X1199289Y17279211D01*
X1231732Y17300888D01*
X1270000Y17308500D01*
X2794000Y17308500D01*
X2832268Y17300888D01*
G37*
G36*
X5372268Y17300888D02*
G01*
X5404711Y17279211D01*
X5426388Y17246768D01*
X5434000Y17208500D01*
X5434000Y15684500D01*
X5426388Y15646232D01*
X5404711Y15613789D01*
X5372268Y15592112D01*
X5334000Y15584500D01*
X5329077Y15584500D01*
X3814922Y15584500D01*
X3810000Y15584500D01*
X3771732Y15592112D01*
X3739289Y15613789D01*
X3717612Y15646232D01*
X3710000Y15684500D01*
X3710000Y17208500D01*
X3717612Y17246768D01*
X3739289Y17279211D01*
X3771732Y17300888D01*
X3810000Y17308500D01*
X5334000Y17308500D01*
X5372268Y17300888D01*
G37*
G36*
X7912268Y17300888D02*
G01*
X7944711Y17279211D01*
X7966388Y17246768D01*
X7974000Y17208500D01*
X7974000Y15684500D01*
X7966388Y15646232D01*
X7944711Y15613789D01*
X7912268Y15592112D01*
X7874000Y15584500D01*
X7869077Y15584500D01*
X6354922Y15584500D01*
X6350000Y15584500D01*
X6311732Y15592112D01*
X6279289Y15613789D01*
X6257612Y15646232D01*
X6250000Y15684500D01*
X6250000Y17208500D01*
X6257612Y17246768D01*
X6279289Y17279211D01*
X6311732Y17300888D01*
X6350000Y17308500D01*
X7874000Y17308500D01*
X7912268Y17300888D01*
G37*
G36*
X10452268Y17300888D02*
G01*
X10484711Y17279211D01*
X10506388Y17246768D01*
X10514000Y17208500D01*
X10514000Y15684500D01*
X10506388Y15646232D01*
X10484711Y15613789D01*
X10452268Y15592112D01*
X10414000Y15584500D01*
X10409077Y15584500D01*
X8894922Y15584500D01*
X8890000Y15584500D01*
X8851732Y15592112D01*
X8819289Y15613789D01*
X8797612Y15646232D01*
X8790000Y15684500D01*
X8790000Y17208500D01*
X8797612Y17246768D01*
X8819289Y17279211D01*
X8851732Y17300888D01*
X8890000Y17308500D01*
X10414000Y17308500D01*
X10452268Y17300888D01*
G37*
G36*
X12992268Y17300888D02*
G01*
X13024711Y17279211D01*
X13046388Y17246768D01*
X13054000Y17208500D01*
X13054000Y15684500D01*
X13046388Y15646232D01*
X13024711Y15613789D01*
X12992268Y15592112D01*
X12954000Y15584500D01*
X12949077Y15584500D01*
X11434922Y15584500D01*
X11430000Y15584500D01*
X11391732Y15592112D01*
X11359289Y15613789D01*
X11337612Y15646232D01*
X11330000Y15684500D01*
X11330000Y17208500D01*
X11337612Y17246768D01*
X11359289Y17279211D01*
X11391732Y17300888D01*
X11430000Y17308500D01*
X12954000Y17308500D01*
X12992268Y17300888D01*
G37*
G36*
X15532268Y17300888D02*
G01*
X15564711Y17279211D01*
X15586388Y17246768D01*
X15594000Y17208500D01*
X15594000Y15684500D01*
X15586388Y15646232D01*
X15564711Y15613789D01*
X15532268Y15592112D01*
X15494000Y15584500D01*
X15489077Y15584500D01*
X13974922Y15584500D01*
X13970000Y15584500D01*
X13931732Y15592112D01*
X13899289Y15613789D01*
X13877612Y15646232D01*
X13870000Y15684500D01*
X13870000Y17208500D01*
X13877612Y17246768D01*
X13899289Y17279211D01*
X13931732Y17300888D01*
X13970000Y17308500D01*
X15494000Y17308500D01*
X15532268Y17300888D01*
G37*
G36*
X2832268Y19840888D02*
G01*
X2864711Y19819211D01*
X2886388Y19786768D01*
X2894000Y19748500D01*
X2894000Y18224500D01*
X2886388Y18186232D01*
X2864711Y18153789D01*
X2832268Y18132112D01*
X2794000Y18124500D01*
X2789077Y18124500D01*
X1274922Y18124500D01*
X1270000Y18124500D01*
X1231732Y18132112D01*
X1199289Y18153789D01*
X1177612Y18186232D01*
X1170000Y18224500D01*
X1170000Y19748500D01*
X1177612Y19786768D01*
X1199289Y19819211D01*
X1231732Y19840888D01*
X1270000Y19848500D01*
X2794000Y19848500D01*
X2832268Y19840888D01*
G37*
G36*
X5372268Y19840888D02*
G01*
X5404711Y19819211D01*
X5426388Y19786768D01*
X5434000Y19748500D01*
X5434000Y18224500D01*
X5426388Y18186232D01*
X5404711Y18153789D01*
X5372268Y18132112D01*
X5334000Y18124500D01*
X5329077Y18124500D01*
X3814922Y18124500D01*
X3810000Y18124500D01*
X3771732Y18132112D01*
X3739289Y18153789D01*
X3717612Y18186232D01*
X3710000Y18224500D01*
X3710000Y19748500D01*
X3717612Y19786768D01*
X3739289Y19819211D01*
X3771732Y19840888D01*
X3810000Y19848500D01*
X5334000Y19848500D01*
X5372268Y19840888D01*
G37*
G36*
X7912268Y19840888D02*
G01*
X7944711Y19819211D01*
X7966388Y19786768D01*
X7974000Y19748500D01*
X7974000Y18224500D01*
X7966388Y18186232D01*
X7944711Y18153789D01*
X7912268Y18132112D01*
X7874000Y18124500D01*
X7869077Y18124500D01*
X6354922Y18124500D01*
X6350000Y18124500D01*
X6311732Y18132112D01*
X6279289Y18153789D01*
X6257612Y18186232D01*
X6250000Y18224500D01*
X6250000Y19748500D01*
X6257612Y19786768D01*
X6279289Y19819211D01*
X6311732Y19840888D01*
X6350000Y19848500D01*
X7874000Y19848500D01*
X7912268Y19840888D01*
G37*
G36*
X10452268Y19840888D02*
G01*
X10484711Y19819211D01*
X10506388Y19786768D01*
X10514000Y19748500D01*
X10514000Y18224500D01*
X10506388Y18186232D01*
X10484711Y18153789D01*
X10452268Y18132112D01*
X10414000Y18124500D01*
X10409077Y18124500D01*
X8894922Y18124500D01*
X8890000Y18124500D01*
X8851732Y18132112D01*
X8819289Y18153789D01*
X8797612Y18186232D01*
X8790000Y18224500D01*
X8790000Y19748500D01*
X8797612Y19786768D01*
X8819289Y19819211D01*
X8851732Y19840888D01*
X8890000Y19848500D01*
X10414000Y19848500D01*
X10452268Y19840888D01*
G37*
G36*
X12992268Y19840888D02*
G01*
X13024711Y19819211D01*
X13046388Y19786768D01*
X13054000Y19748500D01*
X13054000Y18224500D01*
X13046388Y18186232D01*
X13024711Y18153789D01*
X12992268Y18132112D01*
X12954000Y18124500D01*
X12949077Y18124500D01*
X11434922Y18124500D01*
X11430000Y18124500D01*
X11391732Y18132112D01*
X11359289Y18153789D01*
X11337612Y18186232D01*
X11330000Y18224500D01*
X11330000Y19748500D01*
X11337612Y19786768D01*
X11359289Y19819211D01*
X11391732Y19840888D01*
X11430000Y19848500D01*
X12954000Y19848500D01*
X12992268Y19840888D01*
G37*
G36*
X15532268Y19840888D02*
G01*
X15564711Y19819211D01*
X15586388Y19786768D01*
X15594000Y19748500D01*
X15594000Y18224500D01*
X15586388Y18186232D01*
X15564711Y18153789D01*
X15532268Y18132112D01*
X15494000Y18124500D01*
X15489077Y18124500D01*
X13974922Y18124500D01*
X13970000Y18124500D01*
X13931732Y18132112D01*
X13899289Y18153789D01*
X13877612Y18186232D01*
X13870000Y18224500D01*
X13870000Y19748500D01*
X13877612Y19786768D01*
X13899289Y19819211D01*
X13931732Y19840888D01*
X13970000Y19848500D01*
X15494000Y19848500D01*
X15532268Y19840888D01*
G37*
G36*
X2832268Y22380888D02*
G01*
X2864711Y22359211D01*
X2886388Y22326768D01*
X2894000Y22288500D01*
X2894000Y20764500D01*
X2886388Y20726232D01*
X2864711Y20693789D01*
X2832268Y20672112D01*
X2794000Y20664500D01*
X2789077Y20664500D01*
X1274922Y20664500D01*
X1270000Y20664500D01*
X1231732Y20672112D01*
X1199289Y20693789D01*
X1177612Y20726232D01*
X1170000Y20764500D01*
X1170000Y22288500D01*
X1177612Y22326768D01*
X1199289Y22359211D01*
X1231732Y22380888D01*
X1270000Y22388500D01*
X2794000Y22388500D01*
X2832268Y22380888D01*
G37*
G36*
X5372268Y22380888D02*
G01*
X5404711Y22359211D01*
X5426388Y22326768D01*
X5434000Y22288500D01*
X5434000Y20764500D01*
X5426388Y20726232D01*
X5404711Y20693789D01*
X5372268Y20672112D01*
X5334000Y20664500D01*
X5329077Y20664500D01*
X3814922Y20664500D01*
X3810000Y20664500D01*
X3771732Y20672112D01*
X3739289Y20693789D01*
X3717612Y20726232D01*
X3710000Y20764500D01*
X3710000Y22288500D01*
X3717612Y22326768D01*
X3739289Y22359211D01*
X3771732Y22380888D01*
X3810000Y22388500D01*
X5334000Y22388500D01*
X5372268Y22380888D01*
G37*
G36*
X7912268Y22380888D02*
G01*
X7944711Y22359211D01*
X7966388Y22326768D01*
X7974000Y22288500D01*
X7974000Y20764500D01*
X7966388Y20726232D01*
X7944711Y20693789D01*
X7912268Y20672112D01*
X7874000Y20664500D01*
X7869077Y20664500D01*
X6354922Y20664500D01*
X6350000Y20664500D01*
X6311732Y20672112D01*
X6279289Y20693789D01*
X6257612Y20726232D01*
X6250000Y20764500D01*
X6250000Y22288500D01*
X6257612Y22326768D01*
X6279289Y22359211D01*
X6311732Y22380888D01*
X6350000Y22388500D01*
X7874000Y22388500D01*
X7912268Y22380888D01*
G37*
G36*
X10452268Y22380888D02*
G01*
X10484711Y22359211D01*
X10506388Y22326768D01*
X10514000Y22288500D01*
X10514000Y20764500D01*
X10506388Y20726232D01*
X10484711Y20693789D01*
X10452268Y20672112D01*
X10414000Y20664500D01*
X10409077Y20664500D01*
X8894922Y20664500D01*
X8890000Y20664500D01*
X8851732Y20672112D01*
X8819289Y20693789D01*
X8797612Y20726232D01*
X8790000Y20764500D01*
X8790000Y22288500D01*
X8797612Y22326768D01*
X8819289Y22359211D01*
X8851732Y22380888D01*
X8890000Y22388500D01*
X10414000Y22388500D01*
X10452268Y22380888D01*
G37*
G36*
X12992268Y22380888D02*
G01*
X13024711Y22359211D01*
X13046388Y22326768D01*
X13054000Y22288500D01*
X13054000Y20764500D01*
X13046388Y20726232D01*
X13024711Y20693789D01*
X12992268Y20672112D01*
X12954000Y20664500D01*
X12949077Y20664500D01*
X11434922Y20664500D01*
X11430000Y20664500D01*
X11391732Y20672112D01*
X11359289Y20693789D01*
X11337612Y20726232D01*
X11330000Y20764500D01*
X11330000Y22288500D01*
X11337612Y22326768D01*
X11359289Y22359211D01*
X11391732Y22380888D01*
X11430000Y22388500D01*
X12954000Y22388500D01*
X12992268Y22380888D01*
G37*
G36*
X15532268Y22380888D02*
G01*
X15564711Y22359211D01*
X15586388Y22326768D01*
X15594000Y22288500D01*
X15594000Y20764500D01*
X15586388Y20726232D01*
X15564711Y20693789D01*
X15532268Y20672112D01*
X15494000Y20664500D01*
X15489077Y20664500D01*
X13974922Y20664500D01*
X13970000Y20664500D01*
X13931732Y20672112D01*
X13899289Y20693789D01*
X13877612Y20726232D01*
X13870000Y20764500D01*
X13870000Y22288500D01*
X13877612Y22326768D01*
X13899289Y22359211D01*
X13931732Y22380888D01*
X13970000Y22388500D01*
X15494000Y22388500D01*
X15532268Y22380888D01*
G37*
G36*
X16230768Y26444888D02*
G01*
X16263211Y26423211D01*
X16284888Y26390768D01*
X16292500Y26352500D01*
X16292500Y24828500D01*
X16284888Y24790232D01*
X16263211Y24757789D01*
X16230768Y24736112D01*
X16192500Y24728500D01*
X16187577Y24728500D01*
X14673422Y24728500D01*
X14668500Y24728500D01*
X14630232Y24736112D01*
X14597789Y24757789D01*
X14576112Y24790232D01*
X14568500Y24828500D01*
X14568500Y26352500D01*
X14576112Y26390768D01*
X14597789Y26423211D01*
X14630232Y26444888D01*
X14668500Y26452500D01*
X16192500Y26452500D01*
X16230768Y26444888D01*
G37*
G36*
X18770768Y26444888D02*
G01*
X18803211Y26423211D01*
X18824888Y26390768D01*
X18832500Y26352500D01*
X18832500Y24828500D01*
X18824888Y24790232D01*
X18803211Y24757789D01*
X18770768Y24736112D01*
X18732500Y24728500D01*
X18727577Y24728500D01*
X17213422Y24728500D01*
X17208500Y24728500D01*
X17170232Y24736112D01*
X17137789Y24757789D01*
X17116112Y24790232D01*
X17108500Y24828500D01*
X17108500Y26352500D01*
X17116112Y26390768D01*
X17137789Y26423211D01*
X17170232Y26444888D01*
X17208500Y26452500D01*
X18732500Y26452500D01*
X18770768Y26444888D01*
G37*
G36*
X3657768Y27968888D02*
G01*
X3690211Y27947211D01*
X3711888Y27914768D01*
X3719500Y27876500D01*
X3719500Y26352500D01*
X3711888Y26314232D01*
X3690211Y26281789D01*
X3657768Y26260112D01*
X3619500Y26252500D01*
X3614577Y26252500D01*
X2100422Y26252500D01*
X2095500Y26252500D01*
X2057232Y26260112D01*
X2024789Y26281789D01*
X2003112Y26314232D01*
X1995500Y26352500D01*
X1995500Y27876500D01*
X2003112Y27914768D01*
X2024789Y27947211D01*
X2057232Y27968888D01*
X2095500Y27976500D01*
X3619500Y27976500D01*
X3657768Y27968888D01*
G37*
G36*
X6197768Y27968888D02*
G01*
X6230211Y27947211D01*
X6251888Y27914768D01*
X6259500Y27876500D01*
X6259500Y26352500D01*
X6251888Y26314232D01*
X6230211Y26281789D01*
X6197768Y26260112D01*
X6159500Y26252500D01*
X6154577Y26252500D01*
X4640422Y26252500D01*
X4635500Y26252500D01*
X4597232Y26260112D01*
X4564789Y26281789D01*
X4543112Y26314232D01*
X4535500Y26352500D01*
X4535500Y27876500D01*
X4543112Y27914768D01*
X4564789Y27947211D01*
X4597232Y27968888D01*
X4635500Y27976500D01*
X6159500Y27976500D01*
X6197768Y27968888D01*
G37*
G36*
X8737768Y27968888D02*
G01*
X8770211Y27947211D01*
X8791888Y27914768D01*
X8799500Y27876500D01*
X8799500Y26352500D01*
X8791888Y26314232D01*
X8770211Y26281789D01*
X8737768Y26260112D01*
X8699500Y26252500D01*
X8694577Y26252500D01*
X7180422Y26252500D01*
X7175500Y26252500D01*
X7137232Y26260112D01*
X7104789Y26281789D01*
X7083112Y26314232D01*
X7075500Y26352500D01*
X7075500Y27876500D01*
X7083112Y27914768D01*
X7104789Y27947211D01*
X7137232Y27968888D01*
X7175500Y27976500D01*
X8699500Y27976500D01*
X8737768Y27968888D01*
G37*
G36*
X16230768Y28984888D02*
G01*
X16263211Y28963211D01*
X16284888Y28930768D01*
X16292500Y28892500D01*
X16292500Y27368500D01*
X16284888Y27330232D01*
X16263211Y27297789D01*
X16230768Y27276112D01*
X16192500Y27268500D01*
X16187577Y27268500D01*
X14673422Y27268500D01*
X14668500Y27268500D01*
X14630232Y27276112D01*
X14597789Y27297789D01*
X14576112Y27330232D01*
X14568500Y27368500D01*
X14568500Y28892500D01*
X14576112Y28930768D01*
X14597789Y28963211D01*
X14630232Y28984888D01*
X14668500Y28992500D01*
X16192500Y28992500D01*
X16230768Y28984888D01*
G37*
G36*
X18770768Y28984888D02*
G01*
X18803211Y28963211D01*
X18824888Y28930768D01*
X18832500Y28892500D01*
X18832500Y27368500D01*
X18824888Y27330232D01*
X18803211Y27297789D01*
X18770768Y27276112D01*
X18732500Y27268500D01*
X18727577Y27268500D01*
X17213422Y27268500D01*
X17208500Y27268500D01*
X17170232Y27276112D01*
X17137789Y27297789D01*
X17116112Y27330232D01*
X17108500Y27368500D01*
X17108500Y28892500D01*
X17116112Y28930768D01*
X17137789Y28963211D01*
X17170232Y28984888D01*
X17208500Y28992500D01*
X18732500Y28992500D01*
X18770768Y28984888D01*
G37*
G36*
X3657768Y30508888D02*
G01*
X3690211Y30487211D01*
X3711888Y30454768D01*
X3719500Y30416500D01*
X3719500Y28892500D01*
X3711888Y28854232D01*
X3690211Y28821789D01*
X3657768Y28800112D01*
X3619500Y28792500D01*
X3614577Y28792500D01*
X2100422Y28792500D01*
X2095500Y28792500D01*
X2057232Y28800112D01*
X2024789Y28821789D01*
X2003112Y28854232D01*
X1995500Y28892500D01*
X1995500Y30416500D01*
X2003112Y30454768D01*
X2024789Y30487211D01*
X2057232Y30508888D01*
X2095500Y30516500D01*
X3619500Y30516500D01*
X3657768Y30508888D01*
G37*
G36*
X6197768Y30508888D02*
G01*
X6230211Y30487211D01*
X6251888Y30454768D01*
X6259500Y30416500D01*
X6259500Y28892500D01*
X6251888Y28854232D01*
X6230211Y28821789D01*
X6197768Y28800112D01*
X6159500Y28792500D01*
X6154577Y28792500D01*
X4640422Y28792500D01*
X4635500Y28792500D01*
X4597232Y28800112D01*
X4564789Y28821789D01*
X4543112Y28854232D01*
X4535500Y28892500D01*
X4535500Y30416500D01*
X4543112Y30454768D01*
X4564789Y30487211D01*
X4597232Y30508888D01*
X4635500Y30516500D01*
X6159500Y30516500D01*
X6197768Y30508888D01*
G37*
G36*
X8737768Y30508888D02*
G01*
X8770211Y30487211D01*
X8791888Y30454768D01*
X8799500Y30416500D01*
X8799500Y28892500D01*
X8791888Y28854232D01*
X8770211Y28821789D01*
X8737768Y28800112D01*
X8699500Y28792500D01*
X8694577Y28792500D01*
X7180422Y28792500D01*
X7175500Y28792500D01*
X7137232Y28800112D01*
X7104789Y28821789D01*
X7083112Y28854232D01*
X7075500Y28892500D01*
X7075500Y30416500D01*
X7083112Y30454768D01*
X7104789Y30487211D01*
X7137232Y30508888D01*
X7175500Y30516500D01*
X8699500Y30516500D01*
X8737768Y30508888D01*
G37*
G36*
X5427090Y38640508D02*
G01*
X5769815Y38582277D01*
X6103865Y38486038D01*
X6425040Y38353003D01*
X6729299Y38184845D01*
X7012818Y37983678D01*
X7272031Y37752031D01*
X7503678Y37492818D01*
X7704845Y37209299D01*
X7873003Y36905040D01*
X8006038Y36583865D01*
X8102277Y36249815D01*
X8160508Y35907090D01*
X8180000Y35560000D01*
X8160508Y35212910D01*
X8102277Y34870185D01*
X8006038Y34536135D01*
X7873003Y34214960D01*
X7704845Y33910701D01*
X7503678Y33627182D01*
X7272031Y33367969D01*
X7012818Y33136322D01*
X6729299Y32935155D01*
X6425040Y32766997D01*
X6103865Y32633962D01*
X5769815Y32537723D01*
X5427090Y32479492D01*
X5080000Y32460000D01*
X4732910Y32479492D01*
X4390185Y32537723D01*
X4056135Y32633962D01*
X3734960Y32766997D01*
X3430701Y32935155D01*
X3147182Y33136322D01*
X2887969Y33367969D01*
X2656322Y33627182D01*
X2455155Y33910701D01*
X2286997Y34214960D01*
X2153962Y34536135D01*
X2057723Y34870185D01*
X1999492Y35212910D01*
X1980000Y35560000D01*
X1999492Y35907090D01*
X2057723Y36249815D01*
X2153962Y36583865D01*
X2286997Y36905040D01*
X2455155Y37209299D01*
X2656322Y37492818D01*
X2887969Y37752031D01*
X3147182Y37983678D01*
X3430701Y38184845D01*
X3734960Y38353003D01*
X4056135Y38486038D01*
X4390185Y38582277D01*
X4732910Y38640508D01*
X5080000Y38660000D01*
X5427090Y38640508D01*
G37*
G36*
X15587090Y38640508D02*
G01*
X15929815Y38582277D01*
X16263865Y38486038D01*
X16585040Y38353003D01*
X16889299Y38184845D01*
X17172818Y37983678D01*
X17432031Y37752031D01*
X17663678Y37492818D01*
X17864845Y37209299D01*
X18033003Y36905040D01*
X18166038Y36583865D01*
X18262277Y36249815D01*
X18320508Y35907090D01*
X18340000Y35560000D01*
X18320508Y35212910D01*
X18262277Y34870185D01*
X18166038Y34536135D01*
X18033003Y34214960D01*
X17864845Y33910701D01*
X17663678Y33627182D01*
X17432031Y33367969D01*
X17172818Y33136322D01*
X16889299Y32935155D01*
X16585040Y32766997D01*
X16263865Y32633962D01*
X15929815Y32537723D01*
X15587090Y32479492D01*
X15240000Y32460000D01*
X14892910Y32479492D01*
X14550185Y32537723D01*
X14216135Y32633962D01*
X13894960Y32766997D01*
X13590701Y32935155D01*
X13307182Y33136322D01*
X13047969Y33367969D01*
X12816322Y33627182D01*
X12615155Y33910701D01*
X12446997Y34214960D01*
X12313962Y34536135D01*
X12217723Y34870185D01*
X12159492Y35212910D01*
X12140000Y35560000D01*
X12159492Y35907090D01*
X12217723Y36249815D01*
X12313962Y36583865D01*
X12446997Y36905040D01*
X12615155Y37209299D01*
X12816322Y37492818D01*
X13047969Y37752031D01*
X13307182Y37983678D01*
X13590701Y38184845D01*
X13894960Y38353003D01*
X14216135Y38486038D01*
X14550185Y38582277D01*
X14892910Y38640508D01*
X15240000Y38660000D01*
X15587090Y38640508D01*
G37*
M02*
