%TF.GenerationSoftware,KiCad,Pcbnew,7.0.7-7.0.7~ubuntu23.04.1*%
%TF.CreationDate,2023-09-17T09:29:20+00:00*%
%TF.ProjectId,I2CHUB01,49324348-5542-4303-912e-6b696361645f,rev?*%
%TF.SameCoordinates,Original*%
%TF.FileFunction,Copper,L2,Bot*%
%TF.FilePolarity,Positive*%
%FSLAX46Y46*%
G04 Gerber Fmt 4.6, Leading zero omitted, Abs format (unit mm)*
G04 Created by KiCad (PCBNEW 7.0.7-7.0.7~ubuntu23.04.1) date 2023-09-17 09:29:20*
%MOMM*%
%LPD*%
G01*
G04 APERTURE LIST*
%TA.AperFunction,ComponentPad*%
%ADD10R,1.524000X1.524000*%
%TD*%
%TA.AperFunction,ComponentPad*%
%ADD11C,6.000000*%
%TD*%
%TA.AperFunction,SMDPad,CuDef*%
%ADD12R,0.889000X1.397000*%
%TD*%
%TA.AperFunction,SMDPad,CuDef*%
%ADD13R,1.300480X1.699260*%
%TD*%
%TA.AperFunction,ViaPad*%
%ADD14C,0.800000*%
%TD*%
%TA.AperFunction,Conductor*%
%ADD15C,0.600000*%
%TD*%
%TA.AperFunction,Conductor*%
%ADD16C,0.500000*%
%TD*%
G04 APERTURE END LIST*
D10*
%TO.P,J1,1*%
%TO.N,GND*%
X2857500Y27114500D03*
%TO.P,J1,2*%
X2857500Y29654500D03*
%TO.P,J1,3*%
%TO.N,VCC*%
X5397500Y27114500D03*
%TO.P,J1,4*%
X5397500Y29654500D03*
%TO.P,J1,5*%
%TO.N,GND*%
X7937500Y27114500D03*
%TO.P,J1,6*%
X7937500Y29654500D03*
%TD*%
%TO.P,J2,1*%
%TO.N,GND*%
X12192000Y21526500D03*
%TO.P,J2,2*%
X14732000Y21526500D03*
%TO.P,J2,3*%
%TO.N,/SCL*%
X12192000Y18986500D03*
%TO.P,J2,4*%
X14732000Y18986500D03*
%TO.P,J2,5*%
%TO.N,VCC*%
X12192000Y16446500D03*
%TO.P,J2,6*%
X14732000Y16446500D03*
%TO.P,J2,7*%
%TO.N,/SDA*%
X12192000Y13906500D03*
%TO.P,J2,8*%
X14732000Y13906500D03*
%TO.P,J2,9*%
%TO.N,GND*%
X12192000Y11366500D03*
%TO.P,J2,10*%
X14732000Y11366500D03*
%TD*%
%TO.P,J3,1*%
%TO.N,GND*%
X7112000Y21526500D03*
%TO.P,J3,2*%
X9652000Y21526500D03*
%TO.P,J3,3*%
%TO.N,/SCL*%
X7112000Y18986500D03*
%TO.P,J3,4*%
X9652000Y18986500D03*
%TO.P,J3,5*%
%TO.N,VCC*%
X7112000Y16446500D03*
%TO.P,J3,6*%
X9652000Y16446500D03*
%TO.P,J3,7*%
%TO.N,/SDA*%
X7112000Y13906500D03*
%TO.P,J3,8*%
X9652000Y13906500D03*
%TO.P,J3,9*%
%TO.N,GND*%
X7112000Y11366500D03*
%TO.P,J3,10*%
X9652000Y11366500D03*
%TD*%
%TO.P,J4,1*%
%TO.N,GND*%
X2032000Y21526500D03*
%TO.P,J4,2*%
X4572000Y21526500D03*
%TO.P,J4,3*%
%TO.N,/SCL*%
X2032000Y18986500D03*
%TO.P,J4,4*%
X4572000Y18986500D03*
%TO.P,J4,5*%
%TO.N,VCC*%
X2032000Y16446500D03*
%TO.P,J4,6*%
X4572000Y16446500D03*
%TO.P,J4,7*%
%TO.N,/SDA*%
X2032000Y13906500D03*
%TO.P,J4,8*%
X4572000Y13906500D03*
%TO.P,J4,9*%
%TO.N,GND*%
X2032000Y11366500D03*
%TO.P,J4,10*%
X4572000Y11366500D03*
%TD*%
%TO.P,J5,1*%
%TO.N,Net-(J5-Pad1)*%
X15430500Y28130500D03*
%TO.P,J5,2*%
%TO.N,/SDA*%
X17970500Y28130500D03*
%TD*%
%TO.P,J6,1*%
%TO.N,Net-(J6-Pad1)*%
X15430500Y25590500D03*
%TO.P,J6,2*%
%TO.N,/SCL*%
X17970500Y25590500D03*
%TD*%
D11*
%TO.P,M1,1*%
%TO.N,GND*%
X5080000Y35560000D03*
%TD*%
%TO.P,M2,1*%
%TO.N,GND*%
X15240000Y35560000D03*
%TD*%
%TO.P,M3,1*%
%TO.N,GND*%
X15240000Y5080000D03*
%TD*%
%TO.P,M4,1*%
%TO.N,GND*%
X5080000Y5080000D03*
%TD*%
D12*
%TO.P,C1,1*%
%TO.N,VCC*%
X7683500Y24320500D03*
%TO.P,C1,2*%
%TO.N,GND*%
X9588500Y24320500D03*
%TD*%
%TO.P,C2,1*%
%TO.N,VCC*%
X17081500Y16383000D03*
%TO.P,C2,2*%
%TO.N,GND*%
X18986500Y16383000D03*
%TD*%
D13*
%TO.P,D1,1*%
%TO.N,GND*%
X2186940Y24384000D03*
%TO.P,D1,2*%
%TO.N,VCC*%
X5687060Y24384000D03*
%TD*%
D12*
%TO.P,R1,1*%
%TO.N,VCC*%
X11112500Y28194000D03*
%TO.P,R1,2*%
%TO.N,Net-(J5-Pad1)*%
X13017500Y28194000D03*
%TD*%
%TO.P,R2,1*%
%TO.N,VCC*%
X11112500Y25844500D03*
%TO.P,R2,2*%
%TO.N,Net-(J6-Pad1)*%
X13017500Y25844500D03*
%TD*%
D14*
%TO.N,VCC*%
X16954500Y17780000D03*
X11493500Y23685500D03*
X11493500Y23685500D03*
%TO.N,/SCL*%
X18034000Y20383500D03*
%TD*%
D15*
%TO.N,VCC*%
X5397500Y24673560D02*
X5687060Y24384000D01*
X10985500Y28702000D02*
X11049000Y28638500D01*
X14732000Y16446500D02*
X17018000Y16446500D01*
X11112500Y24066500D02*
X11493500Y23685500D01*
D16*
X12192000Y16446500D02*
X14732000Y16446500D01*
X7112000Y16446500D02*
X8001000Y16446500D01*
D15*
X16891000Y16573500D02*
X17081500Y16383000D01*
X4572000Y16446500D02*
X8001000Y16446500D01*
X2032000Y16446500D02*
X4572000Y16446500D01*
X11112500Y25844500D02*
X11112500Y24066500D01*
X5397500Y27114500D02*
X5397500Y24673560D01*
X7620000Y24384000D02*
X7683500Y24320500D01*
X16954500Y17780000D02*
X16954500Y16510000D01*
X17018000Y16446500D02*
X17081500Y16383000D01*
X11049000Y28638500D02*
X11049000Y26225500D01*
X5687060Y24384000D02*
X7620000Y24384000D01*
D16*
X8001000Y16446500D02*
X9652000Y16446500D01*
X4572000Y16446500D02*
X7112000Y16446500D01*
D15*
X16954500Y16510000D02*
X17081500Y16383000D01*
D16*
X9652000Y16446500D02*
X12192000Y16446500D01*
D15*
X5397500Y29654500D02*
X5397500Y27114500D01*
X7112000Y16446500D02*
X14732000Y16446500D01*
%TO.N,/SCL*%
X4572000Y18986500D02*
X7112000Y18986500D01*
X16637000Y18986500D02*
X18034000Y20383500D01*
X7112000Y18986500D02*
X9652000Y18986500D01*
X2032000Y18986500D02*
X4572000Y18986500D01*
X14732000Y18986500D02*
X12192000Y18986500D01*
X2032000Y18986500D02*
X3683000Y18986500D01*
X14732000Y18986500D02*
X16637000Y18986500D01*
D16*
X3683000Y18986500D02*
X4572000Y18986500D01*
D15*
X9652000Y18986500D02*
X12192000Y18986500D01*
D16*
%TO.N,/SDA*%
X4572000Y13906500D02*
X7112000Y13906500D01*
X2032000Y13906500D02*
X4572000Y13906500D01*
X12192000Y13906500D02*
X14732000Y13906500D01*
X7112000Y13906500D02*
X9652000Y13906500D01*
X9652000Y13906500D02*
X12192000Y13906500D01*
D15*
X2032000Y13906500D02*
X14732000Y13906500D01*
%TO.N,Net-(J5-Pad1)*%
X13017500Y28194000D02*
X15367000Y28194000D01*
X15367000Y28194000D02*
X15430500Y28130500D01*
%TO.N,Net-(J6-Pad1)*%
X15176500Y25844500D02*
X15430500Y25590500D01*
X13017500Y25844500D02*
X15176500Y25844500D01*
%TD*%
%TA.AperFunction,Conductor*%
%TO.N,GND*%
G36*
X19932621Y40290498D02*
G01*
X19979114Y40236842D01*
X19990500Y40184500D01*
X19990500Y455500D01*
X19970498Y387379D01*
X19916842Y340886D01*
X19864500Y329500D01*
X455500Y329500D01*
X387379Y349502D01*
X340886Y403158D01*
X329500Y455500D01*
X329500Y13095850D01*
X761500Y13095850D01*
X768009Y13035303D01*
X768011Y13035295D01*
X819110Y12898297D01*
X819112Y12898292D01*
X906738Y12781238D01*
X1023792Y12693612D01*
X1023797Y12693610D01*
X1160795Y12642511D01*
X1160803Y12642509D01*
X1221350Y12636000D01*
X1221362Y12636000D01*
X2842649Y12636000D01*
X2903196Y12642509D01*
X2903204Y12642511D01*
X3040202Y12693610D01*
X3040207Y12693612D01*
X3157261Y12781239D01*
X3201133Y12839843D01*
X3257969Y12882389D01*
X3328784Y12887453D01*
X3391096Y12853428D01*
X3402867Y12839843D01*
X3446738Y12781239D01*
X3563792Y12693612D01*
X3563797Y12693610D01*
X3700795Y12642511D01*
X3700803Y12642509D01*
X3761350Y12636000D01*
X3761362Y12636000D01*
X5382649Y12636000D01*
X5443196Y12642509D01*
X5443204Y12642511D01*
X5580202Y12693610D01*
X5580207Y12693612D01*
X5697261Y12781239D01*
X5741133Y12839843D01*
X5797969Y12882389D01*
X5868784Y12887453D01*
X5931096Y12853428D01*
X5942867Y12839843D01*
X5986738Y12781239D01*
X6103792Y12693612D01*
X6103797Y12693610D01*
X6240795Y12642511D01*
X6240803Y12642509D01*
X6301350Y12636000D01*
X6301362Y12636000D01*
X7922649Y12636000D01*
X7983196Y12642509D01*
X7983204Y12642511D01*
X8120202Y12693610D01*
X8120207Y12693612D01*
X8237261Y12781239D01*
X8281133Y12839843D01*
X8337969Y12882389D01*
X8408784Y12887453D01*
X8471096Y12853428D01*
X8482867Y12839843D01*
X8526738Y12781239D01*
X8643792Y12693612D01*
X8643797Y12693610D01*
X8780795Y12642511D01*
X8780803Y12642509D01*
X8841350Y12636000D01*
X8841362Y12636000D01*
X10462649Y12636000D01*
X10523196Y12642509D01*
X10523204Y12642511D01*
X10660202Y12693610D01*
X10660207Y12693612D01*
X10777261Y12781239D01*
X10821133Y12839843D01*
X10877969Y12882389D01*
X10948784Y12887453D01*
X11011096Y12853428D01*
X11022867Y12839843D01*
X11066738Y12781239D01*
X11183792Y12693612D01*
X11183797Y12693610D01*
X11320795Y12642511D01*
X11320803Y12642509D01*
X11381350Y12636000D01*
X11381362Y12636000D01*
X13002649Y12636000D01*
X13063196Y12642509D01*
X13063204Y12642511D01*
X13200202Y12693610D01*
X13200207Y12693612D01*
X13317261Y12781239D01*
X13361133Y12839843D01*
X13417969Y12882389D01*
X13488784Y12887453D01*
X13551096Y12853428D01*
X13562867Y12839843D01*
X13606738Y12781239D01*
X13723792Y12693612D01*
X13723797Y12693610D01*
X13860795Y12642511D01*
X13860803Y12642509D01*
X13921350Y12636000D01*
X13921362Y12636000D01*
X15542649Y12636000D01*
X15603196Y12642509D01*
X15603204Y12642511D01*
X15740202Y12693610D01*
X15740207Y12693612D01*
X15857261Y12781238D01*
X15944887Y12898292D01*
X15944889Y12898297D01*
X15995988Y13035295D01*
X15995990Y13035303D01*
X16002499Y13095850D01*
X16002500Y13095867D01*
X16002500Y14717132D01*
X16002499Y14717149D01*
X15995990Y14777696D01*
X15995988Y14777704D01*
X15988960Y14796545D01*
X15944889Y14914704D01*
X15857261Y15031761D01*
X15857260Y15031761D01*
X15798657Y15075632D01*
X15756110Y15132468D01*
X15751046Y15203284D01*
X15785071Y15265596D01*
X15798657Y15277368D01*
X15857261Y15321238D01*
X15944887Y15438292D01*
X15944888Y15438295D01*
X15944889Y15438296D01*
X15947445Y15445149D01*
X15989993Y15501984D01*
X16056513Y15526794D01*
X16125887Y15511702D01*
X16176088Y15461499D01*
X16183555Y15445149D01*
X16186111Y15438295D01*
X16186112Y15438292D01*
X16273738Y15321238D01*
X16390792Y15233612D01*
X16390797Y15233610D01*
X16527795Y15182511D01*
X16527803Y15182509D01*
X16588350Y15176000D01*
X16588362Y15176000D01*
X17574649Y15176000D01*
X17635196Y15182509D01*
X17635204Y15182511D01*
X17772202Y15233610D01*
X17772207Y15233612D01*
X17889261Y15321238D01*
X17976887Y15438292D01*
X17976889Y15438297D01*
X18027988Y15575295D01*
X18027990Y15575303D01*
X18034499Y15635850D01*
X18034500Y15635867D01*
X18034500Y17130132D01*
X18034499Y17130149D01*
X18027990Y17190696D01*
X18027988Y17190704D01*
X18003205Y17257149D01*
X17976889Y17327704D01*
X17889261Y17444761D01*
X17889259Y17444762D01*
X17889258Y17444764D01*
X17882888Y17451135D01*
X17884070Y17452317D01*
X17847775Y17500797D01*
X17842706Y17571613D01*
X17845990Y17583758D01*
X17848042Y17590072D01*
X17868004Y17780000D01*
X17848042Y17969928D01*
X17789027Y18151556D01*
X17693540Y18316944D01*
X17565753Y18458866D01*
X17503819Y18503863D01*
X17460466Y18560085D01*
X17454391Y18630821D01*
X17487522Y18693613D01*
X17488786Y18694894D01*
X18285912Y19492020D01*
X18323758Y19518032D01*
X18490752Y19592382D01*
X18645255Y19704635D01*
X18773034Y19846548D01*
X18773041Y19846558D01*
X18779472Y19857696D01*
X18868527Y20011944D01*
X18927542Y20193572D01*
X18947504Y20383500D01*
X18927542Y20573428D01*
X18868527Y20755056D01*
X18773040Y20920444D01*
X18645253Y21062366D01*
X18490752Y21174618D01*
X18316288Y21252294D01*
X18129487Y21292000D01*
X17938513Y21292000D01*
X17751712Y21252294D01*
X17577248Y21174618D01*
X17577247Y21174617D01*
X17422744Y21062364D01*
X17294965Y20920451D01*
X17294958Y20920441D01*
X17199473Y20755058D01*
X17199472Y20755056D01*
X17178644Y20690956D01*
X17147907Y20640798D01*
X16339012Y19831904D01*
X16276700Y19797879D01*
X16249917Y19795000D01*
X16106859Y19795000D01*
X16038738Y19815002D01*
X15992245Y19868658D01*
X15988804Y19876966D01*
X15973275Y19918598D01*
X15944889Y19994704D01*
X15857261Y20111761D01*
X15740204Y20199389D01*
X15603201Y20250489D01*
X15603199Y20250489D01*
X15603196Y20250490D01*
X15542649Y20256999D01*
X15542645Y20256999D01*
X15542638Y20257000D01*
X13921362Y20257000D01*
X13921355Y20256999D01*
X13921350Y20256999D01*
X13860803Y20250490D01*
X13860795Y20250488D01*
X13782875Y20221424D01*
X13723796Y20199389D01*
X13723794Y20199388D01*
X13723792Y20199387D01*
X13606738Y20111761D01*
X13562868Y20053157D01*
X13506032Y20010610D01*
X13435216Y20005546D01*
X13372904Y20039571D01*
X13361132Y20053157D01*
X13317261Y20111761D01*
X13200207Y20199387D01*
X13200206Y20199387D01*
X13200204Y20199389D01*
X13063201Y20250489D01*
X13063199Y20250489D01*
X13063196Y20250490D01*
X13002649Y20256999D01*
X13002645Y20256999D01*
X13002638Y20257000D01*
X11381362Y20257000D01*
X11381355Y20256999D01*
X11381350Y20256999D01*
X11320803Y20250490D01*
X11320795Y20250488D01*
X11242875Y20221424D01*
X11183796Y20199389D01*
X11183794Y20199388D01*
X11183792Y20199387D01*
X11066737Y20111760D01*
X11022866Y20053156D01*
X10966030Y20010610D01*
X10895214Y20005546D01*
X10832902Y20039572D01*
X10821132Y20053156D01*
X10777261Y20111761D01*
X10660204Y20199389D01*
X10523201Y20250489D01*
X10523199Y20250489D01*
X10523196Y20250490D01*
X10462649Y20256999D01*
X10462645Y20256999D01*
X10462638Y20257000D01*
X8841362Y20257000D01*
X8841355Y20256999D01*
X8841350Y20256999D01*
X8780803Y20250490D01*
X8780795Y20250488D01*
X8702875Y20221424D01*
X8643796Y20199389D01*
X8643794Y20199388D01*
X8643792Y20199387D01*
X8526738Y20111761D01*
X8482868Y20053157D01*
X8426032Y20010610D01*
X8355216Y20005546D01*
X8292904Y20039571D01*
X8281132Y20053157D01*
X8237261Y20111761D01*
X8120207Y20199387D01*
X8120206Y20199387D01*
X8120204Y20199389D01*
X7983201Y20250489D01*
X7983199Y20250489D01*
X7983196Y20250490D01*
X7922649Y20256999D01*
X7922645Y20256999D01*
X7922638Y20257000D01*
X6301362Y20257000D01*
X6301355Y20256999D01*
X6301350Y20256999D01*
X6240803Y20250490D01*
X6240795Y20250488D01*
X6162875Y20221424D01*
X6103796Y20199389D01*
X6103794Y20199388D01*
X6103792Y20199387D01*
X5986738Y20111761D01*
X5942868Y20053157D01*
X5886032Y20010610D01*
X5815216Y20005546D01*
X5752904Y20039571D01*
X5741132Y20053157D01*
X5697261Y20111761D01*
X5580207Y20199387D01*
X5580206Y20199387D01*
X5580204Y20199389D01*
X5443201Y20250489D01*
X5443199Y20250489D01*
X5443196Y20250490D01*
X5382649Y20256999D01*
X5382645Y20256999D01*
X5382638Y20257000D01*
X3761362Y20257000D01*
X3761355Y20256999D01*
X3761350Y20256999D01*
X3700803Y20250490D01*
X3700795Y20250488D01*
X3622875Y20221424D01*
X3563796Y20199389D01*
X3563794Y20199388D01*
X3563792Y20199387D01*
X3446738Y20111761D01*
X3402868Y20053157D01*
X3346032Y20010610D01*
X3275216Y20005546D01*
X3212904Y20039571D01*
X3201132Y20053157D01*
X3157261Y20111761D01*
X3040207Y20199387D01*
X3040206Y20199387D01*
X3040204Y20199389D01*
X2903201Y20250489D01*
X2903199Y20250489D01*
X2903196Y20250490D01*
X2842649Y20256999D01*
X2842645Y20256999D01*
X2842638Y20257000D01*
X1221362Y20257000D01*
X1221355Y20256999D01*
X1221350Y20256999D01*
X1160803Y20250490D01*
X1160795Y20250488D01*
X1082875Y20221424D01*
X1023796Y20199389D01*
X1023794Y20199388D01*
X1023792Y20199387D01*
X906738Y20111761D01*
X819112Y19994707D01*
X819110Y19994702D01*
X768011Y19857704D01*
X768009Y19857696D01*
X761500Y19797149D01*
X761500Y18175850D01*
X768009Y18115303D01*
X768011Y18115295D01*
X819110Y17978297D01*
X819112Y17978292D01*
X906739Y17861238D01*
X965343Y17817367D01*
X1007889Y17760531D01*
X1012953Y17689716D01*
X978928Y17627404D01*
X965343Y17615633D01*
X906739Y17571761D01*
X819112Y17454707D01*
X819110Y17454702D01*
X768011Y17317704D01*
X768009Y17317696D01*
X761500Y17257149D01*
X761500Y15635850D01*
X768009Y15575303D01*
X768011Y15575295D01*
X819110Y15438297D01*
X819112Y15438292D01*
X906739Y15321238D01*
X965343Y15277367D01*
X1007889Y15220531D01*
X1012953Y15149716D01*
X978928Y15087404D01*
X965343Y15075633D01*
X906739Y15031761D01*
X819112Y14914707D01*
X819110Y14914702D01*
X768011Y14777704D01*
X768009Y14777696D01*
X761500Y14717149D01*
X761500Y13095850D01*
X329500Y13095850D01*
X329500Y26303850D01*
X4127000Y26303850D01*
X4133509Y26243303D01*
X4133511Y26243295D01*
X4184610Y26106297D01*
X4184612Y26106292D01*
X4272238Y25989238D01*
X4389292Y25901612D01*
X4389295Y25901611D01*
X4507034Y25857696D01*
X4563869Y25815149D01*
X4588679Y25748629D01*
X4589000Y25739641D01*
X4589000Y25510794D01*
X4581055Y25466761D01*
X4534831Y25342834D01*
X4534829Y25342826D01*
X4528320Y25282279D01*
X4528320Y23485720D01*
X4534829Y23425173D01*
X4534831Y23425165D01*
X4585930Y23288167D01*
X4585932Y23288162D01*
X4673558Y23171108D01*
X4790612Y23083482D01*
X4790617Y23083480D01*
X4927615Y23032381D01*
X4927623Y23032379D01*
X4988170Y23025870D01*
X4988182Y23025870D01*
X6385949Y23025870D01*
X6446496Y23032379D01*
X6446504Y23032381D01*
X6583502Y23083480D01*
X6583507Y23083482D01*
X6700561Y23171108D01*
X6730004Y23210440D01*
X6786839Y23252987D01*
X6857655Y23258052D01*
X6906380Y23235800D01*
X6992793Y23171112D01*
X6992797Y23171110D01*
X7129795Y23120011D01*
X7129803Y23120009D01*
X7190350Y23113500D01*
X7190362Y23113500D01*
X8176649Y23113500D01*
X8237196Y23120009D01*
X8237204Y23120011D01*
X8374202Y23171110D01*
X8374207Y23171112D01*
X8491261Y23258738D01*
X8578887Y23375792D01*
X8578889Y23375797D01*
X8629988Y23512795D01*
X8629990Y23512803D01*
X8636499Y23573350D01*
X8636500Y23573367D01*
X8636500Y25067632D01*
X8636499Y25067649D01*
X8633306Y25097350D01*
X10159500Y25097350D01*
X10166009Y25036803D01*
X10166011Y25036795D01*
X10217110Y24899797D01*
X10217112Y24899792D01*
X10278868Y24817298D01*
X10303679Y24750778D01*
X10304000Y24741789D01*
X10304000Y23975401D01*
X10313378Y23934311D01*
X10314563Y23927342D01*
X10319282Y23885453D01*
X10333204Y23845665D01*
X10335160Y23838875D01*
X10344539Y23797783D01*
X10344540Y23797782D01*
X10362831Y23759798D01*
X10365535Y23753269D01*
X10379457Y23713483D01*
X10401883Y23677792D01*
X10405302Y23671605D01*
X10423590Y23633629D01*
X10449876Y23600669D01*
X10453966Y23594904D01*
X10476389Y23559217D01*
X10476391Y23559215D01*
X10508697Y23526911D01*
X10607408Y23428198D01*
X10638144Y23378043D01*
X10658974Y23313940D01*
X10754458Y23148558D01*
X10754465Y23148548D01*
X10882244Y23006635D01*
X11036747Y22894382D01*
X11211211Y22816706D01*
X11398013Y22777000D01*
X11588987Y22777000D01*
X11775788Y22816706D01*
X11950252Y22894382D01*
X12104755Y23006635D01*
X12232534Y23148548D01*
X12232541Y23148558D01*
X12245561Y23171109D01*
X12328027Y23313944D01*
X12387042Y23495572D01*
X12407004Y23685500D01*
X12387042Y23875428D01*
X12328027Y24057056D01*
X12232540Y24222444D01*
X12144700Y24320000D01*
X12104755Y24364364D01*
X12104754Y24364364D01*
X12104753Y24364366D01*
X11972937Y24460135D01*
X11929585Y24516356D01*
X11921000Y24562070D01*
X11921000Y24741789D01*
X11941002Y24809910D01*
X11946130Y24817296D01*
X11964131Y24841342D01*
X12020964Y24883889D01*
X12091779Y24888955D01*
X12154092Y24854932D01*
X12165866Y24841344D01*
X12209737Y24782739D01*
X12326792Y24695112D01*
X12326797Y24695110D01*
X12463795Y24644011D01*
X12463803Y24644009D01*
X12524350Y24637500D01*
X12524362Y24637500D01*
X13510649Y24637500D01*
X13571196Y24644009D01*
X13571204Y24644011D01*
X13708202Y24695110D01*
X13708207Y24695112D01*
X13825261Y24782738D01*
X13912887Y24899792D01*
X13912887Y24899793D01*
X13912889Y24899796D01*
X13915945Y24907990D01*
X13958493Y24964825D01*
X14025014Y24989634D01*
X14094388Y24974541D01*
X14144589Y24924338D01*
X14160000Y24863955D01*
X14160000Y24779850D01*
X14166509Y24719303D01*
X14166511Y24719295D01*
X14217610Y24582297D01*
X14217612Y24582292D01*
X14305238Y24465238D01*
X14422292Y24377612D01*
X14422297Y24377610D01*
X14559295Y24326511D01*
X14559303Y24326509D01*
X14619850Y24320000D01*
X14619862Y24320000D01*
X16241149Y24320000D01*
X16301696Y24326509D01*
X16301704Y24326511D01*
X16438702Y24377610D01*
X16438707Y24377612D01*
X16555761Y24465238D01*
X16599631Y24523842D01*
X16656467Y24566389D01*
X16727282Y24571454D01*
X16789594Y24537428D01*
X16801366Y24523844D01*
X16845239Y24465238D01*
X16962292Y24377612D01*
X16962297Y24377610D01*
X17099295Y24326511D01*
X17099303Y24326509D01*
X17159850Y24320000D01*
X17159862Y24320000D01*
X18781149Y24320000D01*
X18841696Y24326509D01*
X18841704Y24326511D01*
X18978702Y24377610D01*
X18978707Y24377612D01*
X19095761Y24465238D01*
X19183387Y24582292D01*
X19183389Y24582297D01*
X19234488Y24719295D01*
X19234490Y24719303D01*
X19240999Y24779850D01*
X19241000Y24779867D01*
X19241000Y26401132D01*
X19240999Y26401149D01*
X19234490Y26461696D01*
X19234488Y26461704D01*
X19227460Y26480545D01*
X19183389Y26598704D01*
X19142743Y26653000D01*
X19095761Y26715761D01*
X19037157Y26759632D01*
X18994610Y26816468D01*
X18989546Y26887284D01*
X19023571Y26949596D01*
X19037157Y26961368D01*
X19095761Y27005238D01*
X19183387Y27122292D01*
X19183389Y27122297D01*
X19183671Y27123051D01*
X19227427Y27240364D01*
X19234488Y27259295D01*
X19234490Y27259303D01*
X19240999Y27319850D01*
X19241000Y27319867D01*
X19241000Y28941132D01*
X19240999Y28941149D01*
X19234490Y29001696D01*
X19234488Y29001704D01*
X19226731Y29022502D01*
X19183389Y29138704D01*
X19095761Y29255761D01*
X18978704Y29343389D01*
X18841701Y29394489D01*
X18841699Y29394489D01*
X18841696Y29394490D01*
X18781149Y29400999D01*
X18781145Y29400999D01*
X18781138Y29401000D01*
X17159862Y29401000D01*
X17159855Y29400999D01*
X17159850Y29400999D01*
X17099303Y29394490D01*
X17099295Y29394488D01*
X17021375Y29365424D01*
X16962296Y29343389D01*
X16962294Y29343388D01*
X16962292Y29343387D01*
X16845238Y29255761D01*
X16801368Y29197157D01*
X16744532Y29154610D01*
X16673716Y29149546D01*
X16611404Y29183571D01*
X16599632Y29197157D01*
X16555761Y29255761D01*
X16438707Y29343387D01*
X16438706Y29343387D01*
X16438704Y29343389D01*
X16301701Y29394489D01*
X16301699Y29394489D01*
X16301696Y29394490D01*
X16241149Y29400999D01*
X16241145Y29400999D01*
X16241138Y29401000D01*
X14619862Y29401000D01*
X14619855Y29400999D01*
X14619850Y29400999D01*
X14559303Y29394490D01*
X14559295Y29394488D01*
X14481375Y29365424D01*
X14422296Y29343389D01*
X14422294Y29343388D01*
X14422292Y29343387D01*
X14305238Y29255761D01*
X14217612Y29138707D01*
X14217610Y29138702D01*
X14197381Y29084467D01*
X14154834Y29027631D01*
X14088314Y29002821D01*
X14079326Y29002500D01*
X14051174Y29002500D01*
X13983053Y29022502D01*
X13936560Y29076158D01*
X13933119Y29084467D01*
X13925699Y29104358D01*
X13912889Y29138704D01*
X13825261Y29255761D01*
X13708204Y29343389D01*
X13571201Y29394489D01*
X13571199Y29394489D01*
X13571196Y29394490D01*
X13510649Y29400999D01*
X13510645Y29400999D01*
X13510638Y29401000D01*
X12524362Y29401000D01*
X12524355Y29400999D01*
X12524350Y29400999D01*
X12463803Y29394490D01*
X12463795Y29394488D01*
X12385875Y29365424D01*
X12326796Y29343389D01*
X12326794Y29343388D01*
X12326792Y29343387D01*
X12209738Y29255761D01*
X12165868Y29197157D01*
X12109032Y29154610D01*
X12038216Y29149546D01*
X11975904Y29183571D01*
X11964132Y29197157D01*
X11920261Y29255761D01*
X11803207Y29343387D01*
X11803206Y29343387D01*
X11803204Y29343389D01*
X11666201Y29394489D01*
X11666199Y29394489D01*
X11666196Y29394490D01*
X11605649Y29400999D01*
X11605645Y29400999D01*
X11605638Y29401000D01*
X11605632Y29401000D01*
X11426174Y29401000D01*
X11371505Y29413478D01*
X11369231Y29414572D01*
X11254220Y29469959D01*
X11076597Y29510500D01*
X10894403Y29510500D01*
X10716780Y29469959D01*
X10599495Y29413478D01*
X10567014Y29397836D01*
X10561693Y29395568D01*
X10558800Y29394489D01*
X10558799Y29394489D01*
X10421796Y29343389D01*
X10421792Y29343386D01*
X10304738Y29255761D01*
X10217112Y29138707D01*
X10217110Y29138702D01*
X10166011Y29001704D01*
X10166009Y29001696D01*
X10159500Y28941149D01*
X10159500Y27446850D01*
X10166009Y27386303D01*
X10166011Y27386295D01*
X10217110Y27249297D01*
X10221432Y27241382D01*
X10219568Y27240364D01*
X10240179Y27185097D01*
X10240500Y27176114D01*
X10240500Y26862385D01*
X10221347Y26797158D01*
X10221430Y26797114D01*
X10221224Y26796736D01*
X10220498Y26794264D01*
X10217574Y26790053D01*
X10217113Y26789208D01*
X10217113Y26789207D01*
X10217111Y26789204D01*
X10189719Y26715763D01*
X10166009Y26652196D01*
X10159500Y26591649D01*
X10159500Y25097350D01*
X8633306Y25097350D01*
X8629990Y25128196D01*
X8629988Y25128204D01*
X8622960Y25147045D01*
X8578889Y25265204D01*
X8491261Y25382261D01*
X8412675Y25441090D01*
X8374207Y25469887D01*
X8374206Y25469887D01*
X8374204Y25469889D01*
X8237201Y25520989D01*
X8237199Y25520989D01*
X8237196Y25520990D01*
X8176649Y25527499D01*
X8176645Y25527499D01*
X8176638Y25527500D01*
X7190362Y25527500D01*
X7190355Y25527499D01*
X7190350Y25527499D01*
X7129803Y25520990D01*
X7129795Y25520988D01*
X7102465Y25510794D01*
X6992796Y25469889D01*
X6988618Y25466761D01*
X6967310Y25450810D01*
X6900790Y25425999D01*
X6831415Y25441090D01*
X6790932Y25476169D01*
X6788189Y25479832D01*
X6788189Y25479834D01*
X6700561Y25596891D01*
X6583504Y25684519D01*
X6487470Y25720338D01*
X6430638Y25762883D01*
X6405827Y25829403D01*
X6420919Y25898778D01*
X6455997Y25939260D01*
X6522761Y25989238D01*
X6610387Y26106292D01*
X6610389Y26106297D01*
X6661488Y26243295D01*
X6661490Y26243303D01*
X6667999Y26303850D01*
X6668000Y26303867D01*
X6668000Y27925132D01*
X6667999Y27925149D01*
X6661490Y27985696D01*
X6661488Y27985704D01*
X6654460Y28004545D01*
X6610389Y28122704D01*
X6522761Y28239761D01*
X6522760Y28239761D01*
X6464157Y28283632D01*
X6421610Y28340468D01*
X6416546Y28411284D01*
X6450571Y28473596D01*
X6464157Y28485368D01*
X6522761Y28529238D01*
X6610387Y28646292D01*
X6610389Y28646297D01*
X6661488Y28783295D01*
X6661490Y28783303D01*
X6667999Y28843850D01*
X6668000Y28843867D01*
X6668000Y30465132D01*
X6667999Y30465149D01*
X6661490Y30525696D01*
X6661488Y30525704D01*
X6654460Y30544545D01*
X6610389Y30662704D01*
X6522761Y30779761D01*
X6405704Y30867389D01*
X6268701Y30918489D01*
X6268699Y30918489D01*
X6268696Y30918490D01*
X6208149Y30924999D01*
X6208145Y30924999D01*
X6208138Y30925000D01*
X4586862Y30925000D01*
X4586855Y30924999D01*
X4586850Y30924999D01*
X4526303Y30918490D01*
X4526295Y30918488D01*
X4448375Y30889424D01*
X4389296Y30867389D01*
X4389294Y30867388D01*
X4389292Y30867387D01*
X4272238Y30779761D01*
X4184612Y30662707D01*
X4184610Y30662702D01*
X4133511Y30525704D01*
X4133509Y30525696D01*
X4127000Y30465149D01*
X4127000Y28843850D01*
X4133509Y28783303D01*
X4133511Y28783295D01*
X4184610Y28646297D01*
X4184612Y28646292D01*
X4272239Y28529238D01*
X4330843Y28485367D01*
X4373389Y28428531D01*
X4378453Y28357716D01*
X4344428Y28295404D01*
X4330843Y28283633D01*
X4272239Y28239761D01*
X4184612Y28122707D01*
X4184610Y28122702D01*
X4133511Y27985704D01*
X4133509Y27985696D01*
X4127000Y27925149D01*
X4127000Y26303850D01*
X329500Y26303850D01*
X329500Y40184500D01*
X349502Y40252621D01*
X403158Y40299114D01*
X455500Y40310500D01*
X19864500Y40310500D01*
X19932621Y40290498D01*
G37*
%TD.AperFunction*%
%TD*%
M02*
