%TF.GenerationSoftware,KiCad,Pcbnew,7.0.7-7.0.7~ubuntu23.04.1*%
%TF.CreationDate,2023-09-17T09:29:20+00:00*%
%TF.ProjectId,I2CHUB01,49324348-5542-4303-912e-6b696361645f,rev?*%
%TF.SameCoordinates,Original*%
%TF.FileFunction,Legend,Bot*%
%TF.FilePolarity,Positive*%
%FSLAX46Y46*%
G04 Gerber Fmt 4.6, Leading zero omitted, Abs format (unit mm)*
G04 Created by KiCad (PCBNEW 7.0.7-7.0.7~ubuntu23.04.1) date 2023-09-17 09:29:20*
%MOMM*%
%LPD*%
G01*
G04 APERTURE LIST*
%ADD10C,0.109220*%
%ADD11C,0.304800*%
%ADD12C,0.099060*%
%ADD13C,0.150000*%
G04 APERTURE END LIST*
D10*
X8719396Y23824849D02*
X8743224Y23801022D01*
X8743224Y23801022D02*
X8814706Y23777194D01*
X8814706Y23777194D02*
X8862362Y23777194D01*
X8862362Y23777194D02*
X8933845Y23801022D01*
X8933845Y23801022D02*
X8981500Y23848677D01*
X8981500Y23848677D02*
X9005327Y23896332D01*
X9005327Y23896332D02*
X9029155Y23991642D01*
X9029155Y23991642D02*
X9029155Y24063125D01*
X9029155Y24063125D02*
X9005327Y24158436D01*
X9005327Y24158436D02*
X8981500Y24206091D01*
X8981500Y24206091D02*
X8933845Y24253746D01*
X8933845Y24253746D02*
X8862362Y24277574D01*
X8862362Y24277574D02*
X8814706Y24277574D01*
X8814706Y24277574D02*
X8743224Y24253746D01*
X8743224Y24253746D02*
X8719396Y24229919D01*
X8242844Y23777194D02*
X8528775Y23777194D01*
X8385809Y23777194D02*
X8385809Y24277574D01*
X8385809Y24277574D02*
X8433465Y24206091D01*
X8433465Y24206091D02*
X8481120Y24158436D01*
X8481120Y24158436D02*
X8528775Y24134608D01*
X9084672Y24475694D02*
X9370603Y24475694D01*
X9227637Y24475694D02*
X9227637Y24976074D01*
X9227637Y24976074D02*
X9275293Y24904591D01*
X9275293Y24904591D02*
X9322948Y24856936D01*
X9322948Y24856936D02*
X9370603Y24833108D01*
X8774913Y24976074D02*
X8727258Y24976074D01*
X8727258Y24976074D02*
X8679602Y24952246D01*
X8679602Y24952246D02*
X8655775Y24928419D01*
X8655775Y24928419D02*
X8631947Y24880763D01*
X8631947Y24880763D02*
X8608120Y24785453D01*
X8608120Y24785453D02*
X8608120Y24666315D01*
X8608120Y24666315D02*
X8631947Y24571004D01*
X8631947Y24571004D02*
X8655775Y24523349D01*
X8655775Y24523349D02*
X8679602Y24499522D01*
X8679602Y24499522D02*
X8727258Y24475694D01*
X8727258Y24475694D02*
X8774913Y24475694D01*
X8774913Y24475694D02*
X8822568Y24499522D01*
X8822568Y24499522D02*
X8846396Y24523349D01*
X8846396Y24523349D02*
X8870223Y24571004D01*
X8870223Y24571004D02*
X8894051Y24666315D01*
X8894051Y24666315D02*
X8894051Y24785453D01*
X8894051Y24785453D02*
X8870223Y24880763D01*
X8870223Y24880763D02*
X8846396Y24928419D01*
X8846396Y24928419D02*
X8822568Y24952246D01*
X8822568Y24952246D02*
X8774913Y24976074D01*
X8179223Y24809281D02*
X8179223Y24475694D01*
X8393671Y24809281D02*
X8393671Y24547177D01*
X8393671Y24547177D02*
X8369844Y24499522D01*
X8369844Y24499522D02*
X8322189Y24475694D01*
X8322189Y24475694D02*
X8250706Y24475694D01*
X8250706Y24475694D02*
X8203050Y24499522D01*
X8203050Y24499522D02*
X8179223Y24523349D01*
X18117396Y15887349D02*
X18141224Y15863522D01*
X18141224Y15863522D02*
X18212706Y15839694D01*
X18212706Y15839694D02*
X18260362Y15839694D01*
X18260362Y15839694D02*
X18331845Y15863522D01*
X18331845Y15863522D02*
X18379500Y15911177D01*
X18379500Y15911177D02*
X18403327Y15958832D01*
X18403327Y15958832D02*
X18427155Y16054142D01*
X18427155Y16054142D02*
X18427155Y16125625D01*
X18427155Y16125625D02*
X18403327Y16220936D01*
X18403327Y16220936D02*
X18379500Y16268591D01*
X18379500Y16268591D02*
X18331845Y16316246D01*
X18331845Y16316246D02*
X18260362Y16340074D01*
X18260362Y16340074D02*
X18212706Y16340074D01*
X18212706Y16340074D02*
X18141224Y16316246D01*
X18141224Y16316246D02*
X18117396Y16292419D01*
X17926775Y16292419D02*
X17902947Y16316246D01*
X17902947Y16316246D02*
X17855292Y16340074D01*
X17855292Y16340074D02*
X17736154Y16340074D01*
X17736154Y16340074D02*
X17688499Y16316246D01*
X17688499Y16316246D02*
X17664671Y16292419D01*
X17664671Y16292419D02*
X17640844Y16244763D01*
X17640844Y16244763D02*
X17640844Y16197108D01*
X17640844Y16197108D02*
X17664671Y16125625D01*
X17664671Y16125625D02*
X17950603Y15839694D01*
X17950603Y15839694D02*
X17640844Y15839694D01*
X18720948Y16538194D02*
X19006879Y16538194D01*
X18863913Y16538194D02*
X18863913Y17038574D01*
X18863913Y17038574D02*
X18911569Y16967091D01*
X18911569Y16967091D02*
X18959224Y16919436D01*
X18959224Y16919436D02*
X19006879Y16895608D01*
X18411189Y17038574D02*
X18363534Y17038574D01*
X18363534Y17038574D02*
X18315878Y17014746D01*
X18315878Y17014746D02*
X18292051Y16990919D01*
X18292051Y16990919D02*
X18268223Y16943263D01*
X18268223Y16943263D02*
X18244396Y16847953D01*
X18244396Y16847953D02*
X18244396Y16728815D01*
X18244396Y16728815D02*
X18268223Y16633504D01*
X18268223Y16633504D02*
X18292051Y16585849D01*
X18292051Y16585849D02*
X18315878Y16562022D01*
X18315878Y16562022D02*
X18363534Y16538194D01*
X18363534Y16538194D02*
X18411189Y16538194D01*
X18411189Y16538194D02*
X18458844Y16562022D01*
X18458844Y16562022D02*
X18482672Y16585849D01*
X18482672Y16585849D02*
X18506499Y16633504D01*
X18506499Y16633504D02*
X18530327Y16728815D01*
X18530327Y16728815D02*
X18530327Y16847953D01*
X18530327Y16847953D02*
X18506499Y16943263D01*
X18506499Y16943263D02*
X18482672Y16990919D01*
X18482672Y16990919D02*
X18458844Y17014746D01*
X18458844Y17014746D02*
X18411189Y17038574D01*
X17934637Y17038574D02*
X17886982Y17038574D01*
X17886982Y17038574D02*
X17839326Y17014746D01*
X17839326Y17014746D02*
X17815499Y16990919D01*
X17815499Y16990919D02*
X17791671Y16943263D01*
X17791671Y16943263D02*
X17767844Y16847953D01*
X17767844Y16847953D02*
X17767844Y16728815D01*
X17767844Y16728815D02*
X17791671Y16633504D01*
X17791671Y16633504D02*
X17815499Y16585849D01*
X17815499Y16585849D02*
X17839326Y16562022D01*
X17839326Y16562022D02*
X17886982Y16538194D01*
X17886982Y16538194D02*
X17934637Y16538194D01*
X17934637Y16538194D02*
X17982292Y16562022D01*
X17982292Y16562022D02*
X18006120Y16585849D01*
X18006120Y16585849D02*
X18029947Y16633504D01*
X18029947Y16633504D02*
X18053775Y16728815D01*
X18053775Y16728815D02*
X18053775Y16847953D01*
X18053775Y16847953D02*
X18029947Y16943263D01*
X18029947Y16943263D02*
X18006120Y16990919D01*
X18006120Y16990919D02*
X17982292Y17014746D01*
X17982292Y17014746D02*
X17934637Y17038574D01*
X17553395Y16871781D02*
X17553395Y16538194D01*
X17553395Y16824125D02*
X17529568Y16847953D01*
X17529568Y16847953D02*
X17481913Y16871781D01*
X17481913Y16871781D02*
X17410430Y16871781D01*
X17410430Y16871781D02*
X17362774Y16847953D01*
X17362774Y16847953D02*
X17338947Y16800298D01*
X17338947Y16800298D02*
X17338947Y16538194D01*
D11*
X5061856Y21154818D02*
X5061856Y22678818D01*
X5061856Y22678818D02*
X4698999Y22678818D01*
X4698999Y22678818D02*
X4481285Y22606247D01*
X4481285Y22606247D02*
X4336142Y22461104D01*
X4336142Y22461104D02*
X4263571Y22315961D01*
X4263571Y22315961D02*
X4190999Y22025675D01*
X4190999Y22025675D02*
X4190999Y21807961D01*
X4190999Y21807961D02*
X4263571Y21517675D01*
X4263571Y21517675D02*
X4336142Y21372532D01*
X4336142Y21372532D02*
X4481285Y21227390D01*
X4481285Y21227390D02*
X4698999Y21154818D01*
X4698999Y21154818D02*
X5061856Y21154818D01*
X2739571Y21154818D02*
X3610428Y21154818D01*
X3174999Y21154818D02*
X3174999Y22678818D01*
X3174999Y22678818D02*
X3320142Y22461104D01*
X3320142Y22461104D02*
X3465285Y22315961D01*
X3465285Y22315961D02*
X3610428Y22243390D01*
D12*
X5868911Y25707066D02*
X5868911Y26207446D01*
X5582980Y25707066D02*
X5797429Y25992997D01*
X5582980Y26207446D02*
X5868911Y25921514D01*
X2255277Y25850032D02*
X2017001Y25850032D01*
X2302932Y25707066D02*
X2136139Y26207446D01*
X2136139Y26207446D02*
X1969346Y25707066D01*
D10*
X12148396Y27650694D02*
X12315189Y27888970D01*
X12434327Y27650694D02*
X12434327Y28151074D01*
X12434327Y28151074D02*
X12243706Y28151074D01*
X12243706Y28151074D02*
X12196051Y28127246D01*
X12196051Y28127246D02*
X12172224Y28103419D01*
X12172224Y28103419D02*
X12148396Y28055763D01*
X12148396Y28055763D02*
X12148396Y27984281D01*
X12148396Y27984281D02*
X12172224Y27936625D01*
X12172224Y27936625D02*
X12196051Y27912798D01*
X12196051Y27912798D02*
X12243706Y27888970D01*
X12243706Y27888970D02*
X12434327Y27888970D01*
X11671844Y27650694D02*
X11957775Y27650694D01*
X11814809Y27650694D02*
X11814809Y28151074D01*
X11814809Y28151074D02*
X11862465Y28079591D01*
X11862465Y28079591D02*
X11910120Y28031936D01*
X11910120Y28031936D02*
X11957775Y28008108D01*
X12489845Y28349194D02*
X12775776Y28349194D01*
X12632810Y28349194D02*
X12632810Y28849574D01*
X12632810Y28849574D02*
X12680466Y28778091D01*
X12680466Y28778091D02*
X12728121Y28730436D01*
X12728121Y28730436D02*
X12775776Y28706608D01*
X12180086Y28849574D02*
X12132431Y28849574D01*
X12132431Y28849574D02*
X12084775Y28825746D01*
X12084775Y28825746D02*
X12060948Y28801919D01*
X12060948Y28801919D02*
X12037120Y28754263D01*
X12037120Y28754263D02*
X12013293Y28658953D01*
X12013293Y28658953D02*
X12013293Y28539815D01*
X12013293Y28539815D02*
X12037120Y28444504D01*
X12037120Y28444504D02*
X12060948Y28396849D01*
X12060948Y28396849D02*
X12084775Y28373022D01*
X12084775Y28373022D02*
X12132431Y28349194D01*
X12132431Y28349194D02*
X12180086Y28349194D01*
X12180086Y28349194D02*
X12227741Y28373022D01*
X12227741Y28373022D02*
X12251569Y28396849D01*
X12251569Y28396849D02*
X12275396Y28444504D01*
X12275396Y28444504D02*
X12299224Y28539815D01*
X12299224Y28539815D02*
X12299224Y28658953D01*
X12299224Y28658953D02*
X12275396Y28754263D01*
X12275396Y28754263D02*
X12251569Y28801919D01*
X12251569Y28801919D02*
X12227741Y28825746D01*
X12227741Y28825746D02*
X12180086Y28849574D01*
X11798844Y28349194D02*
X11798844Y28849574D01*
X11751189Y28539815D02*
X11608223Y28349194D01*
X11608223Y28682781D02*
X11798844Y28492160D01*
X12148396Y25301194D02*
X12315189Y25539470D01*
X12434327Y25301194D02*
X12434327Y25801574D01*
X12434327Y25801574D02*
X12243706Y25801574D01*
X12243706Y25801574D02*
X12196051Y25777746D01*
X12196051Y25777746D02*
X12172224Y25753919D01*
X12172224Y25753919D02*
X12148396Y25706263D01*
X12148396Y25706263D02*
X12148396Y25634781D01*
X12148396Y25634781D02*
X12172224Y25587125D01*
X12172224Y25587125D02*
X12196051Y25563298D01*
X12196051Y25563298D02*
X12243706Y25539470D01*
X12243706Y25539470D02*
X12434327Y25539470D01*
X11957775Y25753919D02*
X11933947Y25777746D01*
X11933947Y25777746D02*
X11886292Y25801574D01*
X11886292Y25801574D02*
X11767154Y25801574D01*
X11767154Y25801574D02*
X11719499Y25777746D01*
X11719499Y25777746D02*
X11695671Y25753919D01*
X11695671Y25753919D02*
X11671844Y25706263D01*
X11671844Y25706263D02*
X11671844Y25658608D01*
X11671844Y25658608D02*
X11695671Y25587125D01*
X11695671Y25587125D02*
X11981603Y25301194D01*
X11981603Y25301194D02*
X11671844Y25301194D01*
X12489845Y25999694D02*
X12775776Y25999694D01*
X12632810Y25999694D02*
X12632810Y26500074D01*
X12632810Y26500074D02*
X12680466Y26428591D01*
X12680466Y26428591D02*
X12728121Y26380936D01*
X12728121Y26380936D02*
X12775776Y26357108D01*
X12180086Y26500074D02*
X12132431Y26500074D01*
X12132431Y26500074D02*
X12084775Y26476246D01*
X12084775Y26476246D02*
X12060948Y26452419D01*
X12060948Y26452419D02*
X12037120Y26404763D01*
X12037120Y26404763D02*
X12013293Y26309453D01*
X12013293Y26309453D02*
X12013293Y26190315D01*
X12013293Y26190315D02*
X12037120Y26095004D01*
X12037120Y26095004D02*
X12060948Y26047349D01*
X12060948Y26047349D02*
X12084775Y26023522D01*
X12084775Y26023522D02*
X12132431Y25999694D01*
X12132431Y25999694D02*
X12180086Y25999694D01*
X12180086Y25999694D02*
X12227741Y26023522D01*
X12227741Y26023522D02*
X12251569Y26047349D01*
X12251569Y26047349D02*
X12275396Y26095004D01*
X12275396Y26095004D02*
X12299224Y26190315D01*
X12299224Y26190315D02*
X12299224Y26309453D01*
X12299224Y26309453D02*
X12275396Y26404763D01*
X12275396Y26404763D02*
X12251569Y26452419D01*
X12251569Y26452419D02*
X12227741Y26476246D01*
X12227741Y26476246D02*
X12180086Y26500074D01*
X11798844Y25999694D02*
X11798844Y26500074D01*
X11751189Y26190315D02*
X11608223Y25999694D01*
X11608223Y26333281D02*
X11798844Y26142660D01*
D13*
%TO.C,C1*%
X7112000Y25082500D02*
X7112000Y23558500D01*
X7112000Y23558500D02*
X8128000Y23558500D01*
X8128000Y25082500D02*
X7112000Y25082500D01*
X9144000Y23558500D02*
X10160000Y23558500D01*
X10160000Y25082500D02*
X9144000Y25082500D01*
X10160000Y23558500D02*
X10160000Y25082500D01*
X7112000Y25082500D02*
G75*
G03*
X7112000Y25082500I-127000J0D01*
G01*
%TO.C,C2*%
X16510000Y17145000D02*
X16510000Y15621000D01*
X16510000Y15621000D02*
X17526000Y15621000D01*
X17526000Y17145000D02*
X16510000Y17145000D01*
X18542000Y15621000D02*
X19558000Y15621000D01*
X19558000Y17145000D02*
X18542000Y17145000D01*
X19558000Y15621000D02*
X19558000Y17145000D01*
X16510000Y17145000D02*
G75*
G03*
X16510000Y17145000I-127000J0D01*
G01*
%TO.C,D1*%
X3586480Y25384760D02*
X4587240Y24384000D01*
X3586480Y23383240D02*
X3586480Y25384760D01*
X4587240Y24434800D02*
X3586480Y23383240D01*
X4587240Y23334980D02*
X4587240Y25433020D01*
%TO.C,R1*%
X10541000Y28956000D02*
X10541000Y27432000D01*
X10541000Y27432000D02*
X11557000Y27432000D01*
X11557000Y28956000D02*
X10541000Y28956000D01*
X12573000Y27432000D02*
X13589000Y27432000D01*
X13589000Y28956000D02*
X12573000Y28956000D01*
X13589000Y27432000D02*
X13589000Y28956000D01*
X10541000Y28956000D02*
G75*
G03*
X10541000Y28956000I-127000J0D01*
G01*
%TO.C,R2*%
X10541000Y26606500D02*
X10541000Y25082500D01*
X10541000Y25082500D02*
X11557000Y25082500D01*
X11557000Y26606500D02*
X10541000Y26606500D01*
X12573000Y25082500D02*
X13589000Y25082500D01*
X13589000Y26606500D02*
X12573000Y26606500D01*
X13589000Y25082500D02*
X13589000Y26606500D01*
X10541000Y26606500D02*
G75*
G03*
X10541000Y26606500I-127000J0D01*
G01*
%TD*%
M02*
