M48
; DRILL file {KiCad 7.0.7-7.0.7~ubuntu23.04.1} date Sun Sep 17 09:29:20 2023
; FORMAT={3:3/ absolute / metric / suppress leading zeros}
; #@! TF.CreationDate,2023-09-17T09:29:20+00:00
; #@! TF.GenerationSoftware,Kicad,Pcbnew,7.0.7-7.0.7~ubuntu23.04.1
; #@! TF.FileFunction,Plated,1,2,PTH
FMAT,2
METRIC,TZ
; #@! TA.AperFunction,Plated,PTH,ViaDrill
T1C0.400
; #@! TA.AperFunction,Plated,PTH,ComponentDrill
T2C0.889
; #@! TA.AperFunction,Plated,PTH,ComponentDrill
T3C3.000
%
G90
G05
T1
X11494Y23685
X11494Y23685
X16955Y17780
X18034Y20384
T2
X2032Y21526
X2032Y18987
X2032Y16447
X2032Y13907
X2032Y11367
X2858Y29655
X2858Y27115
X4572Y21526
X4572Y18987
X4572Y16447
X4572Y13907
X4572Y11367
X5398Y29655
X5398Y27115
X7112Y21526
X7112Y18987
X7112Y16447
X7112Y13907
X7112Y11367
X7938Y29655
X7938Y27115
X9652Y21526
X9652Y18987
X9652Y16447
X9652Y13907
X9652Y11367
X12192Y21526
X12192Y18987
X12192Y16447
X12192Y13907
X12192Y11367
X14732Y21526
X14732Y18987
X14732Y16447
X14732Y13907
X14732Y11367
X15430Y28130
X15430Y25590
X17970Y28130
X17970Y25590
T3
X5080Y35560
X5080Y5080
X15240Y35560
X15240Y5080
T0
M30
